<svg width="122" height="115" viewBox="0 0 122 115" fill="none" xmlns="http://www.w3.org/2000/svg">
<path d="M8.38281 113.449H121" stroke="#2B323C" stroke-width="2" stroke-miterlimit="10" stroke-linecap="round" stroke-linejoin="round"/>
<path d="M89.2643 112.568C80.8897 112.788 70.8621 112.568 63.8098 112.458C56.7574 112.678 46.7299 112.788 38.3552 112.568C46.6197 107.832 49.4847 99.1316 49.9255 93.4045H77.5839C78.1349 99.1316 80.9999 107.832 89.2643 112.568Z" fill="url(#paint0_linear)"/>
<path d="M39.2369 114H88.3829C89.0441 114 89.7052 113.449 89.7052 112.678C89.7052 112.018 89.1542 111.357 88.3829 111.357H39.2369C38.5757 111.357 37.9146 111.907 37.9146 112.678C37.9146 113.449 38.4655 114 39.2369 114Z" fill="#353B4A"/>
<path d="M116.152 20.4942V92.4133C116.152 94.1755 114.719 95.4971 113.066 95.4971H15.1047C13.4518 95.4971 12.0193 94.0653 12.0193 92.4133V20.4942C12.0193 18.8421 13.4518 17.4103 15.1047 17.4103H113.066C114.719 17.4103 116.152 18.732 116.152 20.4942Z" fill="#353B4A"/>
<path d="M116.152 20.4942V82.501H12.0193V20.4942C12.0193 18.8421 13.4518 17.4103 15.1047 17.4103H113.066C114.719 17.4103 116.152 18.732 116.152 20.4942Z" fill="#262A31"/>
<path d="M112.074 21.2651H15.4351V78.9766H112.074V21.2651Z" fill="#474E61"/>
<path d="M63.8098 91.8626C65.2096 91.8626 66.3443 90.7284 66.3443 89.3294C66.3443 87.9304 65.2096 86.7963 63.8098 86.7963C62.4101 86.7963 61.2754 87.9304 61.2754 89.3294C61.2754 90.7284 62.4101 91.8626 63.8098 91.8626Z" fill="#262A31"/>
<path d="M19.843 70.1657H17.6392V72.3684H19.843V70.1657Z" fill="#354157"/>
<path d="M19.843 65.7603H17.6392V67.963H19.843V65.7603Z" fill="#354157"/>
<path d="M19.843 61.4649H17.6392V63.6677H19.843V61.4649Z" fill="#354157"/>
<path d="M19.843 57.1696H17.6392V59.3723H19.843V57.1696Z" fill="url(#paint1_linear)"/>
<path d="M19.843 52.7642H17.6392V54.9669H19.843V52.7642Z" fill="#354157"/>
<path d="M19.843 48.4688H17.6392V50.6715H19.843V48.4688Z" fill="#2C3241"/>
<path d="M24.3611 74.461H22.1572V76.6638H24.3611V74.461Z" fill="#354157"/>
<path d="M24.3611 70.1657H22.1572V72.3684H24.3611V70.1657Z" fill="#354157"/>
<path d="M24.3611 61.4649H22.1572V63.6677H24.3611V61.4649Z" fill="#354157"/>
<path d="M24.3611 57.1696H22.1572V59.3723H24.3611V57.1696Z" fill="#354157"/>
<path d="M24.3611 52.7642H22.1572V54.9669H24.3611V52.7642Z" fill="#354157"/>
<path d="M24.3611 48.4688H22.1572V50.6715H24.3611V48.4688Z" fill="#354157"/>
<path d="M24.3611 44.1735H22.1572V46.3762H24.3611V44.1735Z" fill="#354157"/>
<path d="M24.3611 39.768H22.1572V41.9708H24.3611V39.768Z" fill="url(#paint2_linear)"/>
<path d="M28.8787 74.461H26.6748V76.6638H28.8787V74.461Z" fill="#354157"/>
<path d="M28.8787 70.1657H26.6748V72.3684H28.8787V70.1657Z" fill="#354157"/>
<path d="M28.8787 65.7603H26.6748V67.963H28.8787V65.7603Z" fill="#354157"/>
<path d="M28.8787 61.4649H26.6748V63.6677H28.8787V61.4649Z" fill="#354157"/>
<path d="M28.8787 57.1696H26.6748V59.3723H28.8787V57.1696Z" fill="url(#paint3_linear)"/>
<path d="M28.8787 52.7642H26.6748V54.9669H28.8787V52.7642Z" fill="#2C3241"/>
<path d="M28.8787 48.4688H26.6748V50.6715H28.8787V48.4688Z" fill="#354157"/>
<path d="M28.8787 44.1735H26.6748V46.3762H28.8787V44.1735Z" fill="#2C3241"/>
<path d="M28.8787 39.768H26.6748V41.9708H28.8787V39.768Z" fill="#354157"/>
<path d="M28.8789 35.4727H26.675V37.6754H28.8789V35.4727Z" fill="#2C3241"/>
<path d="M33.2864 74.461H31.0825V76.6638H33.2864V74.461Z" fill="#354157"/>
<path d="M33.2864 70.1657H31.0825V72.3684H33.2864V70.1657Z" fill="#354157"/>
<path d="M33.2864 65.7603H31.0825V67.963H33.2864V65.7603Z" fill="#354157"/>
<path d="M33.2864 61.4649H31.0825V63.6677H33.2864V61.4649Z" fill="#354157"/>
<path d="M33.2864 57.1696H31.0825V59.3723H33.2864V57.1696Z" fill="#354157"/>
<path d="M33.2864 52.7642H31.0825V54.9669H33.2864V52.7642Z" fill="#2C3241"/>
<path d="M33.2864 48.4688H31.0825V50.6715H33.2864V48.4688Z" fill="#354157"/>
<path d="M33.2864 44.1735H31.0825V46.3762H33.2864V44.1735Z" fill="#354157"/>
<path d="M37.8044 74.461H35.6006V76.6638H37.8044V74.461Z" fill="#354157"/>
<path d="M37.8044 70.1657H35.6006V72.3684H37.8044V70.1657Z" fill="#354157"/>
<path d="M37.8044 65.7603H35.6006V67.963H37.8044V65.7603Z" fill="#354157"/>
<path d="M37.8044 57.1696H35.6006V59.3723H37.8044V57.1696Z" fill="#354157"/>
<path d="M37.8044 52.7642H35.6006V54.9669H37.8044V52.7642Z" fill="url(#paint4_linear)"/>
<path d="M37.8044 48.4688H35.6006V50.6715H37.8044V48.4688Z" fill="#2C3241"/>
<path d="M42.3225 74.461H40.1187V76.6638H42.3225V74.461Z" fill="#354157"/>
<path d="M42.3225 70.1657H40.1187V72.3684H42.3225V70.1657Z" fill="#354157"/>
<path d="M42.3225 65.7603H40.1187V67.963H42.3225V65.7603Z" fill="#354157"/>
<path d="M42.3225 61.4649H40.1187V63.6677H42.3225V61.4649Z" fill="#354157"/>
<path d="M42.3225 57.1696H40.1187V59.3723H42.3225V57.1696Z" fill="#354157"/>
<path d="M42.3225 52.7642H40.1187V54.9669H42.3225V52.7642Z" fill="#354157"/>
<path d="M42.3225 48.4688H40.1187V50.6715H42.3225V48.4688Z" fill="#2C3241"/>
<path d="M42.3225 44.1735H40.1187V46.3762H42.3225V44.1735Z" fill="#354157"/>
<path d="M42.3225 39.768H40.1187V41.9708H42.3225V39.768Z" fill="#354157"/>
<path d="M46.8403 74.461H44.6365V76.6638H46.8403V74.461Z" fill="#354157"/>
<path d="M46.8403 70.1657H44.6365V72.3684H46.8403V70.1657Z" fill="#354157"/>
<path d="M46.8403 65.7603H44.6365V67.963H46.8403V65.7603Z" fill="#354157"/>
<path d="M46.8403 57.1696H44.6365V59.3723H46.8403V57.1696Z" fill="#354157"/>
<path d="M46.8403 52.7642H44.6365V54.9669H46.8403V52.7642Z" fill="#2C3241"/>
<path d="M51.3582 74.461H49.1543V76.6638H51.3582V74.461Z" fill="url(#paint5_linear)"/>
<path d="M51.3582 70.1657H49.1543V72.3684H51.3582V70.1657Z" fill="#354157"/>
<path d="M51.3582 65.7603H49.1543V67.963H51.3582V65.7603Z" fill="#354157"/>
<path d="M51.3582 61.4649H49.1543V63.6677H51.3582V61.4649Z" fill="#2C3241"/>
<path d="M51.3582 57.1696H49.1543V59.3723H51.3582V57.1696Z" fill="#354157"/>
<path d="M51.3582 48.4688H49.1543V50.6715H51.3582V48.4688Z" fill="#354157"/>
<path d="M51.3582 44.1735H49.1543V46.3762H51.3582V44.1735Z" fill="#2C3241"/>
<path d="M55.8762 74.461H53.6724V76.6638H55.8762V74.461Z" fill="#354157"/>
<path d="M55.8762 70.1657H53.6724V72.3684H55.8762V70.1657Z" fill="#354157"/>
<path d="M55.8762 65.7603H53.6724V67.963H55.8762V65.7603Z" fill="url(#paint6_linear)"/>
<path d="M55.8762 61.4649H53.6724V63.6677H55.8762V61.4649Z" fill="#354157"/>
<path d="M55.8762 57.1696H53.6724V59.3723H55.8762V57.1696Z" fill="#354157"/>
<path d="M55.8762 52.7642H53.6724V54.9669H55.8762V52.7642Z" fill="#354157"/>
<path d="M55.8762 48.4688H53.6724V50.6715H55.8762V48.4688Z" fill="#2C3241"/>
<path d="M55.8762 39.768H53.6724V41.9708H55.8762V39.768Z" fill="#354157"/>
<path d="M55.8762 35.4727H53.6724V37.6754H55.8762V35.4727Z" fill="#2C3241"/>
<path d="M87.5017 70.1657H85.2979V72.3684H87.5017V70.1657Z" fill="#354157"/>
<path d="M87.5017 61.4649H85.2979V63.6677H87.5017V61.4649Z" fill="#354157"/>
<path d="M87.5017 57.1696H85.2979V59.3723H87.5017V57.1696Z" fill="#354157"/>
<path d="M87.5017 52.7642H85.2979V54.9669H87.5017V52.7642Z" fill="#2C3241"/>
<path d="M87.5017 48.4688H85.2979V50.6715H87.5017V48.4688Z" fill="#354157"/>
<path d="M87.5017 44.1735H85.2979V46.3762H87.5017V44.1735Z" fill="#354157"/>
<path d="M92.0193 74.461H89.8154V76.6638H92.0193V74.461Z" fill="#354157"/>
<path d="M92.0193 70.1657H89.8154V72.3684H92.0193V70.1657Z" fill="#354157"/>
<path d="M92.0193 65.7603H89.8154V67.963H92.0193V65.7603Z" fill="#354157"/>
<path d="M92.0193 61.4649H89.8154V63.6677H92.0193V61.4649Z" fill="#354157"/>
<path d="M92.0193 57.1696H89.8154V59.3723H92.0193V57.1696Z" fill="#354157"/>
<path d="M92.0193 52.7642H89.8154V54.9669H92.0193V52.7642Z" fill="url(#paint7_linear)"/>
<path d="M92.0193 48.4688H89.8154V50.6715H92.0193V48.4688Z" fill="#2C3241"/>
<path d="M96.5374 74.461H94.3335V76.6638H96.5374V74.461Z" fill="#354157"/>
<path d="M96.5374 70.1657H94.3335V72.3684H96.5374V70.1657Z" fill="#354157"/>
<path d="M96.5374 65.7603H94.3335V67.963H96.5374V65.7603Z" fill="#354157"/>
<path d="M96.5374 61.4649H94.3335V63.6677H96.5374V61.4649Z" fill="#354157"/>
<path d="M96.5374 57.1696H94.3335V59.3723H96.5374V57.1696Z" fill="#354157"/>
<path d="M96.5374 52.7642H94.3335V54.9669H96.5374V52.7642Z" fill="#354157"/>
<path d="M96.5374 48.4688H94.3335V50.6715H96.5374V48.4688Z" fill="#2C3241"/>
<path d="M96.5374 44.1735H94.3335V46.3762H96.5374V44.1735Z" fill="#354157"/>
<path d="M96.5374 39.768H94.3335V41.9708H96.5374V39.768Z" fill="#354157"/>
<path d="M100.945 74.461H98.7412V76.6638H100.945V74.461Z" fill="#354157"/>
<path d="M100.945 70.1657H98.7412V72.3684H100.945V70.1657Z" fill="#354157"/>
<path d="M100.945 65.7603H98.7412V67.963H100.945V65.7603Z" fill="#354157"/>
<path d="M100.945 61.4649H98.7412V63.6677H100.945V61.4649Z" fill="#354157"/>
<path d="M100.945 57.1696H98.7412V59.3723H100.945V57.1696Z" fill="#354157"/>
<path d="M105.463 74.461H103.259V76.6638H105.463V74.461Z" fill="url(#paint8_linear)"/>
<path d="M105.463 70.1657H103.259V72.3684H105.463V70.1657Z" fill="#354157"/>
<path d="M105.463 65.7603H103.259V67.963H105.463V65.7603Z" fill="#354157"/>
<path d="M105.463 61.4649H103.259V63.6677H105.463V61.4649Z" fill="#2C3241"/>
<path d="M105.463 57.1696H103.259V59.3723H105.463V57.1696Z" fill="#354157"/>
<path d="M105.463 52.7642H103.259V54.9669H105.463V52.7642Z" fill="url(#paint9_linear)"/>
<path d="M105.463 48.4688H103.259V50.6715H105.463V48.4688Z" fill="#354157"/>
<path d="M105.463 44.1735H103.259V46.3762H105.463V44.1735Z" fill="#2C3241"/>
<path d="M109.981 74.461H107.777V76.6638H109.981V74.461Z" fill="#354157"/>
<path d="M109.981 70.1657H107.777V72.3684H109.981V70.1657Z" fill="#354157"/>
<path d="M109.981 65.7603H107.777V67.963H109.981V65.7603Z" fill="url(#paint10_linear)"/>
<path d="M109.981 61.4649H107.777V63.6677H109.981V61.4649Z" fill="#354157"/>
<path d="M109.981 57.1696H107.777V59.3723H109.981V57.1696Z" fill="#354157"/>
<path d="M109.981 52.7642H107.777V54.9669H109.981V52.7642Z" fill="#354157"/>
<path d="M109.981 48.4688H107.777V50.6715H109.981V48.4688Z" fill="#2C3241"/>
<path d="M109.981 39.768H107.777V41.9708H109.981V39.768Z" fill="#354157"/>
<path d="M109.981 35.4727H107.777V37.6754H109.981V35.4727Z" fill="#2C3241"/>
<path d="M60.3943 74.461H58.1904V76.6638H60.3943V74.461Z" fill="#354157"/>
<path d="M60.3943 70.1657H58.1904V72.3684H60.3943V70.1657Z" fill="#354157"/>
<path d="M60.3943 65.7603H58.1904V67.963H60.3943V65.7603Z" fill="#354157"/>
<path d="M60.3943 57.1696H58.1904V59.3723H60.3943V57.1696Z" fill="#2C3241"/>
<path d="M60.3943 48.4688H58.1904V50.6715H60.3943V48.4688Z" fill="#354157"/>
<path d="M60.3943 44.1735H58.1904V46.3762H60.3943V44.1735Z" fill="#2C3241"/>
<path d="M60.3943 39.768H58.1904V41.9708H60.3943V39.768Z" fill="#354157"/>
<path d="M60.394 35.4727H58.1902V37.6754H60.394V35.4727Z" fill="#2C3241"/>
<path d="M64.9119 70.1657H62.708V72.3684H64.9119V70.1657Z" fill="#354157"/>
<path d="M64.9119 65.7603H62.708V67.963H64.9119V65.7603Z" fill="#2C3241"/>
<path d="M64.9119 61.4649H62.708V63.6677H64.9119V61.4649Z" fill="#354157"/>
<path d="M64.9119 57.1696H62.708V59.3723H64.9119V57.1696Z" fill="#354157"/>
<path d="M64.9119 52.7642H62.708V54.9669H64.9119V52.7642Z" fill="url(#paint11_linear)"/>
<path d="M64.9119 48.4688H62.708V50.6715H64.9119V48.4688Z" fill="#354157"/>
<path d="M64.9119 44.1735H62.708V46.3762H64.9119V44.1735Z" fill="#354157"/>
<path d="M69.4299 74.461H67.2261V76.6638H69.4299V74.461Z" fill="#354157"/>
<path d="M69.4299 65.7603H67.2261V67.963H69.4299V65.7603Z" fill="#354157"/>
<path d="M69.4299 61.4649H67.2261V63.6677H69.4299V61.4649Z" fill="url(#paint12_linear)"/>
<path d="M69.4299 57.1696H67.2261V59.3723H69.4299V57.1696Z" fill="#354157"/>
<path d="M69.4299 52.7642H67.2261V54.9669H69.4299V52.7642Z" fill="#2C3241"/>
<path d="M69.4299 48.4688H67.2261V50.6715H69.4299V48.4688Z" fill="url(#paint13_linear)"/>
<path d="M73.9478 74.461H71.7439V76.6638H73.9478V74.461Z" fill="#354157"/>
<path d="M73.9478 61.4649H71.7439V63.6677H73.9478V61.4649Z" fill="#2C3241"/>
<path d="M73.9478 57.1696H71.7439V59.3723H73.9478V57.1696Z" fill="#354157"/>
<path d="M73.9478 52.7642H71.7439V54.9669H73.9478V52.7642Z" fill="#354157"/>
<path d="M78.4656 74.461H76.2617V76.6638H78.4656V74.461Z" fill="#354157"/>
<path d="M78.4656 70.1657H76.2617V72.3684H78.4656V70.1657Z" fill="#354157"/>
<path d="M78.4656 65.7603H76.2617V67.963H78.4656V65.7603Z" fill="#354157"/>
<path d="M78.4656 61.4649H76.2617V63.6677H78.4656V61.4649Z" fill="#354157"/>
<path d="M78.4656 57.1696H76.2617V59.3723H78.4656V57.1696Z" fill="#2C3241"/>
<path d="M78.4656 52.7642H76.2617V54.9669H78.4656V52.7642Z" fill="#354157"/>
<path d="M78.4656 48.4688H76.2617V50.6715H78.4656V48.4688Z" fill="url(#paint14_linear)"/>
<path d="M78.4656 44.1735H76.2617V46.3762H78.4656V44.1735Z" fill="#354157"/>
<path d="M82.8733 74.461H80.6694V76.6638H82.8733V74.461Z" fill="#354157"/>
<path d="M82.8733 65.7603H80.6694V67.963H82.8733V65.7603Z" fill="#354157"/>
<path d="M82.8733 61.4649H80.6694V63.6677H82.8733V61.4649Z" fill="#2C3241"/>
<path d="M82.1019 70.0555H46.6198C45.2975 70.0555 44.1956 68.9542 44.1956 67.6325V31.5078C44.1956 30.1861 45.2975 29.0848 46.6198 29.0848H82.1019C83.4242 29.0848 84.5262 30.1861 84.5262 31.5078V67.6325C84.5262 68.9542 83.4242 70.0555 82.1019 70.0555Z" fill="#1E242D"/>
<path d="M64.1404 42.8518C66.2705 42.8518 67.9972 41.126 67.9972 38.997C67.9972 36.8681 66.2705 35.1423 64.1404 35.1423C62.0104 35.1423 60.2837 36.8681 60.2837 38.997C60.2837 41.126 62.0104 42.8518 64.1404 42.8518Z" fill="#474F61"/>
<path d="M77.9148 49.7904H50.2564C49.9258 49.7904 49.5952 49.46 49.5952 49.1296V46.1559C49.5952 45.8255 49.9258 45.4951 50.2564 45.4951H77.9148C78.2454 45.4951 78.5759 45.8255 78.5759 46.1559V49.1296C78.5759 49.46 78.2454 49.7904 77.9148 49.7904Z" fill="#474F61"/>
<path d="M77.9148 57.1696H50.2564C49.9258 57.1696 49.5952 56.8392 49.5952 56.5088V53.5351C49.5952 53.2047 49.9258 52.8743 50.2564 52.8743H77.9148C78.2454 52.8743 78.5759 53.2047 78.5759 53.5351V56.5088C78.5759 56.8392 78.2454 57.1696 77.9148 57.1696Z" fill="#474F61"/>
<path d="M78.0249 59.3723H68.3279C67.9973 59.3723 67.6667 59.5926 67.6667 60.0331V62.4561C67.6667 62.7865 67.8871 63.117 68.3279 63.117H78.0249C78.3555 63.117 78.686 62.8967 78.686 62.4561V60.0331C78.5758 59.7027 78.3555 59.3723 78.0249 59.3723Z" fill="url(#paint15_linear)"/>
<path d="M75.7107 60.8041H70.5316C70.3112 60.8041 70.0908 61.0245 70.0908 61.2449C70.0908 61.4652 70.3112 61.6856 70.5316 61.6856H75.7107C75.931 61.6856 76.1514 61.4652 76.1514 61.2449C76.1514 60.9143 75.931 60.8041 75.7107 60.8041Z" fill="white"/>
<path d="M65.2423 54.7466H52.0191C51.7988 54.7466 51.5784 54.9669 51.5784 55.1873C51.5784 55.4077 51.7988 55.6281 52.0191 55.6281H65.2423C65.4627 55.6281 65.6831 55.4077 65.6831 55.1873C65.5729 54.8567 65.4627 54.7466 65.2423 54.7466Z" fill="#6E7A95"/>
<path d="M65.2423 47.1472H52.0191C51.7988 47.1472 51.5784 47.3675 51.5784 47.5879C51.5784 47.8083 51.7988 48.0287 52.0191 48.0287H65.2423C65.4627 48.0287 65.6831 47.8083 65.6831 47.5879C65.5729 47.3675 65.4627 47.1472 65.2423 47.1472Z" fill="#6E7A95"/>
<path d="M104.03 81.1794C104.03 85.2544 102.267 88.8889 99.5126 91.422C96.9782 93.7349 93.6724 95.1667 90.036 95.1667C87.0608 95.1667 84.306 94.2856 82.1021 92.7437C78.4657 90.2105 76.0415 86.0254 76.0415 81.2895C76.0415 73.5799 82.3225 67.3022 90.036 67.3022C97.7495 67.3022 104.03 73.4698 104.03 81.1794Z" fill="#474E61"/>
<path d="M99 92C98.8898 91.6696 99.733 91.6424 99.6228 91.312C99.6228 91.2019 99.5126 91.0917 99.4024 90.8715C98.8515 89.7701 97.9699 88.6687 96.7578 88.0079C96.2068 87.6775 95.5457 87.5674 94.7743 87.5674C94.5539 87.5674 94.3335 87.5674 94.2234 87.5674C93.0112 87.5674 92.901 87.3471 92.901 87.3471V85.3646C93.5622 84.814 94.1132 84.2633 94.5539 83.6025C94.9947 82.9416 95.3253 82.2808 95.5457 81.5099C96.317 81.2896 96.868 80.6288 96.7578 79.8578C96.7578 79.5274 96.5374 79.197 96.5374 78.8666C96.5374 78.6463 96.5374 78.5362 96.5374 78.3159C96.5374 78.2058 96.5374 78.0956 96.5374 77.9855C96.5374 77.8754 96.5374 77.7652 96.5374 77.6551C96.4272 77.1044 96.317 76.4436 95.8762 75.6726C94.8845 73.8003 92.901 72.5888 90.6972 72.5888C90.2564 72.5888 89.8156 72.5888 89.3749 72.6989C88.6035 72.9192 87.8322 73.2496 87.171 73.6902C87.0608 73.8003 86.9506 73.9104 86.8404 74.0206C86.8404 74.0206 86.7302 74.0206 86.7302 74.1307C86.0691 74.7915 85.5181 75.5625 85.1875 76.5537C84.857 77.4348 84.857 78.426 84.9671 79.4173C84.9671 79.4173 84.9671 79.4173 84.9671 79.5274C84.9671 79.5274 84.9671 79.5274 84.9671 79.6375C84.9671 79.8578 85.0773 79.7477 84.9671 79.9679L84.857 80.0781C84.7468 80.2984 84.6366 80.7389 84.7468 81.1795C85.0773 82.0605 85.6283 81.9504 86.1793 82.391C86.1793 82.391 86.0691 82.391 86.0691 82.5011L85.4079 82.7214C82.6531 83.6024 81.7716 85.9153 82.8735 87.3471C83.3143 87.8978 83.9754 88.3383 85.0773 88.5586C84.7468 88.5586 84.5264 88.7789 84.4162 88.889C83.2041 89.8802 82.4327 91.312 82.2123 92.7438C82.1021 93.1843 82.5429 93.5147 82.8735 93.5147L98 92.5C98.551 92.1696 99.1102 92.4405 99 92ZM87.171 84.2633C87.2812 84.4835 87.5016 84.7038 87.722 84.9241C87.8322 85.0342 88.0525 85.2545 88.2729 85.3646C88.3831 85.4748 88.4933 85.5849 88.6035 85.5849C88.6035 85.5849 88.6035 85.5849 88.7137 85.695C88.7137 85.695 88.8239 85.695 88.8239 85.8052V86.9065C88.8239 86.9065 88.8239 86.9065 88.7137 86.7964C88.6035 86.6863 88.4933 86.5761 88.3831 86.5761C88.1627 86.466 88.0526 86.3559 87.8322 86.2457C87.722 86.2457 87.722 86.1356 87.6118 86.1356C87.0608 85.8052 86.5099 85.4748 86.5099 85.0342C86.62 84.814 86.8404 84.5937 87.171 84.2633Z" fill="#7A83A0"/>
<path d="M99.5125 91.3119C96.9781 93.6248 93.6723 95.0566 90.0359 95.0566C87.0607 95.0566 84.3059 94.1755 82.1021 92.6336C82.1021 92.5234 82.1021 92.5234 82.1021 92.4133C82.3224 90.9815 83.0938 89.5497 84.3059 88.5585C84.5263 88.4484 84.7467 88.2281 84.9671 88.2281C83.9753 88.0078 83.204 87.5673 82.7632 87.0166H86.069C86.9505 88.3382 88.4932 89.1092 90.2563 89.1092C91.6888 89.1092 93.0112 88.5585 93.8927 87.5673C94.0029 87.5673 94.1131 87.5673 94.2233 87.5673C94.3335 87.5673 94.5538 87.5673 94.7742 87.5673C95.5456 87.5673 96.2067 87.7876 96.7577 88.0078C97.9698 88.5585 98.8514 89.6599 99.4023 90.8714C99.4023 91.0917 99.5125 91.2018 99.5125 91.3119Z" fill="url(#paint16_linear)"/>
<path d="M92.9009 85.3646V87.2369L87.5015 87.4572L87.832 86.2457C87.9422 86.2457 87.9422 86.3558 88.0524 86.3558C88.2728 86.4659 88.383 86.5761 88.6034 86.6862C88.7136 86.7963 88.8238 86.7963 88.934 86.9065C88.934 86.9065 88.934 86.9065 89.0442 87.0166V85.8051C89.0442 85.8051 88.934 85.8051 88.934 85.695C89.8155 86.1355 91.1378 86.4659 92.9009 85.3646Z" fill="url(#paint17_linear)"/>
<path d="M96.4272 77.9854C95.3253 78.3158 94.2233 78.5361 93.1214 78.4259C91.3583 78.3158 89.5952 77.5449 88.2729 76.3334C87.8322 77.655 86.7302 78.6462 85.4079 79.1969C85.1875 79.307 85.0773 79.307 84.8569 79.4172C84.8569 79.4172 84.8569 79.4172 84.8569 79.307C84.7468 78.3158 84.857 77.4347 85.0773 76.4435C85.4079 75.5624 85.9589 74.6813 86.62 74.0205C86.62 74.0205 86.7302 74.0205 86.7302 73.9103C86.8404 73.8002 86.9506 73.6901 87.0608 73.5799C87.722 73.1394 88.4933 72.809 89.2647 72.5887C89.7054 72.4786 90.1462 72.4786 90.587 72.4786C92.7908 72.4786 94.7743 73.6901 95.766 75.5624C96.0966 76.3333 96.317 76.884 96.4272 77.4347C96.4272 77.655 96.4272 77.7651 96.4272 77.9854Z" fill="#1C3754"/>
<path d="M89.5952 90.6511C89.1544 91.2018 88.2729 91.3119 87.5015 91.2018C88.2729 90.4308 87.8321 87.8977 85.0773 88.2281C81.2206 87.4571 81.6613 83.6023 85.4079 82.3908L86.069 82.1706L86.1792 82.2807C86.5098 83.0517 86.8404 83.7125 87.2812 84.2632C85.7385 85.5848 87.8321 85.9152 88.9341 86.9064C89.7054 87.4571 90.4768 89.5497 89.5952 90.6511Z" fill="#1C3754"/>
<path d="M104.03 81.1794C104.03 85.2544 102.267 88.8889 99.5126 91.422C96.9782 93.7349 93.6724 95.1667 90.036 95.1667C87.0608 95.1667 84.306 94.2856 82.1021 92.7437C78.4657 90.2105 76.0415 86.0254 76.0415 81.2895C76.0415 73.5799 82.3225 67.3022 90.036 67.3022C97.7495 67.3022 104.03 73.4698 104.03 81.1794Z" stroke="#687086" stroke-width="1.492" stroke-miterlimit="10" stroke-linecap="round" stroke-linejoin="round"/>
<path d="M38.0248 19.5029C38.0248 24.4591 36.0413 28.9747 32.9559 32.2788C32.7355 32.6092 32.405 32.8294 32.0744 33.1598C28.7686 36.2437 24.3609 38.116 19.5124 38.116C15.6557 38.116 12.0193 36.9045 8.93389 34.8119C8.05234 34.2612 7.28099 33.4903 6.50964 32.8294C3.09366 29.4152 1 24.7895 1 19.6131C1 9.26023 9.26447 1 19.5124 1C29.7603 1 38.0248 9.26023 38.0248 19.5029Z" fill="#E9F0F8"/>
<path d="M38.0248 19.5029C38.0248 24.8996 35.7108 29.7456 32.0744 33.0497C28.7686 36.1335 24.3609 38.0059 19.5124 38.0059C15.6557 38.0059 12.0193 36.7944 8.93389 34.7018C4.0854 31.3977 1 25.7807 1 19.5029C1 9.26023 9.26447 1 19.5124 1C29.7603 1 38.0248 9.26023 38.0248 19.5029Z" fill="#474E61"/>
<path d="M32.9561 32.2788C32.7357 32.6092 32.4051 32.8294 32.0745 33.1598C28.7687 36.2437 24.361 38.116 19.5125 38.116C15.6558 38.116 12.0194 36.9045 8.93401 34.8119C8.05247 34.2612 7.28112 33.4903 6.50977 32.8294C6.95054 32.2788 7.61169 31.9483 9.0442 31.3977L9.59517 31.1774C10.6971 30.7368 12.2398 30.1862 14.2233 29.3051C14.5538 29.1949 14.7742 28.9747 14.9946 28.7544C15.1048 28.6443 15.215 28.5341 15.215 28.3138C15.3252 28.0936 15.4354 27.7632 15.4354 27.5429V23.7982C15.3252 23.6881 15.3252 23.6881 15.215 23.578C14.8844 23.1374 14.664 22.5867 14.664 21.9259L14.3335 21.8158C13.3417 22.0361 13.4519 21.0448 13.2315 19.0624C13.1213 18.1813 13.2315 18.0711 13.6723 17.961L14.0029 17.5205C13.3417 15.8684 13.0111 14.5468 13.0111 13.4454C13.0111 11.5731 13.7825 10.3616 14.8844 9.81092C14.2233 8.15887 14.2233 7.71832 14.2233 7.71832C14.2233 7.71832 18.08 8.37914 19.5125 8.15887C21.1654 7.82846 23.81 8.26901 24.8018 10.4717C26.4547 11.1326 27.0056 12.1238 27.226 13.2251C27.4464 14.9873 26.4547 16.9698 26.2343 17.6306V17.7407C26.4547 17.8509 26.5649 18.0712 26.4547 18.8421C26.2343 20.7144 26.2343 21.8158 25.3527 21.5955L24.4712 23.0273C24.4712 23.2476 24.4712 23.2476 24.361 23.3577C24.361 23.6881 24.361 24.2388 24.361 27.3226C24.361 27.653 24.4712 28.0936 24.6916 28.3138C24.8018 28.424 24.8018 28.5341 24.912 28.5341C25.1324 28.7544 25.3527 28.9747 25.5731 29.0848C27.777 29.9659 29.4299 30.6267 30.5318 31.0673C31.7439 31.5078 32.4051 31.8382 32.9561 32.2788Z" fill="#7A83A0"/>
<path d="M32.9561 32.2787C32.7357 32.6091 32.4051 32.8294 32.0745 33.1598C28.7687 36.2436 24.361 38.116 19.5125 38.116C15.6558 38.116 12.0194 36.9045 8.93401 34.8119C8.05247 34.2612 7.28112 33.4902 6.50977 32.8294C6.95054 32.2787 7.61169 31.9483 9.0442 31.3976L9.59517 31.1774C10.6971 30.7368 12.2398 30.1861 14.2233 29.305C14.5538 29.1949 14.7742 28.9746 14.9946 28.7544C16.0965 30.2963 17.8596 31.2875 19.9533 31.2875C21.9368 31.2875 23.6999 30.2963 24.8018 28.8645C25.0222 29.0848 25.2426 29.305 25.4629 29.4152C27.6668 30.2963 29.3197 30.9571 30.4216 31.3976C31.7439 31.5078 32.4051 31.8382 32.9561 32.2787Z" fill="url(#paint18_linear)"/>
<path d="M26.1241 17.6306C26.2343 17.1901 26.0139 16.5292 25.7935 16.1988C25.7935 16.0887 25.6833 16.0887 25.6833 15.9786C24.912 14.4366 23.2591 13.886 21.7164 13.7758C17.6392 13.5556 17.3087 14.3265 15.9863 13.2251C16.4271 13.7758 16.4271 14.7671 15.766 15.8684C15.3252 16.6394 14.5538 17.0799 13.7825 17.3002C11.9092 13.115 12.9009 10.4717 14.664 9.59064C14.2233 8.15887 14.2233 7.71832 14.2233 7.71832C14.2233 7.71832 18.08 8.37914 19.5125 8.15887C21.1654 7.82846 23.81 8.26901 24.8018 10.4717C26.4547 11.1326 27.0056 12.1238 27.226 13.2251C27.3362 14.9873 26.3445 16.8596 26.1241 17.6306Z" fill="#1C3754"/>
<path d="M15.4355 27.3226V23.5779C15.3253 23.4678 15.3253 23.4678 15.2151 23.3577V23.1374C15.4355 23.4678 15.6559 23.7982 15.9864 24.0185L18.9616 26.1111C19.6228 26.6618 20.6145 26.6618 21.3859 26.1111L24.1407 23.6881C24.2509 23.5779 24.3611 23.4678 24.4713 23.4678C24.4713 23.7982 24.4713 24.3489 24.4713 27.4327C24.4713 27.653 24.4713 27.7631 24.5815 27.9834H15.5457C15.4355 27.7631 15.4355 27.5428 15.4355 27.3226Z" fill="url(#paint19_linear)"/>
<path d="M38.0248 19.5029C38.0248 24.8996 35.7108 29.7456 32.0744 33.0497C28.7686 36.1335 24.3609 38.0059 19.5124 38.0059C15.6557 38.0059 12.0193 36.7944 8.93389 34.7018C4.0854 31.3977 1 25.7807 1 19.5029C1 9.26023 9.26447 1 19.5124 1C29.7603 1 38.0248 9.26023 38.0248 19.5029Z" stroke="#687086" stroke-width="1.9345" stroke-miterlimit="10" stroke-linecap="round" stroke-linejoin="round"/>
<defs>
<linearGradient id="paint0_linear" x1="63.7011" y1="112.192" x2="63.7011" y2="94.9577" gradientUnits="userSpaceOnUse">
<stop stop-color="#474755"/>
<stop offset="0.9913" stop-color="#2F3338"/>
</linearGradient>
<linearGradient id="paint1_linear" x1="17.608" y1="58.2377" x2="19.8195" y2="58.2377" gradientUnits="userSpaceOnUse">
<stop stop-color="#FF66A9"/>
<stop offset="1" stop-color="#F53689"/>
</linearGradient>
<linearGradient id="paint2_linear" x1="22.1163" y1="40.8944" x2="24.3279" y2="40.8944" gradientUnits="userSpaceOnUse">
<stop stop-color="#FF66A9"/>
<stop offset="1" stop-color="#F53689"/>
</linearGradient>
<linearGradient id="paint3_linear" x1="26.6242" y1="58.2377" x2="28.8358" y2="58.2377" gradientUnits="userSpaceOnUse">
<stop stop-color="#83A6FF"/>
<stop offset="1" stop-color="#5A78FF"/>
</linearGradient>
<linearGradient id="paint4_linear" x1="35.6407" y1="53.902" x2="37.8523" y2="53.902" gradientUnits="userSpaceOnUse">
<stop stop-color="#FF66A9"/>
<stop offset="1" stop-color="#F53689"/>
</linearGradient>
<linearGradient id="paint5_linear" x1="49.1652" y1="75.5811" x2="51.3768" y2="75.5811" gradientUnits="userSpaceOnUse">
<stop stop-color="#83A6FF"/>
<stop offset="1" stop-color="#5A78FF"/>
</linearGradient>
<linearGradient id="paint6_linear" x1="53.6736" y1="66.9094" x2="55.885" y2="66.9094" gradientUnits="userSpaceOnUse">
<stop stop-color="#FF66A9"/>
<stop offset="1" stop-color="#F53689"/>
</linearGradient>
<linearGradient id="paint7_linear" x1="89.7741" y1="53.902" x2="91.9857" y2="53.902" gradientUnits="userSpaceOnUse">
<stop stop-color="#FF66A9"/>
<stop offset="1" stop-color="#F53689"/>
</linearGradient>
<linearGradient id="paint8_linear" x1="103.299" y1="75.5811" x2="105.51" y2="75.5811" gradientUnits="userSpaceOnUse">
<stop stop-color="#83A6FF"/>
<stop offset="1" stop-color="#5A78FF"/>
</linearGradient>
<linearGradient id="paint9_linear" x1="103.299" y1="53.902" x2="105.51" y2="53.902" gradientUnits="userSpaceOnUse">
<stop stop-color="#83A6FF"/>
<stop offset="1" stop-color="#5A78FF"/>
</linearGradient>
<linearGradient id="paint10_linear" x1="107.807" y1="66.9094" x2="110.019" y2="66.9094" gradientUnits="userSpaceOnUse">
<stop stop-color="#FF66A9"/>
<stop offset="1" stop-color="#F53689"/>
</linearGradient>
<linearGradient id="paint11_linear" x1="62.6897" y1="53.902" x2="64.9013" y2="53.902" gradientUnits="userSpaceOnUse">
<stop stop-color="#83A6FF"/>
<stop offset="1" stop-color="#5A78FF"/>
</linearGradient>
<linearGradient id="paint12_linear" x1="67.198" y1="62.5736" x2="69.4095" y2="62.5736" gradientUnits="userSpaceOnUse">
<stop stop-color="#FF66A9"/>
<stop offset="1" stop-color="#F53689"/>
</linearGradient>
<linearGradient id="paint13_linear" x1="67.198" y1="49.5661" x2="69.4095" y2="49.5661" gradientUnits="userSpaceOnUse">
<stop stop-color="#83A6FF"/>
<stop offset="1" stop-color="#5A78FF"/>
</linearGradient>
<linearGradient id="paint14_linear" x1="76.2142" y1="49.5661" x2="78.4258" y2="49.5661" gradientUnits="userSpaceOnUse">
<stop stop-color="#FF66A9"/>
<stop offset="1" stop-color="#F53689"/>
</linearGradient>
<linearGradient id="paint15_linear" x1="67.703" y1="61.2062" x2="78.6002" y2="61.2062" gradientUnits="userSpaceOnUse">
<stop stop-color="#FF66A9"/>
<stop offset="1" stop-color="#F53689"/>
</linearGradient>
<linearGradient id="paint16_linear" x1="82.1362" y1="91.0848" x2="99.5601" y2="91.0848" gradientUnits="userSpaceOnUse">
<stop stop-color="#FF66A9"/>
<stop offset="1" stop-color="#F53689"/>
</linearGradient>
<linearGradient id="paint17_linear" x1="90.2094" y1="87.5353" x2="90.2094" y2="86.3328" gradientUnits="userSpaceOnUse">
<stop stop-color="#7A83A0"/>
<stop offset="0.9913" stop-color="#58617D"/>
</linearGradient>
<linearGradient id="paint18_linear" x1="6.49291" y1="33.2657" x2="32.906" y2="33.2657" gradientUnits="userSpaceOnUse">
<stop stop-color="#83A6FF"/>
<stop offset="1" stop-color="#5A78FF"/>
</linearGradient>
<linearGradient id="paint19_linear" x1="19.9126" y1="28.1643" x2="19.9126" y2="25.3797" gradientUnits="userSpaceOnUse">
<stop stop-color="#7A83A0"/>
<stop offset="0.9913" stop-color="#58617D"/>
</linearGradient>
</defs>
</svg>
