<svg width="120" height="106" viewBox="0 0 120 106" fill="none" xmlns="http://www.w3.org/2000/svg">
<path d="M62.2109 105.026C90.4356 105.026 113.316 82.2093 113.316 54.0638C113.316 25.9183 90.4356 3.10187 62.2109 3.10187C33.9861 3.10187 11.1055 25.9183 11.1055 54.0638C11.1055 82.2093 33.9861 105.026 62.2109 105.026Z" fill="#2A2E38"/>
<path d="M111.362 37.0422V85.5432C111.362 85.7483 111.362 85.8508 111.362 86.0559C111.26 88.8245 109.923 91.2854 107.969 92.926C106.221 94.4641 103.959 95.387 101.491 95.387H23.2391C21.491 95.387 19.9486 94.9768 18.509 94.1565C17.8921 93.8489 17.2751 93.4387 16.7609 92.926C15.6298 92.0032 14.7044 90.7727 14.1903 89.3372C13.7789 88.3118 13.4705 87.2864 13.4705 86.1584V37.0422C13.4705 37.0422 17.5836 33.5559 23.4448 28.7366C29.5116 23.6096 37.5322 17.0471 44.5244 11.2024C48.5347 7.8186 48.1234 8.22876 54.2931 2.99927C59.0232 -0.999756 65.9126 -0.999756 70.6427 2.99927C71.8766 4.02466 73.1106 5.15259 74.3445 6.17798C76.9152 8.22876 79.7944 10.6897 82.7764 13.1506C89.0489 18.3801 95.9383 24.1223 101.388 28.634C106.941 33.2483 110.951 36.6321 111.362 37.0422Z" fill="#526DFF"/>
<path d="M101.388 28.6341V46.0657L84.3187 56.3196L79.1773 59.3958L68.3804 65.8558L63.239 68.9319L61.0796 70.265L59.0231 68.9319L54.1902 65.8558L43.9074 59.3958L39.0745 56.3196L23.239 46.3734V28.7366C29.3059 23.6097 37.3264 17.0472 44.3187 11.2025L82.5706 13.1507C89.1516 18.3802 96.0411 24.1224 101.388 28.6341Z" fill="#465DD9"/>
<path d="M97.9949 14.7913V45.348L82.3651 54.679L77.7379 57.4476L67.8664 63.2923L63.2392 66.0608L61.2854 67.1888L59.4345 66.0608L55.0129 63.2923L45.6556 57.4476L41.234 54.679L26.8381 45.6556V14.7913C26.8381 11.6126 29.4088 8.94659 32.6993 8.94659H92.1338C95.3214 8.94659 97.9949 11.6126 97.9949 14.7913Z" fill="#646E87"/>
<path d="M85.2442 31.6077H41.3368C40.617 31.6077 40 30.9925 40 30.1722C40 29.3519 40.617 28.7366 41.3368 28.7366H85.2442C85.964 28.7366 86.581 29.3519 86.581 30.1722C86.581 30.9925 85.964 31.6077 85.2442 31.6077Z" fill="#2B313A"/>
<path d="M85.2442 40.221H41.3368C40.617 40.221 40 39.6058 40 38.7855C40 37.9651 40.617 37.3499 41.3368 37.3499H85.2442C85.964 37.3499 86.581 37.9651 86.581 38.7855C86.581 39.6058 85.964 40.221 85.2442 40.221Z" fill="#2B313A"/>
<path d="M85.2442 48.8343H41.3368C40.617 48.8343 40 48.2191 40 47.3987C40 46.5784 40.617 45.9632 41.3368 45.9632H85.2442C85.964 45.9632 86.581 46.5784 86.581 47.3987C86.581 48.2191 85.964 48.8343 85.2442 48.8343Z" fill="#2B313A"/>
<path d="M82.365 54.679L77.7377 57.4476H45.6555L41.2339 54.679H41.3367H82.365Z" fill="#2B313A"/>
<path d="M67.8664 63.2923L63.2392 66.1634H59.4345L55.0129 63.2923H67.8664Z" fill="#2B313A"/>
<path d="M75.7841 21.764H50.8997C50.18 21.764 49.563 21.1487 49.563 20.3284C49.563 19.5081 50.18 18.8929 50.8997 18.8929H75.7841C76.5039 18.8929 77.1208 19.5081 77.1208 20.3284C77.1208 21.1487 76.5039 21.764 75.7841 21.764Z" fill="url(#paint0_linear)"/>
<path opacity="0.67" d="M13.8818 36.8372L60.8741 39.9134L110.643 36.8372L108.792 45.7581C108.792 45.7581 62.0052 70.1624 62.3137 70.1624C62.6222 70.1624 13.9847 41.2464 13.9847 41.2464L13.8818 36.8372Z" fill="url(#paint1_linear)"/>
<path d="M111.362 37.0423V86.056C111.26 88.8245 109.923 91.2855 107.969 92.9261C106.221 94.4642 103.959 95.387 101.491 95.387H23.2391C21.491 95.387 19.9486 94.9769 18.509 94.1566C17.8921 93.8489 17.2751 93.4388 16.7609 92.9261C15.6298 92.0032 14.7044 90.7728 14.1903 89.3372C13.7789 88.3118 13.4705 87.2864 13.4705 86.1585V86.056V37.0423L57.2751 64.4202L61.0797 66.7786L62.4165 65.9583L63.6504 65.2405L111.362 37.0423Z" fill="#738DFF"/>
<path d="M108.072 92.9261C106.324 94.4642 104.062 95.387 101.594 95.387H23.2391C21.491 95.387 19.9486 94.9769 18.509 94.1566C17.8921 93.8489 17.2751 93.4388 16.7609 92.9261C15.6298 92.0032 14.7044 90.7728 14.1903 89.3372C13.7789 88.3118 13.4705 87.2864 13.4705 86.1585V86.056V37.0423L18.6118 40.1185L62.4165 66.0609L63.6504 66.7786L63.7532 66.8812L103.033 90.055L108.072 92.9261Z" fill="url(#paint2_linear)"/>
<path d="M63.6503 65.2405V68.6243L18.509 94.1566C17.892 93.8489 17.275 93.4388 16.7609 92.9261C15.6298 92.0032 14.7043 90.7728 14.1902 89.3372L58.0976 63.3948L61.9023 65.7532L62.4164 65.9583L63.6503 65.2405Z" fill="url(#paint3_linear)"/>
<path d="M13.4705 37.0423L62.4165 66.0608" stroke="#A6BDFF" stroke-width="0.5" stroke-miterlimit="10"/>
<path d="M111.363 37.0423V86.056C111.26 88.8245 109.923 91.2855 107.969 92.9261C106.221 94.4642 103.959 95.387 101.491 95.387H23.2391C21.4911 95.387 19.9486 94.9769 18.5091 94.1566C17.8921 93.8489 17.2751 93.4388 16.761 92.9261L21.7995 89.9525L61.0798 66.7786L62.4165 65.9583L63.6504 65.2405L106.221 40.0159L111.363 37.0423Z" fill="url(#paint4_linear)"/>
<path d="M111.363 37.0423L63.6504 65.2405L62.4165 65.9583L61.0798 66.7786L16.761 92.9261" stroke="#99B3FF" stroke-width="0.5" stroke-miterlimit="10"/>
<path d="M99.6402 71.2903H73.6248C73.0078 71.2903 72.4937 70.7776 72.4937 70.1624C72.4937 69.5472 73.0078 69.0345 73.6248 69.0345H99.6402C100.257 69.0345 100.771 69.5472 100.771 70.1624C100.771 70.7776 100.257 71.2903 99.6402 71.2903Z" fill="url(#paint5_linear)"/>
<path d="M99.6402 78.7757H73.6248C73.0078 78.7757 72.4937 78.263 72.4937 77.6478C72.4937 77.0325 73.0078 76.5198 73.6248 76.5198H99.6402C100.257 76.5198 100.771 77.0325 100.771 77.6478C100.771 78.263 100.257 78.7757 99.6402 78.7757Z" fill="url(#paint6_linear)"/>
<path d="M116.093 32.428C118.251 32.428 120 30.6835 120 28.5316C120 26.3796 118.251 24.6351 116.093 24.6351C113.934 24.6351 112.185 26.3796 112.185 28.5316C112.185 30.6835 113.934 32.428 116.093 32.428Z" fill="#2A2E39"/>
<path d="M13.3676 18.1751C14.7873 18.1751 15.9383 17.0274 15.9383 15.6116C15.9383 14.1959 14.7873 13.0482 13.3676 13.0482C11.9478 13.0482 10.7969 14.1959 10.7969 15.6116C10.7969 17.0274 11.9478 18.1751 13.3676 18.1751Z" fill="#2A2E39"/>
<path d="M1.74807 24.7376C2.71351 24.7376 3.49614 23.9572 3.49614 22.9944C3.49614 22.0317 2.71351 21.2513 1.74807 21.2513C0.782639 21.2513 0 22.0317 0 22.9944C0 23.9572 0.782639 24.7376 1.74807 24.7376Z" fill="#2A2E39"/>
<path d="M111.568 15.9193C112.477 15.9193 113.213 15.1847 113.213 14.2786C113.213 13.3725 112.477 12.638 111.568 12.638C110.659 12.638 109.923 13.3725 109.923 14.2786C109.923 15.1847 110.659 15.9193 111.568 15.9193Z" fill="#2A2E39"/>
<path d="M118.149 69.3421C119.058 69.3421 119.794 68.6076 119.794 67.7015C119.794 66.7954 119.058 66.0609 118.149 66.0609C117.241 66.0609 116.504 66.7954 116.504 67.7015C116.504 68.6076 117.241 69.3421 118.149 69.3421Z" fill="#2A2E39"/>
<path opacity="0.3" d="M106.221 40.0159V45.1429L111.362 42.5794V37.0423L106.221 40.0159ZM106.221 65.3431V73.6487L111.362 71.0853V62.7796L106.221 65.3431ZM106.221 79.4935V85.8509C106.118 86.5687 105.913 87.389 105.501 88.0042C105.398 88.1068 105.398 88.2093 105.296 88.3118L111.362 85.2357V76.93L106.221 79.4935ZM104.987 94.3616L103.445 95.1819C105.193 94.8743 106.632 94.054 107.969 93.0286C107.969 93.0286 107.969 93.0286 108.072 93.0286C108.175 93.0286 108.175 92.9261 108.278 92.8235L104.987 94.3616ZM13.4705 79.1859V86.056V86.1585C13.4705 86.5687 13.5733 86.9788 13.6761 87.389L18.6118 84.8255V76.5198L13.4705 79.1859ZM13.4705 50.68V58.9857L18.6118 56.4222V48.1165L13.4705 50.68ZM13.4705 37.0423V44.8353L18.6118 42.2718V40.1185L13.4705 37.0423ZM13.4705 64.9329V73.2386L18.6118 70.6751V62.3694L13.4705 64.9329ZM23.2391 90.2601C22.725 90.2601 22.2108 90.1575 21.7995 90.055C21.491 89.9525 21.2854 89.8499 20.9769 89.7474C20.9769 89.7474 20.9769 89.7474 20.8741 89.7474L15.9383 92.3109C16.2468 92.6185 16.4525 92.8236 16.7609 93.1312C17.2751 93.6439 17.8921 93.9515 18.509 94.3616C18.9203 94.6693 19.4345 94.8743 19.9486 94.9769L29.5116 90.3626H23.2391V90.2601ZM42.4679 90.2601L31.671 95.387H43.3933L54.1903 90.2601H42.4679ZM66.9409 90.2601L56.144 95.387H67.8663L78.6633 90.2601H66.9409ZM91.5167 90.2601L80.7198 95.387H90.18L100.977 90.2601H91.5167ZM106.221 51.0901V59.3958L111.362 56.8323V48.5267L106.221 51.0901Z" fill="#526DFF"/>
<path d="M104.987 94.3616L108.175 92.721C108.072 92.8235 108.072 92.8235 107.969 92.9261C107.969 92.9261 107.969 92.9261 107.866 92.9261L104.987 94.3616Z" fill="#526DFF"/>
<defs>
<linearGradient id="paint0_linear" x1="49.5842" y1="20.349" x2="77.0528" y2="20.349" gradientUnits="userSpaceOnUse">
<stop stop-color="#FF66A9"/>
<stop offset="1" stop-color="#F53689"/>
</linearGradient>
<linearGradient id="paint1_linear" x1="62.203" y1="80.6573" x2="62.203" y2="39.044" gradientUnits="userSpaceOnUse">
<stop stop-color="#4F6AFF"/>
<stop offset="1" stop-color="#657EFF" stop-opacity="0"/>
</linearGradient>
<linearGradient id="paint2_linear" x1="14.5701" y1="66.1878" x2="110.04" y2="66.1878" gradientUnits="userSpaceOnUse">
<stop stop-color="#83A6FF"/>
<stop offset="1" stop-color="#5A78FF"/>
</linearGradient>
<linearGradient id="paint3_linear" x1="41.7548" y1="81.6011" x2="37.9204" y2="75.989" gradientUnits="userSpaceOnUse">
<stop stop-color="#4F6AFF"/>
<stop offset="1" stop-color="#657EFF" stop-opacity="0"/>
</linearGradient>
<linearGradient id="paint4_linear" x1="107.349" y1="66.1878" x2="13.6969" y2="66.1878" gradientUnits="userSpaceOnUse">
<stop stop-color="#83A6FF"/>
<stop offset="1" stop-color="#5A78FF"/>
</linearGradient>
<linearGradient id="paint5_linear" x1="72.4282" y1="70.1669" x2="100.77" y2="70.1669" gradientUnits="userSpaceOnUse">
<stop stop-color="#83A6FF"/>
<stop offset="1" stop-color="#5A78FF"/>
</linearGradient>
<linearGradient id="paint6_linear" x1="72.4282" y1="77.606" x2="100.77" y2="77.606" gradientUnits="userSpaceOnUse">
<stop stop-color="#83A6FF"/>
<stop offset="1" stop-color="#5A78FF"/>
</linearGradient>
</defs>
</svg>
