<svg width="135" height="143" viewBox="0 0 135 143" fill="none" xmlns="http://www.w3.org/2000/svg">
<path d="M67.401 127C100.207 127 126.802 100.585 126.802 68C126.802 35.4152 100.207 9 67.401 9C34.5947 9 8 35.4152 8 68C8 100.585 34.5947 127 67.401 127Z" fill="#2A2E39"/>
<g filter="url(#filter0_d)">
<path d="M112.931 60.3227V96.3958C112.931 103.863 106.79 109.963 99.2721 109.963H35.8475C28.3298 109.963 22.2944 103.968 22.1885 96.5009C22.1885 96.3958 22.1885 96.3958 22.1885 96.2906V60.3227C22.1885 60.2175 22.1885 60.2175 22.1885 60.1123C22.1885 59.902 22.1885 59.6916 22.2944 59.4813C22.4002 59.1658 22.5061 58.9555 22.612 58.64L39.6594 26.1426C40.2947 24.8806 41.5653 24.1444 42.9418 24.1444H92.2838C93.6603 24.1444 94.9309 24.8806 95.5662 26.1426L112.614 58.64C112.719 58.8503 112.825 59.1658 112.931 59.4813C112.931 59.6916 112.931 60.0072 112.931 60.3227Z" fill="#1E232C"/>
</g>
<g filter="url(#filter1_d)">
<path d="M80.5307 60.6381H54.8009C53.742 60.6381 52.7891 59.7968 52.7891 58.6399V23.5134C52.7891 22.4617 53.6361 21.5151 54.8009 21.5151H80.4248C81.4837 21.5151 82.4366 22.3565 82.4366 23.5134V58.6399C82.4366 59.6916 81.5896 60.6381 80.5307 60.6381Z" fill="#69738D"/>
</g>
<g filter="url(#filter2_d)">
<path d="M89.0013 68.9465H46.33C44.9535 68.9465 43.7888 67.7896 43.7888 66.4224V32.3476C43.7888 30.9803 44.9535 29.8235 46.33 29.8235H89.0013C90.3778 29.8235 91.5426 30.9803 91.5426 32.3476V66.4224C91.4367 67.7896 90.3778 68.9465 89.0013 68.9465Z" fill="#69738D"/>
</g>
<g filter="url(#filter3_d)">
<path d="M93.8722 78.6221H41.4595C39.9772 78.6221 38.7065 77.3601 38.7065 75.8877V42.3387C38.7065 40.8663 39.9772 39.6043 41.4595 39.6043H93.8722C95.3546 39.6043 96.6252 40.8663 96.6252 42.3387V75.8877C96.6252 77.3601 95.3546 78.6221 93.8722 78.6221Z" fill="#69738D"/>
</g>
<g filter="url(#filter4_d)">
<path d="M99.1665 87.9822H36.1654C34.4713 87.9822 33.2007 86.615 33.2007 85.0375V52.0143C33.2007 50.3316 34.5772 49.0696 36.1654 49.0696H99.1665C100.861 49.0696 102.131 50.4368 102.131 52.0143V85.0375C102.131 86.7202 100.861 87.9822 99.1665 87.9822Z" fill="#69738D"/>
</g>
<path d="M80.3188 62.2157H56.6008C55.9655 62.2157 55.436 61.6899 55.436 61.0588C55.436 60.4278 55.9655 59.902 56.6008 59.902H80.3188C80.9541 59.902 81.4835 60.4278 81.4835 61.0588C81.4835 61.6899 80.9541 62.2157 80.3188 62.2157Z" fill="#313842"/>
<path d="M73.4364 69.1559H43.4712C43.0476 69.1559 42.73 68.8406 42.73 68.4202C42.73 67.9998 43.0476 67.6844 43.4712 67.6844H73.3305C73.754 67.6844 74.0717 67.9998 74.0717 68.4202C74.1776 68.7355 73.8599 69.1559 73.4364 69.1559Z" fill="#313842"/>
<path d="M93.1309 69.1559H77.9895C77.5659 69.1559 77.2483 68.8406 77.2483 68.4202C77.2483 67.9998 77.5659 67.6844 77.9895 67.6844H93.025C93.4486 67.6844 93.7662 67.9998 93.7662 68.4202C93.8721 68.7355 93.5544 69.1559 93.1309 69.1559Z" fill="#313842"/>
<g filter="url(#filter5_d)">
<path d="M112.931 60.3226V100.077C112.931 105.545 108.484 109.963 102.978 109.963H32.1416C26.6356 109.963 22.1885 105.545 22.1885 100.077V60.1123C22.1885 59.902 22.1885 59.6916 22.2944 59.4813H44.9536C48.3419 59.4813 51.2007 62.2157 51.2007 65.6863C51.2007 67.369 51.9419 68.9465 53.0008 70.1034C54.1655 71.2603 55.6479 71.8913 57.4479 71.8913H77.7776C81.1659 71.8913 84.0248 69.1569 84.0248 65.6863C84.0248 64.0036 84.766 62.426 85.8248 61.2692C86.9896 60.1123 88.4719 59.4813 90.1661 59.4813H112.825C112.931 59.6916 112.931 60.0071 112.931 60.3226Z" fill="#474E61"/>
</g>
<path d="M128 34.9624C128 37.1507 127.601 39.2397 126.902 41.2291C124.905 46.9985 120.113 51.5743 114.223 53.2653C112.526 53.7627 110.729 54.0611 108.932 54.0611C98.4492 53.9616 89.8635 45.5065 89.8635 34.9624C89.8635 24.4182 98.4492 15.9631 108.932 15.9631C119.414 15.9631 128 24.5177 128 34.9624Z" fill="url(#paint0_linear)"/>
<path opacity="0.4" d="M127.002 41.2291C125.005 46.9985 120.213 51.5742 114.323 53.2653L101.344 40.3338L103.94 33.6692L106.136 31.8787L108.632 34.266L109.93 28.4966L111.927 27.8998L113.025 27.3029L127.002 41.2291Z" fill="url(#paint1_linear)"/>
<path d="M107.886 42.7809C107.886 42.9798 108.086 43.1788 108.286 43.1788H109.783C109.983 43.1788 110.183 42.9798 110.183 42.7809V41.5872C110.183 41.4877 110.083 41.3882 109.983 41.3882H107.986C107.886 41.3882 107.787 41.4877 107.787 41.5872V42.7809H107.886Z" fill="url(#paint2_linear)"/>
<path d="M104.193 31.3416C102.396 31.3416 100.898 32.8336 100.898 34.6242V39.4983C100.898 40.0951 101.397 40.5925 101.996 40.5925H106.489C107.088 40.5925 107.587 40.0951 107.587 39.4983V34.6242C107.587 32.7342 106.09 31.3416 104.193 31.3416Z" fill="url(#paint3_linear)"/>
<path d="M113.677 31.1426H110.981C110.882 31.1426 110.682 31.2421 110.682 31.441V32.8337C110.682 33.0326 110.482 33.2315 110.283 33.2315C110.083 33.2315 109.883 33.0326 109.883 32.8337V31.1426V29.6505H112.579C112.878 29.6505 113.078 29.4516 113.078 29.1532V27.7605C113.078 27.4621 112.878 27.2632 112.579 27.2632H109.883V27.0642C109.883 26.9648 109.783 26.8653 109.684 26.8653H109.284C109.184 26.8653 109.085 26.9648 109.085 27.0642V31.1426H107.387C107.288 31.1426 107.188 31.2421 107.188 31.3416C107.188 31.441 107.188 31.441 107.288 31.441C108.086 32.2368 108.486 33.331 108.486 34.4252V39.2994C108.486 39.5978 108.386 39.7967 108.286 40.0952C108.286 40.1946 108.286 40.2941 108.386 40.3936H108.486H115.773C116.372 40.3936 116.772 39.8962 116.772 39.3989V34.4252C116.971 32.6347 115.474 31.1426 113.677 31.1426Z" fill="url(#paint4_linear)"/>
<path d="M102.872 95.5544H82.3307C81.5895 95.5544 81.0601 95.0286 81.0601 94.2924C81.0601 93.5562 81.5895 93.0303 82.3307 93.0303H102.766C103.507 93.0303 104.037 93.5562 104.037 94.2924C104.143 94.9234 103.507 95.5544 102.872 95.5544Z" fill="#313842"/>
<path d="M93.6603 101.865H82.3307C81.5895 101.865 81.0601 101.339 81.0601 100.602C81.0601 99.8663 81.5895 99.3405 82.3307 99.3405H93.6603C94.4015 99.3405 94.9309 99.8663 94.9309 100.602C95.0368 101.234 94.4015 101.865 93.6603 101.865Z" fill="#313842"/>
<path d="M54.6951 93.8716V116.168C54.6951 117.324 53.7421 118.376 52.4715 118.376H19.0121C17.8474 118.376 16.7886 117.43 16.7886 116.168V93.8716C16.7886 92.7148 17.7415 91.6631 19.0121 91.6631H52.5774C53.7421 91.6631 54.6951 92.7148 54.6951 93.8716Z" fill="#EC3A8D"/>
<path d="M54.6951 112.907V116.168C54.6951 117.324 53.7421 118.376 52.4715 118.376H19.0121C17.8474 118.376 16.7886 117.43 16.7886 116.168V112.907L31.8241 103.863L35.7418 101.444L39.6595 103.863L54.6951 112.907Z" fill="#F2539D"/>
<path d="M54.6951 93.8716V94.9233L39.7654 103.863L35.8477 106.282L31.93 103.863L16.7886 94.9233V93.8716C16.7886 92.7148 17.7415 91.6631 19.0121 91.6631H52.5774C53.7421 91.6631 54.6951 92.7148 54.6951 93.8716Z" fill="#FF61AA"/>
<path d="M45.1657 110.804H43.1539C42.6245 110.804 42.2009 111.119 41.9891 111.54C41.8833 111.54 41.8833 111.435 41.7774 111.435C41.248 111.33 40.6127 111.435 40.1891 111.856C39.8715 112.066 39.5538 112.276 39.4479 112.171C39.342 112.171 39.2362 112.066 39.1303 111.856L38.2832 112.381C38.6009 112.907 39.0244 113.118 39.2362 113.118C39.342 113.118 39.342 113.118 39.4479 113.118C39.8715 113.118 40.295 112.907 40.8244 112.487C41.0362 112.276 41.3538 112.171 41.5656 112.276C41.6715 112.276 41.7774 112.381 41.8833 112.592V113.118C41.8833 113.118 41.8833 113.118 41.7774 113.118C41.248 113.012 40.6127 113.118 40.1891 113.538C39.8715 113.749 39.5538 113.959 39.4479 113.854C39.342 113.854 39.2362 113.749 39.1303 113.538L38.2832 114.064C38.6009 114.59 39.0244 114.8 39.2362 114.8C39.342 114.8 39.342 114.8 39.4479 114.8C39.8715 114.8 40.295 114.59 40.8244 114.169C41.0362 113.959 41.3538 113.854 41.5656 113.959C41.6715 113.959 41.7774 114.064 41.8833 114.274H41.9891C42.095 114.8 42.6245 115.221 43.1539 115.221H45.1657C45.9069 115.221 46.4363 114.695 46.4363 113.959V111.961C46.4363 111.435 45.9069 110.804 45.1657 110.804ZM45.4833 114.169C45.4833 114.274 45.3774 114.38 45.2716 114.38H43.2598C43.1539 114.38 43.048 114.274 43.048 114.169V112.171C43.048 112.066 43.1539 111.961 43.2598 111.961H45.2716C45.3774 111.961 45.4833 112.066 45.4833 112.171V114.169Z" fill="#FFA8D1"/>
<defs>
<filter id="filter0_d" x="0.188477" y="13.1444" width="134.743" height="129.818" filterUnits="userSpaceOnUse" color-interpolation-filters="sRGB">
<feFlood flood-opacity="0" result="BackgroundImageFix"/>
<feColorMatrix in="SourceAlpha" type="matrix" values="0 0 0 0 0 0 0 0 0 0 0 0 0 0 0 0 0 0 127 0"/>
<feOffset dy="11"/>
<feGaussianBlur stdDeviation="11"/>
<feColorMatrix type="matrix" values="0 0 0 0 0 0 0 0 0 0 0 0 0 0 0 0 0 0 0.18 0"/>
<feBlend mode="normal" in2="BackgroundImageFix" result="effect1_dropShadow"/>
<feBlend mode="normal" in="SourceGraphic" in2="effect1_dropShadow" result="shape"/>
</filter>
<filter id="filter1_d" x="30.7891" y="0.515137" width="73.6476" height="83.123" filterUnits="userSpaceOnUse" color-interpolation-filters="sRGB">
<feFlood flood-opacity="0" result="BackgroundImageFix"/>
<feColorMatrix in="SourceAlpha" type="matrix" values="0 0 0 0 0 0 0 0 0 0 0 0 0 0 0 0 0 0 127 0"/>
<feOffset dy="1"/>
<feGaussianBlur stdDeviation="11"/>
<feColorMatrix type="matrix" values="0 0 0 0 0 0 0 0 0 0 0 0 0 0 0 0 0 0 0.18 0"/>
<feBlend mode="normal" in2="BackgroundImageFix" result="effect1_dropShadow"/>
<feBlend mode="normal" in="SourceGraphic" in2="effect1_dropShadow" result="shape"/>
</filter>
<filter id="filter2_d" x="21.7888" y="8.82349" width="91.7537" height="83.123" filterUnits="userSpaceOnUse" color-interpolation-filters="sRGB">
<feFlood flood-opacity="0" result="BackgroundImageFix"/>
<feColorMatrix in="SourceAlpha" type="matrix" values="0 0 0 0 0 0 0 0 0 0 0 0 0 0 0 0 0 0 127 0"/>
<feOffset dy="1"/>
<feGaussianBlur stdDeviation="11"/>
<feColorMatrix type="matrix" values="0 0 0 0 0 0 0 0 0 0 0 0 0 0 0 0 0 0 0.18 0"/>
<feBlend mode="normal" in2="BackgroundImageFix" result="effect1_dropShadow"/>
<feBlend mode="normal" in="SourceGraphic" in2="effect1_dropShadow" result="shape"/>
</filter>
<filter id="filter3_d" x="16.7065" y="18.6043" width="101.919" height="83.0178" filterUnits="userSpaceOnUse" color-interpolation-filters="sRGB">
<feFlood flood-opacity="0" result="BackgroundImageFix"/>
<feColorMatrix in="SourceAlpha" type="matrix" values="0 0 0 0 0 0 0 0 0 0 0 0 0 0 0 0 0 0 127 0"/>
<feOffset dy="1"/>
<feGaussianBlur stdDeviation="11"/>
<feColorMatrix type="matrix" values="0 0 0 0 0 0 0 0 0 0 0 0 0 0 0 0 0 0 0.18 0"/>
<feBlend mode="normal" in2="BackgroundImageFix" result="effect1_dropShadow"/>
<feBlend mode="normal" in="SourceGraphic" in2="effect1_dropShadow" result="shape"/>
</filter>
<filter id="filter4_d" x="11.2007" y="28.0696" width="112.931" height="82.9127" filterUnits="userSpaceOnUse" color-interpolation-filters="sRGB">
<feFlood flood-opacity="0" result="BackgroundImageFix"/>
<feColorMatrix in="SourceAlpha" type="matrix" values="0 0 0 0 0 0 0 0 0 0 0 0 0 0 0 0 0 0 127 0"/>
<feOffset dy="1"/>
<feGaussianBlur stdDeviation="11"/>
<feColorMatrix type="matrix" values="0 0 0 0 0 0 0 0 0 0 0 0 0 0 0 0 0 0 0.18 0"/>
<feBlend mode="normal" in2="BackgroundImageFix" result="effect1_dropShadow"/>
<feBlend mode="normal" in="SourceGraphic" in2="effect1_dropShadow" result="shape"/>
</filter>
<filter id="filter5_d" x="0.188477" y="23.4813" width="134.743" height="94.4813" filterUnits="userSpaceOnUse" color-interpolation-filters="sRGB">
<feFlood flood-opacity="0" result="BackgroundImageFix"/>
<feColorMatrix in="SourceAlpha" type="matrix" values="0 0 0 0 0 0 0 0 0 0 0 0 0 0 0 0 0 0 127 0"/>
<feOffset dy="-14"/>
<feGaussianBlur stdDeviation="11"/>
<feColorMatrix type="matrix" values="0 0 0 0 0 0 0 0 0 0 0 0 0 0 0 0 0 0 0.18 0"/>
<feBlend mode="normal" in2="BackgroundImageFix" result="effect1_dropShadow"/>
<feBlend mode="normal" in="SourceGraphic" in2="effect1_dropShadow" result="shape"/>
</filter>
<linearGradient id="paint0_linear" x1="102.26" y1="16.7178" x2="115.179" y2="52.2098" gradientUnits="userSpaceOnUse">
<stop stop-color="#83A6FF"/>
<stop offset="1" stop-color="#5A78FF"/>
</linearGradient>
<linearGradient id="paint1_linear" x1="110.694" y1="37.3546" x2="121.719" y2="48.4201" gradientUnits="userSpaceOnUse">
<stop stop-color="#4F6AFF"/>
<stop offset="1" stop-color="#657EFF" stop-opacity="0"/>
</linearGradient>
<linearGradient id="paint2_linear" x1="112.197" y1="45.3634" x2="99.1661" y2="32.2848" gradientUnits="userSpaceOnUse">
<stop offset="0.0113208" stop-color="#C2D1FF"/>
<stop offset="1" stop-color="white"/>
</linearGradient>
<linearGradient id="paint3_linear" x1="112.616" y1="44.9463" x2="99.5848" y2="31.8678" gradientUnits="userSpaceOnUse">
<stop offset="0.0113208" stop-color="#C2D1FF"/>
<stop offset="1" stop-color="white"/>
</linearGradient>
<linearGradient id="paint4_linear" x1="118.099" y1="41.1329" x2="108.366" y2="31.3646" gradientUnits="userSpaceOnUse">
<stop offset="0.0113208" stop-color="#C2D1FF"/>
<stop offset="1" stop-color="white"/>
</linearGradient>
</defs>
</svg>
