<svg width="131" height="127" viewBox="0 0 131 127" fill="none" xmlns="http://www.w3.org/2000/svg">
<path d="M116.168 51.4482C116.168 63.1457 112.249 73.9116 105.751 82.607C102.141 87.2653 97.809 91.406 92.8582 94.6151C84.8131 99.8945 75.2209 103 64.9067 103C36.5427 103 13.6451 79.9156 13.6451 51.5518C13.542 23.0844 36.5427 0 64.9067 0C75.2209 0 84.8131 3.10553 92.8582 8.28141C97.809 11.4905 102.141 15.6312 105.751 20.2894C112.249 28.9849 116.168 39.7508 116.168 51.4482Z" fill="#2A2E37"/>
<path d="M15.0463 23.2714C16.4006 22.8296 17.1416 21.3696 16.7014 20.0104C16.2612 18.6511 14.8065 17.9074 13.4522 18.3492C12.0979 18.791 11.3568 20.251 11.797 21.6102C12.2372 22.9695 13.6919 23.7132 15.0463 23.2714Z" fill="#2A2E37"/>
<path d="M20.675 14.8276C21.596 14.5272 22.0999 13.5344 21.8006 12.6101C21.5012 11.6858 20.512 11.18 19.5911 11.4805C18.6701 11.7809 18.1662 12.7737 18.4656 13.698C18.7649 14.6223 19.7541 15.128 20.675 14.8276Z" fill="#2A2E37"/>
<path d="M122.551 30.2525C124.149 28.787 124.261 26.2988 122.8 24.695C121.34 23.0913 118.861 22.9793 117.263 24.4449C115.665 25.9104 115.553 28.3986 117.014 30.0023C118.474 31.6061 120.953 31.7181 122.551 30.2525Z" fill="#2A2E37"/>
<path d="M118.102 12.6146C118.774 11.9975 118.821 10.9499 118.206 10.2746C117.592 9.59938 116.548 9.55221 115.875 10.1693C115.202 10.7864 115.155 11.834 115.77 12.5093C116.385 13.1845 117.429 13.2317 118.102 12.6146Z" fill="#2A2E37"/>
<path d="M23.3549 93.7888C24.0277 93.1717 24.0747 92.1241 23.4599 91.4488C22.845 90.7735 21.8012 90.7264 21.1284 91.3435C20.4556 91.9605 20.4086 93.0082 21.0234 93.6835C21.6383 94.3587 22.6821 94.4059 23.3549 93.7888Z" fill="#EAEEF9"/>
<path d="M99.0465 25.1548V30.5377H30.8696V25.1548C30.8696 20.3929 34.5827 16.5628 39.3273 16.3558H80.3778H90.2794C95.1271 16.2522 99.0465 20.1859 99.0465 25.1548Z" fill="#1E242D"/>
<path d="M89.7638 16.2522V30.4342H39.3274V8.69547H80.1716L80.2748 8.79898L89.7638 16.2522Z" fill="#474E61"/>
<path d="M89.7637 16.2519H81.8218C80.9967 16.2519 80.2747 15.5273 80.2747 14.6991V8.79861L89.7637 16.2519Z" fill="#354157"/>
<g filter="url(#filter0_d)">
<path d="M107.504 37.4734V78.0523C107.504 81.8824 104.41 85.0915 100.491 85.0915H29.4258C27.8786 85.0915 26.5378 84.5739 25.3001 83.7457C23.5467 82.5035 22.4121 80.4332 22.4121 78.0523V37.4734C22.4121 33.6432 25.5064 30.4342 29.4258 30.4342H100.491C102.657 30.4342 104.616 31.4693 105.854 33.0221C106.885 34.2643 107.504 35.8171 107.504 37.4734Z" fill="#353B4A"/>
</g>
<path opacity="0.2" d="M107.504 38.405V78.0522C107.504 81.8824 104.41 85.0914 100.491 85.0914H29.4257C27.8786 85.0914 26.5378 84.5738 25.3 83.7457V83.3316C96.0555 81.0542 105.648 57.4522 107.504 38.405Z" fill="black"/>
<path d="M39.3273 73.601H29.5288V66.8723H100.8V73.601H89.7638" fill="#1E242D"/>
<g filter="url(#filter1_d)">
<path d="M89.7638 66.8723V93.5799H39.3274V66.8723" fill="#474E61"/>
</g>
<path d="M82.2345 75.3608H74.9114C74.3957 75.3608 73.9832 74.9467 73.9832 74.4291C73.9832 73.9115 74.3957 73.4975 74.9114 73.4975H82.2345C82.7502 73.4975 83.1628 73.9115 83.1628 74.4291C83.0597 74.9467 82.7502 75.3608 82.2345 75.3608Z" fill="#2E3746"/>
<path d="M70.1668 75.3608H55.9332C55.4175 75.3608 55.0049 74.9467 55.0049 74.4291C55.0049 73.9115 55.4175 73.4975 55.9332 73.4975H70.1668C70.6825 73.4975 71.095 73.9115 71.095 74.4291C70.9919 74.9467 70.6825 75.3608 70.1668 75.3608Z" fill="#2E3746"/>
<path d="M51.4982 75.3608H47.2693C46.7536 75.3608 46.3411 74.9467 46.3411 74.4291C46.3411 73.9115 46.7536 73.4975 47.2693 73.4975H51.4982C52.0139 73.4975 52.4264 73.9115 52.4264 74.4291C52.3233 74.9467 51.9107 75.3608 51.4982 75.3608Z" fill="#2E3746"/>
<path d="M82.2345 81.5718H69.4449C68.9292 81.5718 68.5166 81.1578 68.5166 80.6402C68.5166 80.1226 68.9292 79.7085 69.4449 79.7085H82.2345C82.7502 79.7085 83.1628 80.1226 83.1628 80.6402C83.0596 81.1578 82.7502 81.5718 82.2345 81.5718Z" fill="#2E3746"/>
<path d="M64.9066 81.5718H47.2693C46.7536 81.5718 46.3411 81.1578 46.3411 80.6402C46.3411 80.1226 46.7536 79.7085 47.2693 79.7085H64.9066C65.4223 79.7085 65.8349 80.1226 65.8349 80.6402C65.7318 81.1578 65.3192 81.5718 64.9066 81.5718Z" fill="#2E3746"/>
<path d="M80.7906 45.6513C82.3856 45.6513 83.6785 44.3536 83.6785 42.7528C83.6785 41.152 82.3856 39.8543 80.7906 39.8543C79.1956 39.8543 77.9026 41.152 77.9026 42.7528C77.9026 44.3536 79.1956 45.6513 80.7906 45.6513Z" fill="#1E242D"/>
<path d="M92.2393 45.6513C93.8343 45.6513 95.1273 44.3536 95.1273 42.7528C95.1273 41.152 93.8343 39.8543 92.2393 39.8543C90.6443 39.8543 89.3513 41.152 89.3513 42.7528C89.3513 44.3536 90.6443 45.6513 92.2393 45.6513Z" fill="url(#paint0_linear)"/>
<path d="M130.623 82.9281C130.623 83.1351 130.519 83.2387 130.519 83.4457C130.21 84.5844 129.901 85.7228 129.385 86.758C129.282 87.0685 129.179 87.2759 129.076 87.5864C127.322 91.0025 124.537 93.7971 121.134 95.4533C121.134 95.4533 121.031 95.4534 120.927 95.557C120.618 95.764 120.309 95.8675 119.896 96.0745C116.595 97.4203 112.882 97.9379 109.169 97.1097C99.3706 95.0394 93.0791 85.4124 95.1419 75.5783C97.2047 65.7441 106.797 59.4294 116.595 61.4998C120.102 62.2244 123.196 63.984 125.775 66.4684C130.004 70.7126 131.86 76.9241 130.623 82.9281Z" fill="url(#paint1_linear)"/>
<path d="M130.505 83.4352C130.196 84.5739 129.886 85.7126 129.371 86.7478C129.267 87.0583 129.164 87.2653 129.061 87.5759C127.308 90.992 124.523 93.787 121.119 95.4432C121.119 95.4432 121.016 95.4432 120.913 95.5468L103.069 77.6382L111.94 73.0834H114.621L122.873 75.7749L130.505 83.4352Z" fill="url(#paint2_linear)"/>
<path d="M122.618 75.5088C117.151 70.1259 108.487 70.1259 103.021 75.5088C102.402 76.1299 102.402 77.0616 103.021 77.5792C103.64 78.2003 104.568 78.2003 105.187 77.5792C109.416 73.4385 116.223 73.4385 120.555 77.5792C121.174 78.2003 122.102 78.2003 122.721 77.5792C123.237 77.0616 123.237 76.1299 122.618 75.5088Z" fill="url(#paint3_linear)"/>
<path d="M112.819 77.6827C110.757 77.6827 108.797 78.5108 107.353 79.8566C106.734 80.3742 106.734 81.3058 107.353 81.9269C107.972 82.548 108.9 82.548 109.519 81.9269C111.375 80.1671 114.263 80.1671 116.12 81.9269C116.739 82.548 117.667 82.548 118.286 81.9269C118.905 81.4093 118.905 80.4777 118.286 79.8566C116.842 78.5108 114.882 77.6827 112.819 77.6827Z" fill="url(#paint4_linear)"/>
<path d="M112.819 83.7902C111.994 83.7902 111.272 84.5148 111.272 85.343C111.272 86.1711 111.994 86.8958 112.819 86.8958C113.644 86.8958 114.366 86.1711 114.366 85.343C114.366 84.5148 113.748 83.7902 112.819 83.7902Z" fill="url(#paint5_linear)"/>
<defs>
<filter id="filter0_d" x="0.412109" y="19.4342" width="129.092" height="98.6573" filterUnits="userSpaceOnUse" color-interpolation-filters="sRGB">
<feFlood flood-opacity="0" result="BackgroundImageFix"/>
<feColorMatrix in="SourceAlpha" type="matrix" values="0 0 0 0 0 0 0 0 0 0 0 0 0 0 0 0 0 0 127 0"/>
<feOffset dy="11"/>
<feGaussianBlur stdDeviation="11"/>
<feColorMatrix type="matrix" values="0 0 0 0 0 0 0 0 0 0 0 0 0 0 0 0 0 0 0.18 0"/>
<feBlend mode="normal" in2="BackgroundImageFix" result="effect1_dropShadow"/>
<feBlend mode="normal" in="SourceGraphic" in2="effect1_dropShadow" result="shape"/>
</filter>
<filter id="filter1_d" x="17.3274" y="55.8723" width="94.4365" height="70.7075" filterUnits="userSpaceOnUse" color-interpolation-filters="sRGB">
<feFlood flood-opacity="0" result="BackgroundImageFix"/>
<feColorMatrix in="SourceAlpha" type="matrix" values="0 0 0 0 0 0 0 0 0 0 0 0 0 0 0 0 0 0 127 0"/>
<feOffset dy="11"/>
<feGaussianBlur stdDeviation="11"/>
<feColorMatrix type="matrix" values="0 0 0 0 0 0 0 0 0 0 0 0 0 0 0 0 0 0 0.18 0"/>
<feBlend mode="normal" in2="BackgroundImageFix" result="effect1_dropShadow"/>
<feBlend mode="normal" in="SourceGraphic" in2="effect1_dropShadow" result="shape"/>
</filter>
<linearGradient id="paint0_linear" x1="89.4032" y1="42.778" x2="95.1151" y2="42.778" gradientUnits="userSpaceOnUse">
<stop stop-color="#FF66A9"/>
<stop offset="1" stop-color="#F53689"/>
</linearGradient>
<linearGradient id="paint1_linear" x1="106.533" y1="61.8278" x2="118.927" y2="95.6983" gradientUnits="userSpaceOnUse">
<stop stop-color="#83A6FF"/>
<stop offset="1" stop-color="#5A78FF"/>
</linearGradient>
<linearGradient id="paint2_linear" x1="114.646" y1="78.3906" x2="125.04" y2="88.7467" gradientUnits="userSpaceOnUse">
<stop stop-color="#4F6AFF"/>
<stop offset="1" stop-color="#657EFF" stop-opacity="0"/>
</linearGradient>
<linearGradient id="paint3_linear" x1="119.464" y1="83.2104" x2="108.29" y2="72.0769" gradientUnits="userSpaceOnUse">
<stop offset="0.0113208" stop-color="#C2D1FF"/>
<stop offset="1" stop-color="white"/>
</linearGradient>
<linearGradient id="paint4_linear" x1="117.254" y1="85.4282" x2="106.08" y2="74.2945" gradientUnits="userSpaceOnUse">
<stop offset="0.0113208" stop-color="#C2D1FF"/>
<stop offset="1" stop-color="white"/>
</linearGradient>
<linearGradient id="paint5_linear" x1="115.082" y1="87.608" x2="103.908" y2="76.4743" gradientUnits="userSpaceOnUse">
<stop offset="0.0113208" stop-color="#C2D1FF"/>
<stop offset="1" stop-color="white"/>
</linearGradient>
</defs>
</svg>
