<svg width="160" height="139" viewBox="0 0 160 139" fill="none" xmlns="http://www.w3.org/2000/svg">
<path d="M77.0494 123.099C108.557 123.099 134.099 97.5569 134.099 66.0494C134.099 34.5419 108.557 9 77.0494 9C45.5419 9 20 34.5419 20 66.0494C20 97.5569 45.5419 123.099 77.0494 123.099Z" fill="#2A2E38"/>
<g filter="url(#filter0_d)">
<path d="M128.073 29.9566C129.795 29.9566 131.112 31.2735 131.112 32.9956V99.5483C131.112 101.27 129.795 102.587 128.073 102.587H25.9645C24.2424 102.587 22.9255 101.27 22.9255 99.5483V32.9956C22.9255 31.2735 24.2424 29.9566 25.9645 29.9566H128.073Z" fill="#474E61"/>
</g>
<path d="M131.112 32.9956V39.1747H22.9255V32.9956C22.9255 31.2735 24.2424 29.9566 25.9645 29.9566H128.073C129.795 29.9566 131.112 31.2735 131.112 32.9956Z" fill="url(#paint0_linear)"/>
<path opacity="0.8" d="M27.7878 35.8319C28.5151 35.8319 29.1047 35.2423 29.1047 34.515C29.1047 33.7877 28.5151 33.1982 27.7878 33.1982C27.0605 33.1982 26.4709 33.7877 26.4709 34.515C26.4709 35.2423 27.0605 35.8319 27.7878 35.8319Z" fill="white"/>
<path opacity="0.5" d="M31.5359 35.8319C32.2632 35.8319 32.8527 35.2423 32.8527 34.515C32.8527 33.7877 32.2632 33.1982 31.5359 33.1982C30.8086 33.1982 30.219 33.7877 30.219 34.515C30.219 35.2423 30.8086 35.8319 31.5359 35.8319Z" fill="white"/>
<path opacity="0.2" d="M35.2839 35.8319C36.0112 35.8319 36.6008 35.2423 36.6008 34.515C36.6008 33.7877 36.0112 33.1982 35.2839 33.1982C34.5566 33.1982 33.967 33.7877 33.967 34.515C33.967 35.2423 34.5566 35.8319 35.2839 35.8319Z" fill="white"/>
<path d="M121.691 67.1329H87.8577C87.2499 67.1329 86.6421 66.6265 86.6421 65.9174V54.0655C86.6421 53.4577 87.1486 52.8499 87.8577 52.8499H121.691C122.299 52.8499 122.907 53.3564 122.907 54.0655V66.0187C122.805 66.6265 122.299 67.1329 121.691 67.1329Z" fill="#2E3746"/>
<path d="M122.805 86.9873C122.805 87.5951 122.299 88.2029 121.59 88.2029H87.8577C87.2499 88.2029 86.6421 87.6964 86.6421 86.9873V75.0342C86.6421 74.4264 87.1486 73.8186 87.8577 73.8186H121.691C122.299 73.8186 122.907 74.3251 122.907 75.0342V86.9873H122.805Z" fill="#2E3746"/>
<g filter="url(#filter1_d)">
<path d="M101.634 48.1902H56.4552C55.5436 48.1902 54.8345 47.4811 54.8345 46.5695V13.5464C54.8345 12.6347 55.5436 11.9256 56.4552 11.9256H101.634C102.546 11.9256 103.255 12.6347 103.255 13.5464V46.6708C103.255 47.4811 102.546 48.1902 101.634 48.1902Z" fill="#474E61"/>
</g>
<path d="M87.6549 21.245H70.9408C70.5356 21.245 70.1304 20.8398 70.1304 20.4347C70.1304 20.0295 70.5356 19.6243 70.9408 19.6243H87.6549C88.0601 19.6243 88.4653 20.0295 88.4653 20.4347C88.4653 20.8398 88.0601 21.245 87.6549 21.245Z" fill="url(#paint1_linear)"/>
<path d="M82.7925 26.1073H61.6212C61.3173 26.1073 61.1147 25.9047 61.1147 25.6008C61.1147 25.2969 61.3173 25.0943 61.6212 25.0943H82.7925C83.0964 25.0943 83.299 25.2969 83.299 25.6008C83.299 25.9047 83.0964 26.1073 82.7925 26.1073Z" fill="#29313F"/>
<path d="M96.6706 26.1073H86.0343C85.7304 26.1073 85.5278 25.9047 85.5278 25.6008C85.5278 25.2969 85.7304 25.0943 86.0343 25.0943H96.6706C96.9745 25.0943 97.1771 25.2969 97.1771 25.6008C97.1771 25.9047 96.9745 26.1073 96.6706 26.1073Z" fill="#29313F"/>
<path d="M96.6703 29.8553H82.7925H81.8808H61.6212C61.3173 29.8553 61.1147 30.0579 61.1147 30.3618C61.1147 30.6657 61.3173 30.8683 61.6212 30.8683H81.8808H82.7925H96.6703C96.9742 30.8683 97.1768 30.6657 97.1768 30.3618C97.1768 30.1592 96.9742 29.8553 96.6703 29.8553Z" fill="#29313F"/>
<path d="M96.6703 34.7176H82.7925H81.8808H61.6212C61.3173 34.7176 61.1147 34.9202 61.1147 35.2241C61.1147 35.528 61.3173 35.7306 61.6212 35.7306H81.8808H82.7925H96.6703C96.9742 35.7306 97.1768 35.528 97.1768 35.2241C97.1768 34.9202 96.9742 34.7176 96.6703 34.7176Z" fill="#29313F"/>
<path d="M96.6703 39.4786H82.7925H81.8808H61.6212C61.3173 39.4786 61.1147 39.6812 61.1147 39.9851C61.1147 40.289 61.3173 40.4916 61.6212 40.4916H81.8808H82.7925H96.6703C96.9742 40.4916 97.1768 40.289 97.1768 39.9851C97.1768 39.6812 96.9742 39.4786 96.6703 39.4786Z" fill="#29313F"/>
<g filter="url(#filter2_d)">
<path d="M136.278 105.93H103.457C102.546 105.93 101.735 105.221 101.735 104.208V93.2678C101.735 92.3561 102.444 91.5457 103.457 91.5457H136.278C137.19 91.5457 138 92.2548 138 93.2678V104.208C137.899 105.221 137.19 105.93 136.278 105.93Z" fill="#474E61"/>
</g>
<path d="M131.72 97.2184H108.421C108.016 97.2184 107.813 96.9145 107.813 96.6106C107.813 96.2054 108.117 96.0028 108.421 96.0028H131.618C132.024 96.0028 132.226 96.3067 132.226 96.6106C132.328 96.9145 132.024 97.2184 131.72 97.2184Z" fill="#454C5E"/>
<path d="M123.616 101.979H108.421C108.016 101.979 107.813 101.676 107.813 101.372C107.813 100.966 108.117 100.764 108.421 100.764H123.616C124.021 100.764 124.224 101.068 124.224 101.372C124.224 101.676 123.92 101.979 123.616 101.979Z" fill="#454C5E"/>
<path d="M116.018 58.2187H93.3278C93.0239 58.2187 92.72 57.9148 92.72 57.6109C92.72 57.307 93.0239 57.0031 93.3278 57.0031H116.018C116.322 57.0031 116.626 57.307 116.626 57.6109C116.626 57.9148 116.322 58.2187 116.018 58.2187Z" fill="#454C5E"/>
<path d="M108.117 62.8784H93.3278C93.0239 62.8784 92.72 62.5746 92.72 62.2707C92.72 61.9668 93.0239 61.6629 93.3278 61.6629H108.117C108.421 61.6629 108.725 61.9668 108.725 62.2707C108.725 62.5746 108.421 62.8784 108.117 62.8784Z" fill="#454C5E"/>
<path d="M116.018 79.1874H93.3278C93.0239 79.1874 92.72 78.8835 92.72 78.5796C92.72 78.2757 93.0239 77.9718 93.3278 77.9718H116.018C116.322 77.9718 116.626 78.2757 116.626 78.5796C116.626 78.9848 116.322 79.1874 116.018 79.1874Z" fill="#454C5E"/>
<path d="M108.117 83.9484H93.3278C93.0239 83.9484 92.72 83.6445 92.72 83.3406C92.72 83.0367 93.0239 82.7328 93.3278 82.7328H108.117C108.421 82.7328 108.725 83.0367 108.725 83.3406C108.725 83.6445 108.421 83.9484 108.117 83.9484Z" fill="#454C5E"/>
<path d="M77.3226 88.4055H31.7386C30.6243 88.4055 29.7126 87.4938 29.7126 86.3795V54.9772C29.7126 53.8629 30.6243 52.9512 31.7386 52.9512H77.3226C78.4369 52.9512 79.3486 53.8629 79.3486 54.9772V86.3795C79.3486 87.4938 78.4369 88.4055 77.3226 88.4055Z" fill="#2E3746"/>
<path d="M55.3409 80.8082H38.9307L47.1358 71.4888L55.3409 80.8082Z" fill="#1E242D"/>
<path d="M69.0162 80.8082H45.3125L57.1643 67.3356L69.0162 80.8082Z" fill="#474E61"/>
<path d="M45.1097 68.0447C46.844 68.0447 48.25 66.6387 48.25 64.9044C48.25 63.1701 46.844 61.7642 45.1097 61.7642C43.3754 61.7642 41.9695 63.1701 41.9695 64.9044C41.9695 66.6387 43.3754 68.0447 45.1097 68.0447Z" fill="#1E242D"/>
<path opacity="0.6" d="M77.3226 112.413C88.3438 112.413 97.2783 103.479 97.2783 92.4574C97.2783 81.4362 88.3438 72.5017 77.3226 72.5017C66.3014 72.5017 57.3669 81.4362 57.3669 92.4574C57.3669 103.479 66.3014 112.413 77.3226 112.413Z" fill="#474E61"/>
<path d="M107.205 116.769L102.951 120.922L90.7952 108.868L94.9484 104.714L107.205 116.769Z" fill="#526DFF"/>
<path d="M61.1149 75.0342C51.9981 84.151 51.9981 98.8392 61.1149 107.855C70.2318 116.87 84.9199 116.972 93.9355 107.855C103.052 98.7379 103.052 84.0497 93.9355 75.0342C84.8186 66.0187 70.1305 65.9174 61.1149 75.0342ZM90.1874 104.208C83.1979 111.198 71.7512 111.198 64.7617 104.208C57.7721 97.2184 57.7721 85.7718 64.7617 78.7822C71.7512 71.7927 83.1979 71.7927 90.1874 78.7822C97.2783 85.7718 97.2783 97.1171 90.1874 104.208Z" fill="url(#paint2_linear)"/>
<path d="M113.79 127.506C111.865 129.431 108.826 129.431 107.003 127.506L94.6444 115.249C93.834 114.54 93.834 113.223 94.6444 112.514L98.6963 108.462C99.4054 107.753 100.621 107.753 101.431 108.462L113.79 120.72C115.613 122.644 115.613 125.683 113.79 127.506Z" fill="url(#paint3_linear)"/>
<path d="M77.7277 103.803C76.816 103.803 76.107 103.094 76.107 102.182C76.107 101.27 76.9173 100.46 77.829 100.46C78.7407 100.46 79.5511 101.169 79.5511 102.081C79.4498 103.094 78.7407 103.803 77.829 103.803H77.7277ZM77.829 98.6366C76.9173 98.6366 76.2083 97.9275 76.107 97.0158C76.107 96.9145 76.107 96.9145 76.107 96.8132V93.4704C76.107 91.7483 77.2212 90.2289 78.842 89.6211C80.1589 89.2159 80.9693 87.899 80.868 86.5821C80.7667 85.0627 79.5511 83.7458 77.9303 83.6445H77.7277C76.4109 83.6445 75.1953 84.5562 74.7901 85.8731C74.5875 86.5822 73.8784 86.9873 73.1693 86.9873C72.9667 86.9873 72.7641 86.9873 72.5615 86.886C71.7512 86.5822 71.2447 85.7718 71.4473 84.8601C72.2576 82.125 74.7901 80.0991 77.7277 80.0991C77.829 80.0991 78.0316 80.0991 78.1329 80.0991C79.855 80.2004 81.4757 80.9095 82.59 82.2263C83.7043 83.5432 84.3121 85.164 84.2108 86.886C84.1095 89.4185 82.3874 91.7483 80.0576 92.66H79.9563H79.855C79.6524 92.7613 79.4498 92.9639 79.5511 93.2678V96.5093C79.5511 97.0158 79.4498 97.421 79.1459 97.7249C78.842 98.0288 78.4368 98.2314 77.9303 98.3327L77.829 98.6366Z" fill="url(#paint4_linear)"/>
<defs>
<filter id="filter0_d" x="0.925537" y="18.9566" width="152.186" height="116.631" filterUnits="userSpaceOnUse" color-interpolation-filters="sRGB">
<feFlood flood-opacity="0" result="BackgroundImageFix"/>
<feColorMatrix in="SourceAlpha" type="matrix" values="0 0 0 0 0 0 0 0 0 0 0 0 0 0 0 0 0 0 127 0"/>
<feOffset dy="11"/>
<feGaussianBlur stdDeviation="11"/>
<feColorMatrix type="matrix" values="0 0 0 0 0 0 0 0 0 0 0 0 0 0 0 0 0 0 0.18 0"/>
<feBlend mode="normal" in2="BackgroundImageFix" result="effect1_dropShadow"/>
<feBlend mode="normal" in="SourceGraphic" in2="effect1_dropShadow" result="shape"/>
</filter>
<filter id="filter1_d" x="32.8345" y="0.925598" width="92.4204" height="80.2646" filterUnits="userSpaceOnUse" color-interpolation-filters="sRGB">
<feFlood flood-opacity="0" result="BackgroundImageFix"/>
<feColorMatrix in="SourceAlpha" type="matrix" values="0 0 0 0 0 0 0 0 0 0 0 0 0 0 0 0 0 0 127 0"/>
<feOffset dy="11"/>
<feGaussianBlur stdDeviation="11"/>
<feColorMatrix type="matrix" values="0 0 0 0 0 0 0 0 0 0 0 0 0 0 0 0 0 0 0.18 0"/>
<feBlend mode="normal" in2="BackgroundImageFix" result="effect1_dropShadow"/>
<feBlend mode="normal" in="SourceGraphic" in2="effect1_dropShadow" result="shape"/>
</filter>
<filter id="filter2_d" x="79.7354" y="80.5457" width="80.2646" height="58.3843" filterUnits="userSpaceOnUse" color-interpolation-filters="sRGB">
<feFlood flood-opacity="0" result="BackgroundImageFix"/>
<feColorMatrix in="SourceAlpha" type="matrix" values="0 0 0 0 0 0 0 0 0 0 0 0 0 0 0 0 0 0 127 0"/>
<feOffset dy="11"/>
<feGaussianBlur stdDeviation="11"/>
<feColorMatrix type="matrix" values="0 0 0 0 0 0 0 0 0 0 0 0 0 0 0 0 0 0 0.18 0"/>
<feBlend mode="normal" in2="BackgroundImageFix" result="effect1_dropShadow"/>
<feBlend mode="normal" in="SourceGraphic" in2="effect1_dropShadow" result="shape"/>
</filter>
<linearGradient id="paint0_linear" x1="22.7519" y1="34.5468" x2="131" y2="34.5468" gradientUnits="userSpaceOnUse">
<stop stop-color="#F2539D"/>
<stop offset="1" stop-color="#474E61"/>
</linearGradient>
<linearGradient id="paint1_linear" x1="70.1081" y1="20.4109" x2="88.469" y2="20.4109" gradientUnits="userSpaceOnUse">
<stop stop-color="#83A6FF"/>
<stop offset="1" stop-color="#5A78FF"/>
</linearGradient>
<linearGradient id="paint2_linear" x1="54.2799" y1="91.4496" x2="100.743" y2="91.4496" gradientUnits="userSpaceOnUse">
<stop stop-color="#83A6FF"/>
<stop offset="1" stop-color="#5A78FF"/>
</linearGradient>
<linearGradient id="paint3_linear" x1="94.0079" y1="118.444" x2="115.178" y2="118.444" gradientUnits="userSpaceOnUse">
<stop stop-color="#83A6FF"/>
<stop offset="1" stop-color="#5A78FF"/>
</linearGradient>
<linearGradient id="paint4_linear" x1="77.9005" y1="81.5762" x2="77.9005" y2="101.079" gradientUnits="userSpaceOnUse">
<stop stop-color="#83A6FF"/>
<stop offset="1" stop-color="#5A78FF"/>
</linearGradient>
</defs>
</svg>
