<svg width="126" height="135" viewBox="0 0 126 135" fill="none" xmlns="http://www.w3.org/2000/svg">
<path d="M63.3995 110.548C90.8357 110.548 113.077 88.1666 113.077 60.5579C113.077 32.9491 90.8357 10.5678 63.3995 10.5678C35.9632 10.5678 13.7217 32.9491 13.7217 60.5579C13.7217 88.1666 35.9632 110.548 63.3995 110.548Z" fill="#2A2E38"/>
<path d="M121.196 47.3741C122.745 45.95 122.853 43.5324 121.438 41.9741C120.023 40.4158 117.62 40.307 116.071 41.731C114.523 43.155 114.415 45.5727 115.83 47.131C117.245 48.6893 119.648 48.7981 121.196 47.3741Z" fill="#2A2E39"/>
<path d="M34.682 14.8763C35.9945 14.4471 36.7126 13.0284 36.286 11.7077C35.8594 10.387 34.4496 9.66432 33.1372 10.0936C31.8247 10.5229 31.1066 11.9415 31.5331 13.2622C31.9597 14.5829 33.3695 15.3056 34.682 14.8763Z" fill="#2A2E39"/>
<path d="M40.1367 6.67185C41.0291 6.37995 41.5175 5.41527 41.2274 4.51718C40.9373 3.61909 39.9787 3.12768 39.0862 3.41958C38.1937 3.71149 37.7054 4.67617 37.9954 5.57425C38.2855 6.47234 39.2442 6.96376 40.1367 6.67185Z" fill="#2A2E39"/>
<path d="M121.477 30.3806C122.129 29.781 122.174 28.7631 121.578 28.107C120.983 27.4508 119.971 27.405 119.319 28.0046C118.667 28.6042 118.621 29.6222 119.217 30.2783C119.813 30.9344 120.825 30.9802 121.477 30.3806Z" fill="#2A2E39"/>
<path d="M81.1299 6.86128C81.5783 6.44888 81.6097 5.74872 81.1998 5.29743C80.79 4.84615 80.0942 4.81463 79.6458 5.22703C79.1973 5.63944 79.166 6.33959 79.5758 6.79088C79.9856 7.24216 80.6814 7.27368 81.1299 6.86128Z" fill="#EAEEF9"/>
<g filter="url(#filter0_d)">
<path d="M92.5866 20.0227H69.9968H32.7134C27.2159 20.425 22.8179 25.1524 22.8179 30.7851V56.8363V59.7532V90.3306C22.8179 96.265 27.6157 101.093 33.5131 101.093H92.5866C98.484 101.093 103.282 96.265 103.282 90.3306V59.7532V56.8363V30.7851C103.282 24.8507 98.484 20.0227 92.5866 20.0227Z" fill="#2A2E38"/>
</g>
<path d="M92.5867 20.0227H69.9968H32.7134C27.2159 20.425 22.8179 25.1524 22.8179 30.7851V55.5287H103.382V30.7851C103.282 24.8507 98.484 20.0227 92.5867 20.0227ZM42.3092 29.0752C41.0097 29.0752 40.0102 28.0694 40.0102 26.7618C40.0102 25.4542 41.0097 24.4484 42.3092 24.4484C43.6086 24.4484 44.6081 25.4542 44.6081 26.7618C44.5082 27.9688 43.5086 29.0752 42.3092 29.0752ZM83.0909 29.0752C81.7915 29.0752 80.7919 28.0694 80.7919 26.7618C80.7919 25.4542 81.7915 24.4484 83.0909 24.4484C84.3903 24.4484 85.3899 25.4542 85.3899 26.7618C85.2899 27.9688 84.2904 29.0752 83.0909 29.0752Z" fill="#1E242D"/>
<path d="M22.8179 56.8363V90.3306C22.8179 96.2651 27.6157 101.093 33.5131 101.093H92.5866C98.484 101.093 103.282 96.2651 103.282 90.3306V56.8363H22.8179Z" fill="#525B72"/>
<path d="M22.8177 59.8538L18.9195 39.4353C18.0199 34.8085 22.8177 30.8857 29.6147 30.8857H97.5843C104.381 30.8857 109.079 34.8085 107.98 39.4353L103.382 59.8538" fill="#474E61"/>
<path d="M55.4032 81.781C48.8061 81.781 43.9083 77.8582 43.8083 72.4267V71.8232H46.7071V72.4267C46.807 76.1483 50.6053 79.0652 55.4032 79.0652C60.4009 79.0652 64.0993 76.0477 64.0993 71.8232C64.0993 67.5987 60.7008 64.9835 54.9034 64.9835H50.6053V62.1672H54.9034C59.5013 62.1672 62.6999 59.552 62.6999 55.7299C62.6999 52.1088 59.5013 49.3931 55.1033 49.3931C51.0051 49.3931 47.8066 52.0083 47.5067 55.6293V56.1322H44.608V55.5287C44.9079 50.2983 49.3059 46.4762 55.2032 46.4762C61.2006 46.4762 65.6986 50.2983 65.6986 55.4281C65.6986 58.9485 63.7994 61.8655 60.6008 63.173C64.699 64.2795 67.1979 67.3976 67.1979 71.5215C67.0979 77.4559 62.1002 81.781 55.4032 81.781Z" fill="#808BA5"/>
<path d="M78.6928 81.2781V50.7007C77.6932 51.3042 76.2938 52.2094 74.9944 53.1147L74.7945 53.2152C73.1952 54.2211 71.5959 55.3275 70.5964 55.931L69.6968 56.5345V53.1147L69.9966 52.9135C70.7963 52.4106 71.9957 51.6059 73.2952 50.8012C75.2943 49.4937 77.5932 47.9849 78.9926 47.0797L79.0926 46.9791H81.5914V81.1775H78.6928V81.2781Z" fill="#808BA5"/>
<path d="M117.489 98.1862C117.389 98.4879 117.389 98.7897 117.289 99.192C115.49 105.931 110.292 110.86 103.895 112.469C101.296 113.173 98.4977 113.174 95.699 112.671C85.7034 110.558 79.3062 100.701 81.4053 90.7431C83.5044 80.6847 93.2001 74.2476 103.196 76.3598C106.694 77.0639 109.993 78.8744 112.491 81.389C116.89 85.7141 118.789 92.0506 117.489 98.1862Z" fill="url(#paint0_linear)"/>
<path d="M117.275 99.0814C115.476 105.821 110.278 110.749 103.881 112.358L93.386 101.797L95.3851 99.8861L102.082 99.182L105.381 90.5318L103.082 88.5201L107.18 89.1236L117.275 99.0814Z" fill="url(#paint1_linear)"/>
<path d="M107.233 89.0924C106.433 88.0866 105.434 87.2819 104.334 86.6784C103.834 86.3767 103.135 86.5778 102.835 87.1813C102.535 87.6843 102.735 88.3883 103.335 88.6901C104.234 89.0924 104.934 89.6959 105.534 90.5006C105.933 91.0035 106.633 91.1041 107.133 90.7018C107.533 90.1989 107.633 89.4948 107.233 89.0924Z" fill="url(#paint2_linear)"/>
<path d="M93.339 90.5007C93.9387 89.696 94.7384 88.9919 95.638 88.5896C96.1378 88.2878 96.3377 87.5837 96.0378 87.0808C95.7379 86.5779 95.0382 86.3767 94.5385 86.6785C93.439 87.282 92.4394 88.1872 91.6398 89.1931C91.24 89.696 91.3399 90.4001 91.8397 90.7018C92.2395 91.1042 92.9392 91.0036 93.339 90.5007Z" fill="url(#paint3_linear)"/>
<path d="M104.434 99.9562C107.033 97.2405 106.933 92.8148 104.135 90.1996C103.235 89.395 102.235 88.7915 101.136 88.4897C100.036 88.188 98.8369 88.188 97.7374 88.4897C94.0391 89.395 91.84 93.2171 92.7396 96.8382C93.0395 97.9446 93.6393 99.051 94.4389 99.9562L93.5393 100.861C93.2394 101.163 93.2394 101.666 93.5393 101.968C93.8392 102.27 94.3389 102.27 94.5388 101.968L95.5384 100.962C96.2381 101.364 96.9378 101.767 97.6375 101.968C98.737 102.27 99.9364 102.27 101.036 101.968C101.836 101.767 102.535 101.465 103.135 100.962L104.135 101.968C104.434 102.27 104.934 102.27 105.234 101.968C105.534 101.666 105.534 101.163 105.234 100.861L104.434 99.9562ZM101.736 96.7376C101.636 96.9387 101.336 97.1399 101.036 97.1399C100.936 97.1399 100.736 97.1399 100.636 97.0393L98.8369 95.9329C98.637 95.8323 98.4371 95.5306 98.4371 95.3294V91.6078C98.4371 91.2055 98.737 90.8031 99.2367 90.9037C99.6366 90.9037 99.9364 91.2055 99.9364 91.6078V94.9271L101.436 95.7317C101.836 95.9329 101.936 96.3352 101.736 96.7376Z" fill="url(#paint4_linear)"/>
<path d="M99.2585 5.65889C98.9586 5.35714 98.5588 5.05539 98.159 4.75364V4.65306C98.159 4.65306 98.2589 4.55247 98.3589 4.55247C98.6588 4.3513 98.9586 4.04955 99.0586 3.7478C99.1585 3.1443 98.6588 2.94313 98.3589 2.74197C98.3589 2.74197 98.2589 2.74197 98.2589 2.64138L98.3589 2.5408C98.6588 2.33963 98.9586 1.9373 98.9586 1.53496C98.9586 1.3338 98.7587 1.13263 98.5588 1.13263C98.3589 1.13263 98.159 1.3338 98.159 1.53496C98.159 1.63555 97.9591 1.83671 97.8591 1.9373C97.6592 2.13847 97.3593 2.44022 97.3593 2.84255C97.4593 3.1443 97.6592 3.34547 97.9591 3.44605C98.059 3.44605 98.159 3.54664 98.159 3.54664C98.159 3.64722 97.9591 3.7478 97.8591 3.84839C97.6592 3.94897 97.5592 4.15014 97.3593 4.25072C97.3593 4.25072 97.2594 4.25072 97.2594 4.15014C97.0595 4.04955 96.8596 3.94897 96.6597 3.84839C96.5597 3.84839 96.4597 3.7478 96.3598 3.7478C95.6601 3.54664 95.1603 3.64722 94.7605 4.04955C94.6606 4.15014 94.5606 4.25072 94.5606 4.45189L91.7618 12.4986C91.6619 12.8003 91.7619 13.1021 92.0617 13.2027C92.1617 13.2027 92.3616 13.2027 92.4615 13.2027L100.158 10.2857H100.258C100.358 10.1852 100.458 10.1852 100.558 10.0846C100.858 9.78282 100.958 9.38048 100.958 8.97815C100.858 8.17348 100.658 7.4694 100.158 6.86589C100.058 6.46356 99.6583 6.06123 99.2585 5.65889ZM100.058 9.58165C99.7583 9.8834 98.3589 9.58165 96.8596 8.0729C95.3602 6.56414 95.1603 5.15597 95.4602 4.85422C95.6601 4.65306 96.2598 4.75364 97.0595 5.15597L96.8596 5.45772C96.7596 5.65889 96.7596 5.86006 96.9595 6.06123C97.0595 6.06123 97.0595 6.16181 97.1594 6.16181C97.2594 6.16181 97.4593 6.06123 97.4593 5.96064L97.6592 5.65889C97.9591 5.86006 98.2589 6.16181 98.5588 6.46356C100.058 7.77115 100.458 9.2799 100.058 9.58165Z" fill="url(#paint5_linear)"/>
<path d="M104.656 6.56363C104.556 6.66421 104.256 6.46304 104.057 6.36246C103.757 6.16129 103.257 5.96013 102.957 6.26188C102.657 6.56363 102.757 6.86538 102.757 7.26771C102.757 7.3683 102.757 7.46888 102.757 7.56946C102.557 7.46888 102.457 7.3683 102.257 7.26771C101.957 7.06655 101.458 6.76479 101.058 7.16713C100.958 7.3683 100.958 7.56946 101.158 7.77063C101.258 7.87121 101.458 7.87121 101.558 7.77063C101.658 7.77063 101.758 7.87121 101.857 7.9718C102.157 8.17297 102.457 8.37413 102.857 8.37413C102.957 8.37413 102.957 8.37413 103.057 8.37413C103.657 8.17296 103.557 7.46888 103.557 7.16713C103.557 7.16713 103.557 7.06655 103.557 6.96596C103.657 6.96596 103.657 7.06654 103.757 7.06654C104.156 7.26771 104.656 7.46888 105.056 7.26771C105.256 7.16713 105.356 6.96596 105.256 6.76479C105.156 6.56363 104.956 6.46304 104.656 6.56363C104.756 6.56363 104.656 6.56363 104.656 6.56363Z" fill="url(#paint6_linear)"/>
<path d="M100.158 5.15548C100.258 5.15548 100.358 5.0549 100.458 5.0549C100.558 5.0549 100.658 5.0549 100.658 5.0549C101.058 5.15548 101.458 5.15548 101.757 4.95432C102.157 4.65257 102.257 4.25023 102.157 3.74731C102.157 3.64673 102.157 3.44556 102.157 3.44556C102.257 3.44556 102.357 3.44556 102.457 3.44556C102.857 3.54615 103.357 3.44556 103.657 3.14381C103.857 3.04323 103.857 2.74148 103.757 2.54031C103.657 2.33914 103.357 2.33914 103.157 2.43973C102.957 2.54031 102.657 2.64089 102.457 2.54031C102.057 2.43973 101.757 2.54031 101.458 2.84206C101.258 3.14381 101.258 3.44556 101.258 3.74731C101.258 4.04906 101.258 4.14965 101.158 4.14965C101.058 4.25023 100.858 4.14965 100.658 4.14965C100.358 4.04906 99.9583 3.94848 99.6584 4.35081C99.5585 4.55198 99.5585 4.75315 99.7584 4.85373C100.058 5.15548 100.058 5.15548 100.158 5.15548Z" fill="url(#paint7_linear)"/>
<path d="M100.958 1.53512C100.958 1.63575 100.958 1.63575 101.058 1.73638H101.158L101.658 1.53512C101.758 1.4345 101.858 1.4345 101.958 1.53512L102.458 1.73638C102.558 1.73638 102.558 1.73638 102.658 1.63575V1.53512L102.458 1.03198C102.358 0.931353 102.358 0.830725 102.458 0.730097L102.658 0.226954C102.658 0.126325 102.658 0.126324 102.558 0.0256958H102.458L101.958 0.226954C101.858 0.327582 101.758 0.327582 101.658 0.226954L101.158 0.0256958C101.058 0.0256958 101.058 0.0256962 100.958 0.126325V0.226954L101.158 0.730097C101.258 0.830725 101.258 0.931353 101.158 1.03198L100.958 1.53512Z" fill="url(#paint8_linear)"/>
<path d="M107.056 4.85413C107.056 4.7535 107.056 4.65287 107.056 4.55224L107.256 4.0491C107.256 3.94847 107.256 3.94847 107.156 3.84784H107.056L106.556 4.0491C106.456 4.0491 106.356 4.0491 106.256 4.0491L105.756 3.84784C105.656 3.84784 105.656 3.84784 105.556 3.94847V4.0491L105.756 4.55224C105.756 4.65287 105.756 4.7535 105.756 4.85413L105.556 5.35727C105.556 5.4579 105.556 5.4579 105.656 5.55853H105.756L106.256 5.35727C106.356 5.35727 106.456 5.35727 106.556 5.35727L107.056 5.55853C107.156 5.55853 107.156 5.55853 107.256 5.4579V5.35727L107.056 4.85413Z" fill="url(#paint9_linear)"/>
<path d="M94.9603 2.94324L95.3603 2.74199C95.4603 2.74199 95.5603 2.74199 95.6603 2.74199L96.0603 2.94324H96.1603V2.84261L95.9603 2.4401C95.9603 2.33947 95.9603 2.23884 95.9603 2.13821L96.1603 1.7357V1.63507H96.0603L95.6603 1.83633C95.5603 1.83633 95.4603 1.83633 95.3603 1.83633L94.9603 1.63507H94.8603V1.7357L95.0603 2.13821C95.0603 2.23884 95.0603 2.33947 95.0603 2.4401L94.8603 2.84261C94.7603 2.94324 94.8603 2.94324 94.9603 2.94324C94.8603 2.94324 94.9603 2.94324 94.9603 2.94324Z" fill="url(#paint10_linear)"/>
<path d="M12.5222 73.7344C12.8221 73.6338 13.022 73.332 12.922 73.0303L12.7221 72.2256C12.6222 71.9239 12.3223 71.7227 12.0224 71.8233L4.42582 73.835C4.12596 73.9355 3.92605 74.2373 4.026 74.539L4.22591 75.3437C4.32587 75.6455 4.62573 75.8466 4.9256 75.746C5.22546 76.8525 6.02511 77.7577 7.02466 78.3612L8.42403 79.0653C8.62394 79.1659 8.62394 79.3671 8.52399 79.4676L7.62439 80.6746C6.9247 81.5799 6.72479 82.7869 6.9247 83.8933C6.62484 83.9939 6.42493 84.2956 6.52488 84.5974L6.72479 85.4021C6.82475 85.7038 7.12461 85.905 7.42448 85.8044L15.0211 83.7927C15.3209 83.6922 15.5209 83.3904 15.4209 83.0886L15.3209 82.3846C15.221 82.0828 14.9211 81.8816 14.6213 81.9822C14.3214 80.8758 13.5218 79.9706 12.5222 79.4676L11.1228 78.7636C10.9229 78.663 10.823 78.4618 10.9229 78.3612L11.8225 77.1542C12.5222 76.0478 12.7221 74.8408 12.5222 73.7344ZM10.723 76.249L9.72345 77.6571C9.6235 77.8583 9.32363 77.8583 9.22368 77.7577L7.72435 76.953C7.12461 76.6513 6.72479 76.249 6.42493 75.6455C6.32497 75.4443 6.42493 75.2431 6.62484 75.1425C6.62484 75.1425 6.62484 75.1425 6.72479 75.1425L10.9229 74.0361C11.1228 74.0361 11.3227 74.1367 11.3227 74.3379C11.3227 74.3379 11.3227 74.3379 11.3227 74.4385C11.2228 75.1425 11.1228 75.746 10.723 76.249Z" fill="url(#paint11_linear)"/>
<defs>
<filter id="filter0_d" x="0.817871" y="9.02267" width="124.464" height="125.07" filterUnits="userSpaceOnUse" color-interpolation-filters="sRGB">
<feFlood flood-opacity="0" result="BackgroundImageFix"/>
<feColorMatrix in="SourceAlpha" type="matrix" values="0 0 0 0 0 0 0 0 0 0 0 0 0 0 0 0 0 0 127 0"/>
<feOffset dy="11"/>
<feGaussianBlur stdDeviation="11"/>
<feColorMatrix type="matrix" values="0 0 0 0 0 0 0 0 0 0 0 0 0 0 0 0 0 0 0.18 0"/>
<feBlend mode="normal" in2="BackgroundImageFix" result="effect1_dropShadow"/>
<feBlend mode="normal" in="SourceGraphic" in2="effect1_dropShadow" result="shape"/>
</filter>
<linearGradient id="paint0_linear" x1="92.9959" y1="76.6929" x2="105.623" y2="111.176" gradientUnits="userSpaceOnUse">
<stop stop-color="#83A6FF"/>
<stop offset="1" stop-color="#5A78FF"/>
</linearGradient>
<linearGradient id="paint1_linear" x1="101.345" y1="96.4715" x2="109.216" y2="104.293" gradientUnits="userSpaceOnUse">
<stop stop-color="#4F6AFF"/>
<stop offset="1" stop-color="#657EFF" stop-opacity="0"/>
</linearGradient>
<linearGradient id="paint2_linear" x1="110.235" y1="93.7708" x2="99.8416" y2="83.4421" gradientUnits="userSpaceOnUse">
<stop offset="0.0113208" stop-color="#C2D1FF"/>
<stop offset="1" stop-color="white"/>
</linearGradient>
<linearGradient id="paint3_linear" x1="104.509" y1="99.5327" x2="94.1157" y2="89.2041" gradientUnits="userSpaceOnUse">
<stop offset="0.0113208" stop-color="#C2D1FF"/>
<stop offset="1" stop-color="white"/>
</linearGradient>
<linearGradient id="paint4_linear" x1="103.375" y1="100.675" x2="92.9815" y2="90.3464" gradientUnits="userSpaceOnUse">
<stop offset="0.0113208" stop-color="#C2D1FF"/>
<stop offset="1" stop-color="white"/>
</linearGradient>
<linearGradient id="paint5_linear" x1="91.7738" y1="7.25727" x2="101.085" y2="7.25727" gradientUnits="userSpaceOnUse">
<stop stop-color="#FF66A9"/>
<stop offset="1" stop-color="#F53689"/>
</linearGradient>
<linearGradient id="paint6_linear" x1="101.08" y1="7.19952" x2="105.259" y2="7.19952" gradientUnits="userSpaceOnUse">
<stop stop-color="#FF66A9"/>
<stop offset="1" stop-color="#F53689"/>
</linearGradient>
<linearGradient id="paint7_linear" x1="99.7809" y1="3.82788" x2="103.956" y2="3.82788" gradientUnits="userSpaceOnUse">
<stop stop-color="#FF66A9"/>
<stop offset="1" stop-color="#F53689"/>
</linearGradient>
<linearGradient id="paint8_linear" x1="100.986" y1="0.786046" x2="102.735" y2="0.786046" gradientUnits="userSpaceOnUse">
<stop stop-color="#FF66A9"/>
<stop offset="1" stop-color="#F53689"/>
</linearGradient>
<linearGradient id="paint9_linear" x1="105.592" y1="4.72894" x2="107.3" y2="4.72894" gradientUnits="userSpaceOnUse">
<stop stop-color="#FF66A9"/>
<stop offset="1" stop-color="#F53689"/>
</linearGradient>
<linearGradient id="paint10_linear" x1="94.8075" y1="2.32438" x2="96.1137" y2="2.32438" gradientUnits="userSpaceOnUse">
<stop stop-color="#FF66A9"/>
<stop offset="1" stop-color="#F53689"/>
</linearGradient>
<linearGradient id="paint11_linear" x1="3.92605" y1="78.8297" x2="15.5524" y2="78.8297" gradientUnits="userSpaceOnUse">
<stop stop-color="#FF66A9"/>
<stop offset="1" stop-color="#F53689"/>
</linearGradient>
</defs>
</svg>
