<svg width="121" height="86" viewBox="0 0 121 86" fill="none" xmlns="http://www.w3.org/2000/svg">
<path d="M11.1462 43.0324C11.3859 42.9523 11.5456 42.7118 11.5456 42.3911L11.3859 41.7498C11.306 41.5093 11.0663 41.349 10.8266 41.4292L4.7549 43.0324C4.51522 43.1126 4.35544 43.3531 4.43533 43.5936L4.59511 44.2349C4.67501 44.4754 4.91468 44.6357 5.15435 44.5555C5.39403 45.4373 6.03316 46.1588 6.83207 46.6398L7.87065 47.2009C8.03043 47.2811 8.03043 47.4414 7.95054 47.5216L7.23152 48.4835C6.67228 49.205 6.5125 50.167 6.67228 51.0488C6.43261 51.1289 6.27283 51.3694 6.35272 51.6099L6.5125 52.2512C6.59239 52.652 6.91196 52.8124 7.15163 52.7322L13.2234 51.1289C13.463 51.0488 13.6228 50.8083 13.5429 50.5678L13.3831 49.9265C13.3032 49.686 13.0636 49.5257 12.8239 49.6058C12.5842 48.724 11.9451 48.0026 11.1462 47.6018L10.0277 47.0406C9.86793 46.9604 9.86793 46.8001 9.94782 46.72L10.6668 45.758C11.1462 44.8762 11.306 43.9944 11.1462 43.0324ZM9.70815 45.0365L8.90924 46.1588C8.82934 46.3191 8.58967 46.3191 8.50978 46.239L7.31141 45.5977C6.83207 45.3572 6.5125 45.0365 6.27283 44.5555C6.19294 44.3952 6.27283 44.2349 6.43261 44.1547C6.43261 44.1547 6.43261 44.1547 6.5125 44.1547L9.86793 43.2729C10.0277 43.2729 10.1875 43.3531 10.1875 43.5134C10.1875 43.5134 10.1875 43.5134 10.1875 43.5936C10.1076 44.1547 10.0277 44.6357 9.70815 45.0365Z" fill="url(#paint0_linear)"/>
<path d="M60.1195 86C82.0484 86 99.8253 68.1625 99.8253 46.1588C99.8253 24.1552 82.0484 6.31766 60.1195 6.31766C38.1905 6.31766 20.4136 24.1552 20.4136 46.1588C20.4136 68.1625 38.1905 86 60.1195 86Z" fill="#2A2E39"/>
<path d="M105.545 26.5986C106.783 25.4637 106.869 23.5369 105.738 22.295C104.607 21.053 102.687 20.9663 101.449 22.1012C100.211 23.2361 100.125 25.163 101.256 26.4049C102.387 27.6468 104.307 27.7336 105.545 26.5986Z" fill="#2A2E39"/>
<path d="M37.1727 9.73692C38.2217 9.39481 38.7957 8.26417 38.4548 7.21159C38.1138 6.159 36.987 5.58304 35.938 5.92516C34.889 6.26728 34.315 7.39791 34.6559 8.4505C34.9969 9.50309 36.1237 10.079 37.1727 9.73692Z" fill="#2A2E39"/>
<path d="M41.5326 3.19811C42.2459 2.96547 42.6362 2.19663 42.4044 1.48087C42.1725 0.765112 41.4063 0.373466 40.693 0.606108C39.9796 0.83875 39.5893 1.60758 39.8212 2.32334C40.053 3.03911 40.8192 3.43075 41.5326 3.19811Z" fill="#2A2E39"/>
<path d="M105.774 12.942C106.296 12.4642 106.332 11.6529 105.856 11.13C105.379 10.607 104.571 10.5705 104.05 11.0484C103.529 11.5262 103.492 12.3375 103.969 12.8605C104.445 13.3834 105.253 13.4199 105.774 12.942Z" fill="#2A2E39"/>
<path d="M74.2382 3.38015C74.5965 3.05162 74.6215 2.49386 74.2941 2.13435C73.9667 1.77485 73.4108 1.74974 73.0525 2.07827C72.6943 2.4068 72.6692 2.96456 72.9966 3.32407C73.3241 3.68357 73.8799 3.70868 74.2382 3.38015Z" fill="#EAEEF9"/>
<path d="M65.1326 4.48915C64.893 4.24866 64.5734 4.00817 64.2538 3.76768V3.68752C64.2538 3.68752 64.3337 3.60736 64.4136 3.60736C64.6533 3.44703 64.893 3.20654 64.9729 2.96605C65.0527 2.48507 64.6533 2.32475 64.4136 2.16442C64.4136 2.16442 64.3337 2.16442 64.3337 2.08425L64.4136 2.00409C64.6533 1.84376 64.893 1.52311 64.893 1.20246C64.893 1.04213 64.7332 0.881805 64.5734 0.881805C64.4136 0.881805 64.2538 1.04213 64.2538 1.20246C64.2538 1.28262 64.0941 1.44295 64.0142 1.52311C63.8544 1.68344 63.6147 1.92393 63.6147 2.24458C63.6946 2.48507 63.8544 2.6454 64.094 2.72556C64.1739 2.72556 64.2538 2.80572 64.2538 2.80572C64.2538 2.88589 64.0941 2.96605 64.0142 3.04621C63.8544 3.12638 63.7745 3.28671 63.6147 3.36687C63.6147 3.36687 63.5348 3.36687 63.5348 3.2867C63.375 3.20654 63.2153 3.12638 63.0555 3.04621C62.9756 3.04621 62.8957 2.96605 62.8158 2.96605C62.2566 2.80573 61.8571 2.88589 61.5375 3.20654C61.4576 3.2867 61.3778 3.36687 61.3778 3.52719L59.1408 9.94026C59.0609 10.1807 59.1408 10.4212 59.3805 10.5014C59.4604 10.5014 59.6201 10.5014 59.7 10.5014L65.8517 8.17667H65.9315C66.0114 8.0965 66.0913 8.0965 66.1712 8.01634C66.4109 7.77585 66.4908 7.4552 66.4908 7.13454C66.4109 6.49324 66.2511 5.93209 65.8517 5.45111C65.6919 5.13046 65.4522 4.80981 65.1326 4.48915ZM65.7718 7.61552C65.5321 7.85601 64.4136 7.61552 63.2153 6.41307C62.0968 5.21062 61.8571 4.08834 62.0968 3.84785C62.2565 3.68752 62.7359 3.76768 63.375 4.08834L63.2153 4.32883C63.1354 4.48915 63.1354 4.64948 63.2951 4.80981C63.375 4.80981 63.375 4.88997 63.4549 4.88997C63.5348 4.88997 63.6946 4.80981 63.6946 4.72964L63.8544 4.48915C64.0941 4.64948 64.3337 4.88997 64.5734 5.13046C65.7718 6.17258 66.0114 7.37503 65.7718 7.61552Z" fill="url(#paint1_linear)"/>
<path d="M69.4466 5.2106C69.3667 5.29076 69.1271 5.13044 68.9673 5.05027C68.7276 4.88995 68.3281 4.72962 68.0885 4.97011C67.8488 5.2106 67.9287 5.45109 67.9287 5.77174C67.9287 5.85191 67.9287 5.93207 67.9287 6.01223C67.7689 5.93207 67.689 5.85191 67.5292 5.77174C67.2896 5.61142 66.8901 5.37093 66.5705 5.69158C66.4907 5.8519 66.4907 6.01223 66.6504 6.17256C66.7303 6.25272 66.8901 6.25272 66.97 6.17256C67.0499 6.17256 67.1298 6.25272 67.2097 6.33289C67.4493 6.49321 67.689 6.65354 68.0086 6.65354C68.0885 6.65354 68.0885 6.65354 68.1684 6.65354C68.6477 6.49321 68.5678 5.93207 68.5678 5.69158C68.5678 5.69158 68.5678 5.61142 68.5678 5.53125C68.6477 5.53125 68.6477 5.61141 68.7276 5.61141C69.0472 5.77174 69.4466 5.93207 69.7662 5.77174C69.926 5.69158 70.0059 5.53125 69.926 5.37093C69.8461 5.2106 69.6064 5.13043 69.4466 5.2106Z" fill="url(#paint2_linear)"/>
<path d="M65.8516 4.08834C65.9315 4.08834 66.0114 4.00818 66.0913 4.00818C66.1711 4.00818 66.251 4.00818 66.251 4.00818C66.5706 4.08834 66.8902 4.08834 67.1298 3.92802C67.4494 3.68753 67.5293 3.36687 67.4494 2.96606C67.4494 2.88589 67.4494 2.72557 67.4494 2.72557C67.5293 2.72557 67.6092 2.72557 67.6891 2.72557C68.0086 2.80573 68.4081 2.72557 68.6478 2.48508C68.8076 2.40491 68.8076 2.16442 68.7277 2.0041C68.6478 1.84377 68.4081 1.84377 68.2483 1.92393C68.0885 2.0041 67.8489 2.08426 67.6891 2.0041C67.3695 1.92393 67.1298 2.0041 66.8902 2.24459C66.7304 2.48508 66.7304 2.72557 66.7304 2.96606C66.7304 3.20655 66.7304 3.28671 66.6505 3.28671C66.5706 3.36687 66.4108 3.28671 66.251 3.28671C66.0114 3.20655 65.6918 3.12638 65.4521 3.44704C65.3722 3.60736 65.3722 3.76769 65.532 3.84785C65.6918 4.08834 65.7717 4.08834 65.8516 4.08834Z" fill="url(#paint3_linear)"/>
<path d="M66.4907 1.20245C66.4907 1.28261 66.4907 1.28261 66.5706 1.36278H66.6505L67.05 1.20245C67.1299 1.12229 67.2097 1.12229 67.2896 1.20245L67.6891 1.36278C67.769 1.36278 67.769 1.36278 67.8489 1.28261V1.20245L67.6891 0.801633C67.6092 0.72147 67.6092 0.641307 67.6891 0.561144L67.8489 0.160327C67.8489 0.0801639 67.8489 0.0801633 67.769 0H67.6891L67.2896 0.160327C67.2097 0.240491 67.1299 0.240491 67.05 0.160327L66.6505 0C66.5706 0 66.5706 3.04604e-07 66.4907 0.0801636V0.160327L66.6505 0.561144C66.7304 0.641307 66.7304 0.72147 66.6505 0.801633L66.4907 1.20245Z" fill="url(#paint4_linear)"/>
<path d="M71.3641 3.84784C71.3641 3.76767 71.3641 3.68751 71.3641 3.60735L71.5239 3.20653C71.5239 3.12637 71.5239 3.12637 71.444 3.0462H71.3641L70.9647 3.20653C70.8848 3.20653 70.8049 3.20653 70.725 3.20653L70.3256 3.0462C70.2457 3.0462 70.2457 3.0462 70.1658 3.12637V3.20653L70.3256 3.60735C70.3256 3.68751 70.3256 3.76767 70.3256 3.84784L70.1658 4.24865C70.1658 4.32882 70.1658 4.32882 70.2457 4.40898H70.3256L70.725 4.24865C70.8049 4.24865 70.8848 4.24865 70.9647 4.24865L71.3641 4.40898C71.444 4.40898 71.444 4.40898 71.5239 4.32882V4.24865L71.3641 3.84784Z" fill="url(#paint5_linear)"/>
<path d="M61.6973 2.32475L62.0169 2.16442C62.0968 2.16442 62.1767 2.16442 62.2566 2.16442L62.5761 2.32475H62.656V2.24458L62.4962 1.92393C62.4962 1.84377 62.4962 1.7636 62.4962 1.68344L62.656 1.36279V1.28262H62.5761L62.2566 1.44295C62.1767 1.44295 62.0968 1.44295 62.0169 1.44295L61.6973 1.28262H61.6174V1.36279L61.7772 1.68344C61.7772 1.7636 61.7772 1.84377 61.7772 1.92393L61.6174 2.24458C61.5375 2.32475 61.5375 2.32475 61.6973 2.32475C61.6174 2.32475 61.6174 2.32475 61.6973 2.32475Z" fill="url(#paint6_linear)"/>
<path d="M82.3292 78.9456H10.1875L23.3695 18.1017H95.5911L82.3292 78.9456Z" fill="white"/>
<path d="M82.3292 78.9456H10.1875L23.3695 18.1017H95.5911L82.3292 78.9456Z" fill="#2C313D"/>
<path d="M40.706 78.9456H25.7664C23.0501 78.9456 20.8131 76.6209 20.9729 73.8954L23.3696 18.1017H26.9647L40.706 78.9456Z" fill="url(#paint7_linear)"/>
<path d="M111.41 78.9456H39.268L27.0446 32.2104L26.9647 31.8898L23.3696 18.1017H95.5912L98.707 30.046L99.1863 31.8898L99.2662 32.2104L111.41 78.9456Z" fill="#474E61"/>
<path d="M99.1863 31.8898H26.9647L23.3696 18.1017H95.5912L98.707 30.046L99.1863 31.8898Z" fill="#525B72"/>
<path opacity="0.3" d="M42.3837 27.9618C43.7956 27.9618 44.9402 26.8133 44.9402 25.3965C44.9402 23.9798 43.7956 22.8313 42.3837 22.8313C40.9717 22.8313 39.8271 23.9798 39.8271 25.3965C39.8271 26.8133 40.9717 27.9618 42.3837 27.9618Z" fill="#172D45"/>
<path opacity="0.3" d="M84.5663 27.9618C85.9782 27.9618 87.1228 26.8133 87.1228 25.3965C87.1228 23.9798 85.9782 22.8313 84.5663 22.8313C83.1544 22.8313 82.0098 23.9798 82.0098 25.3965C82.0098 26.8133 83.1544 27.9618 84.5663 27.9618Z" fill="#172D45"/>
<path d="M41.7446 26.4387C41.2653 26.4387 40.8658 26.0379 40.8658 25.5569C40.8658 25.0759 41.2653 24.6751 41.7446 24.6751C43.5022 24.6751 45.3397 22.19 45.3397 18.4223C45.3397 18.3422 45.3397 18.1818 45.3397 18.1017C45.2598 14.4142 43.4223 12.1696 41.7446 12.1696C40.1468 12.1696 38.3892 14.334 38.1495 17.7009H36.312C36.5517 13.5324 38.8685 10.406 41.6647 10.406C44.6207 10.406 46.9375 13.853 47.0973 18.262C47.0973 18.3422 47.0973 18.4223 47.0973 18.5025C47.1772 22.9115 44.7805 26.4387 41.7446 26.4387Z" fill="#1C3754"/>
<path d="M83.6872 26.4387C83.2079 26.4387 82.8084 26.0379 82.8084 25.5569C82.8084 25.0759 83.2079 24.6751 83.6872 24.6751C85.4448 24.6751 87.2823 22.19 87.2823 18.4223C87.2823 18.3422 87.2823 18.1818 87.2823 18.1017C87.2024 14.4142 85.365 12.1696 83.6872 12.1696C82.0894 12.1696 80.3318 14.334 80.0921 17.7009H78.2546C78.4943 13.5324 80.8112 10.406 83.6073 10.406C86.5633 10.406 88.8802 13.853 89.0399 18.262C89.0399 18.3422 89.0399 18.4223 89.0399 18.5025C89.1198 22.9115 86.7231 26.4387 83.6872 26.4387Z" fill="#1C3754"/>
<path d="M1 78.8655H117.242" stroke="#2B323C" stroke-width="2" stroke-miterlimit="10" stroke-linecap="round" stroke-linejoin="round"/>
<path d="M84.9654 49.9265C84.4861 49.9265 84.1665 49.5257 84.1665 49.1249C84.1665 48.6439 84.4861 48.3232 84.9654 48.3232H87.442C87.9214 48.3232 88.241 48.7241 88.241 49.1249C88.241 49.6059 87.8415 49.9265 87.442 49.9265H84.9654Z" fill="#2C313D"/>
<path d="M50.9319 72.5326C50.6123 72.5326 50.2928 72.2921 50.133 71.9714L48.8547 67.2418H42.5433C42.064 67.2418 41.7444 66.841 41.7444 66.4402C41.7444 65.9592 42.1439 65.6385 42.5433 65.6385H48.3754L46.3781 58.5841H40.3064C39.827 58.5841 39.5075 58.1833 39.5075 57.7825C39.5075 57.3015 39.827 56.9809 40.3064 56.9809H45.8988L43.9015 49.9265H38.1493C37.67 49.9265 37.3504 49.5257 37.3504 49.1249C37.3504 48.6439 37.67 48.3232 38.1493 48.3232H43.502L41.5048 41.2689H35.9923C35.5129 41.2689 35.1934 40.8681 35.1934 40.4672C35.1934 39.9863 35.5129 39.6656 35.9923 39.6656H41.0254L40.2265 36.7797C40.1466 36.3789 40.3863 35.8979 40.7857 35.8178C40.8656 35.8178 40.9455 35.8178 41.0254 35.8178C41.345 35.8178 41.6645 36.0583 41.8243 36.3789L42.783 39.6656H49.1743C49.6537 39.6656 49.9732 39.9863 49.9732 40.4672C49.9732 40.9482 49.6537 41.2689 49.1743 41.2689H43.2624L45.2596 48.3232H55.3259L52.1303 36.7797C52.0504 36.3789 52.2901 35.8979 52.6895 35.8178C52.7694 35.8178 52.8493 35.8178 52.9292 35.8178C53.2488 35.8178 53.5683 36.0583 53.7281 36.3789L54.6868 39.6656H58.1221C58.6015 39.6656 58.921 39.9863 58.921 40.4672C58.921 40.9482 58.5216 41.2689 58.1221 41.2689H55.1661L57.1634 48.3232H63.9542C64.4335 48.3232 64.7531 48.7241 64.7531 49.1249C64.7531 49.6059 64.4335 49.9265 63.9542 49.9265H57.6428L59.64 56.9809H69.7862L65.3922 41.2689H63.2351C62.7558 41.2689 62.4362 40.8681 62.4362 40.4672C62.4362 39.9863 62.8357 39.6656 63.2351 39.6656H64.9129L64.1139 36.7797C64.0341 36.5392 64.1139 36.3789 64.1938 36.1384C64.2737 35.9781 64.4335 35.8178 64.6732 35.7376C64.7531 35.7376 64.833 35.7376 64.9129 35.7376C65.2324 35.7376 65.552 35.9781 65.7118 36.2988L66.6705 39.5854H68.3482C68.8275 39.5854 69.1471 39.9061 69.1471 40.3871C69.1471 40.8681 68.8275 41.1887 68.3482 41.1887H67.1498L69.1471 48.2431H79.2933L77.296 41.1887H72.1031C71.6237 41.1887 71.3041 40.7879 71.3041 40.3871C71.3041 39.9061 71.7036 39.5854 72.1031 39.5854H76.577L75.778 36.6996C75.6982 36.2988 75.9378 35.8178 76.3373 35.7376C76.4172 35.7376 76.4971 35.7376 76.577 35.7376C76.8965 35.7376 77.2161 35.9781 77.3759 36.2988L78.3346 39.5854H88.4807L87.6818 36.6996C87.6019 36.2988 87.8416 35.8178 88.2411 35.7376C88.3209 35.7376 88.4008 35.7376 88.4807 35.7376C88.8003 35.7376 89.1199 35.9781 89.2796 36.2988L90.2383 39.5854H96.4698C96.9492 39.5854 97.2688 39.9061 97.2688 40.3871C97.2688 40.8681 96.9492 41.1887 96.4698 41.1887H90.478L92.4753 48.2431H98.4671C98.9465 48.2431 99.266 48.6439 99.266 49.0447C99.266 49.5257 98.9465 49.8464 98.4671 49.8464H92.9546L94.9519 56.9007H100.704C101.183 56.9007 101.503 57.3015 101.503 57.7024C101.503 58.1833 101.183 58.504 100.704 58.504H95.4313L97.4285 65.5584H102.861C103.34 65.5584 103.66 65.9592 103.66 66.36C103.66 66.841 103.261 67.1616 102.861 67.1616H97.828L99.0264 71.4103C99.1063 71.8111 98.8666 72.2921 98.4671 72.3722C98.3872 72.3722 98.3073 72.3722 98.2274 72.3722C97.9079 72.3722 97.5883 72.1317 97.4285 71.8111L96.1503 67.1616H86.0041L87.2025 71.3301C87.2824 71.5706 87.2025 71.7309 87.1226 71.9714C87.0427 72.1318 86.8829 72.2921 86.6432 72.3722C86.5633 72.3722 86.4835 72.3722 86.4036 72.3722C86.084 72.3722 85.7644 72.1317 85.6047 71.8111L84.3264 67.2418H74.1802L75.3786 71.4103C75.4585 71.8111 75.2188 72.2921 74.8194 72.3722C74.7395 72.3722 74.6596 72.3722 74.5797 72.3722C74.2601 72.3722 73.9406 72.1317 73.7808 71.8111L72.5025 67.2418H62.3563L63.5547 71.4103C63.6346 71.8111 63.3949 72.2921 62.9955 72.3722C62.9156 72.3722 62.8357 72.3722 62.7558 72.3722C62.4362 72.3722 62.1167 72.1317 61.9569 71.8111L60.6786 67.2418H50.5325L51.7308 71.4904C51.8107 71.7309 51.7308 71.8913 51.6509 72.1317C51.571 72.2921 51.4113 72.4524 51.1716 72.5326C51.0917 72.5326 51.0118 72.5326 50.9319 72.5326ZM73.7009 65.6385H95.6709L93.6737 58.5841H83.5275L84.2465 61.1494C84.3264 61.3899 84.2465 61.5502 84.1666 61.7907C84.0867 61.951 83.9269 62.1113 83.6873 62.1915C83.6074 62.1915 83.5275 62.1915 83.4476 62.1915C83.128 62.1915 82.8085 61.951 82.6487 61.6304L81.8498 58.6643H78.8139C78.3346 58.6643 78.015 58.2635 78.015 57.8627C78.015 57.3817 78.3346 57.0611 78.8139 57.0611H81.3704L79.3731 50.0067H69.3069L71.3041 57.0611H73.7808C74.2601 57.0611 74.5797 57.4619 74.5797 57.8627C74.5797 58.3437 74.2601 58.6643 73.7808 58.6643H71.7036L73.7009 65.6385ZM61.877 65.6385H72.0232L70.0259 58.5841H59.8797L61.877 65.6385ZM50.0531 65.6385H60.1993L58.202 58.5841H55.246C54.7667 58.5841 54.4471 58.1833 54.4471 57.7825C54.4471 57.3015 54.8466 56.9809 55.246 56.9809H57.8025L55.8053 49.9265H45.6591L47.6564 56.9809H50.2928C50.7721 56.9809 51.0917 57.3817 51.0917 57.7825C51.0917 58.2635 50.6922 58.5841 50.2928 58.5841H48.1357L50.0531 65.6385ZM83.128 56.9809H93.2742L88.8802 41.2689H78.6541L83.128 56.9809Z" fill="#2C313D"/>
<path d="M56.9238 45.277C55.8852 46.8803 55.4059 48.8042 55.5657 50.7281C55.6455 52.5719 56.3646 54.4157 57.483 55.9388C58.6015 57.3817 60.1993 58.5842 61.9569 59.0651C63.7146 59.6263 65.6319 59.5461 67.3895 59.0651C69.0673 58.504 70.5852 57.3817 71.3841 55.8586C72.183 54.3355 72.2629 52.4917 71.464 51.0488C70.745 49.5257 69.227 48.4034 67.5493 47.7621C65.8716 47.0406 63.9542 46.72 62.0368 46.6398C61.3178 46.6398 60.8385 45.9985 60.8385 45.3572C60.8385 44.6357 61.4776 44.1548 62.1167 44.1548C64.2738 44.3151 66.4308 44.6357 68.4281 45.5175C70.4254 46.3993 72.4227 47.8423 73.4613 50.0868C73.9406 51.129 74.2602 52.4116 74.1803 53.614C74.1004 54.8165 73.7808 56.0189 73.2216 56.9809C72.1031 59.0651 70.1058 60.5081 67.9488 61.1494C65.7917 61.7907 63.4749 61.7105 61.3977 60.989C59.3205 60.2676 57.483 58.8246 56.2048 57.061C54.9265 55.2975 54.2075 53.133 54.1276 50.9686C54.0477 48.8042 54.7667 46.5597 55.9651 44.7961C56.1249 44.5556 56.5243 44.4754 56.8439 44.6357C57.0037 44.6357 57.0836 45.0365 56.9238 45.277Z" fill="url(#paint8_linear)"/>
<path d="M120.688 71.1779C120.608 71.4184 120.608 71.7391 120.528 71.9796C120.289 72.8614 120.049 73.663 119.65 74.3845C117.812 78.4728 114.297 81.5189 110.063 82.7214C109.823 82.8015 109.583 82.8818 109.423 82.8818C107.266 83.443 104.95 83.5229 102.633 83.0419C94.4039 81.3585 89.0513 73.1822 90.8089 64.9253C92.4866 56.6685 100.635 51.2973 108.864 53.0609C111.82 53.7022 114.457 55.1453 116.534 57.2296C120.129 60.8369 121.727 66.1276 120.688 71.1779Z" fill="url(#paint9_linear)"/>
<path d="M119.638 74.3763C117.801 78.4646 114.286 81.5108 110.051 82.7133L102.941 75.5788L102.382 72.2921L107.894 71.6508L108.454 63.2336L119.638 74.3763Z" fill="url(#paint10_linear)"/>
<path d="M99.553 71.7758C99.553 70.894 100.512 71.2948 101.071 69.3709C101.71 67.0462 100.751 64.8016 103.228 62.8777C103.388 62.7174 103.627 62.6372 103.867 62.4769C103.947 62.3967 104.027 62.3166 104.027 62.2364C103.947 61.3546 104.586 60.553 105.465 60.4728C106.344 60.3926 107.143 61.0339 107.223 61.9157C107.223 61.9959 107.223 62.0761 107.223 62.0761C107.223 62.2364 107.302 62.3166 107.382 62.3967C109.14 63.2785 109.859 64.8016 109.939 66.7255C110.258 71.0544 111.217 70.413 111.776 71.1345C112.256 71.856 111.537 72.6576 110.578 72.6576C100.991 72.9783 99.553 73.0584 99.553 71.7758Z" fill="url(#paint11_linear)"/>
<path d="M105.066 75.5435C104.267 75.2228 103.867 74.341 104.187 73.6196C104.187 73.5394 104.267 73.4592 104.426 73.4592C105.305 73.4592 106.104 73.4592 106.983 73.4592C107.063 73.4592 107.223 73.5394 107.223 73.6196C107.462 74.1807 107.223 74.9022 106.823 75.303C106.264 75.6236 105.625 75.784 105.066 75.5435Z" fill="url(#paint12_linear)"/>
<defs>
<linearGradient id="paint0_linear" x1="4.29033" y1="47.1079" x2="13.5829" y2="47.1079" gradientUnits="userSpaceOnUse">
<stop stop-color="#83A6FF"/>
<stop offset="1" stop-color="#5A78FF"/>
</linearGradient>
<linearGradient id="paint1_linear" x1="59.138" y1="5.76303" x2="66.5801" y2="5.76303" gradientUnits="userSpaceOnUse">
<stop stop-color="#FF66A9"/>
<stop offset="1" stop-color="#F53689"/>
</linearGradient>
<linearGradient id="paint2_linear" x1="66.5762" y1="5.71739" x2="69.9159" y2="5.71739" gradientUnits="userSpaceOnUse">
<stop stop-color="#FF66A9"/>
<stop offset="1" stop-color="#F53689"/>
</linearGradient>
<linearGradient id="paint3_linear" x1="65.5376" y1="3.03027" x2="68.8743" y2="3.03027" gradientUnits="userSpaceOnUse">
<stop stop-color="#FF66A9"/>
<stop offset="1" stop-color="#F53689"/>
</linearGradient>
<linearGradient id="paint4_linear" x1="66.5009" y1="0.605714" x2="67.8984" y2="0.605714" gradientUnits="userSpaceOnUse">
<stop stop-color="#FF66A9"/>
<stop offset="1" stop-color="#F53689"/>
</linearGradient>
<linearGradient id="paint5_linear" x1="70.1824" y1="3.74811" x2="71.5467" y2="3.74811" gradientUnits="userSpaceOnUse">
<stop stop-color="#FF66A9"/>
<stop offset="1" stop-color="#F53689"/>
</linearGradient>
<linearGradient id="paint6_linear" x1="61.5629" y1="1.83174" x2="62.6064" y2="1.83174" gradientUnits="userSpaceOnUse">
<stop stop-color="#FF66A9"/>
<stop offset="1" stop-color="#F53689"/>
</linearGradient>
<linearGradient id="paint7_linear" x1="20.9583" y1="48.5145" x2="40.7355" y2="48.5145" gradientUnits="userSpaceOnUse">
<stop stop-color="#2C313D"/>
<stop offset="1" stop-color="#1D1F26"/>
</linearGradient>
<linearGradient id="paint8_linear" x1="62.4225" y1="61.4618" x2="65.4192" y2="44.4414" gradientUnits="userSpaceOnUse">
<stop stop-color="#FF66A9"/>
<stop offset="1" stop-color="#F53689"/>
</linearGradient>
<linearGradient id="paint9_linear" x1="90.431" y1="68.0653" x2="120.992" y2="68.0653" gradientUnits="userSpaceOnUse">
<stop stop-color="#83A6FF"/>
<stop offset="1" stop-color="#5A78FF"/>
</linearGradient>
<linearGradient id="paint10_linear" x1="106.64" y1="70.3295" x2="113.178" y2="76.8456" gradientUnits="userSpaceOnUse">
<stop stop-color="#4F6AFF"/>
<stop offset="1" stop-color="#657EFF" stop-opacity="0"/>
</linearGradient>
<linearGradient id="paint11_linear" x1="110.546" y1="74.0185" x2="101.855" y2="65.357" gradientUnits="userSpaceOnUse">
<stop offset="0.0113208" stop-color="#C2D1FF"/>
<stop offset="1" stop-color="white"/>
</linearGradient>
<linearGradient id="paint12_linear" x1="108.039" y1="76.5342" x2="99.3482" y2="67.8728" gradientUnits="userSpaceOnUse">
<stop offset="0.0113208" stop-color="#C2D1FF"/>
<stop offset="1" stop-color="white"/>
</linearGradient>
</defs>
</svg>
