<svg width="141" height="121" viewBox="0 0 141 121" fill="none" xmlns="http://www.w3.org/2000/svg">
<g filter="url(#filter0_d)">
<path d="M118.49 43.9434C118.49 44.1862 118.49 44.3481 118.49 44.5909C118.49 44.9147 118.49 45.2384 118.409 45.5622C118.409 45.7241 118.409 45.805 118.328 45.9669C118.247 46.2907 118.247 46.6145 118.166 46.9382C118.166 47.1001 118.085 47.1811 118.085 47.3429C117.923 47.9905 117.68 48.719 117.356 49.3665C117.275 49.5284 117.194 49.6093 117.194 49.7712C116.951 50.1759 116.708 50.6616 116.466 51.0663C116.385 51.2281 116.304 51.3091 116.223 51.471C115.332 52.766 114.198 53.8992 112.903 54.7896C112.741 54.8705 112.579 55.0324 112.417 55.1134C112.336 55.1943 112.255 55.1943 112.174 55.2752C112.174 55.2752 112.174 55.2752 112.093 55.2752C111.931 55.3562 111.688 55.5181 111.526 55.599C111.364 55.68 111.283 55.7609 111.121 55.7609C110.959 55.8418 110.879 55.9228 110.717 55.9228C110.474 56.0037 110.231 56.1656 109.907 56.2465C109.745 56.3275 109.502 56.4084 109.34 56.4084C108.935 56.5703 108.53 56.6513 108.045 56.7322C107.802 56.8131 107.478 56.8131 107.235 56.8941C106.911 56.8941 106.668 56.975 106.344 56.975C106.101 56.975 105.858 56.975 105.615 56.975C105.534 56.975 104.806 56.975 100.352 56.975H96.7085C95.5749 56.975 94.2793 56.975 92.9028 56.975H92.0931C90.5546 56.975 88.8542 56.975 86.9919 56.975H62.3765C61.4048 56.975 60.4332 56.975 59.5425 56.8131C59.2996 56.7322 58.9757 56.7322 58.7328 56.6513C51.8502 55.1943 46.9109 49.1237 46.9109 42.0008C46.9109 41.1914 46.9919 40.4629 47.0728 39.6535L47.2348 38.844C48.6923 31.964 54.9271 26.7028 62.5384 27.0265C62.6194 26.7028 62.7813 26.379 62.8623 26.0552C63.1862 25.2458 63.5101 24.4364 63.9149 23.627C64.1579 23.1413 64.4008 22.5747 64.7247 22.0891C68.3684 15.8565 74.2793 12.2951 80.5141 11.3238C80.757 11.3238 81.0809 11.2429 81.3239 11.2429C81.5668 11.2429 81.8097 11.1619 82.0526 11.1619C82.1336 11.1619 82.2145 11.1619 82.2955 11.1619C82.4575 11.1619 82.6194 11.1619 82.7813 11.1619C85.9392 11 89.1781 11.4047 92.1741 12.376C92.336 12.457 92.417 12.457 92.5789 12.5379C97.1133 14.1568 101.081 17.1516 103.834 21.3606C103.996 21.6034 104.158 21.9272 104.32 22.17C105.211 23.7079 105.939 25.4077 106.425 27.1884C106.506 27.3503 106.587 27.5931 106.587 27.755C106.83 28.8072 107.073 29.9404 107.235 31.0736C107.964 31.1546 108.692 31.3164 109.34 31.5593C109.583 31.6402 109.826 31.7212 109.988 31.8021C110.15 31.883 110.312 31.964 110.555 32.0449C111.121 32.2877 111.607 32.5306 112.093 32.8543C112.093 32.8543 112.174 32.8543 112.174 32.9353C112.498 33.0972 112.741 33.34 113.065 33.5019C113.146 33.5828 113.308 33.6638 113.389 33.7447C113.47 33.8256 113.551 33.9066 113.632 33.9875C113.713 34.0685 113.874 34.1494 113.955 34.3113C114.036 34.3922 114.117 34.4732 114.198 34.5541C114.279 34.6351 114.36 34.716 114.441 34.7969C114.522 34.8779 114.603 34.9588 114.603 34.9588C114.684 35.0398 114.846 35.2017 114.927 35.2826C115.17 35.5254 115.332 35.6873 115.494 35.9301C115.575 36.0111 115.656 36.092 115.737 36.2539C116.628 37.549 117.356 38.925 117.761 40.5438C117.761 40.7057 117.842 40.8676 117.842 41.0295C117.923 41.1914 117.923 41.4342 117.923 41.5961C117.923 41.7579 118.004 42.0008 118.004 42.1627C118.49 42.7292 118.49 43.2958 118.49 43.9434Z" fill="#3A4051"/>
</g>
<path d="M118.49 43.9434C118.49 44.1862 118.49 44.3481 118.49 44.5909C118.49 44.9147 118.49 45.2384 118.409 45.5622C118.409 45.7241 118.409 45.805 118.328 45.9669C118.247 46.2907 118.247 46.6144 118.166 46.9382C118.166 47.1001 118.085 47.181 118.085 47.3429C117.923 48.0714 117.68 48.7189 117.356 49.3665C117.275 49.5283 117.194 49.6093 117.194 49.7712C116.951 50.1759 116.708 50.6615 116.465 51.0662C116.384 51.2281 116.303 51.3091 116.223 51.471C115.332 52.766 114.198 53.8992 112.903 54.7086C112.741 54.7896 112.579 54.9515 112.417 55.0324C112.336 55.1133 112.255 55.1133 112.174 55.1943C112.174 55.1943 112.174 55.1943 112.093 55.1943C111.931 55.2752 111.769 55.4371 111.526 55.518C111.364 55.599 111.283 55.6799 111.121 55.6799C110.959 55.7609 110.878 55.8418 110.716 55.8418C110.474 55.9228 110.231 56.0846 109.907 56.1656C109.745 56.2465 109.502 56.3275 109.34 56.3275C108.935 56.4893 108.53 56.5703 108.044 56.6512C107.801 56.7322 107.478 56.7322 107.235 56.7322C106.911 56.7322 106.668 56.8131 106.344 56.8131C106.101 56.8131 105.858 56.8131 105.615 56.8131C103.753 56.8131 101.971 56.4084 100.352 55.6799C100.109 55.599 99.7853 55.4371 99.5423 55.2752C98.5707 54.7896 97.68 54.0611 96.8703 53.3326C94.2792 50.9853 92.7407 47.5857 92.7407 43.8624C92.7407 36.7395 98.5707 30.9117 105.696 30.9117C106.263 30.9117 106.83 30.9927 107.397 30.9927C108.125 31.0736 108.854 31.2355 109.583 31.4783C109.826 31.5592 110.069 31.6402 110.231 31.7211C110.393 31.8021 110.554 31.883 110.797 31.964C111.364 32.2068 111.85 32.4496 112.336 32.7734H112.417C112.741 32.9353 112.984 33.1781 113.308 33.34C113.388 33.4209 113.55 33.5019 113.631 33.5828C113.712 33.6637 113.793 33.7447 113.955 33.8256C114.036 33.9066 114.198 33.9875 114.279 34.1494C114.36 34.2303 114.441 34.3113 114.522 34.3922C114.603 34.4732 114.684 34.5541 114.765 34.635C114.846 34.716 114.927 34.7969 114.927 34.7969C115.008 34.8779 115.17 35.0397 115.251 35.1207C115.494 35.3635 115.656 35.6063 115.818 35.7682C115.899 35.8492 115.98 35.9301 116.061 36.092C116.951 37.3871 117.68 38.7631 118.085 40.3819C118.085 40.5438 118.166 40.7057 118.166 40.7866C118.247 40.9485 118.247 41.1913 118.328 41.3532C118.328 41.5151 118.409 41.7579 118.409 41.9198C118.49 42.7292 118.49 43.2958 118.49 43.9434Z" fill="url(#paint0_linear)"/>
<path d="M84.4818 56.975C97.1821 56.975 107.478 46.6831 107.478 33.9875C107.478 21.2919 97.1821 11 84.4818 11C71.7815 11 61.4858 21.2919 61.4858 33.9875C61.4858 46.6831 71.7815 56.975 84.4818 56.975Z" fill="url(#paint1_linear)"/>
<path d="M69.34 34.9588C69.34 35.2016 69.178 35.3635 68.9351 35.3635H60.514C60.0282 35.3635 59.5424 35.7682 59.5424 36.3348V56.7322C59.2995 56.6512 58.9756 56.6512 58.7327 56.5703V36.3348C58.7327 35.3635 59.5424 34.5541 60.514 34.5541H69.0161C69.178 34.5541 69.34 34.716 69.34 34.9588Z" fill="#697791"/>
<path d="M89.5829 43.4577C88.1254 44.429 86.425 44.9956 84.5626 44.9956C79.5424 44.9956 75.4128 40.8676 75.4128 35.8492C75.4128 30.8308 79.5424 26.7027 84.5626 26.7027C89.5829 26.7027 93.7124 30.8308 93.7124 35.8492C93.7124 39.0059 92.093 41.8389 89.5829 43.4577Z" fill="url(#paint2_linear)"/>
<path d="M83.3483 39.2487C83.0244 39.2487 82.7815 39.1677 82.5385 38.9249L80.1904 36.5776C79.7855 36.1729 79.7855 35.4444 80.1904 35.0397C80.5952 34.635 81.324 34.635 81.7288 35.0397L83.2673 36.5776L87.2349 32.6115C87.6398 32.2067 88.3685 32.2067 88.7734 32.6115C89.1782 33.0162 89.1782 33.7446 88.7734 34.1493L83.996 38.9249C83.9151 39.1677 83.6721 39.2487 83.3483 39.2487Z" fill="white"/>
<path d="M100.838 42.4061C100.676 42.8109 100.271 43.0538 99.7855 43.0538C99.1377 43.0538 98.6519 42.568 98.6519 41.9202C98.6519 41.2725 99.1377 40.7866 99.7855 40.7866C100.433 40.7866 100.919 41.2725 100.919 41.9202C101 42.0012 101 42.2441 100.838 42.4061Z" stroke="#697791" stroke-miterlimit="10"/>
<path d="M92.4171 49.2054C93.0431 49.2054 93.5507 48.6978 93.5507 48.0718C93.5507 47.4457 93.0431 46.9382 92.4171 46.9382C91.791 46.9382 91.2834 47.4457 91.2834 48.0718C91.2834 48.6978 91.791 49.2054 92.4171 49.2054Z" stroke="#697791" stroke-miterlimit="10"/>
<path d="M106.02 42.3253C106.646 42.3253 107.154 41.8178 107.154 41.1917C107.154 40.5656 106.646 40.0581 106.02 40.0581C105.394 40.0581 104.886 40.5656 104.886 41.1917C104.886 41.8178 105.394 42.3253 106.02 42.3253Z" stroke="#697791" stroke-miterlimit="10"/>
<path d="M106.02 36.0119C106.646 36.0119 107.154 35.5044 107.154 34.8783C107.154 34.2522 106.646 33.7447 106.02 33.7447C105.394 33.7447 104.886 34.2522 104.886 34.8783C104.886 35.5044 105.394 36.0119 106.02 36.0119Z" stroke="#697791" stroke-miterlimit="10"/>
<path d="M98.4898 32.0457C99.1159 32.0457 99.6234 31.5382 99.6234 30.9121C99.6234 30.286 99.1159 29.7785 98.4898 29.7785C97.8637 29.7785 97.3562 30.286 97.3562 30.9121C97.3562 31.5382 97.8637 32.0457 98.4898 32.0457Z" stroke="#697791" stroke-miterlimit="10"/>
<path d="M80.919 24.3563C81.5451 24.3563 82.0526 23.8487 82.0526 23.2227C82.0526 22.5966 81.5451 22.0891 80.919 22.0891C80.2929 22.0891 79.7854 22.5966 79.7854 23.2227C79.7854 23.8487 80.2929 24.3563 80.919 24.3563Z" stroke="#697791" stroke-miterlimit="10"/>
<path d="M75.0889 28.7271C75.715 28.7271 76.2225 28.2196 76.2225 27.5935C76.2225 26.9674 75.715 26.4599 75.0889 26.4599C74.4629 26.4599 73.9553 26.9674 73.9553 27.5935C73.9553 28.2196 74.4629 28.7271 75.0889 28.7271Z" stroke="#697791" stroke-miterlimit="10"/>
<path d="M70.1497 36.0119C70.7758 36.0119 71.2833 35.5044 71.2833 34.8783C71.2833 34.2522 70.7758 33.7447 70.1497 33.7447C69.5236 33.7447 69.0161 34.2522 69.0161 34.8783C69.0161 35.5044 69.5236 36.0119 70.1497 36.0119Z" stroke="#697791" stroke-miterlimit="10"/>
<path d="M52.1739 40.3018C52.8 40.3018 53.3075 39.7943 53.3075 39.1682C53.3075 38.5421 52.8 38.0346 52.1739 38.0346C51.5478 38.0346 51.0403 38.5421 51.0403 39.1682C51.0403 39.7943 51.5478 40.3018 52.1739 40.3018Z" stroke="#697791" stroke-miterlimit="10"/>
<path d="M104.32 22.0891H100.028C99.3805 22.0891 98.8947 22.5747 98.8947 23.2222V29.7785C98.8947 30.0214 98.7327 30.1832 98.4898 30.1832C98.2469 30.1832 98.085 30.0214 98.085 29.7785V23.2222C98.085 22.17 98.9757 21.2796 100.028 21.2796H103.834C103.996 21.6034 104.158 21.8462 104.32 22.0891Z" fill="#697791"/>
<path d="M115.17 35.2829H107.154C106.911 35.2829 106.749 35.1209 106.749 34.878C106.749 34.6351 106.911 34.4731 107.154 34.4731H114.36C114.441 34.5541 114.522 34.6351 114.603 34.7161C114.684 34.797 114.765 34.878 114.765 34.878C114.927 35.0399 115.089 35.1209 115.17 35.2829Z" fill="#697791"/>
<path d="M100.271 43.053V56.8941H99.4614V43.053C99.4614 42.8102 99.6234 42.6483 99.8663 42.6483C100.109 42.6483 100.271 42.8102 100.271 43.053Z" fill="#697791"/>
<path d="M112.822 42.4864V54.6277C112.66 54.7086 112.498 54.8705 112.336 54.9515C112.255 55.0324 112.174 55.0324 112.093 55.1133V42.4864C112.093 42.0008 111.688 41.596 111.121 41.596H107.235C106.992 41.596 106.83 41.4342 106.83 41.1913C106.83 40.9485 106.992 40.7866 107.235 40.7866H111.121C112.012 40.7866 112.822 41.5151 112.822 42.4864Z" fill="#697791"/>
<path d="M92.7409 49.2855V56.894H91.9312V49.2855C91.9312 49.0427 92.0931 48.8808 92.336 48.8808C92.5789 48.8808 92.7409 49.0427 92.7409 49.2855Z" fill="#697791"/>
<path d="M81.3239 11.2429V22.0891C81.3239 22.332 81.1619 22.4938 80.919 22.4938C80.6761 22.4938 80.5142 22.332 80.5142 22.0891V11.3239C80.7571 11.2429 81.081 11.2429 81.3239 11.2429Z" fill="#697791"/>
<path d="M74.3602 27.5931C74.3602 27.8359 74.1983 27.9978 73.9554 27.9978H65.9392C64.8865 27.9978 63.9958 27.1074 63.9958 26.0552V23.546C64.2388 22.9794 64.4817 22.4937 64.8056 22.0081V26.0552C64.8056 26.7027 65.2914 27.1884 65.9392 27.1884H73.9554C74.1983 27.1884 74.3602 27.3503 74.3602 27.5931Z" fill="#697791"/>
<path d="M47.3158 38.7631H51.0404C51.2834 38.7631 51.4453 38.925 51.4453 39.1679C51.4453 39.4108 51.2834 39.5728 51.0404 39.5728H47.1538L47.3158 38.7631Z" fill="#697791"/>
<path d="M67.7207 116.71C61.5668 116.872 54.1984 116.71 49.0162 116.629C43.834 116.791 36.4656 116.872 30.3118 116.71C36.3846 113.23 38.4899 106.835 38.8138 102.626H59.1377C59.5425 106.835 61.6478 113.311 67.7207 116.71Z" fill="url(#paint3_linear)"/>
<path d="M30.9595 117.763H67.0728C67.5587 117.763 68.0445 117.358 68.0445 116.791C68.0445 116.306 67.6396 115.82 67.0728 115.82H30.9595C30.4736 115.82 29.9878 116.225 29.9878 116.791C29.9878 117.358 30.3927 117.763 30.9595 117.763Z" fill="#353B4A"/>
<path d="M87.2348 49.0427V101.979C87.2348 103.274 86.1822 104.245 84.9676 104.245H12.9838C11.7692 104.245 10.7166 103.193 10.7166 101.979V49.0427C10.7166 47.8286 11.7692 46.7763 12.9838 46.7763H84.9676C86.2631 46.7763 87.2348 47.7476 87.2348 49.0427Z" fill="#353B4A"/>
<path d="M87.2348 49.0427V94.613H10.7166V49.0427C10.7166 47.8285 11.7692 46.7763 12.9838 46.7763H84.9676C86.2631 46.7763 87.2348 47.7476 87.2348 49.0427Z" fill="#262A31"/>
<path d="M84.4819 49.6093H13.4697V92.0228H84.4819V49.6093Z" fill="#474E61"/>
<path d="M49.0162 101.574C50.0447 101.574 50.8785 100.74 50.8785 99.7123C50.8785 98.6841 50.0447 97.8506 49.0162 97.8506C47.9876 97.8506 47.1538 98.6841 47.1538 99.7123C47.1538 100.74 47.9876 101.574 49.0162 101.574Z" fill="#262A31"/>
<path d="M100.838 74.378V72.7586" stroke="#353E4E" stroke-linecap="round" stroke-linejoin="round"/>
<path d="M100.838 70.7361V67.6603" stroke="#353E4E" stroke-linecap="round" stroke-linejoin="round" stroke-dasharray="2.5 2.5"/>
<path d="M100.838 66.6886V65.0692" stroke="#353E4E" stroke-linecap="round" stroke-linejoin="round"/>
<path d="M100.757 78.4254C101.383 78.4254 101.891 77.9179 101.891 77.2918C101.891 76.6657 101.383 76.1582 100.757 76.1582C100.131 76.1582 99.6235 76.6657 99.6235 77.2918C99.6235 77.9179 100.131 78.4254 100.757 78.4254Z" stroke="#353E4E" stroke-miterlimit="10"/>
<path d="M100.757 63.0464C101.383 63.0464 101.891 62.5389 101.891 61.9128C101.891 61.2868 101.383 60.7792 100.757 60.7792C100.131 60.7792 99.6235 61.2868 99.6235 61.9128C99.6235 62.5389 100.131 63.0464 100.757 63.0464Z" stroke="#353E4E" stroke-miterlimit="10"/>
<path d="M2.2146 71.9498V70.3304" stroke="#353E4E" stroke-linecap="round" stroke-linejoin="round"/>
<path d="M2.2146 67.2551V42.9725C2.2146 39.5729 4.88667 36.9019 8.28748 36.9019H35.0081" stroke="#353E4E" stroke-linecap="round" stroke-linejoin="round" stroke-dasharray="3.83 3.83"/>
<path d="M36.4656 36.9018H38.085" stroke="#353E4E" stroke-linecap="round" stroke-linejoin="round"/>
<path d="M2.1336 75.9972C2.75968 75.9972 3.26721 75.4896 3.26721 74.8636C3.26721 74.2375 2.75968 73.7299 2.1336 73.7299C1.50753 73.7299 1 74.2375 1 74.8636C1 75.4896 1.50753 75.9972 2.1336 75.9972Z" stroke="#353E4E" stroke-miterlimit="10"/>
<path d="M41.0809 37.9545C41.7069 37.9545 42.2145 37.447 42.2145 36.8209C42.2145 36.1948 41.7069 35.6873 41.0809 35.6873C40.4548 35.6873 39.9473 36.1948 39.9473 36.8209C39.9473 37.447 40.4548 37.9545 41.0809 37.9545Z" stroke="#353E4E" stroke-miterlimit="10"/>
<path d="M18.8948 115.172C18.8948 116.467 17.8422 117.52 16.5467 117.52H3.91507C2.61953 117.52 1.56689 116.467 1.56689 115.172V85.4665C1.56689 84.1715 2.61953 83.1192 3.91507 83.1192H16.6276C17.9232 83.1192 18.9758 84.1715 18.9758 85.4665V115.172H18.8948Z" fill="#474E61"/>
<path d="M16.6276 83.1192C17.9232 83.1192 18.9758 84.1715 18.9758 85.4665V115.253C18.9758 116.548 17.9232 117.6 16.6276 117.6H3.91507C2.61953 117.6 1.56689 116.548 1.56689 115.253V85.4665C1.56689 84.1715 2.61953 83.1192 3.91507 83.1192H16.6276Z" fill="#262A31"/>
<path d="M16.6277 84.2528C17.2754 84.2528 17.7613 84.7385 17.7613 85.386V115.173C17.7613 115.82 17.2754 116.306 16.6277 116.306H3.9151C3.26732 116.306 2.78149 115.82 2.78149 115.173V85.4669C2.78149 84.8194 3.26732 84.3337 3.9151 84.3337H5.77745C6.02036 84.3337 6.1823 84.4956 6.1823 84.7385C6.1823 85.2241 6.58716 85.6288 7.07299 85.6288H13.5507C14.0366 85.6288 14.4414 85.2241 14.4414 84.7385C14.4414 84.4956 14.6034 84.3337 14.8463 84.3337H16.6277V84.2528Z" fill="#474E61"/>
<path d="M11.3645 84.6577H9.66406C9.50211 84.6577 9.42114 84.4957 9.42114 84.4148C9.42114 84.2528 9.58309 84.1718 9.66406 84.1718H11.3645C11.5264 84.1718 11.6074 84.3338 11.6074 84.4148C11.6074 84.5767 11.5264 84.6577 11.3645 84.6577Z" fill="#151515"/>
<path d="M8.69254 84.6577H8.61157C8.44962 84.6577 8.36865 84.4957 8.36865 84.4148C8.36865 84.2528 8.5306 84.1718 8.61157 84.1718H8.69254C8.85448 84.1718 8.93545 84.3338 8.93545 84.4148C8.93545 84.5767 8.85448 84.6577 8.69254 84.6577Z" fill="#151515"/>
<path d="M121 116.953V118.491C121 119.867 119.785 121 118.328 121H64.9675C63.51 121 62.2954 119.867 62.2954 118.491V116.953H86.425C86.5869 117.52 87.1537 117.924 87.8825 117.924H95.4128C96.0606 117.924 96.6274 117.52 96.8703 116.953H121Z" fill="#262A31"/>
<path d="M121 116.953C121 118.329 119.785 119.463 118.328 119.463H64.9675C63.51 119.463 62.2954 118.329 62.2954 116.953H86.425C86.5869 117.52 87.1537 117.925 87.8825 117.925H95.4128C96.0606 117.925 96.6274 117.52 96.8703 116.953H121Z" fill="#353B4A"/>
<path d="M118.004 116.953H65.2913V83.6049C65.2913 82.5526 66.1819 81.6623 67.2346 81.6623H116.061C117.113 81.6623 118.004 82.5526 118.004 83.6049V116.953Z" fill="#262A31"/>
<path d="M104.887 117.115H67.8015V84.4952H115.332V117.115H110.312" fill="#474E61"/>
<path d="M101.729 111.126H81.567C81.0811 111.126 80.6763 110.721 80.6763 110.236V109.669C80.6763 109.183 81.0811 108.778 81.567 108.778H101.729C102.215 108.778 102.62 109.183 102.62 109.669V110.236C102.539 110.721 102.215 111.126 101.729 111.126Z" fill="#474E61"/>
<path d="M101.405 108.859C102.053 108.859 102.539 109.344 102.539 109.992C102.539 110.639 102.053 111.125 101.405 111.125H81.8098C81.162 111.125 80.6762 110.639 80.6762 109.992C80.6762 109.344 81.162 108.859 81.8098 108.859H101.405ZM101.405 107.806H81.8098C80.5952 107.806 79.6235 108.778 79.6235 109.992C79.6235 111.206 80.5952 112.177 81.8098 112.177H101.405C102.619 112.177 103.591 111.206 103.591 109.992C103.591 108.778 102.619 107.806 101.405 107.806Z" fill="#5E6481"/>
<path d="M88.5305 110.479H81.8908C81.7288 110.479 81.5669 110.317 81.5669 110.155V109.912C81.5669 109.75 81.7288 109.588 81.8908 109.588H88.5305C88.6924 109.588 88.8543 109.75 88.8543 109.912V110.155C88.8543 110.317 88.7734 110.479 88.5305 110.479Z" fill="url(#paint4_linear)"/>
<path d="M88.3685 91.5372C89.5021 90.8087 90.7977 90.404 92.2551 90.404C96.1418 90.404 99.3807 93.5607 99.3807 97.5269C99.3807 101.493 96.2228 104.65 92.2551 104.65C88.2875 104.65 85.1296 101.493 85.1296 97.5269C85.2106 94.9367 86.4252 92.7513 88.3685 91.5372Z" fill="url(#paint5_linear)"/>
<path d="M92.7408 93.8845L94.8461 95.989C95.089 96.2318 95.089 96.6365 94.8461 96.9603C94.6032 97.2031 94.1983 97.2031 93.8744 96.9603L92.9028 95.989V100.522C92.9028 100.926 92.5789 101.169 92.255 101.169C91.9311 101.169 91.6072 100.845 91.6072 100.522V95.989L90.6356 96.9603C90.3926 97.2031 89.9878 97.2031 89.6639 96.9603C89.502 96.7984 89.502 96.6365 89.502 96.4746C89.502 96.3127 89.5829 96.1509 89.6639 95.989L91.7692 93.8845C91.9311 93.7226 92.093 93.7226 92.255 93.7226C92.4169 93.7226 92.6598 93.8035 92.7408 93.8845Z" fill="white"/>
<path d="M59.7855 82.2301H38.1661C37.6803 82.2301 37.2754 81.8253 37.2754 81.3395V80.6917C37.2754 80.2059 37.6803 79.801 38.1661 79.801H59.7855C60.2713 79.801 60.6762 80.2059 60.6762 80.6917V81.3395C60.7572 81.8253 60.3523 82.2301 59.7855 82.2301Z" fill="#474E61"/>
<path d="M59.5425 79.8006C60.1903 79.8006 60.7571 80.3672 60.7571 81.0148C60.7571 81.6623 60.1903 82.2289 59.5425 82.2289H38.4899C37.8421 82.2289 37.2753 81.6623 37.2753 81.0148C37.2753 80.3672 37.8421 79.8006 38.4899 79.8006H59.5425ZM59.5425 78.7484H38.4899C37.1943 78.7484 36.2227 79.8006 36.2227 81.0148C36.2227 82.3098 37.2753 83.2811 38.4899 83.2811H59.5425C60.8381 83.2811 61.8097 82.2289 61.8097 81.0148C61.8097 79.8006 60.7571 78.7484 59.5425 78.7484Z" fill="#5E6481"/>
<path d="M45.6964 81.5824H38.5709C38.328 81.5824 38.166 81.4204 38.166 81.1775V80.9346C38.166 80.6917 38.328 80.5298 38.5709 80.5298H45.6964C45.9393 80.5298 46.1012 80.6917 46.1012 80.9346V81.1775C46.1012 81.4204 45.9393 81.5824 45.6964 81.5824Z" fill="url(#paint6_linear)"/>
<path d="M45.5343 61.2649C46.7489 60.4555 48.2064 60.0508 49.7449 60.0508C53.9554 60.0508 57.3562 63.4503 57.3562 67.6593C57.3562 71.8683 53.9554 75.2679 49.7449 75.2679C45.5343 75.2679 42.1335 71.8683 42.1335 67.6593C42.0525 64.9073 43.4291 62.56 45.5343 61.2649Z" fill="url(#paint7_linear)"/>
<path d="M50.2308 63.7741L52.498 66.0405C52.7409 66.2833 52.7409 66.7689 52.498 67.0118C52.2551 67.2546 51.7693 67.2546 51.5264 67.0118L50.4737 66.0405V70.897C50.4737 71.3017 50.1498 71.6255 49.745 71.6255C49.3401 71.6255 49.0162 71.3017 49.0162 70.897V66.0405L47.9636 67.0927C47.7207 67.3355 47.2349 67.3355 46.9919 67.0927C46.83 66.9308 46.749 66.7689 46.749 66.6071C46.749 66.4452 46.83 66.2024 46.9919 66.1214L49.2591 63.855C49.4211 63.6932 49.583 63.6122 49.745 63.6122C49.9069 63.6122 50.0689 63.6932 50.2308 63.7741Z" fill="white"/>
<path d="M15.1701 106.026H5.29158C5.04866 106.026 4.88672 105.864 4.88672 105.622V105.379C4.88672 105.136 5.04866 104.974 5.29158 104.974H15.1701C15.413 104.974 15.575 105.136 15.575 105.379V105.622C15.575 105.783 15.413 106.026 15.1701 106.026Z" fill="#474E61"/>
<path d="M15.0082 104.893C15.3321 104.893 15.575 105.136 15.575 105.46C15.575 105.783 15.3321 106.026 15.0082 106.026H5.45351C5.12962 106.026 4.88671 105.783 4.88671 105.46C4.88671 105.136 5.12962 104.893 5.45351 104.893H15.0082ZM15.0082 104.407H5.45351C4.88671 104.407 4.40088 104.893 4.40088 105.46C4.40088 106.026 4.88671 106.512 5.45351 106.512H15.0891C15.6559 106.512 16.1418 106.026 16.1418 105.46C16.0608 104.893 15.6559 104.407 15.0082 104.407Z" fill="#5E6481"/>
<path d="M8.69231 105.702H5.45345C5.37248 105.702 5.2915 105.622 5.2915 105.541V105.46C5.2915 105.379 5.37248 105.298 5.45345 105.298H8.69231C8.77329 105.298 8.85426 105.379 8.85426 105.46V105.541C8.93523 105.622 8.85426 105.702 8.69231 105.702Z" fill="url(#paint8_linear)"/>
<path d="M8.12553 93.7226C8.85427 93.2369 9.74496 92.9941 10.6356 92.9941C13.1458 92.9941 15.251 95.0177 15.251 97.5269C15.251 100.036 13.2267 102.06 10.6356 102.06C8.04456 102.06 6.02026 100.036 6.02026 97.5269C6.10124 95.908 6.91095 94.532 8.12553 93.7226Z" fill="url(#paint9_linear)"/>
<path d="M10.9597 95.2612L12.3362 96.5563C12.4981 96.7182 12.4981 96.961 12.3362 97.1229C12.1742 97.2848 11.9313 97.2848 11.6884 97.1229L11.0406 96.4754V99.3893C11.0406 99.6321 10.8787 99.794 10.6358 99.794C10.3929 99.794 10.2309 99.6321 10.2309 99.3893V96.4754L9.58315 97.1229C9.42121 97.2848 9.1783 97.2848 8.93538 97.1229C8.85441 97.0419 8.77344 96.961 8.77344 96.7991C8.77344 96.7182 8.85441 96.5563 8.93538 96.4754L10.3119 95.1803C10.3929 95.0993 10.4738 95.0184 10.6358 95.0184C10.7977 95.0184 10.8787 95.1803 10.9597 95.2612Z" fill="white"/>
<defs>
<filter id="filter0_d" x="24.9109" y="0.127228" width="115.579" height="89.8478" filterUnits="userSpaceOnUse" color-interpolation-filters="sRGB">
<feFlood flood-opacity="0" result="BackgroundImageFix"/>
<feColorMatrix in="SourceAlpha" type="matrix" values="0 0 0 0 0 0 0 0 0 0 0 0 0 0 0 0 0 0 127 0"/>
<feOffset dy="11"/>
<feGaussianBlur stdDeviation="11"/>
<feColorMatrix type="matrix" values="0 0 0 0 0.397708 0 0 0 0 0.47749 0 0 0 0 0.575 0 0 0 0.18 0"/>
<feBlend mode="normal" in2="BackgroundImageFix" result="effect1_dropShadow"/>
<feBlend mode="normal" in="SourceGraphic" in2="effect1_dropShadow" result="shape"/>
</filter>
<linearGradient id="paint0_linear" x1="91.2355" y1="28.3139" x2="102.723" y2="40.85" gradientUnits="userSpaceOnUse">
<stop stop-color="#8A99C1"/>
<stop offset="0.9942" stop-color="#606A83" stop-opacity="0"/>
</linearGradient>
<linearGradient id="paint1_linear" x1="67.0515" y1="20.5511" x2="74.767" y2="26.5007" gradientUnits="userSpaceOnUse">
<stop stop-color="#50576C"/>
<stop offset="0.9942" stop-color="#43464F" stop-opacity="0"/>
</linearGradient>
<linearGradient id="paint2_linear" x1="75.3979" y1="35.7918" x2="93.7213" y2="35.7918" gradientUnits="userSpaceOnUse">
<stop stop-color="#FF66A9"/>
<stop offset="1" stop-color="#F53689"/>
</linearGradient>
<linearGradient id="paint3_linear" x1="48.9364" y1="116.433" x2="48.9364" y2="103.768" gradientUnits="userSpaceOnUse">
<stop stop-color="#474755"/>
<stop offset="0.9913" stop-color="#2F3338"/>
</linearGradient>
<linearGradient id="paint4_linear" x1="81.5166" y1="109.988" x2="88.8946" y2="109.988" gradientUnits="userSpaceOnUse">
<stop stop-color="#83A6FF"/>
<stop offset="1" stop-color="#5A78FF"/>
</linearGradient>
<linearGradient id="paint5_linear" x1="92.2907" y1="90.6969" x2="92.2907" y2="105.069" gradientUnits="userSpaceOnUse">
<stop stop-color="#83A6FF"/>
<stop offset="1" stop-color="#5A78FF"/>
</linearGradient>
<linearGradient id="paint6_linear" x1="38.1564" y1="81.0624" x2="46.0738" y2="81.0624" gradientUnits="userSpaceOnUse">
<stop stop-color="#83A6FF"/>
<stop offset="1" stop-color="#5A78FF"/>
</linearGradient>
<linearGradient id="paint7_linear" x1="49.7181" y1="60.3604" x2="49.7181" y2="75.7832" gradientUnits="userSpaceOnUse">
<stop stop-color="#83A6FF"/>
<stop offset="1" stop-color="#5A78FF"/>
</linearGradient>
<linearGradient id="paint8_linear" x1="5.28154" y1="105.454" x2="8.9009" y2="105.454" gradientUnits="userSpaceOnUse">
<stop stop-color="#83A6FF"/>
<stop offset="1" stop-color="#5A78FF"/>
</linearGradient>
<linearGradient id="paint9_linear" x1="10.6688" y1="93.1832" x2="10.6688" y2="102.328" gradientUnits="userSpaceOnUse">
<stop stop-color="#83A6FF"/>
<stop offset="1" stop-color="#5A78FF"/>
</linearGradient>
</defs>
</svg>
