<svg width="116" height="145" viewBox="0 0 116 145" fill="none" xmlns="http://www.w3.org/2000/svg">
<path d="M8.87253 20.8451C10.4256 20.3403 11.2754 18.6721 10.7706 17.119C10.2658 15.5659 8.5976 14.7161 7.04452 15.2209C5.49144 15.7257 4.64164 17.394 5.14643 18.947C5.65122 20.5001 7.31945 21.3499 8.87253 20.8451Z" fill="#2A2E38"/>
<path d="M15.3274 11.1972C16.3835 10.8539 16.9614 9.71954 16.6181 8.66344C16.2748 7.60735 15.1404 7.02948 14.0843 7.37274C13.0283 7.716 12.4504 8.8504 12.7936 9.90649C13.1369 10.9626 14.2713 11.5404 15.3274 11.1972Z" fill="#2A2E38"/>
<path d="M107.026 11.9375C107.797 11.2324 107.851 10.0353 107.146 9.26377C106.441 8.49221 105.244 8.43833 104.472 9.14341C103.701 9.84849 103.647 11.0455 104.352 11.8171C105.057 12.5887 106.254 12.6425 107.026 11.9375Z" fill="#2A2E38"/>
<path d="M13.3759 108.683C14.1474 107.978 14.2013 106.781 13.4963 106.009C12.7912 105.238 11.5941 105.184 10.8226 105.889C10.051 106.594 9.99712 107.791 10.7022 108.563C11.4073 109.334 12.6043 109.388 13.3759 108.683Z" fill="#2A2E38"/>
<path d="M113 38.6033V83.1947C113 83.9044 113 84.4957 112.882 85.2054C112.29 90.2914 109.333 94.7861 104.839 97.3882L66.2796 119.625C62.6129 121.754 58.2366 122.345 54.215 121.281C52.6774 120.926 51.2581 120.334 49.957 119.625L11.2796 97.2699C8.32258 95.614 6.07527 93.1302 4.65591 90.1732C3.5914 88.0441 3 85.5603 3 83.0764V38.6033C3 36.2377 3.47312 33.9904 4.41935 31.8613C5.83871 28.7861 8.08602 26.1839 11.1613 24.4097L49.8387 2.17316C53.6237 0.0441277 57.8817 -0.54727 62.0215 0.517246C63.4409 0.872085 64.8602 1.46348 66.2796 2.17316L104.839 24.4097C108.269 26.4205 110.753 29.4957 112.054 33.1624C112.763 34.8183 113 36.7108 113 38.6033Z" fill="#2A2E38"/>
<path d="M58.1182 22.399L67.4623 3.11945" stroke="url(#paint0_linear)" stroke-width="2" stroke-miterlimit="10" stroke-linecap="round" stroke-linejoin="round"/>
<g filter="url(#filter0_d)">
<path d="M93.8388 15.7753V107.087C93.8388 109.689 91.7098 111.818 89.1076 111.818H27.1291C24.527 111.818 22.3979 109.689 22.3979 107.087V15.7753C22.3979 13.1732 24.527 11.0441 27.1291 11.0441H89.1076C91.7098 11.0441 93.8388 13.1732 93.8388 15.7753Z" fill="#474E61"/>
</g>
<path d="M26.7742 53.3882H24.5269V55.6356H26.7742V53.3882Z" fill="#354157"/>
<path d="M26.7742 48.8936H24.5269V51.1409H26.7742V48.8936Z" fill="#354157"/>
<path d="M26.7742 44.399H24.5269V46.6463H26.7742V44.399Z" fill="#354157"/>
<path d="M26.7742 40.0226H24.5269V42.27H26.7742V40.0226Z" fill="url(#paint1_linear)"/>
<path d="M26.7742 31.0334H24.5269V33.2807H26.7742V31.0334Z" fill="#6A7590"/>
<path d="M31.387 57.7646H29.1396V60.0119H31.387V57.7646Z" fill="#354157"/>
<path d="M31.387 53.3882H29.1396V55.6356H31.387V53.3882Z" fill="#354157"/>
<path d="M31.387 40.0226H29.1396V42.27H31.387V40.0226Z" fill="#354157"/>
<path d="M31.387 22.1624H29.1396V24.4097H31.387V22.1624Z" fill="url(#paint2_linear)"/>
<path d="M36 57.7646H33.7527V60.0119H36V57.7646Z" fill="#354157"/>
<path d="M36 48.8936H33.7527V51.1409H36V48.8936Z" fill="#354157"/>
<path d="M36 44.399H33.7527V46.6463H36V44.399Z" fill="#354157"/>
<path d="M36 40.0226H33.7527V42.27H36V40.0226Z" fill="url(#paint3_linear)"/>
<path d="M36 35.528H33.7527V37.7753H36V35.528Z" fill="#6A7590"/>
<path d="M36 31.0334H33.7527V33.2807H36V31.0334Z" fill="#354157"/>
<path d="M36 22.1624H33.7527V24.4097H36V22.1624Z" fill="#354157"/>
<path d="M36 17.6678H33.7527V19.9152H36V17.6678Z" fill="#6A7590"/>
<path d="M40.613 53.3882H38.3657V55.6356H40.613V53.3882Z" fill="#354157"/>
<path d="M40.613 48.8936H38.3657V51.1409H40.613V48.8936Z" fill="#354157"/>
<path d="M40.613 35.528H38.3657V37.7753H40.613V35.528Z" fill="#6A7590"/>
<path d="M40.613 26.657H38.3657V28.9044H40.613V26.657Z" fill="#354157"/>
<path d="M45.2258 57.7646H42.9785V60.0119H45.2258V57.7646Z" fill="#354157"/>
<path d="M45.2258 53.3882H42.9785V55.6356H45.2258V53.3882Z" fill="#354157"/>
<path d="M45.2258 40.0226H42.9785V42.27H45.2258V40.0226Z" fill="#354157"/>
<path d="M45.2258 35.528H42.9785V37.7753H45.2258V35.528Z" fill="url(#paint4_linear)"/>
<path d="M45.2258 31.0334H42.9785V33.2807H45.2258V31.0334Z" fill="#6A7590"/>
<path d="M49.8386 57.7646H47.5913V60.0119H49.8386V57.7646Z" fill="#354157"/>
<path d="M49.8386 53.3882H47.5913V55.6356H49.8386V53.3882Z" fill="#354157"/>
<path d="M49.8386 48.8936H47.5913V51.1409H49.8386V48.8936Z" fill="#354157"/>
<path d="M49.8386 44.399H47.5913V46.6463H49.8386V44.399Z" fill="#354157"/>
<path d="M49.8386 40.0226H47.5913V42.27H49.8386V40.0226Z" fill="#354157"/>
<path d="M49.8386 35.528H47.5913V37.7753H49.8386V35.528Z" fill="#354157"/>
<path d="M49.8386 22.1624H47.5913V24.4097H49.8386V22.1624Z" fill="#354157"/>
<path d="M54.4514 57.7646H52.2041V60.0119H54.4514V57.7646Z" fill="#354157"/>
<path d="M54.4514 53.3882H52.2041V55.6356H54.4514V53.3882Z" fill="#354157"/>
<path d="M54.4514 48.8936H52.2041V51.1409H54.4514V48.8936Z" fill="#354157"/>
<path d="M54.4514 40.0226H52.2041V42.27H54.4514V40.0226Z" fill="#354157"/>
<path d="M54.4514 35.528H52.2041V37.7753H54.4514V35.528Z" fill="#6A7590"/>
<path d="M59.0644 57.7646H56.8171V60.0119H59.0644V57.7646Z" fill="url(#paint5_linear)"/>
<path d="M59.0644 53.3882H56.8171V55.6356H59.0644V53.3882Z" fill="#354157"/>
<path d="M59.0644 48.8936H56.8171V51.1409H59.0644V48.8936Z" fill="#354157"/>
<path d="M59.0644 44.399H56.8171V46.6463H59.0644V44.399Z" fill="#6A7590"/>
<path d="M59.0644 40.0226H56.8171V42.27H59.0644V40.0226Z" fill="#354157"/>
<path d="M59.0644 31.0334H56.8171V33.2807H59.0644V31.0334Z" fill="#354157"/>
<path d="M63.7956 57.7646H61.5483V60.0119H63.7956V57.7646Z" fill="#354157"/>
<path d="M63.7956 53.3882H61.5483V55.6356H63.7956V53.3882Z" fill="#354157"/>
<path d="M63.7956 48.8936H61.5483V51.1409H63.7956V48.8936Z" fill="url(#paint6_linear)"/>
<path d="M63.7956 44.399H61.5483V46.6463H63.7956V44.399Z" fill="#354157"/>
<path d="M63.7956 40.0226H61.5483V42.27H63.7956V40.0226Z" fill="#354157"/>
<path d="M63.7956 35.528H61.5483V37.7753H63.7956V35.528Z" fill="#354157"/>
<path d="M68.4087 57.7646H66.1614V60.0119H68.4087V57.7646Z" fill="#354157"/>
<path d="M68.4087 53.3882H66.1614V55.6356H68.4087V53.3882Z" fill="#354157"/>
<path d="M68.4087 48.8936H66.1614V51.1409H68.4087V48.8936Z" fill="#354157"/>
<path d="M68.4087 40.0226H66.1614V42.27H68.4087V40.0226Z" fill="#6A7590"/>
<path d="M68.4087 31.0334H66.1614V33.2807H68.4087V31.0334Z" fill="#354157"/>
<path d="M68.4087 17.6678H66.1614V19.9152H68.4087V17.6678Z" fill="#6A7590"/>
<path d="M73.0215 53.3882H70.7742V55.6356H73.0215V53.3882Z" fill="#354157"/>
<path d="M73.0215 48.8936H70.7742V51.1409H73.0215V48.8936Z" fill="#6A7590"/>
<path d="M73.0215 44.399H70.7742V46.6463H73.0215V44.399Z" fill="#354157"/>
<path d="M73.0215 26.657H70.7742V28.9044H73.0215V26.657Z" fill="#354157"/>
<path d="M77.6345 57.7646H75.3872V60.0119H77.6345V57.7646Z" fill="#354157"/>
<path d="M77.6345 48.8936H75.3872V51.1409H77.6345V48.8936Z" fill="#354157"/>
<path d="M77.6345 44.399H75.3872V46.6463H77.6345V44.399Z" fill="url(#paint7_linear)"/>
<path d="M77.6345 40.0226H75.3872V42.27H77.6345V40.0226Z" fill="#354157"/>
<path d="M77.6345 35.528H75.3872V37.7753H77.6345V35.528Z" fill="#6A7590"/>
<path d="M77.6345 31.0334H75.3872V33.2807H77.6345V31.0334Z" fill="url(#paint8_linear)"/>
<path d="M82.2471 57.7646H79.9998V60.0119H82.2471V57.7646Z" fill="#354157"/>
<path d="M82.2471 44.399H79.9998V46.6463H82.2471V44.399Z" fill="#6A7590"/>
<path d="M82.2471 35.528H79.9998V37.7753H82.2471V35.528Z" fill="#354157"/>
<path d="M86.8601 57.7646H84.6128V60.0119H86.8601V57.7646Z" fill="#354157"/>
<path d="M86.8601 53.3882H84.6128V55.6356H86.8601V53.3882Z" fill="#354157"/>
<path d="M86.8601 48.8936H84.6128V51.1409H86.8601V48.8936Z" fill="#354157"/>
<path d="M86.8601 44.399H84.6128V46.6463H86.8601V44.399Z" fill="#354157"/>
<path d="M86.8601 40.0226H84.6128V42.27H86.8601V40.0226Z" fill="#6A7590"/>
<path d="M86.8601 26.657H84.6128V28.9044H86.8601V26.657Z" fill="#354157"/>
<path d="M91.4731 57.7646H89.2258V60.0119H91.4731V57.7646Z" fill="#354157"/>
<path d="M91.4731 48.8936H89.2258V51.1409H91.4731V48.8936Z" fill="#354157"/>
<path d="M91.4731 44.399H89.2258V46.6463H91.4731V44.399Z" fill="#6A7590"/>
<path d="M89.3069 73.468L91.5542 73.468L91.5542 71.2206L89.3069 71.2206L89.3069 73.468Z" fill="#354157"/>
<path d="M89.3069 68.9394L91.5542 68.9394L91.5542 66.6921L89.3069 66.6921L89.3069 68.9394Z" fill="#354157"/>
<path d="M89.3069 64.529L91.5542 64.529L91.5542 62.2817L89.3069 62.2817L89.3069 64.529Z" fill="#354157"/>
<path d="M84.6655 77.8784L86.9128 77.8784L86.9128 75.631L84.6655 75.631L84.6655 77.8784Z" fill="#354157"/>
<path d="M84.6655 73.468L86.9128 73.468L86.9128 71.2206L84.6655 71.2206L84.6655 73.468Z" fill="#354157"/>
<path d="M84.6655 64.529L86.9128 64.529L86.9128 62.2817L84.6655 62.2817L84.6655 64.529Z" fill="#354157"/>
<path d="M80.0242 77.8784L82.2715 77.8784L82.2715 75.631L80.0242 75.631L80.0242 77.8784Z" fill="#354157"/>
<path d="M80.0242 73.468L82.2715 73.468L82.2715 71.2206L80.0242 71.2206L80.0242 73.468Z" fill="#354157"/>
<path d="M80.0242 68.9394L82.2715 68.9394L82.2715 66.6921L80.0242 66.6921L80.0242 68.9394Z" fill="#354157"/>
<path d="M80.0242 64.529L82.2715 64.529L82.2715 62.2817L80.0242 62.2817L80.0242 64.529Z" fill="#354157"/>
<path d="M75.3831 77.8784L77.6304 77.8784L77.6304 75.631L75.3831 75.631L75.3831 77.8784Z" fill="#354157"/>
<path d="M75.3831 73.468L77.6304 73.468L77.6304 71.2206L75.3831 71.2206L75.3831 73.468Z" fill="#354157"/>
<path d="M75.3831 68.9394L77.6304 68.9394L77.6304 66.6921L75.3831 66.6921L75.3831 68.9394Z" fill="#354157"/>
<path d="M75.3831 64.529L77.6304 64.529L77.6304 62.2817L75.3831 62.2817L75.3831 64.529Z" fill="#354157"/>
<path d="M70.7417 77.8784L72.989 77.8784L72.989 75.631L70.7417 75.631L70.7417 77.8784Z" fill="#354157"/>
<path d="M70.7417 73.468L72.989 73.468L72.989 71.2206L70.7417 71.2206L70.7417 73.468Z" fill="#354157"/>
<path d="M70.7417 68.9394L72.989 68.9394L72.989 66.6921L70.7417 66.6921L70.7417 68.9394Z" fill="#354157"/>
<path d="M66.1001 77.8784L68.3474 77.8784L68.3474 75.631L66.1001 75.631L66.1001 77.8784Z" fill="#354157"/>
<path d="M66.1001 73.468L68.3474 73.468L68.3474 71.2206L66.1001 71.2206L66.1001 73.468Z" fill="#354157"/>
<path d="M66.1001 68.9394L68.3474 68.9394L68.3474 66.6921L66.1001 66.6921L66.1001 68.9394Z" fill="#354157"/>
<path d="M66.1001 64.529L68.3474 64.529L68.3474 62.2817L66.1001 62.2817L66.1001 64.529Z" fill="#354157"/>
<path d="M61.459 77.8784L63.7063 77.8784L63.7063 75.631L61.459 75.631L61.459 77.8784Z" fill="#354157"/>
<path d="M61.459 73.468L63.7063 73.468L63.7063 71.2206L61.459 71.2206L61.459 73.468Z" fill="#354157"/>
<path d="M61.459 68.9394L63.7063 68.9394L63.7063 66.6921L61.459 66.6921L61.459 68.9394Z" fill="#354157"/>
<path d="M56.8171 77.8721H59.1827V75.6248H56.8171V77.8721Z" fill="url(#paint9_linear)"/>
<path d="M56.9358 73.468L59.1831 73.468L59.1831 71.2206L56.9358 71.2206L56.9358 73.468Z" fill="#354157"/>
<path d="M56.9358 68.9394L59.1831 68.9394L59.1831 66.6921L56.9358 66.6921L56.9358 68.9394Z" fill="#354157"/>
<path d="M56.9358 64.529L59.1831 64.529L59.1831 62.2817L56.9358 62.2817L56.9358 64.529Z" fill="#6A7590"/>
<path d="M52.2947 77.8784L54.542 77.8784L54.542 75.631L52.2947 75.631L52.2947 77.8784Z" fill="#354157"/>
<path d="M52.2947 73.468L54.542 73.468L54.542 71.2206L52.2947 71.2206L52.2947 73.468Z" fill="#354157"/>
<path d="M52.2041 69.0012H54.4514V66.7538H52.2041V69.0012Z" fill="url(#paint10_linear)"/>
<path d="M52.2947 64.529L54.542 64.529L54.542 62.2817L52.2947 62.2817L52.2947 64.529Z" fill="#354157"/>
<path d="M47.6533 77.8784L49.9006 77.8784L49.9006 75.631L47.6533 75.631L47.6533 77.8784Z" fill="#354157"/>
<path d="M47.6533 73.468L49.9006 73.468L49.9006 71.2206L47.6533 71.2206L47.6533 73.468Z" fill="#354157"/>
<path d="M47.6533 68.9394L49.9006 68.9394L49.9006 66.6921L47.6533 66.6921L47.6533 68.9394Z" fill="#354157"/>
<path d="M43.0117 73.468L45.259 73.468L45.259 71.2206L43.0117 71.2206L43.0117 73.468Z" fill="#354157"/>
<path d="M43.0117 68.9394L45.259 68.9394L45.259 66.6921L43.0117 66.6921L43.0117 68.9394Z" fill="#6A7590"/>
<path d="M43.0117 64.529L45.259 64.529L45.259 62.2817L43.0117 62.2817L43.0117 64.529Z" fill="#354157"/>
<path d="M38.3706 77.8784L40.6179 77.8784L40.6179 75.631L38.3706 75.631L38.3706 77.8784Z" fill="#354157"/>
<path d="M38.3706 68.9394L40.6179 68.9394L40.6179 66.6921L38.3706 66.6921L38.3706 68.9394Z" fill="#354157"/>
<path d="M38.3657 64.5065H40.613V62.2592H38.3657V64.5065Z" fill="url(#paint11_linear)"/>
<path d="M33.7295 77.8784L35.9768 77.8784L35.9768 75.631L33.7295 75.631L33.7295 77.8784Z" fill="#354157"/>
<path d="M33.7295 64.529L35.9768 64.529L35.9768 62.2817L33.7295 62.2817L33.7295 64.529Z" fill="#6A7590"/>
<path d="M29.0881 77.8784L31.3354 77.8784L31.3354 75.631L29.0881 75.631L29.0881 77.8784Z" fill="#354157"/>
<path d="M29.0881 73.468L31.3354 73.468L31.3354 71.2206L29.0881 71.2206L29.0881 73.468Z" fill="#354157"/>
<path d="M29.0881 68.9394L31.3354 68.9394L31.3354 66.6921L29.0881 66.6921L29.0881 68.9394Z" fill="#354157"/>
<path d="M24.4468 77.8784L26.6941 77.8784L26.6941 75.631L24.4468 75.631L24.4468 77.8784Z" fill="#354157"/>
<path d="M24.4468 68.9394L26.6941 68.9394L26.6941 66.6921L24.4468 66.6921L24.4468 68.9394Z" fill="#354157"/>
<path d="M24.4468 64.529L26.6941 64.529L26.6941 62.2817L24.4468 62.2817L24.4468 64.529Z" fill="#6A7590"/>
<path d="M58.1184 27.0119C60.862 27.0119 63.0861 24.7878 63.0861 22.0442C63.0861 19.3006 60.862 17.0764 58.1184 17.0764C55.3748 17.0764 53.1506 19.3006 53.1506 22.0442C53.1506 24.7878 55.3748 27.0119 58.1184 27.0119Z" fill="#354157"/>
<path d="M57.8818 22.399L48.656 3.11945" stroke="url(#paint12_linear)" stroke-width="2" stroke-miterlimit="10" stroke-linecap="round" stroke-linejoin="round"/>
<path d="M78.2257 78.227C78.2257 77.9904 78.1074 77.6356 77.9892 77.399C77.8709 76.9259 77.7526 76.5711 77.6343 76.2162C77.5161 75.8614 77.3978 75.6248 77.2795 75.3883C76.0967 72.9044 74.2042 70.5388 71.6021 69.2377C70.301 68.6463 68.8816 68.1732 67.344 68.1732C66.8709 68.1732 66.5161 68.1732 66.1612 68.1732C65.0967 68.1732 64.387 68.0549 64.0322 67.9367C63.4408 67.8184 63.3225 67.5818 63.3225 67.5818V63.2055C64.7419 62.0227 65.9247 60.8399 66.9892 59.4205C67.9354 58.0012 68.7634 56.4635 69.1182 54.8076C70.7741 54.4528 71.9569 52.9151 71.7204 51.141C71.6021 50.313 71.129 49.7216 71.129 48.8936C71.129 48.5388 71.129 48.0657 71.129 47.7108C71.129 47.4743 71.129 47.2377 71.129 46.8829C71.129 46.6463 71.129 46.4098 71.0107 46.0549C70.8924 45.1087 70.6558 44.0442 70.1827 42.8614C70.0644 42.5065 69.8279 42.1517 69.7096 41.7969C67.5806 37.7754 63.3225 35.0549 58.473 35.0549C57.5268 35.0549 56.5806 35.1732 55.6343 35.4098C53.9784 35.7646 52.3225 36.5926 50.9032 37.6571C50.6666 37.8936 50.3118 38.1302 50.0752 38.3668C50.0752 38.3668 49.9569 38.485 49.8386 38.485C48.301 39.9044 47.1182 41.6786 46.5268 43.6893C45.8171 45.7001 45.6988 47.7108 45.9354 49.8399V49.9582V50.0764C45.9354 50.4313 46.0537 50.4313 45.8171 50.6678C45.6988 50.7861 45.6989 50.9044 45.5806 51.0227C45.2257 51.6141 44.9892 52.442 45.344 53.3883C45.9354 55.1625 47.2365 54.9259 48.5376 55.9904C48.4193 55.9904 48.4193 56.1087 48.301 56.1087L46.7634 56.7001C41.5591 58.356 39.3118 62.4958 40.6128 65.6893C40.8494 66.0442 40.9677 66.5173 41.3225 66.8721C42.2687 68.0549 43.8064 69.0012 46.0537 69.4743C45.4623 69.4743 44.8709 69.8291 44.5161 70.184C41.9139 72.1947 40.258 75.3883 39.7849 78.4635C39.6666 79.4098 40.3763 80.2377 41.3225 80.2377H76.5698C77.6343 80.1194 78.4623 79.1732 78.2257 78.227ZM50.7849 60.7216C51.1397 61.1947 51.4945 61.6678 51.9677 62.141C52.3225 62.4958 52.6773 62.7324 53.1505 63.0872C53.387 63.3238 53.7419 63.442 53.9784 63.6786L54.0967 63.7969C54.215 63.7969 54.215 63.9151 54.3333 64.0334V66.6356L54.215 66.5173C53.9784 66.2807 53.7419 66.0442 53.5053 65.9259C53.1505 65.6893 52.6773 65.4528 52.3225 65.2162C52.2042 65.0979 52.0859 65.0979 51.9677 64.9797C50.7849 64.27 49.6021 63.442 49.6021 62.6141C49.6021 62.0227 49.9569 61.4313 50.7849 60.7216Z" fill="#7A83A0"/>
<path d="M68.8817 54.8076C68.5269 56.5818 67.8172 58.1194 66.7527 59.4205C65.6882 60.8398 64.5054 62.0226 63.086 63.2054V65.0979H58.2366V43.0979H69.828C70.3011 44.2807 70.5376 45.2269 70.6559 46.2914C70.6559 46.528 70.6559 46.8828 70.7742 47.1194C70.7742 47.356 70.7742 47.5925 70.7742 47.9474C70.7742 48.3022 70.7742 48.7753 70.7742 49.1302C70.7742 49.9581 71.2473 50.5495 71.3656 51.3775C71.7204 52.9151 70.6559 54.4527 68.8817 54.8076Z" fill="#666F8C"/>
<path d="M78.4622 78.4635C77.3977 79.528 75.7418 79.2915 74.559 80.1194H41.4407C40.6128 80.1194 40.0214 79.528 39.9031 78.8184C39.9031 78.7001 39.9031 78.4635 39.9031 78.3452C40.3762 75.27 42.0321 72.1947 44.6343 70.0657C44.9891 69.7108 45.5805 69.4743 46.1719 69.356C43.9246 68.8829 42.3869 67.9366 41.4407 66.7538C41.0859 66.399 40.9676 66.0442 40.731 65.571H49.1289L49.4837 66.0442C51.3762 68.6463 54.3332 70.184 57.5267 70.184C59.8923 70.184 62.2579 69.356 64.0321 67.8184C64.3869 67.9366 64.8601 67.9366 65.5697 68.0549C65.8063 68.0549 65.9246 68.0549 66.1611 68.0549C66.516 68.0549 66.8708 68.0549 67.3439 68.0549C68.8816 68.0549 70.3009 68.528 71.602 69.1194C74.2042 70.4205 76.2149 72.7861 77.2794 75.27C77.3977 75.5065 77.516 75.8614 77.6343 76.0979C77.7525 76.571 78.3439 78.1087 78.4622 78.4635Z" fill="#6A7590"/>
<path d="M78.4623 78.4635C77.3978 79.528 75.7419 79.2915 74.5591 80.1194H41.7957C41.086 79.7646 40.4946 79.2915 39.7849 78.8184C39.7849 78.7001 39.7849 78.4635 39.7849 78.3452C40.258 75.27 41.9139 72.1947 44.5161 70.0657C44.8709 69.7108 45.4623 69.4743 46.0537 69.356C43.8064 68.8829 42.2688 67.9366 41.3225 66.7538H48.4193C50.4301 69.5926 53.7419 71.3668 57.4086 71.3668C60.6021 71.3668 63.3225 70.0657 65.4516 67.9366C65.6881 67.9366 65.8064 67.9366 66.043 67.9366C66.3978 67.9366 66.7527 67.9366 67.2258 67.9366C68.7634 67.9366 70.1828 68.4098 71.4838 69.0012C74.086 70.3022 76.0967 72.6678 77.1613 75.1517C77.2795 75.3883 77.3978 75.7431 77.5161 75.9797C77.7527 76.5711 78.3441 78.1087 78.4623 78.4635Z" fill="url(#paint13_linear)"/>
<path d="M63.3225 63.2054C63.2042 63.2054 63.2042 63.2054 63.3225 63.2054L63.2042 67.9366L51.3762 68.2915L51.9676 64.9796C52.0859 65.0979 52.2042 65.0979 52.3225 65.2162C52.6773 65.4528 53.1504 65.6893 53.5053 65.9259C53.7418 66.0442 53.9784 66.2807 54.2149 66.5173L54.3332 66.6356V64.0334C54.2149 64.0334 54.2149 63.9151 54.0967 63.9151C56.4622 64.9796 59.301 65.571 63.3225 63.2054Z" fill="url(#paint14_linear)"/>
<path d="M70.8925 47.0011C68.5269 47.8291 66.0431 48.0656 63.5592 47.9474C59.656 47.5925 55.871 46.0549 52.914 43.4527C52.0861 46.2914 49.6022 48.4205 46.8818 49.6033C46.5269 49.7216 46.1721 49.9581 45.8173 50.0764V49.9581C45.5807 47.9474 45.699 45.8183 46.4087 43.8076C47.1183 41.7968 48.1829 40.0226 49.7205 38.6033C49.8388 38.485 49.8388 38.485 49.957 38.485C50.1936 38.2484 50.5484 38.0119 50.785 37.7753C52.2044 36.7108 53.742 36.0011 55.5162 35.6463C56.4624 35.4097 57.4087 35.2914 58.3549 35.2914C63.2044 35.2914 67.4624 38.0119 69.5915 42.0334C70.4194 43.571 70.7743 44.9904 70.8925 46.1732C70.8925 46.528 70.8925 46.7646 70.8925 47.0011Z" fill="#1C3754"/>
<path d="M55.9892 74.5603C54.9247 75.8613 53.0322 75.8613 51.3763 75.8613C53.1505 74.2054 52.0859 68.7646 46.0537 69.356H45.9354C37.6558 67.8183 38.6021 59.1839 46.6451 56.7L47.9462 56.2269C48.0644 56.3452 48.0644 56.3452 48.1827 56.4635C48.7741 58.1194 49.7204 59.5388 50.6666 60.7216C47.3548 63.442 51.9677 64.3882 54.215 66.399C56.2257 67.5818 57.8816 72.313 55.9892 74.5603Z" fill="#1C3754"/>
<path d="M93.8388 78.1086V107.087C93.8388 109.689 91.7098 111.818 89.1076 111.818H27.1291C24.527 111.818 22.3979 109.689 22.3979 107.087V78.1086H93.8388Z" fill="#474E61"/>
<path d="M67.3441 89.2269H48.8925C47.9463 89.2269 47.2366 88.5173 47.2366 87.571C47.2366 86.6248 47.9463 85.9151 48.8925 85.9151H67.3441C68.2903 85.9151 69 86.6248 69 87.571C69 88.5173 68.2903 89.2269 67.3441 89.2269Z" fill="url(#paint15_linear)"/>
<path d="M74.7958 96.5603H41.3227C40.3764 96.5603 39.6667 95.8506 39.6667 94.9044C39.6667 93.9582 40.3764 93.2485 41.3227 93.2485H74.7958C75.742 93.2485 76.4517 93.9582 76.4517 94.9044C76.4517 95.8506 75.742 96.5603 74.7958 96.5603Z" fill="#354157"/>
<path d="M64.6237 104.012H51.4947C50.9033 104.012 50.4302 103.539 50.4302 102.947V101.765C50.4302 101.173 50.9033 100.7 51.4947 100.7H64.6237C65.2151 100.7 65.6882 101.173 65.6882 101.765V102.947C65.6882 103.539 65.2151 104.012 64.6237 104.012Z" fill="#354157"/>
<defs>
<filter id="filter0_d" x="0.397949" y="0.0441284" width="115.441" height="144.774" filterUnits="userSpaceOnUse" color-interpolation-filters="sRGB">
<feFlood flood-opacity="0" result="BackgroundImageFix"/>
<feColorMatrix in="SourceAlpha" type="matrix" values="0 0 0 0 0 0 0 0 0 0 0 0 0 0 0 0 0 0 127 0"/>
<feOffset dy="11"/>
<feGaussianBlur stdDeviation="11"/>
<feColorMatrix type="matrix" values="0 0 0 0 0 0 0 0 0 0 0 0 0 0 0 0 0 0 0.18 0"/>
<feBlend mode="normal" in2="BackgroundImageFix" result="effect1_dropShadow"/>
<feBlend mode="normal" in="SourceGraphic" in2="effect1_dropShadow" result="shape"/>
</filter>
<linearGradient id="paint0_linear" x1="62.7749" y1="23.6129" x2="62.7749" y2="1.92352" gradientUnits="userSpaceOnUse">
<stop offset="0.00289017" stop-color="#83A6FF"/>
<stop offset="1" stop-color="#5A78FF"/>
</linearGradient>
<linearGradient id="paint1_linear" x1="24.4804" y1="41.1226" x2="26.7503" y2="41.1226" gradientUnits="userSpaceOnUse">
<stop stop-color="#FF66A9"/>
<stop offset="1" stop-color="#F53689"/>
</linearGradient>
<linearGradient id="paint2_linear" x1="29.1074" y1="23.3127" x2="31.3773" y2="23.3127" gradientUnits="userSpaceOnUse">
<stop stop-color="#FF66A9"/>
<stop offset="1" stop-color="#F53689"/>
</linearGradient>
<linearGradient id="paint3_linear" x1="33.7347" y1="41.1226" x2="36.0046" y2="41.1226" gradientUnits="userSpaceOnUse">
<stop stop-color="#83A6FF"/>
<stop offset="1" stop-color="#5A78FF"/>
</linearGradient>
<linearGradient id="paint4_linear" x1="42.9889" y1="36.6701" x2="45.2588" y2="36.6701" gradientUnits="userSpaceOnUse">
<stop stop-color="#FF66A9"/>
<stop offset="1" stop-color="#F53689"/>
</linearGradient>
<linearGradient id="paint5_linear" x1="56.8701" y1="58.9326" x2="59.14" y2="58.9326" gradientUnits="userSpaceOnUse">
<stop stop-color="#83A6FF"/>
<stop offset="1" stop-color="#5A78FF"/>
</linearGradient>
<linearGradient id="paint6_linear" x1="61.4972" y1="50.0277" x2="63.7671" y2="50.0277" gradientUnits="userSpaceOnUse">
<stop stop-color="#FF66A9"/>
<stop offset="1" stop-color="#F53689"/>
</linearGradient>
<linearGradient id="paint7_linear" x1="75.3787" y1="45.5752" x2="77.6486" y2="45.5752" gradientUnits="userSpaceOnUse">
<stop stop-color="#FF66A9"/>
<stop offset="1" stop-color="#F53689"/>
</linearGradient>
<linearGradient id="paint8_linear" x1="75.3787" y1="32.2176" x2="77.6486" y2="32.2176" gradientUnits="userSpaceOnUse">
<stop stop-color="#83A6FF"/>
<stop offset="1" stop-color="#5A78FF"/>
</linearGradient>
<linearGradient id="paint9_linear" x1="59.1352" y1="76.7517" x2="56.8653" y2="76.7517" gradientUnits="userSpaceOnUse">
<stop stop-color="#83A6FF"/>
<stop offset="1" stop-color="#5A78FF"/>
</linearGradient>
<linearGradient id="paint10_linear" x1="54.508" y1="67.8466" x2="52.238" y2="67.8466" gradientUnits="userSpaceOnUse">
<stop stop-color="#FF66A9"/>
<stop offset="1" stop-color="#F53689"/>
</linearGradient>
<linearGradient id="paint11_linear" x1="40.6269" y1="63.3941" x2="38.357" y2="63.3941" gradientUnits="userSpaceOnUse">
<stop stop-color="#FF66A9"/>
<stop offset="1" stop-color="#F53689"/>
</linearGradient>
<linearGradient id="paint12_linear" x1="53.2691" y1="23.6129" x2="53.2691" y2="1.92352" gradientUnits="userSpaceOnUse">
<stop offset="0.00289017" stop-color="#83A6FF"/>
<stop offset="1" stop-color="#5A78FF"/>
</linearGradient>
<linearGradient id="paint13_linear" x1="39.807" y1="73.5157" x2="78.4172" y2="73.5157" gradientUnits="userSpaceOnUse">
<stop stop-color="#FF66A9"/>
<stop offset="1" stop-color="#F53689"/>
</linearGradient>
<linearGradient id="paint14_linear" x1="57.3676" y1="68.4814" x2="57.3676" y2="65.5588" gradientUnits="userSpaceOnUse">
<stop stop-color="#7A83A0"/>
<stop offset="0.9913" stop-color="#58617D"/>
</linearGradient>
<linearGradient id="paint15_linear" x1="47.4871" y1="87.5754" x2="69.3724" y2="87.5754" gradientUnits="userSpaceOnUse">
<stop stop-color="#83A6FF"/>
<stop offset="1" stop-color="#5A78FF"/>
</linearGradient>
</defs>
</svg>
