<svg width="170" height="92" viewBox="0 0 170 92" fill="none" xmlns="http://www.w3.org/2000/svg">
<path d="M42.9813 43.2771C42.4467 43.2771 42.126 42.9573 42.126 42.4243C42.126 41.8914 42.4467 41.5716 42.9813 41.5716C43.5159 41.5716 43.8367 41.8914 43.8367 42.4243C43.8367 42.9573 43.409 43.2771 42.9813 43.2771Z" fill="#6A83FF"/>
<path d="M42.9813 61.3981C42.4467 61.3981 42.126 61.0783 42.126 60.5453C42.126 60.0123 42.4467 59.6926 42.9813 59.6926C43.5159 59.6926 43.8367 60.0123 43.8367 60.5453C43.8367 61.0783 43.409 61.3981 42.9813 61.3981Z" fill="#6A83FF"/>
<path d="M12.6165 15.3495H12.4027C11.975 15.3495 11.5474 15.6693 11.5474 16.2023C11.5474 16.7352 11.8681 17.055 12.4027 17.055H12.6165C13.0442 17.055 13.4719 16.7352 13.4719 16.2023C13.4719 15.6693 13.0442 15.3495 12.6165 15.3495Z" fill="url(#paint0_linear)"/>
<path d="M9.19516 15.3495H8.98132C8.55365 15.3495 8.12598 15.6693 8.12598 16.2023C8.12598 16.7352 8.44673 17.055 8.98132 17.055H9.19516C9.62283 17.055 10.0505 16.7352 10.0505 16.2023C10.0505 15.6693 9.62283 15.3495 9.19516 15.3495Z" fill="url(#paint1_linear)"/>
<path d="M16.0377 15.3495H15.8239C15.3962 15.3495 14.9685 15.6693 14.9685 16.0957C14.9685 16.5221 15.2893 16.9484 15.7169 16.9484H15.9308C15.9308 16.9484 15.9308 16.9484 16.0377 16.9484C16.4654 16.9484 16.7861 16.6286 16.7861 16.2023C16.7861 15.7759 16.4654 15.4561 16.0377 15.3495Z" fill="url(#paint2_linear)"/>
<path d="M23.5222 25.7957C23.5222 25.3693 23.2015 24.943 22.6669 24.943C22.1323 24.943 21.8115 25.2627 21.8115 25.7957V26.0089C21.8115 26.4353 22.1323 26.8617 22.6669 26.8617C23.2015 26.8617 23.5222 26.5419 23.5222 26.0089V25.7957Z" fill="url(#paint3_linear)"/>
<path d="M22.132 19.0803L22.0251 18.8671C21.8113 18.5473 21.2767 18.4408 20.9559 18.6539C20.6352 18.8671 20.5283 19.4001 20.7421 19.7199L20.849 19.9331C20.9559 20.1463 21.2767 20.2529 21.4905 20.2529C21.5975 20.2529 21.8113 20.2528 21.9182 20.1463C22.3459 19.9331 22.4528 19.5067 22.132 19.0803Z" fill="url(#paint4_linear)"/>
<path d="M22.6669 28.354C22.2392 28.354 21.8115 28.6738 21.8115 29.2068V29.4199C21.8115 29.8463 22.1323 30.2727 22.6669 30.2727C23.2015 30.2727 23.5222 29.8463 23.5222 29.4199V29.2068C23.5222 28.6738 23.0945 28.354 22.6669 28.354Z" fill="url(#paint5_linear)"/>
<path d="M5.88071 15.3495H5.66687C5.2392 15.3495 4.81152 15.6693 4.81152 16.2023C4.81152 16.7352 5.13228 17.055 5.66687 17.055H5.88071C6.30838 17.055 6.73605 16.7352 6.73605 16.2023C6.73605 15.6693 6.30838 15.3495 5.88071 15.3495Z" fill="url(#paint6_linear)"/>
<path d="M19.5662 16.522L19.3524 16.4154C18.9247 16.2022 18.497 16.3088 18.2832 16.7352C18.0694 17.1616 18.1763 17.588 18.6039 17.8012L18.7109 17.9077C18.8178 18.0143 19.0316 18.0143 19.1385 18.0143C19.4593 18.0143 19.6731 17.9077 19.78 17.588C19.9939 17.2682 19.887 16.7352 19.5662 16.522Z" fill="url(#paint7_linear)"/>
<path d="M24.4844 38.587C24.2705 38.2672 23.7359 38.1606 23.4152 38.3738C23.0944 38.587 22.9875 39.1199 23.2013 39.4397L23.3083 39.6529C23.4152 39.8661 23.7359 39.9727 23.9498 39.9727C24.0567 39.9727 24.2705 39.9727 24.3774 39.8661C24.6982 39.6529 24.8051 39.1199 24.5913 38.8002L24.4844 38.587Z" fill="url(#paint8_linear)"/>
<path d="M26.8367 40.7189L26.7297 40.6123C26.3021 40.3991 25.8744 40.5057 25.6606 40.8254C25.4467 41.2518 25.5536 41.6782 25.8744 41.8914L26.0882 41.998C26.1952 42.1046 26.3021 42.1046 26.5159 42.1046C26.8367 42.1046 27.0505 41.998 27.2643 41.6782C27.3713 41.465 27.1574 40.932 26.8367 40.7189Z" fill="url(#paint9_linear)"/>
<path d="M29.6165 41.5716H29.4027C28.975 41.5716 28.5474 41.8914 28.5474 42.3178C28.5474 42.7441 28.8681 43.1705 29.2958 43.1705H29.5096C29.5096 43.1705 29.5096 43.1705 29.6165 43.1705C30.0442 43.1705 30.365 42.8507 30.365 42.4243C30.4719 41.998 30.1511 41.6782 29.6165 41.5716Z" fill="url(#paint10_linear)"/>
<path d="M22.6666 23.4506C23.2012 23.344 23.5219 23.0242 23.415 22.5979V22.3847C23.3081 21.9583 22.9874 21.6385 22.4528 21.7451C22.0251 21.8517 21.7043 22.1715 21.8112 22.7045V22.9176C21.9182 23.1308 22.2389 23.4506 22.6666 23.4506Z" fill="url(#paint11_linear)"/>
<path d="M23.522 35.9221V35.7089C23.522 35.2825 23.0943 34.9627 22.6666 34.9627C22.239 34.9627 21.9182 35.3891 21.9182 35.8155C21.9182 35.9221 21.9182 36.0287 21.9182 36.0287C22.0251 36.4551 22.3459 36.6682 22.6666 36.6682H22.7736C23.3081 36.7748 23.6289 36.3485 23.522 35.9221Z" fill="url(#paint12_linear)"/>
<path d="M22.6669 33.5771C23.0945 33.5771 23.5222 33.2573 23.5222 32.7243V32.5111C23.5222 32.0848 23.2015 31.6584 22.6669 31.6584C22.1323 31.6584 21.8115 31.9782 21.8115 32.5111V32.7243C21.9184 33.1507 22.2392 33.5771 22.6669 33.5771Z" fill="url(#paint13_linear)"/>
<path d="M2.35217 15.3495C1.9245 15.3495 1.49683 15.6693 1.49683 16.2023C1.49683 16.7353 1.81758 17.0551 2.35217 17.0551H2.45909C2.88676 17.0551 3.20752 16.7353 3.20752 16.2023C3.20752 15.6693 2.77985 15.3495 2.35217 15.3495Z" fill="url(#paint14_linear)"/>
<path d="M42.9813 41.6782H39.6668H39.453H36.2455H36.0316H32.931H32.7172C32.2895 41.6782 31.8618 41.998 31.8618 42.531C31.8618 43.0639 32.1826 43.3837 32.7172 43.3837H32.931H36.0316H36.3524H39.5599H39.7738H43.0882C43.5159 43.3837 43.9436 43.0639 43.9436 42.531C43.9436 41.998 43.409 41.6782 42.9813 41.6782Z" fill="url(#paint15_linear)"/>
<path d="M42.9813 52.0178C42.4467 52.0178 42.126 51.698 42.126 51.1651C42.126 50.6321 42.4467 50.3123 42.9813 50.3123C43.5159 50.3123 43.8367 50.6321 43.8367 51.1651C43.8367 51.698 43.409 52.0178 42.9813 52.0178Z" fill="#EE4192"/>
<path d="M14.9686 50.4189H14.7548C14.3271 50.4189 13.8994 50.7387 13.8994 51.2717C13.8994 51.8046 14.2202 52.1244 14.7548 52.1244H14.9686C15.3963 52.1244 15.8239 51.8046 15.8239 51.2717C15.8239 50.7387 15.3963 50.4189 14.9686 50.4189Z" fill="url(#paint16_linear)"/>
<path d="M18.4969 50.4189H18.2831C17.8554 50.4189 17.4277 50.7387 17.4277 51.2717C17.4277 51.8046 17.7485 52.1244 18.2831 52.1244H18.4969C18.9246 52.1244 19.3523 51.8046 19.3523 51.2717C19.3523 50.7387 18.9246 50.4189 18.4969 50.4189Z" fill="url(#paint17_linear)"/>
<path d="M11.4403 50.4189H11.2264C10.7988 50.4189 10.3711 50.7387 10.3711 51.2717C10.3711 51.8046 10.6918 52.1244 11.2264 52.1244H11.4403C11.8679 52.1244 12.2956 51.8046 12.2956 51.2717C12.2956 50.7387 11.8679 50.4189 11.4403 50.4189Z" fill="url(#paint18_linear)"/>
<path d="M7.91196 50.4189H7.69812C7.27045 50.4189 6.84277 50.7387 6.84277 51.2717C6.84277 51.8046 7.16353 52.1244 7.69812 52.1244H7.91196C8.33963 52.1244 8.7673 51.8046 8.7673 51.2717C8.7673 50.7387 8.33963 50.4189 7.91196 50.4189Z" fill="url(#paint19_linear)"/>
<path d="M4.38364 50.4189H4.1698C3.74213 50.4189 3.31445 50.7387 3.31445 51.2717C3.31445 51.8046 3.63521 52.1244 4.1698 52.1244H4.38364C4.81131 52.1244 5.23898 51.8046 5.23898 51.2717C5.23898 50.7387 4.91823 50.4189 4.38364 50.4189Z" fill="url(#paint20_linear)"/>
<path d="M29.0819 50.4189H28.868C28.4404 50.4189 28.0127 50.7387 28.0127 51.2717C28.0127 51.8046 28.3334 52.1244 28.868 52.1244H29.0819C29.5096 52.1244 29.9372 51.8046 29.9372 51.2717C29.9372 50.7387 29.5096 50.4189 29.0819 50.4189Z" fill="url(#paint21_linear)"/>
<path d="M22.0252 50.4189H21.8114C21.3837 50.4189 20.9561 50.7387 20.9561 51.2717C20.9561 51.8046 21.2768 52.1244 21.8114 52.1244H22.0252C22.4529 52.1244 22.8806 51.8046 22.8806 51.2717C22.8806 50.7387 22.4529 50.4189 22.0252 50.4189Z" fill="url(#paint22_linear)"/>
<path d="M25.5536 50.4189H25.3397C24.912 50.4189 24.4844 50.7387 24.4844 51.2717C24.4844 51.8046 24.8051 52.1244 25.3397 52.1244H25.5536C25.9812 52.1244 26.4089 51.8046 26.4089 51.2717C26.4089 50.7387 25.9812 50.4189 25.5536 50.4189Z" fill="url(#paint23_linear)"/>
<path d="M0.962264 50.4189H0.855346C0.427673 50.4189 0 50.7387 0 51.2717C0 51.8046 0.320755 52.1244 0.855346 52.1244H0.962264C1.38994 52.1244 1.81761 51.8046 1.81761 51.2717C1.81761 50.7387 1.38994 50.4189 0.962264 50.4189Z" fill="url(#paint24_linear)"/>
<path d="M42.9813 50.4189H39.5599H39.346H36.0316H35.8177H32.824H32.7171H32.6102H32.3964C31.9687 50.4189 31.541 50.7387 31.541 51.2717C31.541 51.8046 31.8618 52.1244 32.3964 52.1244H32.6102H32.7171H32.824H35.8177H36.0316H39.346H39.5599H42.9813C43.4089 52.1244 43.8366 51.8046 43.8366 51.2717C43.8366 50.7387 43.4089 50.4189 42.9813 50.4189Z" fill="url(#paint25_linear)"/>
<path d="M18.7109 85.1685L18.6039 85.2751C18.1763 85.4883 18.0694 86.0212 18.2832 86.341C18.3901 86.5542 18.7109 86.7674 19.0316 86.7674C19.1385 86.7674 19.2455 86.7674 19.4593 86.6608L19.6731 86.5542C20.1008 86.341 20.2077 85.8081 19.887 85.4883C19.5662 85.0619 19.0316 84.8487 18.7109 85.1685Z" fill="url(#paint26_linear)"/>
<path d="M15.8241 86.0212H15.6102C15.1826 86.0212 14.8618 86.4476 14.8618 86.874C14.8618 87.3004 15.2895 87.6201 15.6102 87.6201H15.8241C16.2518 87.6201 16.5725 87.1938 16.5725 86.7674C16.6794 86.341 16.2518 86.0212 15.8241 86.0212Z" fill="url(#paint27_linear)"/>
<path d="M22.7735 79.5191C22.3459 79.4125 21.9182 79.7322 21.9182 80.2652V80.4784C21.8113 80.9048 22.132 81.3311 22.5597 81.4377H22.6666C23.0943 81.4377 23.415 81.118 23.415 80.7982V80.585C23.522 80.052 23.2012 79.6256 22.7735 79.5191Z" fill="url(#paint28_linear)"/>
<path d="M12.6165 86.1278H12.4027C11.975 86.1278 11.5474 86.4476 11.5474 86.9806C11.5474 87.5136 11.8681 87.8333 12.4027 87.8333H12.6165C13.0442 87.8333 13.4719 87.5136 13.4719 86.9806C13.4719 86.4476 13.0442 86.1278 12.6165 86.1278Z" fill="url(#paint29_linear)"/>
<path d="M22.6669 76.2146C22.2392 76.2146 21.8115 76.5344 21.8115 77.0674V77.2806C21.8115 77.7069 22.1323 78.1333 22.6669 78.1333C23.2015 78.1333 23.5222 77.8135 23.5222 77.2806V77.0674C23.5222 76.5344 23.0945 76.2146 22.6669 76.2146Z" fill="url(#paint30_linear)"/>
<path d="M5.88071 86.1278H5.66687C5.2392 86.1278 4.81152 86.4476 4.81152 86.9806C4.81152 87.5136 5.13228 87.8333 5.66687 87.8333H5.88071C6.30838 87.8333 6.73605 87.5136 6.73605 86.9806C6.73605 86.4476 6.30838 86.1278 5.88071 86.1278Z" fill="url(#paint31_linear)"/>
<path d="M9.19516 86.1278H8.98132C8.55365 86.1278 8.12598 86.4476 8.12598 86.9806C8.12598 87.5136 8.44673 87.8333 8.98132 87.8333H9.19516C9.62283 87.8333 10.0505 87.5136 10.0505 86.9806C10.0505 86.4476 9.62283 86.1278 9.19516 86.1278Z" fill="url(#paint32_linear)"/>
<path d="M21.9185 82.8234C21.5977 82.6102 21.0631 82.7168 20.8493 83.0366L20.7424 83.2498C20.5285 83.5695 20.6354 84.1025 20.9562 84.3157C21.0631 84.4223 21.2769 84.4223 21.3839 84.4223C21.5977 84.4223 21.9185 84.3157 22.0254 84.1025L22.1323 83.8893C22.453 83.5695 22.3461 83.0366 21.9185 82.8234Z" fill="url(#paint33_linear)"/>
<path d="M25.9814 60.8651L25.7675 60.9717C25.3399 61.1849 25.2329 61.7178 25.5537 62.0376C25.6606 62.2508 25.9814 62.464 26.1952 62.464C26.3021 62.464 26.516 62.464 26.6229 62.3574L26.7298 62.2508C27.1575 62.0376 27.2644 61.5046 27.0505 61.1849C26.8367 60.8651 26.409 60.6519 25.9814 60.8651Z" fill="url(#paint34_linear)"/>
<path d="M29.5096 59.7992H29.2958C28.8681 59.7992 28.5474 60.2255 28.5474 60.6519C28.5474 61.0783 28.975 61.3981 29.2958 61.3981H29.4027H29.6165C30.0442 61.3981 30.365 60.9717 30.365 60.5453C30.365 60.1189 29.9373 59.7992 29.5096 59.7992Z" fill="url(#paint35_linear)"/>
<path d="M23.3085 63.4234L23.2016 63.6366C22.9877 63.9563 23.0947 64.4893 23.4154 64.7025C23.5223 64.8091 23.7362 64.8091 23.8431 64.8091C24.0569 64.8091 24.3777 64.7025 24.4846 64.4893L24.5915 64.3827C24.8054 64.0629 24.6984 63.53 24.3777 63.3168C24.0569 62.8904 23.5223 62.997 23.3085 63.4234Z" fill="url(#paint36_linear)"/>
<path d="M22.6669 72.8036C22.2392 72.8036 21.8115 73.1234 21.8115 73.6563V73.8695C21.8115 74.2959 22.1323 74.7223 22.6669 74.7223C23.2015 74.7223 23.5222 74.4025 23.5222 73.8695V73.6563C23.5222 73.23 23.0945 72.8036 22.6669 72.8036Z" fill="url(#paint37_linear)"/>
<path d="M22.6669 69.4992C22.2392 69.4992 21.8115 69.819 21.8115 70.352V70.5651C21.8115 70.9915 22.1323 71.4179 22.6669 71.4179C23.2015 71.4179 23.5222 71.0981 23.5222 70.5651V70.352C23.5222 69.819 23.0945 69.4992 22.6669 69.4992Z" fill="url(#paint38_linear)"/>
<path d="M22.8807 66.1948C22.453 66.0882 22.0254 66.408 21.9185 66.8343C21.9185 66.9409 21.9185 67.0475 21.9185 67.0475C21.9185 67.4739 22.2392 67.9003 22.6669 67.9003H22.7738C23.2015 67.9003 23.5222 67.5805 23.5222 67.1541V66.9409C23.6291 66.6211 23.3084 66.1948 22.8807 66.1948Z" fill="url(#paint39_linear)"/>
<path d="M2.35242 86.1278C1.92474 86.1278 1.49707 86.4476 1.49707 86.9806C1.49707 87.5136 1.81783 87.8333 2.35242 87.8333H2.45933C2.88701 87.8333 3.20776 87.5136 3.20776 86.9806C3.20776 86.4476 2.78009 86.1278 2.35242 86.1278Z" fill="url(#paint40_linear)"/>
<path d="M42.9813 59.7992H39.6668H39.453H36.2454H36.0316H32.8241H32.7171H32.6102C32.1826 59.7992 31.7549 60.1189 31.7549 60.6519C31.7549 61.1849 32.0756 61.5047 32.6102 61.5047H32.7171H32.8241H36.0316H36.3524H39.5599H39.7738H43.0882C43.5159 61.5047 43.9436 61.1849 43.9436 60.6519C43.9436 60.1189 43.409 59.7992 42.9813 59.7992Z" fill="url(#paint41_linear)"/>
<path d="M127.019 43.2771C126.591 43.2771 126.164 42.9573 126.164 42.4243C126.164 41.8914 126.484 41.5716 126.912 41.5716H127.019C127.447 41.5716 127.874 41.8914 127.874 42.4243C127.874 42.9573 127.447 43.2771 127.019 43.2771Z" fill="#EE4192"/>
<path d="M127.019 61.3981C126.591 61.3981 126.164 61.0783 126.164 60.5453C126.164 60.0123 126.484 59.6926 126.912 59.6926H127.019C127.447 59.6926 127.874 60.0123 127.874 60.5453C127.874 61.0783 127.447 61.3981 127.019 61.3981Z" fill="#6A83FF"/>
<path d="M147.226 25.0496C146.799 25.0496 146.371 25.3693 146.371 25.9023V26.1155C146.371 26.5419 146.692 26.9682 147.226 26.9682C147.761 26.9682 148.082 26.6485 148.082 26.1155V25.9023C148.082 25.3693 147.654 25.0496 147.226 25.0496Z" fill="url(#paint42_linear)"/>
<path d="M147.226 28.354C146.799 28.354 146.371 28.6738 146.371 29.2068V29.4199C146.371 29.8463 146.692 30.2727 147.226 30.2727C147.761 30.2727 148.082 29.9529 148.082 29.4199V29.2068C148.082 28.6738 147.654 28.354 147.226 28.354Z" fill="url(#paint43_linear)"/>
<path d="M147.226 35.0694C146.798 35.0694 146.371 35.3891 146.371 35.8155V36.0287C146.264 36.4551 146.585 36.8815 147.012 36.9881H147.119C147.547 36.9881 147.868 36.6683 147.868 36.3485C147.868 36.2419 147.868 36.1353 147.868 36.1353C148.082 35.4957 147.761 35.0694 147.226 35.0694Z" fill="url(#paint44_linear)"/>
<path d="M146.478 38.3738C146.157 38.1606 145.623 38.2672 145.409 38.587L145.302 38.6936C145.088 39.0134 145.195 39.5463 145.516 39.7595C145.623 39.8661 145.837 39.8661 145.943 39.8661C146.157 39.8661 146.478 39.7595 146.585 39.5463L146.692 39.3331C147.013 39.0134 146.906 38.587 146.478 38.3738Z" fill="url(#paint45_linear)"/>
<path d="M140.383 41.5716H140.17C139.742 41.5716 139.421 41.998 139.421 42.4243C139.421 42.8507 139.849 43.1705 140.17 43.1705C140.17 43.1705 140.17 43.1705 140.276 43.1705H140.49C140.918 43.1705 141.239 42.7441 141.239 42.3178C141.239 41.8914 140.918 41.5716 140.383 41.5716Z" fill="url(#paint46_linear)"/>
<path d="M143.27 40.6123L143.164 40.7189C142.736 40.9321 142.629 41.4651 142.843 41.7848C142.95 41.998 143.27 42.2112 143.591 42.2112C143.698 42.2112 143.912 42.2112 144.019 42.1046L144.233 41.998C144.66 41.7848 144.767 41.2519 144.447 40.9321C144.126 40.5057 143.591 40.3991 143.27 40.6123Z" fill="url(#paint47_linear)"/>
<path d="M137.176 41.6782H136.962H133.862H133.648H130.44H130.226H126.912C126.484 41.6782 126.057 41.998 126.057 42.531C126.057 43.0639 126.377 43.3837 126.912 43.3837H130.226H130.44H133.648H133.862H136.962H137.176C137.604 43.3837 138.031 43.0639 138.031 42.531C138.031 41.998 137.604 41.6782 137.176 41.6782Z" fill="url(#paint48_linear)"/>
<path d="M147.226 31.765C146.799 31.765 146.371 32.0848 146.371 32.6177V32.8309C146.371 33.2573 146.692 33.6837 147.226 33.6837C147.761 33.6837 148.082 33.3639 148.082 32.8309V32.6177C148.082 32.0848 147.654 31.765 147.226 31.765Z" fill="url(#paint49_linear)"/>
<path d="M160.912 15.3495H160.698C160.27 15.3495 159.843 15.6693 159.843 16.2023C159.843 16.7352 160.164 17.055 160.698 17.055H160.912C161.34 17.055 161.767 16.7352 161.767 16.2023C161.767 15.6693 161.34 15.3495 160.912 15.3495Z" fill="url(#paint50_linear)"/>
<path d="M164.333 15.3495H164.12C163.692 15.3495 163.264 15.6693 163.264 16.2023C163.264 16.7352 163.585 17.055 164.12 17.055H164.333C164.761 17.055 165.189 16.7352 165.189 16.2023C165.189 15.6693 164.761 15.3495 164.333 15.3495Z" fill="url(#paint51_linear)"/>
<path d="M157.597 15.3495H157.383C156.956 15.3495 156.528 15.6693 156.528 16.2023C156.528 16.7352 156.849 17.055 157.383 17.055H157.597C158.025 17.055 158.453 16.7352 158.453 16.2023C158.453 15.6693 158.025 15.3495 157.597 15.3495Z" fill="url(#paint52_linear)"/>
<path d="M147.44 21.6386C147.013 21.532 146.585 21.8518 146.478 22.2781V22.4913C146.478 22.9177 146.692 23.3441 147.226 23.3441H147.333C147.761 23.3441 148.082 23.0243 148.082 22.5979V22.3847C148.189 22.1715 147.868 21.7452 147.44 21.6386Z" fill="url(#paint53_linear)"/>
<path d="M147.868 18.8671L147.761 19.0803C147.547 19.4001 147.654 19.9331 147.975 20.1463C148.082 20.2528 148.296 20.2529 148.403 20.2529C148.617 20.2529 148.937 20.1463 149.044 19.9331L149.151 19.7199C149.365 19.4001 149.258 18.8671 148.937 18.6539C148.617 18.4408 148.189 18.5473 147.868 18.8671Z" fill="url(#paint54_linear)"/>
<path d="M150.648 16.4154L150.434 16.522C150.006 16.7352 149.899 17.2682 150.22 17.588C150.327 17.8012 150.648 18.0143 150.862 18.0143C150.969 18.0143 151.182 18.0143 151.289 17.9077L151.396 17.8012C151.824 17.588 151.931 17.055 151.717 16.7352C151.503 16.3088 150.969 16.2022 150.648 16.4154Z" fill="url(#paint55_linear)"/>
<path d="M154.176 15.3495H153.962C153.535 15.3495 153.214 15.7759 153.214 16.2023C153.214 16.6286 153.642 16.9484 153.962 16.9484C153.962 16.9484 153.962 16.9484 154.069 16.9484H154.283C154.711 16.9484 155.031 16.5221 155.031 16.0957C154.925 15.6693 154.604 15.3495 154.176 15.3495Z" fill="url(#paint56_linear)"/>
<path d="M167.648 15.3495C167.113 15.3495 166.792 15.6693 166.792 16.2023C166.792 16.7352 167.22 17.055 167.648 17.055C168.076 17.055 168.503 16.7352 168.503 16.2023C168.503 15.6693 168.076 15.3495 167.648 15.3495Z" fill="url(#paint57_linear)"/>
<path d="M127.019 52.0178C126.591 52.0178 126.164 51.698 126.164 51.1651C126.164 50.6321 126.484 50.3123 126.912 50.3123H127.019C127.447 50.3123 127.874 50.6321 127.874 51.1651C127.874 51.698 127.447 52.0178 127.019 52.0178Z" fill="#6A83FF"/>
<path d="M144.66 50.4189H144.447C144.019 50.4189 143.591 50.7387 143.591 51.2717C143.591 51.8046 143.912 52.1244 144.447 52.1244H144.66C145.088 52.1244 145.516 51.8046 145.516 51.2717C145.516 50.7387 145.088 50.4189 144.66 50.4189Z" fill="url(#paint58_linear)"/>
<path d="M148.189 50.4189H147.975C147.547 50.4189 147.12 50.7387 147.12 51.2717C147.12 51.8046 147.44 52.1244 147.975 52.1244H148.189C148.616 52.1244 149.044 51.8046 149.044 51.2717C149.044 50.7387 148.616 50.4189 148.189 50.4189Z" fill="url(#paint59_linear)"/>
<path d="M141.132 50.4189H140.918C140.491 50.4189 140.063 50.7387 140.063 51.2717C140.063 51.8046 140.384 52.1244 140.918 52.1244H141.132C141.56 52.1244 141.988 51.8046 141.988 51.2717C141.988 50.7387 141.56 50.4189 141.132 50.4189Z" fill="url(#paint60_linear)"/>
<path d="M137.604 50.4189H137.39H137.283H137.176H134.182H133.969H130.654H130.44H127.019C126.591 50.4189 126.164 50.7387 126.164 51.2717C126.164 51.8046 126.484 52.1244 127.019 52.1244H130.44H130.654H133.969H134.182H137.176H137.283H137.39H137.604C138.031 52.1244 138.459 51.8046 138.459 51.2717C138.459 50.7387 138.031 50.4189 137.604 50.4189Z" fill="url(#paint61_linear)"/>
<path d="M151.61 50.4189H151.396C150.969 50.4189 150.541 50.7387 150.541 51.2717C150.541 51.8046 150.862 52.1244 151.396 52.1244H151.61C152.038 52.1244 152.466 51.8046 152.466 51.2717C152.466 50.7387 152.145 50.4189 151.61 50.4189Z" fill="url(#paint62_linear)"/>
<path d="M162.195 50.4189H161.981C161.553 50.4189 161.126 50.7387 161.126 51.2717C161.126 51.8046 161.446 52.1244 161.981 52.1244H162.195C162.623 52.1244 163.05 51.8046 163.05 51.2717C163.05 50.7387 162.623 50.4189 162.195 50.4189Z" fill="url(#paint63_linear)"/>
<path d="M165.723 50.4189H165.509C165.082 50.4189 164.654 50.7387 164.654 51.2717C164.654 51.8046 164.975 52.1244 165.509 52.1244H165.723C166.151 52.1244 166.579 51.8046 166.579 51.2717C166.579 50.7387 166.151 50.4189 165.723 50.4189Z" fill="url(#paint64_linear)"/>
<path d="M158.667 50.4189H158.453C158.025 50.4189 157.598 50.7387 157.598 51.2717C157.598 51.8046 157.918 52.1244 158.453 52.1244H158.667C159.095 52.1244 159.522 51.8046 159.522 51.2717C159.522 50.7387 159.095 50.4189 158.667 50.4189Z" fill="url(#paint65_linear)"/>
<path d="M155.138 50.4189H154.924C154.497 50.4189 154.069 50.7387 154.069 51.2717C154.069 51.8046 154.39 52.1244 154.924 52.1244H155.138C155.566 52.1244 155.993 51.8046 155.993 51.2717C155.993 50.7387 155.566 50.4189 155.138 50.4189Z" fill="url(#paint66_linear)"/>
<path d="M169.145 50.4189C168.61 50.4189 168.289 50.7387 168.289 51.2717C168.289 51.8046 168.717 52.1244 169.145 52.1244C169.572 52.1244 170 51.8046 170 51.2717C170 50.7387 169.572 50.4189 169.145 50.4189Z" fill="url(#paint67_linear)"/>
<path d="M144.126 60.9717L143.912 60.8651C143.485 60.6519 143.057 60.7585 142.843 61.1849C142.629 61.6113 142.736 62.0376 143.164 62.2508L143.271 62.3574C143.378 62.464 143.591 62.464 143.698 62.464C144.019 62.464 144.233 62.3574 144.34 62.0376C144.554 61.7179 144.447 61.2915 144.126 60.9717Z" fill="url(#paint68_linear)"/>
<path d="M146.692 63.6365L146.585 63.4233C146.371 63.1036 145.837 62.997 145.516 63.2102C145.195 63.4233 145.088 63.9563 145.302 64.2761L145.409 64.3827C145.516 64.5959 145.837 64.7025 146.051 64.7025C146.158 64.7025 146.371 64.7025 146.478 64.5959C146.906 64.4893 147.013 63.9563 146.692 63.6365Z" fill="url(#paint69_linear)"/>
<path d="M147.226 67.9003C147.761 67.9003 148.082 67.4739 147.975 67.0475C147.975 66.9409 147.975 66.8343 147.975 66.8343C147.868 66.408 147.44 66.0882 147.013 66.1948C146.585 66.3014 146.264 66.6211 146.371 67.1541V67.3673C146.478 67.6871 146.799 67.9003 147.226 67.9003Z" fill="url(#paint70_linear)"/>
<path d="M137.176 59.7992H137.069H136.962H133.755H133.541H130.333H130.12H126.805C126.377 59.7992 125.95 60.119 125.95 60.6519C125.95 61.1849 126.27 61.5047 126.805 61.5047H130.12H130.333H133.541H133.755H136.962H137.069H137.176C137.604 61.5047 138.031 61.1849 138.031 60.6519C138.031 60.119 137.604 59.7992 137.176 59.7992Z" fill="url(#paint71_linear)"/>
<path d="M147.226 72.8036C146.799 72.8036 146.371 73.1234 146.371 73.6563V73.8695C146.371 74.2959 146.692 74.7223 147.226 74.7223C147.761 74.7223 148.082 74.4025 148.082 73.8695V73.6563C148.082 73.23 147.654 72.8036 147.226 72.8036Z" fill="url(#paint72_linear)"/>
<path d="M148.082 70.2453C148.082 69.819 147.761 69.3926 147.226 69.3926C146.692 69.3926 146.371 69.7124 146.371 70.2453V70.4585C146.371 70.8849 146.692 71.3113 147.226 71.3113C147.761 71.3113 148.082 70.9915 148.082 70.4585V70.2453Z" fill="url(#paint73_linear)"/>
<path d="M147.226 78.0267C147.654 78.0267 148.082 77.7069 148.082 77.1739V76.9607C148.082 76.5344 147.761 76.108 147.226 76.108C146.692 76.108 146.371 76.4278 146.371 76.9607V77.1739C146.478 77.7069 146.799 78.0267 147.226 78.0267Z" fill="url(#paint74_linear)"/>
<path d="M140.597 59.7992H140.383C139.956 59.7992 139.528 60.1189 139.528 60.5453C139.528 60.9717 139.849 61.3981 140.277 61.3981H140.49H140.597C141.025 61.3981 141.346 61.0783 141.346 60.6519C141.346 60.2255 141.025 59.9058 140.597 59.7992Z" fill="url(#paint75_linear)"/>
<path d="M149.151 83.0366C148.937 82.7168 148.403 82.6102 148.082 82.8234C147.761 83.0366 147.654 83.5695 147.868 83.8893L147.975 84.1025C148.082 84.3157 148.403 84.4223 148.617 84.4223C148.723 84.4223 148.937 84.4223 149.044 84.3157C149.365 84.1025 149.472 83.5695 149.258 83.2498L149.151 83.0366Z" fill="url(#paint76_linear)"/>
<path d="M148.082 80.4784V80.2652C148.082 79.8388 147.654 79.519 147.226 79.519C146.799 79.519 146.478 79.9454 146.478 80.3718V80.585C146.585 81.0113 146.906 81.2245 147.226 81.2245H147.333C147.868 81.3311 148.189 80.9047 148.082 80.4784Z" fill="url(#paint77_linear)"/>
<path d="M164.333 86.1278H164.12C163.692 86.1278 163.264 86.4476 163.264 86.9806C163.264 87.5136 163.585 87.8333 164.12 87.8333H164.333C164.761 87.8333 165.189 87.5136 165.189 86.9806C165.189 86.4476 164.761 86.1278 164.333 86.1278Z" fill="url(#paint78_linear)"/>
<path d="M157.598 86.1278H157.384C156.956 86.1278 156.529 86.4476 156.529 86.9806C156.529 87.5136 156.849 87.8333 157.384 87.8333H157.598C158.025 87.8333 158.453 87.5136 158.453 86.9806C158.453 86.4476 158.025 86.1278 157.598 86.1278Z" fill="url(#paint79_linear)"/>
<path d="M160.912 86.1278H160.698C160.27 86.1278 159.843 86.4476 159.843 86.9806C159.843 87.5136 160.164 87.8333 160.698 87.8333H160.912C161.34 87.8333 161.767 87.5136 161.767 86.9806C161.767 86.4476 161.34 86.1278 160.912 86.1278Z" fill="url(#paint80_linear)"/>
<path d="M154.283 86.0212H154.069C153.642 86.0212 153.214 86.341 153.214 86.7674C153.214 87.1938 153.535 87.6201 153.962 87.6201H154.176C154.604 87.6201 154.925 87.3004 154.925 86.874C155.031 86.4476 154.711 86.1278 154.283 86.0212Z" fill="url(#paint81_linear)"/>
<path d="M151.396 85.1685L151.289 85.0619C150.862 84.8487 150.434 84.9553 150.22 85.2751C150.006 85.7014 150.113 86.1278 150.434 86.341L150.648 86.4476C150.755 86.5542 150.862 86.5542 151.075 86.5542C151.396 86.5542 151.61 86.4476 151.824 86.1278C151.931 85.9146 151.824 85.3817 151.396 85.1685Z" fill="url(#paint82_linear)"/>
<path d="M167.648 86.1278C167.113 86.1278 166.792 86.4476 166.792 86.9806C166.792 87.5136 167.22 87.8333 167.648 87.8333C168.076 87.8333 168.503 87.5136 168.503 86.9806C168.503 86.4476 168.076 86.1278 167.648 86.1278Z" fill="url(#paint83_linear)"/>
<g filter="url(#filter0_d)">
<path d="M131.189 51.0585C131.189 60.3321 123.598 67.9003 114.296 67.9003C114.082 67.9003 112.799 67.9003 102.642 67.9003C95.585 67.9003 84.3586 67.9003 66.5032 67.9003H58.0567C46.7233 68.2201 37.8491 59.1596 37.8491 48.3936C37.8491 37.5211 46.8303 28.4606 58.2705 28.887C68.0001 -1.59888 112.692 2.66488 116.541 34.3232C124.774 35.4958 131.189 42.531 131.189 51.0585Z" fill="#5E6882"/>
</g>
<path d="M86.8175 68.1136C103.41 68.1136 116.861 54.7033 116.861 38.1608C116.861 21.6182 103.41 8.20789 86.8175 8.20789C70.2246 8.20789 56.7734 21.6182 56.7734 38.1608C56.7734 54.7033 70.2246 68.1136 86.8175 68.1136Z" fill="url(#paint84_linear)"/>
<path d="M114.295 67.9003C123.625 67.9003 131.189 60.3599 131.189 51.0584C131.189 41.757 123.625 34.2166 114.295 34.2166C104.966 34.2166 97.4023 41.757 97.4023 51.0584C97.4023 60.3599 104.966 67.9003 114.295 67.9003Z" fill="url(#paint85_linear)"/>
<path d="M98.6854 31.765C97.937 31.765 96.3332 31.1254 95.7986 30.9122C92.9118 29.6331 88.1005 25.7957 85.5345 25.7957C82.9684 25.7957 78.1571 29.6331 75.2703 30.9122C74.7357 31.1254 73.132 31.765 72.3835 31.765C71.3144 31.765 70.459 32.7243 70.5659 33.8968C70.8867 36.4551 71.5282 41.0386 73.3458 46.9013C75.5911 54.1497 82.1131 58.52 84.5722 59.9058C85.2137 60.2255 85.9622 60.2255 86.4967 59.9058C88.9559 58.52 95.4779 54.1497 97.7232 46.9013C99.5408 41.0386 100.289 36.4551 100.503 33.8968C100.61 32.7243 99.7546 31.765 98.6854 31.765Z" fill="url(#paint86_linear)"/>
<path d="M97.8302 34.2166C97.6164 36.2419 97.0818 39.4397 95.9057 43.4903C95.7988 43.7035 95.7988 43.9167 95.6919 44.2365C95.5849 44.7694 95.3711 45.409 95.1573 45.942C94.0881 49.4596 91.8428 52.231 89.5975 54.2563C88.1007 55.642 86.4969 56.7079 85.5346 57.3475C85.3208 57.2409 85 57.0277 84.6793 56.8145C82.0063 55.0024 77.5158 51.3782 75.912 46.0486C74.3082 40.8255 73.5598 36.6683 73.3459 34.3232C74.629 34.11 76.1258 33.4705 76.4466 33.3639C77.6227 32.8309 78.9057 31.9782 80.2956 31.1254C81.7925 30.1661 84.6793 28.4606 85.6415 28.4606C86.6038 28.4606 89.4906 30.2727 90.9875 31.1254C92.3774 31.9782 93.6604 32.8309 94.8365 33.3639C95.0503 33.3639 96.5472 34.0034 97.8302 34.2166Z" fill="url(#paint87_linear)"/>
<path opacity="0.4" d="M95.9059 43.4903C95.799 43.7035 95.799 43.9167 95.6921 44.2364C95.5852 44.7694 95.3714 45.409 95.1575 45.9419C94.0883 49.4595 91.8431 52.231 89.5978 54.2563L81.8997 46.5815L82.4342 42.5309L86.9248 40.2925L84.1449 40.5056L83.3965 35.8155L87.3525 34.9628L95.9059 43.4903Z" fill="url(#paint88_linear)"/>
<path d="M88.1009 39.2265V36.7749C88.1009 35.6023 87.1387 34.4298 86.0695 34.2166C85.2141 34.11 84.3588 34.3232 83.8242 34.9628C83.3965 35.3891 83.0758 36.0287 83.0758 36.7749V39.3331C82.4343 39.7595 81.7927 40.399 81.3651 41.0386C80.9374 41.6782 80.7236 42.4243 80.7236 43.2771C80.6167 45.9419 82.755 48.1804 85.428 48.287C88.2078 48.3936 90.4531 46.1551 90.4531 43.4903C90.4531 41.6782 89.4909 40.0793 88.1009 39.2265ZM86.1764 43.9166V45.1958C86.1764 45.409 86.0695 45.5156 85.8556 45.5156H85.3211C85.1072 45.5156 85.0003 45.409 85.0003 45.1958V44.343V43.8101C84.4657 43.7035 84.2519 43.1705 84.3588 42.6375C84.4657 42.2111 84.7865 41.7848 85.3211 41.6782C86.0695 41.465 86.8179 42.1046 86.8179 42.8507C86.711 43.2771 86.4972 43.7035 86.1764 43.9166ZM87.0317 38.8001C86.6041 38.6935 86.0695 38.587 85.5349 38.587C85.1072 38.587 84.5726 38.6935 84.1449 38.8001V36.8815C84.1449 36.4551 84.3588 36.1353 84.5726 35.9221C84.8934 35.6023 85.5349 35.3891 86.1764 35.6023C86.711 35.8155 87.0317 36.3485 87.0317 36.988V38.8001Z" fill="url(#paint89_linear)"/>
<path d="M120.818 2.23847L120.069 8.95389L115.258 9.70004L111.943 4.69013L119.855 0.852753L120.818 2.23847Z" fill="url(#paint90_linear)"/>
<path d="M120.069 8.95388L116.968 4.15716L119.214 0.106594L119.427 0L122.528 4.79672L120.069 8.95388Z" fill="url(#paint91_linear)"/>
<path d="M119.428 0L117.182 3.94397L116.969 4.15716V4.26375L114.189 4.47694H114.082L111.943 4.69013L113.44 2.13188L113.547 1.91869L114.402 0.532969L115.685 0.426375L115.792 0.319782H116.006H116.648L118.038 0.106594H118.358L119.428 0Z" fill="#89A7FF"/>
<g opacity="0.3">
<path opacity="0.3" d="M114.937 1.70617C115.044 1.70617 115.044 1.70617 115.044 1.59958V0.85342C115.044 0.746826 115.044 0.746826 114.937 0.746826C114.83 0.746826 114.83 0.746826 114.83 0.85342V1.59958C114.83 1.70617 114.83 1.70617 114.937 1.70617Z" fill="white"/>
<path opacity="0.3" d="M116.969 0.639583L116.327 1.06596C116.327 1.06596 116.22 1.17255 116.327 1.17255H116.434C116.434 1.17255 116.434 1.17255 116.541 1.17255L117.182 0.639583C117.182 0.639583 117.289 0.53299 117.182 0.53299C117.075 0.639583 117.075 0.53299 116.969 0.639583Z" fill="white"/>
<path opacity="0.3" d="M115.365 2.45169L114.51 2.87807C114.403 2.87807 114.403 2.98466 114.403 2.98466L114.51 3.09125L115.365 2.66488C115.472 2.66488 115.472 2.55828 115.472 2.55828C115.472 2.45169 115.365 2.45169 115.365 2.45169Z" fill="white"/>
<path opacity="0.3" d="M116.648 2.55825C116.648 2.45165 116.541 2.45165 116.541 2.55825C116.434 2.55825 116.434 2.66484 116.541 2.66484L116.755 3.09122L116.862 3.19781C116.862 3.19781 116.862 3.19781 116.969 3.19781C117.076 3.19781 117.076 3.09122 116.969 3.09122L116.648 2.55825Z" fill="white"/>
<path opacity="0.3" d="M113.44 3.41103C113.333 3.41103 113.333 3.51763 113.333 3.51763V4.0506C113.333 4.15719 113.44 4.15719 113.44 4.15719C113.547 4.15719 113.547 4.0506 113.547 4.0506V3.51763C113.547 3.41103 113.44 3.30444 113.44 3.41103Z" fill="white"/>
<path opacity="0.3" d="M118.038 0.639583C118.038 0.53299 117.931 0.53299 117.931 0.53299C117.824 0.53299 117.824 0.639583 117.824 0.639583L117.931 1.38574C117.931 1.49233 118.038 1.49233 118.038 1.49233C118.144 1.49233 118.144 1.38574 118.144 1.38574L118.038 0.639583Z" fill="white"/>
</g>
<path d="M40.7359 21.1056L38.063 16.4155L40.8429 13.644L45.3334 15.4561L41.912 21.532L40.7359 21.1056Z" fill="url(#paint92_linear)"/>
<path d="M38.063 16.4155L42.3397 18.121L42.6605 21.7452L42.5536 21.9584L38.3837 20.2529L38.063 16.4155Z" fill="url(#paint93_linear)"/>
<path d="M42.5537 21.9583L42.2329 18.3341V18.0143L43.9436 16.6286L44.0505 16.522L45.3335 15.4561L45.5474 17.8012V17.9077L45.6543 19.2935L44.9059 19.933L44.7989 20.0396L44.692 20.1462L44.2644 20.466L43.409 21.2122L43.3021 21.3187L42.5537 21.9583Z" fill="#F665AA"/>
<g opacity="0.3">
<path opacity="0.3" d="M44.7988 18.6539V18.7605L45.1196 19.2935H45.2265V19.1869L44.9057 18.6539H44.7988Z" fill="white"/>
<path opacity="0.3" d="M43.9436 20.3594L44.1574 19.7199C44.1574 19.7199 44.1574 19.6133 44.0505 19.6133H43.9436L43.7297 20.2528C43.7297 20.2528 43.7297 20.3594 43.8367 20.3594C43.8367 20.466 43.9436 20.466 43.9436 20.3594Z" fill="white"/>
<path opacity="0.3" d="M44.1572 18.4407L44.478 17.8012V17.6946H44.371L44.0503 18.3341V18.4407C44.0503 18.4407 44.1572 18.4407 44.1572 18.4407Z" fill="white"/>
<path opacity="0.3" d="M43.3019 18.9747H43.4089V18.8678L42.9812 18.6539H42.8743V18.7608L43.3019 18.9747Z" fill="white"/>
<path opacity="0.3" d="M45.0126 16.9497V16.8428L44.7988 16.5221H44.6919V16.629L44.9057 16.9497C44.9057 16.9497 44.9057 16.9497 45.0126 16.9497Z" fill="white"/>
<path opacity="0.3" d="M43.3019 20.7858H43.4089V20.6792L42.9812 20.2528H42.8743V20.3594L43.3019 20.7858Z" fill="white"/>
</g>
<path d="M101.572 80.1586L107.132 78.8795L109.056 82.3971L105.956 86.341L100.824 81.1179L101.572 80.1586Z" fill="url(#paint94_linear)"/>
<path d="M107.132 78.8794L104.138 82.6102L100.396 81.8641L100.289 81.7575L103.176 78.0267L107.132 78.8794Z" fill="url(#paint95_linear)"/>
<path d="M100.182 81.7575L103.924 82.5037H104.245L105.207 84.6355V84.7421L105.956 86.341L103.604 85.9147L103.39 85.8081L102 85.5949L101.572 84.6355L101.465 84.529V84.3158L101.251 83.8894L100.717 82.7169L100.61 82.5037L100.182 81.7575Z" fill="#F665AA"/>
<g opacity="0.3">
<path opacity="0.3" d="M102.856 84.849L102.749 84.7421L102.107 84.956L102 85.0629L102.107 85.1698L102.749 84.956C102.856 84.956 102.856 84.849 102.856 84.849Z" fill="white"/>
<path opacity="0.3" d="M101.359 83.4633L101.893 83.7841H102V83.6772L101.466 83.3564H101.359C101.359 83.4633 101.359 83.4633 101.359 83.4633Z" fill="white"/>
<path opacity="0.3" d="M103.283 84.3157L103.818 84.8487H103.924V84.7421L103.39 84.2091H103.283C103.283 84.2091 103.283 84.2091 103.283 84.3157Z" fill="white"/>
<path opacity="0.3" d="M102.962 83.2507V83.3577H103.069L103.39 83.0369V82.93H103.283L102.962 83.2507Z" fill="white"/>
<path opacity="0.3" d="M104.566 85.5957C104.566 85.5957 104.673 85.7026 104.673 85.5957L104.994 85.4887C104.994 85.4887 105.101 85.3818 104.994 85.3818C104.994 85.3818 104.887 85.2749 104.887 85.3818L104.566 85.4887C104.566 85.4887 104.459 85.4887 104.566 85.5957Z" fill="white"/>
<path opacity="0.3" d="M101.145 82.7168C101.145 82.7168 101.038 82.8234 101.145 82.8234C101.145 82.8234 101.252 82.93 101.252 82.8234L101.786 82.5036C101.786 82.5036 101.893 82.397 101.786 82.397C101.786 82.397 101.679 82.2905 101.679 82.397L101.145 82.7168Z" fill="white"/>
</g>
<defs>
<filter id="filter0_d" x="24.8491" y="6.15952" width="119.34" height="85.749" filterUnits="userSpaceOnUse" color-interpolation-filters="sRGB">
<feFlood flood-opacity="0" result="BackgroundImageFix"/>
<feColorMatrix in="SourceAlpha" type="matrix" values="0 0 0 0 0 0 0 0 0 0 0 0 0 0 0 0 0 0 127 0"/>
<feOffset dy="11"/>
<feGaussianBlur stdDeviation="6.5"/>
<feColorMatrix type="matrix" values="0 0 0 0 0 0 0 0 0 0 0 0 0 0 0 0 0 0 0.22 0"/>
<feBlend mode="normal" in2="BackgroundImageFix" result="effect1_dropShadow"/>
<feBlend mode="normal" in="SourceGraphic" in2="effect1_dropShadow" result="shape"/>
</filter>
<linearGradient id="paint0_linear" x1="-0.327512" y1="16.1326" x2="43.0226" y2="16.1326" gradientUnits="userSpaceOnUse">
<stop stop-color="#83A6FF" stop-opacity="0"/>
<stop offset="1" stop-color="#5A78FF"/>
</linearGradient>
<linearGradient id="paint1_linear" x1="-0.327513" y1="16.1326" x2="43.0226" y2="16.1326" gradientUnits="userSpaceOnUse">
<stop stop-color="#83A6FF" stop-opacity="0"/>
<stop offset="1" stop-color="#5A78FF"/>
</linearGradient>
<linearGradient id="paint2_linear" x1="-0.327749" y1="16.1571" x2="43.0223" y2="16.1571" gradientUnits="userSpaceOnUse">
<stop stop-color="#83A6FF" stop-opacity="0"/>
<stop offset="1" stop-color="#5A78FF"/>
</linearGradient>
<linearGradient id="paint3_linear" x1="-0.327507" y1="25.9084" x2="43.0226" y2="25.9084" gradientUnits="userSpaceOnUse">
<stop stop-color="#83A6FF" stop-opacity="0"/>
<stop offset="1" stop-color="#5A78FF"/>
</linearGradient>
<linearGradient id="paint4_linear" x1="-0.32774" y1="19.4442" x2="43.0224" y2="19.4442" gradientUnits="userSpaceOnUse">
<stop stop-color="#83A6FF" stop-opacity="0"/>
<stop offset="1" stop-color="#5A78FF"/>
</linearGradient>
<linearGradient id="paint5_linear" x1="-0.327507" y1="29.2645" x2="43.0226" y2="29.2645" gradientUnits="userSpaceOnUse">
<stop stop-color="#83A6FF" stop-opacity="0"/>
<stop offset="1" stop-color="#5A78FF"/>
</linearGradient>
<linearGradient id="paint6_linear" x1="-0.327502" y1="16.1326" x2="43.0226" y2="16.1326" gradientUnits="userSpaceOnUse">
<stop stop-color="#83A6FF" stop-opacity="0"/>
<stop offset="1" stop-color="#5A78FF"/>
</linearGradient>
<linearGradient id="paint7_linear" x1="-0.327532" y1="17.1588" x2="43.0226" y2="17.1588" gradientUnits="userSpaceOnUse">
<stop stop-color="#83A6FF" stop-opacity="0"/>
<stop offset="1" stop-color="#5A78FF"/>
</linearGradient>
<linearGradient id="paint8_linear" x1="-0.327614" y1="39.0896" x2="43.0225" y2="39.0896" gradientUnits="userSpaceOnUse">
<stop stop-color="#83A6FF" stop-opacity="0"/>
<stop offset="1" stop-color="#5A78FF"/>
</linearGradient>
<linearGradient id="paint9_linear" x1="-0.327511" y1="41.3853" x2="43.0226" y2="41.3853" gradientUnits="userSpaceOnUse">
<stop stop-color="#83A6FF" stop-opacity="0"/>
<stop offset="1" stop-color="#5A78FF"/>
</linearGradient>
<linearGradient id="paint10_linear" x1="-0.327491" y1="42.3996" x2="43.0226" y2="42.3996" gradientUnits="userSpaceOnUse">
<stop stop-color="#83A6FF" stop-opacity="0"/>
<stop offset="1" stop-color="#5A78FF"/>
</linearGradient>
<linearGradient id="paint11_linear" x1="-0.327778" y1="22.5557" x2="43.0223" y2="22.5557" gradientUnits="userSpaceOnUse">
<stop stop-color="#83A6FF" stop-opacity="0"/>
<stop offset="1" stop-color="#5A78FF"/>
</linearGradient>
<linearGradient id="paint12_linear" x1="-0.327731" y1="35.9743" x2="43.0224" y2="35.9743" gradientUnits="userSpaceOnUse">
<stop stop-color="#83A6FF" stop-opacity="0"/>
<stop offset="1" stop-color="#5A78FF"/>
</linearGradient>
<linearGradient id="paint13_linear" x1="-0.327507" y1="32.621" x2="43.0226" y2="32.621" gradientUnits="userSpaceOnUse">
<stop stop-color="#83A6FF" stop-opacity="0"/>
<stop offset="1" stop-color="#5A78FF"/>
</linearGradient>
<linearGradient id="paint14_linear" x1="-0.327734" y1="16.1326" x2="43.0224" y2="16.1326" gradientUnits="userSpaceOnUse">
<stop stop-color="#83A6FF" stop-opacity="0"/>
<stop offset="1" stop-color="#5A78FF"/>
</linearGradient>
<linearGradient id="paint15_linear" x1="-0.327518" y1="42.4261" x2="43.0226" y2="42.4261" gradientUnits="userSpaceOnUse">
<stop stop-color="#83A6FF" stop-opacity="0"/>
<stop offset="1" stop-color="#5A78FF"/>
</linearGradient>
<linearGradient id="paint16_linear" x1="0.422155" y1="51.269" x2="43.3511" y2="51.269" gradientUnits="userSpaceOnUse">
<stop stop-color="#FF66A9" stop-opacity="0"/>
<stop offset="1" stop-color="#F53689"/>
</linearGradient>
<linearGradient id="paint17_linear" x1="0.422165" y1="51.269" x2="43.3511" y2="51.269" gradientUnits="userSpaceOnUse">
<stop stop-color="#FF66A9" stop-opacity="0"/>
<stop offset="1" stop-color="#F53689"/>
</linearGradient>
<linearGradient id="paint18_linear" x1="0.422137" y1="51.269" x2="43.3511" y2="51.269" gradientUnits="userSpaceOnUse">
<stop stop-color="#FF66A9" stop-opacity="0"/>
<stop offset="1" stop-color="#F53689"/>
</linearGradient>
<linearGradient id="paint19_linear" x1="0.422121" y1="51.269" x2="43.3511" y2="51.269" gradientUnits="userSpaceOnUse">
<stop stop-color="#FF66A9" stop-opacity="0"/>
<stop offset="1" stop-color="#F53689"/>
</linearGradient>
<linearGradient id="paint20_linear" x1="0.422101" y1="51.269" x2="43.3511" y2="51.269" gradientUnits="userSpaceOnUse">
<stop stop-color="#FF66A9" stop-opacity="0"/>
<stop offset="1" stop-color="#F53689"/>
</linearGradient>
<linearGradient id="paint21_linear" x1="0.422243" y1="51.269" x2="43.3512" y2="51.269" gradientUnits="userSpaceOnUse">
<stop stop-color="#FF66A9" stop-opacity="0"/>
<stop offset="1" stop-color="#F53689"/>
</linearGradient>
<linearGradient id="paint22_linear" x1="0.422203" y1="51.269" x2="43.3511" y2="51.269" gradientUnits="userSpaceOnUse">
<stop stop-color="#FF66A9" stop-opacity="0"/>
<stop offset="1" stop-color="#F53689"/>
</linearGradient>
<linearGradient id="paint23_linear" x1="0.422197" y1="51.269" x2="43.3512" y2="51.269" gradientUnits="userSpaceOnUse">
<stop stop-color="#FF66A9" stop-opacity="0"/>
<stop offset="1" stop-color="#F53689"/>
</linearGradient>
<linearGradient id="paint24_linear" x1="0.422113" y1="51.269" x2="43.3511" y2="51.269" gradientUnits="userSpaceOnUse">
<stop stop-color="#FF66A9" stop-opacity="0"/>
<stop offset="1" stop-color="#F53689"/>
</linearGradient>
<linearGradient id="paint25_linear" x1="0.422248" y1="51.269" x2="43.3512" y2="51.269" gradientUnits="userSpaceOnUse">
<stop stop-color="#FF66A9" stop-opacity="0"/>
<stop offset="1" stop-color="#F53689"/>
</linearGradient>
<linearGradient id="paint26_linear" x1="-0.327534" y1="85.8624" x2="43.0226" y2="85.8624" gradientUnits="userSpaceOnUse">
<stop stop-color="#83A6FF" stop-opacity="0"/>
<stop offset="1" stop-color="#5A78FF"/>
</linearGradient>
<linearGradient id="paint27_linear" x1="-0.327527" y1="86.8638" x2="43.0226" y2="86.8638" gradientUnits="userSpaceOnUse">
<stop stop-color="#83A6FF" stop-opacity="0"/>
<stop offset="1" stop-color="#5A78FF"/>
</linearGradient>
<linearGradient id="paint28_linear" x1="-0.327755" y1="80.4651" x2="43.0223" y2="80.4651" gradientUnits="userSpaceOnUse">
<stop stop-color="#83A6FF" stop-opacity="0"/>
<stop offset="1" stop-color="#5A78FF"/>
</linearGradient>
<linearGradient id="paint29_linear" x1="-0.327512" y1="86.8884" x2="43.0226" y2="86.8884" gradientUnits="userSpaceOnUse">
<stop stop-color="#83A6FF" stop-opacity="0"/>
<stop offset="1" stop-color="#5A78FF"/>
</linearGradient>
<linearGradient id="paint30_linear" x1="-0.327507" y1="77.1126" x2="43.0226" y2="77.1126" gradientUnits="userSpaceOnUse">
<stop stop-color="#83A6FF" stop-opacity="0"/>
<stop offset="1" stop-color="#5A78FF"/>
</linearGradient>
<linearGradient id="paint31_linear" x1="-0.327502" y1="86.8884" x2="43.0226" y2="86.8884" gradientUnits="userSpaceOnUse">
<stop stop-color="#83A6FF" stop-opacity="0"/>
<stop offset="1" stop-color="#5A78FF"/>
</linearGradient>
<linearGradient id="paint32_linear" x1="-0.327513" y1="86.8884" x2="43.0226" y2="86.8884" gradientUnits="userSpaceOnUse">
<stop stop-color="#83A6FF" stop-opacity="0"/>
<stop offset="1" stop-color="#5A78FF"/>
</linearGradient>
<linearGradient id="paint33_linear" x1="-0.327496" y1="83.5765" x2="43.0226" y2="83.5765" gradientUnits="userSpaceOnUse">
<stop stop-color="#83A6FF" stop-opacity="0"/>
<stop offset="1" stop-color="#5A78FF"/>
</linearGradient>
<linearGradient id="paint34_linear" x1="-0.327467" y1="61.6351" x2="43.0226" y2="61.6351" gradientUnits="userSpaceOnUse">
<stop stop-color="#83A6FF" stop-opacity="0"/>
<stop offset="1" stop-color="#5A78FF"/>
</linearGradient>
<linearGradient id="paint35_linear" x1="-0.32749" y1="60.622" x2="43.0226" y2="60.622" gradientUnits="userSpaceOnUse">
<stop stop-color="#83A6FF" stop-opacity="0"/>
<stop offset="1" stop-color="#5A78FF"/>
</linearGradient>
<linearGradient id="paint36_linear" x1="-0.32737" y1="63.9313" x2="43.0227" y2="63.9313" gradientUnits="userSpaceOnUse">
<stop stop-color="#83A6FF" stop-opacity="0"/>
<stop offset="1" stop-color="#5A78FF"/>
</linearGradient>
<linearGradient id="paint37_linear" x1="-0.327507" y1="73.7564" x2="43.0226" y2="73.7564" gradientUnits="userSpaceOnUse">
<stop stop-color="#83A6FF" stop-opacity="0"/>
<stop offset="1" stop-color="#5A78FF"/>
</linearGradient>
<linearGradient id="paint38_linear" x1="-0.327507" y1="70.3999" x2="43.0226" y2="70.3999" gradientUnits="userSpaceOnUse">
<stop stop-color="#83A6FF" stop-opacity="0"/>
<stop offset="1" stop-color="#5A78FF"/>
</linearGradient>
<linearGradient id="paint39_linear" x1="-0.327488" y1="67.0468" x2="43.0226" y2="67.0468" gradientUnits="userSpaceOnUse">
<stop stop-color="#83A6FF" stop-opacity="0"/>
<stop offset="1" stop-color="#5A78FF"/>
</linearGradient>
<linearGradient id="paint40_linear" x1="-0.32749" y1="86.8884" x2="43.0226" y2="86.8884" gradientUnits="userSpaceOnUse">
<stop stop-color="#83A6FF" stop-opacity="0"/>
<stop offset="1" stop-color="#5A78FF"/>
</linearGradient>
<linearGradient id="paint41_linear" x1="-0.327532" y1="60.5949" x2="43.0226" y2="60.5949" gradientUnits="userSpaceOnUse">
<stop stop-color="#83A6FF" stop-opacity="0"/>
<stop offset="1" stop-color="#5A78FF"/>
</linearGradient>
<linearGradient id="paint42_linear" x1="170.521" y1="25.9084" x2="132.602" y2="25.9084" gradientUnits="userSpaceOnUse">
<stop stop-color="#FF66A9" stop-opacity="0"/>
<stop offset="1" stop-color="#F53689"/>
</linearGradient>
<linearGradient id="paint43_linear" x1="170.521" y1="29.2651" x2="132.602" y2="29.2651" gradientUnits="userSpaceOnUse">
<stop stop-color="#FF66A9" stop-opacity="0"/>
<stop offset="1" stop-color="#F53689"/>
</linearGradient>
<linearGradient id="paint44_linear" x1="170.52" y1="35.9749" x2="132.602" y2="35.9749" gradientUnits="userSpaceOnUse">
<stop stop-color="#FF66A9" stop-opacity="0"/>
<stop offset="1" stop-color="#F53689"/>
</linearGradient>
<linearGradient id="paint45_linear" x1="170.521" y1="39.0901" x2="132.602" y2="39.0901" gradientUnits="userSpaceOnUse">
<stop stop-color="#FF66A9" stop-opacity="0"/>
<stop offset="1" stop-color="#F53689"/>
</linearGradient>
<linearGradient id="paint46_linear" x1="170.52" y1="42.3996" x2="132.602" y2="42.3996" gradientUnits="userSpaceOnUse">
<stop stop-color="#FF66A9" stop-opacity="0"/>
<stop offset="1" stop-color="#F53689"/>
</linearGradient>
<linearGradient id="paint47_linear" x1="170.52" y1="41.3853" x2="132.602" y2="41.3853" gradientUnits="userSpaceOnUse">
<stop stop-color="#FF66A9" stop-opacity="0"/>
<stop offset="1" stop-color="#F53689"/>
</linearGradient>
<linearGradient id="paint48_linear" x1="170.521" y1="42.4261" x2="132.602" y2="42.4261" gradientUnits="userSpaceOnUse">
<stop stop-color="#FF66A9" stop-opacity="0"/>
<stop offset="1" stop-color="#F53689"/>
</linearGradient>
<linearGradient id="paint49_linear" x1="170.521" y1="32.621" x2="132.602" y2="32.621" gradientUnits="userSpaceOnUse">
<stop stop-color="#FF66A9" stop-opacity="0"/>
<stop offset="1" stop-color="#F53689"/>
</linearGradient>
<linearGradient id="paint50_linear" x1="170.521" y1="16.1326" x2="132.602" y2="16.1326" gradientUnits="userSpaceOnUse">
<stop stop-color="#FF66A9" stop-opacity="0"/>
<stop offset="1" stop-color="#F53689"/>
</linearGradient>
<linearGradient id="paint51_linear" x1="170.52" y1="16.1326" x2="132.602" y2="16.1326" gradientUnits="userSpaceOnUse">
<stop stop-color="#FF66A9" stop-opacity="0"/>
<stop offset="1" stop-color="#F53689"/>
</linearGradient>
<linearGradient id="paint52_linear" x1="170.52" y1="16.1326" x2="132.602" y2="16.1326" gradientUnits="userSpaceOnUse">
<stop stop-color="#FF66A9" stop-opacity="0"/>
<stop offset="1" stop-color="#F53689"/>
</linearGradient>
<linearGradient id="paint53_linear" x1="170.521" y1="22.5558" x2="132.603" y2="22.5558" gradientUnits="userSpaceOnUse">
<stop stop-color="#FF66A9" stop-opacity="0"/>
<stop offset="1" stop-color="#F53689"/>
</linearGradient>
<linearGradient id="paint54_linear" x1="170.521" y1="19.4442" x2="132.603" y2="19.4442" gradientUnits="userSpaceOnUse">
<stop stop-color="#FF66A9" stop-opacity="0"/>
<stop offset="1" stop-color="#F53689"/>
</linearGradient>
<linearGradient id="paint55_linear" x1="170.521" y1="17.1588" x2="132.603" y2="17.1588" gradientUnits="userSpaceOnUse">
<stop stop-color="#FF66A9" stop-opacity="0"/>
<stop offset="1" stop-color="#F53689"/>
</linearGradient>
<linearGradient id="paint56_linear" x1="170.52" y1="16.1565" x2="132.603" y2="16.1565" gradientUnits="userSpaceOnUse">
<stop stop-color="#FF66A9" stop-opacity="0"/>
<stop offset="1" stop-color="#F53689"/>
</linearGradient>
<linearGradient id="paint57_linear" x1="170.521" y1="16.1326" x2="132.602" y2="16.1326" gradientUnits="userSpaceOnUse">
<stop stop-color="#FF66A9" stop-opacity="0"/>
<stop offset="1" stop-color="#F53689"/>
</linearGradient>
<linearGradient id="paint58_linear" x1="169.983" y1="51.269" x2="126.37" y2="51.269" gradientUnits="userSpaceOnUse">
<stop stop-color="#83A6FF" stop-opacity="0"/>
<stop offset="1" stop-color="#5A78FF"/>
</linearGradient>
<linearGradient id="paint59_linear" x1="169.982" y1="51.269" x2="126.37" y2="51.269" gradientUnits="userSpaceOnUse">
<stop stop-color="#83A6FF" stop-opacity="0"/>
<stop offset="1" stop-color="#5A78FF"/>
</linearGradient>
<linearGradient id="paint60_linear" x1="169.983" y1="51.269" x2="126.37" y2="51.269" gradientUnits="userSpaceOnUse">
<stop stop-color="#83A6FF" stop-opacity="0"/>
<stop offset="1" stop-color="#5A78FF"/>
</linearGradient>
<linearGradient id="paint61_linear" x1="169.983" y1="51.269" x2="126.369" y2="51.269" gradientUnits="userSpaceOnUse">
<stop stop-color="#83A6FF" stop-opacity="0"/>
<stop offset="1" stop-color="#5A78FF"/>
</linearGradient>
<linearGradient id="paint62_linear" x1="169.983" y1="51.269" x2="126.37" y2="51.269" gradientUnits="userSpaceOnUse">
<stop stop-color="#83A6FF" stop-opacity="0"/>
<stop offset="1" stop-color="#5A78FF"/>
</linearGradient>
<linearGradient id="paint63_linear" x1="169.982" y1="51.269" x2="126.369" y2="51.269" gradientUnits="userSpaceOnUse">
<stop stop-color="#83A6FF" stop-opacity="0"/>
<stop offset="1" stop-color="#5A78FF"/>
</linearGradient>
<linearGradient id="paint64_linear" x1="169.982" y1="51.269" x2="126.369" y2="51.269" gradientUnits="userSpaceOnUse">
<stop stop-color="#83A6FF" stop-opacity="0"/>
<stop offset="1" stop-color="#5A78FF"/>
</linearGradient>
<linearGradient id="paint65_linear" x1="169.983" y1="51.269" x2="126.37" y2="51.269" gradientUnits="userSpaceOnUse">
<stop stop-color="#83A6FF" stop-opacity="0"/>
<stop offset="1" stop-color="#5A78FF"/>
</linearGradient>
<linearGradient id="paint66_linear" x1="169.982" y1="51.269" x2="126.369" y2="51.269" gradientUnits="userSpaceOnUse">
<stop stop-color="#83A6FF" stop-opacity="0"/>
<stop offset="1" stop-color="#5A78FF"/>
</linearGradient>
<linearGradient id="paint67_linear" x1="169.982" y1="51.269" x2="126.369" y2="51.269" gradientUnits="userSpaceOnUse">
<stop stop-color="#83A6FF" stop-opacity="0"/>
<stop offset="1" stop-color="#5A78FF"/>
</linearGradient>
<linearGradient id="paint68_linear" x1="169.983" y1="61.6351" x2="126.37" y2="61.6351" gradientUnits="userSpaceOnUse">
<stop stop-color="#83A6FF" stop-opacity="0"/>
<stop offset="1" stop-color="#5A78FF"/>
</linearGradient>
<linearGradient id="paint69_linear" x1="169.983" y1="63.9308" x2="126.37" y2="63.9308" gradientUnits="userSpaceOnUse">
<stop stop-color="#83A6FF" stop-opacity="0"/>
<stop offset="1" stop-color="#5A78FF"/>
</linearGradient>
<linearGradient id="paint70_linear" x1="169.982" y1="67.0464" x2="126.369" y2="67.0464" gradientUnits="userSpaceOnUse">
<stop stop-color="#83A6FF" stop-opacity="0"/>
<stop offset="1" stop-color="#5A78FF"/>
</linearGradient>
<linearGradient id="paint71_linear" x1="169.983" y1="60.5949" x2="126.369" y2="60.5949" gradientUnits="userSpaceOnUse">
<stop stop-color="#83A6FF" stop-opacity="0"/>
<stop offset="1" stop-color="#5A78FF"/>
</linearGradient>
<linearGradient id="paint72_linear" x1="169.983" y1="73.7559" x2="126.369" y2="73.7559" gradientUnits="userSpaceOnUse">
<stop stop-color="#83A6FF" stop-opacity="0"/>
<stop offset="1" stop-color="#5A78FF"/>
</linearGradient>
<linearGradient id="paint73_linear" x1="169.983" y1="70.3999" x2="126.369" y2="70.3999" gradientUnits="userSpaceOnUse">
<stop stop-color="#83A6FF" stop-opacity="0"/>
<stop offset="1" stop-color="#5A78FF"/>
</linearGradient>
<linearGradient id="paint74_linear" x1="169.983" y1="77.1125" x2="126.369" y2="77.1125" gradientUnits="userSpaceOnUse">
<stop stop-color="#83A6FF" stop-opacity="0"/>
<stop offset="1" stop-color="#5A78FF"/>
</linearGradient>
<linearGradient id="paint75_linear" x1="169.982" y1="60.6219" x2="126.369" y2="60.6219" gradientUnits="userSpaceOnUse">
<stop stop-color="#83A6FF" stop-opacity="0"/>
<stop offset="1" stop-color="#5A78FF"/>
</linearGradient>
<linearGradient id="paint76_linear" x1="169.983" y1="83.5765" x2="126.37" y2="83.5765" gradientUnits="userSpaceOnUse">
<stop stop-color="#83A6FF" stop-opacity="0"/>
<stop offset="1" stop-color="#5A78FF"/>
</linearGradient>
<linearGradient id="paint77_linear" x1="169.983" y1="80.465" x2="126.369" y2="80.465" gradientUnits="userSpaceOnUse">
<stop stop-color="#83A6FF" stop-opacity="0"/>
<stop offset="1" stop-color="#5A78FF"/>
</linearGradient>
<linearGradient id="paint78_linear" x1="169.982" y1="86.8884" x2="126.369" y2="86.8884" gradientUnits="userSpaceOnUse">
<stop stop-color="#83A6FF" stop-opacity="0"/>
<stop offset="1" stop-color="#5A78FF"/>
</linearGradient>
<linearGradient id="paint79_linear" x1="169.983" y1="86.8884" x2="126.37" y2="86.8884" gradientUnits="userSpaceOnUse">
<stop stop-color="#83A6FF" stop-opacity="0"/>
<stop offset="1" stop-color="#5A78FF"/>
</linearGradient>
<linearGradient id="paint80_linear" x1="169.982" y1="86.8884" x2="126.369" y2="86.8884" gradientUnits="userSpaceOnUse">
<stop stop-color="#83A6FF" stop-opacity="0"/>
<stop offset="1" stop-color="#5A78FF"/>
</linearGradient>
<linearGradient id="paint81_linear" x1="169.982" y1="86.8638" x2="126.37" y2="86.8638" gradientUnits="userSpaceOnUse">
<stop stop-color="#83A6FF" stop-opacity="0"/>
<stop offset="1" stop-color="#5A78FF"/>
</linearGradient>
<linearGradient id="paint82_linear" x1="169.982" y1="85.8624" x2="126.369" y2="85.8624" gradientUnits="userSpaceOnUse">
<stop stop-color="#83A6FF" stop-opacity="0"/>
<stop offset="1" stop-color="#5A78FF"/>
</linearGradient>
<linearGradient id="paint83_linear" x1="169.983" y1="86.8884" x2="126.369" y2="86.8884" gradientUnits="userSpaceOnUse">
<stop stop-color="#83A6FF" stop-opacity="0"/>
<stop offset="1" stop-color="#5A78FF"/>
</linearGradient>
<linearGradient id="paint84_linear" x1="64.0957" y1="20.6506" x2="74.1539" y2="28.4275" gradientUnits="userSpaceOnUse">
<stop stop-color="#80889D"/>
<stop offset="0.9942" stop-color="#5E6882"/>
</linearGradient>
<linearGradient id="paint85_linear" x1="101.519" y1="41.2129" x2="107.175" y2="45.5856" gradientUnits="userSpaceOnUse">
<stop stop-color="#80889D"/>
<stop offset="0.9942" stop-color="#5E6882"/>
</linearGradient>
<linearGradient id="paint86_linear" x1="83.8143" y1="36.3484" x2="93.515" y2="49.9997" gradientUnits="userSpaceOnUse">
<stop stop-color="#83A6FF"/>
<stop offset="1" stop-color="#5A78FF"/>
</linearGradient>
<linearGradient id="paint87_linear" x1="94.4098" y1="50.6267" x2="79.7936" y2="31.9572" gradientUnits="userSpaceOnUse">
<stop stop-color="#83A6FF"/>
<stop offset="1" stop-color="#5A78FF"/>
</linearGradient>
<linearGradient id="paint88_linear" x1="87.7669" y1="43.8954" x2="93.1348" y2="49.2796" gradientUnits="userSpaceOnUse">
<stop stop-color="#4F6AFF"/>
<stop offset="1" stop-color="#657EFF" stop-opacity="0"/>
</linearGradient>
<linearGradient id="paint89_linear" x1="90.3497" y1="46.4597" x2="81.3042" y2="37.3867" gradientUnits="userSpaceOnUse">
<stop offset="0.0113208" stop-color="#C2D1FF"/>
<stop offset="1" stop-color="white"/>
</linearGradient>
<linearGradient id="paint90_linear" x1="114.146" y1="8.03197" x2="121.48" y2="3.27308" gradientUnits="userSpaceOnUse">
<stop stop-color="#83A6FF"/>
<stop offset="1" stop-color="#5A78FF"/>
</linearGradient>
<linearGradient id="paint91_linear" x1="118.893" y1="7.18359" x2="120.504" y2="2.01244" gradientUnits="userSpaceOnUse">
<stop stop-color="#83A6FF"/>
<stop offset="1" stop-color="#5A78FF"/>
</linearGradient>
<linearGradient id="paint92_linear" x1="42.3442" y1="14.2518" x2="39.7723" y2="20.7231" gradientUnits="userSpaceOnUse">
<stop stop-color="#FF66A9"/>
<stop offset="1" stop-color="#F53689"/>
</linearGradient>
<linearGradient id="paint93_linear" x1="39.6484" y1="16.9894" x2="40.9808" y2="21.1009" gradientUnits="userSpaceOnUse">
<stop stop-color="#FF66A9"/>
<stop offset="1" stop-color="#F53689"/>
</linearGradient>
<linearGradient id="paint94_linear" x1="108.032" y1="83.7589" x2="102.33" y2="79.2333" gradientUnits="userSpaceOnUse">
<stop stop-color="#FF66A9"/>
<stop offset="1" stop-color="#F53689"/>
</linearGradient>
<linearGradient id="paint95_linear" x1="106.09" y1="80.2534" x2="101.568" y2="80.363" gradientUnits="userSpaceOnUse">
<stop stop-color="#FF66A9"/>
<stop offset="1" stop-color="#F53689"/>
</linearGradient>
</defs>
</svg>
