<svg width="120" height="102" viewBox="0 0 120 102" fill="none" xmlns="http://www.w3.org/2000/svg">
<path d="M60.0687 102C88.1095 102 110.841 79.1665 110.841 51C110.841 22.8335 88.1095 0 60.0687 0C32.0279 0 9.29639 22.8335 9.29639 51C9.29639 79.1665 32.0279 102 60.0687 102Z" fill="#2A2E39"/>
<path d="M11.1011 21.1255C12.4425 20.6875 13.1765 19.2402 12.7405 17.8928C12.3045 16.5454 10.8637 15.8082 9.5223 16.2461C8.18092 16.684 7.44694 18.1313 7.88293 19.4788C8.31891 20.8262 9.75976 21.5634 11.1011 21.1255Z" fill="#2A2E39"/>
<path d="M16.6761 12.7552C17.5883 12.4574 18.0874 11.4733 17.7909 10.557C17.4944 9.6408 16.5147 9.13946 15.6025 9.43726C14.6904 9.73506 14.1913 10.7192 14.4877 11.6355C14.7842 12.5517 15.764 13.053 16.6761 12.7552Z" fill="#2A2E39"/>
<path d="M117.134 38.2164C118.717 36.7636 118.827 34.2971 117.381 32.7074C115.935 31.1176 113.479 31.0066 111.897 32.4594C110.314 33.9122 110.203 36.3787 111.65 37.9684C113.096 39.5582 115.552 39.6692 117.134 38.2164Z" fill="#2A2E39"/>
<path d="M117.497 20.8105C118.163 20.1988 118.21 19.1603 117.601 18.4909C116.992 17.8216 115.958 17.7748 115.291 18.3865C114.625 18.9982 114.578 20.0367 115.187 20.7061C115.796 21.3755 116.83 21.4223 117.497 20.8105Z" fill="#2A2E39"/>
<path d="M6.53802 71.5231C7.66643 71.5231 8.58117 70.6043 8.58117 69.4708C8.58117 68.3374 7.66643 67.4185 6.53802 67.4185C5.40962 67.4185 4.49487 68.3374 4.49487 69.4708C4.49487 70.6043 5.40962 71.5231 6.53802 71.5231Z" fill="url(#paint0_linear)"/>
<path d="M99.3992 5.54127C100.302 5.54127 101.034 4.80619 101.034 3.89942C101.034 2.99265 100.302 2.25757 99.3992 2.25757C98.4965 2.25757 97.7646 2.99265 97.7646 3.89942C97.7646 4.80619 98.4965 5.54127 99.3992 5.54127Z" fill="url(#paint1_linear)"/>
<path d="M1.32805 40.6358C2.06151 40.6358 2.6561 40.0386 2.6561 39.3018C2.6561 38.5651 2.06151 37.9678 1.32805 37.9678C0.594587 37.9678 0 38.5651 0 39.3018C0 40.0386 0.594587 40.6358 1.32805 40.6358Z" fill="url(#paint2_linear)"/>
<path d="M104.711 79.7324H15.4258V22.9859C15.4258 21.1388 16.856 19.7022 18.6948 19.7022H101.442C103.281 19.7022 104.711 21.1388 104.711 22.9859V79.7324Z" fill="#262A31"/>
<path d="M82.4412 82.7082H18.1841V22.9859H101.545V82.7082H91.7375" fill="#474E61"/>
<path d="M109.819 79.7324V82.2978C109.819 84.658 107.776 85.2737 105.324 85.2737H14.8128C12.361 85.2737 10.3179 84.7606 10.3179 82.2978V79.7324H51.2831C51.5895 80.656 52.6111 81.3743 53.7348 81.3743H66.4024C67.5261 81.3743 68.4455 80.656 68.8542 79.7324H109.819Z" fill="#262A31"/>
<path d="M109.819 79.7324C109.819 82.0926 107.776 82.6057 105.324 82.6057H14.8128C12.361 82.6057 10.3179 82.0926 10.3179 79.7324H51.2831C51.5895 80.656 52.6111 81.3743 53.7348 81.3743H66.4024C67.5261 81.3743 68.4455 80.656 68.8542 79.7324H109.819Z" fill="#353B4A"/>
<path d="M21.3509 26.9879C21.9151 26.9879 22.3725 26.5285 22.3725 25.9618C22.3725 25.395 21.9151 24.9356 21.3509 24.9356C20.7867 24.9356 20.3293 25.395 20.3293 25.9618C20.3293 26.5285 20.7867 26.9879 21.3509 26.9879Z" fill="#313643"/>
<path opacity="0.6" d="M24.1092 26.9879C24.6734 26.9879 25.1308 26.5285 25.1308 25.9618C25.1308 25.395 24.6734 24.9356 24.1092 24.9356C23.545 24.9356 23.0876 25.395 23.0876 25.9618C23.0876 26.5285 23.545 26.9879 24.1092 26.9879Z" fill="#313643"/>
<path d="M26.7652 26.9879C27.3294 26.9879 27.7868 26.5285 27.7868 25.9618C27.7868 25.395 27.3294 24.9356 26.7652 24.9356C26.201 24.9356 25.7437 25.395 25.7437 25.9618C25.7437 26.5285 26.201 26.9879 26.7652 26.9879Z" fill="#313643"/>
<path d="M95.0065 42.7907H68.2412C67.7304 42.7907 67.3218 42.3803 67.3218 41.8672V32.3239C67.3218 31.8109 67.7304 31.4004 68.2412 31.4004H95.0065C95.5173 31.4004 95.9259 31.8109 95.9259 32.3239V41.8672C96.0281 42.3803 95.6194 42.7907 95.0065 42.7907Z" fill="#313643"/>
<path d="M96.028 56.5413C96.028 57.0543 95.6194 57.4648 95.1086 57.4648H68.2412C67.7304 57.4648 67.3218 57.0543 67.3218 56.5413V46.998C67.3218 46.4849 67.7304 46.0745 68.2412 46.0745H95.0065C95.5173 46.0745 95.9259 46.4849 95.9259 46.998V56.5413H96.028Z" fill="#313643"/>
<path d="M90.6138 35.6076H72.6341C72.3276 35.6076 72.1233 35.4024 72.1233 35.0946C72.1233 34.7867 72.3276 34.5815 72.6341 34.5815H90.6138C90.9203 34.5815 91.1246 34.7867 91.1246 35.0946C91.0224 35.4024 90.8181 35.6076 90.6138 35.6076Z" fill="#474E61"/>
<path d="M84.28 39.4044H72.6341C72.3276 39.4044 72.1233 39.1992 72.1233 38.8913C72.1233 38.5835 72.3276 38.3782 72.6341 38.3782H84.3822C84.6887 38.3782 84.893 38.5835 84.893 38.8913C84.7908 39.0965 84.5865 39.4044 84.28 39.4044Z" fill="#474E61"/>
<path d="M90.6138 50.2817H72.6341C72.3276 50.2817 72.1233 50.0765 72.1233 49.7686C72.1233 49.4608 72.3276 49.2556 72.6341 49.2556H90.6138C90.9203 49.2556 91.1246 49.4608 91.1246 49.7686C91.0224 50.0765 90.8181 50.2817 90.6138 50.2817Z" fill="#474E61"/>
<path d="M84.28 54.0785H72.6341C72.3276 54.0785 72.1233 53.8732 72.1233 53.5654C72.1233 53.2575 72.3276 53.0523 72.6341 53.0523H84.3822C84.6887 53.0523 84.893 53.2575 84.893 53.5654C84.7908 53.8732 84.5865 54.0785 84.28 54.0785Z" fill="#474E61"/>
<path d="M96.028 71.3179C96.028 71.831 95.6194 72.2414 95.1086 72.2414H68.2412C67.7304 72.2414 67.3218 71.831 67.3218 71.3179V61.7746C67.3218 61.2615 67.7304 60.8511 68.2412 60.8511H95.0065C95.5173 60.8511 95.9259 61.2615 95.9259 61.7746V71.3179H96.028Z" fill="#313643"/>
<path d="M90.6138 65.1609H72.6341C72.3276 65.1609 72.1233 64.9557 72.1233 64.6478C72.1233 64.34 72.3276 64.1348 72.6341 64.1348H90.6138C90.9203 64.1348 91.1246 64.34 91.1246 64.6478C91.0224 64.9557 90.8181 65.1609 90.6138 65.1609Z" fill="#474E61"/>
<path d="M84.28 68.9577H72.6341C72.3276 68.9577 72.1233 68.7525 72.1233 68.4447C72.1233 68.1368 72.3276 67.9316 72.6341 67.9316H84.3822C84.6887 67.9316 84.893 68.1368 84.893 68.4447C84.7908 68.6499 84.5865 68.9577 84.28 68.9577Z" fill="#474E61"/>
<path d="M59.8643 59.7223H23.8027C22.8833 59.7223 22.1682 59.004 22.1682 58.0805V33.1448C22.1682 32.2213 22.8833 31.503 23.8027 31.503H59.9665C60.8859 31.503 61.601 32.2213 61.601 33.1448V58.0805C61.4989 59.004 60.7838 59.7223 59.8643 59.7223Z" fill="#313643"/>
<path d="M42.5996 53.5653H29.5234L36.0615 46.177L42.5996 53.5653Z" fill="#252933"/>
<path d="M53.3263 53.5653H34.5293L43.9278 42.8933L53.3263 53.5653Z" fill="#474E61"/>
<path d="M34.4269 43.5091C35.781 43.5091 36.8787 42.4064 36.8787 41.0463C36.8787 39.6861 35.781 38.5835 34.4269 38.5835C33.0728 38.5835 31.9751 39.6861 31.9751 41.0463C31.9751 42.4064 33.0728 43.5091 34.4269 43.5091Z" fill="#252933"/>
<path d="M60.8859 69.5735H22.8833C22.4747 69.5735 22.1682 69.2656 22.1682 68.8551C22.1682 68.4447 22.4747 68.1368 22.8833 68.1368H60.8859C61.2946 68.1368 61.601 68.4447 61.601 68.8551C61.4989 69.2656 61.1924 69.5735 60.8859 69.5735Z" fill="#313643"/>
<path d="M60.8859 65.2636H22.8833C22.4747 65.2636 22.1682 64.9557 22.1682 64.5453C22.1682 64.1348 22.4747 63.827 22.8833 63.827H60.8859C61.2946 63.827 61.601 64.1348 61.601 64.5453C61.4989 64.9557 61.1924 65.2636 60.8859 65.2636Z" fill="#313643"/>
<path d="M35.653 73.7807H22.8833C22.4747 73.7807 22.1682 73.4728 22.1682 73.0624C22.1682 72.6519 22.4747 72.3441 22.8833 72.3441H35.653C36.0616 72.3441 36.3681 72.6519 36.3681 73.0624C36.266 73.4728 35.9595 73.7807 35.653 73.7807Z" fill="#313643"/>
<path d="M80.0915 15.7001C79.0699 15.7001 76.6181 14.7766 75.8009 14.4688C71.5102 12.5191 64.4614 6.77258 60.5794 6.77258C56.6974 6.77258 49.6485 12.4164 45.3579 14.4688C44.6428 14.7766 42.0889 15.7001 41.0673 15.7001C39.4328 15.8028 38.2069 17.2394 38.4112 18.7786C38.8198 22.5754 39.8414 29.348 42.4975 38.0704C45.9709 48.845 55.5737 55.3098 59.2513 57.4647C60.1708 57.9778 61.1923 57.9778 62.1117 57.4647C65.7894 55.3098 75.3922 48.845 78.6613 38.0704C81.3174 29.348 82.3389 22.5754 82.7476 18.7786C82.9519 17.2394 81.726 15.8028 80.0915 15.7001Z" fill="url(#paint3_linear)"/>
<path d="M78.7635 19.4969C78.3549 22.5754 77.5376 27.8088 75.6988 34.3762C75.4944 35.1971 75.188 36.1207 74.8815 36.9416C72.1233 45.8692 64.3593 51.513 60.5794 53.7706C60.1708 53.5653 59.7622 53.2575 59.3536 52.9496C55.3694 50.2816 48.8313 44.9456 46.3795 36.9416C44.0299 29.2454 43.0083 22.9859 42.4976 19.4969C44.3364 19.0865 46.5839 18.2655 46.9925 18.0603C48.7292 17.2394 50.6702 16.1106 52.7133 14.7766C54.9608 13.34 59.1492 10.7746 60.5794 10.7746C62.0097 10.7746 66.1981 13.4426 68.4456 14.7766C70.4887 16.008 72.4297 17.2394 74.1664 18.0603C74.6772 18.1629 76.9247 19.0865 78.7635 19.4969Z" fill="url(#paint4_linear)"/>
<path d="M75.6988 34.2736C75.4945 35.0945 75.188 36.018 74.8816 36.839C72.1233 45.7665 64.3593 51.4104 60.5795 53.6679C60.1709 53.4627 59.7622 53.1549 59.3536 52.847L51.7939 31.5029L55.3695 30.8873L59.8644 34.171L69.5694 27.1931L72.6341 26.1669C72.6341 26.2695 73.9621 29.8611 75.6988 34.2736Z" fill="url(#paint5_linear)"/>
<path d="M58.3319 38.5835L52.2025 32.4265C51.7938 32.0161 51.7938 31.1951 52.2025 30.7847L54.6543 28.3219C55.0629 27.9114 55.8801 27.9114 56.2888 28.3219L59.1492 31.1951C59.5578 31.6056 60.1708 31.6056 60.4772 31.1951L68.139 23.4989C68.5477 23.0885 69.3649 23.0885 69.7736 23.4989L72.2253 25.9617C72.634 26.3722 72.634 27.1931 72.2253 27.6036L61.3966 38.5835C60.4772 39.4044 59.1492 39.4044 58.3319 38.5835Z" fill="url(#paint6_linear)"/>
<defs>
<linearGradient id="paint0_linear" x1="4.53696" y1="69.5072" x2="8.58567" y2="69.5072" gradientUnits="userSpaceOnUse">
<stop stop-color="#FF66A9"/>
<stop offset="1" stop-color="#F53689"/>
</linearGradient>
<linearGradient id="paint1_linear" x1="97.8231" y1="3.90065" x2="100.994" y2="3.90065" gradientUnits="userSpaceOnUse">
<stop stop-color="#FF66A9"/>
<stop offset="1" stop-color="#F53689"/>
</linearGradient>
<linearGradient id="paint2_linear" x1="0" y1="39.2597" x2="2.70932" y2="39.2597" gradientUnits="userSpaceOnUse">
<stop stop-color="#FF66A9"/>
<stop offset="1" stop-color="#F53689"/>
</linearGradient>
<linearGradient id="paint3_linear" x1="58.1526" y1="22.5958" x2="72.6275" y2="42.8131" gradientUnits="userSpaceOnUse">
<stop stop-color="#83A6FF"/>
<stop offset="1" stop-color="#5A78FF"/>
</linearGradient>
<linearGradient id="paint4_linear" x1="73.8089" y1="43.8477" x2="52.0108" y2="16.2131" gradientUnits="userSpaceOnUse">
<stop stop-color="#83A6FF"/>
<stop offset="1" stop-color="#5A78FF"/>
</linearGradient>
<linearGradient id="paint5_linear" x1="60.4724" y1="30.5896" x2="66.9882" y2="41.0402" gradientUnits="userSpaceOnUse">
<stop stop-color="#4F6AFF"/>
<stop offset="1" stop-color="#657EFF" stop-opacity="0"/>
</linearGradient>
<linearGradient id="paint6_linear" x1="66.081" y1="33.2157" x2="59.9246" y2="26.5615" gradientUnits="userSpaceOnUse">
<stop offset="0.0113208" stop-color="#C2D1FF"/>
<stop offset="1" stop-color="white"/>
</linearGradient>
</defs>
</svg>
