<svg width="120" height="112" viewBox="0 0 120 112" fill="none" xmlns="http://www.w3.org/2000/svg">
<path d="M112.408 62.6087C112.408 80.6957 102.651 96.5963 88.1144 105.143C88.1144 105.143 88.0149 105.242 87.9153 105.242C86.9196 105.839 85.924 106.335 84.9284 106.832C84.4305 107.13 83.9327 107.329 83.4349 107.528C83.2358 107.627 83.0366 107.727 82.8375 107.826H82.7379C82.5388 107.925 82.2401 108.025 82.041 108.124C80.5475 108.82 78.9545 109.317 77.3615 109.814C77.1623 109.913 76.8636 110.012 76.6645 110.012C76.565 110.012 76.4654 110.112 76.3658 110.112C76.2663 110.112 76.1667 110.112 76.1667 110.211C76.0671 110.211 75.9676 110.211 75.868 110.311C73.7772 110.907 71.5867 111.304 69.2968 111.603C67.2059 111.901 65.1151 112 63.0242 112C59.639 112 56.3534 111.702 53.1673 111.006C52.9682 111.006 52.7691 110.907 52.57 110.907C51.873 110.807 51.176 110.609 50.4791 110.41C49.7821 110.211 49.0852 110.012 48.3882 109.814C45.6004 108.919 42.8126 107.826 40.224 106.534C24.2937 98.2857 13.4412 81.6895 13.4412 62.6087C13.4412 35.2795 35.644 13.2174 62.9246 13.2174C90.3048 13.2174 112.408 35.2795 112.408 62.6087Z" fill="#2A2E37"/>
<path d="M58.6435 40.1491C53.8644 36.2733 51.3753 29.8137 52.2713 23.7516C53.267 16.8944 58.1456 15.6025 60.6347 16.6957C62.4269 17.4907 63.5221 19.8758 62.5265 21.6646C60.8339 24.8447 54.3622 23.5528 53.0679 18.087C52.57 16.0994 53.0679 13.9131 54.2626 12.2236C56.2539 9.54038 59.9378 8.54659 63.2234 8.0497C64.0199 8.0497 64.8164 7.95032 65.5134 7.85094C67.3056 7.65218 69.496 7.35404 71.786 7.05591" stroke="#5A6176" stroke-miterlimit="10" stroke-linecap="round" stroke-linejoin="round"/>
<path d="M76.7642 8.24846L73.6777 9.63976L74.1756 4.37268" fill="#454C65"/>
<path d="M96.5774 1.78882L95.1835 2.58385L79.0541 11.6273L74.8724 5.46584L74.1754 4.37267L71.1885 0L93.9887 1.59006L96.5774 1.78882Z" fill="#69738D"/>
<path d="M96.5773 1.78885L95.1834 2.58388L74.8722 5.46586L74.1753 4.3727L93.9886 1.59009L96.5773 1.78885Z" fill="#454C65"/>
<path d="M15.2016 33.6602C16.5089 33.236 17.2243 31.8344 16.7993 30.5295C16.3744 29.2246 14.9701 28.5106 13.6628 28.9347C12.3555 29.3588 11.6401 30.7605 12.065 32.0654C12.49 33.3703 13.8942 34.0843 15.2016 33.6602Z" fill="#2A2E37"/>
<path d="M20.635 25.554C21.524 25.2656 22.0104 24.3125 21.7215 23.4251C21.4326 22.5378 20.4776 22.0523 19.5887 22.3407C18.6997 22.6291 18.2132 23.5822 18.5022 24.4695C18.7911 25.3569 19.746 25.8424 20.635 25.554Z" fill="#2A2E37"/>
<path d="M41.086 13.8846C42.6285 12.4776 42.7363 10.0889 41.3267 8.54928C39.9171 7.00965 37.5239 6.90212 35.9814 8.3091C34.4389 9.71608 34.3312 12.1048 35.7408 13.6444C37.1504 15.184 39.5435 15.2916 41.086 13.8846Z" fill="#2A2E37"/>
<path d="M118.824 33.2606C119.474 32.6682 119.519 31.6624 118.925 31.0141C118.332 30.3659 117.324 30.3206 116.675 30.913C116.025 31.5054 115.98 32.5112 116.573 33.1594C117.167 33.8077 118.175 33.853 118.824 33.2606Z" fill="#2A2E37"/>
<path d="M77.8593 82.7826V110.112C77.6602 110.211 77.4611 110.211 77.2619 110.311C74.972 110.907 72.5824 111.404 70.1929 111.702V82.7826H77.8593Z" fill="#4988FD"/>
<path d="M77.8593 82.7826V110.112C77.6602 110.211 77.4611 110.211 77.2619 110.311C74.972 110.907 72.5824 111.404 70.1929 111.702V82.7826H77.8593Z" fill="#69738D"/>
<path d="M84.9285 82.7826V106.932C84.4306 107.23 83.9328 107.429 83.435 107.627C83.2359 107.727 83.0367 107.826 82.8376 107.925H82.738C82.5389 108.025 82.2402 108.124 82.0411 108.224C80.5476 108.919 78.9546 109.416 77.3616 109.913V82.7826H84.9285Z" fill="#2767F4"/>
<path d="M84.9285 82.7826V106.932C84.4306 107.23 83.9328 107.429 83.435 107.627C83.2359 107.727 83.0367 107.826 82.8376 107.925H82.738C82.5389 108.025 82.2402 108.124 82.0411 108.224C80.5476 108.919 78.9546 109.416 77.3616 109.913V82.7826H84.9285Z" fill="#5A6176"/>
<path opacity="0.1" d="M84.9285 93.2174V105.242C84.5302 105.441 84.1319 105.64 83.7337 105.839C83.5346 105.938 83.3354 106.037 83.1363 106.137H83.0367C82.8376 106.236 82.5389 106.335 82.3398 106.435C80.8463 107.13 79.2533 107.627 77.6603 108.124C77.5607 108.124 77.4611 108.224 77.3616 108.224V105.64C77.4611 105.342 77.5607 105.043 77.6603 104.745C79.1537 100.87 81.0455 97.7888 83.2359 95.205C83.7337 94.5093 84.3311 93.8137 84.9285 93.2174Z" fill="#1E222C"/>
<path opacity="0.1" d="M84.9284 82.7826H70.1929V91.3292H84.9284V82.7826Z" fill="#1E222C"/>
<path d="M116.192 52.5714V83.1801H92.2962V83.2795H44.4058V28.323H89.9067C90.5041 28.2236 91.1014 28.2236 91.7984 28.2236C92.5949 28.2236 93.2919 28.2236 94.0884 28.323C95.084 28.4223 95.9801 28.5217 96.8762 28.7205C101.556 29.7143 105.737 32.0993 109.023 35.2795C113.503 39.7515 116.192 45.913 116.192 52.5714Z" fill="url(#paint0_linear)"/>
<path d="M96.8762 28.8199V51.5777C96.8762 52.3727 96.2788 52.969 95.4823 52.969C94.6858 52.969 94.0884 52.3727 94.0884 51.5777V28.323C94.9845 28.4224 95.9801 28.6211 96.8762 28.8199Z" fill="url(#paint1_linear)"/>
<path d="M95.9799 59.7267C99.0043 59.7267 101.456 57.2796 101.456 54.2609C101.456 51.2422 99.0043 48.795 95.9799 48.795C92.9556 48.795 90.5039 51.2422 90.5039 54.2609C90.5039 57.2796 92.9556 59.7267 95.9799 59.7267Z" fill="#5C71FF"/>
<path d="M96.8761 59.031C100.01 59.031 102.551 56.5839 102.551 53.5652C102.551 50.5465 100.01 48.0994 96.8761 48.0994C93.7418 48.0994 91.2009 50.5465 91.2009 53.5652C91.2009 56.5839 93.7418 59.031 96.8761 59.031Z" fill="#5A6176"/>
<path d="M97.1748 59.031C100.199 59.031 102.651 56.5839 102.651 53.5652C102.651 50.5465 100.199 48.0994 97.1748 48.0994C94.1504 48.0994 91.6987 50.5465 91.6987 53.5652C91.6987 56.5839 94.1504 59.031 97.1748 59.031Z" fill="#939EBD"/>
<path d="M97.1748 55.6522C98.3296 55.6522 99.2657 54.7178 99.2657 53.5652C99.2657 52.4126 98.3296 51.4783 97.1748 51.4783C96.0201 51.4783 95.084 52.4126 95.084 53.5652C95.084 54.7178 96.0201 55.6522 97.1748 55.6522Z" fill="#5A6176"/>
<path d="M68.2016 50.1864V83.2795H19.415V50.1864C19.415 39.7516 26.7828 31.0062 36.5401 28.8199C38.1331 28.4224 39.7262 28.323 41.4188 28.323H46.397C57.3491 28.323 66.4094 36.2733 68.102 46.8075C68.102 47.8013 68.2016 48.9938 68.2016 50.1864Z" fill="url(#paint2_linear)"/>
<path d="M98.7678 27.031V53.3664C98.7678 54.1614 98.1704 54.7577 97.3739 54.7577C96.5774 54.7577 95.98 54.1614 95.98 53.3664V27.031H98.7678Z" fill="#B5BCCF"/>
<path d="M60.4357 69.2672C60.4357 71.3541 58.7431 73.0436 56.6522 73.0436C17.623 73.0436 20.1121 73.2423 18.8178 72.4473C17.7226 71.7516 17.0256 70.5591 17.0256 69.2672C19.3156 43.3293 18.9174 43.6274 20.5104 42.1367C22.0039 40.8448 19.913 41.2423 58.7431 41.2423C59.9379 41.2423 61.0331 41.8386 61.73 42.6336C63.0244 44.3231 62.7257 43.7268 60.4357 69.2672Z" fill="#C8D5F8"/>
<path d="M62.1283 43.2298C42.4145 59.9254 42.9124 60.2236 40.025 60.2236C36.9385 60.2236 37.2372 59.8261 19.7139 43.2298C21.2073 40.4472 20.3113 41.2422 58.8427 41.2422C60.2366 41.2422 61.5309 42.0372 62.1283 43.2298Z" fill="#AFBFEA"/>
<path d="M14.636 48.6956H1.69262C1.09523 48.6956 0.597412 48.1987 0.597412 47.6024C0.597412 47.0062 1.09523 46.5093 1.69262 46.5093H14.636C15.2334 46.5093 15.7312 47.0062 15.7312 47.6024C15.7312 48.1987 15.2334 48.6956 14.636 48.6956Z" fill="url(#paint3_linear)"/>
<path d="M14.0386 54.8572H6.57128C5.9739 54.8572 5.47607 54.3603 5.47607 53.764C5.47607 53.1677 5.9739 52.6708 6.57128 52.6708H14.0386C14.636 52.6708 15.1338 53.1677 15.1338 53.764C15.1338 54.3603 14.636 54.8572 14.0386 54.8572Z" fill="url(#paint4_linear)"/>
<path d="M13.3416 60.7205H9.15991C8.56252 60.7205 8.0647 60.2236 8.0647 59.6273C8.0647 59.0311 8.56252 58.5342 9.15991 58.5342H13.4412C14.0386 58.5342 14.5364 59.0311 14.5364 59.6273C14.5364 60.2236 14.0386 60.7205 13.3416 60.7205Z" fill="url(#paint5_linear)"/>
<path d="M54.7604 60.4224H50.28C49.9813 60.4224 49.7822 60.6211 49.7822 60.9193L49.6826 61.5155L49.4835 63.1056L49.3839 64.1988L49.1848 65.3913C49.1848 65.4907 49.1848 65.5901 49.1848 65.6894C49.2844 65.8882 49.4835 66.087 49.6826 66.087H54.163C54.4617 66.087 54.6609 65.8882 54.6609 65.5901L55.2582 61.118C55.3578 60.7205 55.1587 60.4224 54.7604 60.4224ZM53.6652 64.4969C53.6652 64.5963 53.5656 64.795 53.3665 64.795H51.1761H50.8774C50.6783 64.795 50.5787 64.5963 50.5787 64.4969L50.6783 63.7019L50.7778 62.6087L50.8774 62.1118C50.8774 62.0124 50.977 61.8137 51.1761 61.8137H53.6652C53.8643 61.8137 53.9639 62.0124 53.9639 62.1118L53.6652 64.4969Z" fill="#AFBFEA"/>
<path d="M51.176 61.7143C50.9769 61.7143 50.8773 61.8137 50.8773 62.0124L50.7778 62.5093C50.2799 62.8075 49.8817 63.0062 49.4834 63.1056C49.1847 63.205 48.886 63.205 48.5873 63.205C47.6913 63.205 46.9943 62.9069 46.3969 62.6087C45.5009 62.2112 45.3017 62.2112 45.003 62.5093C44.7043 62.8075 44.3061 62.8075 44.0074 62.6087C43.7087 62.3106 43.7087 61.9131 43.9078 61.6149C44.9035 60.4224 46.0982 60.9193 46.9943 61.3168C47.8904 61.7143 48.5873 62.1118 49.6826 61.5156C49.7821 61.4162 49.9812 61.4162 50.0808 61.3168C50.3795 61.118 50.8773 61.2174 51.0765 61.5156C51.176 61.5156 51.176 61.6149 51.176 61.7143Z" fill="#AFBFEA"/>
<path d="M51.1761 64.6956L51.0765 64.795C50.3796 65.2919 49.7822 65.4907 49.2844 65.5901C49.0853 65.5901 48.8861 65.5901 48.7866 65.5901C47.8905 65.5901 47.1935 65.2919 46.5962 64.9938C45.7001 64.5963 45.5009 64.5963 45.2022 64.8944C44.9036 65.1925 44.5053 65.1925 44.2066 64.9938C43.9079 64.6957 43.9079 64.2981 44.107 64C45.1027 62.8075 46.2975 63.3043 47.094 63.7019C47.7909 64 48.4879 64.2981 49.2844 64.0994C49.5831 64 49.7822 63.9006 50.1805 63.7019C50.28 63.6025 50.4792 63.6025 50.6783 63.6025L50.5787 64.3975C50.5787 64.5963 50.6783 64.6956 50.8774 64.6956H51.1761Z" fill="#AFBFEA"/>
<path opacity="0.5" d="M68.2016 54.7577L67.9029 46.708C66.2103 36.2733 57.15 28.2236 46.1979 28.2236H41.2197C39.5271 28.2236 37.9341 28.4223 36.341 28.7205L35.7437 29.2174L48.0896 79.9006L68.1021 80.9938V54.7577H68.2016Z" fill="url(#paint6_linear)"/>
<path d="M112.209 26.1366C112.607 26.4347 112.408 27.1304 111.811 27.1304H98.8673H95.8804V16.2981H111.811C112.308 16.2981 112.607 16.8944 112.209 17.2919L108.027 20.7701C107.43 21.267 107.43 22.1615 108.027 22.6583L112.209 26.1366Z" fill="url(#paint7_linear)"/>
<path d="M56.7518 101.963C55.3579 104.05 53.6653 107.429 52.6697 110.311C52.5701 110.509 52.4705 110.807 52.4705 111.006C51.7736 110.907 51.0766 110.708 50.3797 110.509C49.7823 109.118 49.384 107.627 49.384 107.627C49.7823 107.13 50.081 106.733 50.4792 106.335C52.371 103.95 54.3623 102.36 56.7518 101.963Z" fill="#21242F"/>
<path d="M53.068 111.106C52.8688 111.106 52.6697 111.006 52.4706 111.006C51.7736 110.907 51.0767 110.708 50.3797 110.509C49.8819 110.41 49.4836 110.211 48.9858 110.112C48.7867 110.012 48.5876 110.012 48.3884 109.913C48.1893 109.814 47.9902 109.814 47.6915 109.714C45.1028 108.919 42.6137 107.826 40.2242 106.634C37.7351 102.46 36.3412 97.292 33.9516 90.2361C33.9516 90.1367 33.9516 90.1367 33.8521 90.0373C33.8521 90.0373 34.0512 90.0373 34.549 90.2361C34.8477 90.4348 35.3455 90.6336 35.9429 91.0311C37.1377 91.8261 39.0294 93.2174 41.8172 95.5031C45.302 98.3851 48.2889 102.658 50.3797 106.236C51.2758 107.826 52.0723 109.217 52.6697 110.311C52.8688 110.509 52.9684 110.807 53.068 111.106Z" fill="#5A6176"/>
<path d="M48.9858 110.012C48.7867 109.913 48.5876 109.913 48.3884 109.814C48.1893 109.714 47.9902 109.714 47.6915 109.615C43.1115 100.373 37.9342 94.5093 34.8477 91.1304C34.549 90.7329 34.2503 90.4348 33.9516 90.1366C33.9516 90.0372 33.9516 90.0372 33.8521 89.9379C33.8521 89.9379 34.0512 89.9379 34.549 90.1366C34.8477 90.3354 35.3455 90.5341 35.9429 90.9317C39.129 94.5093 44.4059 100.571 48.9858 110.012Z" fill="#2A2E37"/>
<path d="M77.8593 110.112C77.9588 110.112 77.9589 110.112 78.0584 110.112C77.9589 110.112 77.7597 110.211 77.6602 110.211C77.6602 110.112 77.7597 110.112 77.8593 110.112Z" fill="#5A6176"/>
<path d="M78.1581 110.013C78.2577 110.013 78.2577 110.013 78.3572 109.913C78.2577 109.913 78.0585 110.013 77.959 110.013C78.0585 110.013 78.0586 110.013 78.1581 110.013Z" fill="#5A6176"/>
<path d="M95.415 89C95.415 89 95.3155 89.1988 95.1164 89.5963C93.9216 91.7826 89.8394 99.3354 87.9477 105.795C87.9477 105.795 87.8482 105.894 87.7486 105.894C86.7529 106.491 85.7573 106.988 84.7617 107.484C84.2638 107.783 83.766 107.981 83.2682 108.18C83.0691 108.28 82.8699 108.379 82.6708 108.478H82.5712C82.3721 108.578 82.0734 108.677 81.8743 108.776C80.3808 109.472 78.7878 109.969 77.1948 110.466C76.9956 110.565 76.697 110.665 76.4978 110.665C76.3983 110.665 76.2987 110.764 76.1991 110.764C76.0996 110.764 76 110.764 76 110.863C76.3983 109.571 76.7965 108.28 77.2943 107.186C78.7878 103.311 80.6795 100.23 82.8699 97.646C83.5669 96.8509 84.2638 96.0559 84.9608 95.3602C87.8482 92.4783 90.9347 90.5901 93.822 89.5963C94.2203 89.3975 94.8177 89.1988 95.415 89Z" fill="#5A6176"/>
<path d="M95.415 89C95.415 89 95.3154 89.1988 95.1163 89.5963C91.3329 92.8758 87.8481 98.0435 84.7616 104.702C84.2638 105.894 83.766 106.988 83.2682 108.279C83.069 108.379 82.8699 108.478 82.6708 108.578H82.5712C82.3721 108.677 82.0734 108.776 81.8743 108.876C81.9738 108.677 82.0734 108.578 82.0734 108.578C82.9695 106.391 83.8655 104.304 84.7616 102.416C87.4499 96.9503 90.4368 92.5776 93.6229 89.5963C94.2202 89.3975 94.8176 89.1988 95.415 89Z" fill="#2A2E37"/>
<path d="M68.2016 46.7081C66.509 36.2733 57.2495 28.2236 46.2974 28.2236H41.3192C39.6266 28.2236 38.0336 28.4224 36.4405 28.7205C29.471 30.3106 23.7959 35.1801 21.0081 41.5404C21.3068 41.3416 21.8046 41.2423 22.8002 41.1429C25.4885 35.677 30.5662 31.5031 36.7392 30.1118C38.1331 29.8137 39.7262 29.6149 41.2196 29.6149H46.1978C56.3534 29.6149 64.8164 36.8696 66.4094 46.8075C66.6085 47.8013 66.7081 48.8944 66.7081 49.9876V81.5901H20.9085V72.8447C20.112 72.8447 19.7137 72.7454 19.415 72.646V83.0808H68.5003V50.1864C68.5003 48.9938 68.4007 47.8013 68.2016 46.7081Z" fill="#96A7FF"/>
<path d="M68.5003 79.8012V83.2795H1.79216C0.796515 83.2795 0 82.4845 0 81.5901C0 80.5963 0.796515 79.8012 1.79216 79.8012H68.5003Z" fill="#7894FF"/>
<defs>
<linearGradient id="paint0_linear" x1="44.4131" y1="55.783" x2="116.209" y2="55.783" gradientUnits="userSpaceOnUse">
<stop stop-color="#83A6FF"/>
<stop offset="1" stop-color="#5A78FF"/>
</linearGradient>
<linearGradient id="paint1_linear" x1="95.4747" y1="49.5517" x2="95.4747" y2="36.3739" gradientUnits="userSpaceOnUse">
<stop stop-color="#4F6AFF"/>
<stop offset="1" stop-color="#657EFF" stop-opacity="0"/>
</linearGradient>
<linearGradient id="paint2_linear" x1="19.3826" y1="55.7483" x2="68.2189" y2="55.7483" gradientUnits="userSpaceOnUse">
<stop stop-color="#627AFF"/>
<stop offset="1" stop-color="#273DD1"/>
</linearGradient>
<linearGradient id="paint3_linear" x1="0.599304" y1="47.5665" x2="15.7179" y2="47.5665" gradientUnits="userSpaceOnUse">
<stop stop-color="#FF66A9"/>
<stop offset="1" stop-color="#F53689"/>
</linearGradient>
<linearGradient id="paint4_linear" x1="5.44172" y1="53.7627" x2="15.1562" y2="53.7627" gradientUnits="userSpaceOnUse">
<stop stop-color="#FF66A9"/>
<stop offset="1" stop-color="#F53689"/>
</linearGradient>
<linearGradient id="paint5_linear" x1="8.03732" y1="59.6318" x2="14.4896" y2="59.6318" gradientUnits="userSpaceOnUse">
<stop stop-color="#FF66A9"/>
<stop offset="1" stop-color="#F53689"/>
</linearGradient>
<linearGradient id="paint6_linear" x1="66.9675" y1="54.0667" x2="46.3613" y2="55.0268" gradientUnits="userSpaceOnUse">
<stop stop-color="#0C1E82"/>
<stop offset="1" stop-color="#001DB5" stop-opacity="0"/>
</linearGradient>
<linearGradient id="paint7_linear" x1="95.987" y1="21.6689" x2="112.445" y2="21.6689" gradientUnits="userSpaceOnUse">
<stop stop-color="#FF66A9"/>
<stop offset="1" stop-color="#F53689"/>
</linearGradient>
</defs>
</svg>
