<svg width="128" height="126" viewBox="0 0 128 126" fill="none" xmlns="http://www.w3.org/2000/svg">
<path d="M62.3226 102.133C87.876 102.133 108.591 81.3605 108.591 55.7364C108.591 30.1122 87.876 9.33978 62.3226 9.33978C36.7693 9.33978 16.0542 30.1122 16.0542 55.7364C16.0542 81.3605 36.7693 102.133 62.3226 102.133Z" fill="#2A2E38"/>
<g filter="url(#filter0_d)">
<path d="M105.054 42.5735V83.649C105.054 83.8357 105.054 83.929 105.054 84.1157C104.961 86.4496 103.843 88.5033 102.261 89.997C100.771 91.3039 98.9093 92.0508 96.8612 92.0508H30.8565C29.4601 92.0508 28.0637 91.6774 26.8534 91.0239C26.2949 90.7438 25.8294 90.3704 25.3639 89.997C24.433 89.1568 23.6882 88.1299 23.2227 87.0097C22.8503 86.1695 22.6641 85.236 22.571 84.3024V42.5735C22.571 42.5735 26.0156 39.6796 30.9496 35.572C36.0699 31.2778 42.7728 25.6766 48.7309 20.7289C52.1754 17.8349 51.803 18.2083 57.0163 13.8207C61.0195 10.46 66.7914 10.46 70.7945 13.8207C71.8185 14.6609 72.9357 15.5944 73.9597 16.4346C76.1009 18.2083 78.5214 20.2621 81.035 22.3159C86.3414 26.7968 92.1133 31.6512 96.675 35.4787C101.33 39.3062 104.681 42.2001 105.054 42.5735Z" fill="#1E242C"/>
</g>
<path d="M96.5819 35.4787V50.2285L82.1521 58.817L77.8697 61.4309L68.8395 66.8454L64.5571 69.4593L62.7883 70.4862L61.1126 69.3659L57.0163 66.752L48.4516 61.3375L44.3554 58.817L31.0427 50.4152V35.4787C36.163 31.1844 42.8658 25.5832 48.824 20.6355L80.9419 22.3159C86.2483 26.7968 92.0202 31.6512 96.5819 35.4787Z" fill="#171C22"/>
<path d="M93.696 23.7162V49.575L80.5695 57.4167L76.6595 59.7505L68.374 64.7916L64.464 67.1254L62.7883 68.1523L61.2988 67.1254L57.575 64.7916L49.7549 59.8439L46.0311 57.5101L33.9287 49.8551V23.7162C33.9287 21.0089 36.163 18.7684 38.8628 18.7684H88.855C91.5548 18.7684 93.696 21.0089 93.696 23.7162Z" fill="#69738D"/>
<path d="M81.7799 40.053H46.4967C45.9381 40.053 45.4727 39.5862 45.4727 38.9327C45.4727 38.2793 45.9381 37.8125 46.4967 37.8125H81.7799C82.3384 37.8125 82.8039 38.2793 82.8039 38.9327C82.8039 39.4929 82.3384 40.053 81.7799 40.053Z" fill="#3A4454"/>
<path d="M81.7799 46.9611H46.4967C45.9381 46.9611 45.4727 46.4944 45.4727 45.8409C45.4727 45.1874 45.9381 44.7206 46.4967 44.7206H81.7799C82.3384 44.7206 82.8039 45.1874 82.8039 45.8409C82.8039 46.4944 82.3384 46.9611 81.7799 46.9611Z" fill="#3A4454"/>
<path d="M81.7799 53.9626H46.4967C45.9381 53.9626 45.4727 53.4959 45.4727 52.8424C45.4727 52.1889 45.9381 51.7222 46.4967 51.7222H81.7799C82.3384 51.7222 82.8039 52.1889 82.8039 52.8424C82.8039 53.4959 82.3384 53.9626 81.7799 53.9626Z" fill="#3A4454"/>
<path d="M79.4524 58.7236L75.7285 60.9641H50.0342L46.4966 58.7236C46.4966 58.7236 46.4966 58.7236 46.5897 58.7236H79.4524Z" fill="#3A4454"/>
<path d="M67.8155 65.6318L64.0917 67.8723H61.0196L57.4819 65.6318H67.8155Z" fill="#3A4454"/>
<path d="M74.146 32.0246H54.1305C53.5719 32.0246 53.1064 31.5578 53.1064 30.9044C53.1064 30.2509 53.5719 29.7841 54.1305 29.7841H74.146C74.7046 29.7841 75.1701 30.2509 75.1701 30.9044C75.1701 31.5578 74.7046 32.0246 74.146 32.0246Z" fill="#3A4454"/>
<path d="M22.9434 42.3868L62.5089 45.0007L104.309 42.3868L102.726 49.9485C102.726 49.9485 63.3468 70.5795 63.6261 70.5795C63.9053 70.5795 22.9434 46.121 22.9434 46.121V42.3868Z" fill="url(#paint0_linear)"/>
<path d="M105.054 42.5735V84.0224C104.961 86.3562 103.843 88.41 102.261 89.9037C100.771 91.2106 98.9093 91.9574 96.8612 91.9574H30.8565C29.4601 91.9574 28.0637 91.584 26.8534 90.9306C26.2949 90.6505 25.8294 90.2771 25.3639 89.9037C24.433 89.0635 23.6882 88.0366 23.2227 86.9164C22.8503 86.0762 22.6641 85.1427 22.571 84.2091V84.1158V42.5735L59.4368 65.7252L62.6021 67.6856L63.7192 67.0321L64.7433 66.3786L105.054 42.5735Z" fill="#738DFF"/>
<path d="M102.168 89.8103C100.678 91.1173 98.8162 91.8641 96.7681 91.8641H30.8565C29.4601 91.8641 28.0637 91.4907 26.8534 90.8372C26.2949 90.5571 25.8294 90.1837 25.3639 89.8103C24.433 88.9701 23.6882 87.9432 23.2227 86.823C22.8503 85.9828 22.6641 85.0493 22.571 84.1158V84.0224V42.5735L26.8534 45.1874L63.7192 67.1255L64.7433 67.7789L64.8364 67.8723L97.8852 87.4765L102.168 89.8103Z" fill="#404759"/>
<path d="M64.8363 66.3786V69.2726L26.8534 90.8372C26.2948 90.5571 25.8293 90.1837 25.3639 89.8103C24.4329 88.9701 23.6881 87.9432 23.2227 86.823L60.1815 64.8849L63.3468 66.8454L63.7192 66.9387L64.8363 66.3786Z" fill="url(#paint1_linear)"/>
<path d="M22.571 42.5735L63.8123 67.0321" stroke="#6B758F" stroke-width="0.5" stroke-miterlimit="10"/>
<path d="M105.053 42.5735V84.0224C104.96 86.3562 103.843 88.41 102.261 89.9037C100.771 91.2106 98.9092 91.9574 96.8611 91.9574H30.8564C29.46 91.9574 28.0635 91.584 26.8533 90.9306C26.2947 90.6505 25.8292 90.2771 25.3638 89.9037L29.5531 87.3831L62.6019 67.7789L63.7191 67.1255L64.7431 66.472L100.585 45.1874L105.053 42.5735Z" fill="#474E61"/>
<path d="M105.053 42.5735L64.8362 66.3786L63.8122 67.0321L62.695 67.6856L25.3638 89.8103" stroke="#6B758F" stroke-width="0.5" stroke-miterlimit="10"/>
<path d="M95.0926 71.5131H73.2151C72.6566 71.5131 72.2842 71.0463 72.2842 70.5795C72.2842 70.1128 72.7497 69.646 73.2151 69.646H95.0926C95.6511 69.646 96.0235 70.1128 96.0235 70.5795C96.0235 71.0463 95.6511 71.5131 95.0926 71.5131Z" fill="#1E242C"/>
<path d="M95.0926 77.8611H73.2151C72.6566 77.8611 72.2842 77.3943 72.2842 76.9276C72.2842 76.4608 72.7497 75.994 73.2151 75.994H95.0926C95.6511 75.994 96.0235 76.4608 96.0235 76.9276C96.0235 77.3943 95.6511 77.8611 95.0926 77.8611Z" fill="#1E242C"/>
<path opacity="0.3" d="M100.678 45.0941V49.3883L104.96 47.1478V42.4802L100.678 45.0941ZM100.678 66.472V73.4735L104.96 71.233V64.2315L100.678 66.472ZM99.6541 91.0239L98.3507 91.6774C99.7471 91.3973 101.05 90.7438 102.168 89.8103C102.168 89.8103 102.168 89.8103 102.261 89.8103C102.354 89.8103 102.354 89.7169 102.447 89.7169L99.6541 91.0239ZM22.571 42.5735V49.1082L26.8534 46.8678V45.0941L22.571 42.5735ZM22.571 66.1919V73.1934L26.8534 70.9529V63.9514L22.571 66.1919ZM30.8565 87.5698C30.4842 87.5698 30.0187 87.4765 29.6463 87.3831C29.4601 87.2897 29.1808 87.1964 28.9946 87.103C28.9946 87.103 28.9946 87.103 28.9015 87.103L24.7122 89.2502C24.8984 89.5302 25.1777 89.7169 25.457 89.9036C25.9225 90.2771 26.388 90.6505 26.9465 90.9305C27.3189 91.1172 27.7844 91.3039 28.1568 91.4906L36.2561 87.6632H30.8565V87.5698ZM67.6292 87.5698L58.599 91.8641H68.374L77.4042 87.5698H67.6292Z" fill="#EE4191"/>
<path d="M99.6541 91.0239L102.354 89.6236C102.261 89.7169 102.261 89.7169 102.168 89.7169C102.168 89.7169 102.168 89.7169 102.075 89.7169L99.6541 91.0239Z" fill="#526DFF"/>
<path opacity="0.3" d="M100.678 78.5146V83.929C100.678 84.5825 100.399 85.236 100.027 85.7961C99.9334 85.8895 99.9334 85.9828 99.8403 85.9828L104.961 83.3689V76.3674L100.678 78.5146Z" fill="#7B97FF"/>
<path opacity="0.3" d="M22.571 78.1411V83.929V84.0224C22.571 84.3958 22.6641 84.6758 22.6641 85.0493L26.8534 82.9021V75.9006L22.571 78.1411Z" fill="#7B97FF"/>
<path opacity="0.3" d="M22.571 54.1494V61.1508L26.8534 58.9104V51.9089L22.571 54.1494Z" fill="#7B97FF"/>
<path opacity="0.3" d="M46.9619 87.5698L37.9316 91.8641H47.7067L56.83 87.5698H46.9619Z" fill="#7B97FF"/>
<path opacity="0.3" d="M88.2965 87.5698L79.1731 91.8641H87.0862L96.2096 87.5698H88.2965Z" fill="#7B97FF"/>
<path opacity="0.3" d="M100.678 54.4294V61.4309L105.054 59.2838V52.2823L100.678 54.4294Z" fill="#7B97FF"/>
<path d="M118.925 86.823C118.925 87.7565 118.832 88.5967 118.738 89.5303C117.807 95.6916 113.618 100.733 107.939 102.88C105.984 103.627 103.936 104 101.795 104C95.837 104 90.5305 100.919 87.4584 96.2517C85.6896 93.5444 84.6655 90.2771 84.6655 86.823C84.6655 77.301 92.2994 69.646 101.795 69.646C111.198 69.646 118.925 77.3943 118.925 86.823Z" fill="url(#paint2_linear)"/>
<path d="M118.739 89.5302C117.808 95.6916 113.618 100.733 107.939 102.88L98.5368 93.4511L98.6299 93.0777L93.3235 87.7565L105.054 83.2756L108.126 78.7946L118.739 89.5302Z" fill="url(#paint3_linear)"/>
<path d="M98.3069 92.0881C98.3069 91.6213 98.493 91.0612 98.7723 90.6878C100.448 88.634 102.031 86.6736 103.613 84.6199C104.079 84.0597 103.52 83.7797 103.148 84.0597C102.589 84.5265 97.7483 88.634 97.0966 89.2875C97.0035 89.3809 96.8173 89.3809 96.7242 89.3809C95.7002 89.0075 94.7692 88.634 93.7452 88.2606C93.2797 88.1673 93.0004 87.7005 93.0935 87.2337C93.1866 86.9537 93.3728 86.6736 93.6521 86.5803C94.6761 86.0201 106.127 79.5788 107.151 78.9253C107.43 78.7386 107.71 78.7386 107.989 78.8319C108.268 79.0187 108.361 79.2987 108.268 79.5788C108.082 81.9126 107.337 89.4742 107.058 91.9014C106.965 92.5549 106.685 92.9283 106.127 92.8349C106.034 92.8349 105.848 92.8349 105.754 92.7416C104.544 92.2748 103.241 91.8081 102.031 91.3413C101.844 91.2479 101.658 91.2479 101.565 91.4346C99.5171 93.4884 99.3309 93.4884 99.0516 93.5818C98.5861 93.6751 98.2138 93.3951 98.1207 93.0216C98.1207 92.9283 98.1207 92.9283 98.1207 92.8349C98.3069 92.6482 98.3069 92.3682 98.3069 92.0881Z" fill="url(#paint4_linear)"/>
<path d="M63.9984 65.6318C56.1784 59.3772 52.0822 48.7349 53.5718 38.8394C55.2475 27.5437 63.0675 25.3965 67.3499 27.2636C70.2358 28.5706 72.0047 32.4914 70.5151 35.4787C67.8154 40.7998 57.1094 38.466 55.0613 29.5974C54.3165 26.3301 55.0613 22.6893 57.0163 20.0754C60.2746 15.5945 66.2327 14.1008 71.6323 13.1673C72.8425 12.9806 74.0528 12.7939 75.3561 12.6071C78.242 12.2337 81.7797 11.767 85.6897 11.3936" stroke="#84A1FF" stroke-width="2" stroke-miterlimit="10" stroke-linecap="round" stroke-linejoin="round"/>
<path d="M93.5099 13.1672L89.9723 14.8476C89.3206 15.1277 88.6689 14.6609 88.6689 13.9141L89.3206 6.81921" fill="#667FFF"/>
<path d="M126 2.61833L123.673 3.92527L99.2817 17.7416C98.1646 18.395 96.7682 18.0216 96.0234 16.9947L90.4377 8.68629L89.3205 7.00593L86.2484 2.33827C85.5967 1.31138 86.3415 -0.0889186 87.5517 0.00443465L121.625 2.43162L126 2.61833Z" fill="#84A1FF"/>
<path d="M126 2.61832L123.673 3.92526L90.5308 8.59293L89.3206 6.91257L121.718 2.33826L126 2.61832Z" fill="#667FFF"/>
<path d="M111.105 36.0388C113.059 36.0388 114.642 34.4506 114.642 32.4914C114.642 30.5322 113.059 28.944 111.105 28.944C109.151 28.944 107.567 30.5322 107.567 32.4914C107.567 34.4506 109.151 36.0388 111.105 36.0388Z" fill="#2A2E38"/>
<path d="M18.1023 23.1561C19.3877 23.1561 20.4297 22.1112 20.4297 20.8222C20.4297 19.5333 19.3877 18.4884 18.1023 18.4884C16.8169 18.4884 15.7749 19.5333 15.7749 20.8222C15.7749 22.1112 16.8169 23.1561 18.1023 23.1561Z" fill="#2A2E38"/>
<path d="M7.58262 29.0373C8.45668 29.0373 9.16524 28.3268 9.16524 27.4503C9.16524 26.5738 8.45668 25.8633 7.58262 25.8633C6.70856 25.8633 6 26.5738 6 27.4503C6 28.3268 6.70856 29.0373 7.58262 29.0373Z" fill="#2A2E38"/>
<path d="M107.009 21.0089C107.831 21.0089 108.498 20.3402 108.498 19.5153C108.498 18.6903 107.831 18.0216 107.009 18.0216C106.186 18.0216 105.519 18.6903 105.519 19.5153C105.519 20.3402 106.186 21.0089 107.009 21.0089Z" fill="#2A2E38"/>
<path d="M112.967 69.646C113.789 69.646 114.456 68.9773 114.456 68.1523C114.456 67.3274 113.789 66.6587 112.967 66.6587C112.144 66.6587 111.477 67.3274 111.477 68.1523C111.477 68.9773 112.144 69.646 112.967 69.646Z" fill="#2A2E38"/>
<path d="M29.6463 18.115C29.4601 18.115 29.1808 18.0216 28.9946 17.8349C28.9015 17.7416 28.8084 17.4615 28.9946 17.1814C29.0877 17.0881 29.8325 16.0612 30.7634 14.7542C31.5082 13.7274 32.4391 12.4204 33.1839 11.3002C33.9287 10.2733 33.9287 8.87299 33.1839 7.8461C32.5322 7.00592 31.5082 6.53916 30.4841 6.72586C30.1117 6.81922 29.6463 6.91257 29.367 7.19263C29.0877 7.37934 28.9015 7.6594 28.7153 7.93946C28.0636 8.87299 27.3189 9.99323 26.481 11.0201C25.7363 12.047 25.0846 12.9805 24.4329 13.8207C23.9674 14.4742 23.8744 15.1277 24.2467 15.6878C24.6191 16.2479 25.3639 16.6213 26.0155 16.528C26.481 16.4346 26.8534 16.2479 27.1327 15.7811C27.5982 15.1277 30.7634 10.6467 30.8565 10.5533C31.0427 10.2733 30.9496 9.89988 30.6703 9.71317C30.5772 9.71317 30.5772 9.61982 30.4841 9.61982C30.391 9.61982 30.391 9.61982 30.2979 9.61982C30.1117 9.61982 30.0187 9.80652 29.9256 9.89988L29.8325 10.0866C27.8775 12.8872 27.5051 13.3539 27.5051 13.3539C27.412 13.4473 27.3189 13.5407 27.1327 13.5407C26.9465 13.5407 26.7603 13.5407 26.6672 13.4473C26.3879 13.2606 26.2948 12.8872 26.481 12.6071L26.5741 12.5138C27.3189 11.4869 28.3429 9.99323 29.0877 8.96634C29.2739 8.68628 29.6463 8.49958 30.0186 8.40622C30.5772 8.31287 31.2289 8.49958 31.5082 8.87299C32.0667 9.52646 32.2529 10.1799 31.9737 10.9268C31.9737 11.0201 31.8806 11.1135 31.7875 11.2068C31.5082 11.5802 31.2289 12.047 30.8565 12.5138C29.9256 13.9141 28.8084 15.5011 27.8775 16.6213C27.412 17.2748 26.8534 17.6482 26.1086 17.7416C25.7363 17.8349 25.2708 17.8349 24.8984 17.6482C24.1536 17.4615 23.502 17.0881 23.0365 16.4346C22.571 15.7811 22.4779 15.0343 22.571 14.2875C22.6641 13.9141 22.8503 13.4473 23.0365 13.1672C23.502 12.5138 23.9674 11.8603 24.4329 11.2068L24.9915 10.46L25.0846 10.3666L25.7363 9.43311C26.2948 8.59293 26.9465 7.6594 27.412 7.00592C28.3429 6.07239 29.2739 5.60563 30.2979 5.41892C31.1358 5.32557 31.8806 5.41892 32.6253 5.69898C34.6734 6.72586 35.6044 9.2464 34.5803 11.3935C34.4872 11.5802 34.3941 11.7669 34.2079 11.9536C33.277 13.2606 32.0667 14.941 31.0427 16.4346L30.1117 17.7416C30.0187 17.9283 29.8325 18.0216 29.6463 18.115Z" fill="#F45CA4"/>
<path d="M125.348 40.6131C125.348 40.7998 125.162 40.9865 124.976 41.0799C124.883 41.0799 124.604 41.1732 124.417 40.8932C124.324 40.7998 123.673 39.9596 122.742 38.8394C121.997 37.9059 121.159 36.7856 120.321 35.8521C119.577 34.9185 118.366 34.6385 117.342 35.0119C116.411 35.292 115.76 36.1321 115.667 37.159C115.667 37.5324 115.667 37.9058 115.76 38.2793C115.853 38.5593 116.039 38.8394 116.225 39.0261C116.877 39.8663 117.622 40.7998 118.366 41.7333C119.018 42.5735 119.763 43.4137 120.321 44.1605C120.787 44.7206 121.345 44.9073 121.904 44.7206C122.462 44.5339 122.928 43.9738 123.021 43.3203C123.021 42.9469 122.928 42.4802 122.649 42.2001C122.183 41.64 119.111 37.8125 119.018 37.6258C118.832 37.4391 118.459 37.3457 118.273 37.5324C118.18 37.5324 118.18 37.6258 118.18 37.7191C118.18 37.7191 118.18 37.8125 118.087 37.9059C118.087 38.0926 118.18 38.1859 118.273 38.2793L118.366 38.3726C120.321 40.7998 120.601 41.1732 120.694 41.1732C120.787 41.2666 120.787 41.4533 120.787 41.5466C120.787 41.7333 120.694 41.8267 120.601 41.92C120.321 42.1067 120.042 42.1068 119.856 41.8267L119.763 41.7333C119.018 40.8932 117.994 39.5862 117.342 38.6527C117.156 38.3726 117.063 37.9992 117.063 37.7191C117.156 37.159 117.435 36.6923 117.901 36.5056C118.646 36.1321 119.204 36.2255 119.763 36.5989C119.856 36.6923 119.949 36.6923 119.949 36.7856C120.228 37.159 120.507 37.5324 120.787 37.9059C121.718 39.1194 122.835 40.4264 123.673 41.4533C124.138 42.0134 124.324 42.6669 124.231 43.227C124.231 43.6004 124.045 43.9738 123.859 44.3472C123.58 45.0007 123.021 45.4675 122.369 45.6542C121.718 45.8409 120.973 45.8409 120.414 45.4675C120.042 45.2808 119.763 45.0007 119.577 44.7206C119.111 44.1605 118.646 43.6004 118.18 43.0403L117.715 42.3868L117.622 42.2935L116.97 41.4533C116.411 40.7065 115.76 39.9596 115.294 39.3995C114.736 38.6527 114.456 37.7191 114.549 36.7856C114.642 36.0388 114.922 35.3853 115.387 34.8252C116.784 33.2382 119.204 33.1448 120.787 34.5451C120.973 34.6385 121.066 34.8252 121.252 35.0119C122.183 36.1321 123.3 37.5324 124.324 38.8394L125.255 39.9596C125.348 40.2397 125.442 40.4264 125.348 40.6131Z" fill="#84A1FF"/>
<defs>
<filter id="filter0_d" x="0.571045" y="0.300171" width="126.483" height="124.751" filterUnits="userSpaceOnUse" color-interpolation-filters="sRGB">
<feFlood flood-opacity="0" result="BackgroundImageFix"/>
<feColorMatrix in="SourceAlpha" type="matrix" values="0 0 0 0 0 0 0 0 0 0 0 0 0 0 0 0 0 0 127 0"/>
<feOffset dy="11"/>
<feGaussianBlur stdDeviation="11"/>
<feColorMatrix type="matrix" values="0 0 0 0 0 0 0 0 0 0 0 0 0 0 0 0 0 0 0.18 0"/>
<feBlend mode="normal" in2="BackgroundImageFix" result="effect1_dropShadow"/>
<feBlend mode="normal" in="SourceGraphic" in2="effect1_dropShadow" result="shape"/>
</filter>
<linearGradient id="paint0_linear" x1="63.6125" y1="79.4507" x2="63.6125" y2="44.2317" gradientUnits="userSpaceOnUse">
<stop offset="0.00289017" stop-color="#0D1932"/>
<stop offset="1" stop-color="#1C2533" stop-opacity="0"/>
</linearGradient>
<linearGradient id="paint1_linear" x1="46.4028" y1="80.2493" x2="43.1509" y2="75.5166" gradientUnits="userSpaceOnUse">
<stop offset="0.00289017" stop-color="#303647"/>
<stop offset="1" stop-color="#404759"/>
</linearGradient>
<linearGradient id="paint2_linear" x1="101.766" y1="67.3487" x2="101.766" y2="105.077" gradientUnits="userSpaceOnUse">
<stop stop-color="#FF66A9"/>
<stop offset="1" stop-color="#F53689"/>
</linearGradient>
<linearGradient id="paint3_linear" x1="102.455" y1="85.2942" x2="112.922" y2="95.732" gradientUnits="userSpaceOnUse">
<stop stop-color="#E81778"/>
<stop offset="1" stop-color="#E01F79" stop-opacity="0"/>
</linearGradient>
<linearGradient id="paint4_linear" x1="103.596" y1="87.9166" x2="100.185" y2="82.4987" gradientUnits="userSpaceOnUse">
<stop offset="0.0113208" stop-color="#FFC9E3"/>
<stop offset="1" stop-color="white"/>
</linearGradient>
</defs>
</svg>
