<svg width="159" height="142" viewBox="0 0 159 142" fill="none" xmlns="http://www.w3.org/2000/svg">
<path d="M80.3811 118.026C111.813 118.026 137.293 92.5059 137.293 61.0257C137.293 29.5455 111.813 4.0257 80.3811 4.0257C48.9495 4.0257 23.4692 29.5455 23.4692 61.0257C23.4692 92.5059 48.9495 118.026 80.3811 118.026Z" fill="#2A2E38"/>
<path d="M25.4923 27.6365C26.9959 27.1471 27.8186 25.5295 27.3299 24.0236C26.8412 22.5177 25.2261 21.6937 23.7225 22.1831C22.2189 22.6726 21.3962 24.2902 21.8849 25.7961C22.3736 27.302 23.9887 28.126 25.4923 27.6365Z" fill="#2A2E38"/>
<path d="M31.7415 18.2815C32.7639 17.9487 33.3234 16.8488 32.9911 15.8247C32.6588 14.8007 31.5605 14.2404 30.5381 14.5732C29.5156 14.9061 28.9562 16.006 29.2885 17.03C29.6208 18.0541 30.7191 18.6144 31.7415 18.2815Z" fill="#2A2E38"/>
<path d="M137.788 29.4564C139.562 27.8327 139.686 25.076 138.064 23.2992C136.443 21.5224 133.691 21.3983 131.917 23.022C130.143 24.6458 130.019 27.4024 131.64 29.1792C133.261 30.956 136.014 31.0801 137.788 29.4564Z" fill="#2A2E38"/>
<path d="M134.819 91.6951C135.566 91.0115 135.618 89.8507 134.936 89.1026C134.253 88.3545 133.094 88.3022 132.347 88.9859C131.6 89.6696 131.548 90.8303 132.231 91.5784C132.913 92.3266 134.072 92.3788 134.819 91.6951Z" fill="#2A2E39"/>
<path d="M37.0959 108.392C38.3607 108.392 39.3861 107.365 39.3861 106.098C39.3861 104.831 38.3607 103.804 37.0959 103.804C35.831 103.804 34.8057 104.831 34.8057 106.098C34.8057 107.365 35.831 108.392 37.0959 108.392Z" fill="url(#paint0_linear)"/>
<path d="M124.468 10.2188C125.48 10.2188 126.3 9.39729 126.3 8.38384C126.3 7.37039 125.48 6.54883 124.468 6.54883C123.456 6.54883 122.636 7.37039 122.636 8.38384C122.636 9.39729 123.456 10.2188 124.468 10.2188Z" fill="url(#paint1_linear)"/>
<g filter="url(#filter0_d)">
<path d="M136.72 53.571L117.597 103.919C116.91 105.639 114.963 106.442 113.36 105.754L64.693 86.6012C62.9754 85.913 62.1738 83.9633 62.8609 82.3577L88.1677 17.903C88.8548 16.1827 90.8015 15.3798 92.4046 16.068L127.674 29.9452L136.72 53.571Z" fill="#474E61"/>
</g>
<path d="M114.734 84.8808L85.534 73.412C85.076 73.2973 84.9615 72.8386 85.076 72.3798C85.1905 71.9211 85.6485 71.8064 86.1066 71.9211L115.307 83.3899C115.765 83.5046 115.879 83.9633 115.765 84.4221C115.536 84.7661 115.078 84.9955 114.734 84.8808Z" fill="#2C313D"/>
<path d="M81.8696 71.921L76.7166 69.8567C76.2586 69.742 76.1441 69.2832 76.2586 68.8245C76.3731 68.3657 76.8311 68.251 77.2892 68.3657L82.4422 70.4301C82.9002 70.5448 83.0147 71.0035 82.9002 71.4623C82.7857 71.921 82.3277 72.0357 81.8696 71.921Z" fill="#2C313D"/>
<path d="M117.712 76.9673L104.657 71.8064C104.199 71.6917 104.085 71.2329 104.199 70.7742C104.314 70.3154 104.772 70.2007 105.23 70.3154L118.284 75.4764C118.742 75.5911 118.857 76.0498 118.742 76.5086C118.628 76.9673 118.17 77.082 117.712 76.9673Z" fill="#2C313D"/>
<path d="M99.161 69.6273L80.1522 62.1726C79.6941 62.0579 79.5796 61.5991 79.6941 61.1404C79.8086 60.6816 80.2667 60.5669 80.7247 60.6816L99.7335 68.1364C100.192 68.251 100.306 68.7098 100.192 69.1685C100.077 69.6273 99.619 69.742 99.161 69.6273Z" fill="#2C313D"/>
<path d="M121.032 69.1685L115.994 67.2188C115.536 67.1041 115.421 66.6454 115.536 66.1866C115.65 65.7279 116.108 65.6132 116.567 65.7279L121.605 67.6776C122.063 67.7923 122.178 68.251 122.063 68.7098C121.949 69.1685 121.49 69.2832 121.032 69.1685Z" fill="#2C313D"/>
<path d="M111.299 65.2692L83.4727 54.2591C83.0147 54.1444 82.9002 53.6857 83.0147 53.2269C83.1292 52.7682 83.5872 52.6535 84.0453 52.7682L111.871 63.7782C112.329 63.8929 112.444 64.3517 112.329 64.8104C112.215 65.2692 111.757 65.4986 111.299 65.2692Z" fill="#2C313D"/>
<path d="M89.1985 84.7662L87.4808 84.078C87.0227 83.9633 86.9082 83.5046 87.0227 83.0458C87.1373 82.5871 87.5953 82.4724 88.0533 82.5871L89.771 83.2752C90.2291 83.3899 90.3436 83.8487 90.2291 84.3074C90 84.7662 89.542 84.8808 89.1985 84.7662Z" fill="#2C313D"/>
<path d="M84.2743 82.8164L73.9683 78.6876C73.5103 78.573 73.3958 78.1142 73.5103 77.6555C73.6248 77.1967 74.0829 77.082 74.5409 77.1967L84.8469 81.3255C85.3049 81.4402 85.4194 81.8989 85.3049 82.3577C85.1904 82.8164 84.6178 82.9311 84.2743 82.8164Z" fill="#2C313D"/>
<path d="M124.468 61.3698L106.49 54.2591C106.032 54.1444 105.917 53.6857 106.032 53.2269C106.146 52.7682 106.604 52.6535 107.062 52.7682L125.04 59.8788C125.498 59.9935 125.613 60.4523 125.498 60.911C125.384 61.3698 124.811 61.4845 124.468 61.3698Z" fill="#2C313D"/>
<path d="M100.65 51.9653L86.7938 46.4603C86.3357 46.3456 86.2212 45.8868 86.3357 45.4281C86.4502 44.9693 86.9083 44.8547 87.3663 44.9693L101.222 50.5891C101.68 50.7037 101.795 51.1625 101.68 51.6213C101.566 52.08 101.108 52.1947 100.65 51.9653Z" fill="#2C313D"/>
<path d="M117.482 38.0881L94.1222 28.913C93.5497 28.6836 93.3207 28.1102 93.5497 27.5368C93.7787 26.9633 94.3512 26.7339 94.9238 26.9633L118.284 36.1384C118.857 36.3678 119.086 36.9412 118.857 37.5146C118.628 38.0881 118.055 38.3175 117.482 38.0881Z" fill="#2C313D"/>
<path d="M100.879 37.9734L91.9467 34.418C91.3741 34.1887 91.1451 33.6152 91.3741 33.0418C91.6032 32.4683 92.1757 32.239 92.7483 32.4683L101.68 36.0237C102.253 36.253 102.482 36.8265 102.253 37.3999C102.024 37.9734 101.337 38.2027 100.879 37.9734Z" fill="#2C313D"/>
<path d="M127.674 29.9452L122.292 43.7078C121.49 45.6575 122.636 47.9512 124.468 48.6394L136.72 53.4563" fill="#354157"/>
<g filter="url(#filter1_d)">
<path d="M82.6712 31.8949L105.001 80.8668C105.688 82.5871 105.001 84.5368 103.283 85.2249L55.4176 106.328C53.7 107.016 51.7533 106.328 51.0662 104.607L23.2401 41.2994C22.553 39.579 23.2401 37.6293 24.9578 36.9412L59.6545 21.573L82.6712 31.8949Z" fill="#474E61"/>
</g>
<path d="M89.4272 69.5126L60.685 82.243C60.3415 82.4723 59.8835 82.243 59.6544 81.8989C59.4254 81.5548 59.6544 81.0961 59.998 80.8667L88.7402 68.1363C89.0837 67.907 89.5418 68.1363 89.7708 68.4804C89.9998 68.8245 89.7708 69.3979 89.4272 69.5126Z" fill="#2C313D"/>
<path d="M57.1354 83.734L52.0969 85.913C51.7534 86.1424 51.2953 85.913 51.0663 85.569C50.8373 85.2249 51.0663 84.7662 51.4098 84.5368L56.4483 82.3577C56.7918 82.1283 57.2499 82.3577 57.4789 82.7018C57.7079 83.1605 57.5934 83.6193 57.1354 83.734Z" fill="#2C313D"/>
<path d="M85.8774 61.8285L73.0522 67.4482C72.7087 67.6776 72.2507 67.4482 72.0216 67.1042C71.7926 66.7601 72.0216 66.3013 72.3652 66.072L85.1904 60.4523C85.5339 60.2229 85.9919 60.4523 86.221 60.7963C86.45 61.1404 86.3355 61.5991 85.8774 61.8285Z" fill="#2C313D"/>
<path d="M67.6704 69.8567L49.0051 78.1143C48.6616 78.3436 48.2035 78.1143 47.9745 77.7702C47.7455 77.4261 47.9745 76.9674 48.318 76.738L66.9833 68.4805C67.3268 68.2511 67.7849 68.4805 68.0139 68.8245C68.2429 69.2833 68.1284 69.742 67.6704 69.8567Z" fill="#2C313D"/>
<path d="M82.7858 53.9151L77.8618 56.0941C77.5183 56.3235 77.0602 56.0941 76.8312 55.7501C76.6022 55.406 76.8312 54.9473 77.1747 54.7179L82.0987 52.5388C82.4422 52.3094 82.9003 52.5388 83.1293 52.8829C83.3583 53.3416 83.1293 53.8004 82.7858 53.9151Z" fill="#2C313D"/>
<path d="M73.1669 58.1585L45.7988 70.3154C45.4553 70.5448 44.9972 70.3154 44.7682 69.9713C44.5392 69.6273 44.7682 69.1685 45.1117 68.9392L72.5943 56.7822C72.9379 56.5528 73.3959 56.7822 73.6249 57.1263C73.7394 57.585 73.6249 58.0438 73.1669 58.1585Z" fill="#2C313D"/>
<path d="M71.4491 87.6333L69.7314 88.4361C69.3879 88.6655 68.9299 88.4361 68.7008 88.0921C68.4718 87.748 68.7008 87.2893 69.0444 87.0599L70.762 86.2571C71.1056 86.0277 71.5636 86.2571 71.7926 86.6011C72.0216 86.9452 71.7926 87.404 71.4491 87.6333Z" fill="#2C313D"/>
<path d="M66.5252 89.8124L56.3337 94.2852C55.9902 94.5146 55.5321 94.2852 55.3031 93.9412C55.0741 93.5971 55.3031 93.1384 55.6467 92.909L65.8381 88.4361C66.1816 88.2068 66.6397 88.4361 66.8687 88.7802C67.0977 89.1243 66.9832 89.583 66.5252 89.8124Z" fill="#2C313D"/>
<path d="M79.5795 46.1162L61.9448 53.915C61.6013 54.1444 61.1432 53.915 60.9142 53.571C60.6852 53.2269 60.9142 52.7681 61.2577 52.5388L78.8924 44.74C79.2359 44.5106 79.694 44.74 79.923 45.084C80.152 45.4281 79.923 45.8869 79.5795 46.1162Z" fill="#2C313D"/>
<path d="M56.2193 56.4382L42.5925 62.402C42.249 62.6314 41.7909 62.402 41.5619 62.0579C41.3329 61.7138 41.5619 61.2551 41.9054 61.0257L55.5322 55.0619C55.8758 54.8326 56.3338 55.0619 56.5628 55.406C56.7919 55.7501 56.6773 56.2088 56.2193 56.4382Z" fill="#2C313D"/>
<path d="M58.1658 34.6474L35.1491 44.74C34.5766 44.9693 34.004 44.74 33.775 44.1665C33.546 43.5931 33.775 43.0196 34.3476 42.7903L57.2497 32.6977C57.8223 32.4683 58.3948 32.6977 58.6239 33.2711C58.8529 33.8446 58.6239 34.418 58.1658 34.6474Z" fill="#2C313D"/>
<path d="M46.3713 46.4603L37.5539 50.3597C36.9814 50.5891 36.4088 50.3597 36.1798 49.7863C35.9508 49.2128 36.1798 48.6394 36.7524 48.41L45.5697 44.5106C46.1422 44.2813 46.7148 44.5106 46.9438 45.0841C47.1728 45.5428 46.9438 46.2309 46.3713 46.4603Z" fill="#2C313D"/>
<path d="M59.6545 21.6875L65.6091 35.2207C66.4107 37.0557 68.8154 37.9732 70.6476 37.1704L82.6712 31.8947" fill="#E6EDF5"/>
<g filter="url(#filter2_d)">
<path d="M117.826 35.6796L118.628 104.492C118.628 106.786 116.795 108.736 114.391 108.736H47.6309C45.3407 108.736 43.394 106.901 43.394 104.492V16.0679C43.394 13.7742 45.2262 11.8245 47.6309 11.8245H96.069L117.826 35.6796Z" fill="#474E61"/>
</g>
<path d="M75.9151 94.9734H73.5103C72.9378 94.9734 72.4797 94.5146 72.4797 93.9412C72.4797 93.3678 72.9378 92.909 73.5103 92.909H75.9151C76.4876 92.909 76.9457 93.3678 76.9457 93.9412C76.9457 94.5146 76.4876 94.9734 75.9151 94.9734Z" fill="#2C313D"/>
<path d="M69.1591 94.9734H54.9598C54.3872 94.9734 53.9292 94.5146 53.9292 93.9412C53.9292 93.3678 54.3872 92.909 54.9598 92.909H69.1591C69.7317 92.909 70.1897 93.3678 70.1897 93.9412C70.1897 94.5146 69.7317 94.9734 69.1591 94.9734Z" fill="#2C313D"/>
<path d="M87.7096 26.2752H55.6466C54.9595 26.2752 54.2725 25.7018 54.2725 24.899C54.2725 24.2108 54.845 23.5227 55.6466 23.5227H87.7096C88.3967 23.5227 89.0837 24.0961 89.0837 24.899C88.9692 25.7018 88.3967 26.2752 87.7096 26.2752Z" fill="#2C313D"/>
<path d="M67.8992 33.9593H55.6466C54.9595 33.9593 54.2725 33.3859 54.2725 32.583C54.2725 31.8949 54.845 31.2068 55.6466 31.2068H67.8992C68.5863 31.2068 69.2734 31.7802 69.2734 32.583C69.1589 33.3859 68.5863 33.9593 67.8992 33.9593Z" fill="#2C313D"/>
<path d="M96.0691 11.939V30.8626C96.0691 33.5004 98.3593 35.6795 100.993 35.6795H117.826" fill="#354157"/>
<path d="M107.291 48.41H90.5724C90.5724 48.41 90.5724 48.41 90.4579 48.41C90.4579 48.41 90.4579 48.41 90.3434 48.41H73.1668C73.1668 48.41 73.1668 48.41 73.0523 48.41C73.0523 48.41 73.0523 48.41 72.9378 48.41H56.7918C54.9596 48.41 53.5854 49.9009 53.5854 51.7359V80.8667C53.5854 82.7017 55.0741 84.1927 56.7918 84.1927H107.176C109.009 84.1927 110.383 82.7017 110.383 80.8667V51.7359C110.497 49.9009 109.009 48.41 107.291 48.41ZM74.0829 74.2148V67.6776H89.5418V74.2148H74.0829ZM89.5418 76.1645V82.243H74.0829V76.1645H89.5418ZM89.5418 59.076V65.6132H74.0829V59.076H89.5418ZM74.0829 57.1263V50.3597H89.5418V57.1263H74.0829ZM108.551 65.6132H91.4885V59.076H108.551V65.6132ZM72.1362 65.6132H55.5321V59.076H72.0217V65.6132H72.1362ZM55.5321 67.6776H72.0217V74.2148H55.5321V67.6776ZM91.4885 67.6776H108.551V74.2148H91.4885V67.6776ZM108.551 51.7359V57.1263H91.4885V50.3597H107.291C107.978 50.3597 108.551 50.9331 108.551 51.7359ZM56.7918 50.3597H72.0217V57.1263H55.5321V51.7359C55.5321 50.9331 56.1047 50.3597 56.7918 50.3597ZM55.5321 80.8667V76.1645H72.0217V82.243H56.7918C56.1047 82.243 55.5321 81.6695 55.5321 80.8667ZM107.291 82.243H91.4885V76.1645H108.551V80.8667C108.551 81.6695 107.978 82.243 107.291 82.243Z" fill="#2C313D"/>
<path d="M103.97 50.0156C102.825 50.0156 100.077 48.9835 99.1608 48.6394C94.3513 46.4603 86.4501 40.0378 82.0987 40.0378C77.7473 40.0378 69.846 46.3456 65.0366 48.6394C64.235 48.9835 61.3722 50.0156 60.2271 50.0156C58.3949 50.1303 57.0208 51.736 57.2498 53.4563C57.7079 57.6998 58.853 65.2692 61.8303 75.0177C65.7236 87.0599 76.4876 94.2853 80.61 96.6937C81.6406 97.2672 82.7857 97.2672 83.8163 96.6937C87.9387 94.2853 98.7027 87.0599 102.367 75.0177C105.344 65.2692 106.489 57.6998 106.948 53.4563C107.177 51.6213 105.802 50.0156 103.97 50.0156Z" fill="url(#paint2_linear)"/>
<path d="M100.764 55.406C100.421 58.1585 99.7335 62.402 98.3594 67.6776C98.1304 68.5951 97.9013 69.6273 97.5578 70.5448C97.3288 71.4623 97.0998 72.2652 96.7562 73.1827C93.8935 82.3577 85.9922 88.0921 82.0989 90.3859C82.0989 90.3859 82.0989 90.3859 81.9843 90.3859C81.9843 90.3859 81.9843 90.3859 81.8698 90.3859C81.5263 90.1565 81.1828 89.9271 80.7247 89.6977C76.6023 86.9452 69.9607 81.5549 67.4415 73.2973C66.8689 71.3477 66.2964 69.5126 65.8383 67.6776C64.4642 62.402 63.7771 58.1585 63.4336 55.406C65.3803 55.0619 67.556 54.1444 68.014 53.9151C69.7317 53.1122 71.7929 51.8507 73.8541 50.5891C76.1443 49.2128 80.1522 46.6897 81.7553 46.4603C81.7553 46.4603 81.7553 46.4603 81.8698 46.4603C81.8698 46.4603 81.8698 46.4603 81.9843 46.4603C83.473 46.4603 87.7099 49.0982 90.1146 50.5891C92.1758 51.8507 94.237 53.1122 95.9547 53.9151C96.6417 54.1444 98.8174 55.0619 100.764 55.406Z" fill="url(#paint3_linear)"/>
<path d="M79.4649 50.5891L81.9841 46.4603L99.3898 63.8929L89.5419 82.9312L83.8163 85.4543L65.9526 67.6776L69.0444 64.9251L79.2359 50.9332L79.4649 50.5891Z" fill="url(#paint4_linear)"/>
<path d="M75.3425 61.7138L66.9832 66.3014L65.9526 67.6776L82.5567 68.7098L82.0987 46.4603L75.3425 61.7138Z" fill="#C1CCF7"/>
<path d="M81.9841 46.4603V67.5629H65.9526C64.5785 62.2873 63.8914 58.0438 63.5479 55.2913C65.4945 54.9472 67.6702 54.0297 68.1283 53.8004C69.8459 52.9976 71.9071 51.736 73.9683 50.4744C76.3731 49.2128 80.3809 46.6897 81.9841 46.4603Z" fill="url(#paint5_linear)"/>
<path d="M98.3592 67.6776C98.1302 68.5951 97.9011 69.6273 97.5576 70.5448C97.3286 71.4623 97.0996 72.2651 96.756 73.1826C93.8933 82.3577 85.992 88.0921 82.0986 90.3859C82.0986 90.3859 82.0986 90.3859 81.9841 90.3859V67.6776H98.3592Z" fill="url(#paint6_linear)"/>
<defs>
<filter id="filter0_d" x="40.6155" y="4.8222" width="118.105" height="134.178" filterUnits="userSpaceOnUse" color-interpolation-filters="sRGB">
<feFlood flood-opacity="0" result="BackgroundImageFix"/>
<feColorMatrix in="SourceAlpha" type="matrix" values="0 0 0 0 0 0 0 0 0 0 0 0 0 0 0 0 0 0 127 0"/>
<feOffset dy="11"/>
<feGaussianBlur stdDeviation="11"/>
<feColorMatrix type="matrix" values="0 0 0 0 0 0 0 0 0 0 0 0 0 0 0 0 0 0 0.18 0"/>
<feBlend mode="normal" in2="BackgroundImageFix" result="effect1_dropShadow"/>
<feBlend mode="normal" in="SourceGraphic" in2="effect1_dropShadow" result="shape"/>
</filter>
<filter id="filter1_d" x="0.976807" y="10.573" width="126.287" height="129.018" filterUnits="userSpaceOnUse" color-interpolation-filters="sRGB">
<feFlood flood-opacity="0" result="BackgroundImageFix"/>
<feColorMatrix in="SourceAlpha" type="matrix" values="0 0 0 0 0 0 0 0 0 0 0 0 0 0 0 0 0 0 127 0"/>
<feOffset dy="11"/>
<feGaussianBlur stdDeviation="11"/>
<feColorMatrix type="matrix" values="0 0 0 0 0 0 0 0 0 0 0 0 0 0 0 0 0 0 0.18 0"/>
<feBlend mode="normal" in2="BackgroundImageFix" result="effect1_dropShadow"/>
<feBlend mode="normal" in="SourceGraphic" in2="effect1_dropShadow" result="shape"/>
</filter>
<filter id="filter2_d" x="21.394" y="0.824463" width="119.234" height="140.911" filterUnits="userSpaceOnUse" color-interpolation-filters="sRGB">
<feFlood flood-opacity="0" result="BackgroundImageFix"/>
<feColorMatrix in="SourceAlpha" type="matrix" values="0 0 0 0 0 0 0 0 0 0 0 0 0 0 0 0 0 0 127 0"/>
<feOffset dy="11"/>
<feGaussianBlur stdDeviation="11"/>
<feColorMatrix type="matrix" values="0 0 0 0 0 0 0 0 0 0 0 0 0 0 0 0 0 0 0.18 0"/>
<feBlend mode="normal" in2="BackgroundImageFix" result="effect1_dropShadow"/>
<feBlend mode="normal" in="SourceGraphic" in2="effect1_dropShadow" result="shape"/>
</filter>
<linearGradient id="paint0_linear" x1="34.8045" y1="106.046" x2="39.3428" y2="106.046" gradientUnits="userSpaceOnUse">
<stop stop-color="#FF66A9"/>
<stop offset="1" stop-color="#F53689"/>
</linearGradient>
<linearGradient id="paint1_linear" x1="122.701" y1="8.38521" x2="126.256" y2="8.38521" gradientUnits="userSpaceOnUse">
<stop stop-color="#FF66A9"/>
<stop offset="1" stop-color="#F53689"/>
</linearGradient>
<linearGradient id="paint2_linear" x1="79.385" y1="57.671" x2="95.5474" y2="80.3115" gradientUnits="userSpaceOnUse">
<stop stop-color="#83A6FF"/>
<stop offset="1" stop-color="#5A78FF"/>
</linearGradient>
<linearGradient id="paint3_linear" x1="95.648" y1="80.2947" x2="73.4268" y2="52.0412" gradientUnits="userSpaceOnUse">
<stop stop-color="#83A6FF"/>
<stop offset="1" stop-color="#5A78FF"/>
</linearGradient>
<linearGradient id="paint4_linear" x1="76.8067" y1="56.2599" x2="86.4614" y2="71.7906" gradientUnits="userSpaceOnUse">
<stop stop-color="#4F6AFF"/>
<stop offset="1" stop-color="#657EFF" stop-opacity="0"/>
</linearGradient>
<linearGradient id="paint5_linear" x1="63.6296" y1="57.069" x2="82.0679" y2="57.069" gradientUnits="userSpaceOnUse">
<stop offset="0.0113208" stop-color="#C2D1FF"/>
<stop offset="1" stop-color="white"/>
</linearGradient>
<linearGradient id="paint6_linear" x1="92.4356" y1="81.2034" x2="79.9177" y2="68.7047" gradientUnits="userSpaceOnUse">
<stop offset="0.0113208" stop-color="#C2D1FF"/>
<stop offset="1" stop-color="white"/>
</linearGradient>
</defs>
</svg>
