<svg width="121" height="126" viewBox="0 0 121 126" fill="none" xmlns="http://www.w3.org/2000/svg">
<path d="M59.3578 101.993C86.0789 101.993 107.741 80.3296 107.741 53.6063C107.741 26.8831 86.0789 5.21959 59.3578 5.21959C32.6366 5.21959 10.9749 26.8831 10.9749 53.6063C10.9749 80.3296 32.6366 101.993 59.3578 101.993Z" fill="#2A2E39"/>
<g filter="url(#filter0_d)">
<path d="M32.0025 41.6169H85.4476C87.4919 41.6169 89.2442 43.272 89.2442 45.4139V79.0996C89.2442 81.1441 87.5893 82.8965 85.4476 82.8965H32.0025C29.9581 82.8965 28.2058 81.2414 28.2058 79.0996V45.4139C28.2058 43.3693 29.9581 41.6169 32.0025 41.6169Z" fill="#1E242D"/>
</g>
<path d="M115.661 41.5174C117.169 40.1391 117.274 37.7989 115.896 36.2906C114.518 34.7823 112.178 34.677 110.67 36.0553C109.161 37.4337 109.056 39.7738 110.434 41.2821C111.813 42.7904 114.152 42.8958 115.661 41.5174Z" fill="#2A2E39"/>
<path d="M115.934 25.069C116.569 24.4887 116.613 23.5033 116.033 22.8683C115.453 22.2332 114.467 22.1888 113.832 22.7692C113.197 23.3496 113.153 24.3349 113.733 24.9699C114.314 25.605 115.299 25.6494 115.934 25.069Z" fill="#2A2E39"/>
<path d="M76.6379 2.30358C77.0745 1.90458 77.105 1.22718 76.706 0.790562C76.307 0.353946 75.6297 0.323451 75.1931 0.72245C74.7565 1.12145 74.726 1.79885 75.125 2.23546C75.524 2.67208 76.2013 2.70258 76.6379 2.30358Z" fill="#2A2E39"/>
<path d="M108.633 23.879L95.2963 47.5367C94.8096 48.3156 93.836 48.6077 93.0572 48.1209L70.2775 34.8802C69.4987 34.3934 69.2065 33.42 69.6933 32.6412L87.2162 2.46032C87.703 1.68146 88.6765 1.3893 89.4553 1.87608L106.005 11.5144L108.633 23.879Z" fill="#69738D"/>
<path d="M105.907 11.4172L102.111 17.8429C101.624 18.8164 101.916 19.8876 102.792 20.4717L108.536 23.7818" fill="#354157"/>
<path d="M90.2341 17.6484C90.6235 17.5511 91.0128 17.551 91.3048 17.551C91.6942 17.551 92.0838 17.551 92.4732 17.551C92.8626 17.6483 93.3492 17.7455 93.7386 17.8428C94.2253 18.0376 94.6148 18.2324 95.0042 18.4271C95.5883 18.7192 96.075 19.1088 96.4644 19.5956C96.8538 19.985 97.146 20.4718 97.3407 21.0559C97.5354 21.5427 97.5354 22.1265 97.5354 22.6133C97.438 23.1974 97.2432 23.7818 96.9512 24.2685C96.6591 24.7553 96.3671 25.1446 95.9777 25.534C95.5883 25.8261 95.2963 26.021 94.8095 26.2157C94.4201 26.4104 94.0308 26.5076 93.6414 26.5076L92.5704 26.605C92.2784 26.605 91.9863 26.7026 91.5969 26.7999C91.3049 26.8973 91.1102 26.9946 90.9155 27.1893L89.8446 28.5522L88.0925 27.5786L88.8711 25.8264C88.9685 25.5343 89.2606 25.2419 89.4553 25.0472C89.7473 24.8525 90.0393 24.7552 90.3314 24.6579C90.7207 24.5605 91.0129 24.5608 91.4023 24.4634C91.7917 24.4634 92.181 24.3659 92.5704 24.2685C92.9598 24.1712 93.252 24.0739 93.6414 23.8792C94.0308 23.6845 94.2255 23.3925 94.4202 23.0031C94.5176 22.8084 94.6147 22.516 94.7121 22.2239C94.7121 21.9319 94.7122 21.7374 94.6149 21.5427C94.5175 21.2506 94.42 21.0557 94.2253 20.861C94.0306 20.6663 93.836 20.4715 93.5439 20.2768C93.2519 20.0821 92.8626 19.8874 92.4732 19.79C92.1812 19.6926 91.889 19.6925 91.5969 19.6925C91.3049 19.6925 91.1102 19.6925 90.9155 19.6925C90.8182 19.6925 90.6236 19.6929 90.5262 19.5956C90.3315 19.4982 90.1367 19.206 90.1367 19.0113L90.2341 17.6484ZM85.0745 30.8887C85.1719 30.694 85.3666 30.4996 85.5613 30.3049C85.756 30.2075 85.9508 30.0125 86.1455 30.0125C86.6322 29.9152 87.1189 29.9154 87.5083 30.2075C87.703 30.3048 87.8978 30.4995 88.0925 30.6942C88.1898 30.889 88.287 31.0838 88.3844 31.2785C88.6764 32.2521 88.0925 33.2254 87.119 33.5175C86.6322 33.6149 86.1454 33.5173 85.756 33.3226C85.5613 33.2253 85.3667 33.0305 85.172 32.8358C85.0746 32.6411 84.8799 32.4468 84.8799 32.2521C84.7825 32.0573 84.7825 31.7651 84.8799 31.5704C84.8799 31.2783 84.9772 31.0834 85.0745 30.8887Z" fill="#2C313D"/>
<path d="M23.0628 13.5592L38.3466 29.4283C38.8334 30.0124 38.8333 30.7913 38.2492 31.3754L22.6732 46.0765C22.0891 46.5633 21.3103 46.5632 20.7262 45.9791L1.35368 25.437C0.86693 24.8529 0.867025 24.074 1.45112 23.4899L12.7436 12.8775L23.0628 13.5592Z" fill="#69738D"/>
<path d="M12.7437 12.7805L16.9297 17.1616C17.5138 17.7458 18.4874 17.7458 19.1688 17.1616L23.0628 13.4617" fill="#354157"/>
<path d="M13.9116 26.4106C13.9116 26.1185 14.0092 25.826 14.1065 25.534C14.2039 25.2419 14.301 24.9499 14.3984 24.6578C14.4957 24.3658 14.6904 24.0738 14.8851 23.7817C15.0798 23.4897 15.3719 23.1977 15.664 22.9056C16.0534 22.5162 16.4428 22.2242 16.9296 22.0295C17.319 21.8348 17.8058 21.7371 18.1952 21.7371C18.5846 21.7371 19.0714 21.8347 19.4608 21.932C19.8502 22.1267 20.2395 22.4186 20.6289 22.7107C20.921 23.0028 21.213 23.3923 21.3103 23.7817C21.4077 24.0738 21.5051 24.4633 21.6024 24.8528C21.6024 25.1448 21.6024 25.5343 21.6024 25.8263C21.5051 26.1184 21.5051 26.4104 21.4078 26.7025C21.4078 26.9945 21.3103 27.1891 21.3103 27.4811C21.3103 27.6758 21.3103 27.8706 21.505 28.0654L22.2838 29.2338L21.1157 30.3049L19.9475 29.2338C19.7528 29.0391 19.5581 28.8442 19.4608 28.5522C19.3634 28.2601 19.3633 28.0656 19.3633 27.7735C19.3633 27.4814 19.4608 27.1894 19.4608 26.8974C19.5581 26.6053 19.558 26.3128 19.558 26.0208C19.558 25.7287 19.5581 25.4367 19.4608 25.1446C19.3634 24.8526 19.1687 24.5606 18.974 24.2685C18.8767 24.0738 18.682 23.9765 18.4873 23.8792C18.2926 23.7818 18.0978 23.7817 17.9031 23.7817C17.7084 23.7817 17.5136 23.8793 17.3189 23.9766C17.1242 24.074 16.9296 24.1713 16.7349 24.366C16.5402 24.5607 16.3454 24.8525 16.1507 25.0472C16.0534 25.2419 15.956 25.4368 15.8586 25.7289C15.7613 25.9236 15.7614 26.1183 15.7614 26.2157C15.7614 26.313 15.6641 26.4102 15.5668 26.5075C15.4694 26.7023 15.1773 26.7024 14.9826 26.605L13.9116 26.4106ZM23.0627 33.42C22.9653 33.3227 22.8679 33.128 22.7706 32.9332C22.6732 32.7385 22.6731 32.5437 22.6731 32.349C22.6731 31.9596 22.8678 31.5705 23.1599 31.2785C23.2572 31.1811 23.4519 31.0835 23.6466 30.9861C23.8413 30.8887 24.0361 30.8886 24.2308 30.8886C24.8149 30.8886 25.3989 31.2781 25.5936 31.8622C25.691 32.0569 25.6911 32.2517 25.6911 32.4465C25.6911 32.6412 25.5936 32.836 25.5936 33.0307C25.4963 33.2254 25.399 33.3228 25.2043 33.5175C25.107 33.6148 24.9123 33.8094 24.7176 33.8094C24.3282 33.9067 23.9387 33.9067 23.6466 33.8094C23.3546 33.712 23.16 33.6147 23.0627 33.42Z" fill="#2C313D"/>
<path d="M62.7814 38.5803L56.8429 59.7066C56.6482 60.3881 55.8695 60.8748 55.188 60.5827L34.6471 54.5468C33.9656 54.3521 33.479 53.5731 33.771 52.8916L41.7537 25.7289C41.9484 25.0474 42.7271 24.5607 43.4086 24.8528L58.3032 29.2339L62.7814 38.5803Z" fill="#69738D"/>
<path d="M58.3031 29.3313L56.5507 35.1728C56.356 35.9516 56.8429 36.8278 57.6217 37.1199L62.7813 38.6772" fill="#354157"/>
<path d="M47.108 37.2169C47.4 37.1195 47.692 37.0224 47.984 36.925C48.2761 36.8277 48.5681 36.7301 48.9575 36.7301C49.3469 36.7301 49.6391 36.7301 50.0285 36.7301C50.4179 36.7301 50.8072 36.8277 51.1966 36.925C51.6834 37.0224 52.1703 37.3146 52.5597 37.6067C52.9491 37.8988 53.2411 38.1908 53.5332 38.5803C53.7279 38.9697 53.9226 39.3589 54.0199 39.7483C54.1173 40.2351 54.0198 40.7218 53.9225 41.1112C53.8251 41.5006 53.6303 41.8902 53.3383 42.2797C53.1436 42.5717 52.8517 42.8636 52.5597 43.0583C52.2676 43.2531 51.9754 43.4478 51.6834 43.5451L50.8073 43.8375C50.6126 43.9348 50.3206 44.032 50.1259 44.1294C49.9312 44.2267 49.7364 44.4214 49.7364 44.6162L49.1524 45.8821L47.5947 45.3953L47.8868 43.8375C47.8868 43.5454 48.0814 43.3505 48.2761 43.1558C48.4708 42.9611 48.6655 42.7664 48.9575 42.669C49.2496 42.5717 49.5417 42.4745 49.7364 42.3771C50.0284 42.2798 50.3206 42.1825 50.6127 41.9878C50.9047 41.8904 51.0992 41.6957 51.3913 41.501C51.586 41.3063 51.7807 41.0138 51.878 40.6244C51.9754 40.4297 51.9755 40.2354 51.9755 40.0406C51.9755 39.8459 51.8782 39.6511 51.7808 39.4564C51.6835 39.2617 51.4888 39.1643 51.2941 38.9696C51.0994 38.8723 50.9047 38.7746 50.6127 38.6773C50.3206 38.5799 50.0286 38.5803 49.6392 38.5803C49.4445 38.5803 49.1522 38.5799 48.9575 38.6773C48.7628 38.6773 48.5681 38.7747 48.4708 38.7747C48.3734 38.7747 48.2762 38.8721 48.0815 38.7747C47.8868 38.7747 47.6922 38.5801 47.6922 38.3854L47.108 37.2169ZM45.6477 48.7054C45.7451 48.5107 45.7451 48.3159 45.9398 48.2186C46.0372 48.0239 46.2318 47.9266 46.3291 47.8292C46.7185 47.6345 47.108 47.6344 47.4001 47.7318C47.5948 47.8292 47.7895 47.9263 47.8868 48.0237C47.9842 48.121 48.1788 48.3157 48.2761 48.413C48.6655 49.0945 48.3736 49.9707 47.6922 50.3602C47.3028 50.5549 46.9133 50.555 46.6212 50.4576C46.4265 50.3603 46.2318 50.3604 46.1345 50.1657C45.9398 50.0684 45.8425 49.8738 45.7452 49.7764C45.6478 49.5817 45.6476 49.4843 45.5503 49.2896C45.5503 49.0949 45.5504 48.9001 45.6477 48.7054Z" fill="#2C313D"/>
<path d="M111.003 74.7046L91.6207 85.1679C90.9933 85.5032 90.1044 85.284 89.8462 84.592L80.0597 65.6607C79.7311 65.0365 79.9592 64.1452 80.6536 63.8797L105.813 50.6762C106.44 50.341 107.329 50.5598 107.587 51.2518L114.681 64.982L111.003 74.7046Z" fill="#69738D"/>
<path d="M114.566 65.0212L109.135 67.8346C108.438 68.2376 108.139 69.1967 108.464 69.9583L110.891 74.7413" fill="#354157"/>
<path d="M101.131 62.4533C101.403 62.5947 101.674 62.7365 101.945 62.8779C102.217 63.0194 102.489 63.1608 102.757 63.4398C103.025 63.7189 103.226 63.928 103.494 64.2071C103.762 64.4861 103.959 64.8333 104.157 65.1801C104.422 65.5968 104.546 66.1487 104.603 66.6312C104.66 67.1137 104.65 67.5264 104.569 68.007C104.422 68.4177 104.274 68.8286 104.059 69.1697C103.774 69.5785 103.356 69.8476 103.007 70.0491C102.658 70.2506 102.243 70.3825 101.76 70.4445C101.415 70.5084 101.003 70.5024 100.661 70.4287C100.319 70.3551 99.9773 70.2815 99.7058 70.14L98.8915 69.7153C98.6871 69.6436 98.4154 69.5024 98.211 69.4306C98.0066 69.3589 97.7318 69.3551 97.591 69.4907L96.2739 69.9535L95.5535 68.4982L96.8809 67.6224C97.0921 67.419 97.3668 67.4232 97.6416 67.4271C97.9164 67.431 98.1912 67.4349 98.4627 67.5764C98.7341 67.7178 99.0058 67.8591 99.2102 67.9309C99.4817 68.0723 99.753 68.2138 100.095 68.2875C100.366 68.429 100.641 68.4329 100.983 68.5066C101.258 68.5105 101.603 68.4466 101.952 68.2451C102.3 68.0437 102.652 67.7045 102.662 67.2918C102.736 67.0864 102.672 66.8791 102.679 66.6039C102.616 66.3966 102.552 66.1892 102.421 65.9121C102.29 65.635 102.089 65.4256 101.892 65.0788C101.758 64.9392 101.557 64.73 101.352 64.6583C101.218 64.5188 101.014 64.4472 100.947 64.3774C100.88 64.3076 100.742 64.3057 100.679 64.0984C100.545 63.9589 100.551 63.6837 100.692 63.5481L101.131 62.4533ZM91.8899 69.3409C92.0977 69.275 92.2386 69.1394 92.443 69.2111C92.6508 69.1453 92.8556 69.2168 92.993 69.2188C93.4019 69.3622 93.6696 69.6414 93.8003 69.9185C93.8639 70.1259 93.9277 70.3331 93.9243 70.4706C93.9209 70.6082 93.9144 70.8834 93.911 71.021C93.8339 71.3639 93.4817 71.7029 93.2035 71.8366C92.9957 71.9025 92.7879 71.9683 92.6505 71.9664C92.5131 71.9644 92.2384 71.9605 92.101 71.9585C91.6921 71.8151 91.4239 71.5361 91.2932 71.259C91.2296 71.0516 91.1658 70.8444 91.1692 70.7068C91.1055 70.4995 91.1796 70.2939 91.183 70.1564C91.2568 69.951 91.3976 69.8154 91.4009 69.6778C91.5417 69.5422 91.7492 69.4765 91.8899 69.3409Z" fill="#2C313D"/>
<path d="M62.4894 12.2937L61.9052 12.1963C61.6131 12.1963 61.4186 12.0016 61.3212 11.7095C61.2239 11.5148 61.2237 11.3201 61.1263 11.2227C61.029 11.028 61.0291 10.7357 61.2238 10.541L61.5159 10.0542C61.7106 9.76215 61.7105 9.37282 61.4184 9.1781L60.4449 8.20452C60.1529 7.91245 59.7636 7.91236 59.5689 8.10707L59.0821 8.39943C58.8874 8.59415 58.5953 8.59376 58.3033 8.49641C58.1086 8.39905 57.9139 8.30198 57.8165 8.30198C57.5245 8.20462 57.4271 8.00981 57.3298 7.71774L57.2323 7.1335C57.135 6.74407 56.843 6.54926 56.5509 6.54926H55.1881C54.7987 6.54926 54.5067 6.84142 54.5067 7.1335L54.4093 7.71774C54.4093 8.00981 54.2146 8.20462 53.9225 8.30198C53.7278 8.39933 53.5331 8.39905 53.4358 8.49641C53.2411 8.59376 52.9491 8.59415 52.7544 8.39943L52.2676 8.10707C51.9756 7.91236 51.586 7.91245 51.3913 8.20452L50.4178 9.1781C50.1258 9.47017 50.1259 9.85951 50.3206 10.0542L50.6127 10.541C50.8074 10.7357 50.8073 11.028 50.7099 11.2227C50.6126 11.4174 50.5153 11.6121 50.5153 11.7095C50.4179 12.0016 50.2231 12.0989 49.9311 12.1963L49.3471 12.2937C48.9577 12.3911 48.7629 12.6829 48.7629 12.975V14.3379C48.7629 14.7273 49.0551 15.0196 49.3471 15.0196L49.9311 15.117C50.2231 15.117 50.4179 15.3117 50.5153 15.6038C50.6126 15.7985 50.6126 15.9932 50.7099 16.0906C50.8073 16.2853 50.8074 16.5772 50.6127 16.8693L50.3206 17.356C50.1259 17.6481 50.1258 18.0375 50.4178 18.3296L51.3913 19.3032C51.6834 19.5953 52.0729 19.5954 52.2676 19.4006L52.7544 19.1088C52.9491 18.914 53.2411 18.914 53.4358 19.0113C53.6305 19.1087 53.8252 19.2057 53.9225 19.2057C54.2146 19.3031 54.3119 19.4979 54.4093 19.79L54.5067 20.3742C54.6041 20.7637 54.8961 20.9585 55.1881 20.9585H56.5509C56.9403 20.9585 57.2323 20.6663 57.2323 20.3742L57.3298 19.79C57.3298 19.4979 57.5245 19.3031 57.8165 19.2057C58.0112 19.1084 58.2059 19.1087 58.3033 19.0113C58.498 18.914 58.7901 18.914 59.0821 19.1088L59.5689 19.4006C59.8609 19.5954 60.2502 19.5953 60.4449 19.3032L61.4184 18.3296C61.7105 18.0375 61.7106 17.6481 61.5159 17.356L61.2238 16.8693C61.0291 16.6745 61.029 16.3827 61.1263 16.0906C61.2237 15.8959 61.3212 15.7012 61.3212 15.6038C61.4186 15.3117 61.6131 15.2144 61.9052 15.117L62.4894 15.0196C62.8788 14.9222 63.0733 14.6299 63.0733 14.3379V12.975C63.0733 12.5855 62.8788 12.2937 62.4894 12.2937ZM56.0642 15.9931C54.7013 15.9931 53.6304 14.9222 53.6304 13.5592C53.6304 12.1962 54.7013 11.1253 56.0642 11.1253C57.4271 11.1253 58.4979 12.1962 58.4979 13.5592C58.4006 14.9222 57.3297 15.9931 56.0642 15.9931Z" fill="url(#paint0_linear)"/>
<path d="M14.6905 64.9638L14.3012 64.8668C14.1065 64.8668 14.009 64.6718 13.9116 64.5745C13.9116 64.4771 13.8143 64.2825 13.717 64.1851C13.6196 63.9904 13.6197 63.7957 13.8144 63.6983L14.0091 63.4065C14.1064 63.2117 14.1064 62.9195 14.0091 62.7248L13.3277 62.0431C13.133 61.8484 12.841 61.8484 12.6463 62.0431L12.3542 62.238C12.1595 62.3353 11.9648 62.3353 11.8674 62.238C11.7701 62.1406 11.5752 62.1404 11.4779 62.0431C11.2832 61.9457 11.186 61.8484 11.186 61.6537L11.0886 61.2644C11.0886 61.0697 10.8939 60.8751 10.6018 60.8751H9.72578C9.43373 60.8751 9.23903 61.0697 9.23903 61.2644L9.14159 61.6537C9.14159 61.8484 8.94684 61.9457 8.84949 62.0431C8.75214 62.0431 8.55754 62.1406 8.46019 62.238C8.26549 62.3353 8.07079 62.3353 7.97344 62.238L7.68134 62.0431C7.48664 61.8484 7.19464 61.9457 6.99994 62.0431L6.31854 62.7248C6.12384 62.9195 6.12384 63.2117 6.31854 63.4065L6.51319 63.6983C6.61054 63.8931 6.61054 63.9904 6.51319 64.1851C6.41584 64.2825 6.41589 64.4771 6.31854 64.5745C6.22119 64.7692 6.12369 64.8668 5.92899 64.8668L5.53969 64.9638C5.34499 64.9638 5.15015 65.1585 5.15015 65.4506V66.3272C5.15015 66.6193 5.34499 66.814 5.53969 66.814L5.92899 66.9109C6.12369 66.9109 6.22119 67.1059 6.31854 67.2033C6.31854 67.3007 6.41584 67.4953 6.51319 67.5926C6.61054 67.7874 6.61054 67.9821 6.51319 68.0794L6.31854 68.3713C6.22119 68.566 6.22119 68.8583 6.31854 69.053L6.99994 69.7347C7.19464 69.9294 7.48664 69.9294 7.68134 69.7347L7.97344 69.5398C8.07079 69.4424 8.26549 69.4423 8.46019 69.4423C8.55754 69.5397 8.75214 69.5399 8.84949 69.6372C9.04419 69.7346 9.14159 69.8319 9.14159 70.0266L9.23903 70.4159C9.23903 70.6106 9.43373 70.8053 9.72578 70.8053H10.6018C10.8939 70.8053 11.0886 70.6106 11.0886 70.4159L11.186 70.0266C11.186 69.8319 11.3805 69.7346 11.4779 69.6372C11.5752 69.6372 11.7701 69.5397 11.8674 69.4423C12.0621 69.345 12.2568 69.3451 12.3542 69.5398L12.6463 69.7347C12.841 69.8321 13.133 69.8321 13.3277 69.7347L14.0091 69.053C14.2038 68.8583 14.2038 68.566 14.0091 68.3713L13.8144 68.0794C13.7171 67.8847 13.717 67.69 13.717 67.5926C13.8143 67.4953 13.8143 67.3007 13.9116 67.2033C14.009 67.0086 14.1065 66.9109 14.3012 66.9109L14.6905 66.814C14.8852 66.814 15.08 66.6193 15.08 66.3272V65.4506C15.1774 65.1585 14.9825 64.9638 14.6905 64.9638ZM10.2125 67.5926C9.33638 67.5926 8.55739 66.8136 8.55739 65.9374C8.55739 65.0612 9.33638 64.2826 10.2125 64.2826C11.0887 64.2826 11.8674 65.0612 11.8674 65.9374C11.8674 66.8136 11.186 67.5926 10.2125 67.5926Z" fill="url(#paint1_linear)"/>
<path d="M90.234 63.309V79.9573C90.234 82.0991 88.4817 83.8516 86.34 83.8516H31.4345C29.2928 83.8516 27.5405 82.0991 27.5405 79.9573V61.9461" stroke="#1676EE" stroke-width="3" stroke-linecap="round" stroke-linejoin="round"/>
<g filter="url(#filter1_d)">
<path d="M88.12 52.6487H69.2831C67.4891 52.6487 65.6952 53.2931 64.309 54.4206L59.3347 58.4475C57.9484 59.575 56.1545 60.2194 54.3605 60.2194H32.9142C30.794 60.2194 29 61.9105 29 64.085C29 64.2461 29.0001 64.4879 29.0816 64.6489L32.9956 85.266C33.3218 87.1989 34.9527 88.6487 36.9098 88.6487H82.5749C84.532 88.6487 86.163 87.2795 86.4891 85.3466L91.9526 57.1588C92.2788 55.0649 90.8925 53.0514 88.6908 52.7293C88.5277 52.6488 88.2831 52.6487 88.12 52.6487Z" fill="white"/>
</g>
<g filter="url(#filter2_d)">
<path d="M93.3492 48.8998H70.8613C68.7196 48.8998 66.578 49.6789 64.9231 51.0419L58.9846 55.9098C57.3297 57.2728 55.1881 58.0518 53.0464 58.0518H27.4434C24.9123 58.0518 22.7705 60.0962 22.7705 62.7248C22.7705 62.9195 22.7706 63.2118 22.868 63.4065L27.5406 88.3297C27.93 90.6662 29.877 92.4189 32.2134 92.4189H86.7294C89.0658 92.4189 91.0128 90.7637 91.4022 88.4271L97.9246 54.352C98.314 51.8207 96.659 49.3867 94.0306 48.9973C93.8359 48.8999 93.5439 48.8998 93.3492 48.8998Z" fill="#474E61"/>
</g>
<path d="M49.7365 74.797C51.0806 74.797 52.1702 73.7073 52.1702 72.3631C52.1702 71.0189 51.0806 69.9291 49.7365 69.9291C48.3924 69.9291 47.3027 71.0189 47.3027 72.3631C47.3027 73.7073 48.3924 74.797 49.7365 74.797Z" fill="#2C313D"/>
<path d="M68.817 74.6996C70.1612 74.6996 71.2508 73.6099 71.2508 72.2657C71.2508 70.9214 70.1612 69.8317 68.817 69.8317C67.4729 69.8317 66.3833 70.9214 66.3833 72.2657C66.3833 73.6099 67.4729 74.6996 68.817 74.6996Z" fill="#2C313D"/>
<path d="M64.5336 78.7887H63.2682C62.1974 76.5495 59.4715 75.6733 57.3298 76.8416C56.4536 77.231 55.7722 78.0098 55.3828 78.7887H54.1172C55.188 75.868 58.4981 74.4077 61.3212 75.4786C62.7815 76.0628 63.9495 77.231 64.5336 78.7887Z" fill="#2C313D"/>
<path d="M103.195 90.3843C102.903 91.6499 102.514 92.8182 102.027 93.9865C101.93 94.2786 101.832 94.4733 101.638 94.7654C99.9826 97.9782 97.3542 100.607 94.1417 102.165C93.7523 102.359 93.3629 102.554 93.0708 102.651C89.9556 103.917 86.451 104.404 82.9464 103.625C73.6982 101.678 67.7598 92.6235 69.7068 83.3745C71.6538 74.1256 80.7074 68.1868 89.9556 70.1339C93.2655 70.8154 96.186 72.4705 98.6197 74.8071C102.708 78.7987 104.461 84.7376 103.195 90.3843Z" fill="url(#paint2_linear)"/>
<path d="M102.013 93.9767C101.916 94.2687 101.819 94.4633 101.722 94.7553C100.067 97.9681 97.438 100.597 94.2255 102.155C93.8361 102.349 93.4468 102.544 93.1548 102.641L81.1807 90.6666L84.1012 90.7636L87.2163 90.861L89.4554 89.3032C89.4554 89.3032 91.2077 86.2853 91.1103 86.0906C91.013 85.8959 89.0661 82.878 89.0661 82.878L91.2078 83.2673L102.013 93.9767Z" fill="url(#paint3_linear)"/>
<path d="M93.5441 92.3212L91.0131 89.7898C92.9601 86.869 92.1813 82.9747 89.2608 81.0276C86.3403 79.0804 82.4463 79.8596 80.4993 82.7803C78.5523 85.701 79.3311 89.5953 82.2516 91.5425C84.3933 92.9055 87.119 92.9055 89.1633 91.5425L91.6945 94.0739C92.1813 94.5607 92.9601 94.5607 93.4468 94.0739C93.9336 93.5871 94.0308 92.808 93.5441 92.3212ZM83.0302 89.0111C81.57 87.5507 81.57 85.1168 83.0302 83.6564C84.4905 82.1961 86.9242 82.1961 88.3845 83.6564C89.8447 85.1168 89.8447 87.5507 88.3845 89.0111C86.9242 90.4715 84.4905 90.4715 83.0302 89.0111Z" fill="url(#paint4_linear)"/>
<defs>
<filter id="filter0_d" x="6.20581" y="30.6169" width="105.038" height="85.2796" filterUnits="userSpaceOnUse" color-interpolation-filters="sRGB">
<feFlood flood-opacity="0" result="BackgroundImageFix"/>
<feColorMatrix in="SourceAlpha" type="matrix" values="0 0 0 0 0 0 0 0 0 0 0 0 0 0 0 0 0 0 127 0"/>
<feOffset dy="11"/>
<feGaussianBlur stdDeviation="11"/>
<feColorMatrix type="matrix" values="0 0 0 0 0.397708 0 0 0 0 0.47749 0 0 0 0 0.575 0 0 0 0.18 0"/>
<feBlend mode="normal" in2="BackgroundImageFix" result="effect1_dropShadow"/>
<feBlend mode="normal" in="SourceGraphic" in2="effect1_dropShadow" result="shape"/>
</filter>
<filter id="filter1_d" x="24" y="42.6487" width="73" height="46" filterUnits="userSpaceOnUse" color-interpolation-filters="sRGB">
<feFlood flood-opacity="0" result="BackgroundImageFix"/>
<feColorMatrix in="SourceAlpha" type="matrix" values="0 0 0 0 0 0 0 0 0 0 0 0 0 0 0 0 0 0 127 0"/>
<feOffset dy="-5"/>
<feGaussianBlur stdDeviation="2.5"/>
<feColorMatrix type="matrix" values="0 0 0 0 0 0 0 0 0 0 0 0 0 0 0 0 0 0 0.18 0"/>
<feBlend mode="normal" in2="BackgroundImageFix" result="effect1_dropShadow"/>
<feBlend mode="normal" in="SourceGraphic" in2="effect1_dropShadow" result="shape"/>
</filter>
<filter id="filter2_d" x="0.770508" y="37.8998" width="119.211" height="87.519" filterUnits="userSpaceOnUse" color-interpolation-filters="sRGB">
<feFlood flood-opacity="0" result="BackgroundImageFix"/>
<feColorMatrix in="SourceAlpha" type="matrix" values="0 0 0 0 0 0 0 0 0 0 0 0 0 0 0 0 0 0 127 0"/>
<feOffset dy="11"/>
<feGaussianBlur stdDeviation="11"/>
<feColorMatrix type="matrix" values="0 0 0 0 0 0 0 0 0 0 0 0 0 0 0 0 0 0 0.18 0"/>
<feBlend mode="normal" in2="BackgroundImageFix" result="effect1_dropShadow"/>
<feBlend mode="normal" in="SourceGraphic" in2="effect1_dropShadow" result="shape"/>
</filter>
<linearGradient id="paint0_linear" x1="48.9321" y1="13.6124" x2="63.107" y2="13.6124" gradientUnits="userSpaceOnUse">
<stop stop-color="#FF66A9"/>
<stop offset="1" stop-color="#F53689"/>
</linearGradient>
<linearGradient id="paint1_linear" x1="5.33424" y1="65.8808" x2="15.1438" y2="65.8808" gradientUnits="userSpaceOnUse">
<stop stop-color="#FF66A9"/>
<stop offset="1" stop-color="#F53689"/>
</linearGradient>
<linearGradient id="paint2_linear" x1="69.3515" y1="86.882" x2="103.597" y2="86.882" gradientUnits="userSpaceOnUse">
<stop stop-color="#83A6FF"/>
<stop offset="1" stop-color="#5A78FF"/>
</linearGradient>
<linearGradient id="paint3_linear" x1="89.028" y1="89.7891" x2="94.9873" y2="95.748" gradientUnits="userSpaceOnUse">
<stop stop-color="#4F6AFF"/>
<stop offset="1" stop-color="#657EFF" stop-opacity="0"/>
</linearGradient>
<linearGradient id="paint4_linear" x1="92.0087" y1="92.5866" x2="83.582" y2="84.1607" gradientUnits="userSpaceOnUse">
<stop offset="0.0113208" stop-color="#C2D1FF"/>
<stop offset="1" stop-color="white"/>
</linearGradient>
</defs>
</svg>
