<svg width="147" height="138" viewBox="0 0 147 138" fill="none" xmlns="http://www.w3.org/2000/svg">
<path d="M72.2302 120C100.221 120 122.911 97.2539 122.911 69.1952C122.911 41.1365 100.221 18.3904 72.2302 18.3904C44.2398 18.3904 21.5491 41.1365 21.5491 69.1952C21.5491 97.2539 44.2398 120 72.2302 120Z" fill="#2A2E39"/>
<path d="M34.908 36.2794H107.004C109.859 36.2794 112.102 38.5283 112.102 41.3906V87.0842C112.102 89.9465 109.859 92.1954 107.004 92.1954H34.908C32.0528 92.1954 29.8093 89.9465 29.8093 87.0842V41.3906C29.8093 38.5283 32.1547 36.2794 34.908 36.2794Z" fill="#1E242D"/>
<path d="M131.139 56.5534C132.719 55.1061 132.83 52.6491 131.386 51.0654C129.942 49.4817 127.491 49.3711 125.911 50.8183C124.331 52.2656 124.221 54.7226 125.665 56.3063C127.109 57.89 129.56 58.0006 131.139 56.5534Z" fill="#2A2E39"/>
<path d="M42.9441 23.4745C44.283 23.0382 45.0157 21.5964 44.5805 20.2542C44.1453 18.912 42.707 18.1775 41.368 18.6138C40.0291 19.05 39.2964 20.4918 39.7316 21.8341C40.1668 23.1763 41.6051 23.9107 42.9441 23.4745Z" fill="#2A2E39"/>
<path d="M47.9606 15.2215C48.918 15.2215 49.6942 14.4434 49.6942 13.4837C49.6942 12.5239 48.918 11.7459 47.9606 11.7459C47.0032 11.7459 46.2271 12.5239 46.2271 13.4837C46.2271 14.4434 47.0032 15.2215 47.9606 15.2215Z" fill="url(#paint0_linear)"/>
<path d="M130.356 39.5505C131.257 39.5505 131.988 38.8183 131.988 37.915C131.988 37.0117 131.257 36.2794 130.356 36.2794C129.455 36.2794 128.725 37.0117 128.725 37.915C128.725 38.8183 129.455 39.5505 130.356 39.5505Z" fill="url(#paint1_linear)"/>
<path d="M113.547 65.5977V88.0867C113.547 90.9489 111.202 93.4025 108.245 93.4025H34.1095C31.2542 93.4025 28.8069 91.0512 28.8069 88.0867V63.6555" stroke="#1676EE" stroke-width="3" stroke-linecap="round" stroke-linejoin="round"/>
<g filter="url(#filter0_d)">
<path d="M107.153 53H83.8378C81.5689 53 79.3783 53.7828 77.6571 55.1915L71.5544 60.2002C69.8332 61.6088 67.6426 62.3913 65.3737 62.3913H38.8507C36.1906 62.3913 34 64.5828 34 67.2436C34 67.4784 34.0001 67.7131 34.0783 67.9479L38.9291 93.774C39.3202 96.2001 41.3544 98 43.7798 98H100.268C102.693 98 104.727 96.2784 105.119 93.8523L111.926 58.5566C112.395 55.8957 110.595 53.4696 107.935 53C107.701 53 107.388 53 107.153 53Z" fill="white"/>
</g>
<g filter="url(#filter1_d)">
<path d="M117.728 46.0729H87.3396C84.3823 46.0729 81.5272 47.0955 79.2837 48.9355L71.3297 55.4776C69.0863 57.3177 66.2311 58.3397 63.2738 58.3397H28.7044C25.2373 58.3397 22.3821 61.2021 22.3821 64.6777C22.3821 64.9844 22.3822 65.291 22.4842 65.5976L28.8065 99.3312C29.3164 102.5 31.9677 104.851 35.1289 104.851H108.754C111.915 104.851 114.567 102.602 115.077 99.4335L123.948 53.3309C124.56 49.8553 122.215 46.6863 118.748 46.0729C118.442 46.0729 118.034 46.0729 117.728 46.0729Z" fill="#474E61"/>
</g>
<path d="M58.8886 81.0334C60.6908 81.0334 62.1517 79.5686 62.1517 77.762C62.1517 75.9554 60.6908 74.4912 58.8886 74.4912C57.0864 74.4912 55.6255 75.9554 55.6255 77.762C55.6255 79.5686 57.0864 81.0334 58.8886 81.0334Z" fill="#2C313D"/>
<path d="M84.5866 80.9311C86.3888 80.9311 87.8497 79.4668 87.8497 77.6602C87.8497 75.8537 86.3888 74.3889 84.5866 74.3889C82.7844 74.3889 81.3235 75.8537 81.3235 77.6602C81.3235 79.4668 82.7844 80.9311 84.5866 80.9311Z" fill="#2C313D"/>
<path d="M122.637 102.511C122.229 104.249 121.617 105.986 120.903 107.52C118.966 111.2 116.008 114.164 112.337 116.004C108.564 117.946 104.077 118.662 99.4886 117.742C88.8833 115.493 82.051 105.169 84.2944 94.5374C86.5379 83.9062 96.8373 77.0573 107.443 79.3062C111.216 80.1239 114.581 81.9639 117.334 84.6217C122.025 89.324 123.962 96.0707 122.637 102.511Z" fill="url(#paint2_linear)"/>
<path d="M120.89 107.509C118.952 111.189 115.995 114.154 112.324 115.994L95.804 99.4335L98.8632 98.2066L104.472 97.9001H111.304L120.89 107.509Z" fill="url(#paint3_linear)"/>
<path d="M109.672 96.7756H105.185V92.2779C105.185 91.3579 104.471 90.5399 103.452 90.5399C102.534 90.5399 101.718 91.2557 101.718 92.2779V96.7756H97.2311C96.3133 96.7756 95.4976 97.4914 95.4976 98.5136C95.4976 99.5358 96.2113 100.251 97.2311 100.251H101.718V104.749C101.718 105.669 102.432 106.487 103.452 106.487C104.369 106.487 105.185 105.772 105.185 104.749V100.251H109.672C110.59 100.251 111.406 99.5358 111.406 98.5136C111.406 97.4914 110.59 96.7756 109.672 96.7756Z" fill="url(#paint4_linear)"/>
<path d="M67.7434 57.3373C64.1743 50.3861 63.3585 41.9016 65.7039 34.3372C68.0493 26.7727 73.4539 20.2304 80.2862 16.5504C82.4277 15.4259 84.7731 14.5059 87.2205 14.4037C89.6678 14.3015 92.2172 15.1192 93.8488 17.0615C95.4804 18.9015 95.7863 21.866 94.4606 23.9104C93.033 25.8526 90.2797 26.5682 87.9343 26.0571C84.2632 25.3415 81.204 22.4793 80.2862 19.0037C79.3685 15.5281 80.5921 11.4392 83.3454 9.08809C85.181 7.45252 87.6284 6.63474 89.9738 5.91918C101.191 2.64804 113.326 2.23915 124.747 4.6925" stroke="#3A4350" stroke-miterlimit="10" stroke-dasharray="4 4"/>
<path d="M74.8816 84.5286H68.6611V86.062H74.8816V84.5286Z" fill="#2C313D"/>
<path d="M130.764 2.0347C130.662 3.56805 130.56 4.89695 129.438 5.20361C128.317 5.51028 127.807 4.48805 127.093 3.05693C126.379 1.72804 126.787 0.399137 128.011 0.092468C129.234 -0.214201 130.968 0.194691 130.764 2.0347Z" fill="#474E61"/>
<path d="M129.642 9.19032C129.948 7.3503 130.254 6.4303 129.234 5.91918C128.113 5.40807 127.399 6.32807 126.277 7.55475C125.257 8.6792 125.869 10.2125 126.889 10.7237C128.011 11.337 129.336 10.7237 129.642 9.19032Z" fill="#474E61"/>
<path d="M130.968 5.91917C130.866 6.63473 130.356 7.14585 129.642 7.24807C129.336 7.24807 129.03 7.24807 128.622 7.24807C127.195 7.04363 126.073 6.12362 126.175 5.20361C126.277 4.28361 127.603 3.77249 129.132 3.97694C129.438 3.97694 129.744 4.07916 129.948 4.18138C130.662 4.38583 131.07 5.10139 130.968 5.91917C130.968 5.81695 130.968 5.91917 130.968 5.91917Z" fill="#0F1011"/>
<path d="M19.4092 34.0305C19.4092 32.2927 19.4092 30.6571 20.6329 30.146C21.9585 29.6349 22.6724 30.8616 23.5901 32.4971C24.5079 34.0305 24.1 35.5638 22.7743 36.0749C21.6526 36.586 19.4092 36.2794 19.4092 34.0305Z" fill="#474E61"/>
<path d="M20.1223 25.6482C19.9183 27.7949 19.6124 28.9193 20.9381 29.4304C22.2637 29.9416 22.9776 28.8171 24.2012 27.1815C25.221 25.7504 24.5072 24.0126 23.1815 23.5015C21.8558 22.9904 20.3262 23.9104 20.1223 25.6482Z" fill="#474E61"/>
<path d="M19 29.6349C19 28.8171 19.6118 28.2038 20.3257 28.1016C20.6316 27.9993 21.0395 27.9993 21.4474 28.1016C23.079 28.2038 24.4046 29.1238 24.3027 30.146C24.2007 31.1683 22.875 31.8838 21.2434 31.6794C20.9375 31.6794 20.6316 31.5771 20.3257 31.4749C19.5099 31.2705 19 30.4527 19 29.6349Z" fill="#0F1011"/>
<path d="M25.8318 29.9416C36.3351 29.9416 55.7102 36.075 56.0161 58.4618" stroke="#3A4350" stroke-miterlimit="10" stroke-dasharray="4 4"/>
<defs>
<filter id="filter0_d" x="24" y="34" width="98" height="65" filterUnits="userSpaceOnUse" color-interpolation-filters="sRGB">
<feFlood flood-opacity="0" result="BackgroundImageFix"/>
<feColorMatrix in="SourceAlpha" type="matrix" values="0 0 0 0 0 0 0 0 0 0 0 0 0 0 0 0 0 0 127 0"/>
<feOffset dy="-9"/>
<feGaussianBlur stdDeviation="5"/>
<feColorMatrix type="matrix" values="0 0 0 0 0 0 0 0 0 0 0 0 0 0 0 0 0 0 0.13 0"/>
<feBlend mode="normal" in2="BackgroundImageFix" result="effect1_dropShadow"/>
<feBlend mode="normal" in="SourceGraphic" in2="effect1_dropShadow" result="shape"/>
</filter>
<filter id="filter1_d" x="0.38208" y="35.0729" width="145.663" height="102.778" filterUnits="userSpaceOnUse" color-interpolation-filters="sRGB">
<feFlood flood-opacity="0" result="BackgroundImageFix"/>
<feColorMatrix in="SourceAlpha" type="matrix" values="0 0 0 0 0 0 0 0 0 0 0 0 0 0 0 0 0 0 127 0"/>
<feOffset dy="11"/>
<feGaussianBlur stdDeviation="11"/>
<feColorMatrix type="matrix" values="0 0 0 0 0 0 0 0 0 0 0 0 0 0 0 0 0 0 0.18 0"/>
<feBlend mode="normal" in2="BackgroundImageFix" result="effect1_dropShadow"/>
<feBlend mode="normal" in="SourceGraphic" in2="effect1_dropShadow" result="shape"/>
</filter>
<linearGradient id="paint0_linear" x1="46.2794" y1="13.4404" x2="49.65" y2="13.4404" gradientUnits="userSpaceOnUse">
<stop stop-color="#FF66A9"/>
<stop offset="1" stop-color="#F53689"/>
</linearGradient>
<linearGradient id="paint1_linear" x1="128.781" y1="37.9558" x2="131.947" y2="37.9558" gradientUnits="userSpaceOnUse">
<stop stop-color="#FF66A9"/>
<stop offset="1" stop-color="#F53689"/>
</linearGradient>
<linearGradient id="paint2_linear" x1="83.8791" y1="98.528" x2="123.064" y2="98.528" gradientUnits="userSpaceOnUse">
<stop stop-color="#83A6FF"/>
<stop offset="1" stop-color="#5A78FF"/>
</linearGradient>
<linearGradient id="paint3_linear" x1="104.012" y1="99.145" x2="114.654" y2="109.761" gradientUnits="userSpaceOnUse">
<stop stop-color="#4F6AFF"/>
<stop offset="1" stop-color="#657EFF" stop-opacity="0"/>
</linearGradient>
<linearGradient id="paint4_linear" x1="108.386" y1="103.456" x2="99.9768" y2="95.0669" gradientUnits="userSpaceOnUse">
<stop offset="0.0113208" stop-color="#C2D1FF"/>
<stop offset="1" stop-color="white"/>
</linearGradient>
</defs>
</svg>
