<svg width="157" height="139" viewBox="0 0 157 139" fill="none" xmlns="http://www.w3.org/2000/svg">
<path d="M118.53 21.8456C120.804 21.8456 122.647 20.006 122.647 17.7367C122.647 15.4674 120.804 13.6278 118.53 13.6278C116.256 13.6278 114.412 15.4674 114.412 17.7367C114.412 20.006 116.256 21.8456 118.53 21.8456Z" fill="#2A2E37"/>
<path d="M42.572 24.7651C44.068 24.7651 45.2809 23.5548 45.2809 22.0619C45.2809 20.5689 44.068 19.3586 42.572 19.3586C41.0759 19.3586 39.863 20.5689 39.863 22.0619C39.863 23.5548 41.0759 24.7651 42.572 24.7651Z" fill="#2A2E37"/>
<path d="M35.0952 29.7391C36.1126 29.7391 36.9373 28.9161 36.9373 27.9009C36.9373 26.8857 36.1126 26.0627 35.0952 26.0627C34.0779 26.0627 33.2532 26.8857 33.2532 27.9009C33.2532 28.9161 34.0779 29.7391 35.0952 29.7391Z" fill="#2A2E37"/>
<path d="M128.715 24.2245C129.673 24.2245 130.449 23.4499 130.449 22.4944C130.449 21.5389 129.673 20.7643 128.715 20.7643C127.758 20.7643 126.982 21.5389 126.982 22.4944C126.982 23.4499 127.758 24.2245 128.715 24.2245Z" fill="#2A2E37"/>
<path d="M78.7629 121C108.505 121 132.616 96.9397 132.616 67.2598C132.616 37.58 108.505 13.5197 78.7629 13.5197C49.0206 13.5197 24.9097 37.58 24.9097 67.2598C24.9097 96.9397 49.0206 121 78.7629 121Z" fill="#2A2E37"/>
<g filter="url(#filter0_d)">
<path d="M69.336 41.5251L67.9273 37.6325C67.6023 36.6593 66.6271 36.0105 65.6519 36.0105H40.9466C38.8878 36.0105 37.2625 37.6325 37.2625 39.6869V94.8328V85.7499H121.239V46.8234C121.239 44.769 119.613 43.1471 117.555 43.1471H71.6115C70.6363 43.1471 69.6611 42.4983 69.336 41.5251Z" fill="#1E242D"/>
</g>
<g filter="url(#filter1_d)">
<path d="M58.8253 32.8748L75.6205 62.0696C76.1623 63.0428 75.8373 64.3403 74.862 64.881L46.2559 80.8841C45.2807 81.4247 43.9804 81.1003 43.4387 80.1272L22.3091 42.282C21.659 41.3088 22.0924 40.0113 23.0676 39.4706L43.8721 27.9008L58.8253 32.8748Z" fill="#69738D"/>
</g>
<path d="M43.6554 36.0105L29.8942 43.6877C29.5691 43.9039 29.1357 43.7958 29.0273 43.4714C28.8106 43.147 28.9189 42.7145 29.244 42.6064L43.0053 34.9292C43.3304 34.713 43.7638 34.8211 43.8721 35.1455C44.0889 35.4699 43.9805 35.9024 43.6554 36.0105Z" fill="#495163"/>
<path d="M37.0457 44.1202L31.7362 47.0397C31.4111 47.2559 30.9777 47.1478 30.8693 46.8234C30.6526 46.499 30.761 46.0665 31.0861 45.9584L36.2872 43.0389C36.6122 42.8226 37.0457 42.9308 37.154 43.2552C37.4791 43.4714 37.3707 43.9039 37.0457 44.1202Z" fill="#495163"/>
<path d="M43.8721 27.9008L48.423 36.0105C49.0732 37.0918 50.5902 37.5243 51.6737 36.8755L58.9336 32.8748" fill="#354156"/>
<path d="M60.4507 50.7161C59.5838 48.8779 58.3919 46.8234 56.8749 45.3096C56.1164 44.5527 55.0328 44.0121 53.8409 44.0121C52.649 44.0121 51.5654 44.4446 50.3735 44.9852C48.3147 45.8503 46.3643 46.8234 44.5222 48.0129C42.7885 48.986 40.8381 50.0673 39.5378 51.6892C37.8041 53.96 38.7794 56.3388 39.9713 58.7176C40.8381 60.5558 42.03 62.6103 43.547 64.1241C44.739 65.3135 46.3643 65.746 47.9897 65.2054C50.0484 64.6647 53.9493 62.5022 55.7913 61.4209C57.4167 60.4477 59.2587 59.4745 60.4507 58.0689C62.7261 55.69 61.8593 53.3112 60.4507 50.7161ZM46.4727 53.2031C46.1476 52.5543 46.3643 52.1218 47.1228 52.2299C49.1816 52.338 51.2404 52.338 53.1908 52.4462C53.9493 52.4462 54.166 52.8787 53.8409 53.5274C52.8657 55.2575 51.8905 56.9876 50.8069 58.8258C50.3735 59.4745 49.9401 59.4745 49.615 58.9339C49.5066 58.6095 46.7977 53.7437 46.4727 53.2031Z" fill="#495163"/>
<g filter="url(#filter2_d)">
<path d="M134.892 51.473L115.821 76.1264C115.171 76.9915 113.979 77.0996 113.112 76.4508L89.2735 57.7445C88.4067 57.0957 88.2983 55.9063 88.9485 55.0413L113.762 23.5757C114.412 22.7107 115.604 22.6025 116.471 23.2513L133.808 36.8756L134.892 51.473Z" fill="#69738D"/>
</g>
<path d="M103.252 60.7721L102.385 60.1233C102.168 59.9071 102.168 59.6908 102.385 59.4746C102.601 59.2583 102.818 59.2583 103.035 59.3664L103.902 60.0152C104.118 60.1233 104.118 60.4477 104.01 60.664C103.793 60.8802 103.468 60.8802 103.252 60.7721Z" fill="#454D5E"/>
<path d="M100.868 58.8258L95.775 54.825C95.5583 54.7169 95.5583 54.3925 95.6666 54.1762C95.775 53.96 96.1001 53.96 96.3168 54.0681L101.41 58.0689C101.626 58.177 101.626 58.5014 101.518 58.7176C101.41 58.9339 101.084 59.042 100.868 58.8258Z" fill="#454D5E"/>
<path d="M126.765 39.5788L115.279 30.6041C115.063 30.3878 114.954 30.0635 115.171 29.7391C115.388 29.5228 115.713 29.4147 116.038 29.6309L127.524 38.6057C127.74 38.8219 127.849 39.1463 127.632 39.4707C127.415 39.7951 127.09 39.7951 126.765 39.5788Z" fill="#495163"/>
<path d="M117.555 36.7675L113.22 33.3074C113.004 33.0911 112.895 32.7667 113.112 32.4423C113.329 32.1179 113.654 32.1179 113.979 32.3342L118.313 35.7943C118.53 36.0106 118.638 36.335 118.421 36.6594C118.205 36.9837 117.771 36.9837 117.555 36.7675Z" fill="#495163"/>
<path d="M133.808 36.8756L128.499 43.5796C127.74 44.5528 127.957 45.9585 128.932 46.7154L135 51.473" fill="#354156"/>
<path d="M127.523 52.9868L121.564 48.3372L115.388 43.4714L109.645 38.93C108.995 38.3894 108.019 38.4975 107.586 39.2544L99.3508 49.6348C98.809 50.2836 98.9174 51.2567 99.5675 51.6892L117.555 65.8541C118.205 66.3948 119.18 66.2867 119.613 65.5298L127.849 55.1494C128.282 54.3925 128.174 53.5274 127.523 52.9868ZM108.453 52.8787L110.295 50.4998L115.821 54.825L113.979 57.2038L108.453 52.8787ZM113.437 57.8526L111.703 60.0152L106.177 55.69L107.911 53.5274L113.437 57.8526ZM118.205 51.7974L116.363 54.1762L110.837 49.851L112.679 47.4722L118.205 51.7974ZM113.22 46.7153L115.171 44.3365L120.697 48.6616L118.855 51.0405L113.22 46.7153ZM123.189 59.4745L117.121 54.7169L118.963 52.338L125.031 57.0957L123.189 59.4745ZM110.186 49.2023L104.335 44.5527L106.177 42.1739L112.029 46.8234L110.186 49.2023ZM103.685 45.3096L109.536 49.9592L107.694 52.338L101.843 47.6885L103.685 45.3096ZM116.579 55.3656L122.647 60.1233L120.805 62.5021L114.737 57.7445L116.579 55.3656ZM127.09 54.5006L125.573 56.4469L119.505 51.6892L121.347 49.3104L126.982 53.7437C127.307 53.8518 127.307 54.2843 127.09 54.5006ZM108.995 39.4707L114.412 43.7958L112.57 46.1747L106.719 41.5251L108.236 39.5788C108.344 39.3625 108.778 39.3625 108.995 39.4707ZM100.001 50.0673L101.301 48.4454L107.152 53.0949L105.419 55.2575L100.001 50.9323C99.7842 50.7161 99.7842 50.2836 100.001 50.0673ZM118.096 64.9891L112.462 60.5558L114.196 58.3932L120.264 63.1509L118.855 64.881C118.638 65.2054 118.313 65.2054 118.096 64.9891Z" fill="#454D5E"/>
<g filter="url(#filter3_d)">
<path d="M103.577 27.2521L100.434 61.9615C100.326 63.1509 99.2424 64.0159 98.0505 63.9078L64.2433 60.4477C63.0513 60.3396 62.1845 59.2583 62.2928 58.0688L66.8438 13.5197C66.9522 12.3302 68.0357 11.4652 69.2277 11.5733L93.7162 14.0603L103.577 27.2521Z" fill="#69738D"/>
</g>
<path d="M93.8247 14.1685L92.8495 23.6838C92.7412 24.9814 93.7164 26.2789 95.125 26.387L103.685 27.2521" fill="#354156"/>
<path d="M95.8833 52.6624L68.1441 49.5267C67.4939 49.4185 66.9521 48.8779 67.0605 48.2291L69.1193 30.496C69.2276 29.8472 69.7694 29.3065 70.4196 29.4147L98.1588 32.4423C98.809 32.5504 99.3508 33.0911 99.2424 33.7398L97.1836 51.473C97.0753 52.2299 96.5335 52.6624 95.8833 52.6624Z" fill="#495163"/>
<path d="M83.4223 48.4454L70.6362 46.9316L77.7878 40.4438L83.4223 48.4454Z" fill="#545C6F"/>
<path d="M94.0412 49.6348L75.5122 47.4722L86.0228 38.1731L94.0412 49.6348Z" fill="#68718B"/>
<path d="M76.8125 37.6324C78.1889 37.6324 79.3047 36.519 79.3047 35.1455C79.3047 33.772 78.1889 32.6585 76.8125 32.6585C75.4361 32.6585 74.3203 33.772 74.3203 35.1455C74.3203 36.519 75.4361 37.6324 76.8125 37.6324Z" fill="url(#paint0_linear)"/>
<path d="M87.5398 20.1155L70.7445 18.1692C70.5278 18.1692 70.3111 17.953 70.4194 17.7367V17.5204C70.4194 17.3042 70.6362 17.0879 70.8529 17.1961L87.6481 19.1424C87.8648 19.1424 88.0816 19.3586 87.9732 19.5749V19.7912C87.9732 20.0074 87.7565 20.2237 87.5398 20.1155Z" fill="#495163"/>
<path d="M87.4315 23.2513L70.4196 21.305C70.2029 21.305 69.9861 21.0887 70.0945 20.8724V20.6562C70.0945 20.4399 70.3112 20.2237 70.5279 20.3318L87.5399 22.2781C87.7566 22.2781 87.9733 22.4944 87.865 22.7106V22.9269C87.865 23.1432 87.6483 23.2513 87.4315 23.2513Z" fill="#495163"/>
<path d="M87.9725 56.0144L66.843 53.6355C66.5179 53.6355 66.3012 53.3112 66.4095 52.9868C66.4095 52.6624 66.7346 52.4461 67.0597 52.5543L88.0808 54.9331C88.4059 54.9331 88.6226 55.2575 88.5143 55.5819C88.5143 55.9063 88.2976 56.1225 87.9725 56.0144Z" fill="#495163"/>
<path d="M84.9393 26.2789L70.0944 24.5489C69.7694 24.5489 69.5526 24.2245 69.661 23.9001C69.661 23.5757 69.9861 23.3595 70.3111 23.4676L85.156 25.1976C85.4811 25.1976 85.6978 25.522 85.5894 25.8464C85.4811 26.0627 85.2643 26.2789 84.9393 26.2789Z" fill="#495163"/>
<path d="M95.775 60.1233L66.4103 56.6632C66.0853 56.6632 65.8686 56.3388 65.9769 56.0144C65.9769 55.69 66.302 55.4738 66.6271 55.5819L95.9917 58.9339C96.3167 58.9339 96.5335 59.2583 96.4251 59.5827C96.4251 59.9071 96.1 60.1233 95.775 60.1233Z" fill="#495163"/>
<path d="M96.2084 56.9876L90.4655 56.3388C90.1405 56.3388 89.9237 56.0144 90.0321 55.69C90.0321 55.3656 90.3572 55.1494 90.6822 55.2575L96.4251 55.9063C96.7502 55.9063 96.9669 56.2307 96.8586 56.555C96.7502 56.8794 96.5335 57.0957 96.2084 56.9876Z" fill="url(#paint1_linear)"/>
<g filter="url(#filter4_d)">
<path d="M122.948 62.3859L116.725 90.1079C116.336 91.7303 114.392 93 112.058 93H44.7749C42.4414 93 40.4968 91.8008 40.1078 90.1079L35.0519 67.3942C34.663 65.7012 36.5103 64.0788 38.9411 64.0788H76.8609C78.0277 64.0788 79 63.5145 79.3889 62.7386L80.4584 60.3402C80.8473 59.5643 81.8196 59 82.9864 59H119.156C121.49 59.0705 123.337 60.6224 122.948 62.3859Z" fill="#474E61"/>
</g>
<g filter="url(#filter5_d)">
<path d="M127.848 58.6095L120.913 101.104C120.48 103.591 118.313 105.538 115.712 105.538H40.7296C38.1291 105.538 35.962 103.699 35.5285 101.104L29.894 66.2867C29.4606 63.6916 31.5193 61.2046 34.2283 61.2046H76.4873C77.7876 61.2046 78.8711 60.3396 79.3046 59.1502L80.4965 55.4738C80.9299 54.2843 82.0135 53.4193 83.3138 53.4193H123.622C126.223 53.5274 128.282 55.9063 127.848 58.6095Z" fill="#474E61"/>
</g>
<path d="M109.428 105.646C109.428 108.781 108.128 111.593 105.96 113.539C104.01 115.269 101.518 116.35 98.7005 116.35C98.7005 116.35 98.1588 116.35 84.0724 116.35C83.5306 116.35 83.0972 116.35 82.5554 116.35C81.6886 116.35 80.8217 116.35 79.9549 116.35H63.1596C56.0081 116.567 50.3735 110.836 50.3735 104.024C50.3735 97.2116 56.0081 91.4808 63.1596 91.6971H63.268C64.0265 89.5345 65.0017 87.5881 66.1936 85.9662C66.1936 85.9662 66.1936 85.9662 66.1936 85.8581C68.3607 82.9386 71.2863 80.8841 74.4287 79.6947C74.537 79.5866 74.7538 79.5866 74.8621 79.4785C79.1964 78.0728 83.9641 78.1809 88.19 79.6947C94.1496 81.9654 99.134 87.1556 100.109 94.9409C105.419 95.6978 109.428 100.239 109.428 105.646Z" fill="url(#paint2_linear)"/>
<path d="M98.8088 116.35C104.733 116.35 109.536 111.558 109.536 105.646C109.536 99.7336 104.733 94.9409 98.8088 94.9409C92.8843 94.9409 88.0815 99.7336 88.0815 105.646C88.0815 111.558 92.8843 116.35 98.8088 116.35Z" fill="url(#paint3_linear)"/>
<path d="M81.2551 116.35C91.7278 116.35 100.218 107.878 100.218 97.4278C100.218 86.9772 91.7278 78.5052 81.2551 78.5052C70.7825 78.5052 62.2927 86.9772 62.2927 97.4278C62.2927 107.878 70.7825 116.35 81.2551 116.35Z" fill="url(#paint4_linear)"/>
<path d="M106.018 113.506C104.067 115.236 101.575 116.317 98.7577 116.317C98.7577 116.317 98.216 116.317 84.1296 116.317L84.0212 116.209L75.136 107.342L75.3527 104.098L70.1516 98.3675L76.0029 94.4749L81.9625 90.7985L88.7889 93.3936L98.7577 104.963L106.018 113.506Z" fill="url(#paint5_linear)"/>
<path d="M76.6532 98.6919C77.0866 98.2594 77.0866 97.6106 76.6532 97.1781C76.2198 96.7456 75.678 96.8537 75.0279 96.8537C76.8699 92.096 83.0462 91.0147 86.4053 94.9074C87.5972 96.2049 89.656 94.4748 88.4641 93.0692C84.9967 89.0684 79.0371 88.6359 75.1362 92.096C73.7276 93.3936 72.644 95.0155 72.2106 96.8537C70.802 96.8537 70.5852 96.8537 70.3685 97.1781C69.9351 97.6106 69.9351 98.2594 70.3685 98.6919C73.9443 102.368 72.9691 102.26 76.6532 98.6919Z" fill="url(#paint6_linear)"/>
<path d="M92.9066 101.071L90.5228 98.6919C90.0893 98.2594 89.4392 98.2594 89.0058 98.6919L86.6219 101.071C86.1885 101.503 86.1885 102.152 86.6219 102.585C87.0554 103.017 87.5971 102.909 88.2473 102.909C86.4052 107.775 80.0122 108.748 76.7615 104.747C76.3281 104.206 75.3529 104.098 74.8111 104.531C72.7523 106.261 77.6283 110.045 81.9626 110.045C86.2969 110.045 89.981 107.126 91.1729 103.017C92.5815 103.017 92.7983 103.017 93.015 102.693C93.2317 102.152 93.34 101.503 92.9066 101.071Z" fill="url(#paint7_linear)"/>
<path d="M65.3268 7.14007C64.8934 7.35633 64.46 7.14007 64.2432 6.70755L62.4012 2.16613C62.1845 1.73361 62.4012 1.3011 62.8346 1.08484C63.268 0.868581 63.7015 1.08484 63.9182 1.51736L65.7602 6.05878C65.9769 6.59942 65.7602 7.03194 65.3268 7.14007Z" fill="url(#paint8_linear)"/>
<path d="M61.9676 11.4652C61.7509 11.6815 61.5342 11.7896 61.2091 11.6815L56.5498 10.8165C56.1164 10.7083 55.7913 10.2758 55.8997 9.8433C56.008 9.41078 56.4414 9.0864 56.8749 9.19453L61.5342 10.0596C61.9676 10.1677 62.2927 10.6002 62.1843 11.0327C62.076 11.249 62.076 11.3571 61.9676 11.4652Z" fill="url(#paint9_linear)"/>
<path d="M71.503 6.59942C71.3946 6.59942 71.2862 6.49129 71.0695 6.49129C70.7445 6.16691 70.6361 5.73439 70.9612 5.30187L73.8868 1.51736C74.2119 1.19297 74.6453 1.08484 75.0787 1.40923C75.4038 1.73361 75.5121 2.16613 75.1871 2.59865L72.2614 6.38317C72.0447 6.49129 71.7197 6.59942 71.503 6.59942Z" fill="url(#paint10_linear)"/>
<path d="M63.268 77.6403H39.8629C39.4295 77.6403 38.9961 77.3159 38.9961 76.7752C38.9961 76.2346 39.3212 75.9102 39.8629 75.9102H63.3763C63.8097 75.9102 64.2432 76.2346 64.2432 76.7752C64.2432 77.3159 63.8097 77.6403 63.268 77.6403Z" fill="#2E343D"/>
<path d="M55.4661 82.7223H41.3798C40.9464 82.7223 40.5129 82.3979 40.5129 81.8572C40.5129 81.3166 40.838 80.9922 41.3798 80.9922H55.4661C55.8996 80.9922 56.333 81.3166 56.333 81.8572C56.333 82.3979 55.8996 82.7223 55.4661 82.7223Z" fill="#2E343D"/>
<defs>
<filter id="filter0_d" x="15.2625" y="25.0105" width="127.976" height="102.822" filterUnits="userSpaceOnUse" color-interpolation-filters="sRGB">
<feFlood flood-opacity="0" result="BackgroundImageFix"/>
<feColorMatrix in="SourceAlpha" type="matrix" values="0 0 0 0 0 0 0 0 0 0 0 0 0 0 0 0 0 0 127 0"/>
<feOffset dy="11"/>
<feGaussianBlur stdDeviation="11"/>
<feColorMatrix type="matrix" values="0 0 0 0 0.397708 0 0 0 0 0.47749 0 0 0 0 0.575 0 0 0 0.18 0"/>
<feBlend mode="normal" in2="BackgroundImageFix" result="effect1_dropShadow"/>
<feBlend mode="normal" in="SourceGraphic" in2="effect1_dropShadow" result="shape"/>
</filter>
<filter id="filter1_d" x="0" y="16.9008" width="97.8815" height="97.2437" filterUnits="userSpaceOnUse" color-interpolation-filters="sRGB">
<feFlood flood-opacity="0" result="BackgroundImageFix"/>
<feColorMatrix in="SourceAlpha" type="matrix" values="0 0 0 0 0 0 0 0 0 0 0 0 0 0 0 0 0 0 127 0"/>
<feOffset dy="11"/>
<feGaussianBlur stdDeviation="11"/>
<feColorMatrix type="matrix" values="0 0 0 0 0.397708 0 0 0 0 0.47749 0 0 0 0 0.575 0 0 0 0.18 0"/>
<feBlend mode="normal" in2="BackgroundImageFix" result="effect1_dropShadow"/>
<feBlend mode="normal" in="SourceGraphic" in2="effect1_dropShadow" result="shape"/>
</filter>
<filter id="filter2_d" x="66.5305" y="11.8342" width="90.3611" height="98.0336" filterUnits="userSpaceOnUse" color-interpolation-filters="sRGB">
<feFlood flood-opacity="0" result="BackgroundImageFix"/>
<feColorMatrix in="SourceAlpha" type="matrix" values="0 0 0 0 0 0 0 0 0 0 0 0 0 0 0 0 0 0 127 0"/>
<feOffset dy="11"/>
<feGaussianBlur stdDeviation="11"/>
<feColorMatrix type="matrix" values="0 0 0 0 0.397708 0 0 0 0 0.47749 0 0 0 0 0.575 0 0 0 0.18 0"/>
<feBlend mode="normal" in2="BackgroundImageFix" result="effect1_dropShadow"/>
<feBlend mode="normal" in="SourceGraphic" in2="effect1_dropShadow" result="shape"/>
</filter>
<filter id="filter3_d" x="40.2837" y="0.564209" width="85.293" height="96.3527" filterUnits="userSpaceOnUse" color-interpolation-filters="sRGB">
<feFlood flood-opacity="0" result="BackgroundImageFix"/>
<feColorMatrix in="SourceAlpha" type="matrix" values="0 0 0 0 0 0 0 0 0 0 0 0 0 0 0 0 0 0 127 0"/>
<feOffset dy="11"/>
<feGaussianBlur stdDeviation="11"/>
<feColorMatrix type="matrix" values="0 0 0 0 0.397708 0 0 0 0 0.47749 0 0 0 0 0.575 0 0 0 0.18 0"/>
<feBlend mode="normal" in2="BackgroundImageFix" result="effect1_dropShadow"/>
<feBlend mode="normal" in="SourceGraphic" in2="effect1_dropShadow" result="shape"/>
</filter>
<filter id="filter4_d" x="13" y="20" width="132" height="78" filterUnits="userSpaceOnUse" color-interpolation-filters="sRGB">
<feFlood flood-opacity="0" result="BackgroundImageFix"/>
<feColorMatrix in="SourceAlpha" type="matrix" values="0 0 0 0 0 0 0 0 0 0 0 0 0 0 0 0 0 0 127 0"/>
<feOffset dy="-17"/>
<feGaussianBlur stdDeviation="11"/>
<feColorMatrix type="matrix" values="0 0 0 0 0 0 0 0 0 0 0 0 0 0 0 0 0 0 0.18 0"/>
<feBlend mode="normal" in2="BackgroundImageFix" result="effect1_dropShadow"/>
<feBlend mode="normal" in="SourceGraphic" in2="effect1_dropShadow" result="shape"/>
</filter>
<filter id="filter5_d" x="7.83618" y="42.4193" width="142.07" height="96.1182" filterUnits="userSpaceOnUse" color-interpolation-filters="sRGB">
<feFlood flood-opacity="0" result="BackgroundImageFix"/>
<feColorMatrix in="SourceAlpha" type="matrix" values="0 0 0 0 0 0 0 0 0 0 0 0 0 0 0 0 0 0 127 0"/>
<feOffset dy="11"/>
<feGaussianBlur stdDeviation="11"/>
<feColorMatrix type="matrix" values="0 0 0 0 0 0 0 0 0 0 0 0 0 0 0 0 0 0 0.18 0"/>
<feBlend mode="normal" in2="BackgroundImageFix" result="effect1_dropShadow"/>
<feBlend mode="normal" in="SourceGraphic" in2="effect1_dropShadow" result="shape"/>
</filter>
<linearGradient id="paint0_linear" x1="74.431" y1="34.9187" x2="79.28" y2="35.4778" gradientUnits="userSpaceOnUse">
<stop stop-color="#FF66A9"/>
<stop offset="1" stop-color="#F53689"/>
</linearGradient>
<linearGradient id="paint1_linear" x1="89.9595" y1="55.7652" x2="96.7845" y2="56.5521" gradientUnits="userSpaceOnUse">
<stop stop-color="#83A6FF"/>
<stop offset="1" stop-color="#5A78FF"/>
</linearGradient>
<linearGradient id="paint2_linear" x1="79.9454" y1="78.3505" x2="79.9454" y2="116.294" gradientUnits="userSpaceOnUse">
<stop stop-color="#83A6FF"/>
<stop offset="1" stop-color="#5A78FF"/>
</linearGradient>
<linearGradient id="paint3_linear" x1="86.958" y1="92.7695" x2="96.4202" y2="103.114" gradientUnits="userSpaceOnUse">
<stop stop-color="#83A6FF"/>
<stop offset="1" stop-color="#87A5FF" stop-opacity="0"/>
</linearGradient>
<linearGradient id="paint4_linear" x1="66.9046" y1="86.335" x2="73.2634" y2="91.2469" gradientUnits="userSpaceOnUse">
<stop stop-color="#83A6FF"/>
<stop offset="1" stop-color="#87A5FF" stop-opacity="0"/>
</linearGradient>
<linearGradient id="paint5_linear" x1="76.3799" y1="94.8139" x2="99.0861" y2="117.568" gradientUnits="userSpaceOnUse">
<stop stop-color="#4F6AFF"/>
<stop offset="1" stop-color="#657EFF" stop-opacity="0"/>
</linearGradient>
<linearGradient id="paint6_linear" x1="89.6047" y1="106.03" x2="79.8794" y2="96.2846" gradientUnits="userSpaceOnUse">
<stop offset="0.0113208" stop-color="#C2D1FF"/>
<stop offset="1" stop-color="white"/>
</linearGradient>
<linearGradient id="paint7_linear" x1="87.7458" y1="107.885" x2="78.0205" y2="98.1396" gradientUnits="userSpaceOnUse">
<stop offset="0.0113208" stop-color="#C2D1FF"/>
<stop offset="1" stop-color="white"/>
</linearGradient>
<linearGradient id="paint8_linear" x1="63.3326" y1="4.47961" x2="64.8334" y2="3.85682" gradientUnits="userSpaceOnUse">
<stop stop-color="#FF66A9"/>
<stop offset="1" stop-color="#F53689"/>
</linearGradient>
<linearGradient id="paint9_linear" x1="58.8499" y1="11.3106" x2="59.1529" y2="9.71645" gradientUnits="userSpaceOnUse">
<stop stop-color="#FF66A9"/>
<stop offset="1" stop-color="#F53689"/>
</linearGradient>
<linearGradient id="paint10_linear" x1="73.6704" y1="4.39252" x2="72.3869" y2="3.3964" gradientUnits="userSpaceOnUse">
<stop stop-color="#FF66A9"/>
<stop offset="1" stop-color="#F53689"/>
</linearGradient>
</defs>
</svg>
