<svg width="120" height="105" viewBox="0 0 120 105" fill="none" xmlns="http://www.w3.org/2000/svg">
<path d="M106.598 56.3135C106.598 67.361 102.882 77.5286 96.7205 85.7409C93.2976 90.1403 89.1902 94.0509 84.4959 97.0817C76.8678 102.068 67.7727 105.001 57.9931 105.001C31.0991 104.903 9.29053 83.1012 9.29053 56.3135C9.29053 29.428 31.0991 7.72412 57.8953 7.72412C67.675 7.72412 76.77 10.6571 84.3981 15.5454C89.0924 18.5761 93.1998 22.4867 96.6227 26.8861C102.882 35.0984 106.598 45.266 106.598 56.3135Z" fill="#2A2E38"/>
<path opacity="0.2" d="M96.6227 85.2514L93.8844 98.2542L73.7384 99.8184L41.5634 98.0586L17.5055 96.9832C16.1363 96.9832 15.0605 95.9078 15.0605 94.6369V25.6145C15.0605 24.0503 16.4297 22.8771 17.8966 23.1704L54.8637 24.148L96.6227 85.2514Z" fill="black"/>
<path d="M74.7163 24.8324V95.1257L92.5152 97.9609C96.6227 98.6453 100.437 95.419 100.437 91.3129V25.5168C100.437 22.1928 97.9918 19.3576 94.6668 18.8687L90.1681 18.1844L74.7163 24.8324Z" fill="#69738D"/>
<path d="M43.7148 18.674L60.1446 17.1097L43.7148 29.2326V18.674Z" fill="#DDE1F0"/>
<path d="M16.2341 20.0419V41.4525L28.9477 35.7821L34.522 33.338L43.7149 29.2318V18.6732L22.6887 14.7626C22.4931 14.7626 22.3953 14.6648 22.1997 14.6648C19.5592 14.3715 17.2121 16.0335 16.4297 18.4776C16.3319 19.0642 16.2341 19.5531 16.2341 20.0419Z" fill="#69738D"/>
<path d="M16.2341 58.7569V88.6731C16.2341 89.162 16.3319 89.6508 16.4297 90.1396C16.6253 90.9218 17.1143 91.7039 17.7011 92.2905C18.4834 93.0726 19.4614 93.6592 20.635 93.9525L21.0262 94.0502L25.1336 94.8324L27.8719 95.3212L43.6171 98.2542V46.243L43.1281 46.4385L38.2383 48.6871L16.2341 58.7569Z" fill="#69738D"/>
<path d="M74.7163 24.8327V15.6428L90.2659 18.0869L74.8141 24.7349L74.7163 24.8327Z" fill="#D6DBEB"/>
<path d="M43.7148 46.2433V29.2321L60.1446 17.1092L74.7163 15.6428V24.8327L43.7148 46.2433Z" fill="#929BB1"/>
<path d="M43.7149 46.243L16.2341 58.757V41.4525L43.7149 29.2318V46.243Z" fill="#A1ABC4"/>
<path d="M44.4972 87.4022L43.7148 87.6955V46.243L74.7163 24.8324V70.0978H70.2177L44.4972 87.4022Z" fill="#566079"/>
<path d="M100.534 70.0978V91.3129C100.534 95.419 96.8181 98.6453 92.6129 97.9609L74.814 95.1257V70.0978H100.534Z" fill="#83A6FF"/>
<path d="M43.7149 87.6955V98.2542L25.1335 94.8324L43.7149 87.6955Z" fill="#83A6FF"/>
<path d="M44.4972 87.4023L70.2177 70.0978H74.7163V95.2235L43.7148 98.2542V87.6955L44.4972 87.4023Z" fill="#5D7BFF"/>
<path d="M16.4297 90.1397C16.6253 90.9219 17.1143 91.704 17.701 92.2906C18.4834 93.0727 19.4614 93.6593 20.6349 93.9526L21.0261 94.0503L25.1336 94.8325L27.8719 95.3213L43.6171 91.0196L44.2039 90.8241L74.7163 72.2487H100.437V64.9163L74.7163 65.3073H72.0758L43.7149 47.3185L43.2259 46.5364L34.522 33.3381L22.2975 14.7626C19.657 14.4693 17.3099 16.1313 16.5275 18.5755L28.9476 35.88L38.2383 48.785L43.6171 56.3129L64.7411 69.8045L43.6171 83.4917L43.4215 83.6872L16.4297 90.1397Z" fill="#2D3341"/>
<path d="M13.6522 13.2901C14.9364 12.8728 15.639 11.494 15.2216 10.2102C14.8042 8.92653 13.4249 8.22411 12.1408 8.64135C10.8567 9.05858 10.154 10.4375 10.5714 11.7212C10.9888 13.0049 12.3681 13.7073 13.6522 13.2901Z" fill="#2A2E38"/>
<path d="M23.9892 9.31665C24.8624 9.03284 25.3402 8.09489 25.0564 7.22169C24.7726 6.34849 23.8346 5.87069 22.9614 6.15451C22.0882 6.43832 21.6104 7.37627 21.8943 8.24947C22.1781 9.12267 23.116 9.60047 23.9892 9.31665Z" fill="#2A2E38"/>
<path d="M1.66254 61.9832C2.58073 61.9832 3.32508 61.2391 3.32508 60.3212C3.32508 59.4033 2.58073 58.6592 1.66254 58.6592C0.744344 58.6592 0 59.4033 0 60.3212C0 61.2391 0.744344 61.9832 1.66254 61.9832Z" fill="url(#paint0_linear)"/>
<path d="M117.257 41.4534C118.772 40.0693 118.878 37.7194 117.493 36.2048C116.108 34.6901 113.758 34.5843 112.243 35.9685C110.728 37.3526 110.622 39.7025 112.006 41.2171C113.391 42.7318 115.741 42.8376 117.257 41.4534Z" fill="#2A2E38"/>
<path d="M116.475 25.2245C117.34 25.2245 118.04 24.5239 118.04 23.6597C118.04 22.7955 117.34 22.095 116.475 22.095C115.611 22.095 114.911 22.7955 114.911 23.6597C114.911 24.5239 115.611 25.2245 116.475 25.2245Z" fill="url(#paint1_linear)"/>
<path d="M59.3624 12.2216C60.2265 12.2216 60.9271 11.5211 60.9271 10.6569C60.9271 9.79272 60.2265 9.09216 59.3624 9.09216C58.4982 9.09216 57.7976 9.79272 57.7976 10.6569C57.7976 11.5211 58.4982 12.2216 59.3624 12.2216Z" fill="#EAEEF9"/>
<path d="M61.4162 17.0112C61.4162 19.0642 61.025 21.2151 60.3404 23.4637C58.9713 27.9609 56.5264 32.7514 53.9837 37.3464C51.1476 42.4302 48.1159 47.4162 46.2578 51.6201C45.9644 52.4022 45.182 52.7933 44.3996 52.7933C43.6173 52.7933 42.8349 52.3045 42.5415 51.6201C38.1407 41.7458 27.3831 27.7654 27.3831 17.0112C27.3831 7.6257 35.0112 0 44.3996 0C53.7881 0 61.4162 7.6257 61.4162 17.0112Z" fill="url(#paint2_linear)"/>
<path d="M60.3405 23.4637C58.9714 27.9609 56.5265 32.7514 53.9838 37.3464L39.4121 22.7793L45.7689 16.7179L49.9741 12.905L60.3405 23.4637Z" fill="url(#paint3_linear)"/>
<path d="M44.3995 24.8324C48.3964 24.8324 51.6365 21.5934 51.6365 17.5978C51.6365 13.6022 48.3964 10.3632 44.3995 10.3632C40.4027 10.3632 37.1626 13.6022 37.1626 17.5978C37.1626 21.5934 40.4027 24.8324 44.3995 24.8324Z" fill="url(#paint4_linear)"/>
<defs>
<linearGradient id="paint0_linear" x1="0" y1="60.3626" x2="3.23256" y2="60.3626" gradientUnits="userSpaceOnUse">
<stop stop-color="#83A6FF"/>
<stop offset="1" stop-color="#5A78FF"/>
</linearGradient>
<linearGradient id="paint1_linear" x1="114.939" y1="23.6456" x2="117.975" y2="23.6456" gradientUnits="userSpaceOnUse">
<stop stop-color="#83A6FF"/>
<stop offset="1" stop-color="#5A78FF"/>
</linearGradient>
<linearGradient id="paint2_linear" x1="27.3563" y1="26.4411" x2="61.4127" y2="26.4411" gradientUnits="userSpaceOnUse">
<stop stop-color="#FF66A9"/>
<stop offset="1" stop-color="#F53689"/>
</linearGradient>
<linearGradient id="paint3_linear" x1="44.2555" y1="17.5229" x2="55.8791" y2="29.1503" gradientUnits="userSpaceOnUse">
<stop stop-color="#E81778"/>
<stop offset="1" stop-color="#E01F79" stop-opacity="0"/>
</linearGradient>
<linearGradient id="paint4_linear" x1="49.2663" y1="22.5189" x2="39.4019" y2="12.6516" gradientUnits="userSpaceOnUse">
<stop offset="0.0113208" stop-color="#FFC9E3"/>
<stop offset="1" stop-color="white"/>
</linearGradient>
</defs>
</svg>
