<svg width="164" height="137" viewBox="0 0 164 137" fill="none" xmlns="http://www.w3.org/2000/svg">
<path d="M121.01 9.71307C123.159 9.71307 124.901 7.9736 124.901 5.82785C124.901 3.68211 123.159 1.94263 121.01 1.94263C118.862 1.94263 117.12 3.68211 117.12 5.82785C117.12 7.9736 118.862 9.71307 121.01 9.71307Z" fill="#2A2E39"/>
<path d="M83.4335 104.696C111.538 104.696 134.321 81.9459 134.321 53.8818C134.321 25.8177 111.538 3.06728 83.4335 3.06728C55.3292 3.06728 32.5461 25.8177 32.5461 53.8818C32.5461 81.9459 55.3292 104.696 83.4335 104.696Z" fill="#2A2E39"/>
<path d="M27.017 16.0521C28.4307 16.0521 29.5767 14.9077 29.5767 13.496C29.5767 12.0844 28.4307 10.94 27.017 10.94C25.6033 10.94 24.4573 12.0844 24.4573 13.496C24.4573 14.9077 25.6033 16.0521 27.017 16.0521Z" fill="#2A2E39"/>
<path d="M29.7816 28.3212C30.7429 28.3212 31.5222 27.543 31.5222 26.5831C31.5222 25.6231 30.7429 24.8449 29.7816 24.8449C28.8203 24.8449 28.041 25.6231 28.041 26.5831C28.041 27.543 28.8203 28.3212 29.7816 28.3212Z" fill="url(#paint0_linear)"/>
<path d="M109.44 3.27176C110.345 3.27176 111.078 2.53935 111.078 1.63588C111.078 0.732409 110.345 0 109.44 0C108.535 0 107.802 0.732409 107.802 1.63588C107.802 2.53935 108.535 3.27176 109.44 3.27176Z" fill="#2A2E39"/>
<path d="M118.962 97.9484C119.867 97.9484 120.601 97.2159 120.601 96.3125C120.601 95.409 119.867 94.6766 118.962 94.6766C118.058 94.6766 117.324 95.409 117.324 96.3125C117.324 97.2159 118.058 97.9484 118.962 97.9484Z" fill="url(#paint1_linear)"/>
<path d="M53.2286 24.9472C54.1333 24.9472 54.8668 24.2148 54.8668 23.3113C54.8668 22.4078 54.1333 21.6754 53.2286 21.6754C52.3238 21.6754 51.5903 22.4078 51.5903 23.3113C51.5903 24.2148 52.3238 24.9472 53.2286 24.9472Z" fill="url(#paint2_linear)"/>
<g filter="url(#filter0_d)">
<path d="M68.4846 103.572H23.843C22.8191 103.572 22 102.754 22 101.731V36.7051C22 35.6826 22.8191 34.8647 23.843 34.8647H68.4846C69.5085 34.8647 70.3276 35.6826 70.3276 36.7051V101.731C70.3276 102.754 69.5085 103.572 68.4846 103.572Z" fill="#474E61"/>
</g>
<path d="M55.1741 70.2406C55.1741 70.4451 55.1741 70.5474 55.0717 70.7518C54.9693 71.0586 54.9693 71.4675 54.8669 71.7743C54.7645 71.9788 54.7645 72.081 54.6621 72.2855C54.5597 72.5922 54.4573 72.8989 54.2526 73.2057V73.3079C54.1502 73.4102 54.1502 73.6146 54.0478 73.7169C53.9454 73.8191 53.843 74.0236 53.7406 74.1259L56.9147 76.8864C57.0171 76.6819 57.1194 76.5797 57.2218 76.3752C57.529 75.864 57.8362 75.3528 58.0409 74.8416C58.1433 74.6371 58.1433 74.5348 58.2457 74.3303C58.4505 73.8191 58.6553 73.3079 58.8601 72.7967C58.8601 72.6945 58.9624 72.49 58.9624 72.3877C59.0648 72.081 59.0648 71.7743 59.1672 71.4676C59.1672 71.3653 59.2696 71.1608 59.2696 71.0586C59.2696 70.9563 59.2696 70.7519 59.372 70.6496V70.5474C59.372 70.4451 59.372 70.2406 59.372 70.1384H55.1741V70.2406ZM46.2662 78.1133C41.3515 78.1133 37.256 74.1259 37.256 69.2182C37.256 64.6173 40.6348 60.9366 45.0375 60.3231V56.1312C38.3822 56.6424 33.1604 62.368 33.1604 69.2182C33.1604 76.4774 39.099 82.4075 46.3686 82.4075C49.9522 82.4075 53.2287 80.9761 55.5836 78.6245L52.4095 75.864C50.7713 77.2954 48.6212 78.1133 46.2662 78.1133ZM47.3925 56.1312V60.3231C51.488 60.8343 54.6621 64.0038 55.1741 67.9913H59.372C58.8601 61.6523 53.7406 56.6424 47.3925 56.1312Z" fill="#2C313D"/>
<path d="M59.4744 67.9913H55.2764C54.7645 63.9016 51.488 60.7321 47.4949 60.3231V56.1312C53.7406 56.6424 58.8601 61.6523 59.4744 67.9913Z" fill="url(#paint3_linear)"/>
<path d="M59.4745 70.2406C59.4745 70.3428 59.4745 70.5473 59.4745 70.6496V70.7518C59.4745 70.8541 59.4745 71.0585 59.3721 71.1608C59.3721 71.263 59.3721 71.4675 59.2697 71.5698C59.1673 71.8765 59.1673 72.1832 59.065 72.4899C59.065 72.5922 58.9626 72.7967 58.9626 72.8989C58.7578 73.4101 58.6554 73.9213 58.3482 74.4326C58.2458 74.637 58.2458 74.7393 58.1435 74.9438C57.9387 75.455 57.6315 75.9662 57.3243 76.4774C57.222 76.6819 57.1196 76.7841 57.0172 76.9886L53.7407 74.1258C53.8431 74.0236 53.9455 73.8191 54.0479 73.7168C54.1503 73.6146 54.2527 73.4101 54.2527 73.3079V73.2056C54.3551 72.8989 54.5598 72.5922 54.6622 72.2855C54.7646 72.081 54.7646 71.9787 54.867 71.7742C54.9694 71.4675 55.0718 71.0585 55.0718 70.7518C55.0718 70.5473 55.1742 70.4451 55.1742 70.2406H59.4745Z" fill="url(#paint4_linear)"/>
<path d="M32.3412 45.3957H27.2218C26.9146 45.3957 26.6074 45.0889 26.6074 44.7822V44.1688C26.6074 43.862 26.9146 43.5553 27.2218 43.5553H32.3412C32.6484 43.5553 32.9555 43.862 32.9555 44.1688V44.7822C32.9555 45.0889 32.6484 45.3957 32.3412 45.3957Z" fill="#343A4E"/>
<path d="M67.5633 45.3957H37.3585C37.0513 45.3957 36.7441 45.0889 36.7441 44.7822V44.1688C36.7441 43.862 37.0513 43.5553 37.3585 43.5553H67.5633C67.8704 43.5553 68.1776 43.862 68.1776 44.1688V44.7822C68.1776 45.0889 67.8704 45.3957 67.5633 45.3957Z" fill="#2C313D"/>
<path d="M32.3412 51.428H27.2218C26.9146 51.428 26.6074 51.1212 26.6074 50.8145V50.201C26.6074 49.8943 26.9146 49.5876 27.2218 49.5876H32.3412C32.6484 49.5876 32.9555 49.8943 32.9555 50.201V50.8145C32.9555 51.1212 32.6484 51.428 32.3412 51.428Z" fill="#343A4E"/>
<path d="M67.5633 51.428H37.3585C37.0513 51.428 36.7441 51.1212 36.7441 50.8145V50.201C36.7441 49.8943 37.0513 49.5876 37.3585 49.5876H67.5633C67.8704 49.5876 68.1776 49.8943 68.1776 50.201V50.8145C68.1776 51.1212 67.8704 51.428 67.5633 51.428Z" fill="#2C313D"/>
<path d="M37.6656 88.5421H34.1843V97.6416H37.6656V88.5421Z" fill="url(#paint5_linear)"/>
<path d="M44.0137 86.9062H40.5325V97.7439H44.0137V86.9062Z" fill="url(#paint6_linear)"/>
<path d="M50.4641 89.9734H46.9829V97.7439H50.4641V89.9734Z" fill="url(#paint7_linear)"/>
<path d="M56.8123 92.5295H53.3311V97.7438H56.8123V92.5295Z" fill="url(#paint8_linear)"/>
<g filter="url(#filter1_d)">
<path d="M140.259 82.203H95.5154C94.4915 82.203 93.6724 81.3851 93.6724 80.3627V15.4386C93.6724 14.4162 94.4915 13.5983 95.5154 13.5983H140.157C141.181 13.5983 142 14.4162 142 15.4386V80.4649C142 81.3851 141.181 82.203 140.259 82.203Z" fill="#474E61"/>
</g>
<path d="M138.826 49.0764H102.887V53.2684H138.826V49.0764Z" fill="#2C313D"/>
<path d="M123.775 50.5078H113.945V51.7347H123.775V50.5078Z" fill="#464D5F"/>
<path d="M136.266 50.5078H132.785V51.7347H136.266V50.5078Z" fill="url(#paint9_linear)"/>
<path d="M138.826 57.9715H102.887V62.1634H138.826V57.9715Z" fill="#2C313D"/>
<path d="M120.805 59.5051H113.945V60.732H120.805V59.5051Z" fill="#464D5F"/>
<path d="M136.266 59.5051H130.225V60.732H136.266V59.5051Z" fill="url(#paint10_linear)"/>
<path d="M138.826 66.9689H102.887V71.1608H138.826V66.9689Z" fill="#2C313D"/>
<path d="M125.31 68.4003H113.945V69.6272H125.31V68.4003Z" fill="#464D5F"/>
<path d="M136.266 68.4003H134.321V69.6272H136.266V68.4003Z" fill="url(#paint11_linear)"/>
<path d="M136.266 19.0171H125.106H125.003H124.901H113.433H113.331H113.229H102.478C101.249 19.0171 100.328 20.0395 100.328 21.2664V40.7948C100.328 42.0217 101.352 43.0441 102.478 43.0441H136.266C137.495 43.0441 138.416 42.0217 138.416 40.7948V21.2664C138.416 20.0395 137.392 19.0171 136.266 19.0171ZM114.048 36.2961V31.8997H124.389V36.2961H114.048ZM124.389 37.6252V41.6127H114.048V37.6252H124.389ZM124.389 26.2763V30.6727H114.048V26.2763H124.389ZM114.048 24.8449V20.4485H124.389V24.9472H114.048V24.8449ZM137.085 30.5705H125.72V26.1741H137.085V30.5705ZM112.614 30.5705H101.556V26.1741H112.614V30.5705ZM101.556 31.8997H112.614V36.2961H101.556V31.8997ZM125.72 31.8997H137.085V36.2961H125.72V31.8997ZM137.085 21.2664V24.8449H125.72V20.4485H136.266C136.676 20.4485 137.085 20.7552 137.085 21.2664ZM102.478 20.4485H112.717V24.9472H101.556V21.3687C101.556 20.7552 101.966 20.4485 102.478 20.4485ZM101.556 40.7948V37.6252H112.614V41.6127H102.375C101.966 41.7149 101.556 41.306 101.556 40.7948ZM136.266 41.7149H125.72V37.7275H137.085V40.897C137.085 41.306 136.676 41.7149 136.266 41.7149Z" fill="#2C313D"/>
<g filter="url(#filter2_d)">
<path d="M107.29 88.6443H62.5461C61.5222 88.6443 60.7031 87.8264 60.7031 86.804V21.7777C60.7031 20.7553 61.5222 19.9373 62.5461 19.9373H107.188C108.212 19.9373 109.031 20.7553 109.031 21.7777V86.804C109.031 87.8264 108.212 88.6443 107.29 88.6443Z" fill="#474E61"/>
</g>
<path d="M103.502 69.116H67.7679C67.4607 69.116 67.1536 68.8093 67.1536 68.5025V68.2981C67.1536 67.9913 67.4607 67.6846 67.7679 67.6846H103.502C103.809 67.6846 104.116 67.9913 104.116 68.2981V68.5025C104.116 68.8093 103.911 69.116 103.502 69.116Z" fill="#2C313D"/>
<path d="M103.502 73.5124H67.7679C67.4607 73.5124 67.1536 73.2057 67.1536 72.899V72.6945C67.1536 72.3877 67.4607 72.081 67.7679 72.081H103.502C103.809 72.081 104.116 72.3877 104.116 72.6945V72.899C104.116 73.2057 103.911 73.5124 103.502 73.5124Z" fill="#2C313D"/>
<path d="M77.0853 77.8066H67.8703C67.4607 77.8066 67.1536 77.4999 67.1536 77.0909C67.1536 76.6819 67.4607 76.3752 67.8703 76.3752H77.0853C77.4949 76.3752 77.802 76.6819 77.802 77.0909C77.802 77.4999 77.4949 77.8066 77.0853 77.8066Z" fill="#2C313D"/>
<path d="M77.0853 64.2083H67.8703C67.4607 64.2083 67.1536 63.9016 67.1536 63.4926C67.1536 63.0837 67.4607 62.7769 67.8703 62.7769H77.0853C77.4949 62.7769 77.802 63.0837 77.802 63.4926C77.802 63.9016 77.4949 64.2083 77.0853 64.2083Z" fill="#2C313D"/>
<path d="M101.454 30.4683C100.84 30.4683 100.225 30.775 99.8156 31.2862L95.0033 30.0593C94.7986 29.9571 94.4914 30.0593 94.2866 30.2638L86.3003 38.2387C85.9931 38.1365 85.6859 38.0342 85.3788 38.0342C85.0716 38.0342 84.7644 38.1365 84.4573 38.2387L78.3139 32.1042C78.4163 31.8997 78.4163 31.6952 78.4163 31.3885C78.4163 30.2638 77.4948 29.4459 76.4709 29.4459C75.447 29.4459 74.5255 30.366 74.5255 31.3885C74.5255 31.593 74.5255 31.8997 74.6279 32.1042L69.6108 37.1141C69.4061 37.0118 69.0989 37.0118 68.8941 37.0118C67.7678 37.0118 66.9487 37.932 66.9487 38.9544C66.9487 39.9768 67.8702 40.897 68.8941 40.897C69.918 40.897 70.8395 39.9768 70.8395 38.9544C70.8395 38.6477 70.7371 38.4432 70.6347 38.1365L75.6518 33.1266C75.959 33.2288 76.1637 33.3311 76.4709 33.3311C76.7781 33.3311 77.0852 33.2288 77.29 33.1266L83.4334 39.2612C83.331 39.4656 83.331 39.6701 83.331 39.8746C83.331 40.9993 84.2525 41.8172 85.2764 41.8172C86.4027 41.8172 87.2218 40.897 87.2218 39.8746C87.2218 39.6701 87.2218 39.4656 87.1194 39.2612L94.9009 31.4907L99.3037 32.6154C99.4061 33.5356 100.225 34.3535 101.249 34.3535C102.375 34.3535 103.194 33.4333 103.194 32.4109C103.399 31.2862 102.478 30.4683 101.454 30.4683ZM68.9965 39.9768C68.4846 39.9768 68.075 39.5679 68.075 39.0567C68.075 38.5455 68.4846 38.1365 68.9965 38.1365C69.5085 38.1365 69.918 38.5455 69.918 39.0567C69.918 39.4656 69.5085 39.9768 68.9965 39.9768ZM76.5733 32.3087C76.0614 32.3087 75.6518 31.8997 75.6518 31.3885C75.6518 30.8773 76.0614 30.4683 76.5733 30.4683C77.0852 30.4683 77.4948 30.8773 77.4948 31.3885C77.4948 31.8997 77.1876 32.3087 76.5733 32.3087ZM85.4812 40.897C84.9692 40.897 84.5597 40.4881 84.5597 39.9768C84.5597 39.4656 84.9692 39.0567 85.4812 39.0567C85.9931 39.0567 86.4027 39.4656 86.4027 39.9768C86.505 40.4881 86.0955 40.897 85.4812 40.897ZM101.454 33.3311C100.942 33.3311 100.532 32.9221 100.532 32.4109C100.532 31.8997 100.942 31.4907 101.454 31.4907C101.966 31.4907 102.375 31.8997 102.375 32.4109C102.375 32.9221 101.966 33.3311 101.454 33.3311Z" fill="url(#paint12_linear)"/>
<path d="M70.0203 56.9491H67.9725C67.7678 56.9491 67.563 56.7446 67.563 56.5401V46.5204C67.563 46.3159 67.7678 46.1114 67.9725 46.1114H70.0203C70.2251 46.1114 70.4299 46.3159 70.4299 46.5204V56.5401C70.4299 56.7446 70.2251 56.9491 70.0203 56.9491Z" fill="url(#paint13_linear)"/>
<path d="M71.249 56.9491H68.8941C68.6893 56.9491 68.5869 56.8469 68.5869 56.6424V52.0415C68.5869 51.837 68.6893 51.7347 68.8941 51.7347H71.249C71.4538 51.7347 71.5562 51.837 71.5562 52.0415V56.6424C71.5562 56.8469 71.3514 56.9491 71.249 56.9491Z" fill="url(#paint14_linear)"/>
<path d="M75.3445 56.9491H73.2968C73.092 56.9491 72.8872 56.7446 72.8872 56.5401V49.5876C72.8872 49.3831 73.092 49.1786 73.2968 49.1786H75.3445C75.5493 49.1786 75.7541 49.3831 75.7541 49.5876V56.5401C75.7541 56.7446 75.5493 56.9491 75.3445 56.9491Z" fill="url(#paint15_linear)"/>
<path d="M80.6688 56.9491H78.621C78.4162 56.9491 78.2114 56.7446 78.2114 56.5401V52.1437C78.2114 51.9392 78.4162 51.7347 78.621 51.7347H80.6688C80.8735 51.7347 81.0783 51.9392 81.0783 52.1437V56.5401C81.0783 56.7446 80.8735 56.9491 80.6688 56.9491Z" fill="url(#paint16_linear)"/>
<path d="M85.993 56.9491H83.9452C83.7404 56.9491 83.5356 56.7446 83.5356 56.5401V48.2585C83.5356 48.054 83.7404 47.8495 83.9452 47.8495H85.993C86.1978 47.8495 86.4025 48.054 86.4025 48.2585V56.5401C86.4025 56.7446 86.3002 56.9491 85.993 56.9491Z" fill="url(#paint17_linear)"/>
<path d="M91.4197 56.949H89.372C89.1672 56.949 88.9624 56.7446 88.9624 56.5401V51.5302C88.9624 51.3257 89.1672 51.1212 89.372 51.1212H91.4197C91.6245 51.1212 91.8293 51.3257 91.8293 51.5302V56.5401C91.8293 56.7446 91.6245 56.949 91.4197 56.949Z" fill="url(#paint18_linear)"/>
<path d="M96.744 56.9491H94.6962C94.4914 56.9491 94.2866 56.7446 94.2866 56.5401V49.5876C94.2866 49.3831 94.4914 49.1786 94.6962 49.1786H96.744C96.9487 49.1786 97.1535 49.3831 97.1535 49.5876V56.5401C97.1535 56.7446 96.9487 56.9491 96.744 56.9491Z" fill="url(#paint19_linear)"/>
<path d="M102.068 56.9491H100.02C99.8156 56.9491 99.6108 56.7446 99.6108 56.5401V52.1437C99.6108 51.9392 99.8156 51.7347 100.02 51.7347H102.068C102.273 51.7347 102.478 51.9392 102.478 52.1437V56.5401C102.478 56.7446 102.273 56.9491 102.068 56.9491Z" fill="url(#paint20_linear)"/>
<path d="M76.5732 56.9491H74.1159C74.0135 56.9491 73.9111 56.8468 73.9111 56.7446V53.984C73.9111 53.8818 74.0135 53.7795 74.1159 53.7795H76.5732C76.6756 53.7795 76.778 53.8818 76.778 53.984V56.7446C76.778 56.8468 76.6756 56.9491 76.5732 56.9491Z" fill="url(#paint21_linear)"/>
<path d="M81.9999 56.9491H79.4401C79.3377 56.9491 79.2354 56.8468 79.2354 56.7446V55.4154C79.2354 55.3132 79.3377 55.2109 79.4401 55.2109H81.9999C82.1022 55.2109 82.2046 55.3132 82.2046 55.4154V56.7446C82.1022 56.8468 82.1022 56.9491 81.9999 56.9491Z" fill="url(#paint22_linear)"/>
<path d="M87.3242 56.9491H84.8669C84.7645 56.9491 84.6621 56.8469 84.6621 56.7446V54.802C84.6621 54.6998 84.7645 54.5975 84.8669 54.5975H87.3242C87.4266 54.5975 87.529 54.6998 87.529 54.802V56.7446C87.529 56.8469 87.529 56.9491 87.3242 56.9491Z" fill="url(#paint23_linear)"/>
<path d="M92.6483 56.9491H90.2934C90.191 56.9491 90.0886 56.8468 90.0886 56.7446V53.1661C90.0886 53.0639 90.191 52.9616 90.2934 52.9616H92.6483C92.7507 52.9616 92.8531 53.0639 92.8531 53.1661V56.7446C92.9555 56.8468 92.8531 56.9491 92.6483 56.9491Z" fill="url(#paint24_linear)"/>
<path d="M98.2796 56.9491H95.6175C95.5151 56.9491 95.5151 56.9491 95.5151 56.8469V56.2334C95.5151 56.1312 95.5151 56.1312 95.6175 56.1312H98.2796C98.382 56.1312 98.382 56.1312 98.382 56.2334V56.7446C98.382 56.8469 98.382 56.9491 98.2796 56.9491Z" fill="url(#paint25_linear)"/>
<path d="M103.604 56.9498H100.942C100.942 56.9498 100.839 56.9498 100.839 56.8474V56.5403C100.839 56.5403 100.839 56.4379 100.942 56.4379H103.604C103.604 56.4379 103.706 56.4379 103.706 56.5403L103.604 56.9498C103.706 56.8474 103.604 56.9498 103.604 56.9498Z" fill="url(#paint26_linear)"/>
<path d="M84.6621 93.961C92.6919 93.961 99.2013 87.4608 99.2013 79.4425C99.2013 71.4242 92.6919 64.9241 84.6621 64.9241C76.6322 64.9241 70.1228 71.4242 70.1228 79.4425C70.1228 87.4608 76.6322 93.961 84.6621 93.961Z" fill="#474E61"/>
<path d="M98.2799 77.0909H71.3516V81.0784H98.2799V77.0909Z" fill="#2C313D"/>
<path d="M98.2799 69.2182H71.3516V73.2057H98.2799V69.2182Z" fill="#2C313D"/>
<path d="M106.471 97.1304L103.399 100.198L94.4915 91.4049L97.5631 88.3376L106.471 97.1304Z" fill="#526DFF"/>
<path d="M72.7849 66.6622C66.1296 73.308 66.1296 84.0434 72.7849 90.6892C79.4402 97.335 90.1911 97.335 96.8464 90.6892C103.502 84.0434 103.502 73.308 96.8464 66.6622C90.1911 60.0164 79.4402 60.0164 72.7849 66.6622ZM94.0819 87.9286C88.9624 93.0408 80.6689 93.0408 75.447 87.9286C70.3276 82.8165 70.3276 74.5349 75.447 69.3205C80.5665 64.2084 88.86 64.2084 94.0819 69.3205C99.2013 74.5349 99.2013 82.8165 94.0819 87.9286Z" fill="url(#paint27_linear)"/>
<path d="M111.283 105.003C109.952 106.332 107.7 106.332 106.266 105.003L97.256 96.108C96.7441 95.5968 96.7441 94.6766 97.256 94.0632L100.225 91.0981C100.737 90.5869 101.659 90.5869 102.171 91.0981L111.283 99.9932C112.717 101.425 112.717 103.674 111.283 105.003Z" fill="url(#paint28_linear)"/>
<defs>
<filter id="filter0_d" x="0" y="23.8647" width="92.3276" height="112.707" filterUnits="userSpaceOnUse" color-interpolation-filters="sRGB">
<feFlood flood-opacity="0" result="BackgroundImageFix"/>
<feColorMatrix in="SourceAlpha" type="matrix" values="0 0 0 0 0 0 0 0 0 0 0 0 0 0 0 0 0 0 127 0"/>
<feOffset dy="11"/>
<feGaussianBlur stdDeviation="11"/>
<feColorMatrix type="matrix" values="0 0 0 0 0 0 0 0 0 0 0 0 0 0 0 0 0 0 0.18 0"/>
<feBlend mode="normal" in2="BackgroundImageFix" result="effect1_dropShadow"/>
<feBlend mode="normal" in="SourceGraphic" in2="effect1_dropShadow" result="shape"/>
</filter>
<filter id="filter1_d" x="71.6724" y="2.59827" width="92.3276" height="112.605" filterUnits="userSpaceOnUse" color-interpolation-filters="sRGB">
<feFlood flood-opacity="0" result="BackgroundImageFix"/>
<feColorMatrix in="SourceAlpha" type="matrix" values="0 0 0 0 0 0 0 0 0 0 0 0 0 0 0 0 0 0 127 0"/>
<feOffset dy="11"/>
<feGaussianBlur stdDeviation="11"/>
<feColorMatrix type="matrix" values="0 0 0 0 0 0 0 0 0 0 0 0 0 0 0 0 0 0 0.18 0"/>
<feBlend mode="normal" in2="BackgroundImageFix" result="effect1_dropShadow"/>
<feBlend mode="normal" in="SourceGraphic" in2="effect1_dropShadow" result="shape"/>
</filter>
<filter id="filter2_d" x="38.7031" y="8.93732" width="92.3276" height="112.707" filterUnits="userSpaceOnUse" color-interpolation-filters="sRGB">
<feFlood flood-opacity="0" result="BackgroundImageFix"/>
<feColorMatrix in="SourceAlpha" type="matrix" values="0 0 0 0 0 0 0 0 0 0 0 0 0 0 0 0 0 0 127 0"/>
<feOffset dy="11"/>
<feGaussianBlur stdDeviation="11"/>
<feColorMatrix type="matrix" values="0 0 0 0 0 0 0 0 0 0 0 0 0 0 0 0 0 0 0.18 0"/>
<feBlend mode="normal" in2="BackgroundImageFix" result="effect1_dropShadow"/>
<feBlend mode="normal" in="SourceGraphic" in2="effect1_dropShadow" result="shape"/>
</filter>
<linearGradient id="paint0_linear" x1="28.106" y1="26.6226" x2="31.4894" y2="26.6226" gradientUnits="userSpaceOnUse">
<stop stop-color="#FF66A9"/>
<stop offset="1" stop-color="#F53689"/>
</linearGradient>
<linearGradient id="paint1_linear" x1="117.329" y1="96.2691" x2="120.507" y2="96.2691" gradientUnits="userSpaceOnUse">
<stop stop-color="#FF66A9"/>
<stop offset="1" stop-color="#F53689"/>
</linearGradient>
<linearGradient id="paint2_linear" x1="51.6222" y1="23.3402" x2="54.8005" y2="23.3402" gradientUnits="userSpaceOnUse">
<stop stop-color="#83A6FF"/>
<stop offset="1" stop-color="#5A78FF"/>
</linearGradient>
<linearGradient id="paint3_linear" x1="47.3803" y1="62.0621" x2="59.4238" y2="62.0621" gradientUnits="userSpaceOnUse">
<stop stop-color="#FF66A9"/>
<stop offset="1" stop-color="#F53689"/>
</linearGradient>
<linearGradient id="paint4_linear" x1="53.7727" y1="73.5932" x2="59.4346" y2="73.5932" gradientUnits="userSpaceOnUse">
<stop stop-color="#83A6FF"/>
<stop offset="1" stop-color="#5A78FF"/>
</linearGradient>
<linearGradient id="paint5_linear" x1="34.1465" y1="93.1392" x2="37.5984" y2="93.1392" gradientUnits="userSpaceOnUse">
<stop stop-color="#83A6FF"/>
<stop offset="1" stop-color="#5A78FF"/>
</linearGradient>
<linearGradient id="paint6_linear" x1="40.5571" y1="92.3127" x2="44.0089" y2="92.3127" gradientUnits="userSpaceOnUse">
<stop stop-color="#83A6FF"/>
<stop offset="1" stop-color="#5A78FF"/>
</linearGradient>
<linearGradient id="paint7_linear" x1="46.9676" y1="93.8426" x2="50.4194" y2="93.8426" gradientUnits="userSpaceOnUse">
<stop stop-color="#83A6FF"/>
<stop offset="1" stop-color="#5A78FF"/>
</linearGradient>
<linearGradient id="paint8_linear" x1="53.3781" y1="95.1088" x2="56.8299" y2="95.1088" gradientUnits="userSpaceOnUse">
<stop stop-color="#83A6FF"/>
<stop offset="1" stop-color="#5A78FF"/>
</linearGradient>
<linearGradient id="paint9_linear" x1="132.822" y1="51.1516" x2="136.349" y2="51.1516" gradientUnits="userSpaceOnUse">
<stop stop-color="#83A6FF"/>
<stop offset="1" stop-color="#5A78FF"/>
</linearGradient>
<linearGradient id="paint10_linear" x1="130.275" y1="60.0884" x2="136.349" y2="60.0884" gradientUnits="userSpaceOnUse">
<stop stop-color="#FF66A9"/>
<stop offset="1" stop-color="#F53689"/>
</linearGradient>
<linearGradient id="paint11_linear" x1="134.355" y1="69.0253" x2="136.349" y2="69.0253" gradientUnits="userSpaceOnUse">
<stop stop-color="#83A6FF"/>
<stop offset="1" stop-color="#5A78FF"/>
</linearGradient>
<linearGradient id="paint12_linear" x1="66.9778" y1="35.6395" x2="103.413" y2="35.6395" gradientUnits="userSpaceOnUse">
<stop stop-color="#FF66A9"/>
<stop offset="1" stop-color="#F53689"/>
</linearGradient>
<linearGradient id="paint13_linear" x1="67.5132" y1="51.5364" x2="70.3995" y2="51.5364" gradientUnits="userSpaceOnUse">
<stop stop-color="#83A6FF"/>
<stop offset="1" stop-color="#5A78FF"/>
</linearGradient>
<linearGradient id="paint14_linear" x1="68.6366" y1="54.3273" x2="71.5228" y2="54.3273" gradientUnits="userSpaceOnUse">
<stop stop-color="#FF66A9"/>
<stop offset="1" stop-color="#F53689"/>
</linearGradient>
<linearGradient id="paint15_linear" x1="72.8604" y1="53.0663" x2="75.7467" y2="53.0663" gradientUnits="userSpaceOnUse">
<stop stop-color="#83A6FF"/>
<stop offset="1" stop-color="#5A78FF"/>
</linearGradient>
<linearGradient id="paint16_linear" x1="78.2076" y1="54.3325" x2="81.0939" y2="54.3325" gradientUnits="userSpaceOnUse">
<stop stop-color="#83A6FF"/>
<stop offset="1" stop-color="#5A78FF"/>
</linearGradient>
<linearGradient id="paint17_linear" x1="83.5548" y1="52.3629" x2="86.441" y2="52.3629" gradientUnits="userSpaceOnUse">
<stop stop-color="#83A6FF"/>
<stop offset="1" stop-color="#5A78FF"/>
</linearGradient>
<linearGradient id="paint18_linear" x1="88.9022" y1="54.0107" x2="91.7884" y2="54.0107" gradientUnits="userSpaceOnUse">
<stop stop-color="#83A6FF"/>
<stop offset="1" stop-color="#5A78FF"/>
</linearGradient>
<linearGradient id="paint19_linear" x1="94.2494" y1="53.0663" x2="97.1356" y2="53.0663" gradientUnits="userSpaceOnUse">
<stop stop-color="#83A6FF"/>
<stop offset="1" stop-color="#5A78FF"/>
</linearGradient>
<linearGradient id="paint20_linear" x1="99.5965" y1="54.3325" x2="102.483" y2="54.3325" gradientUnits="userSpaceOnUse">
<stop stop-color="#83A6FF"/>
<stop offset="1" stop-color="#5A78FF"/>
</linearGradient>
<linearGradient id="paint21_linear" x1="73.9282" y1="55.343" x2="76.8145" y2="55.343" gradientUnits="userSpaceOnUse">
<stop stop-color="#FF66A9"/>
<stop offset="1" stop-color="#F53689"/>
</linearGradient>
<linearGradient id="paint22_linear" x1="79.2475" y1="56.109" x2="82.1339" y2="56.109" gradientUnits="userSpaceOnUse">
<stop stop-color="#FF66A9"/>
<stop offset="1" stop-color="#F53689"/>
</linearGradient>
<linearGradient id="paint23_linear" x1="84.6779" y1="55.7544" x2="87.5642" y2="55.7544" gradientUnits="userSpaceOnUse">
<stop stop-color="#FF66A9"/>
<stop offset="1" stop-color="#F53689"/>
</linearGradient>
<linearGradient id="paint24_linear" x1="90.0526" y1="54.8749" x2="92.9388" y2="54.8749" gradientUnits="userSpaceOnUse">
<stop stop-color="#FF66A9"/>
<stop offset="1" stop-color="#F53689"/>
</linearGradient>
<linearGradient id="paint25_linear" x1="95.5381" y1="56.5487" x2="98.4243" y2="56.5487" gradientUnits="userSpaceOnUse">
<stop stop-color="#FF66A9"/>
<stop offset="1" stop-color="#F53689"/>
</linearGradient>
<linearGradient id="paint26_linear" x1="100.802" y1="56.6767" x2="103.688" y2="56.6767" gradientUnits="userSpaceOnUse">
<stop stop-color="#FF66A9"/>
<stop offset="1" stop-color="#F53689"/>
</linearGradient>
<linearGradient id="paint27_linear" x1="67.8101" y1="78.6636" x2="101.793" y2="78.6636" gradientUnits="userSpaceOnUse">
<stop stop-color="#83A6FF"/>
<stop offset="1" stop-color="#5A78FF"/>
</linearGradient>
<linearGradient id="paint28_linear" x1="96.8676" y1="98.3787" x2="112.352" y2="98.3787" gradientUnits="userSpaceOnUse">
<stop stop-color="#83A6FF"/>
<stop offset="1" stop-color="#5A78FF"/>
</linearGradient>
</defs>
</svg>
