<svg width="164" height="130" viewBox="0 0 164 130" fill="none" xmlns="http://www.w3.org/2000/svg">
<path d="M84.0243 101C110.484 101 131.933 79.4938 131.933 52.9646C131.933 26.4354 110.484 4.9292 84.0243 4.9292C57.565 4.9292 36.1155 26.4354 36.1155 52.9646C36.1155 79.4938 57.565 101 84.0243 101Z" fill="#2A2E39"/>
<path d="M90.4829 22.6163C100.508 24.7426 108.702 31.7014 112.558 40.9799" stroke="#738EFF" stroke-width="3" stroke-miterlimit="10" stroke-linecap="round" stroke-linejoin="round"/>
<path d="M76.2162 82.8297C63.0099 79.3502 53.1775 67.2689 53.1775 52.8679C53.1775 52.4813 53.1775 52.0947 53.1775 51.7081" stroke="#738EFF" stroke-width="3" stroke-miterlimit="10" stroke-linecap="round" stroke-linejoin="round"/>
<path d="M106.002 56.6374L105.135 54.2211C104.942 53.6412 104.364 53.2546 103.785 53.2546H88.5548C87.3016 53.2546 86.3376 54.2211 86.3376 55.4775V89.4986V83.9895H137.91V59.9235C137.91 58.667 136.946 57.7005 135.692 57.7005H107.352C106.774 57.6039 106.195 57.2173 106.002 56.6374Z" fill="#1E242D"/>
<g filter="url(#filter0_d)">
<path d="M129.137 58.2804L129.523 88.3388C129.523 89.4019 128.655 90.1751 127.691 90.1751H98.4834C97.423 90.1751 96.6519 89.3053 96.6519 88.3388V49.6785C96.6519 48.6153 97.5194 47.8421 98.4834 47.8421H119.691L129.137 58.2804Z" fill="#69738D"/>
</g>
<path d="M124.125 79.0603H106.581C106.388 79.0603 106.099 78.867 106.099 78.5771C106.099 78.2871 106.292 78.0938 106.581 78.0938H124.125C124.318 78.0938 124.607 78.2871 124.607 78.5771C124.607 78.867 124.318 79.0603 124.125 79.0603Z" fill="#222F43" fill-opacity="0.73"/>
<path d="M104.46 79.0603H101.376C101.183 79.0603 100.894 78.867 100.894 78.5771C100.894 78.2871 101.086 78.0938 101.376 78.0938H104.46C104.653 78.0938 104.942 78.2871 104.942 78.5771C104.942 78.867 104.749 79.0603 104.46 79.0603Z" fill="#222F43" fill-opacity="0.73"/>
<path d="M124.125 74.3244H116.317C116.124 74.3244 115.835 74.1311 115.835 73.8412C115.835 73.5512 116.028 73.3579 116.317 73.3579H124.125C124.318 73.3579 124.607 73.5512 124.607 73.8412C124.607 74.1311 124.318 74.3244 124.125 74.3244Z" fill="#222F43" fill-opacity="0.73"/>
<path d="M112.943 74.3244H101.568C101.375 74.3244 101.086 74.1311 101.086 73.8412C101.086 73.5512 101.279 73.3579 101.568 73.3579H112.943C113.136 73.3579 113.425 73.5512 113.425 73.8412C113.425 74.1311 113.232 74.3244 112.943 74.3244Z" fill="#222F43" fill-opacity="0.73"/>
<path d="M124.221 69.5885H121.233C121.04 69.5885 120.751 69.3952 120.751 69.1053C120.751 68.912 120.944 68.622 121.233 68.622H124.221C124.414 68.622 124.703 68.8153 124.703 69.1053C124.703 69.3952 124.51 69.5885 124.221 69.5885Z" fill="#222F43" fill-opacity="0.73"/>
<path d="M118.438 69.5885H101.665C101.472 69.5885 101.183 69.3952 101.183 69.1053C101.183 68.912 101.375 68.622 101.665 68.622H118.438C118.63 68.622 118.92 68.8153 118.92 69.1053C118.823 69.3952 118.63 69.5885 118.438 69.5885Z" fill="#222F43" fill-opacity="0.73"/>
<path d="M110.822 84.2794H109.762C109.569 84.2794 109.28 84.0861 109.28 83.7962C109.28 83.5062 109.473 83.3129 109.762 83.3129H110.822C111.015 83.3129 111.304 83.5062 111.304 83.7962C111.304 84.0861 111.111 84.2794 110.822 84.2794Z" fill="#222F43" fill-opacity="0.73"/>
<path d="M107.93 84.2794H101.761C101.568 84.2794 101.279 84.0861 101.279 83.7962C101.279 83.5062 101.472 83.3129 101.761 83.3129H107.93C108.123 83.3129 108.412 83.5062 108.412 83.7962C108.412 84.0861 108.123 84.2794 107.93 84.2794Z" fill="#222F43" fill-opacity="0.73"/>
<path d="M124.414 64.8526H113.618C113.425 64.8526 113.136 64.6593 113.136 64.3694C113.136 64.0794 113.329 63.8861 113.618 63.8861H124.414C124.607 63.8861 124.896 64.0794 124.896 64.3694C124.896 64.6593 124.607 64.8526 124.414 64.8526Z" fill="#222F43" fill-opacity="0.73"/>
<path d="M110.148 64.8526H101.857C101.665 64.8526 101.375 64.6593 101.375 64.3694C101.375 64.0794 101.568 63.8861 101.857 63.8861H110.148C110.34 63.8861 110.63 64.0794 110.63 64.3694C110.63 64.6593 110.437 64.8526 110.148 64.8526Z" fill="#222F43" fill-opacity="0.73"/>
<path d="M116.028 54.1244H101.954C101.665 54.1244 101.375 53.8345 101.375 53.5445C101.375 53.2546 101.665 52.9646 101.954 52.9646H115.931C116.22 52.9646 116.51 53.2546 116.51 53.5445C116.51 53.8345 116.317 54.1244 116.028 54.1244Z" fill="#222F43" fill-opacity="0.73"/>
<path d="M107.352 57.5072H101.954C101.665 57.5072 101.375 57.2172 101.375 56.9273C101.375 56.6373 101.665 56.3474 101.954 56.3474H107.352C107.641 56.3474 107.93 56.6373 107.93 56.9273C107.93 57.2172 107.641 57.5072 107.352 57.5072Z" fill="#222F43" fill-opacity="0.73"/>
<path d="M119.691 47.8421V56.1541C119.691 57.3139 120.655 58.2804 121.811 58.2804H129.137" fill="#222F43" fill-opacity="0.73"/>
<path d="M102.952 70.555H92.3836C91.8617 70.555 91.405 70.0997 91.405 69.5792V64.7653C91.405 64.2449 91.8617 63.7895 92.3836 63.7895H102.952C103.474 63.7895 103.93 64.2449 103.93 64.7653V69.5792C103.996 70.0997 103.539 70.555 102.952 70.555Z" fill="#F04B98"/>
<g filter="url(#filter1_d)">
<path d="M137.639 69.5243L133.98 85.3505C133.73 86.2849 132.566 86.9857 131.235 86.9857H91.3961C90.0654 86.9857 88.901 86.2849 88.6515 85.3505L85.6573 72.3859C85.4078 71.3931 86.489 70.5171 87.9029 70.5171H110.359C111.024 70.5171 111.607 70.2251 111.856 69.7579L112.522 68.4147C112.771 67.9475 113.353 67.6555 114.019 67.6555H135.394C136.808 67.6555 137.889 68.5315 137.639 69.5243Z" fill="#455363"/>
</g>
<g filter="url(#filter2_d)">
<path d="M141.958 67.1722L137.717 93.3646C137.428 94.911 136.078 96.0708 134.536 96.0708H88.362C86.8196 96.0708 85.4701 94.911 85.1809 93.3646L81.7106 71.9081C81.4214 70.2651 82.6746 68.8153 84.3133 68.8153H110.34C111.111 68.8153 111.786 68.332 112.075 67.5588L112.847 65.3359C113.136 64.5627 113.811 64.0794 114.582 64.0794H139.355C140.994 64.0794 142.247 65.5292 141.958 67.1722Z" fill="#474E61"/>
</g>
<path d="M87.8799 81.9598L87.0123 77.0306C86.9159 76.354 87.3979 75.6775 87.9763 75.6775H103.207C103.785 75.6775 104.171 76.1607 104.171 76.7406L104.364 81.6698C104.364 82.2497 103.978 82.8296 103.4 82.8296H88.9403C88.4583 82.8296 87.9763 82.443 87.8799 81.9598Z" fill="#394154"/>
<path d="M102.147 78.3837H89.2296C89.0368 78.3837 88.844 78.1904 88.844 77.9971C88.844 77.8038 89.0368 77.6105 89.2296 77.6105H102.05C102.243 77.6105 102.436 77.8038 102.436 77.9971C102.532 78.1904 102.339 78.3837 102.147 78.3837Z" fill="#455363"/>
<path d="M97.7122 80.8H89.9041C89.7113 80.8 89.5186 80.6067 89.5186 80.4134C89.5186 80.2201 89.7113 80.0268 89.9041 80.0268H97.7122C97.905 80.0268 98.0978 80.2201 98.0978 80.4134C98.0978 80.6067 98.0014 80.8 97.7122 80.8Z" fill="#455363"/>
<path d="M46.8153 3.38278L45.9477 0.966507C45.7549 0.386603 45.1765 0 44.5018 0H29.0784C27.8252 0 26.7649 1.06316 26.7649 2.31962V37.1139V31.4115H79.4936V6.76555C79.4936 5.50909 78.4332 4.44593 77.18 4.44593H48.2612C47.6828 4.44593 47.1045 4.05933 46.8153 3.38278Z" fill="#1E242D"/>
<g filter="url(#filter3_d)">
<path d="M83.5423 14.111L79.2045 40.8832C78.9153 42.4296 77.5657 43.6861 75.927 43.6861H28.8857C27.247 43.6861 25.8974 42.5263 25.6082 40.8832L22.0416 19.0402C21.7524 17.3971 23.0055 15.8507 24.7407 15.8507H51.2496C52.0208 15.8507 52.7919 15.3674 52.9847 14.5942L53.7559 12.2746C54.0451 11.5014 54.7199 11.0182 55.491 11.0182H80.8432C82.5783 10.9215 83.8315 12.4679 83.5423 14.111Z" fill="#474E61"/>
</g>
<path d="M28.4038 29.1885L27.5363 24.1627C27.4399 23.4861 27.9219 22.8096 28.5002 22.8096H44.02C44.5984 22.8096 44.984 23.2928 44.984 23.8727L45.1768 28.8986C45.1768 29.5751 44.6948 30.0584 44.2128 30.0584H29.3678C28.8858 30.0584 28.5002 29.7684 28.4038 29.1885Z" fill="#394154"/>
<path d="M42.8634 25.6124H29.8499C29.6571 25.6124 29.4644 25.4191 29.4644 25.1292C29.4644 24.8392 29.6571 24.6459 29.8499 24.6459H42.9598C43.1526 24.6459 43.3454 24.8392 43.3454 25.1292C43.249 25.4191 43.1526 25.6124 42.8634 25.6124Z" fill="#455363"/>
<path d="M38.4289 28.0287H30.4281C30.2353 28.0287 30.0425 27.8354 30.0425 27.5454C30.0425 27.2555 30.2353 27.0622 30.4281 27.0622H38.4289C38.6217 27.0622 38.8145 27.2555 38.8145 27.5454C38.8145 27.8354 38.7181 28.0287 38.4289 28.0287Z" fill="#455363"/>
<path d="M91.6396 27.2555L88.4585 22.2296L93.4711 19.0402" stroke="#738EFF" stroke-width="3" stroke-miterlimit="10" stroke-linecap="round" stroke-linejoin="round"/>
<path d="M74.9632 77.8038L77.4695 83.2163L72.0713 85.8258" stroke="#738EFF" stroke-width="3" stroke-miterlimit="10" stroke-linecap="round" stroke-linejoin="round"/>
<defs>
<filter id="filter0_d" x="90.6519" y="39.8421" width="44.8711" height="54.333" filterUnits="userSpaceOnUse" color-interpolation-filters="sRGB">
<feFlood flood-opacity="0" result="BackgroundImageFix"/>
<feColorMatrix in="SourceAlpha" type="matrix" values="0 0 0 0 0 0 0 0 0 0 0 0 0 0 0 0 0 0 127 0"/>
<feOffset dy="-2"/>
<feGaussianBlur stdDeviation="3"/>
<feColorMatrix type="matrix" values="0 0 0 0 0.397708 0 0 0 0 0.47749 0 0 0 0 0.575 0 0 0 0.11 0"/>
<feBlend mode="normal" in2="BackgroundImageFix" result="effect1_dropShadow"/>
<feBlend mode="normal" in="SourceGraphic" in2="effect1_dropShadow" result="shape"/>
</filter>
<filter id="filter1_d" x="83.6213" y="56.6555" width="56.0539" height="30.3301" filterUnits="userSpaceOnUse" color-interpolation-filters="sRGB">
<feFlood flood-opacity="0" result="BackgroundImageFix"/>
<feColorMatrix in="SourceAlpha" type="matrix" values="0 0 0 0 0 0 0 0 0 0 0 0 0 0 0 0 0 0 127 0"/>
<feOffset dy="-9"/>
<feGaussianBlur stdDeviation="1"/>
<feColorMatrix type="matrix" values="0 0 0 0 0 0 0 0 0 0 0 0 0 0 0 0 0 0 0.18 0"/>
<feBlend mode="normal" in2="BackgroundImageFix" result="effect1_dropShadow"/>
<feBlend mode="normal" in="SourceGraphic" in2="effect1_dropShadow" result="shape"/>
</filter>
<filter id="filter2_d" x="59.6689" y="53.0794" width="104.331" height="75.9914" filterUnits="userSpaceOnUse" color-interpolation-filters="sRGB">
<feFlood flood-opacity="0" result="BackgroundImageFix"/>
<feColorMatrix in="SourceAlpha" type="matrix" values="0 0 0 0 0 0 0 0 0 0 0 0 0 0 0 0 0 0 127 0"/>
<feOffset dy="11"/>
<feGaussianBlur stdDeviation="11"/>
<feColorMatrix type="matrix" values="0 0 0 0 0.0231944 0 0 0 0 0.0277569 0 0 0 0 0.0333333 0 0 0 0.18 0"/>
<feBlend mode="normal" in2="BackgroundImageFix" result="effect1_dropShadow"/>
<feBlend mode="normal" in="SourceGraphic" in2="effect1_dropShadow" result="shape"/>
</filter>
<filter id="filter3_d" x="0" y="0.013855" width="105.584" height="76.6722" filterUnits="userSpaceOnUse" color-interpolation-filters="sRGB">
<feFlood flood-opacity="0" result="BackgroundImageFix"/>
<feColorMatrix in="SourceAlpha" type="matrix" values="0 0 0 0 0 0 0 0 0 0 0 0 0 0 0 0 0 0 127 0"/>
<feOffset dy="11"/>
<feGaussianBlur stdDeviation="11"/>
<feColorMatrix type="matrix" values="0 0 0 0 0.0231944 0 0 0 0 0.0277569 0 0 0 0 0.0333333 0 0 0 0.18 0"/>
<feBlend mode="normal" in2="BackgroundImageFix" result="effect1_dropShadow"/>
<feBlend mode="normal" in="SourceGraphic" in2="effect1_dropShadow" result="shape"/>
</filter>
</defs>
</svg>
