<svg width="120" height="107" viewBox="0 0 120 107" fill="none" xmlns="http://www.w3.org/2000/svg">
<path d="M4.14186 20.1074C5.52818 19.6553 6.28673 18.1611 5.83614 16.77C5.38555 15.3789 3.89645 14.6178 2.51014 15.0699C1.12383 15.522 0.365274 17.0162 0.815862 18.4073C1.26645 19.7984 2.75555 20.5595 4.14186 20.1074Z" fill="#2A2E38"/>
<path d="M9.90363 11.4659C10.8463 11.1585 11.3621 10.1424 11.0557 9.19651C10.7493 8.25059 9.73675 7.733 8.79405 8.04045C7.85136 8.3479 7.33554 9.36396 7.64194 10.3099C7.94834 11.2558 8.96093 11.7734 9.90363 11.4659Z" fill="#2A2E38"/>
<path d="M10.7258 102.339C11.3672 102.339 11.8872 101.817 11.8872 101.173C11.8872 100.53 11.3672 100.008 10.7258 100.008C10.0844 100.008 9.56445 100.53 9.56445 101.173C9.56445 101.817 10.0844 102.339 10.7258 102.339Z" fill="url(#paint0_linear)"/>
<path d="M118.839 61.5515C119.48 61.5515 120 61.0298 120 60.3862C120 59.7426 119.48 59.2208 118.839 59.2208C118.197 59.2208 117.677 59.7426 117.677 60.3862C117.677 61.0298 118.197 61.5515 118.839 61.5515Z" fill="url(#paint1_linear)"/>
<path d="M90.86 3.60198C91.8513 3.60198 92.6549 2.79565 92.6549 1.80099C92.6549 0.806331 91.8513 0 90.86 0C89.8688 0 89.0652 0.806331 89.0652 1.80099C89.0652 2.79565 89.8688 3.60198 90.86 3.60198Z" fill="url(#paint2_linear)"/>
<path d="M116.994 29.0242C118.629 27.5244 118.743 24.9779 117.249 23.3367C115.754 21.6954 113.216 21.5807 111.581 23.0806C109.945 24.5805 109.831 27.1269 111.325 28.7682C112.82 30.4095 115.358 30.5241 116.994 29.0242Z" fill="#2A2E38"/>
<path d="M117.297 10.9762C117.985 10.3447 118.033 9.27249 117.404 8.58142C116.775 7.89036 115.706 7.84209 115.018 8.47362C114.329 9.10514 114.281 10.1773 114.91 10.8684C115.539 11.5594 116.608 11.6077 117.297 10.9762Z" fill="#2A2E38"/>
<path d="M56.8639 107C85.8438 107 109.337 83.4267 109.337 54.3475C109.337 25.2683 85.8438 1.69502 56.8639 1.69502C27.884 1.69502 4.39111 25.2683 4.39111 54.3475C4.39111 83.4267 27.884 107 56.8639 107Z" fill="#2A2E38"/>
<path d="M108.175 12.8189V73.3109C108.175 74.5822 107.119 75.6416 105.852 75.6416H22.9729C21.7059 75.6416 20.6501 74.5822 20.6501 73.3109V12.8189C20.6501 11.5476 21.7059 10.4882 22.9729 10.4882H105.747C107.119 10.4882 108.175 11.5476 108.175 12.8189Z" fill="#383F52"/>
<path d="M27.3016 14.9376V75.6416H22.9729C21.7059 75.6416 20.6501 74.5822 20.6501 73.3109V14.9376H27.3016Z" fill="#102030"/>
<path d="M108.175 12.8189V15.7852H20.6501V12.8189C20.6501 11.5476 21.7059 10.4882 22.9729 10.4882H105.747C107.119 10.4882 108.175 11.5476 108.175 12.8189Z" fill="url(#paint3_linear)"/>
<path d="M23.2896 14.0901C23.6978 14.0901 24.0286 13.7581 24.0286 13.3485C24.0286 12.939 23.6978 12.6069 23.2896 12.6069C22.8814 12.6069 22.5505 12.939 22.5505 13.3485C22.5505 13.7581 22.8814 14.0901 23.2896 14.0901Z" fill="white"/>
<path d="M25.4012 14.0901C25.8093 14.0901 26.1402 13.7581 26.1402 13.3485C26.1402 12.939 25.8093 12.6069 25.4012 12.6069C24.993 12.6069 24.6621 12.939 24.6621 13.3485C24.6621 13.7581 24.993 14.0901 25.4012 14.0901Z" fill="white"/>
<path d="M27.5127 14.0901C27.9209 14.0901 28.2518 13.7581 28.2518 13.3485C28.2518 12.939 27.9209 12.6069 27.5127 12.6069C27.1046 12.6069 26.7737 12.939 26.7737 13.3485C26.7737 13.7581 27.1046 14.0901 27.5127 14.0901Z" fill="white"/>
<path d="M46.4115 21.1881H30.1524C29.7301 21.1881 29.4133 20.8703 29.4133 20.4465C29.4133 20.0228 29.7301 19.705 30.1524 19.705H46.4115C46.8339 19.705 47.1506 20.0228 47.1506 20.4465C47.1506 20.8703 46.7283 21.1881 46.4115 21.1881Z" fill="#242B37"/>
<path d="M24.0288 21.1881H23.3953C22.973 21.1881 22.6562 20.8703 22.6562 20.4465C22.6562 20.0228 22.973 19.705 23.3953 19.705H24.0288C24.4511 19.705 24.7678 20.0228 24.7678 20.4465C24.7678 20.8703 24.4511 21.1881 24.0288 21.1881Z" fill="#242B37"/>
<path d="M24.0288 24.5783H23.3953C22.973 24.5783 22.6562 24.2604 22.6562 23.8367C22.6562 23.4129 22.973 23.0951 23.3953 23.0951H24.0288C24.4511 23.0951 24.7678 23.4129 24.7678 23.8367C24.7678 24.2604 24.4511 24.5783 24.0288 24.5783Z" fill="#242B37"/>
<path d="M24.0288 27.9684H23.3953C22.973 27.9684 22.6562 27.6506 22.6562 27.2268C22.6562 26.8031 22.973 26.4852 23.3953 26.4852H24.0288C24.4511 26.4852 24.7678 26.8031 24.7678 27.2268C24.7678 27.6506 24.4511 27.9684 24.0288 27.9684Z" fill="#242B37"/>
<path d="M24.0288 31.3584H23.3953C22.973 31.3584 22.6562 31.0406 22.6562 30.6168C22.6562 30.1931 22.973 29.8752 23.3953 29.8752H24.0288C24.4511 29.8752 24.7678 30.1931 24.7678 30.6168C24.7678 31.0406 24.4511 31.3584 24.0288 31.3584Z" fill="#242B37"/>
<path d="M24.0288 34.7485H23.3953C22.973 34.7485 22.6562 34.4307 22.6562 34.007C22.6562 33.5832 22.973 33.2654 23.3953 33.2654H24.0288C24.4511 33.2654 24.7678 33.5832 24.7678 34.007C24.7678 34.4307 24.4511 34.7485 24.0288 34.7485Z" fill="#242B37"/>
<path d="M24.0288 38.0327H23.3953C22.973 38.0327 22.6562 37.7149 22.6562 37.2911C22.6562 36.8674 22.973 36.5496 23.3953 36.5496H24.0288C24.4511 36.5496 24.7678 36.8674 24.7678 37.2911C24.7678 37.8208 24.4511 38.0327 24.0288 38.0327Z" fill="#242B37"/>
<path d="M24.0288 41.4229H23.3953C22.973 41.4229 22.6562 41.105 22.6562 40.6813C22.6562 40.2575 22.973 39.9397 23.3953 39.9397H24.0288C24.4511 39.9397 24.7678 40.2575 24.7678 40.6813C24.7678 41.105 24.4511 41.4229 24.0288 41.4229Z" fill="#242B37"/>
<path d="M24.0288 44.8129H23.3953C22.973 44.8129 22.6562 44.4951 22.6562 44.0713C22.6562 43.6475 22.973 43.3297 23.3953 43.3297H24.0288C24.4511 43.3297 24.7678 43.6475 24.7678 44.0713C24.7678 44.4951 24.4511 44.8129 24.0288 44.8129Z" fill="#242B37"/>
<path d="M24.0288 48.203H23.3953C22.973 48.203 22.6562 47.8852 22.6562 47.4614C22.6562 47.0377 22.973 46.7198 23.3953 46.7198H24.0288C24.4511 46.7198 24.7678 47.0377 24.7678 47.4614C24.7678 47.8852 24.4511 48.203 24.0288 48.203Z" fill="#242B37"/>
<path d="M24.0288 51.5932H23.3953C22.973 51.5932 22.6562 51.2753 22.6562 50.8516C22.6562 50.4278 22.973 50.11 23.3953 50.11H24.0288C24.4511 50.11 24.7678 50.4278 24.7678 50.8516C24.7678 51.2753 24.4511 51.5932 24.0288 51.5932Z" fill="#242B37"/>
<path d="M24.0288 54.9832H23.3953C22.973 54.9832 22.6562 54.6653 22.6562 54.2416C22.6562 53.8178 22.973 53.5 23.3953 53.5H24.0288C24.4511 53.5 24.7678 53.8178 24.7678 54.2416C24.7678 54.6653 24.4511 54.9832 24.0288 54.9832Z" fill="#242B37"/>
<path d="M24.0288 58.3733H23.3953C22.973 58.3733 22.6562 58.0555 22.6562 57.6317C22.6562 57.208 22.973 56.8901 23.3953 56.8901H24.0288C24.4511 56.8901 24.7678 57.208 24.7678 57.6317C24.7678 58.0555 24.4511 58.3733 24.0288 58.3733Z" fill="#242B37"/>
<path d="M24.0288 61.7634H23.3953C22.973 61.7634 22.6562 61.4456 22.6562 61.0219C22.6562 60.5981 22.973 60.2803 23.3953 60.2803H24.0288C24.4511 60.2803 24.7678 60.5981 24.7678 61.0219C24.7678 61.4456 24.4511 61.7634 24.0288 61.7634Z" fill="#242B37"/>
<path d="M24.0288 65.1535H23.3953C22.973 65.1535 22.6562 64.8356 22.6562 64.4119C22.6562 63.9881 22.973 63.6703 23.3953 63.6703H24.0288C24.4511 63.6703 24.7678 63.9881 24.7678 64.4119C24.7678 64.8356 24.4511 65.1535 24.0288 65.1535Z" fill="#242B37"/>
<path d="M24.0288 68.5436H23.3953C22.973 68.5436 22.6562 68.2258 22.6562 67.802C22.6562 67.3782 22.973 67.0604 23.3953 67.0604H24.0288C24.4511 67.0604 24.7678 67.3782 24.7678 67.802C24.7678 68.2258 24.4511 68.5436 24.0288 68.5436Z" fill="#242B37"/>
<path d="M24.0288 71.8278H23.3953C22.973 71.8278 22.6562 71.5099 22.6562 71.0862C22.6562 70.6624 22.973 70.3446 23.3953 70.3446H24.0288C24.4511 70.3446 24.7678 70.6624 24.7678 71.0862C24.7678 71.5099 24.4511 71.8278 24.0288 71.8278Z" fill="#242B37"/>
<path d="M43.033 24.5783H30.1524C29.7301 24.5783 29.4133 24.2604 29.4133 23.8367C29.4133 23.4129 29.7301 23.0951 30.1524 23.0951H43.033C43.4553 23.0951 43.7721 23.4129 43.7721 23.8367C43.6665 24.2604 43.4553 24.5783 43.033 24.5783Z" fill="#242B37"/>
<path d="M77.6629 24.5783H45.5669C45.1446 24.5783 44.8279 24.2604 44.8279 23.8367C44.8279 23.4129 45.1446 23.0951 45.5669 23.0951H77.5574C77.9797 23.0951 78.2964 23.4129 78.2964 23.8367C78.2964 24.2604 77.9797 24.5783 77.6629 24.5783Z" fill="#242B37"/>
<path d="M91.4939 24.5783H82.2029C81.7806 24.5783 81.4639 24.2604 81.4639 23.8367C81.4639 23.4129 81.7806 23.0951 82.2029 23.0951H91.4939C91.9162 23.0951 92.2329 23.4129 92.2329 23.8367C92.1273 24.2604 91.8106 24.5783 91.4939 24.5783Z" fill="#242B37"/>
<path d="M99.0954 24.5783H95.928C95.5057 24.5783 95.189 24.2604 95.189 23.8367C95.189 23.4129 95.5057 23.0951 95.928 23.0951H99.0954C99.5177 23.0951 99.8344 23.4129 99.8344 23.8367C99.8344 24.2604 99.5177 24.5783 99.0954 24.5783Z" fill="#242B37"/>
<path d="M51.2682 27.8624H35.0091C34.5868 27.8624 34.27 27.5446 34.27 27.1209C34.27 26.6971 34.5868 26.3793 35.0091 26.3793H51.2682C51.6906 26.3793 52.0073 26.6971 52.0073 27.1209C52.0073 27.5446 51.6906 27.8624 51.2682 27.8624Z" fill="#242B37"/>
<path d="M51.2682 41.3169H35.0091C34.5868 41.3169 34.27 40.9991 34.27 40.5753C34.27 40.1516 34.5868 39.8337 35.0091 39.8337H51.2682C51.6906 39.8337 52.0073 40.1516 52.0073 40.5753C52.0073 40.9991 51.6906 41.3169 51.2682 41.3169Z" fill="#242B37"/>
<path d="M46.9395 44.7069H35.0091C34.5868 44.7069 34.27 44.3891 34.27 43.9653C34.27 43.5416 34.5868 43.2238 35.0091 43.2238H46.9395C47.3618 43.2238 47.6786 43.5416 47.6786 43.9653C47.6786 44.3891 47.3618 44.7069 46.9395 44.7069Z" fill="#242B37"/>
<path d="M78.5075 44.7069H50.3179C49.8956 44.7069 49.5789 44.3891 49.5789 43.9653C49.5789 43.5416 49.8956 43.2238 50.3179 43.2238H78.5075C78.9298 43.2238 79.2466 43.5416 79.2466 43.9653C79.2466 44.3891 78.9298 44.7069 78.5075 44.7069Z" fill="#242B37"/>
<path d="M55.808 31.2526H40.7102C40.2879 31.2526 39.9712 30.9348 39.9712 30.511C39.9712 30.0872 40.2879 29.7694 40.7102 29.7694H55.9136C56.3359 29.7694 56.6527 30.0872 56.6527 30.511C56.5471 30.9348 56.2304 31.2526 55.808 31.2526Z" fill="#242B37"/>
<path d="M64.3598 31.2526H58.1307C57.7083 31.2526 57.3916 30.9348 57.3916 30.511C57.3916 30.0872 57.7083 29.7694 58.1307 29.7694H64.3598C64.7821 29.7694 65.0989 30.0872 65.0989 30.511C65.0989 30.9348 64.7821 31.2526 64.3598 31.2526Z" fill="#242B37"/>
<path d="M82.6251 34.6426H40.7102C40.2879 34.6426 39.9712 34.3248 39.9712 33.901C39.9712 33.4772 40.2879 33.1594 40.7102 33.1594H82.6251C83.0474 33.1594 83.3642 33.4772 83.3642 33.901C83.3642 34.3248 82.9418 34.6426 82.6251 34.6426Z" fill="#242B37"/>
<path d="M90.0156 34.6426H86.1092C85.6869 34.6426 85.3701 34.3248 85.3701 33.901C85.3701 33.4772 85.6869 33.1594 86.1092 33.1594H90.0156C90.4379 33.1594 90.7547 33.4772 90.7547 33.901C90.7547 34.3248 90.4379 34.6426 90.0156 34.6426Z" fill="#242B37"/>
<path d="M105.113 34.6426H92.9717C92.5494 34.6426 92.2327 34.3248 92.2327 33.901C92.2327 33.4772 92.5494 33.1594 92.9717 33.1594H105.008C105.43 33.1594 105.747 33.4772 105.747 33.901C105.747 34.3248 105.43 34.6426 105.113 34.6426Z" fill="#242B37"/>
<path d="M69.5333 38.0327H40.7102C40.2879 38.0327 39.9712 37.7149 39.9712 37.2911C39.9712 36.8674 40.2879 36.5496 40.7102 36.5496H69.5333C69.9556 36.5496 70.2724 36.8674 70.2724 37.2911C70.1668 37.7149 69.85 38.0327 69.5333 38.0327Z" fill="#242B37"/>
<path d="M56.8638 51.4872H45.6724C45.2501 51.4872 44.9333 51.1694 44.9333 50.7456C44.9333 50.3219 45.2501 50.004 45.6724 50.004H56.8638C57.2861 50.004 57.6028 50.3219 57.6028 50.7456C57.6028 51.1694 57.2861 51.4872 56.8638 51.4872Z" fill="#242B37"/>
<path d="M71.3282 51.4872H59.3977C58.9754 51.4872 58.6587 51.1694 58.6587 50.7456C58.6587 50.3219 58.9754 50.004 59.3977 50.004H71.3282C71.7505 50.004 72.0672 50.3219 72.0672 50.7456C72.0672 51.1694 71.7505 51.4872 71.3282 51.4872Z" fill="#242B37"/>
<path d="M82.2029 51.4872H73.7566C73.3343 51.4872 73.0176 51.1694 73.0176 50.7456C73.0176 50.3219 73.3343 50.004 73.7566 50.004H82.2029C82.6253 50.004 82.942 50.3219 82.942 50.7456C82.942 51.1694 82.5197 51.4872 82.2029 51.4872Z" fill="#242B37"/>
<path d="M89.6989 51.4872H85.3702C84.9478 51.4872 84.6311 51.1694 84.6311 50.7456C84.6311 50.3219 84.9478 50.004 85.3702 50.004H89.6989C90.1212 50.004 90.4379 50.3219 90.4379 50.7456C90.4379 51.1694 90.1212 51.4872 89.6989 51.4872Z" fill="#242B37"/>
<path d="M56.8638 61.5515H45.6724C45.2501 61.5515 44.9333 61.2337 44.9333 60.8099C44.9333 60.3862 45.2501 60.0684 45.6724 60.0684H56.8638C57.2861 60.0684 57.6028 60.3862 57.6028 60.8099C57.6028 61.2337 57.2861 61.5515 56.8638 61.5515Z" fill="#242B37"/>
<path d="M82.0972 71.7218H45.6724C45.2501 71.7218 44.9333 71.404 44.9333 70.9802C44.9333 70.5565 45.2501 70.2386 45.6724 70.2386H82.0972C82.5195 70.2386 82.8362 70.5565 82.8362 70.9802C82.8362 71.404 82.5195 71.7218 82.0972 71.7218Z" fill="#242B37"/>
<path d="M61.9315 54.7714H50.6346C50.2122 54.7714 49.8955 54.4536 49.8955 54.0298C49.8955 53.606 50.2122 53.2882 50.6346 53.2882H61.9315C62.3538 53.2882 62.6706 53.606 62.6706 54.0298C62.6706 54.4536 62.2483 54.7714 61.9315 54.7714Z" fill="#242B37"/>
<path d="M80.1969 54.7714H64.2544C63.8321 54.7714 63.5154 54.4536 63.5154 54.0298C63.5154 53.606 63.8321 53.2882 64.2544 53.2882H80.1969C80.6192 53.2882 80.9359 53.606 80.9359 54.0298C80.9359 54.4536 80.5136 54.7714 80.1969 54.7714Z" fill="#242B37"/>
<path d="M90.6491 54.7714H82.5196C82.0973 54.7714 81.7805 54.4536 81.7805 54.0298C81.7805 53.606 82.0973 53.2882 82.5196 53.2882H90.6491C91.0715 53.2882 91.3882 53.606 91.3882 54.0298C91.3882 54.4536 91.0715 54.7714 90.6491 54.7714Z" fill="#242B37"/>
<path d="M95.7168 54.7714H92.9717C92.5494 54.7714 92.2327 54.4536 92.2327 54.0298C92.2327 53.606 92.5494 53.2882 92.9717 53.2882H95.7168C96.1391 53.2882 96.4558 53.606 96.4558 54.0298C96.4558 54.4536 96.1391 54.7714 95.7168 54.7714Z" fill="#242B37"/>
<path d="M64.4655 58.1614H50.7403C50.318 58.1614 50.0012 57.8436 50.0012 57.4198C50.0012 56.996 50.318 56.6782 50.7403 56.6782H64.4655C64.8879 56.6782 65.2046 56.996 65.2046 57.4198C65.2046 57.8436 64.8879 58.1614 64.4655 58.1614Z" fill="#242B37"/>
<path d="M70.9059 58.1614H67.105C66.6827 58.1614 66.366 57.8436 66.366 57.4198C66.366 56.996 66.6827 56.6782 67.105 56.6782H70.9059C71.3282 56.6782 71.6449 56.996 71.6449 57.4198C71.6449 57.8436 71.2226 58.1614 70.9059 58.1614Z" fill="#242B37"/>
<path d="M101.946 58.1614H73.5452C73.1229 58.1614 72.8062 57.8436 72.8062 57.4198C72.8062 56.996 73.1229 56.6782 73.5452 56.6782H101.946C102.368 56.6782 102.685 56.996 102.685 57.4198C102.685 57.8436 102.263 58.1614 101.946 58.1614Z" fill="#242B37"/>
<path d="M56.8638 48.0971H40.7102C40.2879 48.0971 39.9712 47.7792 39.9712 47.3555C39.9712 46.9317 40.2879 46.6139 40.7102 46.6139H56.9694C57.3917 46.6139 57.7085 46.9317 57.7085 47.3555C57.7085 47.7792 57.2861 48.0971 56.8638 48.0971Z" fill="#242B37"/>
<path d="M63.7264 48.0971H59.5032C59.0809 48.0971 58.7642 47.7792 58.7642 47.3555C58.7642 46.9317 59.0809 46.6139 59.5032 46.6139H63.7264C64.1487 46.6139 64.4654 46.9317 64.4654 47.3555C64.4654 47.7792 64.1487 48.0971 63.7264 48.0971Z" fill="#242B37"/>
<path d="M56.8638 64.9417H40.7102C40.2879 64.9417 39.9712 64.6238 39.9712 64.2001C39.9712 63.7763 40.2879 63.4585 40.7102 63.4585H56.9694C57.3917 63.4585 57.7085 63.7763 57.7085 64.2001C57.6029 64.6238 57.2861 64.9417 56.8638 64.9417Z" fill="#242B37"/>
<path d="M69.6389 68.2258H40.7102C40.2879 68.2258 39.9712 67.908 39.9712 67.4843C39.9712 67.0605 40.2879 66.7427 40.7102 66.7427H69.7445C70.1668 66.7427 70.4835 67.0605 70.4835 67.4843C70.3779 67.908 70.0612 68.2258 69.6389 68.2258Z" fill="#242B37"/>
<path d="M82.2029 68.2258H71.9617C71.5394 68.2258 71.2227 67.908 71.2227 67.4843C71.2227 67.0605 71.5394 66.7427 71.9617 66.7427H82.2029C82.6252 66.7427 82.9419 67.0605 82.9419 67.4843C82.9419 67.908 82.6252 68.2258 82.2029 68.2258Z" fill="#242B37"/>
<path d="M88.8543 68.2258H84.6311C84.2088 68.2258 83.8921 67.908 83.8921 67.4843C83.8921 67.0605 84.2088 66.7427 84.6311 66.7427H88.8543C89.2766 66.7427 89.5933 67.0605 89.5933 67.4843C89.5933 67.908 89.2766 68.2258 88.8543 68.2258Z" fill="#242B37"/>
<path d="M93.6052 30.1931V90.6852C93.6052 91.9565 92.5494 93.0159 91.2825 93.0159H8.50853C7.24158 93.0159 6.18579 91.9565 6.18579 90.6852V30.1931C6.18579 28.9218 7.24158 27.8624 8.50853 27.8624H91.2825C92.5494 27.7565 93.6052 28.8159 93.6052 30.1931Z" fill="#464D5F"/>
<path d="M12.8373 32.3119V93.0159H8.50853C7.24158 93.0159 6.18579 91.9565 6.18579 90.6852V32.3119H12.8373Z" fill="#102030"/>
<path d="M93.6052 30.1931V33.1594H6.18579V30.1931C6.18579 28.9218 7.24158 27.8624 8.50853 27.8624H91.2825C92.5494 27.7565 93.6052 28.8159 93.6052 30.1931Z" fill="url(#paint4_linear)"/>
<path d="M8.82523 31.3584C9.2334 31.3584 9.56429 31.0264 9.56429 30.6168C9.56429 30.2073 9.2334 29.8752 8.82523 29.8752C8.41707 29.8752 8.08618 30.2073 8.08618 30.6168C8.08618 31.0264 8.41707 31.3584 8.82523 31.3584Z" fill="white"/>
<path d="M10.9368 31.3584C11.345 31.3584 11.6759 31.0264 11.6759 30.6168C11.6759 30.2073 11.345 29.8752 10.9368 29.8752C10.5286 29.8752 10.1978 30.2073 10.1978 30.6168C10.1978 31.0264 10.5286 31.3584 10.9368 31.3584Z" fill="white"/>
<path d="M13.0484 31.3584C13.4565 31.3584 13.7874 31.0264 13.7874 30.6168C13.7874 30.2073 13.4565 29.8752 13.0484 29.8752C12.6402 29.8752 12.3093 30.2073 12.3093 30.6168C12.3093 31.0264 12.6402 31.3584 13.0484 31.3584Z" fill="white"/>
<path d="M31.9472 38.4564H15.688C15.2657 38.4564 14.949 38.1386 14.949 37.7148C14.949 37.2911 15.2657 36.9733 15.688 36.9733H31.9472C32.3695 36.9733 32.6862 37.2911 32.6862 37.7148C32.6862 38.1386 32.2639 38.4564 31.9472 38.4564Z" fill="#242B37"/>
<path d="M9.56442 38.4561H8.93095C8.50863 38.4561 8.19189 38.1383 8.19189 37.7145C8.19189 37.2907 8.61421 37.0789 8.93095 37.0789H9.56442C9.98674 37.0789 10.3035 37.3967 10.3035 37.8204C10.3035 38.2442 9.98674 38.4561 9.56442 38.4561Z" fill="#242B37"/>
<path d="M9.56442 41.8466H8.93095C8.50863 41.8466 8.19189 41.5288 8.19189 41.105C8.19189 40.6812 8.50863 40.3634 8.93095 40.3634H9.56442C9.98674 40.3634 10.3035 40.6812 10.3035 41.105C10.3035 41.5288 9.98674 41.8466 9.56442 41.8466Z" fill="#242B37"/>
<path d="M9.56442 45.2367H8.93095C8.50863 45.2367 8.19189 44.9189 8.19189 44.4951C8.19189 44.0714 8.50863 43.7535 8.93095 43.7535H9.56442C9.98674 43.7535 10.3035 44.0714 10.3035 44.4951C10.3035 44.9189 9.98674 45.2367 9.56442 45.2367Z" fill="#242B37"/>
<path d="M9.56442 48.6268H8.93095C8.50863 48.6268 8.19189 48.309 8.19189 47.8853C8.19189 47.4615 8.50863 47.1437 8.93095 47.1437H9.56442C9.98674 47.1437 10.3035 47.4615 10.3035 47.8853C10.3035 48.309 9.98674 48.6268 9.56442 48.6268Z" fill="#242B37"/>
<path d="M9.56442 52.0169H8.93095C8.50863 52.0169 8.19189 51.699 8.19189 51.2753C8.19189 50.8515 8.50863 50.5337 8.93095 50.5337H9.56442C9.98674 50.5337 10.3035 50.8515 10.3035 51.2753C10.3035 51.699 9.98674 52.0169 9.56442 52.0169Z" fill="#242B37"/>
<path d="M9.56442 55.407H8.93095C8.50863 55.407 8.19189 55.0892 8.19189 54.6654C8.19189 54.2417 8.61421 54.0298 8.93095 54.0298H9.56442C9.98674 54.0298 10.3035 54.3476 10.3035 54.7714C10.3035 55.1951 9.98674 55.407 9.56442 55.407Z" fill="#242B37"/>
<path d="M9.56442 58.7971H8.93095C8.50863 58.7971 8.19189 58.4793 8.19189 58.0555C8.19189 57.6318 8.50863 57.314 8.93095 57.314H9.56442C9.98674 57.314 10.3035 57.6318 10.3035 58.0555C10.3035 58.4793 9.98674 58.7971 9.56442 58.7971Z" fill="#242B37"/>
<path d="M9.56442 62.1871H8.93095C8.50863 62.1871 8.19189 61.8693 8.19189 61.4456C8.19189 61.0218 8.50863 60.704 8.93095 60.704H9.56442C9.98674 60.704 10.3035 61.0218 10.3035 61.4456C10.3035 61.8693 9.98674 62.1871 9.56442 62.1871Z" fill="#242B37"/>
<path d="M9.56442 65.5773H8.93095C8.50863 65.5773 8.19189 65.2595 8.19189 64.8357C8.19189 64.4119 8.50863 64.0941 8.93095 64.0941H9.56442C9.98674 64.0941 10.3035 64.4119 10.3035 64.8357C10.3035 65.2595 9.98674 65.5773 9.56442 65.5773Z" fill="#242B37"/>
<path d="M9.56442 68.8615H8.93095C8.50863 68.8615 8.19189 68.5436 8.19189 68.1199C8.19189 67.6961 8.50863 67.3783 8.93095 67.3783H9.56442C9.98674 67.3783 10.3035 67.6961 10.3035 68.1199C10.3035 68.5436 9.98674 68.8615 9.56442 68.8615Z" fill="#242B37"/>
<path d="M9.56442 72.2515H8.93095C8.50863 72.2515 8.19189 71.9337 8.19189 71.5099C8.19189 71.0861 8.50863 70.7683 8.93095 70.7683H9.56442C9.98674 70.7683 10.3035 71.0861 10.3035 71.5099C10.3035 71.9337 9.98674 72.2515 9.56442 72.2515Z" fill="#242B37"/>
<path d="M9.56442 75.6416H8.93095C8.50863 75.6416 8.19189 75.3238 8.19189 74.9C8.19189 74.4763 8.50863 74.1584 8.93095 74.1584H9.56442C9.98674 74.1584 10.3035 74.4763 10.3035 74.9C10.3035 75.3238 9.98674 75.6416 9.56442 75.6416Z" fill="#242B37"/>
<path d="M9.56442 79.0318H8.93095C8.50863 79.0318 8.19189 78.7139 8.19189 78.2902C8.19189 77.8664 8.50863 77.5486 8.93095 77.5486H9.56442C9.98674 77.5486 10.3035 77.8664 10.3035 78.2902C10.3035 78.7139 9.98674 79.0318 9.56442 79.0318Z" fill="#242B37"/>
<path d="M9.56442 82.4219H8.93095C8.50863 82.4219 8.19189 82.1041 8.19189 81.6803C8.19189 81.2565 8.50863 80.9387 8.93095 80.9387H9.56442C9.98674 80.9387 10.3035 81.2565 10.3035 81.6803C10.3035 82.1041 9.98674 82.4219 9.56442 82.4219Z" fill="#242B37"/>
<path d="M9.56442 85.8119H8.93095C8.50863 85.8119 8.19189 85.4941 8.19189 85.0703C8.19189 84.6466 8.50863 84.3287 8.93095 84.3287H9.56442C9.98674 84.3287 10.3035 84.6466 10.3035 85.0703C10.3035 85.4941 9.98674 85.8119 9.56442 85.8119Z" fill="#242B37"/>
<path d="M9.56442 89.202H8.93095C8.50863 89.202 8.19189 88.8842 8.19189 88.4605C8.19189 88.0367 8.50863 87.7189 8.93095 87.7189H9.56442C9.98674 87.7189 10.3035 88.0367 10.3035 88.4605C10.3035 88.8842 9.98674 89.202 9.56442 89.202Z" fill="#242B37"/>
<path d="M28.5687 41.8466H15.688C15.2657 41.8466 14.949 41.5288 14.949 41.105C14.949 40.6812 15.2657 40.3634 15.688 40.3634H28.5687C28.991 40.3634 29.3077 40.6812 29.3077 41.105C29.2021 41.5288 28.8854 41.8466 28.5687 41.8466Z" fill="#242B37"/>
<path d="M63.093 41.8466H31.1026C30.6803 41.8466 30.3635 41.5288 30.3635 41.105C30.3635 40.6812 30.6803 40.3634 31.1026 40.3634H63.093C63.5153 40.3634 63.8321 40.6812 63.8321 41.105C63.8321 41.5288 63.5153 41.8466 63.093 41.8466Z" fill="#242B37"/>
<path d="M76.9238 41.8466H67.6329C67.2105 41.8466 66.8938 41.5288 66.8938 41.105C66.8938 40.6812 67.2105 40.3634 67.6329 40.3634H76.9238C77.3461 40.3634 77.6629 40.6812 77.6629 41.105C77.6629 41.5288 77.3461 41.8466 76.9238 41.8466Z" fill="white"/>
<path d="M84.631 41.8466H81.4637C81.0413 41.8466 80.7246 41.5288 80.7246 41.105C80.7246 40.6812 81.0413 40.3634 81.4637 40.3634H84.631C85.0533 40.3634 85.3701 40.6812 85.3701 41.105C85.3701 41.5288 85.0533 41.8466 84.631 41.8466Z" fill="url(#paint5_linear)"/>
<path d="M36.8039 45.2367H20.5447C20.1224 45.2367 19.8057 44.9189 19.8057 44.4951C19.8057 44.0714 20.1224 43.7535 20.5447 43.7535H36.8039C37.2262 43.7535 37.5429 44.0714 37.5429 44.4951C37.4374 44.9189 37.1206 45.2367 36.8039 45.2367Z" fill="url(#paint6_linear)"/>
<path d="M36.8039 58.6912H20.5447C20.1224 58.6912 19.8057 58.3734 19.8057 57.9496C19.8057 57.5258 20.1224 57.208 20.5447 57.208H36.8039C37.2262 57.208 37.5429 57.5258 37.5429 57.9496C37.4374 58.3734 37.1206 58.6912 36.8039 58.6912Z" fill="url(#paint7_linear)"/>
<path d="M32.4751 62.0812H20.5447C20.1224 62.0812 19.8057 61.7634 19.8057 61.3396C19.8057 60.9158 20.1224 60.598 20.5447 60.598H32.4751C32.8975 60.598 33.2142 60.9158 33.2142 61.3396C33.2142 61.7634 32.8975 62.0812 32.4751 62.0812Z" fill="#242B37"/>
<path d="M64.0433 62.0812H35.7481C35.3258 62.0812 35.009 61.7634 35.009 61.3396C35.009 60.9158 35.3258 60.598 35.7481 60.598H64.0433C64.4656 60.598 64.7823 60.9158 64.7823 61.3396C64.7823 61.7634 64.36 62.0812 64.0433 62.0812Z" fill="#242B37"/>
<path d="M41.3438 48.6268H26.1404C25.7181 48.6268 25.4014 48.309 25.4014 47.8853C25.4014 47.4615 25.7181 47.1437 26.1404 47.1437H41.3438C41.7661 47.1437 42.0828 47.4615 42.0828 47.8853C42.0828 48.309 41.7661 48.6268 41.3438 48.6268Z" fill="#242B37"/>
<path d="M49.8957 48.6268H43.6665C43.2442 48.6268 42.9275 48.309 42.9275 47.8853C42.9275 47.4615 43.2442 47.1437 43.6665 47.1437H49.8957C50.318 47.1437 50.6348 47.4615 50.6348 47.8853C50.6348 48.309 50.318 48.6268 49.8957 48.6268Z" fill="url(#paint8_linear)"/>
<path d="M68.0553 51.9109H26.1404C25.7181 51.9109 25.4014 51.5931 25.4014 51.1693C25.4014 50.7456 25.7181 50.4277 26.1404 50.4277H68.0553C68.4776 50.4277 68.7943 50.7456 68.7943 51.1693C68.7943 51.5931 68.4776 51.9109 68.0553 51.9109Z" fill="#242B37"/>
<path d="M75.5512 51.9109H71.6448C71.2225 51.9109 70.9058 51.5931 70.9058 51.1693C70.9058 50.7456 71.2225 50.4277 71.6448 50.4277H75.5512C75.9736 50.4277 76.2903 50.7456 76.2903 51.1693C76.1847 51.5931 75.9736 51.9109 75.5512 51.9109Z" fill="url(#paint9_linear)"/>
<path d="M90.5436 51.9109H78.5076C78.0853 51.9109 77.7686 51.5931 77.7686 51.1693C77.7686 50.7456 78.0853 50.4277 78.5076 50.4277H90.5436C90.9659 50.4277 91.2827 50.7456 91.2827 51.1693C91.2827 51.5931 90.9659 51.9109 90.5436 51.9109Z" fill="#242B37"/>
<path d="M54.9635 55.301H26.1404C25.7181 55.301 25.4014 54.9832 25.4014 54.5595C25.4014 54.1357 25.7181 53.8179 26.1404 53.8179H54.9635C55.3858 53.8179 55.7025 54.1357 55.7025 54.5595C55.7025 54.9832 55.3858 55.301 54.9635 55.301Z" fill="#242B37"/>
<path d="M42.3994 68.8615H31.208C30.7857 68.8615 30.469 68.5436 30.469 68.1199C30.469 67.6961 30.7857 67.3783 31.208 67.3783H42.3994C42.8217 67.3783 43.1385 67.6961 43.1385 68.1199C43.1385 68.5436 42.8217 68.8615 42.3994 68.8615Z" fill="#242B37"/>
<path d="M56.8638 68.8615H44.9334C44.5111 68.8615 44.1943 68.5436 44.1943 68.1199C44.1943 67.6961 44.5111 67.3783 44.9334 67.3783H56.8638C57.2861 67.3783 57.6029 67.6961 57.6029 68.1199C57.6029 68.5436 57.1806 68.8615 56.8638 68.8615Z" fill="#242B37"/>
<path d="M67.6329 68.8615H59.1866C58.7642 68.8615 58.4475 68.5436 58.4475 68.1199C58.4475 67.6961 58.7642 67.3783 59.1866 67.3783H67.6329C68.0552 67.3783 68.3719 67.6961 68.3719 68.1199C68.3719 68.5436 68.0552 68.8615 67.6329 68.8615Z" fill="white"/>
<path d="M75.2345 68.8615H70.9058C70.4835 68.8615 70.1667 68.5436 70.1667 68.1199C70.1667 67.6961 70.4835 67.3783 70.9058 67.3783H75.2345C75.6569 67.3783 75.9736 67.6961 75.9736 68.1199C75.9736 68.5436 75.5513 68.8615 75.2345 68.8615Z" fill="white"/>
<path d="M42.3994 78.9258H31.208C30.7857 78.9258 30.469 78.608 30.469 78.1842C30.469 77.7605 30.7857 77.4426 31.208 77.4426H42.3994C42.8217 77.4426 43.1385 77.7605 43.1385 78.1842C43.1385 78.608 42.8217 78.9258 42.3994 78.9258Z" fill="white"/>
<path d="M67.6328 88.9901H31.208C30.7857 88.9901 30.469 88.6723 30.469 88.2485C30.469 87.8248 30.7857 87.507 31.208 87.507H67.6328C68.0551 87.507 68.3718 87.8248 68.3718 88.2485C68.3718 88.6723 67.9495 88.9901 67.6328 88.9901Z" fill="url(#paint10_linear)"/>
<path d="M47.3616 72.1456H36.1702C35.7479 72.1456 35.4312 71.8278 35.4312 71.4041C35.4312 70.9803 35.7479 70.6625 36.1702 70.6625H47.3616C47.7839 70.6625 48.1006 70.9803 48.1006 71.4041C48.1006 71.8278 47.7839 72.1456 47.3616 72.1456Z" fill="url(#paint11_linear)"/>
<path d="M65.7324 72.1456H49.6844C49.2621 72.1456 48.9453 71.8278 48.9453 71.4041C48.9453 70.9803 49.2621 70.6625 49.6844 70.6625H65.6268C66.0491 70.6625 66.3658 70.9803 66.3658 71.4041C66.3658 71.8278 66.0491 72.1456 65.7324 72.1456Z" fill="#242B37"/>
<path d="M76.1848 72.1456H68.0552C67.6329 72.1456 67.3162 71.8278 67.3162 71.4041C67.3162 70.9803 67.6329 70.6625 68.0552 70.6625H76.1848C76.6071 70.6625 76.9238 70.9803 76.9238 71.4041C76.8183 71.8278 76.5015 72.1456 76.1848 72.1456Z" fill="#242B37"/>
<path d="M81.2527 72.1456H78.5076C78.0853 72.1456 77.7686 71.8278 77.7686 71.4041C77.7686 70.9803 78.0853 70.6625 78.5076 70.6625H81.2527C81.675 70.6625 81.9917 70.9803 81.9917 71.4041C81.9917 71.8278 81.675 72.1456 81.2527 72.1456Z" fill="url(#paint12_linear)"/>
<path d="M50.0012 75.4297H36.2759C35.8536 75.4297 35.5369 75.1119 35.5369 74.6881C35.5369 74.2644 35.8536 73.9465 36.2759 73.9465H50.0012C50.4235 73.9465 50.7402 74.2644 50.7402 74.6881C50.7402 75.1119 50.3179 75.4297 50.0012 75.4297Z" fill="#242B37"/>
<path d="M56.3358 75.4297H52.5349C52.1126 75.4297 51.7959 75.1119 51.7959 74.6881C51.7959 74.2644 52.1126 73.9465 52.5349 73.9465H56.3358C56.7581 73.9465 57.0748 74.2644 57.0748 74.6881C57.0748 75.1119 56.7581 75.4297 56.3358 75.4297Z" fill="url(#paint13_linear)"/>
<path d="M87.4817 75.4297H58.9754C58.5531 75.4297 58.2363 75.1119 58.2363 74.6881C58.2363 74.2644 58.5531 73.9465 58.9754 73.9465H87.3761C87.7984 73.9465 88.1152 74.2644 88.1152 74.6881C88.1152 75.1119 87.7984 75.4297 87.4817 75.4297Z" fill="#242B37"/>
<path d="M42.3996 65.3654H26.1404C25.7181 65.3654 25.4014 65.0475 25.4014 64.6238C25.4014 64.2 25.7181 63.8822 26.1404 63.8822H42.3996C42.8219 63.8822 43.1386 64.2 43.1386 64.6238C43.1386 65.0475 42.8219 65.3654 42.3996 65.3654Z" fill="#242B37"/>
<path d="M49.262 65.3654H45.0389C44.6165 65.3654 44.2998 65.0475 44.2998 64.6238C44.2998 64.2 44.6165 63.8822 45.0389 63.8822H49.262C49.6843 63.8822 50.0011 64.2 50.0011 64.6238C50.0011 65.0475 49.5788 65.3654 49.262 65.3654Z" fill="url(#paint14_linear)"/>
<path d="M42.3996 82.21H26.1404C25.7181 82.21 25.4014 81.8922 25.4014 81.4684C25.4014 81.0446 25.7181 80.7268 26.1404 80.7268H42.3996C42.8219 80.7268 43.1386 81.0446 43.1386 81.4684C43.1386 81.8922 42.8219 82.21 42.3996 82.21Z" fill="#242B37"/>
<path d="M55.1746 85.6001H26.1404C25.7181 85.6001 25.4014 85.2823 25.4014 84.8585C25.4014 84.4348 25.7181 84.1169 26.1404 84.1169H55.1746C55.597 84.1169 55.9137 84.4348 55.9137 84.8585C55.9137 85.2823 55.597 85.6001 55.1746 85.6001Z" fill="#242B37"/>
<path d="M67.7385 85.6001H57.4974C57.075 85.6001 56.7583 85.2823 56.7583 84.8585C56.7583 84.4348 57.075 84.1169 57.4974 84.1169H67.7385C68.1608 84.1169 68.4776 84.4348 68.4776 84.8585C68.4776 85.2823 68.0553 85.6001 67.7385 85.6001Z" fill="white"/>
<path d="M74.39 85.6001H70.1668C69.7445 85.6001 69.4277 85.2823 69.4277 84.8585C69.4277 84.4348 69.7445 84.1169 70.1668 84.1169H74.39C74.8123 84.1169 75.129 84.4348 75.129 84.8585C75.129 85.2823 74.8123 85.6001 74.39 85.6001Z" fill="url(#paint15_linear)"/>
<path d="M76.6869 42.1416C76.5813 42.7772 76.4757 43.4129 76.2646 44.0485C74.9976 48.3921 71.6191 51.6762 67.3959 52.8416C65.8123 53.2653 64.123 53.3713 62.4337 53.1594C55.4655 52.3119 50.6089 45.9554 51.4535 38.9634C52.2981 31.9713 58.6329 26.9921 65.6011 27.9455C72.5693 28.899 77.5315 35.1495 76.6869 42.1416Z" fill="url(#paint16_linear)"/>
<path d="M76.2646 44.0485C74.9976 48.3921 71.6191 51.6762 67.3959 52.8416L62.9616 48.3921L62.5393 47.2267L58.844 43.5188H59.7943L61.8003 42.3534L57.1548 37.6921L57.7883 37.2683H60.85L61.9058 34.8317L62.9616 33.2426L67.6071 37.9039L67.8183 36.8445L67.5015 35.3614L76.2646 44.0485Z" fill="url(#paint17_linear)"/>
<path d="M63.7564 36.4335C63.4396 36.1156 62.9117 35.7978 62.3838 35.7978C62.2783 35.3741 62.3838 34.3146 63.0173 33.7849C63.2285 33.679 63.2285 33.3612 63.1229 33.2552C62.9117 33.0434 62.7006 33.0434 62.4894 33.1493C61.6448 33.7849 61.4336 35.0562 61.5392 35.7978C60.9057 35.9038 60.4834 36.3275 60.1667 36.8572C59.4276 36.5394 58.1607 36.4335 57.316 37.0691C57.1049 37.175 57.1049 37.4929 57.2105 37.5988C57.316 37.8107 57.6328 37.8107 57.7384 37.7047C58.3718 37.175 59.4276 37.3869 59.8499 37.5988C59.7444 38.1285 59.8499 38.6582 60.1667 39.082C60.2723 39.1879 60.3778 39.1879 60.4834 39.1879L60.589 39.082C61.1169 37.8107 62.2783 36.9632 63.5452 36.7513C63.6508 36.7513 63.7564 36.6453 63.7564 36.5394V36.4335Z" fill="url(#paint18_linear)"/>
<path d="M61.4337 38.9761C60.8002 40.1414 60.6947 41.4127 61.2225 42.578L59.9556 43.1077L58.8998 42.0483C58.6886 41.9424 58.4775 41.9424 58.3719 42.0483C58.2663 42.2602 58.2663 42.4721 58.3719 42.578L59.6389 43.7434C59.7444 43.8493 59.9556 43.8493 60.0612 43.8493L61.6449 43.1077C61.6449 43.2137 61.7504 43.2137 61.7504 43.3196C62.2783 43.9553 62.8062 44.485 63.5453 44.9087L62.4895 46.286C62.3839 46.3919 62.3839 46.6038 62.4895 46.7097L63.123 48.0869C63.2285 48.2988 63.4397 48.4048 63.6509 48.2988C63.6509 48.2988 63.6509 48.2988 63.7564 48.2988C63.862 48.1929 63.9676 47.981 63.862 47.7691L63.3341 46.7097L64.2843 45.4384C65.2345 45.9681 66.2903 46.18 67.3461 46.18C67.5573 46.18 67.7684 45.9681 67.7684 45.7563C67.7684 45.6503 67.7684 45.6503 67.6629 45.5444L62.4895 38.8701C62.2783 38.6582 61.9616 38.5523 61.6449 38.7642C61.4337 38.8701 61.4337 38.9761 61.4337 38.9761Z" fill="url(#paint19_linear)"/>
<path d="M67.2405 35.2681C67.0293 35.3741 66.9237 35.5859 67.0293 35.7978L67.7684 37.1751L66.9237 38.2345C65.868 37.4929 64.601 37.1751 63.3341 37.4929C63.0173 37.5988 62.8062 37.9166 62.9117 38.2345C62.9117 38.3404 63.0173 38.4463 63.0173 38.4463L68.1907 45.1206C68.2963 45.3325 68.613 45.3325 68.7186 45.2265C68.8242 45.2265 68.8242 45.1206 68.8242 45.0147C69.1409 43.9553 69.1409 42.8958 68.9297 41.8364L70.4079 41.2008L71.3581 41.9424C71.5692 42.0483 71.7804 42.0483 71.886 41.9424C71.9915 41.7305 71.9915 41.5186 71.886 41.4127L70.7246 40.4592C70.619 40.3533 70.4078 40.3533 70.3023 40.3533L68.7186 41.0949C68.5074 40.3533 68.0851 39.6117 67.5572 38.976C67.5572 38.8701 67.4516 38.8701 67.4516 38.7642L68.5074 37.3869C68.613 37.281 68.613 37.0691 68.5074 36.9632L67.6628 35.3741C67.6628 35.2681 67.4516 35.1622 67.2405 35.2681Z" fill="url(#paint20_linear)"/>
<path d="M117.677 73.311V89.0961C117.677 89.308 117.677 89.6258 117.677 89.8377C117.466 91.6387 116.41 93.2278 114.827 94.1813L101.207 102.127C99.94 102.868 98.3563 103.08 96.8782 102.762C96.3503 102.657 95.8224 102.445 95.4001 102.127L81.7804 94.1813C80.7246 93.5456 79.9856 92.6981 79.4577 91.6387C78.9298 90.8971 78.8242 90.0496 78.8242 89.0961V73.311C78.8242 72.4634 79.0354 71.6159 79.3521 70.9803C79.88 69.9209 80.6191 68.9674 81.7804 68.3318L95.2945 60.3862C96.5615 59.6446 98.1452 59.4327 99.6233 59.7506C100.151 59.8565 100.679 60.0684 101.101 60.3862L114.721 68.3318C115.882 69.0733 116.833 70.1327 117.255 71.404C117.572 72.0397 117.677 72.6753 117.677 73.311Z" fill="#434B60"/>
<path d="M117.361 71.404L110.92 83.7991L86.3203 80.1971L79.3521 91.6387C78.9298 90.8971 78.8242 90.0496 78.8242 89.0961V73.311C78.8242 72.4634 79.0354 71.6159 79.3521 70.9803C79.88 69.9209 80.6191 68.9674 81.7804 68.3318L95.2945 60.3862C96.5615 59.6446 98.1452 59.4327 99.6233 59.7506C100.151 59.8565 100.679 60.0684 101.101 60.3862L114.721 68.3318C115.988 68.9674 116.833 70.1327 117.361 71.404Z" fill="#566079"/>
<path d="M117.572 89.8377C117.361 91.6387 116.305 93.2278 114.721 94.1813L101.101 102.127C99.8345 102.868 98.2508 103.08 96.7727 102.762L79.2466 70.9803C79.7745 69.9209 80.5135 68.9674 81.6749 68.3318L95.2946 60.3862C96.5615 59.6446 98.1452 59.4327 99.6233 59.7506L117.572 89.8377Z" fill="#69738D"/>
<path d="M105.43 78.3961V89.202L100.679 86.4476V81.0446L98.2507 79.5614L95.8223 81.0446V86.4476L91.0713 89.202V78.3961C91.0713 78.0783 91.2824 77.6545 91.5992 77.4426L97.8283 73.6288C98.0395 73.5228 98.3562 73.5228 98.673 73.6288L104.902 77.4426C105.219 77.6545 105.43 77.9723 105.43 78.3961Z" fill="#1E242D"/>
<defs>
<linearGradient id="paint0_linear" x1="9.63858" y1="100.786" x2="11.7793" y2="101.498" gradientUnits="userSpaceOnUse">
<stop stop-color="#FF66A9"/>
<stop offset="1" stop-color="#F53689"/>
</linearGradient>
<linearGradient id="paint1_linear" x1="117.67" y1="60.3503" x2="120.093" y2="60.3503" gradientUnits="userSpaceOnUse">
<stop stop-color="#83A6FF"/>
<stop offset="1" stop-color="#5A78FF"/>
</linearGradient>
<linearGradient id="paint2_linear" x1="89.1608" y1="1.75088" x2="92.6506" y2="1.75088" gradientUnits="userSpaceOnUse">
<stop stop-color="#83A6FF"/>
<stop offset="1" stop-color="#5A78FF"/>
</linearGradient>
<linearGradient id="paint3_linear" x1="20.6423" y1="13.165" x2="108.151" y2="13.165" gradientUnits="userSpaceOnUse">
<stop stop-color="#6F88FF"/>
<stop offset="1" stop-color="#6E88FF" stop-opacity="0"/>
</linearGradient>
<linearGradient id="paint4_linear" x1="6.14683" y1="30.4681" x2="93.6556" y2="30.4681" gradientUnits="userSpaceOnUse">
<stop stop-color="#EF4896"/>
<stop offset="1" stop-color="#F14D9A" stop-opacity="0"/>
</linearGradient>
<linearGradient id="paint5_linear" x1="80.8281" y1="41.1729" x2="85.3341" y2="41.1729" gradientUnits="userSpaceOnUse">
<stop stop-color="#83A6FF"/>
<stop offset="1" stop-color="#5A78FF"/>
</linearGradient>
<linearGradient id="paint6_linear" x1="19.8693" y1="44.5" x2="37.4661" y2="44.5" gradientUnits="userSpaceOnUse">
<stop stop-color="#FF66A9"/>
<stop offset="1" stop-color="#F53689"/>
</linearGradient>
<linearGradient id="paint7_linear" x1="19.8693" y1="57.9592" x2="37.4661" y2="57.9592" gradientUnits="userSpaceOnUse">
<stop stop-color="#FF66A9"/>
<stop offset="1" stop-color="#F53689"/>
</linearGradient>
<linearGradient id="paint8_linear" x1="43.0006" y1="47.8774" x2="50.6" y2="47.8774" gradientUnits="userSpaceOnUse">
<stop stop-color="#83A6FF"/>
<stop offset="1" stop-color="#5A78FF"/>
</linearGradient>
<linearGradient id="paint9_linear" x1="70.899" y1="51.2547" x2="76.2322" y2="51.2547" gradientUnits="userSpaceOnUse">
<stop stop-color="#83A6FF"/>
<stop offset="1" stop-color="#5A78FF"/>
</linearGradient>
<linearGradient id="paint10_linear" x1="30.5011" y1="88.2787" x2="68.3007" y2="88.2787" gradientUnits="userSpaceOnUse">
<stop stop-color="#FF66A9"/>
<stop offset="1" stop-color="#F53689"/>
</linearGradient>
<linearGradient id="paint11_linear" x1="35.4938" y1="71.4241" x2="48.0853" y2="71.4241" gradientUnits="userSpaceOnUse">
<stop stop-color="#FF66A9"/>
<stop offset="1" stop-color="#F53689"/>
</linearGradient>
<linearGradient id="paint12_linear" x1="77.8364" y1="71.4241" x2="81.9419" y2="71.4241" gradientUnits="userSpaceOnUse">
<stop stop-color="#83A6FF"/>
<stop offset="1" stop-color="#5A78FF"/>
</linearGradient>
<linearGradient id="paint13_linear" x1="51.846" y1="74.7635" x2="57.0599" y2="74.7635" gradientUnits="userSpaceOnUse">
<stop stop-color="#FF66A9"/>
<stop offset="1" stop-color="#F53689"/>
</linearGradient>
<linearGradient id="paint14_linear" x1="44.3161" y1="64.7039" x2="49.9342" y2="64.7039" gradientUnits="userSpaceOnUse">
<stop stop-color="#83A6FF"/>
<stop offset="1" stop-color="#5A78FF"/>
</linearGradient>
<linearGradient id="paint15_linear" x1="69.5077" y1="84.8691" x2="75.0821" y2="84.8691" gradientUnits="userSpaceOnUse">
<stop stop-color="#83A6FF"/>
<stop offset="1" stop-color="#5A78FF"/>
</linearGradient>
<linearGradient id="paint16_linear" x1="51.3932" y1="40.5326" x2="76.7649" y2="40.5326" gradientUnits="userSpaceOnUse">
<stop stop-color="#FF66A9"/>
<stop offset="1" stop-color="#F53689"/>
</linearGradient>
<linearGradient id="paint17_linear" x1="65.2735" y1="41.8003" x2="72.9443" y2="49.445" gradientUnits="userSpaceOnUse">
<stop stop-color="#E81778"/>
<stop offset="1" stop-color="#E01F79" stop-opacity="0"/>
</linearGradient>
<linearGradient id="paint18_linear" x1="68.3705" y1="43.6602" x2="60.1001" y2="35.4181" gradientUnits="userSpaceOnUse">
<stop offset="0.0113208" stop-color="#FFC9E3"/>
<stop offset="1" stop-color="white"/>
</linearGradient>
<linearGradient id="paint19_linear" x1="65.5419" y1="46.4986" x2="57.2716" y2="38.2565" gradientUnits="userSpaceOnUse">
<stop offset="0.0113208" stop-color="#FFC9E3"/>
<stop offset="1" stop-color="white"/>
</linearGradient>
<linearGradient id="paint20_linear" x1="69.8299" y1="42.1958" x2="61.5596" y2="33.9537" gradientUnits="userSpaceOnUse">
<stop offset="0.0113208" stop-color="#FFC9E3"/>
<stop offset="1" stop-color="white"/>
</linearGradient>
</defs>
</svg>
