<svg width="120" height="110" viewBox="0 0 120 110" fill="none" xmlns="http://www.w3.org/2000/svg">
<path d="M10.3805 36.9799C11.645 36.5667 12.337 35.2014 11.926 33.9303C11.5149 32.6593 10.1566 31.9638 8.89202 32.3769C7.62744 32.79 6.93549 34.1554 7.34651 35.4264C7.75753 36.6975 9.11587 37.393 10.3805 36.9799Z" fill="#2A2E38"/>
<path d="M17.0389 17.0111C17.6964 16.7963 18.0563 16.0863 17.8425 15.4253C17.6288 14.7644 16.9225 14.4027 16.2649 14.6175C15.6073 14.8324 15.2475 15.5423 15.4612 16.2033C15.6749 16.8643 16.3813 17.2259 17.0389 17.0111Z" fill="#2A2E38"/>
<path d="M8.28244 73.0151C8.60158 73.0151 8.86029 72.7551 8.86029 72.4343C8.86029 72.1135 8.60158 71.8535 8.28244 71.8535C7.9633 71.8535 7.70459 72.1135 7.70459 72.4343C7.70459 72.7551 7.9633 73.0151 8.28244 73.0151Z" fill="url(#paint0_linear)"/>
<path d="M113.74 66.5293C114.166 66.5293 114.511 66.1825 114.511 65.7548C114.511 65.3271 114.166 64.9804 113.74 64.9804C113.315 64.9804 112.97 65.3271 112.97 65.7548C112.97 66.1825 113.315 66.5293 113.74 66.5293Z" fill="url(#paint1_linear)"/>
<path d="M117.09 44.2629C118.582 42.8924 118.686 40.5656 117.323 39.0659C115.959 37.5662 113.644 37.4614 112.152 38.8319C110.66 40.2025 110.556 42.5292 111.92 44.029C113.283 45.5287 115.598 45.6334 117.09 44.2629Z" fill="#2A2E38"/>
<path d="M117.366 27.7715C117.995 27.1944 118.039 26.2147 117.464 25.5832C116.89 24.9518 115.916 24.9077 115.287 25.4847C114.659 26.0618 114.615 27.0415 115.189 27.673C115.764 28.3044 116.738 28.3485 117.366 27.7715Z" fill="#2A2E38"/>
<path d="M59.5185 109.026C85.9537 109.026 107.384 87.4856 107.384 60.9147C107.384 34.3437 85.9537 12.8036 59.5185 12.8036C33.0833 12.8036 11.6533 34.3437 11.6533 60.9147C11.6533 87.4856 33.0833 109.026 59.5185 109.026Z" fill="#2A2E38"/>
<path d="M109.791 93.7309V96.3446C109.791 98.7646 107.769 100.701 105.265 100.701H13.1942C10.6902 100.701 8.66772 98.7646 8.66772 96.3446V93.7309H109.791Z" fill="#102030"/>
<path d="M104.591 93.7309H13.7722V35.9395C13.7722 34.1003 15.2168 32.6483 17.0467 32.6483H101.22C103.05 32.6483 104.495 34.1003 104.495 35.9395L104.591 93.7309Z" fill="#464D5F"/>
<path d="M100 38.5399V78.4601C100 79.2893 99.4245 80 98.7531 80H54.2469C53.5755 80 53 79.2893 53 78.4601V38.5399C53 37.7107 53.5755 37 54.2469 37H98.6571C99.4245 37 100 37.7107 100 38.5399Z" fill="#262A31"/>
<path d="M56.6293 39.8117V72.6279H54.3179C53.6438 72.6279 53.0659 72.0471 53.0659 71.3694V39.8117H56.6293Z" fill="#102030"/>
<path d="M54.5105 39.3276C54.7232 39.3276 54.8957 39.1542 54.8957 38.9404C54.8957 38.7265 54.7232 38.5532 54.5105 38.5532C54.2977 38.5532 54.1252 38.7265 54.1252 38.9404C54.1252 39.1542 54.2977 39.3276 54.5105 39.3276Z" fill="#3D4960"/>
<path d="M55.6662 39.3276C55.879 39.3276 56.0515 39.1542 56.0515 38.9404C56.0515 38.7265 55.879 38.5532 55.6662 38.5532C55.4535 38.5532 55.281 38.7265 55.281 38.9404C55.281 39.1542 55.4535 39.3276 55.6662 39.3276Z" fill="#3D4960"/>
<path d="M56.822 39.3276C57.0348 39.3276 57.2072 39.1542 57.2072 38.9404C57.2072 38.7265 57.0348 38.5532 56.822 38.5532C56.6092 38.5532 56.4368 38.7265 56.4368 38.9404C56.4368 39.1542 56.6092 39.3276 56.822 39.3276Z" fill="#3D4960"/>
<path d="M66.9344 43.1998H58.1704C57.9778 43.1998 57.7852 43.0062 57.7852 42.8126C57.7852 42.619 57.9778 42.4254 58.1704 42.4254H66.9344C67.1271 42.4254 67.3197 42.619 67.3197 42.8126C67.3197 43.0062 67.1271 43.1998 66.9344 43.1998Z" fill="#3F4A5C"/>
<path d="M54.8958 43.1998H54.6069C54.4143 43.1998 54.2217 43.0062 54.2217 42.8126C54.2217 42.619 54.4143 42.4254 54.6069 42.4254H54.8958C55.0885 42.4254 55.2811 42.619 55.2811 42.8126C55.2811 43.0062 55.0885 43.1998 54.8958 43.1998Z" fill="#3F4A5C"/>
<path d="M54.8958 45.039H54.6069C54.4143 45.039 54.2217 44.8454 54.2217 44.6518C54.2217 44.4582 54.4143 44.2646 54.6069 44.2646H54.8958C55.0885 44.2646 55.2811 44.4582 55.2811 44.6518C55.2811 44.8454 55.0885 45.039 54.8958 45.039Z" fill="#3F4A5C"/>
<path d="M54.8958 46.8782H54.6069C54.4143 46.8782 54.2217 46.6846 54.2217 46.491C54.2217 46.2974 54.4143 46.1038 54.6069 46.1038H54.8958C55.0885 46.1038 55.2811 46.2974 55.2811 46.491C55.2811 46.6846 55.0885 46.8782 54.8958 46.8782Z" fill="#3F4A5C"/>
<path d="M54.8958 48.6207H54.6069C54.4143 48.6207 54.2217 48.4271 54.2217 48.2335C54.2217 48.0399 54.4143 47.8463 54.6069 47.8463H54.8958C55.0885 47.8463 55.2811 48.0399 55.2811 48.2335C55.2811 48.4271 55.0885 48.6207 54.8958 48.6207Z" fill="#3F4A5C"/>
<path d="M54.8958 50.4599H54.6069C54.4143 50.4599 54.2217 50.2663 54.2217 50.0727C54.2217 49.8791 54.4143 49.6855 54.6069 49.6855H54.8958C55.0885 49.6855 55.2811 49.8791 55.2811 50.0727C55.2811 50.2663 55.0885 50.4599 54.8958 50.4599Z" fill="#3F4A5C"/>
<path d="M54.8958 52.2993H54.6069C54.4143 52.2993 54.2217 52.1057 54.2217 51.9121C54.2217 51.7184 54.4143 51.5248 54.6069 51.5248H54.8958C55.0885 51.5248 55.2811 51.7184 55.2811 51.9121C55.2811 52.1057 55.0885 52.2993 54.8958 52.2993Z" fill="#3F4A5C"/>
<path d="M54.8958 54.1385H54.6069C54.4143 54.1385 54.2217 53.9449 54.2217 53.7513C54.2217 53.5577 54.4143 53.3641 54.6069 53.3641H54.8958C55.0885 53.3641 55.2811 53.5577 55.2811 53.7513C55.2811 53.9449 55.0885 54.1385 54.8958 54.1385Z" fill="#3F4A5C"/>
<path d="M54.8958 55.9777H54.6069C54.4143 55.9777 54.2217 55.7841 54.2217 55.5905C54.2217 55.3969 54.4143 55.2033 54.6069 55.2033H54.8958C55.0885 55.2033 55.2811 55.3969 55.2811 55.5905C55.2811 55.7841 55.0885 55.9777 54.8958 55.9777Z" fill="#3F4A5C"/>
<path d="M54.8958 57.817H54.6069C54.4143 57.817 54.2217 57.6234 54.2217 57.4298C54.2217 57.2361 54.4143 57.0425 54.6069 57.0425H54.8958C55.0885 57.0425 55.2811 57.2361 55.2811 57.4298C55.2811 57.6234 55.0885 57.817 54.8958 57.817Z" fill="#3F4A5C"/>
<path d="M54.8958 59.5594H54.6069C54.4143 59.5594 54.2217 59.3658 54.2217 59.1722C54.2217 58.9786 54.4143 58.785 54.6069 58.785H54.8958C55.0885 58.785 55.2811 58.9786 55.2811 59.1722C55.2811 59.4626 55.0885 59.5594 54.8958 59.5594Z" fill="#3F4A5C"/>
<path d="M54.8958 61.3986H54.6069C54.4143 61.3986 54.2217 61.205 54.2217 61.0114C54.2217 60.8178 54.4143 60.6242 54.6069 60.6242H54.8958C55.0885 60.6242 55.2811 60.8178 55.2811 61.0114C55.2811 61.3018 55.0885 61.3986 54.8958 61.3986Z" fill="#3F4A5C"/>
<path d="M54.8958 63.238H54.6069C54.4143 63.238 54.2217 63.0444 54.2217 62.8508C54.2217 62.6572 54.4143 62.4636 54.6069 62.4636H54.8958C55.0885 62.4636 55.2811 62.6572 55.2811 62.8508C55.2811 63.0444 55.0885 63.238 54.8958 63.238Z" fill="#3F4A5C"/>
<path d="M54.8958 65.0772H54.6069C54.4143 65.0772 54.2217 64.8836 54.2217 64.69C54.2217 64.4964 54.4143 64.3028 54.6069 64.3028H54.8958C55.0885 64.3028 55.2811 64.4964 55.2811 64.69C55.2811 64.8836 55.0885 65.0772 54.8958 65.0772Z" fill="#3F4A5C"/>
<path d="M54.8958 66.9164H54.6069C54.4143 66.9164 54.2217 66.7228 54.2217 66.5292C54.2217 66.3356 54.4143 66.142 54.6069 66.142H54.8958C55.0885 66.142 55.2811 66.3356 55.2811 66.5292C55.2811 66.7228 55.0885 66.9164 54.8958 66.9164Z" fill="#3F4A5C"/>
<path d="M54.8958 68.7557H54.6069C54.4143 68.7557 54.2217 68.5621 54.2217 68.3685C54.2217 68.1749 54.4143 67.9813 54.6069 67.9813H54.8958C55.0885 67.9813 55.2811 68.1749 55.2811 68.3685C55.2811 68.5621 55.0885 68.7557 54.8958 68.7557Z" fill="#3F4A5C"/>
<path d="M54.8958 70.4981H54.6069C54.4143 70.4981 54.2217 70.3045 54.2217 70.1109C54.2217 69.9173 54.4143 69.7237 54.6069 69.7237H54.8958C55.0885 69.7237 55.2811 69.9173 55.2811 70.1109C55.2811 70.3045 55.0885 70.4981 54.8958 70.4981Z" fill="#3F4A5C"/>
<path d="M65.1046 45.039H58.1704C57.9778 45.039 57.7852 44.8454 57.7852 44.6518C57.7852 44.4582 57.9778 44.2646 58.1704 44.2646H65.1046C65.2972 44.2646 65.4898 44.4582 65.4898 44.6518C65.4898 44.8454 65.2972 45.039 65.1046 45.039Z" fill="#3F4A5C"/>
<path d="M83.7885 45.039H66.5493C66.3567 45.039 66.1641 44.8454 66.1641 44.6518C66.1641 44.4582 66.3567 44.2646 66.5493 44.2646H83.7885C83.9811 44.2646 84.1737 44.4582 84.1737 44.6518C84.1737 44.8454 83.9811 45.039 83.7885 45.039Z" fill="#3F4A5C"/>
<path d="M91.204 45.039H86.196C86.0034 45.039 85.8108 44.8454 85.8108 44.6518C85.8108 44.4582 86.0034 44.2646 86.196 44.2646H91.204C91.3967 44.2646 91.5893 44.4582 91.5893 44.6518C91.5893 44.8454 91.3967 45.039 91.204 45.039Z" fill="#3F4A5C"/>
<path d="M95.3452 45.039H93.708C93.5154 45.039 93.3228 44.8454 93.3228 44.6518C93.3228 44.4582 93.5154 44.2646 93.708 44.2646H95.3452C95.5378 44.2646 95.7305 44.4582 95.7305 44.6518C95.7305 44.8454 95.5378 45.039 95.3452 45.039Z" fill="#3F4A5C"/>
<path d="M69.5345 46.7814H60.7705C60.5779 46.7814 60.3853 46.5878 60.3853 46.3942C60.3853 46.2006 60.5779 46.007 60.7705 46.007H69.5345C69.7271 46.007 69.9198 46.2006 69.9198 46.3942C69.9198 46.5878 69.7271 46.7814 69.5345 46.7814Z" fill="#3F4A5C"/>
<path d="M69.5345 54.0417H60.7705C60.5779 54.0417 60.3853 53.8481 60.3853 53.6545C60.3853 53.4609 60.5779 53.2673 60.7705 53.2673H69.5345C69.7271 53.2673 69.9198 53.4609 69.9198 53.6545C69.9198 53.9449 69.7271 54.0417 69.5345 54.0417Z" fill="#3F4A5C"/>
<path d="M67.2231 55.8809H60.7705C60.5779 55.8809 60.3853 55.6873 60.3853 55.4937C60.3853 55.3001 60.5779 55.1065 60.7705 55.1065H67.2231C67.4158 55.1065 67.6084 55.3001 67.6084 55.4937C67.6084 55.6873 67.4158 55.8809 67.2231 55.8809Z" fill="#3F4A5C"/>
<path d="M84.2699 55.8809H69.0532C68.8606 55.8809 68.668 55.6873 68.668 55.4937C68.668 55.3001 68.8606 55.1065 69.0532 55.1065H84.2699C84.4625 55.1065 84.6551 55.3001 84.6551 55.4937C84.6551 55.6873 84.4625 55.8809 84.2699 55.8809Z" fill="#3F4A5C"/>
<path d="M72.0387 48.6207H63.8525C63.6599 48.6207 63.4673 48.4271 63.4673 48.2335C63.4673 48.0399 63.6599 47.8463 63.8525 47.8463H72.0387C72.2313 47.8463 72.4239 48.0399 72.4239 48.2335C72.4239 48.4271 72.2313 48.6207 72.0387 48.6207Z" fill="#3F4A5C"/>
<path d="M76.6615 48.6207H73.2908C73.0981 48.6207 72.9055 48.4271 72.9055 48.2335C72.9055 48.0399 73.0981 47.8463 73.2908 47.8463H76.6615C76.8542 47.8463 77.0468 48.0399 77.0468 48.2335C77.0468 48.4271 76.8542 48.6207 76.6615 48.6207Z" fill="#3F4A5C"/>
<path d="M86.4849 50.4599H63.8525C63.6599 50.4599 63.4673 50.2663 63.4673 50.0727C63.4673 49.8791 63.6599 49.6855 63.8525 49.6855H86.3886C86.5812 49.6855 86.7739 49.8791 86.7739 50.0727C86.7739 50.2663 86.6776 50.4599 86.4849 50.4599Z" fill="#3F4A5C"/>
<path d="M90.4337 50.4599H88.3149C88.1223 50.4599 87.9297 50.2663 87.9297 50.0727C87.9297 49.8791 88.1223 49.6855 88.3149 49.6855H90.4337C90.6263 49.6855 90.8189 49.8791 90.8189 50.0727C90.8189 50.2663 90.6263 50.4599 90.4337 50.4599Z" fill="#3F4A5C"/>
<path d="M98.5235 50.4599H91.9746C91.782 50.4599 91.5894 50.2663 91.5894 50.0727C91.5894 49.8791 91.782 49.6855 91.9746 49.6855H98.5235C98.7162 49.6855 98.9088 49.8791 98.9088 50.0727C98.9088 50.2663 98.7162 50.4599 98.5235 50.4599Z" fill="#3F4A5C"/>
<path d="M79.3581 52.2993H63.8525C63.6599 52.2993 63.4673 52.1057 63.4673 51.9121C63.4673 51.7184 63.6599 51.5248 63.8525 51.5248H79.3581C79.5508 51.5248 79.7434 51.7184 79.7434 51.9121C79.7434 52.1057 79.5508 52.2993 79.3581 52.2993Z" fill="#3F4A5C"/>
<path d="M72.6167 59.5594H66.5493C66.3567 59.5594 66.1641 59.3658 66.1641 59.1722C66.1641 58.9786 66.3567 58.785 66.5493 58.785H72.6167C72.8093 58.785 73.0019 58.9786 73.0019 59.1722C73.0019 59.3658 72.8093 59.5594 72.6167 59.5594Z" fill="#3F4A5C"/>
<path d="M80.4175 59.5594H73.9648C73.7722 59.5594 73.5796 59.3658 73.5796 59.1722C73.5796 58.9786 73.7722 58.785 73.9648 58.785H80.4175C80.6101 58.785 80.8027 58.9786 80.8027 59.1722C80.7064 59.3658 80.6101 59.5594 80.4175 59.5594Z" fill="#3F4A5C"/>
<path d="M86.1959 59.5594H81.6694C81.4768 59.5594 81.2842 59.3658 81.2842 59.1722C81.2842 58.9786 81.4768 58.785 81.6694 58.785H86.1959C86.3885 58.785 86.5811 58.9786 86.5811 59.1722C86.5811 59.3658 86.3885 59.5594 86.1959 59.5594Z" fill="#3F4A5C"/>
<path d="M90.2411 59.5594H87.9297C87.7371 59.5594 87.5444 59.3658 87.5444 59.1722C87.5444 58.9786 87.7371 58.785 87.9297 58.785H90.2411C90.4337 58.785 90.6263 58.9786 90.6263 59.1722C90.6263 59.3658 90.4337 59.5594 90.2411 59.5594Z" fill="#3F4A5C"/>
<path d="M72.6167 64.9804H66.5493C66.3567 64.9804 66.1641 64.7868 66.1641 64.5932C66.1641 64.3996 66.3567 64.206 66.5493 64.206H72.6167C72.8093 64.206 73.0019 64.3996 73.0019 64.5932C73.0019 64.7868 72.8093 64.9804 72.6167 64.9804Z" fill="#3F4A5C"/>
<path d="M86.1962 70.4013H66.5493C66.3567 70.4013 66.1641 70.2077 66.1641 70.0141C66.1641 69.8205 66.3567 69.6269 66.5493 69.6269H86.1962C86.3888 69.6269 86.5814 69.8205 86.5814 70.0141C86.5814 70.2077 86.3888 70.4013 86.1962 70.4013Z" fill="#3F4A5C"/>
<path d="M75.313 61.3018H69.2456C69.053 61.3018 68.8604 61.1082 68.8604 60.9146C68.8604 60.721 69.053 60.5274 69.2456 60.5274H75.313C75.5056 60.5274 75.6982 60.721 75.6982 60.9146C75.6982 61.1082 75.5056 61.3018 75.313 61.3018Z" fill="#3F4A5C"/>
<path d="M85.1368 61.3018H76.5654C76.3728 61.3018 76.1802 61.1082 76.1802 60.9146C76.1802 60.721 76.3728 60.5274 76.5654 60.5274H85.1368C85.3295 60.5274 85.5221 60.721 85.5221 60.9146C85.5221 61.1082 85.3295 61.3018 85.1368 61.3018Z" fill="#3F4A5C"/>
<path d="M90.8188 61.3018H86.3886C86.196 61.3018 86.0034 61.1082 86.0034 60.9146C86.0034 60.721 86.196 60.5274 86.3886 60.5274H90.8188C91.0114 60.5274 91.2041 60.721 91.2041 60.9146C91.2041 61.1082 91.0114 61.3018 90.8188 61.3018Z" fill="#3F4A5C"/>
<path d="M93.5154 61.3018H92.0708C91.8782 61.3018 91.6855 61.1082 91.6855 60.9146C91.6855 60.721 91.8782 60.5274 92.0708 60.5274H93.5154C93.708 60.5274 93.9006 60.721 93.9006 60.9146C93.9006 61.1082 93.708 61.3018 93.5154 61.3018Z" fill="#3F4A5C"/>
<path d="M76.6613 63.1412H69.2456C69.053 63.1412 68.8604 62.9476 68.8604 62.754C68.8604 62.5604 69.053 62.3668 69.2456 62.3668H76.6613C76.8539 62.3668 77.0465 62.5604 77.0465 62.754C77.0465 62.9476 76.8539 63.1412 76.6613 63.1412Z" fill="#3F4A5C"/>
<path d="M80.1287 63.1412H78.1062C77.9136 63.1412 77.7209 62.9476 77.7209 62.754C77.7209 62.5604 77.9136 62.3668 78.1062 62.3668H80.1287C80.3213 62.3668 80.5139 62.5604 80.5139 62.754C80.5139 62.9476 80.3213 63.1412 80.1287 63.1412Z" fill="#3F4A5C"/>
<path d="M96.8862 63.1412H81.5732C81.3806 63.1412 81.188 62.9476 81.188 62.754C81.188 62.5604 81.3806 62.3668 81.5732 62.3668H96.8862C97.0788 62.3668 97.2715 62.5604 97.2715 62.754C97.2715 62.9476 97.0788 63.1412 96.8862 63.1412Z" fill="#3F4A5C"/>
<path d="M72.6166 57.7202H63.8525C63.6599 57.7202 63.4673 57.5266 63.4673 57.333C63.4673 57.1393 63.6599 56.9457 63.8525 56.9457H72.6166C72.8092 56.9457 73.0018 57.1393 73.0018 57.333C73.0018 57.5266 72.8092 57.7202 72.6166 57.7202Z" fill="#3F4A5C"/>
<path d="M76.2762 57.7202H73.9648C73.7722 57.7202 73.5796 57.5266 73.5796 57.333C73.5796 57.1393 73.7722 56.9457 73.9648 56.9457H76.2762C76.4688 56.9457 76.6614 57.1393 76.6614 57.333C76.6614 57.5266 76.4688 57.7202 76.2762 57.7202Z" fill="#3F4A5C"/>
<path d="M72.6166 66.8197H63.8525C63.6599 66.8197 63.4673 66.626 63.4673 66.4324C63.4673 66.2388 63.6599 66.0452 63.8525 66.0452H72.6166C72.8092 66.0452 73.0018 66.2388 73.0018 66.4324C73.0018 66.626 72.8092 66.8197 72.6166 66.8197Z" fill="#3F4A5C"/>
<path d="M79.4544 68.5621H63.8525C63.6599 68.5621 63.4673 68.3685 63.4673 68.1749C63.4673 67.9813 63.6599 67.7877 63.8525 67.7877H79.4544C79.6471 67.7877 79.8397 67.9813 79.8397 68.1749C79.8397 68.3685 79.6471 68.5621 79.4544 68.5621Z" fill="#3F4A5C"/>
<path d="M86.1961 68.5621H80.7065C80.5139 68.5621 80.3213 68.3685 80.3213 68.1749C80.3213 67.9813 80.5139 67.7877 80.7065 67.7877H86.1961C86.3887 67.7877 86.5813 67.9813 86.5813 68.1749C86.5813 68.3685 86.485 68.5621 86.1961 68.5621Z" fill="#3F4A5C"/>
<path d="M89.8557 68.5621H87.6406C87.448 68.5621 87.2554 68.3685 87.2554 68.1749C87.2554 67.9813 87.448 67.7877 87.6406 67.7877H89.8557C90.0483 67.7877 90.2409 67.9813 90.2409 68.1749C90.2409 68.3685 90.0483 68.5621 89.8557 68.5621Z" fill="#3F4A5C"/>
<path d="M62 38.5399V78.4601C62 79.2893 61.4211 80 60.8421 80H19.1579C18.4825 80 18 79.2893 18 78.4601V38.5399C18 37.7107 18.5789 37 19.1579 37H60.8421C61.5175 37 62 37.7107 62 38.5399Z" fill="#262A31"/>
<path d="M21.862 39.8117V72.6279H19.5506C18.8764 72.6279 18.2986 72.0471 18.2986 71.3694V39.8117H21.862Z" fill="#1A2027"/>
<path d="M98.9085 37.3915H64.1413H54.3178H19.5506C18.8764 37.3915 18.2986 37.9724 18.2986 38.65V40.2956H53.0658H65.3933H100.161V38.65C100.257 37.9724 99.679 37.3915 98.9085 37.3915Z" fill="url(#paint2_linear)"/>
<path d="M19.7431 39.3276C19.9559 39.3276 20.1284 39.1542 20.1284 38.9404C20.1284 38.7265 19.9559 38.5532 19.7431 38.5532C19.5304 38.5532 19.3579 38.7265 19.3579 38.9404C19.3579 39.1542 19.5304 39.3276 19.7431 39.3276Z" fill="#3A4458"/>
<path d="M20.8025 39.3276C21.0152 39.3276 21.1877 39.1542 21.1877 38.9404C21.1877 38.7265 21.0152 38.5532 20.8025 38.5532C20.5897 38.5532 20.4172 38.7265 20.4172 38.9404C20.4172 39.1542 20.5897 39.3276 20.8025 39.3276Z" fill="#3A4458"/>
<path d="M21.9582 39.3276C22.171 39.3276 22.3435 39.1542 22.3435 38.9404C22.3435 38.7265 22.171 38.5532 21.9582 38.5532C21.7455 38.5532 21.573 38.7265 21.573 38.9404C21.573 39.1542 21.7455 39.3276 21.9582 39.3276Z" fill="#3A4458"/>
<path d="M32.1666 43.1998H23.4026C23.21 43.1998 23.0173 43.0062 23.0173 42.8126C23.0173 42.619 23.21 42.4254 23.4026 42.4254H32.1666C32.3592 42.4254 32.5518 42.619 32.5518 42.8126C32.5518 43.0062 32.3592 43.1998 32.1666 43.1998Z" fill="#3F4A5C"/>
<path d="M20.1283 43.1998H19.8393C19.6467 43.1998 19.4541 43.0062 19.4541 42.8126C19.4541 42.619 19.6467 42.4254 19.8393 42.4254H20.1283C20.3209 42.4254 20.5135 42.619 20.5135 42.8126C20.5135 43.0062 20.3209 43.1998 20.1283 43.1998Z" fill="#3F4A5C"/>
<path d="M20.1283 45.039H19.8393C19.6467 45.039 19.4541 44.8454 19.4541 44.6518C19.4541 44.4582 19.6467 44.2646 19.8393 44.2646H20.1283C20.3209 44.2646 20.5135 44.4582 20.5135 44.6518C20.5135 44.8454 20.3209 45.039 20.1283 45.039Z" fill="#3F4A5C"/>
<path d="M20.1283 46.8782H19.8393C19.6467 46.8782 19.4541 46.6846 19.4541 46.491C19.4541 46.2974 19.6467 46.1038 19.8393 46.1038H20.1283C20.3209 46.1038 20.5135 46.2974 20.5135 46.491C20.5135 46.6846 20.3209 46.8782 20.1283 46.8782Z" fill="#3F4A5C"/>
<path d="M20.1283 48.6207H19.8393C19.6467 48.6207 19.4541 48.4271 19.4541 48.2335C19.4541 48.0399 19.6467 47.8463 19.8393 47.8463H20.1283C20.3209 47.8463 20.5135 48.0399 20.5135 48.2335C20.5135 48.4271 20.3209 48.6207 20.1283 48.6207Z" fill="#3F4A5C"/>
<path d="M20.1283 50.4599H19.8393C19.6467 50.4599 19.4541 50.2663 19.4541 50.0727C19.4541 49.8791 19.6467 49.6855 19.8393 49.6855H20.1283C20.3209 49.6855 20.5135 49.8791 20.5135 50.0727C20.5135 50.2663 20.3209 50.4599 20.1283 50.4599Z" fill="#3F4A5C"/>
<path d="M20.1283 52.2993H19.8393C19.6467 52.2993 19.4541 52.1057 19.4541 51.9121C19.4541 51.7184 19.6467 51.5248 19.8393 51.5248H20.1283C20.3209 51.5248 20.5135 51.7184 20.5135 51.9121C20.5135 52.1057 20.3209 52.2993 20.1283 52.2993Z" fill="#3F4A5C"/>
<path d="M20.1283 54.1385H19.8393C19.6467 54.1385 19.4541 53.9449 19.4541 53.7513C19.4541 53.5577 19.6467 53.3641 19.8393 53.3641H20.1283C20.3209 53.3641 20.5135 53.5577 20.5135 53.7513C20.5135 53.9449 20.3209 54.1385 20.1283 54.1385Z" fill="#3F4A5C"/>
<path d="M20.1283 55.9777H19.8393C19.6467 55.9777 19.4541 55.7841 19.4541 55.5905C19.4541 55.3969 19.6467 55.2033 19.8393 55.2033H20.1283C20.3209 55.2033 20.5135 55.3969 20.5135 55.5905C20.5135 55.7841 20.3209 55.9777 20.1283 55.9777Z" fill="#3F4A5C"/>
<path d="M20.1283 57.817H19.8393C19.6467 57.817 19.4541 57.6234 19.4541 57.4298C19.4541 57.2361 19.6467 57.0425 19.8393 57.0425H20.1283C20.3209 57.0425 20.5135 57.2361 20.5135 57.4298C20.5135 57.6234 20.3209 57.817 20.1283 57.817Z" fill="#3F4A5C"/>
<path d="M20.1283 59.5594H19.8393C19.6467 59.5594 19.4541 59.3658 19.4541 59.1722C19.4541 58.9786 19.6467 58.785 19.8393 58.785H20.1283C20.3209 58.785 20.5135 58.9786 20.5135 59.1722C20.5135 59.4626 20.3209 59.5594 20.1283 59.5594Z" fill="#3F4A5C"/>
<path d="M20.1283 61.3986H19.8393C19.6467 61.3986 19.4541 61.205 19.4541 61.0114C19.4541 60.8178 19.6467 60.6242 19.8393 60.6242H20.1283C20.3209 60.6242 20.5135 60.8178 20.5135 61.0114C20.5135 61.3018 20.3209 61.3986 20.1283 61.3986Z" fill="#3F4A5C"/>
<path d="M20.1283 63.238H19.8393C19.6467 63.238 19.4541 63.0444 19.4541 62.8508C19.4541 62.6572 19.6467 62.4636 19.8393 62.4636H20.1283C20.3209 62.4636 20.5135 62.6572 20.5135 62.8508C20.5135 63.0444 20.3209 63.238 20.1283 63.238Z" fill="#3F4A5C"/>
<path d="M20.1283 65.0772H19.8393C19.6467 65.0772 19.4541 64.8836 19.4541 64.69C19.4541 64.4964 19.6467 64.3028 19.8393 64.3028H20.1283C20.3209 64.3028 20.5135 64.4964 20.5135 64.69C20.5135 64.8836 20.3209 65.0772 20.1283 65.0772Z" fill="#3F4A5C"/>
<path d="M20.1283 66.9164H19.8393C19.6467 66.9164 19.4541 66.7228 19.4541 66.5292C19.4541 66.3356 19.6467 66.142 19.8393 66.142H20.1283C20.3209 66.142 20.5135 66.3356 20.5135 66.5292C20.5135 66.7228 20.3209 66.9164 20.1283 66.9164Z" fill="#3F4A5C"/>
<path d="M20.1283 68.7557H19.8393C19.6467 68.7557 19.4541 68.5621 19.4541 68.3685C19.4541 68.1749 19.6467 67.9813 19.8393 67.9813H20.1283C20.3209 67.9813 20.5135 68.1749 20.5135 68.3685C20.5135 68.5621 20.3209 68.7557 20.1283 68.7557Z" fill="#3F4A5C"/>
<path d="M20.1283 70.4981H19.8393C19.6467 70.4981 19.4541 70.3045 19.4541 70.1109C19.4541 69.9173 19.6467 69.7237 19.8393 69.7237H20.1283C20.3209 69.7237 20.5135 69.9173 20.5135 70.1109C20.5135 70.3045 20.3209 70.4981 20.1283 70.4981Z" fill="#3F4A5C"/>
<path d="M30.337 45.039H23.4028C23.2102 45.039 23.0176 44.8454 23.0176 44.6518C23.0176 44.4582 23.2102 44.2646 23.4028 44.2646H30.337C30.5296 44.2646 30.7222 44.4582 30.7222 44.6518C30.7222 44.8454 30.5296 45.039 30.337 45.039Z" fill="#3F4A5C"/>
<path d="M48.9244 45.039H31.6853C31.4927 45.039 31.3 44.8454 31.3 44.6518C31.3 44.4582 31.4927 44.2646 31.6853 44.2646H48.9244C49.1171 44.2646 49.3097 44.4582 49.3097 44.6518C49.3097 44.8454 49.2134 45.039 48.9244 45.039Z" fill="#3F4A5C"/>
<path d="M56.4365 45.039H51.4284C51.2358 45.039 51.0432 44.8454 51.0432 44.6518C51.0432 44.4582 51.2358 44.2646 51.4284 44.2646H56.4365C56.6291 44.2646 56.8217 44.4582 56.8217 44.6518C56.8217 44.8454 56.6291 45.039 56.4365 45.039Z" fill="#3F4A5C"/>
<path d="M60.5776 45.039H58.9404C58.7478 45.039 58.5552 44.8454 58.5552 44.6518C58.5552 44.4582 58.7478 44.2646 58.9404 44.2646H60.5776C60.7703 44.2646 60.9629 44.4582 60.9629 44.6518C60.9629 44.8454 60.7703 45.039 60.5776 45.039Z" fill="#3F4A5C"/>
<path d="M34.767 46.7814H26.0029C25.8103 46.7814 25.6177 46.5878 25.6177 46.3942C25.6177 46.2006 25.8103 46.007 26.0029 46.007H34.767C34.9596 46.007 35.1522 46.2006 35.1522 46.3942C35.1522 46.5878 34.9596 46.7814 34.767 46.7814Z" fill="#3F4A5C"/>
<path d="M34.767 54.0417H26.0029C25.8103 54.0417 25.6177 53.8481 25.6177 53.6545C25.6177 53.4609 25.8103 53.2673 26.0029 53.2673H34.767C34.9596 53.2673 35.1522 53.4609 35.1522 53.6545C35.1522 53.9449 34.9596 54.0417 34.767 54.0417Z" fill="#3F4A5C"/>
<path d="M32.4556 55.8809H26.0029C25.8103 55.8809 25.6177 55.6873 25.6177 55.4937C25.6177 55.3001 25.8103 55.1065 26.0029 55.1065H32.4556C32.6482 55.1065 32.8408 55.3001 32.8408 55.4937C32.8408 55.6873 32.6482 55.8809 32.4556 55.8809Z" fill="#3F4A5C"/>
<path d="M49.4061 55.8809H34.1894C33.9968 55.8809 33.8042 55.6873 33.8042 55.4937C33.8042 55.3001 33.9968 55.1065 34.1894 55.1065H49.4061C49.5987 55.1065 49.7914 55.3001 49.7914 55.4937C49.7914 55.6873 49.5987 55.8809 49.4061 55.8809Z" fill="#3F4A5C"/>
<path d="M37.2711 48.6207H29.0849C28.8923 48.6207 28.6997 48.4271 28.6997 48.2335C28.6997 48.0399 28.8923 47.8463 29.0849 47.8463H37.2711C37.4638 47.8463 37.6564 48.0399 37.6564 48.2335C37.6564 48.4271 37.4638 48.6207 37.2711 48.6207Z" fill="#3F4A5C"/>
<path d="M41.7977 48.6207H38.5232C38.3306 48.6207 38.1379 48.4271 38.1379 48.2335C38.1379 48.0399 38.3306 47.8463 38.5232 47.8463H41.894C42.0866 47.8463 42.2792 48.0399 42.2792 48.2335C42.2792 48.4271 42.0866 48.6207 41.7977 48.6207Z" fill="#3F4A5C"/>
<path d="M51.6211 50.4599H29.0849C28.8923 50.4599 28.6997 50.2663 28.6997 50.0727C28.6997 49.8791 28.8923 49.6855 29.0849 49.6855H51.6211C51.8137 49.6855 52.0063 49.8791 52.0063 50.0727C52.0063 50.2663 51.8137 50.4599 51.6211 50.4599Z" fill="#3F4A5C"/>
<path d="M55.6661 50.4599H53.5473C53.3547 50.4599 53.1621 50.2663 53.1621 50.0727C53.1621 49.8791 53.3547 49.6855 53.5473 49.6855H55.6661C55.8587 49.6855 56.0514 49.8791 56.0514 50.0727C56.0514 50.2663 55.8587 50.4599 55.6661 50.4599Z" fill="#3F4A5C"/>
<path d="M63.756 50.4599H57.207C57.0144 50.4599 56.8218 50.2663 56.8218 50.0727C56.8218 49.8791 57.0144 49.6855 57.207 49.6855H63.756C63.9486 49.6855 64.1412 49.8791 64.1412 50.0727C64.1412 50.2663 63.9486 50.4599 63.756 50.4599Z" fill="#3F4A5C"/>
<path d="M44.5906 52.2993H29.0849C28.8923 52.2993 28.6997 52.1057 28.6997 51.9121C28.6997 51.7184 28.8923 51.5248 29.0849 51.5248H44.5906C44.7832 51.5248 44.9758 51.7184 44.9758 51.9121C44.9758 52.1057 44.7832 52.2993 44.5906 52.2993Z" fill="#3F4A5C"/>
<path d="M37.7528 59.5594H31.7817C31.5891 59.5594 31.3965 59.3658 31.3965 59.1722C31.3965 58.9786 31.5891 58.785 31.7817 58.785H37.8491C38.0418 58.785 38.2344 58.9786 38.2344 59.1722C38.1381 59.3658 38.0418 59.5594 37.7528 59.5594Z" fill="#3F4A5C"/>
<path d="M45.5537 59.5594H39.1011C38.9084 59.5594 38.7158 59.3658 38.7158 59.1722C38.7158 58.9786 38.9084 58.785 39.1011 58.785H45.5537C45.7463 58.785 45.9389 58.9786 45.9389 59.1722C45.9389 59.3658 45.7463 59.5594 45.5537 59.5594Z" fill="#3F4A5C"/>
<path d="M51.4283 59.5594H46.9018C46.7092 59.5594 46.5166 59.3658 46.5166 59.1722C46.5166 58.9786 46.7092 58.785 46.9018 58.785H51.4283C51.6209 58.785 51.8136 58.9786 51.8136 59.1722C51.8136 59.3658 51.6209 59.5594 51.4283 59.5594Z" fill="#3F4A5C"/>
<path d="M55.4735 59.5594H53.1621C52.9695 59.5594 52.7769 59.3658 52.7769 59.1722C52.7769 58.9786 52.9695 58.785 53.1621 58.785H55.4735C55.6661 58.785 55.8587 58.9786 55.8587 59.1722C55.8587 59.3658 55.6661 59.5594 55.4735 59.5594Z" fill="#3F4A5C"/>
<path d="M37.7528 64.9804H31.7817C31.5891 64.9804 31.3965 64.7868 31.3965 64.5932C31.3965 64.3996 31.5891 64.206 31.7817 64.206H37.8491C38.0418 64.206 38.2344 64.3996 38.2344 64.5932C38.2344 64.7868 38.0418 64.9804 37.7528 64.9804Z" fill="#3F4A5C"/>
<path d="M51.3323 70.4013H31.7817C31.5891 70.4013 31.3965 70.2077 31.3965 70.0141C31.3965 69.8205 31.5891 69.7237 31.7817 69.7237H51.4286C51.6212 69.7237 51.8138 69.9173 51.8138 70.1109C51.8138 70.3045 51.6212 70.4013 51.3323 70.4013Z" fill="#3F4A5C"/>
<path d="M40.4492 61.3018H34.3818C34.1892 61.3018 33.9966 61.1082 33.9966 60.9146C33.9966 60.721 34.1892 60.5274 34.3818 60.5274H40.4492C40.6418 60.5274 40.8345 60.721 40.8345 60.9146C40.8345 61.1082 40.6418 61.3018 40.4492 61.3018Z" fill="#3F4A5C"/>
<path d="M50.369 61.3018H41.7976C41.605 61.3018 41.4124 61.1082 41.4124 60.9146C41.4124 60.721 41.605 60.5274 41.7976 60.5274H50.369C50.5616 60.5274 50.7542 60.721 50.7542 60.9146C50.7542 61.1082 50.5616 61.3018 50.369 61.3018Z" fill="#3F4A5C"/>
<path d="M55.9551 61.3018H51.5249C51.3323 61.3018 51.1396 61.1082 51.1396 60.9146C51.1396 60.721 51.3323 60.5274 51.5249 60.5274H55.9551C56.1477 60.5274 56.3403 60.721 56.3403 60.9146C56.3403 61.1082 56.1477 61.3018 55.9551 61.3018Z" fill="#3F4A5C"/>
<path d="M58.7478 61.3018H57.3032C57.1106 61.3018 56.918 61.1082 56.918 60.9146C56.918 60.721 57.1106 60.5274 57.3032 60.5274H58.7478C58.9404 60.5274 59.1331 60.721 59.1331 60.9146C59.1331 61.1082 58.9404 61.3018 58.7478 61.3018Z" fill="#3F4A5C"/>
<path d="M41.8937 63.1412H34.478C34.2854 63.1412 34.0928 62.9476 34.0928 62.754C34.0928 62.5604 34.2854 62.3668 34.478 62.3668H41.8937C42.0864 62.3668 42.279 62.5604 42.279 62.754C42.279 62.9476 42.0864 63.1412 41.8937 63.1412Z" fill="#3F4A5C"/>
<path d="M45.3608 63.1412H43.3384C43.1457 63.1412 42.9531 62.9476 42.9531 62.754C42.9531 62.5604 43.1457 62.3668 43.3384 62.3668H45.3608C45.5534 62.3668 45.7461 62.5604 45.7461 62.754C45.6498 62.9476 45.5534 63.1412 45.3608 63.1412Z" fill="#3F4A5C"/>
<path d="M62.0225 63.1412H46.7095C46.5168 63.1412 46.3242 62.9476 46.3242 62.754C46.3242 62.5604 46.5168 62.3668 46.7095 62.3668H62.0225C62.2151 62.3668 62.4077 62.5604 62.4077 62.754C62.4077 62.9476 62.3114 63.1412 62.0225 63.1412Z" fill="#3F4A5C"/>
<path d="M37.7528 57.7202H28.9887C28.7961 57.7202 28.6035 57.5266 28.6035 57.333C28.6035 57.1393 28.7961 56.9457 28.9887 56.9457H37.7528C37.9454 56.9457 38.138 57.1393 38.138 57.333C38.138 57.5266 38.0417 57.7202 37.7528 57.7202Z" fill="#3F4A5C"/>
<path d="M41.5086 57.7202H39.1972C39.0046 57.7202 38.812 57.5266 38.812 57.333C38.812 57.1393 39.0046 56.9457 39.1972 56.9457H41.5086C41.7013 56.9457 41.8939 57.1393 41.8939 57.333C41.8939 57.5266 41.7013 57.7202 41.5086 57.7202Z" fill="#3F4A5C"/>
<path d="M37.7528 66.8197H28.9887C28.7961 66.8197 28.6035 66.626 28.6035 66.4324C28.6035 66.2388 28.7961 66.0452 28.9887 66.0452H37.7528C37.9454 66.0452 38.138 66.2388 38.138 66.4324C38.138 66.626 38.0417 66.8197 37.7528 66.8197Z" fill="#3F4A5C"/>
<path d="M44.6869 68.5621H29.0849C28.8923 68.5621 28.6997 68.3685 28.6997 68.1749C28.6997 67.9813 28.8923 67.7877 29.0849 67.7877H44.6869C44.8795 67.7877 45.0721 67.9813 45.0721 68.1749C45.0721 68.3685 44.8795 68.5621 44.6869 68.5621Z" fill="#3F4A5C"/>
<path d="M51.4285 68.5621H45.9389C45.7463 68.5621 45.5537 68.3685 45.5537 68.1749C45.5537 67.9813 45.7463 67.7877 45.9389 67.7877H51.4285C51.6211 67.7877 51.8137 67.9813 51.8137 68.1749C51.8137 68.3685 51.6211 68.5621 51.4285 68.5621Z" fill="#3F4A5C"/>
<path d="M54.9919 68.5621H52.7768C52.5842 68.5621 52.3916 68.3685 52.3916 68.1749C52.3916 67.9813 52.5842 67.7877 52.7768 67.7877H54.9919C55.1845 67.7877 55.3772 67.9813 55.3772 68.1749C55.3772 68.3685 55.2808 68.5621 54.9919 68.5621Z" fill="#3F4A5C"/>
<path opacity="0.3" d="M66.2601 36.4235C66.6453 45.1358 67.7047 55.3001 70.1124 65.2708C72.6164 66.0452 74.7352 67.6908 76.0835 69.9173C80.4174 70.1109 84.0771 73.1118 85.3291 77.0807C86.0995 72.9182 89.374 69.5301 93.6116 68.8525C95.1525 66.7228 97.4639 65.2708 100.064 64.7868V84.9217H18.106V66.8196C19.6469 65.8516 21.4767 65.2708 23.4992 65.2708C27.4479 65.2708 30.9149 67.594 32.6485 70.8853C34.5747 68.4653 37.4639 67.0132 40.6421 67.0132C42.6645 67.0132 44.5907 67.594 46.2279 68.6589C46.9021 64.5932 49.8877 61.3019 53.74 60.3338C55.3772 52.0088 56.244 43.7805 56.5329 36.5203H66.2601V36.4235Z" fill="black"/>
<path d="M109.791 93.7309C109.791 96.151 107.769 98.087 105.265 98.087H13.1942C10.6902 98.087 8.66772 96.151 8.66772 93.7309H50.2729C50.6581 94.6989 51.6212 95.3765 52.6806 95.3765H65.6822C66.8379 95.3765 67.8009 94.6989 68.0899 93.7309H109.791Z" fill="#464D5F"/>
<path d="M61.1557 80.6625C60.6742 80.3721 60.0964 80.3721 59.6148 80.6625C52.9695 85.1155 42.183 91.1172 48.1541 78.5329C54.0289 66.2389 55.9551 51.1377 56.4366 39.5213C56.4366 38.7469 57.1108 38.1661 57.785 38.1661H62.8893C63.6598 38.1661 64.2376 38.7469 64.2376 39.5213C64.7191 51.1377 66.6453 66.3357 72.5201 78.5329C78.5875 91.1172 67.8973 85.1155 61.1557 80.6625Z" fill="#A7AEC0"/>
<path d="M69.4382 80.9529C67.801 80.1785 65.4896 78.8232 62.504 76.7904L60.3852 75.3383L58.2665 76.7904C55.2809 78.8232 52.9695 80.1785 51.3323 80.9529C51.4286 80.7593 51.5249 80.4689 51.6212 80.2753C57.496 67.9813 59.5185 53.3641 60.1926 42.0381H60.5779C61.1557 53.2673 63.2745 67.9813 69.1493 80.2753C69.2456 80.5657 69.3419 80.7593 69.4382 80.9529Z" fill="#74849B"/>
<path d="M66.0674 69.9174C66.0674 74.6607 62.2151 78.5328 57.496 78.5328C55.0883 78.5328 52.9695 77.5648 51.4286 76.016C49.8876 74.4671 48.9246 72.3375 48.9246 69.9174C48.9246 65.1741 52.7769 61.3019 57.496 61.3019C58.8443 61.3019 60 61.5923 61.1557 62.1732C64.0449 63.5284 66.0674 66.5293 66.0674 69.9174Z" fill="#74849B"/>
<path d="M63.6597 68.2713C63.6597 73.0146 59.8074 76.8867 55.0883 76.8867C53.74 76.8867 52.5843 76.5963 51.4286 76.1123C49.8876 74.5634 48.9246 72.4338 48.9246 70.0137C48.9246 65.2704 52.7769 61.3983 57.496 61.3983C58.8443 61.3983 60 61.6887 61.1557 62.2695C62.6966 63.7215 63.6597 65.8512 63.6597 68.2713Z" fill="#A7AEC0"/>
<path d="M55.1846 78.7264C55.1846 83.4697 51.3323 87.3418 46.6132 87.3418C44.2055 87.3418 42.0867 86.3738 40.5458 84.8249C39.0048 83.2761 38.0417 81.1464 38.0417 78.7264C38.0417 73.983 41.8941 70.1109 46.6132 70.1109C47.9615 70.1109 49.1172 70.4013 50.2729 70.9821C53.2584 72.3374 55.1846 75.2415 55.1846 78.7264Z" fill="#74849B"/>
<path d="M52.7769 76.9839C52.7769 81.7272 48.9246 85.5994 44.2055 85.5994C42.8572 85.5994 41.7015 85.3089 40.5458 84.8249C39.0048 83.2761 38.0417 81.1464 38.0417 78.7264C38.0417 73.983 41.8941 70.1109 46.6132 70.1109C47.9615 70.1109 49.1172 70.4013 50.2729 70.9821C51.8138 72.531 52.7769 74.6606 52.7769 76.9839Z" fill="#A7AEC0"/>
<path d="M76.9502 78.0487C76.9502 82.7921 73.0979 86.6642 68.3788 86.6642C65.9711 86.6642 63.8523 85.6962 62.3114 84.1473C60.7705 82.5985 59.8074 80.4688 59.8074 78.0487C59.8074 73.3054 63.6597 69.4333 68.3788 69.4333C69.7271 69.4333 70.8828 69.7237 72.0385 70.3045C74.9278 71.563 76.9502 74.5638 76.9502 78.0487Z" fill="#74849B"/>
<path d="M74.5425 76.3063C74.5425 81.0496 70.6902 84.9217 65.9711 84.9217C64.6228 84.9217 63.4671 84.6313 62.3114 84.1473C60.7705 82.5985 59.8074 80.4688 59.8074 78.0487C59.8074 73.3054 63.6597 69.4333 68.3788 69.4333C69.7271 69.4333 70.8828 69.7237 72.0385 70.3045C73.5794 71.7566 74.5425 73.8862 74.5425 76.3063Z" fill="#A7AEC0"/>
<path d="M36.4046 84.0506C36.4046 88.7939 32.5522 92.666 27.8331 92.666C25.4254 92.666 23.3067 91.698 21.7657 90.1491C20.2248 88.6003 19.2617 86.4706 19.2617 84.0506C19.2617 79.3072 23.114 75.4351 27.8331 75.4351C29.1815 75.4351 30.3372 75.7255 31.4929 76.3063C34.3821 77.6616 36.4046 80.6625 36.4046 84.0506Z" fill="#74849B"/>
<path d="M33.9007 82.3081C33.9007 87.0515 30.0484 90.9236 25.3293 90.9236C23.9809 90.9236 22.8252 90.6332 21.6695 90.1491C20.1286 88.6003 19.1655 86.4706 19.1655 84.0506C19.1655 79.3072 23.0179 75.4351 27.737 75.4351C29.0853 75.4351 30.241 75.7255 31.3967 76.3063C33.0339 77.8552 33.9007 79.9849 33.9007 82.3081Z" fill="#74849B"/>
<path d="M83.8846 84.1474C83.8846 88.8907 80.0322 92.7628 75.3131 92.7628C72.9054 92.7628 70.7866 91.7948 69.2457 90.246C67.7048 88.6971 66.7417 86.5674 66.7417 84.1474C66.7417 79.404 70.594 75.5319 75.3131 75.5319C76.6614 75.5319 77.8171 75.8223 78.9728 76.4031C81.8621 77.7584 83.8846 80.7593 83.8846 84.1474Z" fill="#74849B"/>
<path d="M81.4768 82.5012C81.4768 87.2446 77.6245 91.1167 72.9054 91.1167C71.5571 91.1167 70.4014 90.8263 69.2457 90.3423C67.7048 88.7934 66.7417 86.6638 66.7417 84.2437C66.7417 79.5004 70.594 75.6282 75.3131 75.6282C76.6614 75.6282 77.8171 75.9186 78.9728 76.4995C80.5138 77.9515 81.4768 80.0812 81.4768 82.5012Z" fill="#74849B"/>
<path d="M65.6822 80.3721C65.6822 85.1154 61.8298 88.9876 57.1107 88.9876C54.703 88.9876 52.5842 88.0195 51.0433 86.4707C49.5024 84.9218 48.5393 82.7922 48.5393 80.3721C48.5393 75.6288 52.3916 71.7567 57.1107 71.7567C58.459 71.7567 59.6147 72.0471 60.7704 72.6279C63.756 73.9831 65.6822 76.984 65.6822 80.3721Z" fill="#74849B"/>
<path d="M63.2745 78.6297C63.2745 83.373 59.4221 87.2451 54.703 87.2451C53.3547 87.2451 52.199 86.9547 51.0433 86.4707C49.5024 84.9218 48.5393 82.7922 48.5393 80.3721C48.5393 75.6288 52.3916 71.7567 57.1107 71.7567C58.459 71.7567 59.6147 72.0471 60.7704 72.6279C62.3114 74.1767 63.2745 76.3064 63.2745 78.6297Z" fill="#A7AEC0"/>
<path d="M84.3661 80.1785C84.3661 83.373 81.7657 85.8898 78.6839 85.8898C77.143 85.8898 75.6983 85.2122 74.6389 84.1474C73.5796 83.0826 73.0017 81.6305 73.0017 80.0817C73.0017 76.8872 75.602 74.3703 78.6839 74.3703C79.5507 74.3703 80.4174 74.5639 81.0916 74.9511C83.0178 75.9191 84.3661 77.8552 84.3661 80.1785Z" fill="#74849B"/>
<path d="M82.7288 79.0168C82.7288 82.2113 80.1285 84.7282 77.0466 84.7282C76.1799 84.7282 75.3131 84.5346 74.6389 84.1474C73.5796 83.0826 73.0017 81.6305 73.0017 80.0817C73.0017 76.8872 75.602 74.3703 78.6839 74.3703C79.5507 74.3703 80.4174 74.5639 81.0916 74.9511C82.0547 76.0159 82.7288 77.468 82.7288 79.0168Z" fill="#A7AEC0"/>
<path d="M96.7897 89.1812C96.7897 92.3757 94.1893 94.8925 91.1075 94.8925C89.5665 94.8925 88.1219 94.2149 87.0625 93.1501C86.0031 92.0852 85.4253 90.6332 85.4253 89.0844C85.4253 85.8899 88.0256 83.373 91.1075 83.373C91.9743 83.373 92.841 83.5666 93.5152 83.9538C95.4413 84.9218 96.7897 86.8579 96.7897 89.1812Z" fill="#74849B"/>
<path d="M95.1524 88.0195C95.1524 91.214 92.5521 93.7309 89.4702 93.7309C88.6035 93.7309 87.7367 93.5373 87.0625 93.1501C86.0031 92.0852 85.4253 90.6332 85.4253 89.0844C85.4253 85.8899 88.0256 83.373 91.1075 83.373C91.9743 83.373 92.841 83.5666 93.5152 83.9538C94.5746 85.0186 95.1524 86.4707 95.1524 88.0195Z" fill="#74849B"/>
<path d="M24.1734 87.6322C24.1734 90.8267 21.5731 93.3436 18.4913 93.3436C16.9503 93.3436 15.5057 92.666 14.4463 91.6011C13.3869 90.5363 12.8091 89.0843 12.8091 87.5354C12.8091 84.3409 15.4094 81.824 18.4913 81.824C19.358 81.824 20.2248 82.0176 20.899 82.4049C22.8251 83.3729 24.1734 85.4057 24.1734 87.6322Z" fill="#74849B"/>
<path d="M22.5362 86.5669C22.5362 89.7614 19.9359 92.2783 16.854 92.2783C15.9873 92.2783 15.1205 92.0846 14.4463 91.6974C13.3869 90.6326 12.8091 89.1806 12.8091 87.6317C12.8091 84.4372 15.4094 81.9203 18.4913 81.9203C19.358 81.9203 20.2248 82.114 20.899 82.5012C21.8621 83.4692 22.5362 84.9212 22.5362 86.5669Z" fill="#A7AEC0"/>
<path d="M24.6549 79.3073C24.6549 82.5017 22.0546 85.0186 18.9727 85.0186C17.4318 85.0186 15.9872 84.341 14.9278 83.2762C13.8684 82.2113 13.2905 80.7593 13.2905 79.2105C13.2905 76.016 15.8908 73.4991 18.9727 73.4991C19.8395 73.4991 20.7063 73.6927 21.3804 74.0799C23.3066 75.0479 24.6549 76.984 24.6549 79.3073Z" fill="#74849B"/>
<path d="M23.0177 78.1456C23.0177 81.3401 20.4173 83.857 17.3355 83.857C16.4687 83.857 15.6019 83.6634 14.9278 83.2762C13.8684 82.2113 13.2905 80.7593 13.2905 79.2105C13.2905 76.016 15.8908 73.4991 18.9727 73.4991C19.8395 73.4991 20.7063 73.6927 21.3804 74.0799C22.3435 75.1447 23.0177 76.5968 23.0177 78.1456Z" fill="#A7AEC0"/>
<path d="M101.509 77.3712C101.509 80.5657 98.9086 83.0826 95.8267 83.0826C94.2858 83.0826 92.8412 82.405 91.7818 81.3401C90.7224 80.2753 90.1445 78.8233 90.1445 77.2744C90.1445 74.0799 92.7449 71.563 95.8267 71.563C96.6935 71.563 97.5603 71.7567 98.2344 72.1439C100.257 73.1119 101.509 75.048 101.509 77.3712Z" fill="#74849B"/>
<path d="M99.9679 76.2096C99.9679 79.4041 97.3675 81.9209 94.2857 81.9209C93.4189 81.9209 92.5521 81.7273 91.878 81.3401C90.8186 80.2753 90.2407 78.8233 90.2407 77.2744C90.2407 74.0799 92.841 71.563 95.9229 71.563C96.7897 71.563 97.6565 71.7567 98.3306 72.1439C99.2937 73.2087 99.9679 74.6607 99.9679 76.2096Z" fill="#74849B"/>
<path d="M91.4927 85.6962C91.4927 89.0843 88.6998 91.8916 85.329 91.8916C83.5955 91.8916 82.0545 91.2139 80.9951 90.0523C79.9358 88.8907 79.1653 87.4386 79.1653 85.6962C79.1653 82.3081 81.9582 79.5008 85.329 79.5008C86.2921 79.5008 87.1589 79.6944 87.9293 80.0816C90.1444 81.0496 91.4927 83.1793 91.4927 85.6962Z" fill="#74849B"/>
<path d="M89.7592 84.4377C89.7592 87.8258 86.9663 90.6331 83.5955 90.6331C82.6324 90.6331 81.7656 90.4395 80.9951 90.0523C79.9358 88.8907 79.1653 87.4386 79.1653 85.6962C79.1653 82.3081 81.9582 79.5008 85.329 79.5008C86.2921 79.5008 87.1589 79.6944 87.9293 80.0816C89.085 81.2432 89.7592 82.7921 89.7592 84.4377Z" fill="#74849B"/>
<path d="M109.888 83.8569C109.888 87.245 107.095 90.0523 103.724 90.0523C101.99 90.0523 100.45 89.3747 99.3902 88.2131C98.3308 87.0514 97.5603 85.5994 97.5603 83.8569C97.5603 80.4688 100.353 77.6616 103.724 77.6616C104.687 77.6616 105.554 77.8552 106.324 78.2424C108.443 79.2104 109.888 81.3401 109.888 83.8569Z" fill="#74849B"/>
<path d="M108.154 82.5985C108.154 85.9866 105.361 88.7939 101.99 88.7939C101.027 88.7939 100.161 88.6003 99.3902 88.2131C98.3308 87.0514 97.5603 85.5994 97.5603 83.8569C97.5603 80.4688 100.353 77.6616 103.724 77.6616C104.687 77.6616 105.554 77.8552 106.324 78.2424C107.48 79.404 108.154 80.8561 108.154 82.5985Z" fill="#A7AEC0"/>
<path d="M46.228 84.1474C46.228 88.0195 43.0498 91.214 39.1975 91.214C37.2713 91.214 35.4415 90.4395 34.1895 89.0843C32.9375 87.8259 32.167 86.0834 32.167 84.1474C32.167 80.2752 35.3452 77.0807 39.1975 77.0807C40.2569 77.0807 41.3163 77.3712 42.183 77.7584C44.5907 78.92 46.228 81.3401 46.228 84.1474Z" fill="#74849B"/>
<path d="M44.2055 82.7916C44.2055 86.6637 41.0273 89.8582 37.175 89.8582C36.1156 89.8582 35.0562 89.5678 34.1895 89.1806C32.9375 87.9222 32.167 86.1797 32.167 84.2437C32.167 80.3716 35.3452 77.1771 39.1975 77.1771C40.2569 77.1771 41.3163 77.4675 42.183 77.8547C43.435 79.1131 44.2055 80.8556 44.2055 82.7916Z" fill="#A7AEC0"/>
<path d="M37.1748 87.9227C37.1748 91.3108 34.4781 94.0213 31.1073 94.0213C29.4701 94.0213 27.9292 93.3437 26.8698 92.2789C25.8104 91.214 25.1362 89.6652 25.1362 88.0195C25.1362 84.6314 27.8329 81.921 31.2036 81.921C32.1667 81.921 33.0335 82.1146 33.804 82.5018C35.7301 83.373 37.1748 85.5027 37.1748 87.9227Z" fill="#74849B"/>
<path d="M35.4413 86.7611C35.4413 90.1492 32.7447 92.8597 29.3739 92.8597C28.4108 92.8597 27.5441 92.6661 26.7736 92.2789C25.7142 91.214 25.04 89.6652 25.04 88.0195C25.04 84.6314 27.7367 81.921 31.1075 81.921C32.0705 81.921 32.9373 82.1146 33.7078 82.5018C34.7672 83.5666 35.4413 85.0187 35.4413 86.7611Z" fill="#74849B"/>
<path d="M28.2182 88.8908C28.2182 92.2789 25.5216 94.9893 22.1508 94.9893C20.5136 94.9893 18.9726 94.3117 17.9132 93.2469C16.8538 92.1821 16.1797 90.6332 16.1797 88.9876C16.1797 85.5995 18.8763 82.889 22.2471 82.889C23.2102 82.889 24.077 83.0826 24.8474 83.4698C26.8699 84.341 28.2182 86.4707 28.2182 88.8908Z" fill="#74849B"/>
<path d="M26.581 87.7291C26.581 91.1172 23.8843 93.8277 20.5136 93.8277C19.5505 93.8277 18.6837 93.6341 17.9132 93.2469C16.8538 92.1821 16.1797 90.6332 16.1797 88.9876C16.1797 85.5995 18.8763 82.889 22.2471 82.889C23.2102 82.889 24.077 83.0826 24.8474 83.4698C25.9068 84.5346 26.581 85.9867 26.581 87.7291Z" fill="#A7AEC0"/>
<path d="M54.1253 17.063C53.2585 21.0319 52.3917 25.6784 46.8059 30.809C46.1317 31.3898 45.8428 32.261 45.8428 33.0354V35.5523H57.0145L56.6293 14.6429L54.1253 17.063Z" fill="#7C8AA0"/>
<path d="M67.0306 17.063C67.8974 21.0319 68.7641 25.6784 74.35 30.809C75.0242 31.3898 75.3131 32.261 75.3131 33.0354V35.5523H64.1414L64.5266 14.6429L67.0306 17.063Z" fill="#7C8AA0"/>
<path d="M67.1267 14.9333C67.1267 21.6127 67.1267 35.6491 67.1267 35.6491H54.0288C54.0288 35.6491 54.0288 21.6127 54.0288 14.9333C54.0288 8.25392 56.9181 5.05943 60.5778 1.47772C62.1187 3.02657 63.467 4.47861 64.6227 6.12426C66.1636 8.35072 67.1267 10.9644 67.1267 14.9333Z" fill="#A7AEC0"/>
<path d="M60.578 1.38094C62.1189 2.92978 63.4672 4.38182 64.6229 6.02747C66.1638 8.35074 67.1269 11.0612 67.1269 14.9333C67.1269 21.6127 67.1269 35.6491 67.1269 35.6491H54.029C54.029 35.6491 54.029 21.6127 54.029 14.9333C54.029 8.15714 56.9182 5.05944 60.578 1.38094ZM60.578 0.0256958L59.9038 0.703316C56.533 4.09142 53.0659 7.57632 53.0659 14.9333V35.6491V36.6172H54.029H67.1269H68.09V35.6491V14.9333C68.09 11.2548 67.2232 8.25394 65.3934 5.54346C64.2377 3.80101 62.793 2.25216 61.2521 0.800119L60.578 0.0256958Z" fill="#4B5A72"/>
<path d="M67.1269 14.9334C67.1269 21.6128 67.1269 35.6492 67.1269 35.6492H62.6005C62.5041 35.1652 62.5042 34.5844 62.5042 34.0035C62.5042 32.6483 62.5042 31.1963 62.5042 29.7442C62.5042 28.873 62.5041 27.905 63.082 27.2274C63.3709 26.8401 63.8525 26.6465 64.2377 26.2593C64.9119 25.4849 64.9119 24.3233 64.9119 23.3552C64.8155 20.0639 64.7192 16.7726 64.6229 13.4813C64.6229 12.3197 64.5266 11.0613 64.5266 9.89964C64.5266 9.31882 64.5266 8.64121 64.4303 8.06039C64.4303 7.57637 64.2377 6.80195 64.4303 6.22113C64.5266 6.02753 64.6229 5.93073 64.7192 5.93073C66.1639 8.3508 67.1269 10.9645 67.1269 14.9334Z" fill="#3D4960"/>
<path d="M60.5778 15.0301C61.7479 15.0301 62.6965 14.0767 62.6965 12.9005C62.6965 11.7243 61.7479 10.7708 60.5778 10.7708C59.4076 10.7708 58.459 11.7243 58.459 12.9005C58.459 14.0767 59.4076 15.0301 60.5778 15.0301Z" fill="#3D4960" stroke="#7D9AFF" stroke-width="2" stroke-miterlimit="10"/>
<path d="M55.8588 38.0693H52.1991C51.9101 38.0693 51.7175 37.8757 51.7175 37.5853V30.0346C51.7175 28.7762 52.7769 27.7114 54.0289 27.7114C55.2809 27.7114 56.3403 28.7762 56.3403 30.0346V37.5853C56.4366 37.7789 56.1477 38.0693 55.8588 38.0693Z" fill="#A7AEC0"/>
<path d="M68.8605 38.0693H65.2008C64.9119 38.0693 64.7192 37.8757 64.7192 37.5853V30.0346C64.7192 28.7762 65.7786 27.7114 67.0306 27.7114C68.2826 27.7114 69.342 28.7762 69.342 30.0346V37.5853C69.342 37.7789 69.1494 38.0693 68.8605 38.0693Z" fill="#A7AEC0"/>
<path d="M69.3421 29.9378V37.4885C69.3421 37.7789 69.1495 37.9725 68.8606 37.9725H68.1864V31.3899C68.2827 30.5187 68.0901 29.6474 67.5123 28.873C67.2233 28.389 66.5492 28.0986 66.2603 27.6146C66.4529 27.5178 66.7418 27.5178 66.9344 27.5178C67.6086 27.5178 68.1864 27.8082 68.5716 28.1954C68.9569 28.5826 69.3421 29.2602 69.3421 29.9378Z" fill="#3D4960"/>
<path d="M56.4368 29.9378V37.4885C56.4368 37.7789 56.2442 37.9725 55.9553 37.9725H55.2811V31.3899C55.3775 30.5187 55.1848 29.6474 54.607 28.873C54.3181 28.389 53.6439 28.0986 53.355 27.6146C53.5476 27.5178 53.8365 27.5178 54.0291 27.5178C54.7033 27.5178 55.2811 27.8082 55.6664 28.1954C56.0516 28.5826 56.4368 29.2602 56.4368 29.9378Z" fill="#3D4960"/>
<path d="M63.082 41.4574C63.082 42.9094 60.4817 46.3943 60.4817 46.3943C60.4817 46.3943 57.8813 42.9094 57.8813 41.4574C57.8813 40.0053 59.037 38.8437 60.4817 38.8437C61.9263 38.8437 63.082 40.0053 63.082 41.4574Z" fill="url(#paint3_linear)"/>
<path d="M68.6678 40.2957C68.6678 41.167 67.1269 43.103 67.1269 43.103C67.1269 43.103 65.5859 41.0702 65.5859 40.2957C65.5859 39.5213 66.2601 38.7469 67.1269 38.7469C67.9936 38.8437 68.6678 39.5213 68.6678 40.2957Z" fill="url(#paint4_linear)"/>
<path d="M55.4737 40.2957C55.4737 41.167 53.9328 43.103 53.9328 43.103C53.9328 43.103 52.3918 41.0702 52.3918 40.2957C52.3918 39.5213 53.066 38.7469 53.9328 38.7469C54.7995 38.8437 55.4737 39.5213 55.4737 40.2957Z" fill="url(#paint5_linear)"/>
<path d="M61.0595 16.6758C61.0595 16.4822 60.8669 16.2886 60.6743 16.2886C60.4817 16.2886 60.2891 16.4822 60.2891 16.6758V35.746H61.0595V16.6758Z" fill="#4B5A72"/>
<path d="M53.9324 86.5674C53.9324 91.3108 50.0801 95.1829 45.361 95.1829C42.9533 95.1829 40.8345 94.2148 39.2936 92.666C37.7526 91.1171 36.7896 88.9875 36.7896 86.5674C36.7896 81.8241 40.6419 77.952 45.361 77.952C46.7093 77.952 47.865 78.2424 49.0207 78.8232C51.9099 80.1784 53.9324 83.0825 53.9324 86.5674Z" fill="#74849B"/>
<path d="M51.5247 84.825C51.5247 89.5683 47.6724 93.4404 42.9533 93.4404C41.605 93.4404 40.4493 93.15 39.2936 92.666C37.7526 91.1171 36.7896 88.9875 36.7896 86.5674C36.7896 81.8241 40.6419 77.952 45.361 77.952C46.7093 77.952 47.865 78.2424 49.0207 78.8232C50.5616 80.2752 51.5247 82.5017 51.5247 84.825Z" fill="#A7AEC0"/>
<path d="M31.3001 79.9849C31.3001 84.7282 27.4478 88.6004 22.7287 88.6004C20.321 88.6004 18.2022 87.6323 16.6612 86.0835C15.1203 84.5346 14.1572 82.405 14.1572 79.9849C14.1572 75.2416 18.0096 71.3694 22.7287 71.3694C24.077 71.3694 25.2327 71.6599 26.3884 72.2407C29.2776 73.5959 31.3001 76.5968 31.3001 79.9849Z" fill="#74849B"/>
<path d="M28.8924 78.3388C28.8924 83.0821 25.0401 86.9542 20.321 86.9542C18.9726 86.9542 17.8169 86.6638 16.6612 86.1798C15.1203 84.6309 14.1572 82.5013 14.1572 80.0812C14.1572 75.3379 18.0096 71.4658 22.7287 71.4658C24.077 71.4658 25.2327 71.7562 26.3884 72.337C27.9293 73.789 28.8924 75.9187 28.8924 78.3388Z" fill="#A7AEC0"/>
<path d="M64.9117 86.277C64.9117 91.0204 61.0593 94.8925 56.3402 94.8925C53.9325 94.8925 51.8137 93.9244 50.2728 92.3756C48.7319 90.8268 47.7688 88.6971 47.7688 86.277C47.7688 81.5337 51.6211 77.6616 56.3402 77.6616C57.6885 77.6616 58.8442 77.952 59.9999 78.5328C62.8892 79.888 64.9117 82.8889 64.9117 86.277Z" fill="#74849B"/>
<path d="M62.504 84.6309C62.504 89.3742 58.6516 93.2463 53.9325 93.2463C52.5842 93.2463 51.4285 92.9559 50.2728 92.4719C48.7319 90.9231 47.7688 88.7934 47.7688 86.3733C47.7688 81.63 51.6211 77.7579 56.3402 77.7579C57.6885 77.7579 58.8442 78.0483 59.9999 78.6291C61.5409 80.0811 62.504 82.2108 62.504 84.6309Z" fill="#A7AEC0"/>
<path d="M72.5201 88.6003C72.5201 91.8916 69.8235 94.6021 66.549 94.6021C64.9117 94.6021 63.3708 93.9245 62.3114 92.8597C61.252 91.7948 60.5779 90.246 60.5779 88.6003C60.5779 85.309 63.2745 82.5986 66.549 82.5986C67.4158 82.5986 68.2825 82.7922 69.053 83.1794C71.1718 84.1474 72.5201 86.1803 72.5201 88.6003Z" fill="#74849B"/>
<path d="M70.8827 87.4387C70.8827 90.73 68.1861 93.4405 64.9116 93.4405C64.0449 93.4405 63.1781 93.2469 62.4076 92.8597C61.3482 91.7948 60.6741 90.246 60.6741 88.6003C60.6741 85.309 63.3707 82.5986 66.6452 82.5986C67.512 82.5986 68.3787 82.7922 69.1492 83.1794C70.2086 84.2442 70.8827 85.7931 70.8827 87.4387Z" fill="#A7AEC0"/>
<path d="M20.1285 88.9871C20.1285 92.2784 17.4319 94.9888 14.1574 94.9888C12.5201 94.9888 10.9792 94.3112 9.91983 93.2464C8.86044 92.1816 8.18628 90.6327 8.18628 88.9871C8.18628 85.6958 10.8829 82.9853 14.1574 82.9853C15.0242 82.9853 15.8909 83.1789 16.6614 83.5661C18.7802 84.5341 20.1285 86.567 20.1285 88.9871Z" fill="#74849B"/>
<path d="M18.4911 87.7291C18.4911 91.0204 15.7945 93.7309 12.52 93.7309C11.6533 93.7309 10.7865 93.5373 10.016 93.1501C8.95663 92.0852 8.28247 90.5364 8.28247 88.8908C8.28247 85.5995 10.9791 82.889 14.2536 82.889C15.1204 82.889 15.9871 83.0826 16.7576 83.4698C17.817 84.6314 18.4911 86.0835 18.4911 87.7291Z" fill="#A7AEC0"/>
<path d="M85.2327 88.4061C85.2327 91.6974 82.5361 94.4079 79.2616 94.4079C77.6244 94.4079 76.0835 93.7303 75.0241 92.6655C73.9647 91.6006 73.2905 90.0518 73.2905 88.4061C73.2905 85.1148 75.9872 82.4044 79.2616 82.4044C80.1284 82.4044 80.9952 82.598 81.7657 82.9852C83.7881 83.9532 85.2327 85.9861 85.2327 88.4061Z" fill="#74849B"/>
<path d="M83.4992 87.1483C83.4992 90.4396 80.8026 93.1501 77.5281 93.1501C76.6613 93.1501 75.7945 92.9565 75.0241 92.5693C73.9647 91.5044 73.2905 89.9556 73.2905 88.3099C73.2905 85.0186 75.9872 82.3082 79.2616 82.3082C80.1284 82.3082 80.9952 82.5018 81.7657 82.889C82.9213 84.0506 83.4992 85.5027 83.4992 87.1483Z" fill="#A7AEC0"/>
<path d="M109.503 87.7286C109.503 91.0199 106.806 93.7304 103.531 93.7304C101.894 93.7304 100.353 93.0528 99.2938 91.988C98.2345 90.9231 97.5603 89.3743 97.5603 87.7286C97.5603 84.4373 100.257 81.7269 103.531 81.7269C104.398 81.7269 105.265 81.9205 106.035 82.3077C108.058 83.1789 109.503 85.3086 109.503 87.7286Z" fill="#74849B"/>
<path d="M107.769 86.4707C107.769 89.762 105.072 92.4725 101.798 92.4725C100.931 92.4725 100.064 92.2789 99.2938 91.8917C98.2345 90.8268 97.5603 89.278 97.5603 87.6323C97.5603 84.341 100.257 81.6306 103.531 81.6306C104.398 81.6306 105.265 81.8242 106.035 82.2114C107.095 83.373 107.769 84.825 107.769 86.4707Z" fill="#74849B"/>
<path d="M98.7159 80.7593C98.7159 84.0506 96.0193 86.7611 92.7448 86.7611C91.1076 86.7611 89.5666 86.0834 88.5072 85.0186C87.4478 83.9538 86.7737 82.4049 86.7737 80.7593C86.7737 77.468 89.4703 74.7575 92.7448 74.7575C93.6116 74.7575 94.4783 74.9511 95.2488 75.3383C97.3676 76.3064 98.7159 78.3392 98.7159 80.7593Z" fill="#74849B"/>
<path d="M97.0785 79.5976C97.0785 82.8889 94.3819 85.5994 91.1074 85.5994C90.2407 85.5994 89.3739 85.4058 88.6034 85.0186C87.544 83.9538 86.8699 82.4049 86.8699 80.7593C86.8699 77.468 89.5665 74.7575 92.841 74.7575C93.7078 74.7575 94.5745 74.9511 95.345 75.3383C96.4044 76.4032 97.0785 77.952 97.0785 79.5976Z" fill="#A7AEC0"/>
<path d="M106.517 74.4666C106.517 77.7579 103.82 80.4683 100.546 80.4683C98.9086 80.4683 97.3676 79.7907 96.3083 78.7259C95.2489 77.6611 94.5747 76.1122 94.5747 74.4666C94.5747 71.1753 97.2713 68.4648 100.546 68.4648C101.413 68.4648 102.279 68.6584 103.05 69.0456C105.169 70.0136 106.517 72.0465 106.517 74.4666Z" fill="#74849B"/>
<path d="M104.88 73.2086C104.88 76.4999 102.183 79.2104 98.9085 79.2104C98.0417 79.2104 97.1749 79.0168 96.4044 78.6296C95.3451 77.5647 94.6709 76.0159 94.6709 74.3702C94.6709 71.079 97.3675 68.3685 100.642 68.3685C101.509 68.3685 102.376 68.5621 103.146 68.9493C104.205 70.1109 104.88 71.563 104.88 73.2086Z" fill="#A7AEC0"/>
<path d="M68.7641 86.2771C68.7641 88.6003 66.9342 90.4396 64.6228 90.4396C63.4671 90.4396 62.4077 89.9556 61.7336 89.1812C60.9631 88.4067 60.5779 87.4387 60.5779 86.2771C60.5779 83.9538 62.4077 82.1146 64.7191 82.1146C65.3933 82.1146 65.9711 82.2114 66.4527 82.5018C67.801 83.1794 68.7641 84.6314 68.7641 86.2771Z" fill="#74849B"/>
<path d="M67.6084 85.4059C67.6084 87.7291 65.7785 89.5684 63.4671 89.5684C62.793 89.5684 62.2151 89.4716 61.7336 89.1812C60.9631 88.4067 60.5779 87.4387 60.5779 86.2771C60.5779 83.9538 62.4077 82.1146 64.7191 82.1146C65.3933 82.1146 65.9711 82.2114 66.4527 82.5018C67.1268 83.2762 67.6084 84.341 67.6084 85.4059Z" fill="#A7AEC0"/>
<path d="M112.488 80.5657C112.488 82.8889 110.658 84.7282 108.347 84.7282C107.191 84.7282 106.132 84.2442 105.457 83.4697C104.687 82.6953 104.302 81.7273 104.302 80.5657C104.302 78.2424 106.132 76.4031 108.443 76.4031C109.117 76.4031 109.695 76.4999 110.177 76.7904C111.525 77.468 112.488 78.92 112.488 80.5657Z" fill="#74849B"/>
<path d="M111.332 79.7907C111.332 82.114 109.502 83.9533 107.191 83.9533C106.517 83.9533 105.939 83.8565 105.457 83.5661C104.687 82.7916 104.302 81.8236 104.302 80.662C104.302 78.3387 106.132 76.4995 108.443 76.4995C109.117 76.4995 109.695 76.5963 110.177 76.8867C110.851 77.5643 111.332 78.6291 111.332 79.7907Z" fill="#A7AEC0"/>
<path d="M40.642 83.9537C40.642 86.277 38.8122 88.1162 36.5008 88.1162C35.3451 88.1162 34.2857 87.6322 33.6115 86.8578C32.841 86.0834 32.4558 85.1154 32.4558 83.9537C32.4558 81.6304 34.2857 79.7912 36.5971 79.7912C37.2712 79.7912 37.8491 79.888 38.3306 80.1784C39.6789 80.856 40.642 82.2113 40.642 83.9537Z" fill="#74849B"/>
<path d="M39.4863 83.0825C39.4863 85.4058 37.6565 87.245 35.3451 87.245C34.6709 87.245 34.0931 87.1482 33.6115 86.8578C32.841 86.0834 32.4558 85.1154 32.4558 83.9537C32.4558 81.6304 34.2857 79.7912 36.5971 79.7912C37.2712 79.7912 37.8491 79.888 38.3306 80.1784C39.0048 80.9528 39.4863 81.9209 39.4863 83.0825Z" fill="#A7AEC0"/>
<path d="M12.4237 89.3747C12.4237 91.698 10.5939 93.5373 8.28246 93.5373C7.12677 93.5373 6.06738 93.0533 5.39322 92.2788C4.62275 91.5044 4.23752 90.5364 4.23752 89.3747C4.14121 87.1483 5.97107 85.2122 8.28246 85.2122C8.95662 85.2122 9.53447 85.309 10.016 85.5994C11.4606 86.2771 12.4237 87.7291 12.4237 89.3747Z" fill="#74849B"/>
<path d="M11.268 88.6003C11.268 90.9236 9.43816 92.7628 7.12677 92.7628C6.45261 92.7628 5.87476 92.666 5.39322 92.3756C4.62275 91.6012 4.23752 90.6332 4.23752 89.4715C4.14121 87.1483 5.97107 85.2122 8.28247 85.2122C8.95662 85.2122 9.53447 85.309 10.016 85.5994C10.7865 86.3739 11.268 87.4387 11.268 88.6003Z" fill="#A7AEC0"/>
<path d="M14.9279 83.0825C14.9279 85.4058 13.098 87.245 10.7866 87.245C9.63094 87.245 8.57155 86.761 7.8974 85.9866C7.12693 85.2122 6.7417 84.2441 6.7417 83.0825C6.7417 80.7592 8.57155 78.92 10.883 78.92C11.5571 78.92 12.135 79.0168 12.6165 79.3072C13.9648 79.9848 14.9279 81.4369 14.9279 83.0825Z" fill="#74849B"/>
<path d="M13.7722 82.3076C13.7722 84.6309 11.9423 86.4701 9.63094 86.4701C8.95679 86.4701 8.37894 86.3733 7.8974 86.0829C7.12693 85.3085 6.7417 84.3405 6.7417 83.1788C6.7417 80.8556 8.57155 79.0163 10.883 79.0163C11.5571 79.0163 12.135 79.1131 12.6165 79.4035C13.2907 80.0811 13.7722 81.146 13.7722 82.3076Z" fill="#A7AEC0"/>
<path d="M29.8556 81.5337C29.8556 83.8569 28.0258 85.6962 25.7144 85.6962C24.5587 85.6962 23.4993 85.2122 22.8251 84.4378C22.0547 83.6633 21.6694 82.6953 21.6694 81.5337C21.6694 79.2104 23.4993 77.3712 25.8107 77.3712C26.4848 77.3712 27.0627 77.468 27.5442 77.7584C28.8925 78.436 29.8556 79.888 29.8556 81.5337Z" fill="#74849B"/>
<path d="M28.6999 80.7588C28.6999 83.082 26.8701 84.9213 24.5587 84.9213C23.8845 84.9213 23.3067 84.8245 22.8251 84.5341C22.0547 83.7597 21.6694 82.7916 21.6694 81.63C21.6694 79.3067 23.4993 77.4675 25.8107 77.4675C26.4848 77.4675 27.0627 77.5643 27.5442 77.8547C28.2184 78.5323 28.6999 79.5971 28.6999 80.7588Z" fill="#A7AEC0"/>
<path d="M89.2776 74.0799C89.2776 75.0479 88.5072 75.8224 87.5441 75.8224C87.0626 75.8224 86.581 75.6288 86.2921 75.3384C86.0032 75.0479 85.8105 74.5639 85.8105 74.0799C85.8105 73.1119 86.581 72.3375 87.5441 72.3375C87.833 72.3375 88.0256 72.4343 88.3146 72.5311C88.8924 72.8215 89.2776 73.4023 89.2776 74.0799Z" fill="#74849B"/>
<path d="M88.7961 73.7895C88.7961 74.7575 88.0256 75.532 87.0626 75.532C86.7736 75.532 86.581 75.4352 86.2921 75.3384C86.0032 75.0479 85.8105 74.5639 85.8105 74.0799C85.8105 73.1119 86.581 72.3375 87.5441 72.3375C87.833 72.3375 88.0256 72.4343 88.3146 72.5311C88.6035 72.8215 88.7961 73.3055 88.7961 73.7895Z" fill="#A7AEC0"/>
<path d="M114.318 90.6331C114.318 91.6012 113.547 92.3756 112.584 92.3756C112.103 92.3756 111.621 92.182 111.332 91.8916C111.043 91.6012 110.851 91.1171 110.851 90.6331C110.851 89.6651 111.621 88.8907 112.584 88.8907C112.873 88.8907 113.066 88.9875 113.355 89.0843C113.932 89.3747 114.318 89.9555 114.318 90.6331Z" fill="#74849B"/>
<path d="M113.836 90.3427C113.836 91.3108 113.066 92.0852 112.103 92.0852C111.814 92.0852 111.621 91.9884 111.332 91.8916C111.043 91.6012 110.851 91.1171 110.851 90.6331C110.851 89.6651 111.621 88.8907 112.584 88.8907C112.873 88.8907 113.066 88.9875 113.355 89.0843C113.644 89.3747 113.836 89.8587 113.836 90.3427Z" fill="#A7AEC0"/>
<path d="M72.0384 75.2415C72.0384 76.2096 71.2679 76.984 70.3048 76.984C69.8233 76.984 69.3418 76.7904 69.0528 76.5C68.7639 76.2096 68.5713 75.7255 68.5713 75.2415C68.5713 74.2735 69.3418 73.4991 70.3048 73.4991C70.5938 73.4991 70.7864 73.5959 71.0753 73.6927C71.6532 73.9831 72.0384 74.5639 72.0384 75.2415Z" fill="#74849B"/>
<path d="M71.5568 74.9511C71.5568 75.9192 70.7864 76.6936 69.8233 76.6936C69.5344 76.6936 69.3418 76.5968 69.0528 76.5C68.7639 76.2096 68.5713 75.7255 68.5713 75.2415C68.5713 74.2735 69.3418 73.4991 70.3048 73.4991C70.5938 73.4991 70.7864 73.5959 71.0753 73.6927C71.3642 73.9831 71.5568 74.4671 71.5568 74.9511Z" fill="#A7AEC0"/>
<path d="M32.9373 86.5675C32.9373 87.5355 32.1668 88.3099 31.2038 88.3099C30.7222 88.3099 30.2407 88.1163 29.9518 87.8259C29.6628 87.5355 29.4702 87.0515 29.4702 86.5675C29.4702 85.5994 30.2407 84.825 31.2038 84.825C31.4927 84.825 31.6853 84.9218 31.9742 85.0186C32.4558 85.309 32.9373 85.8898 32.9373 86.5675Z" fill="#74849B"/>
<path d="M32.4558 86.2771C32.4558 87.2451 31.6853 88.0195 30.7222 88.0195C30.4333 88.0195 30.2407 87.9227 29.9518 87.8259C29.6628 87.5355 29.4702 87.0515 29.4702 86.5675C29.4702 85.5994 30.2407 84.825 31.2038 84.825C31.4927 84.825 31.6853 84.9218 31.9742 85.0186C32.2632 85.309 32.4558 85.793 32.4558 86.2771Z" fill="#A7AEC0"/>
<path d="M38.4271 71.7561C38.4271 72.7241 37.6566 73.4985 36.6935 73.4985C36.212 73.4985 35.7304 73.3049 35.4415 73.0145C35.1526 72.7241 34.96 72.2401 34.96 71.7561C34.96 70.788 35.7304 70.0136 36.6935 70.0136C36.9824 70.0136 37.1751 70.1104 37.464 70.2072C38.0418 70.4008 38.4271 71.0784 38.4271 71.7561Z" fill="#74849B"/>
<path d="M37.9455 71.3693C37.9455 72.3374 37.175 73.1118 36.212 73.1118C35.923 73.1118 35.7304 73.015 35.4415 72.9182C35.1526 72.6278 34.96 72.1438 34.96 71.6598C34.96 70.6917 35.7304 69.9173 36.6935 69.9173C36.9824 69.9173 37.1751 70.0141 37.464 70.1109C37.7529 70.4981 37.9455 70.8853 37.9455 71.3693Z" fill="#A7AEC0"/>
<path d="M3.5634 85.309C3.5634 86.2771 2.79294 87.0515 1.82986 87.0515C1.34831 87.0515 0.866774 86.8579 0.577849 86.5675C0.192616 86.2771 0 85.7931 0 85.309C0 84.341 0.770465 83.5666 1.73355 83.5666C2.02247 83.5666 2.21509 83.6634 2.50401 83.7602C3.08186 83.9538 3.5634 84.6314 3.5634 85.309Z" fill="#74849B"/>
<path d="M3.08186 84.9218C3.08186 85.8899 2.3114 86.6643 1.34831 86.6643C1.05939 86.6643 0.866774 86.5675 0.577849 86.4707C0.192616 86.2771 0 85.7931 0 85.309C0 84.341 0.770465 83.5666 1.73355 83.5666C2.02247 83.5666 2.21509 83.6634 2.50401 83.7602C2.79294 84.0506 3.08186 84.4378 3.08186 84.9218Z" fill="#A7AEC0"/>
<path d="M92.7448 68.4648C92.7448 68.9488 92.3596 69.2392 91.9743 69.2392C91.7817 69.2392 91.5891 69.1424 91.3965 69.0456C91.3002 68.9488 91.2039 68.6584 91.2039 68.4648C91.2039 67.9808 91.5891 67.6904 91.9743 67.6904C92.0706 67.6904 92.1669 67.6904 92.3596 67.7872C92.5522 67.884 92.7448 68.1744 92.7448 68.4648Z" fill="#74849B"/>
<path d="M92.5522 68.2717C92.5522 68.7557 92.1669 69.0461 91.7817 69.0461C91.6854 69.0461 91.5891 69.0461 91.3965 68.9493C91.3002 68.8525 91.2039 68.5621 91.2039 68.3685C91.2039 67.8845 91.5891 67.5941 91.9743 67.5941C92.0706 67.5941 92.1669 67.5941 92.3596 67.6909C92.4559 67.8845 92.5522 68.0781 92.5522 68.2717Z" fill="#A7AEC0"/>
<path d="M114.125 72.5311C114.125 73.0151 113.74 73.3055 113.355 73.3055C113.162 73.3055 112.97 73.2087 112.777 73.1119C112.681 73.0151 112.584 72.7247 112.584 72.5311C112.584 72.0471 112.97 71.7567 113.355 71.7567C113.451 71.7567 113.548 71.7567 113.74 71.8535C113.933 71.9503 114.125 72.2407 114.125 72.5311Z" fill="#74849B"/>
<path d="M113.933 72.4343C113.933 72.9183 113.548 73.2087 113.162 73.2087C113.066 73.2087 112.97 73.2087 112.777 73.1119C112.681 73.0151 112.584 72.7247 112.584 72.5311C112.584 72.0471 112.97 71.7567 113.355 71.7567C113.451 71.7567 113.548 71.7567 113.74 71.8535C113.836 71.9503 113.933 72.1439 113.933 72.4343Z" fill="#A7AEC0"/>
<path d="M23.5956 80.2747C23.5956 80.7587 23.2104 81.0491 22.8252 81.0491C22.6325 81.0491 22.4399 80.9523 22.2473 80.8555C22.151 80.7587 22.0547 80.4683 22.0547 80.2747C22.0547 79.7907 22.4399 79.5003 22.8252 79.5003C22.9215 79.5003 23.0178 79.5003 23.2104 79.5971C23.403 79.5971 23.5956 79.8875 23.5956 80.2747Z" fill="#74849B"/>
<path d="M23.403 80.0816C23.403 80.5656 23.0178 80.856 22.6325 80.856C22.5362 80.856 22.4399 80.856 22.2473 80.7592C22.151 80.6624 22.0547 80.372 22.0547 80.1784C22.0547 79.6944 22.4399 79.404 22.8252 79.404C22.9215 79.404 23.0178 79.404 23.2104 79.5008C23.3067 79.6944 23.403 79.888 23.403 80.0816Z" fill="#A7AEC0"/>
<path d="M97.4638 79.3072C97.4638 79.7912 97.0786 80.0816 96.6933 80.0816C96.5007 80.0816 96.3081 79.9848 96.1155 79.888C96.0192 79.7912 95.9229 79.5008 95.9229 79.3072C95.9229 78.8232 96.3081 78.5328 96.6933 78.5328C96.7896 78.5328 96.8859 78.5328 97.0786 78.6296C97.2712 78.7264 97.4638 79.0168 97.4638 79.3072Z" fill="#74849B"/>
<path d="M97.2712 79.2104C97.2712 79.6944 96.8859 79.9848 96.5007 79.9848C96.4044 79.9848 96.3081 79.9848 96.1155 79.888C96.0192 79.7912 95.9229 79.5008 95.9229 79.3072C95.9229 78.8232 96.3081 78.5328 96.6933 78.5328C96.7896 78.5328 96.8859 78.5328 97.0786 78.6296C97.1749 78.8232 97.2712 79.0168 97.2712 79.2104Z" fill="#A7AEC0"/>
<path d="M24.8476 67.8845C24.8476 68.2717 24.5587 68.5621 24.1734 68.5621C23.9808 68.5621 23.7882 68.4653 23.6919 68.3685C23.5956 68.2717 23.4993 68.0781 23.4993 67.8845C23.4993 67.4973 23.7882 67.2068 24.1734 67.2068C24.2697 67.2068 24.366 67.2068 24.4623 67.3036C24.655 67.4005 24.8476 67.5941 24.8476 67.8845Z" fill="#74849B"/>
<path d="M24.655 67.7877C24.655 68.1749 24.366 68.4653 23.9808 68.4653C23.8845 68.4653 23.7882 68.4653 23.6919 68.3685C23.5956 68.2717 23.4993 68.0781 23.4993 67.8845C23.4993 67.4973 23.7882 67.2068 24.1734 67.2068C24.2697 67.2068 24.366 67.2068 24.4623 67.3036C24.5587 67.4005 24.655 67.5941 24.655 67.7877Z" fill="#A7AEC0"/>
<path d="M2.21501 76.6931C2.21501 77.0803 1.92609 77.4675 1.54086 77.4675C1.34824 77.4675 1.15562 77.3707 1.05932 77.2739C0.963007 77.1771 0.866699 76.9835 0.866699 76.7899C0.866699 76.4027 1.15562 76.1122 1.54086 76.1122C1.63716 76.1122 1.73347 76.1122 1.82978 76.209C2.0224 76.209 2.21501 76.4995 2.21501 76.6931Z" fill="#74849B"/>
<path d="M2.0224 76.5967C2.0224 76.984 1.73347 77.2744 1.34824 77.2744C1.25193 77.2744 1.15562 77.2744 1.05932 77.1776C0.963007 77.0808 0.866699 76.8872 0.866699 76.6935C0.866699 76.3063 1.15562 76.0159 1.54086 76.0159C1.63716 76.0159 1.73347 76.0159 1.82978 76.1127C1.92609 76.2095 2.0224 76.4031 2.0224 76.5967Z" fill="#A7AEC0"/>
<path d="M105.072 86.5674C105.072 91.3108 101.22 95.1829 96.5009 95.1829C94.0932 95.1829 91.9744 94.2148 90.4335 92.666C88.8925 91.1171 87.9294 88.9875 87.9294 86.5674C87.9294 81.8241 91.7818 77.952 96.5009 77.952C97.8492 77.952 99.0049 78.2424 100.161 78.8232C103.05 80.0816 105.072 83.0825 105.072 86.5674Z" fill="#74849B"/>
<path d="M102.665 84.825C102.665 89.5683 98.8123 93.4404 94.0932 93.4404C92.7448 93.4404 91.5892 93.15 90.4335 92.666C88.8925 91.1171 87.9294 88.9875 87.9294 86.5674C87.9294 81.8241 91.7818 77.952 96.5009 77.952C97.8492 77.952 99.0049 78.2424 100.161 78.8232C101.702 80.2752 102.665 82.4049 102.665 84.825Z" fill="#A7AEC0"/>
<path d="M56.4367 82.6953C57.8729 82.6953 59.0371 81.5251 59.0371 80.0816C59.0371 78.6381 57.8729 77.468 56.4367 77.468C55.0006 77.468 53.8364 78.6381 53.8364 80.0816C53.8364 81.5251 55.0006 82.6953 56.4367 82.6953Z" fill="#C5D0E2"/>
<path d="M26.4848 80.0817C27.921 80.0817 29.0852 78.9115 29.0852 77.468C29.0852 76.0245 27.921 74.8543 26.4848 74.8543C25.0487 74.8543 23.8845 76.0245 23.8845 77.468C23.8845 78.9115 25.0487 80.0817 26.4848 80.0817Z" fill="#C5D0E2"/>
<path d="M17.1428 88.0195C18.1534 88.0195 18.9727 87.1961 18.9727 86.1803C18.9727 85.1645 18.1534 84.341 17.1428 84.341C16.1322 84.341 15.313 85.1645 15.313 86.1803C15.313 87.1961 16.1322 88.0195 17.1428 88.0195Z" fill="#C5D0E2"/>
<path d="M21.2841 81.7273C21.816 81.7273 22.2472 81.2939 22.2472 80.7592C22.2472 80.2246 21.816 79.7912 21.2841 79.7912C20.7522 79.7912 20.321 80.2246 20.321 80.7592C20.321 81.2939 20.7522 81.7273 21.2841 81.7273Z" fill="url(#paint6_linear)"/>
<path d="M61.3482 73.8863C61.8269 73.8863 62.215 73.4963 62.215 73.0151C62.215 72.5339 61.8269 72.1439 61.3482 72.1439C60.8695 72.1439 60.4814 72.5339 60.4814 73.0151C60.4814 73.4963 60.8695 73.8863 61.3482 73.8863Z" fill="url(#paint7_linear)"/>
<path d="M119.133 76.6936C119.612 76.6936 120 76.3035 120 75.8223C120 75.3412 119.612 74.9511 119.133 74.9511C118.655 74.9511 118.267 75.3412 118.267 75.8223C118.267 76.3035 118.655 76.6936 119.133 76.6936Z" fill="url(#paint8_linear)"/>
<path d="M95.6341 86.6643C96.0064 86.6643 96.3083 86.3609 96.3083 85.9866C96.3083 85.6124 96.0064 85.309 95.6341 85.309C95.2618 85.309 94.96 85.6124 94.96 85.9866C94.96 86.3609 95.2618 86.6643 95.6341 86.6643Z" fill="url(#paint9_linear)"/>
<defs>
<linearGradient id="paint0_linear" x1="7.63323" y1="72.4301" x2="8.84806" y2="72.4301" gradientUnits="userSpaceOnUse">
<stop stop-color="#FF66A9"/>
<stop offset="1" stop-color="#F53689"/>
</linearGradient>
<linearGradient id="paint1_linear" x1="114.413" y1="66.1694" x2="113.145" y2="65.3466" gradientUnits="userSpaceOnUse">
<stop stop-color="#83A6FF"/>
<stop offset="1" stop-color="#5A78FF"/>
</linearGradient>
<linearGradient id="paint2_linear" x1="18.2569" y1="38.8533" x2="100.216" y2="38.8533" gradientUnits="userSpaceOnUse">
<stop stop-color="#6F88FF"/>
<stop offset="1" stop-color="#6E88FF" stop-opacity="0"/>
</linearGradient>
<linearGradient id="paint3_linear" x1="57.9312" y1="42.5612" x2="63.1132" y2="42.5612" gradientUnits="userSpaceOnUse">
<stop stop-color="#FF66A9"/>
<stop offset="1" stop-color="#F53689"/>
</linearGradient>
<linearGradient id="paint4_linear" x1="65.6824" y1="40.9787" x2="68.6798" y2="40.9787" gradientUnits="userSpaceOnUse">
<stop stop-color="#FF66A9"/>
<stop offset="1" stop-color="#F53689"/>
</linearGradient>
<linearGradient id="paint5_linear" x1="52.48" y1="40.9787" x2="55.4773" y2="40.9787" gradientUnits="userSpaceOnUse">
<stop stop-color="#FF66A9"/>
<stop offset="1" stop-color="#F53689"/>
</linearGradient>
<linearGradient id="paint6_linear" x1="20.267" y1="80.7322" x2="22.2678" y2="80.7322" gradientUnits="userSpaceOnUse">
<stop stop-color="#83A6FF"/>
<stop offset="1" stop-color="#5A78FF"/>
</linearGradient>
<linearGradient id="paint7_linear" x1="60.5176" y1="72.9853" x2="62.2604" y2="72.9853" gradientUnits="userSpaceOnUse">
<stop stop-color="#FF66A9"/>
<stop offset="1" stop-color="#F53689"/>
</linearGradient>
<linearGradient id="paint8_linear" x1="118.222" y1="75.8495" x2="119.965" y2="75.8495" gradientUnits="userSpaceOnUse">
<stop stop-color="#FF66A9"/>
<stop offset="1" stop-color="#F53689"/>
</linearGradient>
<linearGradient id="paint9_linear" x1="94.9876" y1="85.951" x2="96.2602" y2="85.951" gradientUnits="userSpaceOnUse">
<stop stop-color="#83A6FF"/>
<stop offset="1" stop-color="#5A78FF"/>
</linearGradient>
</defs>
</svg>
