<svg width="120" height="109" viewBox="0 0 120 109" fill="none" xmlns="http://www.w3.org/2000/svg">
<path d="M59.1467 107.452C84.0462 107.452 104.231 87.1384 104.231 62.08C104.231 37.0216 84.0462 16.7078 59.1467 16.7078C34.2471 16.7078 14.062 37.0216 14.062 62.08C14.062 87.1384 34.2471 107.452 59.1467 107.452Z" fill="#2A2E39"/>
<path d="M14.7876 107.544H107.406" stroke="#2B323C" stroke-width="2" stroke-miterlimit="10" stroke-linecap="round" stroke-linejoin="round"/>
<path d="M81.2808 106.813C74.3865 106.996 66.1316 106.813 60.3259 106.722C54.5203 106.904 46.2653 106.996 39.3711 106.813C46.1746 102.888 48.5332 95.6755 48.896 90.9283H71.6651C72.2094 95.5842 74.568 102.888 81.2808 106.813Z" fill="url(#paint0_linear)"/>
<path d="M103.415 30.4016V90.1067C103.415 91.5674 102.235 92.6629 100.875 92.6629H20.2304C18.8697 92.6629 17.6904 91.4761 17.6904 90.1067V30.4016C17.6904 29.0322 18.8697 27.8454 20.2304 27.8454H100.875C102.326 27.8454 103.415 29.0322 103.415 30.4016Z" fill="#353B4A"/>
<path d="M103.415 30.4016V81.7991H17.6904V30.4016C17.6904 29.0322 18.8697 27.8454 20.2304 27.8454H100.875C102.326 27.8454 103.415 29.0322 103.415 30.4016Z" fill="#262A31"/>
<path d="M100.149 31.132H20.5933V78.9691H100.149V31.132Z" fill="#474E61"/>
<path d="M60.4165 89.6502C61.5688 89.6502 62.5029 88.7102 62.5029 87.5505C62.5029 86.3909 61.5688 85.4508 60.4165 85.4508C59.2642 85.4508 58.3301 86.3909 58.3301 87.5505C58.3301 88.7102 59.2642 89.6502 60.4165 89.6502Z" fill="#262A31"/>
<path d="M29.3639 25.9169C30.555 25.5273 31.2067 24.2397 30.8196 23.041C30.4324 21.8423 29.153 21.1864 27.9619 21.576C26.7708 21.9656 26.119 23.2532 26.5062 24.4519C26.8933 25.6506 28.1727 26.3065 29.3639 25.9169Z" fill="#2A2E39"/>
<path d="M34.3144 18.4702C35.1244 18.2053 35.5676 17.3297 35.3043 16.5146C35.0411 15.6995 34.1711 15.2535 33.3611 15.5184C32.5511 15.7833 32.1079 16.6589 32.3712 17.474C32.6345 18.2892 33.5045 18.7352 34.3144 18.4702Z" fill="#2A2E39"/>
<path d="M117.455 49.2364C118.861 47.9439 118.959 45.7495 117.674 44.3352C116.39 42.9209 114.21 42.8221 112.804 44.1146C111.399 45.4071 111.301 47.6014 112.585 49.0157C113.869 50.4301 116.05 50.5289 117.455 49.2364Z" fill="#2A2E39"/>
<path d="M117.716 33.6837C118.307 33.1395 118.349 32.2156 117.808 31.6201C117.267 31.0246 116.349 30.983 115.757 31.5272C115.166 32.0714 115.124 32.9953 115.665 33.5908C116.206 34.1864 117.124 34.2279 117.716 33.6837Z" fill="#2A2E39"/>
<path d="M101.691 20.1769C102.493 20.1769 103.143 19.5229 103.143 18.7162C103.143 17.9095 102.493 17.2556 101.691 17.2556C100.89 17.2556 100.24 17.9095 100.24 18.7162C100.24 19.5229 100.89 20.1769 101.691 20.1769Z" fill="url(#paint1_linear)"/>
<path d="M95.5226 39.896V46.0126C95.5226 46.9255 94.7969 47.6558 93.8898 47.6558H26.7617C25.8546 47.6558 25.1289 46.9255 25.1289 46.0126V39.896C25.1289 38.9831 25.8546 38.2527 26.7617 38.2527H93.8898C94.7969 38.2527 95.5226 38.9831 95.5226 39.896Z" fill="#343B4F"/>
<path d="M34.563 38.2527V47.7471H26.6709C25.7638 47.7471 25.0381 47.0168 25.0381 46.1039V39.9873C25.0381 39.0744 25.7638 38.344 26.6709 38.344H34.563V38.2527Z" fill="#2C3242"/>
<path d="M95.5226 52.6769V58.7935C95.5226 59.7064 94.7969 60.4367 93.8898 60.4367H26.7617C25.8546 60.4367 25.1289 59.7064 25.1289 58.7935V52.6769C25.1289 51.764 25.8546 51.0336 26.7617 51.0336H93.8898C94.7969 51.0336 95.5226 51.764 95.5226 52.6769Z" fill="#343B4F"/>
<path d="M34.563 51.0336V60.528H26.6709C25.7638 60.528 25.0381 59.7977 25.0381 58.8848V52.7682C25.0381 51.8553 25.7638 51.1249 26.6709 51.1249H34.563V51.0336Z" fill="#6B84FF"/>
<path d="M29.4831 57.7893C29.3017 57.7893 29.1203 57.698 29.0295 57.6067L27.5781 56.146C27.306 55.8722 27.306 55.4157 27.5781 55.1418C27.8503 54.8679 28.3038 54.8679 28.576 55.1418L29.4831 56.0547L31.6602 53.8637C31.9324 53.5899 32.3859 53.5899 32.6581 53.8637C32.9302 54.1376 32.9302 54.5941 32.6581 54.8679L29.9367 57.5154C29.846 57.698 29.6645 57.7893 29.4831 57.7893Z" fill="white"/>
<path d="M95.5226 65.4578V71.5744C95.5226 72.4873 94.7969 73.2177 93.8898 73.2177H26.7617C25.8546 73.2177 25.1289 72.4873 25.1289 71.5744V65.4578C25.1289 64.5449 25.8546 63.8146 26.7617 63.8146H93.8898C94.7969 63.8146 95.5226 64.5449 95.5226 65.4578Z" fill="#343B4F"/>
<path d="M34.563 63.8146V73.309H26.6709C25.7638 73.309 25.0381 72.5786 25.0381 71.6657V65.5491C25.0381 64.6362 25.7638 63.9059 26.6709 63.9059H34.563V63.8146Z" fill="#2C3242"/>
<path d="M95.5225 78.2387V78.9691H25.0381V78.2387C25.0381 77.3258 25.7638 76.5955 26.6709 76.5955H93.799C94.7968 76.5955 95.5225 77.3258 95.5225 78.2387Z" fill="#343B4F"/>
<path d="M34.563 76.5955V78.9691H25.0381V78.2387C25.0381 77.3258 25.7638 76.5955 26.6709 76.5955H34.563Z" fill="#2C3242"/>
<path d="M21.1375 59.889C22.861 59.889 24.2217 61.2584 24.2217 62.9929V103.435C24.2217 105.17 22.861 106.539 21.1375 106.539H3.90189C2.17833 106.539 0.817627 105.17 0.817627 103.435V63.0842C0.817627 61.3497 2.17833 59.9803 3.90189 59.9803H21.1375V59.889Z" fill="#262A31"/>
<path d="M22.6796 63.0842V103.527C22.6796 104.348 22.0446 105.079 21.1375 105.079H21.0468H3.90189H3.81117C2.99475 105.079 2.26904 104.348 2.26904 103.527V63.0842C2.26904 62.1713 2.99475 61.5323 3.81117 61.5323H6.35115C6.71401 61.5323 6.98615 61.8061 6.98615 62.1713C6.98615 62.8103 7.53043 63.3581 8.16543 63.3581H16.8739C17.5089 63.3581 18.0532 62.8103 18.0532 62.1713C18.0532 61.8061 18.3253 61.5323 18.5975 61.5323H21.0468C21.9539 61.441 22.6796 62.1713 22.6796 63.0842Z" fill="#474E61"/>
<path d="M13.971 62.08H11.7032C11.5218 62.08 11.3403 61.8974 11.3403 61.7148C11.3403 61.5323 11.5218 61.3497 11.7032 61.3497H13.971C14.1525 61.3497 14.3339 61.5323 14.3339 61.7148C14.3339 61.8974 14.1525 62.08 13.971 62.08Z" fill="#353B4A"/>
<path d="M10.4334 62.08H10.252C10.0706 62.08 9.88916 61.8974 9.88916 61.7148C9.88916 61.5323 10.0706 61.3497 10.252 61.3497H10.4334C10.6149 61.3497 10.7963 61.5323 10.7963 61.7148C10.7963 61.8974 10.6149 62.08 10.4334 62.08Z" fill="#353B4A"/>
<path d="M20.321 76.5042H4.71828C4.26471 76.5042 3.90186 76.139 3.90186 75.6825V67.8314C3.90186 67.3749 4.26471 67.0098 4.71828 67.0098H20.4117C20.8653 67.0098 21.2281 67.3749 21.2281 67.8314V75.6825C21.1374 76.139 20.7746 76.5042 20.321 76.5042Z" fill="#6B84FF"/>
<path d="M11.8845 73.7654C11.7031 73.7654 11.5216 73.6741 11.4309 73.5828L9.9795 72.1222C9.70736 71.8483 9.70736 71.3918 9.9795 71.118C10.2516 70.8441 10.7052 70.8441 10.9773 71.118L11.8845 72.0309L14.0616 69.8399C14.3337 69.566 14.7873 69.566 15.0595 69.8399C15.3316 70.1137 15.3316 70.5702 15.0595 70.8441L12.4288 73.4916C12.2473 73.6741 12.0659 73.7654 11.8845 73.7654Z" fill="white"/>
<path d="M20.321 88.2809H4.71828C4.26471 88.2809 3.90186 87.9157 3.90186 87.4593V79.6081C3.90186 79.1517 4.26471 78.7865 4.71828 78.7865H20.4117C20.8653 78.7865 21.2281 79.1517 21.2281 79.6081V87.4593C21.1374 87.9157 20.7746 88.2809 20.321 88.2809Z" fill="#343B4F"/>
<path d="M20.321 100.149H4.71828C4.26471 100.149 3.90186 99.7837 3.90186 99.3272V91.4761C3.90186 91.0196 4.26471 90.6545 4.71828 90.6545H20.4117C20.8653 90.6545 21.2281 91.0196 21.2281 91.4761V99.3272C21.1374 99.7837 20.7746 100.149 20.321 100.149Z" fill="#343B4F"/>
<path d="M21.1376 103.435V105.079H21.0469H3.90199H3.81128V103.435C3.81128 102.979 4.17413 102.614 4.6277 102.614H20.3212C20.7747 102.614 21.1376 102.979 21.1376 103.435Z" fill="#343B4F"/>
<path d="M23.9496 34.7836C24.4506 34.7836 24.8568 34.3749 24.8568 33.8707C24.8568 33.3665 24.4506 32.9578 23.9496 32.9578C23.4486 32.9578 23.0425 33.3665 23.0425 33.8707C23.0425 34.3749 23.4486 34.7836 23.9496 34.7836Z" fill="#E3EAF2"/>
<path d="M26.8524 34.7836C27.3534 34.7836 27.7596 34.3749 27.7596 33.8707C27.7596 33.3665 27.3534 32.9578 26.8524 32.9578C26.3515 32.9578 25.9453 33.3665 25.9453 33.8707C25.9453 34.3749 26.3515 34.7836 26.8524 34.7836Z" fill="#E3EAF2"/>
<path d="M29.7553 34.7836C30.2563 34.7836 30.6624 34.3749 30.6624 33.8707C30.6624 33.3665 30.2563 32.9578 29.7553 32.9578C29.2543 32.9578 28.8481 33.3665 28.8481 33.8707C28.8481 34.3749 29.2543 34.7836 29.7553 34.7836Z" fill="#E3EAF2"/>
<path d="M117.669 85.2775C117.579 85.5514 117.579 85.9166 117.488 86.1904C117.216 87.1947 116.944 88.1076 116.49 88.9292C114.404 93.5851 110.413 97.0541 105.605 98.4235C105.333 98.5148 105.06 98.6063 104.879 98.6063C102.43 99.2453 99.799 99.3363 97.1683 98.7886C87.8248 96.8715 81.7469 87.56 83.7426 78.1569C85.6476 68.7538 94.9005 62.637 104.244 64.6454C107.6 65.3757 110.594 67.0192 112.952 69.3928C117.125 73.5009 118.939 79.5261 117.669 85.2775Z" fill="url(#paint2_linear)"/>
<path d="M116.478 88.9199C114.391 93.5758 110.4 97.0449 105.592 98.4143L94 86.7709L96.8834 86.5463L103.143 85.816L104 76.5L116.478 88.9199Z" fill="url(#paint3_linear)"/>
<path d="M93.6714 85.9584C93.6714 84.9542 94.7599 85.4106 95.3949 83.2196C96.1206 80.5722 95.0321 78.016 97.8442 75.825C98.0256 75.6424 98.2978 75.5511 98.5699 75.3685C98.6606 75.2772 98.7513 75.1859 98.7513 75.0946C98.6606 74.0904 99.3863 73.1775 100.384 73.0862C101.382 72.9949 102.289 73.7252 102.38 74.7295C102.38 74.8207 102.38 74.912 102.38 74.912C102.38 75.0946 102.471 75.1859 102.561 75.2772C104.557 76.2814 105.373 78.016 105.464 80.207C105.827 85.1368 106.916 84.4064 107.551 85.2281C108.095 86.0497 107.278 86.9626 106.19 86.9626C95.3949 87.3278 93.6714 87.3278 93.6714 85.9584Z" fill="url(#paint4_linear)"/>
<path d="M99.9307 90.1578C99.0236 89.7927 98.57 88.7885 98.9329 87.9668C98.9329 87.8755 99.0236 87.7842 99.205 87.7842C100.203 87.7842 101.11 87.7842 102.108 87.7842C102.199 87.7842 102.38 87.8755 102.38 87.9668C102.652 88.6059 102.38 89.4275 101.926 89.884C101.382 90.3404 100.566 90.4317 99.9307 90.1578Z" fill="url(#paint5_linear)"/>
<path d="M21.8633 16.16C21.954 19.1727 19.5047 21.7288 16.5112 21.8201H15.0597L11.0683 21.9114C5.08125 22.0027 0.182714 17.2555 0.00128667 11.1389C-0.0894269 5.11366 4.62768 0.183879 10.6148 0.00129488C16.6019 -0.0899973 21.5911 4.6572 21.7725 10.6825L21.8633 12.9648V16.16Z" fill="url(#paint6_linear)"/>
<path d="M21.8631 16.16C21.9538 19.1727 19.5046 21.7289 16.511 21.8202H15.0596L7.62109 14.3342L13.971 8.58278L16.1482 7.30469L21.7724 12.9648L21.8631 16.16Z" fill="url(#paint7_linear)"/>
<path d="M9.43544 15.521C9.07258 15.521 8.70973 15.4297 8.43759 15.1558L5.80689 12.5083C5.26261 11.9606 5.26261 11.1389 5.80689 10.5912C6.35117 10.0434 7.1676 10.0434 7.71188 10.5912L9.34472 12.2345L14.2433 7.30467C14.7875 6.75692 15.604 6.75692 16.1482 7.30467C16.6925 7.85243 16.6925 8.67406 16.1482 9.22181L10.3426 15.0645C10.0704 15.3384 9.70758 15.521 9.43544 15.521Z" fill="url(#paint8_linear)"/>
<path d="M9.16333 51.9466V50.1207" stroke="#83A0FF" stroke-linecap="round" stroke-linejoin="round"/>
<path d="M9.16333 46.8342V34.9662" stroke="#83A0FF" stroke-linecap="round" stroke-linejoin="round" stroke-dasharray="3.7 3.7"/>
<path d="M9.16333 33.323V31.4971" stroke="#83A0FF" stroke-linecap="round" stroke-linejoin="round"/>
<path d="M9.07272 56.6024C9.77412 56.6024 10.3427 56.0302 10.3427 55.3244C10.3427 54.6185 9.77412 54.0463 9.07272 54.0463C8.37133 54.0463 7.80273 54.6185 7.80273 55.3244C7.80273 56.0302 8.37133 56.6024 9.07272 56.6024Z" stroke="#83A0FF" stroke-miterlimit="10"/>
<path d="M9.07272 29.2148C9.77412 29.2148 10.3427 28.6426 10.3427 27.9367C10.3427 27.2309 9.77412 26.6586 9.07272 26.6586C8.37133 26.6586 7.80273 27.2309 7.80273 27.9367C7.80273 28.6426 8.37133 29.2148 9.07272 29.2148Z" stroke="#83A0FF" stroke-miterlimit="10"/>
<path d="M28.3042 10.8651H30.1185" stroke="#83A0FF" stroke-linecap="round" stroke-linejoin="round"/>
<path d="M33.7471 10.8651H55.609C58.784 10.8651 61.324 13.4212 61.324 16.6165V49.4817" stroke="#83A0FF" stroke-linecap="round" stroke-linejoin="round" stroke-dasharray="3.99 3.99"/>
<path d="M61.2334 51.2162V53.0421" stroke="#83A0FF" stroke-linecap="round" stroke-linejoin="round"/>
<path d="M25.4919 11.9605C26.0931 11.9605 26.5804 11.4701 26.5804 10.865C26.5804 10.26 26.0931 9.76953 25.4919 9.76953C24.8907 9.76953 24.4033 10.26 24.4033 10.865C24.4033 11.4701 24.8907 11.9605 25.4919 11.9605Z" stroke="#83A0FF" stroke-miterlimit="10"/>
<path d="M61.3239 56.9676C61.9251 56.9676 62.4125 56.4772 62.4125 55.8721C62.4125 55.2671 61.9251 54.7766 61.3239 54.7766C60.7227 54.7766 60.2354 55.2671 60.2354 55.8721C60.2354 56.4772 60.7227 56.9676 61.3239 56.9676Z" stroke="#83A0FF" stroke-miterlimit="10"/>
<defs>
<linearGradient id="paint0_linear" x1="60.2365" y1="106.501" x2="60.2365" y2="92.2158" gradientUnits="userSpaceOnUse">
<stop stop-color="#474755"/>
<stop offset="0.9913" stop-color="#2F3338"/>
</linearGradient>
<linearGradient id="paint1_linear" x1="100.286" y1="18.6919" x2="103.102" y2="18.6919" gradientUnits="userSpaceOnUse">
<stop stop-color="#FF66A9"/>
<stop offset="1" stop-color="#F53689"/>
</linearGradient>
<linearGradient id="paint2_linear" x1="83.3648" y1="81.6922" x2="118.066" y2="81.6922" gradientUnits="userSpaceOnUse">
<stop stop-color="#FF66A9"/>
<stop offset="1" stop-color="#F53689"/>
</linearGradient>
<linearGradient id="paint3_linear" x1="101.769" y1="84.2707" x2="109.215" y2="91.6694" gradientUnits="userSpaceOnUse">
<stop stop-color="#E81778"/>
<stop offset="1" stop-color="#E01F79" stop-opacity="0"/>
</linearGradient>
<linearGradient id="paint4_linear" x1="106.205" y1="88.4717" x2="96.3079" y2="78.6371" gradientUnits="userSpaceOnUse">
<stop offset="0.0113208" stop-color="#FFC9E3"/>
<stop offset="1" stop-color="white"/>
</linearGradient>
<linearGradient id="paint5_linear" x1="103.359" y1="91.3367" x2="93.4612" y2="81.5021" gradientUnits="userSpaceOnUse">
<stop offset="0.0113208" stop-color="#FFC9E3"/>
<stop offset="1" stop-color="white"/>
</linearGradient>
<linearGradient id="paint6_linear" x1="0.00128667" y1="10.9387" x2="21.8537" y2="10.9387" gradientUnits="userSpaceOnUse">
<stop stop-color="#83A6FF"/>
<stop offset="1" stop-color="#5A78FF"/>
</linearGradient>
<linearGradient id="paint7_linear" x1="11.7372" y1="10.6559" x2="17.2958" y2="16.1793" gradientUnits="userSpaceOnUse">
<stop stop-color="#4F6AFF"/>
<stop offset="1" stop-color="#657EFF" stop-opacity="0"/>
</linearGradient>
<linearGradient id="paint8_linear" x1="13.4136" y1="12.3467" x2="10.9044" y2="9.85344" gradientUnits="userSpaceOnUse">
<stop offset="0.0113208" stop-color="#C2D1FF"/>
<stop offset="1" stop-color="white"/>
</linearGradient>
</defs>
</svg>
