<svg width="125" height="119" viewBox="0 0 125 119" fill="none" xmlns="http://www.w3.org/2000/svg">
<path d="M18.8466 24.1245C20.011 23.7439 20.6481 22.4859 20.2696 21.3147C19.8912 20.1436 18.6404 19.5027 17.476 19.8834C16.3116 20.264 15.6745 21.522 16.0529 22.6932C16.4314 23.8644 17.6821 24.5052 18.8466 24.1245Z" fill="#2A2E37"/>
<path d="M23.6859 16.8492C24.4777 16.5903 24.911 15.7349 24.6536 14.9385C24.3963 14.1421 23.5458 13.7063 22.754 13.9652C21.9622 14.224 21.5289 15.0795 21.7863 15.8759C22.0436 16.6722 22.8942 17.108 23.6859 16.8492Z" fill="#2A2E37"/>
<path d="M113.568 31.676C114.942 30.4132 115.038 28.2694 113.782 26.8876C112.527 25.5057 110.395 25.4092 109.021 26.672C107.647 27.9348 107.551 30.0786 108.807 31.4604C110.062 32.8423 112.194 32.9388 113.568 31.676Z" fill="#2A2E37"/>
<path d="M113.822 16.481C114.401 15.9493 114.441 15.0466 113.913 14.4648C113.384 13.883 112.486 13.8424 111.908 14.374C111.33 14.9057 111.289 15.8084 111.818 16.3902C112.346 16.9721 113.244 17.0127 113.822 16.481Z" fill="#2A2E37"/>
<path d="M63.1264 97.2918C87.4675 97.2918 107.2 77.4451 107.2 52.9629C107.2 28.4807 87.4675 8.63391 63.1264 8.63391C38.7853 8.63391 19.053 28.4807 19.053 52.9629C19.053 77.4451 38.7853 97.2918 63.1264 97.2918Z" fill="#2A2E37"/>
<path d="M39.6262 34.4107V39.2271V77.7585C39.6262 79.5424 41.0451 80.9695 42.73 80.9695H104.805C106.579 80.9695 107.909 79.5424 107.909 77.7585V39.2271V34.5891C107.909 32.716 106.401 31.1998 104.539 31.1998H42.73L39.6262 34.4107Z" fill="#3D4457"/>
<g filter="url(#filter0_d)">
<path d="M22.0679 30.1294V35.8378V81.3262C22.0679 83.3777 23.7528 85.0723 25.7924 85.0723H99.1299C101.17 85.0723 102.854 83.3777 102.854 81.3262V35.8378V30.3078C102.854 28.078 101.081 26.3833 98.9525 26.3833H25.7924L22.0679 30.1294Z" fill="#474E61"/>
</g>
<path d="M78.8224 34.0539H22.0679V30.1294C22.0679 28.078 23.7528 26.3833 25.7924 26.3833H99.1299C101.17 26.3833 102.854 28.078 102.854 30.1294V34.0539H90.3507H78.8224Z" fill="url(#paint0_linear)"/>
<path d="M26.8565 31.6457C27.5422 31.6457 28.098 31.0867 28.098 30.397C28.098 29.7074 27.5422 29.1483 26.8565 29.1483C26.1708 29.1483 25.615 29.7074 25.615 30.397C25.615 31.0867 26.1708 31.6457 26.8565 31.6457Z" fill="white"/>
<path opacity="0.6" d="M30.4036 31.6457C31.0893 31.6457 31.6451 31.0867 31.6451 30.397C31.6451 29.7074 31.0893 29.1483 30.4036 29.1483C29.7179 29.1483 29.1621 29.7074 29.1621 30.397C29.1621 31.0867 29.7179 31.6457 30.4036 31.6457Z" fill="white"/>
<path opacity="0.4" d="M34.0396 31.6457C34.7253 31.6457 35.2811 31.0867 35.2811 30.397C35.2811 29.7074 34.7253 29.1483 34.0396 29.1483C33.3539 29.1483 32.7981 29.7074 32.7981 30.397C32.7981 31.0867 33.3539 31.6457 34.0396 31.6457Z" fill="white"/>
<path d="M59.0469 56.0846L44.5922 55.9954C43.9715 55.9954 43.5281 55.4602 43.5281 54.9251C43.5281 54.3007 44.0602 53.8547 44.5922 53.8547L59.0469 53.9439C59.6676 53.9439 60.111 54.4791 60.111 55.0142C60.111 55.5494 59.6676 56.0846 59.0469 56.0846Z" fill="#242B37"/>
<path d="M93.3657 56.0846L76.694 55.9954C76.0733 55.9954 75.6299 55.4602 75.6299 54.9251C75.6299 54.3007 76.162 53.8547 76.694 53.8547L93.277 53.9439C93.8978 53.9439 94.3411 54.4791 94.3411 55.0142C94.4298 55.5494 93.9864 56.0846 93.3657 56.0846Z" fill="#242B37"/>
<path d="M82.2807 77.045L65.6091 76.9558C64.9883 76.9558 64.5449 76.4207 64.5449 75.8855C64.5449 75.2611 65.077 74.8152 65.6091 74.8152L82.2807 74.9044C82.9015 74.9044 83.3449 75.4395 83.3449 75.9747C83.3449 76.599 82.8128 77.045 82.2807 77.045Z" fill="url(#paint1_linear)"/>
<path d="M71.994 55.9955L63.9243 55.9063C63.3035 55.9063 62.8601 55.3711 62.8601 54.8359C62.8601 54.2116 63.3922 53.7656 63.9243 53.7656L71.994 53.8548C72.6148 53.8548 73.0582 54.39 73.0582 54.9251C73.1469 55.5495 72.6148 55.9955 71.994 55.9955Z" fill="url(#paint2_linear)"/>
<path d="M38.8281 55.9063H32.8867C32.2659 55.9063 31.8225 55.3711 31.8225 54.8359C31.8225 54.2116 32.2659 53.7656 32.8867 53.7656H38.8281C39.4489 53.7656 39.8923 54.3008 39.8923 54.8359C39.8923 55.4603 39.4489 55.9063 38.8281 55.9063Z" fill="url(#paint3_linear)"/>
<path d="M61.8846 63.0417L53.194 62.9525C52.5733 62.9525 52.1299 62.4174 52.1299 61.8822C52.1299 61.2579 52.662 60.8119 53.194 60.8119L61.8846 60.9011C62.5053 60.9011 62.9487 61.4362 62.9487 61.9714C63.0374 62.5066 62.5053 63.0417 61.8846 63.0417Z" fill="url(#paint4_linear)"/>
<path d="M88.843 63.2201L66.7619 62.9525C66.1411 62.9525 65.6978 62.4174 65.6978 61.8822C65.6978 61.2579 66.2298 60.8119 66.7619 60.8119L88.843 61.0795C89.4637 61.0795 89.9071 61.6146 89.9071 62.1498C89.9071 62.6849 89.375 63.2201 88.843 63.2201Z" fill="#242B37"/>
<path d="M47.43 62.9525H32.8867C32.2659 62.9525 31.8225 62.4174 31.8225 61.8822C31.8225 61.2579 32.3546 60.8119 32.8867 60.8119H47.43C48.0508 60.8119 48.4942 61.3471 48.4942 61.8822C48.4942 62.4174 48.0508 62.9525 47.43 62.9525Z" fill="#242B37"/>
<path d="M73.3242 69.9987L53.194 69.9096C52.5733 69.9096 52.1299 69.3744 52.1299 68.8392C52.1299 68.2149 52.662 67.7689 53.194 67.7689L73.4128 67.8581C74.0336 67.8581 74.477 68.3933 74.477 68.9284C74.477 69.5528 73.9449 69.9987 73.3242 69.9987Z" fill="url(#paint5_linear)"/>
<path d="M47.43 69.9096H32.8867C32.2659 69.9096 31.8225 69.3744 31.8225 68.8392C31.8225 68.2149 32.3546 67.7689 32.8867 67.7689H47.43C48.0508 67.7689 48.4942 68.3041 48.4942 68.8392C48.4942 69.3744 48.0508 69.9096 47.43 69.9096Z" fill="#242B37"/>
<path d="M60.0223 76.9558L48.9374 76.8666C48.3167 76.8666 47.8733 76.3314 47.8733 75.7963C47.8733 75.1719 48.4054 74.726 48.9374 74.726L60.0223 74.8151C60.6431 74.8151 61.0865 75.3503 61.0865 75.8855C61.0865 76.5098 60.6431 76.9558 60.0223 76.9558Z" fill="#242B37"/>
<path d="M41.8432 76.8666H32.8867C32.2659 76.8666 31.8225 76.3314 31.8225 75.7963C31.8225 75.1719 32.3546 74.726 32.8867 74.726H41.8432C42.464 74.726 42.9074 75.2611 42.9074 75.7963C42.9961 76.4206 42.464 76.8666 41.8432 76.8666Z" fill="url(#paint6_linear)"/>
<path d="M73.679 45.2923L32.8867 45.1139C32.2659 45.1139 31.8225 44.5787 31.8225 44.0436C31.8225 43.4192 32.3546 42.9733 32.8867 42.9733L73.679 43.1517C74.2997 43.1517 74.7431 43.6868 74.7431 44.222C74.7431 44.8463 74.2997 45.2923 73.679 45.2923Z" fill="#242B37"/>
<path d="M7.39433 40.5829C7.57169 40.7612 7.66037 40.9396 7.66037 41.2072C6.77358 43.7938 6.50754 43.883 7.66037 44.329C7.74905 44.329 7.83773 44.5074 7.74905 44.5965C7.48301 45.3101 7.39433 45.8453 7.12829 45.7561C2.96038 44.2398 7.21697 41.3856 5.08868 40.5829C5 40.5829 5 40.4937 5 40.4045L5.44339 39.0666C5.44339 38.9774 5.53207 38.9774 5.62075 38.9774C6.6849 39.3342 6.77358 38.5314 7.12829 37.5503C7.57169 36.1232 8.72451 35.6772 10.0547 36.1232C10.3207 36.2124 10.5868 36.3016 10.4981 36.48C10.0547 37.8179 10.1434 37.7287 9.6113 37.5503C8.28112 37.1043 8.63583 40.6721 7.39433 40.5829Z" fill="url(#paint7_linear)"/>
<path d="M121.879 40.8504C121.79 40.8504 121.79 40.9396 121.879 40.8504C122.056 41.0288 122.145 41.2072 122.145 41.4748C121.258 44.0614 120.992 44.1506 122.145 44.5965C122.233 44.5965 122.322 44.7749 122.233 44.8641C121.967 45.5777 121.879 46.1128 121.613 46.0236C117.445 44.5074 121.701 41.6532 119.573 40.8504C119.484 40.8504 119.484 40.7612 119.484 40.6721L119.928 39.3342C119.928 39.245 120.016 39.245 120.105 39.245C121.169 39.6017 121.258 38.799 121.613 37.8179C122.056 36.3908 123.209 35.9448 124.539 36.3908C124.805 36.48 125.071 36.5692 124.982 36.7476C124.539 38.0855 124.628 37.9963 124.096 37.8179C122.677 37.4611 123.12 40.9396 121.879 40.8504Z" fill="url(#paint8_linear)"/>
<path d="M70.0904 2.31902C70.0017 2.22983 70.0017 2.22983 70.0904 2.31902C69.913 2.49741 69.7357 2.67579 69.5583 2.67579C66.898 2.22983 66.7206 1.96225 66.4546 3.12176C66.4546 3.21095 66.3659 3.30014 66.1885 3.30014C65.3904 3.12176 64.947 3.21095 64.947 2.85418C65.7451 -1.60548 69.2923 2.22983 69.647 0.0891926C69.647 -5.11696e-07 69.7357 0 69.8244 0L71.1545 0.267579C71.2432 0.267579 71.2432 0.356772 71.2432 0.445965C71.0659 1.51628 71.7753 1.51628 72.9281 1.69467C74.347 1.96225 75.0564 2.94337 74.7904 4.37046C74.7017 4.63804 74.7017 4.90562 74.5244 4.90562C73.1942 4.63804 73.1942 4.81643 73.3715 4.19207C73.5489 2.5866 70.0904 3.56772 70.0904 2.31902Z" fill="url(#paint9_linear)"/>
<path d="M42.9962 8.45555C42.3755 9.0799 42.2868 10.1502 42.9075 10.7746C43.2622 11.2205 43.883 11.3989 44.5037 11.2205C44.7698 11.5773 44.7698 12.0233 44.5924 12.38L43.617 13.8071C43.5283 13.8963 43.4396 14.0747 43.4396 14.1639L42.4641 13.0936C42.7302 12.2017 42.2868 11.3097 41.4 11.0421C40.5132 10.7746 39.6264 11.2205 39.3604 12.1125C39.0943 13.0044 39.5377 13.8963 40.4245 14.1639C40.6906 14.2531 41.0453 14.2531 41.3113 14.1639L43.883 16.9289C43.617 17.8208 44.0604 18.7127 44.9471 18.9803C45.8339 19.2479 46.7207 18.8019 46.9868 17.91C46.9868 17.8208 46.9868 17.8208 47.0754 17.7316C47.0754 17.5532 47.0754 17.3749 47.0754 17.2857C46.9868 16.3937 46.1886 15.6802 45.2132 15.8586C45.1245 15.8586 45.1245 15.8586 45.0358 15.8586C44.7698 15.5018 44.6811 15.0558 44.9471 14.6991L45.9226 13.272C46.5434 12.2908 46.4547 11.0421 45.7453 10.1502C45.7453 10.061 45.7453 9.97183 45.8339 9.97183C45.8339 9.79344 45.8339 9.61506 45.8339 9.52586C45.7453 8.63393 44.9471 8.00958 44.0604 8.09878C43.5283 8.09878 43.2622 8.18797 42.9962 8.45555ZM40.5132 12.2017C40.7792 12.0233 41.0453 12.0233 41.3113 12.2017C41.4887 12.4692 41.4887 12.7368 41.3113 13.0044C41.0453 13.1828 40.7792 13.1828 40.5132 13.0044C40.2472 12.826 40.2472 12.4692 40.5132 12.2017ZM45.8339 17.1965C45.9226 17.2857 45.9226 17.3749 45.9226 17.464C45.9226 17.7316 45.6566 17.9992 45.3019 17.9992C45.0358 17.9992 44.7698 17.7316 44.7698 17.3749C44.7698 17.2857 44.8585 17.1073 44.8585 17.0181C44.9471 16.8397 45.1245 16.8397 45.3019 16.8397C45.5679 16.9289 45.7453 17.0181 45.8339 17.1965ZM43.617 9.25828C43.7943 8.99071 44.149 8.99071 44.4151 9.16909C44.5037 9.16909 44.5037 9.25829 44.5037 9.34748C44.5037 9.43667 44.5037 9.43667 44.5924 9.52586C44.5924 9.61506 44.5924 9.61506 44.5924 9.70425C44.5924 9.79344 44.5924 9.79344 44.5924 9.79344C44.5037 9.88264 44.4151 9.97183 44.3264 10.061C44.0604 10.2394 43.7056 10.061 43.617 9.79344C43.5283 9.70425 43.5283 9.43667 43.617 9.25828Z" fill="#69738D"/>
<path d="M85.6509 13.6287L84.3207 14.3423C82.9905 13.0044 80.9509 13.0044 79.6207 14.3423C78.9113 15.0558 78.5565 16.1261 78.7339 17.1964L77.315 17.8208C77.049 17.91 76.9603 18.2668 77.1377 18.4451L77.6698 19.5155C77.7584 19.783 78.1132 19.8722 78.2905 19.6938L79.6207 18.9803C80.9509 20.3182 82.9905 20.3182 84.3207 18.9803C85.0301 18.2668 85.3848 17.1964 85.2075 16.1261L86.5377 15.4126C86.8037 15.3234 86.8924 14.9666 86.715 14.7882L86.1829 13.7179C86.1829 13.6287 85.8282 13.5395 85.6509 13.6287ZM82.7245 18.1776C81.9263 18.6235 80.9509 18.2668 80.5075 17.464C80.0641 16.6613 80.4188 15.6802 81.2169 15.2342C82.015 14.7882 82.9905 15.145 83.4339 15.9477C83.7886 16.7505 83.5226 17.7316 82.7245 18.1776Z" fill="#69738D"/>
<path d="M16.9716 72.2357L15.5528 69.6491C15.0207 68.668 13.8679 68.3112 12.8924 68.8463L12.6264 68.9355L12.3603 68.4896C12.2717 68.3112 12.0943 68.3112 11.9169 68.4004C11.8283 68.4004 11.8283 68.4896 11.7396 68.5788L11.0301 70.3626C10.9415 70.541 11.0302 70.7194 11.2075 70.8086C11.2075 70.8086 11.2075 70.8086 11.2962 70.8086L13.1584 71.1654C13.3358 71.1654 13.5132 71.0762 13.5132 70.8978C13.5132 70.8086 13.5132 70.7194 13.5132 70.7194L13.2471 70.2734L13.5132 70.0951C13.7792 69.9167 14.2226 70.0059 14.3113 70.3626L15.7301 72.9492C15.4641 73.3952 15.4641 73.9304 15.7301 74.3763C16.0849 75.0899 16.883 75.2682 17.5924 74.9115C17.8584 74.7331 18.0358 74.5547 18.2132 74.2871C18.3018 74.1979 18.3018 74.0195 18.3018 73.9304C18.3905 73.1276 17.8584 72.4141 17.0603 72.3249C17.0603 72.2357 16.9716 72.2357 16.9716 72.2357ZM16.7943 74.0195C16.7056 74.0195 16.7056 74.0195 16.7943 74.0195C16.5282 73.8412 16.4396 73.5736 16.6169 73.306C16.7056 73.1276 16.883 73.0384 17.0603 73.0384C17.149 73.0384 17.3264 73.1276 17.415 73.2168C17.5924 73.3952 17.5924 73.6628 17.415 73.8412C17.149 74.1087 16.9716 74.1087 16.7943 74.0195Z" fill="#69738D"/>
<path d="M9.168 69.9166C8.54725 70.2734 8.28121 71.1653 8.63593 71.7897C8.90197 72.2357 9.34536 72.5032 9.87744 72.5032L12.3604 76.9629C12.5378 77.3197 12.8925 77.4089 13.2472 77.2305C13.6019 77.0521 13.6906 76.6953 13.5133 76.3385L11.0303 71.8789C11.2963 71.4329 11.2963 70.8978 11.0303 70.4518C10.6755 69.8274 9.78875 69.5599 9.168 69.9166ZM10.0548 71.5221C9.78875 71.6113 9.52272 71.6113 9.43404 71.3437C9.34536 71.0761 9.34536 70.8086 9.6114 70.7194C9.87743 70.6302 10.1435 70.6302 10.2322 70.8978C10.3208 71.1653 10.2321 71.4329 10.0548 71.5221Z" fill="#69738D"/>
<path d="M114.915 57.9577L115.004 57.7793C115.27 57.2441 115.27 56.709 115.004 56.1738L114.206 54.4792C114.117 54.39 114.117 54.2116 114.206 54.1224L114.472 53.498L114.915 53.7656C115.092 53.8548 115.27 53.7656 115.358 53.5872C115.358 53.498 115.358 53.4088 115.358 53.4088L115.004 51.4466C115.004 51.2682 114.826 51.179 114.649 51.179H114.56L112.787 51.9818C112.609 52.0709 112.521 52.2493 112.609 52.4277C112.609 52.5169 112.698 52.5169 112.787 52.6061L113.23 52.8737L112.964 53.498C112.875 53.5872 112.787 53.6764 112.698 53.6764L110.836 53.944C110.304 54.0332 109.772 54.39 109.594 54.8359L109.506 55.0143C108.707 55.0143 108.087 55.6387 108.087 56.4414C108.087 57.2441 108.707 57.8685 109.506 57.8685C110.304 57.8685 110.924 57.2441 110.924 56.4414C110.924 56.1738 110.836 55.9062 110.658 55.7279L110.747 55.5495C110.836 55.4603 110.924 55.3711 111.013 55.3711L112.609 55.1035C112.787 55.1035 112.964 55.1927 113.053 55.3711L113.762 56.8874C113.851 56.9766 113.851 57.1549 113.762 57.2441L113.673 57.4225C112.875 57.4225 112.255 58.1361 112.343 58.8496C112.343 59.6524 113.053 60.2767 113.762 60.1875C114.56 60.1875 115.181 59.474 115.092 58.7604C115.181 58.4928 115.092 58.2253 114.915 57.9577ZM109.328 56.9766C109.062 56.8874 108.973 56.5306 109.151 56.3522C109.24 56.0846 109.594 55.9954 109.772 56.1738C110.038 56.263 110.126 56.6198 109.949 56.7982C109.86 56.9766 109.506 57.0658 109.328 56.9766ZM113.496 59.2064C113.23 59.1172 113.141 58.7604 113.319 58.582C113.407 58.3145 113.762 58.2253 113.939 58.4037C114.117 58.582 114.294 58.8496 114.117 59.028C114.028 59.2064 113.762 59.2956 113.496 59.2064Z" fill="#69738D"/>
<path d="M111.646 83.0301C109.872 91.771 101.271 97.479 92.5801 95.606C83.8895 93.8221 78.214 85.1704 80.0763 76.4295C81.8498 67.6886 90.4517 61.9806 99.1422 63.8536C102.246 64.478 105.084 65.9942 107.301 68.3133C111.114 72.1486 112.799 77.6785 111.646 83.0301Z" fill="url(#paint10_linear)"/>
<path d="M109.86 81.3263C109.771 81.8614 109.771 82.3074 109.594 82.7534C108.353 88.5509 103.83 92.8322 98.3319 93.8133C94.3413 89.7996 88.9319 84.3588 88.9319 84.3588L90.0847 78.2045L97.0017 77.1342L102.322 73.7449L109.86 81.3263Z" fill="url(#paint11_linear)"/>
<path d="M103.741 79.9884C103.653 78.9181 103.298 77.937 102.589 77.0451C102.5 76.9559 102.5 76.7775 102.5 76.6883C102.766 75.7072 102.855 74.6368 102.323 73.7449C102.323 73.6557 102.234 73.6557 102.145 73.6557C100.992 73.5665 99.7508 74.0125 98.864 74.726C98.7754 74.8152 98.6867 74.8152 98.598 74.8152C96.9131 74.4585 95.1395 74.4585 93.4546 74.8152C93.2773 74.9044 93.0999 74.8152 92.9225 74.726C92.0358 74.0125 90.8829 73.6557 89.7301 73.7449C89.6414 73.7449 89.6414 73.7449 89.5527 73.8341C89.3754 74.1017 89.2867 74.3693 89.198 74.726C89.0207 75.4396 89.1093 76.2423 89.2867 76.9559C89.2867 77.0451 89.2867 77.1342 89.198 77.2234C88.7546 77.7586 88.3999 78.4721 88.2226 79.1857C87.8678 80.6128 87.8678 82.1291 88.3999 83.467C88.7546 84.5373 89.5527 85.34 90.5282 85.786C91.415 86.1427 92.3905 86.4103 93.3659 86.4103C94.9622 86.4995 96.5584 86.4995 98.0659 86.4995C100.638 86.4103 102.943 85.6076 103.475 83.1102C103.741 81.8615 103.83 80.9695 103.741 79.9884ZM101.081 84.1805C100.46 85.1616 99.1301 85.5184 97.9772 85.6076C96.381 85.6968 94.7848 85.6968 93.2773 85.5184C92.7452 85.4292 92.3018 85.34 91.8584 85.0724C90.8829 84.6265 90.2622 83.7345 90.1735 82.6642C90.0848 82.0399 90.2622 81.3263 90.5282 80.7912C90.9716 79.9884 91.7697 79.5425 92.5678 79.6317C93.1886 79.6317 93.8093 79.7208 94.3414 79.81C95.4056 79.9884 96.381 79.8992 97.4452 79.81C97.9772 79.7208 98.5093 79.6317 98.9527 79.6317C99.9282 79.5425 100.815 80.0776 101.17 81.0587C101.879 82.0399 101.702 83.1994 101.081 84.1805Z" fill="url(#paint12_linear)"/>
<path d="M93.3659 80.7019C92.9225 80.4343 92.3904 80.5235 92.1244 80.9695C91.5923 81.7722 91.5923 82.8425 92.1244 83.7345C92.2131 83.8237 92.3018 83.9129 92.3904 84.002C92.8338 84.2696 93.3659 84.1804 93.6319 83.7345C93.898 83.3777 94.0753 82.9317 94.0753 82.4858C94.0753 81.9506 93.9867 81.4155 93.6319 80.9695C93.5433 80.8803 93.4546 80.7911 93.3659 80.7019Z" fill="url(#paint13_linear)"/>
<path d="M99.3962 80.7019C98.9528 80.4343 98.4207 80.5235 98.1547 80.9695C97.6226 81.7722 97.6226 82.9317 98.1547 83.7345C98.2433 83.8237 98.332 83.9129 98.4207 84.002C98.8641 84.2696 99.3962 84.0912 99.6622 83.7345C99.9282 83.3777 100.106 82.8425 100.106 82.3966C100.106 81.8614 99.9282 81.4154 99.6622 81.0587C99.6622 80.8803 99.4849 80.7911 99.3962 80.7019Z" fill="url(#paint14_linear)"/>
<path d="M56.7415 92.0294C56.2094 92.1186 55.766 92.4754 55.5886 93.0106C54.1698 93.2782 53.017 92.2078 52.7509 91.6727C53.283 91.0483 53.1943 90.1564 52.5736 89.6212C51.9528 89.0861 51.066 89.1753 50.5339 89.7996C50.0019 90.424 50.0905 91.3159 50.7113 91.8511C50.8887 91.9403 51.066 92.1186 51.2434 92.1186L51.8641 95.4188C51.2434 95.9539 51.1547 96.8459 51.6868 97.4702C52.2188 98.0946 53.1056 98.1838 53.7264 97.6486C53.8151 97.6486 53.8151 97.5594 53.9037 97.5594C53.9924 97.4702 54.0811 97.381 54.1698 97.2026C54.5245 96.4891 54.2585 95.5972 53.4603 95.2404C53.3717 95.2404 53.3717 95.1512 53.283 95.1512L53.017 93.9025C53.8151 94.4377 54.7905 94.616 55.766 94.5269H55.8547C56.3868 95.1512 57.2735 95.2404 57.8943 94.7052C57.983 94.7052 57.983 94.616 57.983 94.616C58.0717 94.5269 58.1603 94.4377 58.249 94.2593C58.6037 93.5457 58.3377 92.6538 57.6283 92.297C57.3622 92.0294 57.0075 91.9402 56.7415 92.0294ZM51.5981 90.1564C51.8641 90.0672 52.1302 90.2456 52.2188 90.6024C52.3075 90.8699 52.1302 91.1375 51.7754 91.2267C51.5094 91.3159 51.2434 91.1375 51.1547 90.7807C51.1547 90.5132 51.3321 90.2456 51.5981 90.1564ZM53.017 96.9351C52.8396 97.1134 52.4849 97.0243 52.3075 96.8459C52.1302 96.6675 52.2188 96.3107 52.3962 96.1323C52.3962 96.1323 52.4849 96.0431 52.5736 96.0431C52.6622 95.9539 52.8396 96.0431 52.9283 96.0431C53.1943 96.2215 53.283 96.4891 53.1056 96.7567C53.1943 96.8459 53.1056 96.8459 53.017 96.9351ZM57.0075 93.9917C56.7415 93.9917 56.5641 93.7241 56.5641 93.4565C56.5641 93.2782 56.7415 93.0998 56.9188 93.0106C57.0075 93.0106 57.1849 93.0106 57.2735 93.0106C57.5396 93.0998 57.6283 93.4565 57.5396 93.7241C57.3622 93.9025 57.1849 93.9917 57.0075 93.9917Z" fill="#69738D"/>
<defs>
<filter id="filter0_d" x="0.0678711" y="15.3833" width="124.787" height="102.689" filterUnits="userSpaceOnUse" color-interpolation-filters="sRGB">
<feFlood flood-opacity="0" result="BackgroundImageFix"/>
<feColorMatrix in="SourceAlpha" type="matrix" values="0 0 0 0 0 0 0 0 0 0 0 0 0 0 0 0 0 0 127 0"/>
<feOffset dy="11"/>
<feGaussianBlur stdDeviation="11"/>
<feColorMatrix type="matrix" values="0 0 0 0 0 0 0 0 0 0 0 0 0 0 0 0 0 0 0.18 0"/>
<feBlend mode="normal" in2="BackgroundImageFix" result="effect1_dropShadow"/>
<feBlend mode="normal" in="SourceGraphic" in2="effect1_dropShadow" result="shape"/>
</filter>
<linearGradient id="paint0_linear" x1="21.9382" y1="30.2029" x2="102.771" y2="30.2029" gradientUnits="userSpaceOnUse">
<stop stop-color="#F2539D"/>
<stop offset="1" stop-color="#474E61"/>
</linearGradient>
<linearGradient id="paint1_linear" x1="64.5404" y1="75.9039" x2="83.345" y2="75.9039" gradientUnits="userSpaceOnUse">
<stop stop-color="#FF66A9"/>
<stop offset="1" stop-color="#F53689"/>
</linearGradient>
<linearGradient id="paint2_linear" x1="62.8703" y1="54.8904" x2="73.1149" y2="54.8904" gradientUnits="userSpaceOnUse">
<stop stop-color="#83A6FF"/>
<stop offset="1" stop-color="#5A78FF"/>
</linearGradient>
<linearGradient id="paint3_linear" x1="31.8075" y1="54.8037" x2="39.9235" y2="54.8037" gradientUnits="userSpaceOnUse">
<stop stop-color="#83A6FF"/>
<stop offset="1" stop-color="#5A78FF"/>
</linearGradient>
<linearGradient id="paint4_linear" x1="52.134" y1="61.8868" x2="63.0017" y2="61.8868" gradientUnits="userSpaceOnUse">
<stop stop-color="#FF66A9"/>
<stop offset="1" stop-color="#F53689"/>
</linearGradient>
<linearGradient id="paint5_linear" x1="52.1358" y1="68.8764" x2="74.4551" y2="68.8764" gradientUnits="userSpaceOnUse">
<stop stop-color="#83A6FF"/>
<stop offset="1" stop-color="#5A78FF"/>
</linearGradient>
<linearGradient id="paint6_linear" x1="31.8136" y1="75.7636" x2="42.9627" y2="75.7636" gradientUnits="userSpaceOnUse">
<stop stop-color="#FF66A9"/>
<stop offset="1" stop-color="#F53689"/>
</linearGradient>
<linearGradient id="paint7_linear" x1="5.13036" y1="40.86" x2="10.6416" y2="40.86" gradientUnits="userSpaceOnUse">
<stop stop-color="#FF66A9"/>
<stop offset="1" stop-color="#F53689"/>
</linearGradient>
<linearGradient id="paint8_linear" x1="119.543" y1="41.1924" x2="125.054" y2="41.1924" gradientUnits="userSpaceOnUse">
<stop stop-color="#83A6FF"/>
<stop offset="1" stop-color="#5A78FF"/>
</linearGradient>
<linearGradient id="paint9_linear" x1="64.939" y1="2.40768" x2="74.8152" y2="2.40768" gradientUnits="userSpaceOnUse">
<stop stop-color="#83A6FF"/>
<stop offset="1" stop-color="#5A78FF"/>
</linearGradient>
<linearGradient id="paint10_linear" x1="79.6865" y1="79.7698" x2="111.993" y2="79.7698" gradientUnits="userSpaceOnUse">
<stop stop-color="#83A6FF"/>
<stop offset="1" stop-color="#5A78FF"/>
</linearGradient>
<linearGradient id="paint11_linear" x1="94.5791" y1="78.0127" x2="103.877" y2="87.2567" gradientUnits="userSpaceOnUse">
<stop stop-color="#4F6AFF"/>
<stop offset="1" stop-color="#657EFF" stop-opacity="0"/>
</linearGradient>
<linearGradient id="paint12_linear" x1="102.554" y1="85.1266" x2="89.6208" y2="73.9266" gradientUnits="userSpaceOnUse">
<stop offset="0.0113208" stop-color="#C2D1FF"/>
<stop offset="1" stop-color="white"/>
</linearGradient>
<linearGradient id="paint13_linear" x1="99.7498" y1="88.3654" x2="86.8161" y2="77.1654" gradientUnits="userSpaceOnUse">
<stop offset="0.0113208" stop-color="#C2D1FF"/>
<stop offset="1" stop-color="white"/>
</linearGradient>
<linearGradient id="paint14_linear" x1="102.365" y1="85.3455" x2="89.4312" y2="74.1455" gradientUnits="userSpaceOnUse">
<stop offset="0.0113208" stop-color="#C2D1FF"/>
<stop offset="1" stop-color="white"/>
</linearGradient>
</defs>
</svg>
