<svg width="164" height="118" viewBox="0 0 164 118" fill="none" xmlns="http://www.w3.org/2000/svg">
<path d="M74.796 98C101.883 98 123.842 76.062 123.842 49C123.842 21.938 101.883 0 74.796 0C47.7087 0 25.75 21.938 25.75 49C25.75 76.062 47.7087 98 74.796 98Z" fill="#2A2E38"/>
<g filter="url(#filter0_d)">
<path d="M127.395 19.3239V81.5352C127.395 83.1127 126.112 84.3943 124.434 84.3943H24.9605C23.2829 84.3943 22 83.1127 22 81.5352V19.3239C22 17.7465 23.2829 16.4648 24.9605 16.4648H124.434C126.112 16.4648 127.395 17.7465 127.395 19.3239Z" fill="#474E61"/>
</g>
<path d="M119.895 79.1689H55.2565C53.5788 79.1689 52.1973 77.7886 52.1973 76.1126V28.4929C52.1973 26.8168 53.5788 25.4365 55.2565 25.4365H119.895C121.572 25.4365 122.954 26.8168 122.954 28.4929V76.2112C122.855 77.8872 121.572 79.1689 119.895 79.1689Z" fill="#29303C"/>
<path d="M27.0329 22.2816C27.7414 22.2816 28.3158 21.7078 28.3158 21C28.3158 20.2921 27.7414 19.7183 27.0329 19.7183C26.3244 19.7183 25.75 20.2921 25.75 21C25.75 21.7078 26.3244 22.2816 27.0329 22.2816Z" fill="#9199AE"/>
<path opacity="0.6" d="M30.6843 22.2816C31.3928 22.2816 31.9672 21.7078 31.9672 21C31.9672 20.2921 31.3928 19.7183 30.6843 19.7183C29.9757 19.7183 29.4014 20.2921 29.4014 21C29.4014 21.7078 29.9757 22.2816 30.6843 22.2816Z" fill="#9199AE"/>
<path opacity="0.4" d="M34.4343 22.2816C35.1428 22.2816 35.7172 21.7078 35.7172 21C35.7172 20.2921 35.1428 19.7183 34.4343 19.7183C33.7257 19.7183 33.1514 20.2921 33.1514 21C33.1514 21.7078 33.7257 22.2816 34.4343 22.2816Z" fill="#9199AE"/>
<path d="M93.4474 32.6338H59.1053C58.7106 32.6338 58.5132 32.338 58.5132 32.0422C58.5132 31.6479 58.8092 31.4507 59.1053 31.4507H93.4474C93.8421 31.4507 94.0395 31.7465 94.0395 32.0422C94.1382 32.338 93.8421 32.6338 93.4474 32.6338Z" fill="#474E61"/>
<path d="M93.4474 36.1831H59.1053C58.7106 36.1831 58.5132 35.8873 58.5132 35.5915C58.5132 35.1972 58.8092 35 59.1053 35H93.4474C93.8421 35 94.0395 35.2958 94.0395 35.5915C94.1382 35.8873 93.8421 36.1831 93.4474 36.1831Z" fill="#474E61"/>
<path d="M76.375 40.0282H59.1053C58.7106 40.0282 58.5132 39.7324 58.5132 39.4366C58.5132 39.0423 58.8092 38.8451 59.1053 38.8451H76.375C76.7698 38.8451 76.9671 39.1409 76.9671 39.4366C77.0658 39.7324 76.7698 40.0282 76.375 40.0282Z" fill="url(#paint0_linear)"/>
<path d="M46.671 80.0564H27.921C26.7368 80.0564 25.8486 79.1691 25.8486 77.986V27.3099C25.8486 26.1268 26.7368 25.2395 27.921 25.2395H46.671C47.8552 25.2395 48.7434 26.1268 48.7434 27.3099V77.8874C48.7434 79.0705 47.8552 80.0564 46.671 80.0564Z" fill="#1E242D"/>
<path d="M37.2961 32.2394C38.5496 32.2394 39.5658 31.2242 39.5658 29.9718C39.5658 28.7195 38.5496 27.7042 37.2961 27.7042C36.0426 27.7042 35.0264 28.7195 35.0264 29.9718C35.0264 31.2242 36.0426 32.2394 37.2961 32.2394Z" fill="#474E61"/>
<path d="M44.5986 35.0008H30.092C29.8946 35.0008 29.6973 34.8034 29.6973 34.606C29.6973 34.4087 29.8946 34.2113 30.092 34.2113H44.4999C44.6973 34.2113 44.8946 34.4087 44.8946 34.606C44.9933 34.8034 44.7959 35.0008 44.5986 35.0008Z" fill="#474E61"/>
<path d="M44.5986 37.9585H30.092C29.8946 37.9585 29.6973 37.7612 29.6973 37.5638C29.6973 37.3664 29.8946 37.1691 30.092 37.1691H44.4999C44.6973 37.1691 44.8946 37.3664 44.8946 37.5638C44.9933 37.7612 44.7959 37.9585 44.5986 37.9585Z" fill="#474E61"/>
<path d="M44.5986 43.1839H30.092C29.8946 43.1839 29.6973 42.9865 29.6973 42.7891C29.6973 42.5918 29.8946 42.3944 30.092 42.3944H44.4999C44.6973 42.3944 44.8946 42.5918 44.8946 42.7891C44.9933 42.9865 44.7959 43.1839 44.5986 43.1839Z" fill="#474E61"/>
<path d="M35.3223 46.2403H29.9933C29.8946 46.2403 29.6973 46.1416 29.6973 45.9443V45.6482C29.6973 45.5495 29.7959 45.3522 29.9933 45.3522H35.3223C35.421 45.3522 35.6183 45.4509 35.6183 45.6482V45.9443C35.6183 46.1416 35.5196 46.2403 35.3223 46.2403Z" fill="#474E61"/>
<path d="M44.5986 51.7613H30.092C29.8946 51.7613 29.6973 51.5639 29.6973 51.3665C29.6973 51.1692 29.8946 50.9718 30.092 50.9718H44.4999C44.6973 50.9718 44.8946 51.1692 44.8946 51.3665C44.9933 51.5639 44.7959 51.7613 44.5986 51.7613Z" fill="#474E61"/>
<path d="M35.3223 54.8177H29.9933C29.8946 54.8177 29.6973 54.719 29.6973 54.5217V54.2256C29.6973 54.1269 29.7959 53.9296 29.9933 53.9296H35.3223C35.421 53.9296 35.6183 54.0282 35.6183 54.2256V54.5217C35.6183 54.6204 35.5196 54.8177 35.3223 54.8177Z" fill="#474E61"/>
<path d="M44.5986 60.2402H30.092C29.8946 60.2402 29.6973 60.0428 29.6973 59.8454C29.6973 59.6481 29.8946 59.4507 30.092 59.4507H44.4999C44.6973 59.4507 44.8946 59.6481 44.8946 59.8454C44.9933 60.0428 44.7959 60.2402 44.5986 60.2402Z" fill="#474E61"/>
<path d="M35.3223 63.2966H29.9933C29.8946 63.2966 29.6973 63.1979 29.6973 63.0006V62.7045C29.6973 62.6058 29.7959 62.4084 29.9933 62.4084H35.3223C35.421 62.4084 35.6183 62.5071 35.6183 62.7045V63.0006C35.6183 63.1979 35.5196 63.2966 35.3223 63.2966Z" fill="url(#paint1_linear)"/>
<g filter="url(#filter1_d)">
<path d="M141.704 50.5774L142 73.9436C142 74.7324 141.309 75.4225 140.52 75.4225H117.724C116.934 75.4225 116.243 74.7324 116.243 73.9436V43.9718C116.243 43.1831 116.934 42.4929 117.724 42.4929H134.303L141.704 50.5774Z" fill="#474E61"/>
</g>
<path d="M127.395 70.7893H126.605C126.408 70.7893 126.309 70.5919 126.309 70.4932C126.309 70.2958 126.506 70.1971 126.605 70.1971H127.395C127.592 70.1971 127.691 70.3945 127.691 70.4932C127.789 70.5919 127.592 70.7893 127.395 70.7893Z" fill="#242B37"/>
<path d="M125.125 70.7893H120.289C120.092 70.7893 119.993 70.5919 119.993 70.4932C119.993 70.2958 120.191 70.1971 120.289 70.1971H125.125C125.322 70.1971 125.421 70.3945 125.421 70.4932C125.421 70.5919 125.322 70.7893 125.125 70.7893Z" fill="#242B37"/>
<path d="M131.441 47.4235H120.487C120.191 47.4235 119.993 47.2261 119.993 46.9301C119.993 46.634 120.191 46.4366 120.487 46.4366H131.441C131.737 46.4366 131.934 46.634 131.934 46.9301C131.836 47.2261 131.638 47.4235 131.441 47.4235Z" fill="#242B37"/>
<path d="M124.632 49.9868H120.487C120.191 49.9868 119.993 49.7895 119.993 49.4934C119.993 49.1974 120.191 49 120.487 49H124.632C124.928 49 125.125 49.1974 125.125 49.4934C125.125 49.7895 124.928 49.9868 124.632 49.9868Z" fill="#242B37"/>
<path d="M134.302 42.4929V48.9014C134.302 49.7887 135.092 50.5774 135.98 50.5774H141.704" fill="#354157"/>
<path d="M138.052 54.9155H132.329H126.408H120.881C120.289 54.9155 119.796 55.4085 119.796 56V65.9578C119.796 66.5493 120.289 67.0423 120.881 67.0423H138.052C138.645 67.0423 139.138 66.5493 139.138 65.9578V56.0986C139.237 55.4085 138.743 54.9155 138.052 54.9155ZM126.802 63.6902V61.4226H132.033V63.6902H126.802ZM132.033 64.3803V66.4507H126.802V64.3803H132.033ZM132.033 58.5634V60.831H126.802V58.5634H132.033ZM126.802 57.8733V55.6057H132.033V57.8733H126.802ZM138.546 60.831H132.724V58.5634H138.546V60.831ZM126.112 60.831H120.487V58.5634H126.112V60.831ZM120.487 61.5212H126.112V63.7888H120.487V61.5212ZM132.724 61.5212H138.546V63.7888H132.724V61.5212ZM138.546 56.0986V57.9719H132.724V55.7043H138.052C138.349 55.6057 138.546 55.8029 138.546 56.0986ZM120.881 55.6057H126.112V57.8733H120.487V56C120.487 55.8028 120.684 55.6057 120.881 55.6057ZM120.487 65.9578V64.3803H126.112V66.4507H120.881C120.684 66.4507 120.487 66.2536 120.487 65.9578ZM138.052 66.4507H132.724V64.3803H138.546V65.9578C138.546 66.2536 138.349 66.4507 138.052 66.4507Z" fill="#242B37"/>
<path d="M123.25 61.5211H111.013C110.421 61.5211 109.829 61.0282 109.829 60.338V54.8169C109.829 54.2253 110.322 53.6338 111.013 53.6338H123.25C123.842 53.6338 124.434 54.1267 124.434 54.8169V60.338C124.434 61.0282 123.842 61.5211 123.25 61.5211Z" fill="#1C3754"/>
<path d="M113.579 57.5774L112.493 55.9014H113.283L113.974 57.0845L114.664 55.9014H115.454L114.368 57.5774L115.454 59.2535H114.664L113.974 58.0704L113.283 59.2535H112.592L113.579 57.5774Z" fill="white"/>
<path d="M118.612 59.2536H116.441V55.9015H117.132V58.6621H118.612V59.2536Z" fill="white"/>
<path d="M119.994 58.3664C119.994 58.6621 120.29 58.8593 120.684 58.8593C121.079 58.8593 121.276 58.6621 121.276 58.4649C121.276 58.2678 121.079 58.1692 120.684 58.0706L120.29 57.972C119.697 57.8734 119.401 57.479 119.401 57.0847C119.401 56.4931 119.895 56.0988 120.684 56.0988C121.474 56.0988 121.967 56.4931 121.967 57.0847H121.276C121.276 56.7889 120.98 56.5917 120.684 56.5917C120.29 56.5917 120.092 56.7889 120.092 56.9861C120.092 57.1833 120.29 57.2819 120.684 57.3804L121.079 57.479C121.77 57.5776 122.066 57.8734 122.066 58.4649C122.066 59.1551 121.572 59.5495 120.684 59.5495C119.895 59.5495 119.401 59.1551 119.303 58.5635H119.994V58.3664Z" fill="white"/>
<path d="M70.5528 50.4789L70.8489 73.9437C70.8489 74.7324 70.1581 75.4225 69.3686 75.4225H46.5725C45.7831 75.4225 45.0923 74.7324 45.0923 73.9437V43.7746C45.0923 42.9859 45.7831 42.2958 46.5725 42.2958H63.1515L70.5528 50.4789Z" fill="#474E61"/>
<path d="M66.6054 66.6484H52.8883C52.691 66.6484 52.5923 66.451 52.5923 66.3523C52.5923 66.155 52.7897 66.0563 52.8883 66.0563H66.6054C66.8028 66.0563 66.9015 66.2536 66.9015 66.3523C66.9015 66.451 66.8028 66.6484 66.6054 66.6484Z" fill="#242B37"/>
<path d="M51.2106 66.6484H48.8422C48.6448 66.6484 48.5461 66.451 48.5461 66.3523C48.5461 66.155 48.7435 66.0563 48.8422 66.0563H51.2106C51.408 66.0563 51.5067 66.2536 51.5067 66.3523C51.5067 66.451 51.408 66.6484 51.2106 66.6484Z" fill="#242B37"/>
<path d="M66.5068 63.0006H60.3883C60.191 63.0006 60.0923 62.8032 60.0923 62.7045C60.0923 62.6058 60.2897 62.4084 60.3883 62.4084H66.5068C66.7041 62.4084 66.8028 62.6058 66.8028 62.7045C66.8028 62.8032 66.7041 63.0006 66.5068 63.0006Z" fill="#242B37"/>
<path d="M57.8225 63.0006H48.8422C48.6448 63.0006 48.5461 62.8032 48.5461 62.7045C48.5461 62.6058 48.7435 62.4084 48.8422 62.4084H57.8225C58.0198 62.4084 58.1185 62.6058 58.1185 62.7045C58.1185 62.8032 58.0198 63.0006 57.8225 63.0006Z" fill="#242B37"/>
<path d="M66.704 59.2541H64.3356C64.1382 59.2541 64.0396 59.0567 64.0396 58.958C64.0396 58.8594 64.2369 58.662 64.3356 58.662H66.704C66.9014 58.662 67.0001 58.8594 67.0001 58.958C67.0001 59.0567 66.9014 59.2541 66.704 59.2541Z" fill="#242B37"/>
<path d="M62.066 59.2541H49.0397C48.8423 59.2541 48.7437 59.0567 48.7437 58.958C48.7437 58.8594 48.941 58.662 49.0397 58.662H62.066C62.2634 58.662 62.3621 58.8594 62.3621 58.958C62.3621 59.0567 62.2634 59.2541 62.066 59.2541Z" fill="#242B37"/>
<path d="M56.2435 70.6906H55.3554C55.158 70.6906 55.0593 70.4933 55.0593 70.3946C55.0593 70.1972 55.2567 70.0985 55.3554 70.0985H56.1449C56.3422 70.0985 56.4409 70.2959 56.4409 70.3946C56.5396 70.4933 56.4409 70.6906 56.2435 70.6906Z" fill="#242B37"/>
<path d="M53.8752 70.6906H49.0397C48.8423 70.6906 48.7437 70.4933 48.7437 70.3946C48.7437 70.1972 48.941 70.0985 49.0397 70.0985H53.8752C54.0726 70.0985 54.1713 70.2959 54.1713 70.3946C54.27 70.4933 54.0726 70.6906 53.8752 70.6906Z" fill="#242B37"/>
<path d="M66.8027 55.6061H58.3158C58.1185 55.6061 58.0198 55.4088 58.0198 55.3101C58.0198 55.2114 58.2171 55.014 58.3158 55.014H66.704C66.9014 55.014 67 55.2114 67 55.3101C67 55.4088 67 55.6061 66.8027 55.6061Z" fill="#242B37"/>
<path d="M55.6515 55.6061H49.1383C48.941 55.6061 48.8423 55.4088 48.8423 55.3101C48.8423 55.2114 49.0397 55.014 49.1383 55.014H55.6515C55.8489 55.014 55.9475 55.2114 55.9475 55.3101C55.9475 55.4088 55.8489 55.6061 55.6515 55.6061Z" fill="#242B37"/>
<path d="M60.191 47.2262H49.2371C48.941 47.2262 48.7437 47.0289 48.7437 46.7328C48.7437 46.4367 48.941 46.2394 49.2371 46.2394H60.191C60.4871 46.2394 60.6844 46.4367 60.6844 46.7328C60.6844 47.0289 60.4871 47.2262 60.191 47.2262Z" fill="#242B37"/>
<path d="M53.4804 49.8882H49.3357C49.0397 49.8882 48.8423 49.6908 48.8423 49.3948C48.8423 49.0987 49.0397 48.9014 49.3357 48.9014H53.4804C53.7765 48.9014 53.9739 49.0987 53.9739 49.3948C53.8752 49.6908 53.6778 49.8882 53.4804 49.8882Z" fill="#242B37"/>
<path d="M63.0527 42.2958V48.8028C63.0527 49.6901 63.8422 50.4789 64.7304 50.4789H70.454" fill="#354157"/>
<path d="M52.0988 61.4225H39.8619C39.2698 61.4225 38.6777 60.9295 38.6777 60.2394V54.7183C38.6777 54.1267 39.1712 53.5352 39.8619 53.5352H52.0988C52.6909 53.5352 53.283 54.0281 53.283 54.7183V60.2394C53.1843 60.9295 52.6909 61.4225 52.0988 61.4225Z" fill="#F04B98"/>
<path d="M42.9211 55.8027C43.6119 55.8027 44.1053 56.2957 44.1053 56.9858C44.1053 57.676 43.6119 58.1689 42.9211 58.1689H42.2303V59.1548H41.5396V55.8027H42.9211ZM42.2303 57.5774H42.7238C43.1185 57.5774 43.3159 57.3802 43.3159 56.9858C43.3159 56.5915 43.1185 56.3943 42.7238 56.3943H42.2303V57.5774Z" fill="white"/>
<path d="M46.1777 55.8027C47.1645 55.8027 47.7566 56.3943 47.7566 57.4788C47.7566 58.5633 47.2632 59.1548 46.1777 59.1548H44.8948V55.8027H46.1777ZM45.5856 58.5633H46.079C46.6711 58.5633 47.0658 58.1689 47.0658 57.4788C47.0658 56.7887 46.6711 56.3943 46.079 56.3943H45.5856V58.5633Z" fill="white"/>
<path d="M48.6448 59.1548V55.8027H50.8158V56.3943H49.4342V57.2816H50.8158V57.8732H49.4342V59.1548H48.6448Z" fill="white"/>
<path d="M105.98 50.4789L106.276 73.9437C106.276 74.7324 105.586 75.4225 104.796 75.4225H82C81.2106 75.4225 80.5198 74.7324 80.5198 73.9437V43.7746C80.5198 42.9859 81.2106 42.2958 82 42.2958H98.579L105.98 50.4789Z" fill="#474E61"/>
<path d="M102.033 66.6484H88.3158C88.1185 66.6484 88.0198 66.451 88.0198 66.3523C88.0198 66.155 88.2171 66.0563 88.3158 66.0563H102.033C102.23 66.0563 102.329 66.2536 102.329 66.3523C102.329 66.451 102.23 66.6484 102.033 66.6484Z" fill="#242B37"/>
<path d="M86.6381 66.6484H84.2697C84.0723 66.6484 83.9736 66.451 83.9736 66.3523C83.9736 66.155 84.171 66.0563 84.2697 66.0563H86.6381C86.8355 66.0563 86.9342 66.2536 86.9342 66.3523C86.9342 66.451 86.8355 66.6484 86.6381 66.6484Z" fill="#242B37"/>
<path d="M101.934 62.9019H95.8158C95.6185 62.9019 95.5198 62.7046 95.5198 62.6059C95.5198 62.4085 95.7171 62.3098 95.8158 62.3098H101.934C102.132 62.3098 102.23 62.5072 102.23 62.6059C102.329 62.8032 102.132 62.9019 101.934 62.9019Z" fill="#242B37"/>
<path d="M93.2499 62.9019H84.3683C84.171 62.9019 84.0723 62.7046 84.0723 62.6059C84.0723 62.4085 84.2696 62.3098 84.3683 62.3098H93.2499C93.4473 62.3098 93.5459 62.5072 93.5459 62.6059C93.6446 62.8032 93.4473 62.9019 93.2499 62.9019Z" fill="#242B37"/>
<path d="M102.033 59.2541H99.6645C99.4671 59.2541 99.3684 59.0567 99.3684 58.958C99.3684 58.8594 99.5658 58.662 99.6645 58.662H102.033C102.23 58.662 102.329 58.8594 102.329 58.958C102.329 59.0567 102.23 59.2541 102.033 59.2541Z" fill="#242B37"/>
<path d="M97.4933 59.2541H84.467C84.2696 59.2541 84.1709 59.0567 84.1709 58.958C84.1709 58.8594 84.3683 58.662 84.467 58.662H97.4933C97.6906 58.662 97.7893 58.8594 97.7893 58.958C97.7893 59.0567 97.6906 59.2541 97.4933 59.2541Z" fill="#242B37"/>
<path d="M91.671 70.6906H90.8815C90.6841 70.6906 90.5854 70.4933 90.5854 70.3946C90.5854 70.2959 90.7828 70.0985 90.8815 70.0985H91.671C91.8683 70.0985 91.967 70.2959 91.967 70.3946C91.967 70.4933 91.8683 70.6906 91.671 70.6906Z" fill="#242B37"/>
<path d="M89.3025 70.6906H84.467C84.2696 70.6906 84.1709 70.4933 84.1709 70.3946C84.1709 70.2959 84.3683 70.0985 84.467 70.0985H89.3025C89.4999 70.0985 89.5985 70.2959 89.5985 70.3946C89.5985 70.4933 89.4999 70.6906 89.3025 70.6906Z" fill="#242B37"/>
<path d="M102.23 55.6061H93.842C93.6446 55.6061 93.5459 55.4088 93.5459 55.3101C93.5459 55.2114 93.7433 55.014 93.842 55.014H102.23C102.427 55.014 102.526 55.2114 102.526 55.3101C102.526 55.4088 102.427 55.6061 102.23 55.6061Z" fill="#242B37"/>
<path d="M91.079 55.6061H84.5658C84.3685 55.6061 84.2698 55.4088 84.2698 55.3101C84.2698 55.2114 84.4671 55.014 84.5658 55.014H91.079C91.2763 55.014 91.375 55.2114 91.375 55.3101C91.375 55.4088 91.2763 55.6061 91.079 55.6061Z" fill="#242B37"/>
<path d="M95.6183 47.2262H84.6643C84.3683 47.2262 84.1709 47.0289 84.1709 46.7328C84.1709 46.4367 84.3683 46.2394 84.6643 46.2394H95.6183C95.9143 46.2394 96.1117 46.4367 96.1117 46.7328C96.1117 47.0289 95.9143 47.2262 95.6183 47.2262Z" fill="#242B37"/>
<path d="M88.9079 49.8882H84.7632C84.4671 49.8882 84.2698 49.6908 84.2698 49.3948C84.2698 49.0987 84.4671 48.9014 84.7632 48.9014H88.9079C89.204 48.9014 89.4014 49.0987 89.4014 49.3948C89.3027 49.6908 89.1053 49.8882 88.9079 49.8882Z" fill="#242B37"/>
<path d="M98.4802 42.2958V48.8028C98.4802 49.6901 99.2697 50.4789 100.158 50.4789H105.882" fill="#354157"/>
<path d="M87.5263 61.4225H75.2894C74.6973 61.4225 74.1052 60.9295 74.1052 60.2394V54.7183C74.1052 54.1267 74.5986 53.5352 75.2894 53.5352H87.5263C88.1184 53.5352 88.7105 54.0281 88.7105 54.7183V60.2394C88.6118 60.9295 88.1184 61.4225 87.5263 61.4225Z" fill="url(#paint2_linear)"/>
<path d="M77.5593 55.8029C78.5461 55.8029 79.1382 56.3944 79.1382 57.4789C79.1382 58.5634 78.5461 59.155 77.5593 59.155H76.2764V55.8029H77.5593ZM76.9672 58.5634H77.4606C78.0527 58.5634 78.4474 58.1691 78.4474 57.4789C78.4474 56.7888 78.0527 56.3944 77.4606 56.3944H76.9672V58.5634Z" fill="white"/>
<path d="M83.0856 57.4789C83.0856 58.5634 82.4935 59.2535 81.5067 59.2535C80.5198 59.2535 79.9277 58.5634 79.9277 57.4789C79.9277 56.3944 80.5198 55.7042 81.5067 55.7042C82.4935 55.7042 83.0856 56.3944 83.0856 57.4789ZM80.6185 57.4789C80.6185 58.169 81.0133 58.662 81.5067 58.662C82.0988 58.662 82.3948 58.2676 82.3948 57.4789C82.3948 56.7887 82.0001 56.2958 81.5067 56.2958C80.9146 56.2958 80.6185 56.7887 80.6185 57.4789Z" fill="white"/>
<path d="M83.875 57.4789C83.875 56.3944 84.4671 55.7042 85.4539 55.7042C86.2434 55.7042 86.8355 56.1972 86.9342 56.9859H86.2434C86.1447 56.5915 85.8487 56.2958 85.4539 56.2958C84.9605 56.2958 84.5658 56.6901 84.5658 57.4789C84.5658 58.169 84.8618 58.662 85.4539 58.662C85.8487 58.662 86.1447 58.4648 86.2434 58.0704H86.9342C86.8355 58.8592 86.2434 59.2535 85.4539 59.2535C84.4671 59.2535 83.875 58.5634 83.875 57.4789Z" fill="white"/>
<path d="M116.244 31.9437H79.9277C78.8422 31.9437 78.0527 31.0563 78.0527 30.0704V7.29579C78.0527 6.21128 78.9409 5.42255 79.9277 5.42255H116.244C117.329 5.42255 118.119 6.30987 118.119 7.29579V30.0704C118.119 31.1549 117.23 31.9437 116.244 31.9437Z" fill="url(#paint3_linear)"/>
<path d="M98.0856 17.5493C100.32 17.5493 102.132 15.7395 102.132 13.507C102.132 11.2746 100.32 9.46478 98.0856 9.46478C95.851 9.46478 94.0396 11.2746 94.0396 13.507C94.0396 15.7395 95.851 17.5493 98.0856 17.5493Z" fill="#304ABA"/>
<path d="M110.816 22.2816H85.454C85.0592 22.2816 84.7632 21.9859 84.7632 21.5915C84.7632 21.1971 85.0592 20.9014 85.454 20.9014H110.717C111.112 20.9014 111.408 21.1971 111.408 21.5915C111.507 21.9859 111.211 22.2816 110.816 22.2816Z" fill="#304ABA"/>
<path d="M110.816 27.6056H85.454C85.0592 27.6056 84.7632 27.3098 84.7632 26.9155C84.7632 26.5211 85.0592 26.2253 85.454 26.2253H110.717C111.112 26.2253 111.408 26.5211 111.408 26.9155C111.507 27.3098 111.211 27.6056 110.816 27.6056Z" fill="#304ABA"/>
<defs>
<filter id="filter0_d" x="0" y="5.46478" width="149.395" height="111.93" filterUnits="userSpaceOnUse" color-interpolation-filters="sRGB">
<feFlood flood-opacity="0" result="BackgroundImageFix"/>
<feColorMatrix in="SourceAlpha" type="matrix" values="0 0 0 0 0 0 0 0 0 0 0 0 0 0 0 0 0 0 127 0"/>
<feOffset dy="11"/>
<feGaussianBlur stdDeviation="11"/>
<feColorMatrix type="matrix" values="0 0 0 0 0 0 0 0 0 0 0 0 0 0 0 0 0 0 0.18 0"/>
<feBlend mode="normal" in2="BackgroundImageFix" result="effect1_dropShadow"/>
<feBlend mode="normal" in="SourceGraphic" in2="effect1_dropShadow" result="shape"/>
</filter>
<filter id="filter1_d" x="94.2434" y="31.4929" width="69.7566" height="76.9296" filterUnits="userSpaceOnUse" color-interpolation-filters="sRGB">
<feFlood flood-opacity="0" result="BackgroundImageFix"/>
<feColorMatrix in="SourceAlpha" type="matrix" values="0 0 0 0 0 0 0 0 0 0 0 0 0 0 0 0 0 0 127 0"/>
<feOffset dy="11"/>
<feGaussianBlur stdDeviation="11"/>
<feColorMatrix type="matrix" values="0 0 0 0 0 0 0 0 0 0 0 0 0 0 0 0 0 0 0.18 0"/>
<feBlend mode="normal" in2="BackgroundImageFix" result="effect1_dropShadow"/>
<feBlend mode="normal" in="SourceGraphic" in2="effect1_dropShadow" result="shape"/>
</filter>
<linearGradient id="paint0_linear" x1="58.4332" y1="39.3745" x2="77.0269" y2="39.3745" gradientUnits="userSpaceOnUse">
<stop stop-color="#FF66A9"/>
<stop offset="1" stop-color="#F53689"/>
</linearGradient>
<linearGradient id="paint1_linear" x1="29.7056" y1="62.8622" x2="35.6006" y2="62.8622" gradientUnits="userSpaceOnUse">
<stop stop-color="#FF66A9"/>
<stop offset="1" stop-color="#F53689"/>
</linearGradient>
<linearGradient id="paint2_linear" x1="74.1064" y1="57.4851" x2="88.6292" y2="57.4851" gradientUnits="userSpaceOnUse">
<stop stop-color="#83A6FF"/>
<stop offset="1" stop-color="#5A78FF"/>
</linearGradient>
<linearGradient id="paint3_linear" x1="77.9725" y1="18.6705" x2="118.112" y2="18.6705" gradientUnits="userSpaceOnUse">
<stop stop-color="#83A6FF"/>
<stop offset="1" stop-color="#5A78FF"/>
</linearGradient>
</defs>
</svg>
