<svg width="123" height="144" viewBox="0 0 123 144" fill="none" xmlns="http://www.w3.org/2000/svg">
<path d="M60.3069 116.683C90.1108 116.683 114.272 92.5832 114.272 62.8544C114.272 33.1256 90.1108 9.02563 60.3069 9.02563C30.5031 9.02563 6.34229 33.1256 6.34229 62.8544C6.34229 92.5832 30.5031 116.683 60.3069 116.683Z" fill="#2A2E38"/>
<path d="M7.25962 31.3148C8.68535 30.8525 9.46547 29.325 9.00207 27.9028C8.53867 26.4807 7.00723 25.7025 5.58151 26.1648C4.15578 26.627 3.37566 28.1546 3.83906 29.5767C4.30246 30.9989 5.8339 31.777 7.25962 31.3148Z" fill="#2A2E38"/>
<path d="M13.1851 22.4803C14.1546 22.166 14.6851 21.1272 14.37 20.1602C14.0549 19.1931 13.0135 18.664 12.044 18.9783C11.0745 19.2926 10.544 20.3313 10.8591 21.2984C11.1742 22.2655 12.2156 22.7946 13.1851 22.4803Z" fill="#2A2E38"/>
<path d="M119.954 49.3449C121.636 47.8115 121.754 45.2082 120.216 43.5303C118.679 41.8524 116.069 41.7352 114.387 43.2685C112.705 44.8019 112.588 47.4052 114.125 49.0832C115.662 50.7611 118.272 50.8783 119.954 49.3449Z" fill="#2A2E38"/>
<path d="M120.339 30.9735C121.048 30.3279 121.097 29.2317 120.45 28.5252C119.803 27.8187 118.704 27.7694 117.995 28.415C117.287 29.0607 117.238 30.1568 117.885 30.8633C118.532 31.5698 119.631 31.6191 120.339 30.9735Z" fill="#2A2E38"/>
<path d="M98.0705 15.7407C99.03 15.7407 99.8078 14.9648 99.8078 14.0078C99.8078 13.0507 99.03 12.2748 98.0705 12.2748C97.1111 12.2748 96.3333 13.0507 96.3333 14.0078C96.3333 14.9648 97.1111 15.7407 98.0705 15.7407Z" fill="url(#paint0_linear)"/>
<path d="M10.9888 90.2561C11.9482 90.2561 12.726 89.4803 12.726 88.5232C12.726 87.5661 11.9482 86.7903 10.9888 86.7903C10.0293 86.7903 9.25146 87.5661 9.25146 88.5232C9.25146 89.4803 10.0293 90.2561 10.9888 90.2561Z" fill="url(#paint1_linear)"/>
<g filter="url(#filter0_d)">
<path d="M99.1562 35.9941L100.025 106.61C100.025 108.993 98.0704 110.943 95.6817 110.943H26.7329C24.3441 110.943 22.3896 108.993 22.3896 106.61V15.849C22.3896 13.4662 24.3441 11.5167 26.7329 11.5167H76.68L99.1562 35.9941Z" fill="#474E61"/>
</g>
<path d="M87.2125 79.7503H45.9518C45.4089 79.7503 44.9746 79.2088 44.9746 78.5589C44.9746 77.9091 45.4089 77.3676 45.9518 77.3676H87.2125C87.7554 77.3676 88.1898 77.9091 88.1898 78.5589C88.1898 79.2088 87.7554 79.7503 87.2125 79.7503Z" fill="#363E4B"/>
<path d="M40.8483 79.7503H33.5734C33.0305 79.7503 32.5962 79.2088 32.5962 78.5589C32.5962 77.9091 33.0305 77.3676 33.5734 77.3676H40.8483C41.3912 77.3676 41.8256 77.9091 41.8256 78.5589C41.8256 79.2088 41.3912 79.7503 40.8483 79.7503Z" fill="#242B37"/>
<path d="M87.1037 71.0856H68.6449C68.102 71.0856 67.6677 70.5441 67.6677 69.8943C67.6677 69.2444 68.102 68.7029 68.6449 68.7029H87.1037C87.6466 68.7029 88.0809 69.2444 88.0809 69.8943C88.0809 70.5441 87.6466 71.0856 87.1037 71.0856Z" fill="#242B37"/>
<path d="M60.8271 71.0856H33.8991C33.3562 71.0856 32.9219 70.5441 32.9219 69.8943C32.9219 69.2444 33.3562 68.7029 33.8991 68.7029H60.8271C61.37 68.7029 61.8044 69.2444 61.8044 69.8943C61.9129 70.5441 61.37 71.0856 60.8271 71.0856Z" fill="#363E4B"/>
<path d="M80.4801 44.9836H87.8636C88.4065 44.9836 88.8409 44.4421 88.8409 43.7922C88.8409 43.1424 88.4065 42.6008 87.8636 42.6008H80.4801C79.9372 42.6008 79.5029 43.1424 79.5029 43.7922C79.5029 44.5504 79.9372 44.9836 80.4801 44.9836Z" fill="#363E4B"/>
<path d="M87.4294 62.3128H80.2631C79.7202 62.3128 79.2859 61.7713 79.2859 61.1214C79.2859 60.4716 79.7202 59.9301 80.2631 59.9301H87.4294C87.9723 59.9301 88.4067 60.4716 88.4067 61.1214C88.4067 61.7713 87.9723 62.3128 87.4294 62.3128Z" fill="#363E4B"/>
<path d="M73.6396 62.3128H54.4208C53.8779 62.3128 53.4436 61.7713 53.4436 61.1214C53.4436 60.4716 53.8779 59.9301 54.4208 59.9301H73.7482C74.2911 59.9301 74.7254 60.4716 74.7254 61.1214C74.7254 61.7713 74.2911 62.3128 73.6396 62.3128Z" fill="#242B37"/>
<path d="M55.9409 96.8629H53.4435C52.9006 96.8629 52.4663 96.3213 52.4663 95.6715C52.4663 95.0216 52.9006 94.4801 53.4435 94.4801H55.9409C56.4838 94.4801 56.9181 95.0216 56.9181 95.6715C56.9181 96.4296 56.4838 96.8629 55.9409 96.8629Z" fill="#242B37"/>
<path d="M48.9918 96.8629H34.3334C33.7905 96.8629 33.3562 96.3213 33.3562 95.6715C33.3562 95.0216 33.7905 94.4801 34.3334 94.4801H48.9918C49.5347 94.4801 49.9691 95.0216 49.9691 95.6715C49.9691 96.4296 49.5347 96.8629 48.9918 96.8629Z" fill="#363E4B"/>
<path d="M87.7554 53.6483H73.3141C72.7712 53.6483 72.3369 53.1067 72.3369 52.4569C72.3369 51.807 72.7712 51.2655 73.3141 51.2655H87.864C88.4069 51.2655 88.8412 51.807 88.8412 52.4569C88.8412 53.1067 88.4069 53.6483 87.7554 53.6483Z" fill="#242B37"/>
<path d="M54.3122 44.9836H73.8567C74.3996 44.9836 74.834 44.4421 74.834 43.7922C74.834 43.1424 74.3996 42.6008 73.8567 42.6008H54.3122C53.7693 42.6008 53.335 43.1424 53.335 43.7922C53.335 44.5504 53.7693 44.9836 54.3122 44.9836Z" fill="#242B37"/>
<path d="M67.2335 53.6483H54.2038C53.6609 53.6483 53.2266 53.1067 53.2266 52.4569C53.2266 51.807 53.6609 51.2655 54.2038 51.2655H67.2335C67.7764 51.2655 68.2107 51.807 68.2107 52.4569C68.3193 53.1067 67.885 53.6483 67.2335 53.6483Z" fill="#363E4B"/>
<path d="M67.9936 26.3548H34.985C34.225 26.3548 33.5735 25.705 33.5735 24.9468C33.5735 24.1887 34.225 23.5388 34.985 23.5388H67.9936C68.7537 23.5388 69.4051 24.1887 69.4051 24.9468C69.4051 25.705 68.7537 26.3548 67.9936 26.3548Z" fill="#242B37"/>
<path d="M47.689 34.2613H34.985C34.225 34.2613 33.5735 33.6115 33.5735 32.8533C33.5735 32.0952 34.225 31.4453 34.985 31.4453H47.5804C48.3405 31.4453 48.992 32.0952 48.992 32.8533C48.992 33.6115 48.3405 34.2613 47.689 34.2613Z" fill="#242B37"/>
<path d="M76.6799 11.5167V31.012C76.6799 33.7197 79.0687 35.9941 81.7832 35.9941H99.1562" fill="#354157"/>
<path d="M109.487 105.322C107.315 115.936 96.7827 122.868 86.1418 120.593C75.5008 118.427 68.5516 107.921 70.8318 97.3071C73.112 86.6929 83.5357 79.7612 94.1766 82.0356C97.977 82.7938 101.451 84.635 104.166 87.451C108.835 92.1082 110.79 98.8233 109.487 105.322Z" fill="url(#paint2_linear)"/>
<path d="M107.517 100.87C107.517 101.628 107.517 102.387 107.408 103.145C107.3 103.686 107.3 104.336 107.083 104.878C105.78 111.918 100.134 117.116 93.5101 118.199C92.2071 118.416 90.9042 118.524 89.6012 118.416L82.5435 111.376L88.8411 102.278L95.5731 97.1878L100.351 93.7219L107.517 100.87Z" fill="url(#paint3_linear)"/>
<path d="M99.9164 93.5054C96.8762 92.6389 93.7273 92.7472 90.7957 93.8303C90.5785 93.9386 90.3613 94.0469 90.2528 94.2635C89.7098 94.8051 89.2755 95.3466 88.8412 95.9964C88.8412 95.6715 88.8412 95.3466 88.8412 95.0217C88.8412 94.9134 88.7326 94.9134 88.7326 94.9134C88.7326 94.9134 88.7326 94.9134 88.624 94.9134C87.5382 95.4549 86.6696 96.2131 85.8009 97.0795C85.5838 97.2961 85.4752 97.5127 85.4752 97.7294C85.258 98.2709 85.1495 98.8124 85.0409 99.2457C84.9323 99.029 84.9323 98.8124 84.8237 98.5958C84.8237 98.4875 84.7151 98.4875 84.7151 98.4875C84.7151 98.4875 84.7151 98.4875 84.6066 98.4875C83.5207 100.22 82.7607 102.17 82.5435 104.228C82.5435 104.661 82.5435 105.203 82.5435 105.636L82.6521 106.394C82.6521 106.502 82.6521 106.502 82.7607 106.502C82.8693 106.502 82.8693 106.502 82.8693 106.394C85.4752 101.52 88.624 97.2961 94.2702 95.2383C94.596 95.13 94.9217 95.2383 95.0303 95.5632C95.1389 95.8881 95.0303 96.2131 94.7046 96.3214C88.0811 98.7041 85.0409 104.444 82.3264 110.401C82.2178 110.726 82.3264 111.051 82.6521 111.159C82.9778 111.268 83.3036 111.159 83.4122 110.835C83.8465 109.86 84.2808 108.885 84.7151 108.019C84.9323 107.585 85.3666 107.152 85.9095 107.044C89.8184 106.286 93.293 104.228 95.6818 100.979C96.0075 100.545 96.3333 100.112 96.659 99.5706C96.7676 99.4623 96.659 99.2457 96.5504 99.2457C96.5504 99.2457 96.5504 99.2457 96.4419 99.2457L94.3788 98.8124C96.5504 98.1626 97.0933 98.4875 97.962 97.0795C98.6135 95.9964 99.3735 94.9134 100.025 93.9386C100.459 93.722 100.459 93.6137 99.9164 93.5054Z" fill="url(#paint4_linear)"/>
<path d="M47.7977 62.4212C47.5805 62.4212 47.3634 62.3128 47.2548 61.9879L46.0604 58.4138H37.8083L36.6139 61.9879C36.5053 62.2045 36.2881 62.4212 36.071 62.4212H33.8994C33.7908 62.4212 33.6822 62.3128 33.5736 62.3128C33.465 62.2045 33.465 62.0962 33.5736 61.9879L39.8713 44.8754C39.9799 44.4421 40.4142 44.2255 40.74 44.2255H43.4545C43.8888 44.2255 44.2145 44.4421 44.3231 44.8754L50.6208 62.3128L50.5122 62.4212H47.7977ZM38.7855 55.8144H45.0832L41.9343 46.6083L38.7855 55.8144Z" fill="url(#paint5_linear)"/>
<defs>
<filter id="filter0_d" x="0.389648" y="0.516663" width="121.635" height="143.426" filterUnits="userSpaceOnUse" color-interpolation-filters="sRGB">
<feFlood flood-opacity="0" result="BackgroundImageFix"/>
<feColorMatrix in="SourceAlpha" type="matrix" values="0 0 0 0 0 0 0 0 0 0 0 0 0 0 0 0 0 0 127 0"/>
<feOffset dy="11"/>
<feGaussianBlur stdDeviation="11"/>
<feColorMatrix type="matrix" values="0 0 0 0 0 0 0 0 0 0 0 0 0 0 0 0 0 0 0.18 0"/>
<feBlend mode="normal" in2="BackgroundImageFix" result="effect1_dropShadow"/>
<feBlend mode="normal" in="SourceGraphic" in2="effect1_dropShadow" result="shape"/>
</filter>
<linearGradient id="paint0_linear" x1="96.4213" y1="13.983" x2="99.792" y2="13.983" gradientUnits="userSpaceOnUse">
<stop stop-color="#FF66A9"/>
<stop offset="1" stop-color="#F53689"/>
</linearGradient>
<linearGradient id="paint1_linear" x1="9.33768" y1="88.5136" x2="12.7084" y2="88.5136" gradientUnits="userSpaceOnUse">
<stop stop-color="#FF66A9"/>
<stop offset="1" stop-color="#F53689"/>
</linearGradient>
<linearGradient id="paint2_linear" x1="70.3151" y1="101.317" x2="109.872" y2="101.317" gradientUnits="userSpaceOnUse">
<stop stop-color="#83A6FF"/>
<stop offset="1" stop-color="#5A78FF"/>
</linearGradient>
<linearGradient id="paint3_linear" x1="90.1943" y1="101.312" x2="98.3081" y2="109.446" gradientUnits="userSpaceOnUse">
<stop stop-color="#4F6AFF"/>
<stop offset="1" stop-color="#657EFF" stop-opacity="0"/>
</linearGradient>
<linearGradient id="paint4_linear" x1="92.2957" y1="103.821" x2="86.2059" y2="95.4729" gradientUnits="userSpaceOnUse">
<stop offset="0.0113208" stop-color="#C2D1FF"/>
<stop offset="1" stop-color="white"/>
</linearGradient>
<linearGradient id="paint5_linear" x1="33.4354" y1="53.3486" x2="50.599" y2="53.3486" gradientUnits="userSpaceOnUse">
<stop stop-color="#FF66A9"/>
<stop offset="1" stop-color="#F53689"/>
</linearGradient>
</defs>
</svg>
