<svg width="121" height="140" viewBox="0 0 121 140" fill="none" xmlns="http://www.w3.org/2000/svg">
<path d="M60.5878 112.802C88.8365 112.802 111.737 89.8193 111.737 61.4691C111.737 33.1189 88.8365 10.1365 60.5878 10.1365C32.3391 10.1365 9.43896 33.1189 9.43896 61.4691C9.43896 89.8193 32.3391 112.802 60.5878 112.802Z" fill="#2A2E39"/>
<path d="M10.2742 31.3927C11.6255 30.9519 12.3649 29.4951 11.9257 28.1389C11.4865 26.7827 10.035 26.0407 8.68362 26.4815C7.33229 26.9223 6.59287 28.379 7.03209 29.7352C7.47131 31.0914 8.92284 31.8335 10.2742 31.3927Z" fill="#2A2E39"/>
<path d="M15.8907 22.9678C16.8096 22.668 17.3124 21.6774 17.0137 20.7552C16.715 19.833 15.728 19.3284 14.8091 19.6281C13.8902 19.9279 13.3874 20.9185 13.6861 21.8407C13.9847 22.7629 14.9718 23.2675 15.8907 22.9678Z" fill="#2A2E39"/>
<path d="M117.113 48.578C118.707 47.1157 118.819 44.6332 117.362 43.033C115.905 41.4329 113.431 41.3211 111.837 42.7834C110.242 44.2457 110.131 46.7283 111.588 48.3284C113.045 49.9285 115.519 50.0403 117.113 48.578Z" fill="#2A2E39"/>
<path d="M117.408 30.9823C118.08 30.3666 118.127 29.3213 117.513 28.6476C116.9 27.9738 115.858 27.9268 115.187 28.5425C114.515 29.1582 114.469 30.2035 115.082 30.8772C115.696 31.5509 116.737 31.598 117.408 30.9823Z" fill="#2A2E39"/>
<g filter="url(#filter0_d)">
<path d="M97.4607 35.1315L98.284 102.68C98.284 104.952 96.4316 106.811 94.1674 106.811H28.6105C26.3464 106.811 24.4939 104.952 24.4939 102.68V15.8172C24.4939 13.5449 26.3464 11.6858 28.6105 11.6858H76.1573L97.4607 35.1315Z" fill="#474E61"/>
</g>
<path d="M56.3978 93.3842H54.0307C53.5162 93.3842 53.1045 92.971 53.1045 92.4546C53.1045 91.9382 53.5162 91.525 54.0307 91.525H56.3978C56.9124 91.525 57.324 91.9382 57.324 92.4546C57.324 92.971 56.9124 93.3842 56.3978 93.3842Z" fill="#242B37"/>
<path d="M49.708 93.3842H35.8144C35.2998 93.3842 34.8882 92.971 34.8882 92.4546C34.8882 91.9382 35.2998 91.525 35.8144 91.525H49.708C50.2225 91.525 50.6342 91.9382 50.6342 92.4546C50.7371 92.971 50.3255 93.3842 49.708 93.3842Z" fill="#242B37"/>
<path d="M67.924 25.8358H36.5349C35.8145 25.8358 35.197 25.2161 35.197 24.4931C35.197 23.7701 35.8145 23.1504 36.5349 23.1504H67.924C68.6444 23.1504 69.2619 23.7701 69.2619 24.4931C69.2619 25.2161 68.6444 25.8358 67.924 25.8358Z" fill="#242B37"/>
<path d="M48.4731 33.3756H36.5349C35.8145 33.3756 35.197 32.7559 35.197 32.0329C35.197 31.3099 35.8145 30.6902 36.5349 30.6902H48.576C49.2964 30.6902 49.9139 31.3099 49.9139 32.0329C49.9139 32.7559 49.1935 33.3756 48.4731 33.3756Z" fill="#242B37"/>
<path d="M76.1572 11.7888V30.38C76.1572 32.9622 78.4214 35.1311 80.9942 35.1311H97.4607" fill="#354157"/>
<path d="M87.1691 47.5256H70.8056C70.8056 47.5256 70.8056 47.5256 70.7027 47.5256C70.5998 47.5256 70.7027 47.5256 70.5998 47.5256H53.7217C53.7217 47.5256 53.7217 47.5256 53.6188 47.5256C53.5159 47.5256 53.6188 47.5256 53.5159 47.5256H37.6669C35.9174 47.5256 34.4766 48.9716 34.4766 50.8308V79.544C34.4766 81.2998 35.9174 82.8491 37.6669 82.8491H87.0662C88.8158 82.8491 90.2566 81.4031 90.2566 79.544V50.8308C90.3595 49.0749 88.9187 47.5256 87.1691 47.5256ZM54.6479 72.9337V66.5301H69.7765V72.9337H54.6479ZM69.7765 74.8961V80.7834H54.6479V74.8961H69.7765ZM69.7765 58.0607V64.4644H54.6479V58.0607H69.7765ZM54.6479 56.0983V49.488H69.7765V56.0983H54.6479ZM88.4041 64.5676H71.7318V58.164H88.4041V64.5676ZM52.6925 64.5676H36.432V58.164H52.5896V64.5676H52.6925ZM36.432 66.5301H52.5896V72.9337H36.432V66.5301ZM71.7318 66.5301H88.4041V72.9337H71.7318V66.5301ZM88.4041 50.8308V56.0983H71.7318V49.488H87.1691C87.7866 49.488 88.4041 50.1078 88.4041 50.8308ZM37.6669 49.488H52.5896V56.0983H36.432V50.8308C36.432 50.1078 37.0494 49.488 37.6669 49.488ZM36.432 79.544V74.8961H52.5896V80.7834H37.6669C37.0494 80.7834 36.432 80.2669 36.432 79.544ZM87.1691 80.7834H71.7318V74.8961H88.4041V79.544C88.4041 80.2669 87.7866 80.7834 87.1691 80.7834Z" fill="#242B37"/>
<path d="M40.6516 64.3611H13.1732C11.7324 64.3611 10.6003 63.2249 10.6003 61.7789V49.1782C10.6003 47.7322 11.7324 46.5961 13.1732 46.5961H40.6516C42.0924 46.5961 43.2244 47.7322 43.2244 49.1782V61.6757C43.2244 63.1217 42.0924 64.3611 40.6516 64.3611Z" fill="#354157"/>
<path d="M18.319 55.3754L15.9519 51.6571H17.8044L19.451 54.3425L21.0977 51.6571H22.8472L20.3773 55.3754L22.8472 59.0936H21.0977L19.451 56.4082L17.8044 59.0936H16.0548L18.319 55.3754Z" fill="#747F93"/>
<path d="M29.4337 59.1969H24.5967V51.6571H26.1404V57.9575H29.4337V59.1969Z" fill="#747F93"/>
<path d="M32.624 57.0279C32.727 57.6476 33.3445 58.0608 34.1678 58.0608C34.9911 58.0608 35.6086 57.6476 35.6086 57.1312C35.6086 56.6148 35.1969 56.4082 34.3736 56.2016L33.3445 55.9951C31.9036 55.6852 31.2862 54.9622 31.2862 53.9294C31.2862 52.4834 32.5211 51.6571 34.1678 51.6571C35.9173 51.6571 37.0494 52.5867 37.0494 53.9294H35.6086C35.5057 53.3097 34.9911 52.8965 34.1678 52.8965C33.3445 52.8965 32.8299 53.3097 32.8299 53.8261C32.8299 54.3425 33.2415 54.5491 34.0649 54.7557L34.9911 54.9622C36.5348 55.2721 37.1523 55.8918 37.1523 57.1312C37.1523 58.5772 35.9173 59.5068 34.0649 59.5068C32.2124 59.5068 31.0803 58.6805 31.0803 57.2345H32.624V57.0279Z" fill="#747F93"/>
<path d="M9.67402 81.8163H9.26236C9.05653 81.8163 8.95362 81.6098 8.8507 81.5065C8.8507 81.4032 8.74779 81.2999 8.64487 81.0933C8.54196 80.8868 8.54196 80.6802 8.64487 80.5769L8.8507 80.2671C8.95362 80.0605 8.95362 79.7506 8.8507 79.6474L8.23321 78.9244C8.02738 78.7178 7.82155 78.7178 7.61572 78.9244L7.30697 79.1309C7.20406 79.2342 6.99823 79.2342 6.7924 79.1309C6.68948 79.0276 6.58657 79.0276 6.38074 78.9244C6.17491 78.9244 6.07199 78.7178 6.07199 78.5112L5.96908 78.0981C5.96908 77.8915 5.76325 77.6849 5.4545 77.6849H4.52827C4.32244 77.6849 4.11661 77.8915 4.01369 78.0981V78.5112C4.01369 78.7178 3.80786 78.8211 3.70495 78.9244C3.60203 78.9244 3.49911 79.0276 3.29328 79.1309C3.08745 79.2342 2.88162 79.2342 2.77871 79.1309L2.46996 78.9244C2.26413 78.8211 1.95539 78.8211 1.85247 78.9244L1.13207 79.5441C0.926236 79.7506 0.926236 79.9572 1.13207 80.1638L1.3379 80.5769C1.44081 80.6802 1.44081 80.8868 1.3379 81.0933C1.23498 81.1966 1.23498 81.2999 1.13207 81.5065C1.13207 81.6098 1.02915 81.713 0.823321 81.8163L0.411661 81.9196C0.20583 81.9196 0 82.1262 0 82.436V83.3656C0 83.5722 0.20583 83.7787 0.411661 83.882L0.823321 83.9853C1.02915 83.9853 1.13207 84.1919 1.23498 84.2952C1.23498 84.3985 1.3379 84.605 1.44081 84.7083C1.54373 84.9149 1.54373 85.1215 1.44081 85.2247L1.23498 85.5346C1.13207 85.7412 1.13207 86.051 1.23498 86.1543L1.85247 86.774C2.0583 86.9806 2.26413 86.9806 2.46996 86.774L2.77871 86.5674C2.88162 86.4642 3.08745 86.4642 3.29328 86.5674C3.3962 86.6707 3.49911 86.6707 3.70495 86.774C3.91078 86.8773 4.01369 86.9806 4.01369 87.1872L4.11661 87.3937C4.11661 87.7036 4.32244 87.8069 4.52827 87.8069H5.4545C5.66033 87.8069 5.86616 87.6003 5.96908 87.3937L6.07199 86.9806C6.07199 86.774 6.27782 86.6707 6.38074 86.5674C6.48365 86.5674 6.58657 86.4642 6.7924 86.3609C6.99823 86.2576 7.20406 86.2576 7.30697 86.3609L7.61572 86.774C7.82155 86.8773 8.1303 86.8773 8.23321 86.774L8.8507 86.1543C9.05653 85.9477 9.05653 85.7412 8.8507 85.5346L8.64487 85.2247C8.54196 85.1215 8.54196 84.9149 8.64487 84.7083C8.74779 84.605 8.74779 84.5017 8.8507 84.2952C8.95362 84.0886 9.05653 83.9853 9.26236 83.9853L9.67402 83.882C9.87985 83.882 10.0857 83.6755 10.0857 83.3656V82.436C10.0857 82.0229 9.87985 81.8163 9.67402 81.8163ZM5.04284 84.5017C4.11661 84.5017 3.29328 83.7787 3.29328 82.7459C3.29328 81.8163 4.01369 80.9901 5.04284 80.9901C5.96908 80.9901 6.7924 81.713 6.7924 82.7459C6.7924 83.7787 5.96908 84.5017 5.04284 84.5017Z" fill="url(#paint0_linear)"/>
<path d="M106.057 8.02125L100.088 9.36395C99.7792 9.46724 99.4705 9.26067 99.3676 8.95081L98.0297 2.96029C97.9267 2.44386 97.5151 2.23729 97.0005 2.34058H96.8976C92.9868 3.78657 91.0314 8.12453 92.4722 12.0494C93.913 15.9742 98.2355 17.9366 102.146 16.4906C105.337 15.3545 107.292 12.1526 107.086 8.84753C107.086 8.3311 106.675 8.02125 106.16 8.02125C106.057 7.91796 106.057 7.91796 106.057 8.02125Z" fill="url(#paint1_linear)"/>
<path d="M99.2646 0.89459L100.602 6.88511C100.705 7.29825 101.014 7.50482 101.426 7.40154L107.395 6.05883C107.807 5.95555 108.012 5.6457 107.909 5.23256C106.983 2.03072 103.381 -0.448113 99.8821 0.0683112C99.4704 0.171596 99.1617 0.48145 99.2646 0.89459Z" fill="url(#paint2_linear)"/>
<path d="M105.708 101.967C105.502 103.103 105.194 104.136 104.782 105.169C102.312 111.366 96.7545 115.704 90.3737 116.737C88.1096 117.15 85.8455 117.047 83.4785 116.634C73.3928 114.568 66.8061 104.549 68.9673 94.4274C71.1286 84.3054 81.0084 77.6951 91.0941 79.8641C94.6961 80.5871 97.9894 82.3429 100.562 85.0283C105.091 89.263 107.046 95.7699 105.708 101.967Z" fill="url(#paint3_linear)"/>
<path d="M104.768 105.159C102.298 111.356 96.7403 115.694 90.3596 116.727L88.7129 115.074L79.5535 105.365L80.068 104.642L90.1537 104.849L83.4642 96.1728L89.1246 93.5907L85.6255 90.4922L89.3304 89.6659L104.768 105.159Z" fill="url(#paint4_linear)"/>
<path d="M86.7092 101.098C87.018 101.512 87.6355 101.615 88.0471 101.305C88.15 101.305 88.15 101.202 88.253 101.098L91.9579 96.4507C92.2666 96.0375 92.1637 95.4178 91.7521 95.108C91.5462 95.0047 91.3404 94.9014 91.1346 94.9014H89.385V92.1127C89.385 91.9061 89.2821 91.8029 89.0763 91.8029H88.4588H85.8859C85.6801 91.8029 85.5772 91.9061 85.5772 92.1127V94.9014H83.8276C83.313 94.9014 82.9014 95.3145 82.9014 95.831C82.9014 96.0375 83.0043 96.2441 83.1072 96.4507L86.7092 101.098Z" fill="url(#paint5_linear)"/>
<path d="M89.1789 90.5635H85.8857C85.7827 90.5635 85.5769 90.4602 85.5769 90.2536V89.8405C85.5769 89.7372 85.6798 89.5306 85.8857 89.5306H89.1789C89.2818 89.5306 89.4877 89.6339 89.4877 89.8405V90.2536C89.4877 90.4602 89.2818 90.5635 89.1789 90.5635Z" fill="url(#paint6_linear)"/>
<path d="M81.2545 106.056C79.9166 106.056 78.8875 105.023 78.8875 103.784V100.066C78.8875 99.446 79.402 98.9296 80.0195 98.9296C80.637 98.9296 81.0487 99.446 81.0487 100.066V103.887H94.016V100.066C94.016 99.446 94.5306 99.0328 95.0451 99.0328C95.6626 99.0328 96.1772 99.5493 96.1772 100.066V103.784C96.1772 105.023 95.148 106.056 93.8101 106.056H81.2545Z" fill="url(#paint7_linear)"/>
<defs>
<filter id="filter0_d" x="2.4939" y="0.685791" width="117.79" height="139.125" filterUnits="userSpaceOnUse" color-interpolation-filters="sRGB">
<feFlood flood-opacity="0" result="BackgroundImageFix"/>
<feColorMatrix in="SourceAlpha" type="matrix" values="0 0 0 0 0 0 0 0 0 0 0 0 0 0 0 0 0 0 127 0"/>
<feOffset dy="11"/>
<feGaussianBlur stdDeviation="11"/>
<feColorMatrix type="matrix" values="0 0 0 0 0 0 0 0 0 0 0 0 0 0 0 0 0 0 0.18 0"/>
<feBlend mode="normal" in2="BackgroundImageFix" result="effect1_dropShadow"/>
<feBlend mode="normal" in="SourceGraphic" in2="effect1_dropShadow" result="shape"/>
</filter>
<linearGradient id="paint0_linear" x1="0" y1="82.7935" x2="10.0873" y2="82.7935" gradientUnits="userSpaceOnUse">
<stop stop-color="#FF66A9"/>
<stop offset="1" stop-color="#F53689"/>
</linearGradient>
<linearGradient id="paint1_linear" x1="92.1838" y1="10.9742" x2="106.866" y2="7.78652" gradientUnits="userSpaceOnUse">
<stop stop-color="#FF66A9"/>
<stop offset="1" stop-color="#F53689"/>
</linearGradient>
<linearGradient id="paint2_linear" x1="99.8796" y1="3.90643" x2="107.178" y2="2.3219" gradientUnits="userSpaceOnUse">
<stop stop-color="#83A6FF"/>
<stop offset="1" stop-color="#5A78FF"/>
</linearGradient>
<linearGradient id="paint3_linear" x1="68.6223" y1="98.1436" x2="106.117" y2="98.1436" gradientUnits="userSpaceOnUse">
<stop stop-color="#83A6FF"/>
<stop offset="1" stop-color="#5A78FF"/>
</linearGradient>
<linearGradient id="paint4_linear" x1="84.342" y1="97.6317" x2="99.6528" y2="112.888" gradientUnits="userSpaceOnUse">
<stop stop-color="#4F6AFF"/>
<stop offset="1" stop-color="#657EFF" stop-opacity="0"/>
</linearGradient>
<linearGradient id="paint5_linear" x1="96.6709" y1="105.16" x2="84.0011" y2="92.5354" gradientUnits="userSpaceOnUse">
<stop offset="0.0113208" stop-color="#C2D1FF"/>
<stop offset="1" stop-color="white"/>
</linearGradient>
<linearGradient id="paint6_linear" x1="91.0392" y1="93.622" x2="86.1551" y2="88.7553" gradientUnits="userSpaceOnUse">
<stop offset="0.0113208" stop-color="#C2D1FF"/>
<stop offset="1" stop-color="white"/>
</linearGradient>
<linearGradient id="paint7_linear" x1="93.4075" y1="108.109" x2="80.2818" y2="95.0299" gradientUnits="userSpaceOnUse">
<stop offset="0.0113208" stop-color="#C2D1FF"/>
<stop offset="1" stop-color="white"/>
</linearGradient>
</defs>
</svg>
