<svg width="121" height="110" viewBox="0 0 121 110" fill="none" xmlns="http://www.w3.org/2000/svg">
<path d="M18.6188 11.9776C19.8999 11.5486 20.6008 10.1309 20.1844 8.81099C19.7681 7.49112 18.392 6.76892 17.111 7.19791C15.83 7.6269 15.129 9.04464 15.5454 10.3645C15.9618 11.6844 17.3378 12.4066 18.6188 11.9776Z" fill="#2A2E39"/>
<path d="M23.9429 3.77838C24.814 3.48666 25.2907 2.52261 25.0075 1.6251C24.7244 0.727584 23.7887 0.236488 22.9176 0.528202C22.0465 0.819915 21.5699 1.78397 21.853 2.68148C22.1361 3.579 23.0718 4.07009 23.9429 3.77838Z" fill="#2A2E39"/>
<path d="M1.65854 57.9312C2.57452 57.9312 3.31707 57.1661 3.31707 56.2224C3.31707 55.2786 2.57452 54.5135 1.65854 54.5135C0.742552 54.5135 0 55.2786 0 56.2224C0 57.1661 0.742552 57.9312 1.65854 57.9312Z" fill="url(#paint0_linear)"/>
<path d="M117.263 41.0268C118.775 39.6036 118.88 37.1876 117.499 35.6303C116.118 34.073 113.773 33.9642 112.261 35.3873C110.75 36.8105 110.644 39.2265 112.025 40.7838C113.407 42.3411 115.752 42.4499 117.263 41.0268Z" fill="#2A2E39"/>
<path d="M111.61 57.1271C111.61 69.0888 107.707 80.2464 101.171 89.0921C97.561 93.917 93.2683 98.1388 88.2927 101.456C80.2927 106.884 70.6341 110 60.2927 110C32 110 8.97559 86.3781 8.97559 57.1271C8.97559 27.9766 31.9024 4.25415 60.2927 4.25415C70.6341 4.25415 80.1951 7.37024 88.2927 12.7983C93.2683 16.1154 97.561 20.3372 101.171 25.1621C107.707 34.1083 111.61 45.1653 111.61 57.1271Z" fill="#2A2E39"/>
<path d="M89.9513 28.5797H23.1221V37.8275H89.9513V28.5797Z" fill="#1D242E"/>
<path d="M89.9513 33.4046H23.1221V30.9921L89.9513 23.5537V33.4046Z" fill="#1D242E"/>
<path d="M13.0732 31.5953V28.5797H79.9025V37.8275H13.0732V34.6108" fill="#232A32"/>
<path d="M79.9025 30.2885H13.0732V33.4046H79.9025V30.2885Z" fill="#364151"/>
<path d="M89.0733 30.7911H13.5611C11.7075 30.7911 10.1465 29.1828 10.1465 27.2729V11.0894C10.1465 9.17953 11.7075 7.57123 13.5611 7.57123H89.1709C91.0245 7.57123 92.5855 9.17953 92.5855 11.0894V27.2729C92.488 29.2833 91.0245 30.7911 89.0733 30.7911Z" fill="#2E3746"/>
<path d="M19.805 7.57123H78.4392C79.805 7.57123 80.8782 8.67694 80.8782 10.0842V28.3786C80.8782 29.7859 79.805 30.8916 78.4392 30.8916H12.5855C11.2197 30.8916 10.1465 29.7859 10.1465 28.3786V10.0842C10.1465 8.67694 11.2197 7.57123 12.5855 7.57123H14.244" fill="#545D71"/>
<path d="M38.6491 16.1008C39.0301 15.7082 39.0301 15.0718 38.6491 14.6792C38.2681 14.2867 37.6504 14.2867 37.2694 14.6792C36.8884 15.0718 36.8884 15.7082 37.2694 16.1008C37.6504 16.4933 38.2681 16.4933 38.6491 16.1008Z" fill="#2A2E33"/>
<path d="M38.6628 20.5176C39.0438 20.125 39.0438 19.4886 38.6628 19.096C38.2818 18.7035 37.6641 18.7035 37.2831 19.096C36.9021 19.4886 36.9021 20.125 37.2831 20.5176C37.6641 20.9101 38.2818 20.9101 38.6628 20.5176Z" fill="#2A2E33"/>
<path d="M38.6076 24.8634C38.9886 24.4708 38.9886 23.8344 38.6076 23.4418C38.2266 23.0493 37.6089 23.0493 37.2279 23.4418C36.8469 23.8344 36.8469 24.4708 37.2279 24.8634C37.6089 25.2559 38.2266 25.2559 38.6076 24.8634Z" fill="#2A2E33"/>
<path d="M42.9433 18.4957C43.3243 18.1032 43.3243 17.4667 42.9433 17.0742C42.5623 16.6816 41.9446 16.6816 41.5636 17.0742C41.1826 17.4667 41.1826 18.1032 41.5636 18.4957C41.9446 18.8883 42.5623 18.8883 42.9433 18.4957Z" fill="#394651"/>
<path d="M42.8884 22.8414C43.2694 22.4489 43.2694 21.8124 42.8884 21.4199C42.5074 21.0273 41.8897 21.0273 41.5087 21.4199C41.1277 21.8124 41.1277 22.4489 41.5087 22.8414C41.8897 23.234 42.5074 23.234 42.8884 22.8414Z" fill="#2A2E33"/>
<path d="M47.1538 16.1432C47.5348 15.7507 47.5348 15.1142 47.1538 14.7217C46.7728 14.3291 46.1551 14.3291 45.7741 14.7217C45.3931 15.1142 45.3931 15.7507 45.7741 16.1432C46.1551 16.5358 46.7728 16.5358 47.1538 16.1432Z" fill="#2A2E33"/>
<path d="M47.1677 20.5601C47.5487 20.1676 47.5487 19.5311 47.1677 19.1386C46.7867 18.746 46.169 18.746 45.788 19.1386C45.407 19.5311 45.407 20.1676 45.788 20.5601C46.169 20.9527 46.7867 20.9527 47.1677 20.5601Z" fill="#2A2E33"/>
<path d="M46.439 25.162C46.9778 25.162 47.4146 24.712 47.4146 24.1568C47.4146 23.6017 46.9778 23.1516 46.439 23.1516C45.9002 23.1516 45.4634 23.6017 45.4634 24.1568C45.4634 24.712 45.9002 25.162 46.439 25.162Z" fill="url(#paint1_linear)"/>
<path d="M51.4482 18.5383C51.8292 18.1457 51.8292 17.5093 51.4482 17.1167C51.0672 16.7242 50.4495 16.7242 50.0685 17.1167C49.6875 17.5093 49.6875 18.1457 50.0685 18.5383C50.4495 18.9308 51.0672 18.9308 51.4482 18.5383Z" fill="#394651"/>
<path d="M51.3933 22.884C51.7743 22.4914 51.7743 21.855 51.3933 21.4624C51.0123 21.0699 50.3946 21.0699 50.0136 21.4624C49.6326 21.855 49.6326 22.4914 50.0136 22.884C50.3946 23.2765 51.0123 23.2765 51.3933 22.884Z" fill="#2A2E33"/>
<path d="M55.7278 16.1147C56.1088 15.7222 56.1088 15.0857 55.7278 14.6932C55.3468 14.3006 54.729 14.3006 54.3481 14.6932C53.9671 15.0857 53.9671 15.7222 54.3481 16.1147C54.729 16.5073 55.3468 16.5073 55.7278 16.1147Z" fill="#394651"/>
<path d="M55.7414 20.5315C56.1224 20.139 56.1224 19.5025 55.7414 19.11C55.3604 18.7175 54.7427 18.7175 54.3617 19.11C53.9807 19.5025 53.9807 20.139 54.3617 20.5315C54.7427 20.9241 55.3604 20.9241 55.7414 20.5315Z" fill="#2A2E33"/>
<path d="M55.6863 24.8774C56.0672 24.4849 56.0672 23.8484 55.6863 23.4559C55.3053 23.0633 54.6875 23.0633 54.3066 23.4559C53.9256 23.8484 53.9256 24.4849 54.3066 24.8774C54.6875 25.27 55.3053 25.27 55.6863 24.8774Z" fill="#2A2E33"/>
<path d="M60.0219 18.5098C60.4029 18.1172 60.4029 17.4808 60.0219 17.0882C59.641 16.6957 59.0232 16.6957 58.6422 17.0882C58.2612 17.4808 58.2612 18.1172 58.6422 18.5098C59.0232 18.9023 59.641 18.9023 60.0219 18.5098Z" fill="#2A2E33"/>
<path d="M59.967 22.8555C60.348 22.4629 60.348 21.8265 59.967 21.4339C59.586 21.0414 58.9683 21.0414 58.5873 21.4339C58.2063 21.8265 58.2063 22.4629 58.5873 22.8555C58.9683 23.248 59.586 23.248 59.967 22.8555Z" fill="#2A2E33"/>
<path d="M64.3015 16.0862C64.6825 15.6937 64.6825 15.0572 64.3015 14.6647C63.9205 14.2721 63.3028 14.2721 62.9218 14.6647C62.5408 15.0572 62.5408 15.6937 62.9218 16.0862C63.3028 16.4788 63.9205 16.4788 64.3015 16.0862Z" fill="#2A2E33"/>
<path d="M64.3152 20.503C64.6962 20.1105 64.6962 19.474 64.3152 19.0815C63.9342 18.6889 63.3165 18.6889 62.9355 19.0815C62.5545 19.474 62.5545 20.1105 62.9355 20.503C63.3165 20.8956 63.9342 20.8956 64.3152 20.503Z" fill="#394651"/>
<path d="M64.26 24.8489C64.641 24.4564 64.641 23.8199 64.26 23.4274C63.879 23.0348 63.2613 23.0348 62.8803 23.4274C62.4993 23.8199 62.4993 24.4564 62.8803 24.8489C63.2613 25.2415 63.879 25.2415 64.26 24.8489Z" fill="#2A2E33"/>
<path d="M68.5271 18.5523C68.9081 18.1597 68.9081 17.5233 68.5271 17.1308C68.1461 16.7382 67.5284 16.7382 67.1474 17.1308C66.7664 17.5233 66.7664 18.1597 67.1474 18.5523C67.5284 18.9448 68.1461 18.9448 68.5271 18.5523Z" fill="#2A2E33"/>
<path d="M68.4719 22.898C68.8529 22.5054 68.8529 21.869 68.4719 21.4765C68.0909 21.0839 67.4732 21.0839 67.0922 21.4765C66.7112 21.869 66.7112 22.5054 67.0922 22.898C67.4732 23.2905 68.0909 23.2905 68.4719 22.898Z" fill="#2A2E33"/>
<path d="M72.8064 16.1288C73.1874 15.7362 73.1874 15.0998 72.8064 14.7072C72.4254 14.3147 71.8077 14.3147 71.4267 14.7072C71.0457 15.0998 71.0457 15.7362 71.4267 16.1288C71.8077 16.5213 72.4254 16.5213 72.8064 16.1288Z" fill="#2A2E33"/>
<path d="M72.82 20.5456C73.201 20.153 73.201 19.5166 72.82 19.124C72.439 18.7315 71.8213 18.7315 71.4403 19.124C71.0593 19.5166 71.0593 20.153 71.4403 20.5456C71.8213 20.9381 72.439 20.9381 72.82 20.5456Z" fill="#394651"/>
<path d="M72.7649 24.8915C73.1459 24.499 73.1459 23.8625 72.7649 23.47C72.3839 23.0774 71.7662 23.0774 71.3852 23.47C71.0042 23.8625 71.0042 24.499 71.3852 24.8915C71.7662 25.2841 72.3839 25.2841 72.7649 24.8915Z" fill="#2A2E33"/>
<path d="M27.0245 20.2366C27.0245 22.649 25.366 24.5589 23.1221 24.961C22.8294 25.0615 22.6343 25.0615 22.3416 25.0615C19.805 25.0615 17.6587 22.9506 17.6587 20.2366C17.6587 17.6231 19.7075 15.4117 22.3416 15.4117C22.6343 15.4117 22.8294 15.4117 23.1221 15.5122C25.366 15.8138 27.0245 17.8241 27.0245 20.2366Z" fill="#273850"/>
<path d="M89.9513 58.2328H23.1221V67.4805H89.9513V58.2328Z" fill="#25303F"/>
<path d="M89.9513 63.0577H23.1221V60.6452L89.9513 59.8411V63.0577Z" fill="#273850"/>
<path d="M13.0732 61.2484V58.2328H79.9025V67.38H13.0732V64.2639" fill="#232A32"/>
<path d="M79.9025 59.5396H13.0732V63.0577H79.9025V59.5396Z" fill="#364151"/>
<path d="M89.0733 60.4442H13.5611C11.7075 60.4442 10.1465 58.8359 10.1465 56.926V40.7425C10.1465 38.8326 11.7075 37.2243 13.5611 37.2243H89.1709C91.0245 37.2243 92.5855 38.8326 92.5855 40.7425V56.926C92.488 58.8359 91.0245 60.4442 89.0733 60.4442Z" fill="#2E3746"/>
<path d="M19.805 37.2243H78.4392C79.805 37.2243 80.8782 38.33 80.8782 39.7373V58.0317C80.8782 59.439 79.805 60.5447 78.4392 60.5447H12.5855C11.2197 60.5447 10.1465 59.439 10.1465 58.0317V39.6368C10.1465 38.2295 11.2197 37.1238 12.5855 37.1238H14.244" fill="#545D71"/>
<path d="M38.6042 45.6721C38.9852 45.2796 38.9852 44.6431 38.6042 44.2506C38.2232 43.858 37.6055 43.858 37.2245 44.2506C36.8435 44.6431 36.8435 45.2796 37.2245 45.6721C37.6055 46.0647 38.2232 46.0647 38.6042 45.6721Z" fill="#2A2E33"/>
<path d="M38.6181 50.089C38.9991 49.6965 38.9991 49.06 38.6181 48.6675C38.2371 48.2749 37.6194 48.2749 37.2384 48.6675C36.8574 49.06 36.8574 49.6965 37.2384 50.089C37.6194 50.4816 38.2371 50.4816 38.6181 50.089Z" fill="#2A2E33"/>
<path d="M37.9512 54.8151C38.49 54.8151 38.9268 54.365 38.9268 53.8099C38.9268 53.2547 38.49 52.8047 37.9512 52.8047C37.4124 52.8047 36.9756 53.2547 36.9756 53.8099C36.9756 54.365 37.4124 54.8151 37.9512 54.8151Z" fill="url(#paint2_linear)"/>
<path d="M42.8987 48.0671C43.2797 47.6745 43.2797 47.0381 42.8987 46.6456C42.5177 46.253 41.9 46.253 41.519 46.6456C41.138 47.0381 41.138 47.6745 41.519 48.0671C41.9 48.4596 42.5177 48.4596 42.8987 48.0671Z" fill="#2A2E33"/>
<path d="M42.9124 52.484C43.2933 52.0914 43.2933 51.455 42.9124 51.0624C42.5314 50.6699 41.9136 50.6699 41.5326 51.0624C41.1516 51.455 41.1516 52.0914 41.5326 52.484C41.9136 52.8765 42.5314 52.8765 42.9124 52.484Z" fill="#405872"/>
<path d="M47.1091 45.7147C47.4901 45.3222 47.4901 44.6857 47.1091 44.2932C46.7281 43.9006 46.1104 43.9006 45.7294 44.2932C45.3484 44.6857 45.3484 45.3222 45.7294 45.7147C46.1104 46.1073 46.7281 46.1073 47.1091 45.7147Z" fill="#2A2E33"/>
<path d="M47.1228 50.1315C47.5038 49.739 47.5038 49.1026 47.1228 48.71C46.7418 48.3175 46.1241 48.3175 45.7431 48.71C45.3621 49.1026 45.3621 49.739 45.7431 50.1315C46.1241 50.5241 46.7418 50.5241 47.1228 50.1315Z" fill="#394651"/>
<path d="M47.1367 54.5485C47.5177 54.1559 47.5177 53.5195 47.1367 53.1269C46.7557 52.7344 46.138 52.7344 45.757 53.1269C45.376 53.5195 45.376 54.1559 45.757 54.5485C46.138 54.941 46.7557 54.941 47.1367 54.5485Z" fill="#2A2E33"/>
<path d="M51.4036 48.1097C51.7846 47.7171 51.7846 47.0807 51.4036 46.6882C51.0226 46.2956 50.4048 46.2956 50.0238 46.6882C49.6428 47.0807 49.6428 47.7171 50.0238 48.1097C50.4048 48.5022 51.0226 48.5022 51.4036 48.1097Z" fill="#2A2E33"/>
<path d="M51.4174 52.5265C51.7984 52.134 51.7984 51.4975 51.4174 51.105C51.0364 50.7124 50.4187 50.7124 50.0377 51.105C49.6568 51.4975 49.6568 52.134 50.0377 52.5265C50.4187 52.9191 51.0364 52.9191 51.4174 52.5265Z" fill="#2A2E33"/>
<path d="M55.6828 45.6862C56.0638 45.2936 56.0638 44.6572 55.6828 44.2646C55.3018 43.8721 54.6841 43.8721 54.3031 44.2646C53.9221 44.6572 53.9221 45.2936 54.3031 45.6862C54.6841 46.0787 55.3018 46.0787 55.6828 45.6862Z" fill="#2A2E33"/>
<path d="M55.6965 50.103C56.0775 49.7104 56.0775 49.074 55.6965 48.6814C55.3155 48.2889 54.6978 48.2889 54.3168 48.6814C53.9358 49.074 53.9358 49.7104 54.3168 50.103C54.6978 50.4955 55.3155 50.4955 55.6965 50.103Z" fill="#2A2E33"/>
<path d="M55.7107 54.52C56.0917 54.1274 56.0917 53.491 55.7107 53.0984C55.3297 52.7059 54.712 52.7059 54.331 53.0984C53.95 53.491 53.95 54.1274 54.331 54.52C54.712 54.9125 55.3297 54.9125 55.7107 54.52Z" fill="#2A2E33"/>
<path d="M59.9773 48.0811C60.3583 47.6886 60.3583 47.0521 59.9773 46.6596C59.5963 46.2671 58.9786 46.2671 58.5976 46.6596C58.2166 47.0521 58.2166 47.6886 58.5976 48.0811C58.9786 48.4737 59.5963 48.4737 59.9773 48.0811Z" fill="#2A2E33"/>
<path d="M59.9912 52.498C60.3722 52.1055 60.3722 51.469 59.9912 51.0765C59.6102 50.6839 58.9925 50.6839 58.6115 51.0765C58.2305 51.469 58.2305 52.1055 58.6115 52.498C58.9925 52.8905 59.6102 52.8905 59.9912 52.498Z" fill="#2A2E33"/>
<path d="M63.6099 45.9695C64.1487 45.9695 64.5855 45.5194 64.5855 44.9643C64.5855 44.4091 64.1487 43.9591 63.6099 43.9591C63.0711 43.9591 62.6343 44.4091 62.6343 44.9643C62.6343 45.5194 63.0711 45.9695 63.6099 45.9695Z" fill="url(#paint3_linear)"/>
<path d="M64.2705 50.0745C64.6514 49.6819 64.6514 49.0455 64.2705 48.6529C63.8895 48.2604 63.2718 48.2604 62.8908 48.6529C62.5098 49.0455 62.5098 49.6819 62.8908 50.0745C63.2718 50.467 63.8895 50.467 64.2705 50.0745Z" fill="#394651"/>
<path d="M64.2844 54.4914C64.6654 54.0989 64.6654 53.4624 64.2844 53.0699C63.9034 52.6773 63.2857 52.6773 62.9047 53.0699C62.5237 53.4624 62.5237 54.0989 62.9047 54.4914C63.2857 54.8839 63.9034 54.8839 64.2844 54.4914Z" fill="#2A2E33"/>
<path d="M68.4821 48.1237C68.8631 47.7311 68.8631 47.0947 68.4821 46.7021C68.1011 46.3096 67.4834 46.3096 67.1024 46.7021C66.7215 47.0947 66.7215 47.7311 67.1024 48.1237C67.4834 48.5162 68.1011 48.5162 68.4821 48.1237Z" fill="#2A2E33"/>
<path d="M68.4958 52.5406C68.8768 52.148 68.8768 51.5115 68.4958 51.119C68.1148 50.7264 67.4971 50.7264 67.1161 51.119C66.7351 51.5115 66.7351 52.148 67.1161 52.5406C67.4971 52.9331 68.1148 52.9331 68.4958 52.5406Z" fill="#2A2E33"/>
<path d="M72.7614 45.7002C73.1424 45.3077 73.1424 44.6712 72.7614 44.2787C72.3804 43.8861 71.7627 43.8861 71.3817 44.2787C71.0007 44.6712 71.0007 45.3077 71.3817 45.7002C71.7627 46.0928 72.3804 46.0928 72.7614 45.7002Z" fill="#2A2E33"/>
<path d="M72.7751 50.117C73.1561 49.7245 73.1561 49.088 72.7751 48.6955C72.3941 48.3029 71.7764 48.3029 71.3954 48.6955C71.0144 49.088 71.0144 49.7245 71.3954 50.117C71.7764 50.5096 72.3941 50.5096 72.7751 50.117Z" fill="#2A2E33"/>
<path d="M72.7893 54.534C73.1702 54.1414 73.1702 53.505 72.7893 53.1124C72.4083 52.7199 71.7906 52.7199 71.4096 53.1124C71.0286 53.505 71.0286 54.1414 71.4096 54.534C71.7906 54.9265 72.4083 54.9265 72.7893 54.534Z" fill="#2A2E33"/>
<path d="M27.0245 49.7891C27.0245 52.2016 25.366 54.1115 23.1221 54.5135C22.8294 54.614 22.6343 54.614 22.3416 54.614C19.805 54.614 17.6587 52.5031 17.6587 49.7891C17.6587 47.1756 19.7075 44.9642 22.3416 44.9642C22.6343 44.9642 22.8294 44.9642 23.1221 45.0648C25.366 45.4668 27.0245 47.4772 27.0245 49.7891Z" fill="#273850"/>
<path d="M89.9513 87.7853H23.1221V97.033H89.9513V87.7853Z" fill="#25303F"/>
<path d="M89.9513 92.6102H23.1221V90.1978L89.9513 82.7594V92.6102Z" fill="#273850"/>
<path d="M13.0732 90.9014V87.7853H79.9025V97.033H13.0732V93.9169" fill="#232A32"/>
<path d="M79.9025 87.8859H13.0732V92.6102H79.9025V87.8859Z" fill="#364151"/>
<path d="M89.0733 89.9967H13.5611C11.7075 89.9967 10.1465 88.3884 10.1465 86.4786V70.295C10.1465 68.3852 11.7075 66.7769 13.5611 66.7769H89.1709C91.0245 66.7769 92.5855 68.3852 92.5855 70.295V86.4786C92.488 88.4889 91.0245 89.9967 89.0733 89.9967Z" fill="#2E3746"/>
<path d="M19.805 66.7769H78.4392C79.805 66.7769 80.8782 67.8826 80.8782 69.2898V87.5843C80.8782 88.9915 79.805 90.0972 78.4392 90.0972H12.5855C11.2197 90.0972 10.1465 88.9915 10.1465 87.5843V69.2898C10.1465 67.8826 11.2197 66.7769 12.5855 66.7769H14.244" fill="#545D71"/>
<path d="M38.6284 75.3146C39.0094 74.9221 39.0094 74.2856 38.6284 73.8931C38.2474 73.5005 37.6297 73.5005 37.2487 73.8931C36.8677 74.2856 36.8677 74.9221 37.2487 75.3146C37.6297 75.7072 38.2474 75.7072 38.6284 75.3146Z" fill="#2A2E33"/>
<path d="M38.6423 79.7315C39.0233 79.3389 39.0233 78.7025 38.6423 78.3099C38.2613 77.9174 37.6436 77.9174 37.2626 78.3099C36.8816 78.7025 36.8816 79.3389 37.2626 79.7315C37.6436 80.1241 38.2613 80.1241 38.6423 79.7315Z" fill="#2A2E33"/>
<path d="M38.656 84.1484C39.037 83.7559 39.037 83.1194 38.656 82.7269C38.275 82.3343 37.6573 82.3343 37.2763 82.7269C36.8953 83.1194 36.8953 83.7559 37.2763 84.1484C37.6573 84.541 38.275 84.541 38.656 84.1484Z" fill="#394651"/>
<path d="M42.2442 78.0349C42.783 78.0349 43.2198 77.5849 43.2198 77.0298C43.2198 76.4746 42.783 76.0246 42.2442 76.0246C41.7054 76.0246 41.2686 76.4746 41.2686 77.0298C41.2686 77.5849 41.7054 78.0349 42.2442 78.0349Z" fill="url(#paint4_linear)"/>
<path d="M42.9368 82.1264C43.3178 81.7339 43.3178 81.0975 42.9368 80.7049C42.5558 80.3124 41.938 80.3124 41.557 80.7049C41.176 81.0975 41.176 81.7339 41.557 82.1264C41.938 82.519 42.5558 82.519 42.9368 82.1264Z" fill="#2A2E33"/>
<path d="M47.1333 75.3572C47.5142 74.9647 47.5142 74.3282 47.1333 73.9357C46.7523 73.5431 46.1346 73.5431 45.7536 73.9357C45.3726 74.3282 45.3726 74.9647 45.7536 75.3572C46.1346 75.7498 46.7523 75.7498 47.1333 75.3572Z" fill="#2A2E33"/>
<path d="M47.147 79.774C47.528 79.3815 47.528 78.745 47.147 78.3525C46.766 77.96 46.1483 77.96 45.7673 78.3525C45.3863 78.745 45.3863 79.3815 45.7673 79.774C46.1483 80.1666 46.766 80.1666 47.147 79.774Z" fill="#394651"/>
<path d="M47.1608 84.191C47.5418 83.7984 47.5418 83.162 47.1608 82.7694C46.7798 82.3769 46.1621 82.3769 45.7812 82.7694C45.4002 83.162 45.4002 83.7984 45.7812 84.191C46.1621 84.5835 46.7798 84.5835 47.1608 84.191Z" fill="#394651"/>
<path d="M51.4274 77.7521C51.8084 77.3596 51.8084 76.7231 51.4274 76.3306C51.0465 75.938 50.4287 75.938 50.0478 76.3306C49.6668 76.7231 49.6668 77.3596 50.0478 77.7521C50.4287 78.1447 51.0465 78.1447 51.4274 77.7521Z" fill="#394651"/>
<path d="M51.4416 82.169C51.8226 81.7764 51.8226 81.14 51.4416 80.7474C51.0606 80.3549 50.4429 80.3549 50.0619 80.7474C49.6809 81.14 49.6809 81.7764 50.0619 82.169C50.4429 82.5616 51.0606 82.5616 51.4416 82.169Z" fill="#2A2E33"/>
<path d="M55.707 75.3287C56.088 74.9362 56.088 74.2997 55.707 73.9072C55.326 73.5146 54.7083 73.5146 54.3273 73.9072C53.9463 74.2997 53.9463 74.9362 54.3273 75.3287C54.7083 75.7213 55.326 75.7213 55.707 75.3287Z" fill="#394651"/>
<path d="M55.7209 79.7455C56.1019 79.353 56.1019 78.7165 55.7209 78.324C55.3399 77.9314 54.7222 77.9314 54.3412 78.324C53.9602 78.7165 53.9602 79.353 54.3412 79.7455C54.7222 80.1381 55.3399 80.1381 55.7209 79.7455Z" fill="#2A2E33"/>
<path d="M55.7346 84.1625C56.1156 83.7699 56.1156 83.1335 55.7346 82.7409C55.3536 82.3484 54.7359 82.3484 54.3549 82.7409C53.9739 83.1335 53.9739 83.7699 54.3549 84.1625C54.7359 84.555 55.3536 84.555 55.7346 84.1625Z" fill="#2A2E33"/>
<path d="M60.0017 77.7236C60.3827 77.3311 60.3827 76.6946 60.0017 76.3021C59.6207 75.9095 59.003 75.9095 58.622 76.3021C58.241 76.6946 58.241 77.3311 58.622 77.7236C59.003 78.1162 59.6207 78.1162 60.0017 77.7236Z" fill="#2A2E33"/>
<path d="M60.0154 82.1405C60.3964 81.7479 60.3964 81.1115 60.0154 80.719C59.6344 80.3264 59.0167 80.3264 58.6357 80.719C58.2547 81.1115 58.2547 81.7479 58.6357 82.1405C59.0167 82.533 59.6344 82.533 60.0154 82.1405Z" fill="#394651"/>
<path d="M64.281 75.3001C64.662 74.9076 64.662 74.2712 64.281 73.8786C63.9 73.4861 63.2823 73.4861 62.9013 73.8786C62.5203 74.2712 62.5203 74.9076 62.9013 75.3001C63.2823 75.6927 63.9 75.6927 64.281 75.3001Z" fill="#2A2E33"/>
<path d="M64.2946 79.717C64.6756 79.3244 64.6756 78.688 64.2946 78.2954C63.9136 77.9029 63.2959 77.9029 62.9149 78.2954C62.534 78.688 62.534 79.3244 62.9149 79.717C63.2959 80.1095 63.9136 80.1095 64.2946 79.717Z" fill="#2A2E33"/>
<path d="M63.6099 84.4682C64.1487 84.4682 64.5855 84.0181 64.5855 83.463C64.5855 82.9078 64.1487 82.4578 63.6099 82.4578C63.0711 82.4578 62.6343 82.9078 62.6343 83.463C62.6343 84.0181 63.0711 84.4682 63.6099 84.4682Z" fill="url(#paint5_linear)"/>
<path d="M68.5063 77.7662C68.8873 77.3737 68.8873 76.7372 68.5063 76.3447C68.1253 75.9521 67.5076 75.9521 67.1266 76.3447C66.7456 76.7372 66.7456 77.3737 67.1266 77.7662C67.5076 78.1588 68.1253 78.1588 68.5063 77.7662Z" fill="#394651"/>
<path d="M68.5202 82.183C68.9012 81.7905 68.9012 81.154 68.5202 80.7615C68.1392 80.3689 67.5215 80.3689 67.1405 80.7615C66.7595 81.154 66.7595 81.7905 67.1405 82.183C67.5215 82.5756 68.1392 82.5756 68.5202 82.183Z" fill="#2A2E33"/>
<path d="M72.7856 75.3427C73.1666 74.9502 73.1666 74.3137 72.7856 73.9211C72.4046 73.5286 71.7869 73.5286 71.4059 73.9211C71.0249 74.3137 71.0249 74.9502 71.4059 75.3427C71.7869 75.7353 72.4046 75.7353 72.7856 75.3427Z" fill="#2A2E33"/>
<path d="M72.7996 79.7595C73.1806 79.367 73.1806 78.7305 72.7996 78.338C72.4186 77.9454 71.8008 77.9454 71.4198 78.338C71.0388 78.7305 71.0388 79.367 71.4198 79.7595C71.8008 80.152 72.4186 80.152 72.7996 79.7595Z" fill="#394651"/>
<path d="M72.8132 84.1765C73.1942 83.7839 73.1942 83.1475 72.8132 82.755C72.4322 82.3624 71.8145 82.3624 71.4335 82.755C71.0525 83.1475 71.0525 83.7839 71.4335 84.1765C71.8145 84.569 72.4322 84.569 72.8132 84.1765Z" fill="#2A2E33"/>
<path d="M27.0245 79.4422C27.0245 81.8547 25.366 83.7645 23.1221 84.1666C22.8294 84.2671 22.6343 84.2671 22.3416 84.2671C19.805 84.2671 17.6587 82.1562 17.6587 79.4422C17.6587 76.8287 19.7075 74.6173 22.3416 74.6173C22.6343 74.6173 22.8294 74.6173 23.1221 74.7178C25.366 75.1199 27.0245 77.0298 27.0245 79.4422Z" fill="#273850"/>
<path d="M27.0246 20.2366C27.0246 22.649 25.3661 24.5589 23.1222 24.961C20.8783 24.5589 19.2197 22.649 19.2197 20.2366C19.2197 17.8241 20.8783 15.9143 23.1222 15.5122C25.3661 15.8138 27.0246 17.8241 27.0246 20.2366Z" fill="#364151"/>
<path d="M27.0246 49.7892C27.0246 52.2017 25.3661 54.1115 23.1222 54.5136C20.8783 54.1115 19.2197 52.2017 19.2197 49.7892C19.2197 47.3768 20.8783 45.4669 23.1222 45.0648C25.3661 45.4669 27.0246 47.4773 27.0246 49.7892Z" fill="#364151"/>
<path d="M27.0246 79.4423C27.0246 81.8547 25.3661 83.7646 23.1222 84.1667C20.8783 83.7646 19.2197 81.8547 19.2197 79.4423C19.2197 77.0298 20.8783 75.12 23.1222 74.7179C25.3661 75.12 27.0246 77.0298 27.0246 79.4423Z" fill="#364151"/>
<path d="M2.73193 97.6362H120" stroke="#2B323C" stroke-width="2" stroke-miterlimit="10" stroke-linecap="round" stroke-linejoin="round"/>
<path opacity="0.1" d="M94.9269 54.8151V93.4144C94.9269 95.7263 93.1708 97.5357 90.9269 97.5357H47.8049C45.561 97.5357 43.8049 95.7263 43.8049 93.4144V54.8151C43.8049 52.5032 45.561 50.6938 47.8049 50.6938H90.9269C93.1708 50.6938 94.9269 52.5032 94.9269 54.8151Z" fill="black"/>
<path d="M100.781 54.8151V93.4144C100.781 95.7263 99.0244 97.5357 96.7805 97.5357H53.561C51.3171 97.5357 49.561 95.7263 49.561 93.4144V54.8151C49.561 52.5032 51.3171 50.6938 53.561 50.6938H96.683C98.9269 50.6938 100.781 52.5032 100.781 54.8151Z" fill="#545D71"/>
<path d="M100.781 54.8151V63.7613H49.561V54.8151C49.561 52.5032 51.3171 50.6938 53.561 50.6938H96.683C98.9269 50.6938 100.781 52.5032 100.781 54.8151Z" fill="url(#paint6_linear)"/>
<path d="M60.0975 77.0298H56.5853C55.6097 77.0298 54.7317 76.2257 54.7317 75.12V71.5013C54.7317 70.4961 55.5122 69.5914 56.5853 69.5914H60.0975C61.0732 69.5914 61.9512 70.3956 61.9512 71.5013V75.12C61.9512 76.2257 61.0732 77.0298 60.0975 77.0298Z" fill="#364151"/>
<path d="M71.317 77.0298H67.8048C66.8292 77.0298 65.9512 76.2257 65.9512 75.12V71.5013C65.9512 70.4961 66.7317 69.5914 67.8048 69.5914H71.317C72.2926 69.5914 73.1707 70.3956 73.1707 71.5013V75.12C73.1707 76.2257 72.2926 77.0298 71.317 77.0298Z" fill="#2E3746"/>
<path d="M82.5365 77.0298H79.0243C78.0487 77.0298 77.1707 76.2257 77.1707 75.12V71.5013C77.1707 70.4961 77.9511 69.5914 79.0243 69.5914H82.5365C83.5121 69.5914 84.3902 70.3956 84.3902 71.5013V75.12C84.3902 76.2257 83.5121 77.0298 82.5365 77.0298Z" fill="#364151"/>
<path d="M93.756 77.0298H90.2438C89.2682 77.0298 88.3901 76.2257 88.3901 75.12V71.5013C88.3901 70.4961 89.1706 69.5914 90.2438 69.5914H93.756C94.7316 69.5914 95.6097 70.3956 95.6097 71.5013V75.12C95.6097 76.2257 94.7316 77.0298 93.756 77.0298Z" fill="#364151"/>
<path d="M60.0975 88.5895H56.5853C55.6097 88.5895 54.7317 87.7854 54.7317 86.6797V83.061C54.7317 82.0558 55.5122 81.1511 56.5853 81.1511H60.0975C61.0732 81.1511 61.9512 81.9553 61.9512 83.061V86.6797C61.9512 87.7854 61.0732 88.5895 60.0975 88.5895Z" fill="#2E3746"/>
<path d="M71.317 88.5895H67.8048C66.8292 88.5895 65.9512 87.7854 65.9512 86.6797V83.061C65.9512 82.0558 66.7317 81.1511 67.8048 81.1511H71.317C72.2926 81.1511 73.1707 81.9553 73.1707 83.061V86.6797C73.1707 87.7854 72.2926 88.5895 71.317 88.5895Z" fill="#364151"/>
<path d="M82.5365 88.5895H79.0243C78.0487 88.5895 77.1707 87.7854 77.1707 86.6797V83.061C77.1707 82.0558 77.9511 81.1511 79.0243 81.1511H82.5365C83.5121 81.1511 84.3902 81.9553 84.3902 83.061V86.6797C84.3902 87.7854 83.5121 88.5895 82.5365 88.5895Z" fill="#2E3746"/>
<path d="M93.756 88.5895H90.2438C89.2682 88.5895 88.3901 87.7854 88.3901 86.6797V83.061C88.3901 82.0558 89.1706 81.1511 90.2438 81.1511H93.756C94.7316 81.1511 95.6097 81.9553 95.6097 83.061V86.6797C95.6097 87.7854 94.7316 88.5895 93.756 88.5895Z" fill="#364151"/>
<path d="M61.5611 45.8689H58.8293V56.1218H61.5611V45.8689Z" fill="#2E3746"/>
<path d="M91.6099 45.8689H88.8782V56.1218H91.6099V45.8689Z" fill="#2E3746"/>
<path d="M100.781 90.5998L94.244 97.3346L94.1465 97.4351V91.9065C94.1465 91.1024 94.7319 90.4993 95.5123 90.4993H100.781V90.5998Z" fill="#2E3746"/>
<path d="M117.185 69.0988C117.087 69.4003 117.087 69.8024 116.989 70.1039C116.697 71.1091 116.404 72.014 116.014 72.8181C115.916 73.1197 115.819 73.3205 115.721 73.6221C114.063 76.9392 111.428 79.6533 108.209 81.2616C107.819 81.4627 107.428 81.6637 107.136 81.7642C106.843 81.8647 106.453 82.0657 106.16 82.1662C103.331 83.1714 100.209 83.4731 96.9894 82.7694C87.7211 80.759 81.7698 71.411 83.721 61.8617C85.6723 52.3124 94.7455 46.1806 104.014 48.191C107.331 48.8947 110.258 50.6033 112.697 53.0157C116.599 57.137 118.355 63.2687 117.185 69.0988Z" fill="url(#paint7_linear)"/>
<path d="M116.878 70.094C116.585 71.0992 116.293 71.9033 115.902 72.808C115.805 73.1096 115.707 73.3106 115.61 73.6122C113.951 76.9293 111.317 79.6433 108.098 81.2516C107.707 81.4526 107.317 81.6537 106.927 81.7542C106.634 81.8547 106.244 82.0557 105.951 82.1563L95.4146 71.1997L96.3902 69.893L91.7073 64.867L96 61.5499L101.268 58.9364L104.585 59.8411L106.829 59.9416L116.878 70.094Z" fill="url(#paint8_linear)"/>
<path d="M101.171 57.2277C97.5611 57.2277 94.4391 59.7406 93.4635 63.3593C92.2928 63.3593 92.0977 63.3593 91.9025 63.6609C91.5123 64.0629 91.5123 64.5655 91.9025 64.9676L93.9513 67.0785C94.3416 67.4806 94.8294 67.4806 95.2196 67.0785L97.2684 64.9676C97.6586 64.5655 97.6586 64.0629 97.2684 63.6609C97.0733 63.4598 96.8782 63.3593 96.683 63.3593C96.3904 63.3593 96.1952 63.3593 96.0001 63.3593C97.0733 60.3437 100.39 58.836 103.317 59.9417C106.244 61.0474 107.707 64.465 106.634 67.4806C105.756 69.692 103.707 71.1998 101.366 71.1998C99.805 71.1998 98.3416 70.5967 97.2684 69.3904C96.7806 68.8878 96.0977 68.8878 95.6099 69.3904C95.1221 69.893 95.1221 70.5967 95.6099 71.0993C98.6343 74.4164 103.707 74.5169 106.927 71.4008C110.146 68.2847 110.244 63.0578 107.22 59.7406C105.366 58.1323 103.317 57.2277 101.171 57.2277Z" fill="url(#paint9_linear)"/>
<defs>
<linearGradient id="paint0_linear" x1="0" y1="56.2279" x2="3.22478" y2="56.2279" gradientUnits="userSpaceOnUse">
<stop stop-color="#83A6FF"/>
<stop offset="1" stop-color="#5A78FF"/>
</linearGradient>
<linearGradient id="paint1_linear" x1="45.5045" y1="24.1958" x2="47.4469" y2="24.1958" gradientUnits="userSpaceOnUse">
<stop stop-color="#FF66A9"/>
<stop offset="1" stop-color="#F53689"/>
</linearGradient>
<linearGradient id="paint2_linear" x1="36.9585" y1="53.8134" x2="38.9008" y2="53.8134" gradientUnits="userSpaceOnUse">
<stop stop-color="#FF66A9"/>
<stop offset="1" stop-color="#F53689"/>
</linearGradient>
<linearGradient id="paint3_linear" x1="62.597" y1="45.0082" x2="64.5393" y2="45.0082" gradientUnits="userSpaceOnUse">
<stop stop-color="#FF66A9"/>
<stop offset="1" stop-color="#F53689"/>
</linearGradient>
<linearGradient id="paint4_linear" x1="41.2318" y1="77.0272" x2="43.1741" y2="77.0272" gradientUnits="userSpaceOnUse">
<stop stop-color="#FF66A9"/>
<stop offset="1" stop-color="#F53689"/>
</linearGradient>
<linearGradient id="paint5_linear" x1="62.597" y1="83.431" x2="64.5393" y2="83.431" gradientUnits="userSpaceOnUse">
<stop stop-color="#FF66A9"/>
<stop offset="1" stop-color="#F53689"/>
</linearGradient>
<linearGradient id="paint6_linear" x1="49.5935" y1="57.1929" x2="100.764" y2="57.1929" gradientUnits="userSpaceOnUse">
<stop stop-color="#FF66A9"/>
<stop offset="1" stop-color="#F53689"/>
</linearGradient>
<linearGradient id="paint7_linear" x1="83.1823" y1="65.4741" x2="117.502" y2="65.4741" gradientUnits="userSpaceOnUse">
<stop stop-color="#83A6FF"/>
<stop offset="1" stop-color="#5A78FF"/>
</linearGradient>
<linearGradient id="paint8_linear" x1="99.1534" y1="63.4581" x2="111.188" y2="75.139" gradientUnits="userSpaceOnUse">
<stop stop-color="#4F6AFF"/>
<stop offset="1" stop-color="#657EFF" stop-opacity="0"/>
</linearGradient>
<linearGradient id="paint9_linear" x1="107.07" y1="71.5948" x2="95.4055" y2="60.2732" gradientUnits="userSpaceOnUse">
<stop offset="0.0113208" stop-color="#C2D1FF"/>
<stop offset="1" stop-color="white"/>
</linearGradient>
</defs>
</svg>
