<svg width="109" height="123" viewBox="0 0 109 123" fill="none" xmlns="http://www.w3.org/2000/svg">
<path d="M1 121.477H108" stroke="#2B323C" stroke-width="2" stroke-miterlimit="10" stroke-linecap="round" stroke-linejoin="round"/>
<path d="M77.8179 120.641C69.8531 120.85 60.3164 120.641 53.6093 120.537C46.9021 120.746 37.3654 120.85 29.4006 120.641C37.2606 116.146 39.9854 107.888 40.4046 102.453H66.7092C67.338 107.888 70.0627 116.251 77.8179 120.641Z" fill="url(#paint0_linear)"/>
<path d="M30.239 122H76.9795C77.6083 122 78.2371 121.477 78.2371 120.746C78.2371 120.118 77.7131 119.491 76.9795 119.491H30.239C29.6102 119.491 28.9814 120.014 28.9814 120.746C29.0862 121.477 29.6102 122 30.239 122Z" fill="#353B4A"/>
<path d="M103.389 33.2543V101.617C103.389 103.289 102.026 104.544 100.454 104.544H7.28789C5.71591 104.544 4.35352 103.185 4.35352 101.617V33.2543C4.35352 31.6864 5.71591 30.3275 7.28789 30.3275H100.454C102.131 30.3275 103.389 31.5819 103.389 33.2543Z" fill="#353B4A"/>
<path d="M103.389 33.2543V92.1045H4.35352V33.2543C4.35352 31.6864 5.71591 30.3275 7.28789 30.3275H100.454C102.131 30.3275 103.389 31.5819 103.389 33.2543Z" fill="#262A31"/>
<path d="M99.6162 33.9861H7.70728V88.7596H99.6162V33.9861Z" fill="#474E61"/>
<path d="M53.6091 101.094C54.9403 101.094 56.0195 100.018 56.0195 98.6898C56.0195 97.362 54.9403 96.2856 53.6091 96.2856C52.2779 96.2856 51.1987 97.362 51.1987 98.6898C51.1987 100.018 52.2779 101.094 53.6091 101.094Z" fill="#262A31"/>
<path d="M11.7942 80.3972H9.69824V82.4878H11.7942V80.3972Z" fill="#353A4A"/>
<path d="M11.7942 76.3206H9.69824V78.4111H11.7942V76.3206Z" fill="#353A4A"/>
<path d="M11.7942 72.1394H9.69824V74.23H11.7942V72.1394Z" fill="#353A4A"/>
<path d="M11.7942 68.0627H9.69824V70.1533H11.7942V68.0627Z" fill="url(#paint1_linear)"/>
<path d="M11.7942 63.9861H9.69824V66.0767H11.7942V63.9861Z" fill="#353A4A"/>
<path d="M11.7942 59.8049H9.69824V61.8955H11.7942V59.8049Z" fill="#27292D"/>
<path d="M16.0909 84.4739H13.9949V86.5645H16.0909V84.4739Z" fill="#353A4A"/>
<path d="M16.0909 80.3972H13.9949V82.4878H16.0909V80.3972Z" fill="#353A4A"/>
<path d="M16.0909 72.1394H13.9949V74.23H16.0909V72.1394Z" fill="#353A4A"/>
<path d="M16.0909 68.0627H13.9949V70.1533H16.0909V68.0627Z" fill="#353A4A"/>
<path d="M16.0909 63.9861H13.9949V66.0767H16.0909V63.9861Z" fill="#353A4A"/>
<path d="M16.0909 59.8049H13.9949V61.8955H16.0909V59.8049Z" fill="#353A4A"/>
<path d="M16.0909 55.7283H13.9949V57.8189H16.0909V55.7283Z" fill="#353A4A"/>
<path d="M16.0909 51.547H13.9949V53.6376H16.0909V51.547Z" fill="url(#paint2_linear)"/>
<path d="M20.3877 84.4739H18.2917V86.5645H20.3877V84.4739Z" fill="#353A4A"/>
<path d="M20.3877 80.3972H18.2917V82.4878H20.3877V80.3972Z" fill="#353A4A"/>
<path d="M20.3877 76.3206H18.2917V78.4111H20.3877V76.3206Z" fill="#353A4A"/>
<path d="M20.3877 72.1394H18.2917V74.23H20.3877V72.1394Z" fill="#353A4A"/>
<path d="M20.3877 68.0627H18.2917V70.1533H20.3877V68.0627Z" fill="url(#paint3_linear)"/>
<path d="M20.3877 63.9861H18.2917V66.0767H20.3877V63.9861Z" fill="#27292D"/>
<path d="M20.3877 59.8049H18.2917V61.8955H20.3877V59.8049Z" fill="#353A4A"/>
<path d="M20.3877 55.7283H18.2917V57.8189H20.3877V55.7283Z" fill="#27292D"/>
<path d="M20.3877 51.547H18.2917V53.6376H20.3877V51.547Z" fill="#353A4A"/>
<path d="M20.3877 47.4703H18.2917V49.5609H20.3877V47.4703Z" fill="#27292D"/>
<path d="M24.6844 84.4739H22.5884V86.5645H24.6844V84.4739Z" fill="#353A4A"/>
<path d="M24.6844 80.3972H22.5884V82.4878H24.6844V80.3972Z" fill="#353A4A"/>
<path d="M24.6844 76.3206H22.5884V78.4111H24.6844V76.3206Z" fill="#353A4A"/>
<path d="M24.6844 72.1394H22.5884V74.23H24.6844V72.1394Z" fill="#353A4A"/>
<path d="M24.6844 68.0627H22.5884V70.1533H24.6844V68.0627Z" fill="#353A4A"/>
<path d="M24.6844 63.9861H22.5884V66.0767H24.6844V63.9861Z" fill="#27292D"/>
<path d="M24.6844 59.8049H22.5884V61.8955H24.6844V59.8049Z" fill="#353A4A"/>
<path d="M24.6844 55.7283H22.5884V57.8189H24.6844V55.7283Z" fill="#353A4A"/>
<path d="M28.9812 84.4739H26.8853V86.5645H28.9812V84.4739Z" fill="#353A4A"/>
<path d="M28.9812 80.3972H26.8853V82.4878H28.9812V80.3972Z" fill="#353A4A"/>
<path d="M28.9812 76.3206H26.8853V78.4111H28.9812V76.3206Z" fill="#353A4A"/>
<path d="M28.9812 68.0627H26.8853V70.1533H28.9812V68.0627Z" fill="#353A4A"/>
<path d="M28.9812 63.9861H26.8853V66.0767H28.9812V63.9861Z" fill="url(#paint4_linear)"/>
<path d="M28.9812 59.8049H26.8853V61.8955H28.9812V59.8049Z" fill="#27292D"/>
<path d="M33.2781 84.4739H31.1821V86.5645H33.2781V84.4739Z" fill="#353A4A"/>
<path d="M33.2781 80.3972H31.1821V82.4878H33.2781V80.3972Z" fill="#353A4A"/>
<path d="M33.2781 76.3206H31.1821V78.4111H33.2781V76.3206Z" fill="#353A4A"/>
<path d="M33.2781 72.1394H31.1821V74.23H33.2781V72.1394Z" fill="#353A4A"/>
<path d="M33.2781 68.0627H31.1821V70.1533H33.2781V68.0627Z" fill="#353A4A"/>
<path d="M33.2781 63.9861H31.1821V66.0767H33.2781V63.9861Z" fill="#353A4A"/>
<path d="M33.2781 59.8049H31.1821V61.8955H33.2781V59.8049Z" fill="#27292D"/>
<path d="M33.2781 55.7283H31.1821V57.8189H33.2781V55.7283Z" fill="#353A4A"/>
<path d="M33.2781 51.547H31.1821V53.6376H33.2781V51.547Z" fill="#353A4A"/>
<path d="M37.5747 84.4739H35.4788V86.5645H37.5747V84.4739Z" fill="#353A4A"/>
<path d="M37.5747 80.3972H35.4788V82.4878H37.5747V80.3972Z" fill="#353A4A"/>
<path d="M37.5747 76.3206H35.4788V78.4111H37.5747V76.3206Z" fill="#353A4A"/>
<path d="M37.5747 68.0627H35.4788V70.1533H37.5747V68.0627Z" fill="#353A4A"/>
<path d="M37.5747 63.9861H35.4788V66.0767H37.5747V63.9861Z" fill="#27292D"/>
<path d="M41.8716 84.4739H39.7756V86.5645H41.8716V84.4739Z" fill="url(#paint5_linear)"/>
<path d="M41.8716 80.3972H39.7756V82.4878H41.8716V80.3972Z" fill="#353A4A"/>
<path d="M41.8716 76.3206H39.7756V78.4111H41.8716V76.3206Z" fill="#353A4A"/>
<path d="M41.8716 72.1394H39.7756V74.23H41.8716V72.1394Z" fill="#27292D"/>
<path d="M41.8716 68.0627H39.7756V70.1533H41.8716V68.0627Z" fill="#353A4A"/>
<path d="M41.8716 59.8049H39.7756V61.8955H41.8716V59.8049Z" fill="#353A4A"/>
<path d="M41.8716 55.7283H39.7756V57.8189H41.8716V55.7283Z" fill="#27292D"/>
<path d="M46.1683 84.4739H44.0723V86.5645H46.1683V84.4739Z" fill="#353A4A"/>
<path d="M46.1683 80.3972H44.0723V82.4878H46.1683V80.3972Z" fill="#353A4A"/>
<path d="M46.1683 76.3206H44.0723V78.4111H46.1683V76.3206Z" fill="url(#paint6_linear)"/>
<path d="M46.1683 72.1394H44.0723V74.23H46.1683V72.1394Z" fill="#353A4A"/>
<path d="M46.1683 68.0627H44.0723V70.1533H46.1683V68.0627Z" fill="#353A4A"/>
<path d="M46.1683 63.9861H44.0723V66.0767H46.1683V63.9861Z" fill="#353A4A"/>
<path d="M46.1683 59.8049H44.0723V61.8955H46.1683V59.8049Z" fill="#27292D"/>
<path d="M46.1683 51.547H44.0723V53.6376H46.1683V51.547Z" fill="#353A4A"/>
<path d="M46.1683 47.4703H44.0723V49.5609H46.1683V47.4703Z" fill="#27292D"/>
<path d="M76.1409 80.3972H74.0449V82.4878H76.1409V80.3972Z" fill="#353A4A"/>
<path d="M76.1409 72.1394H74.0449V74.23H76.1409V72.1394Z" fill="#353A4A"/>
<path d="M76.1409 68.0627H74.0449V70.1533H76.1409V68.0627Z" fill="#353A4A"/>
<path d="M76.1409 63.9861H74.0449V66.0767H76.1409V63.9861Z" fill="#27292D"/>
<path d="M76.1409 59.8049H74.0449V61.8955H76.1409V59.8049Z" fill="#353A4A"/>
<path d="M76.1409 55.7283H74.0449V57.8189H76.1409V55.7283Z" fill="#353A4A"/>
<path d="M80.4375 84.4739H78.3416V86.5645H80.4375V84.4739Z" fill="#353A4A"/>
<path d="M80.4375 80.3972H78.3416V82.4878H80.4375V80.3972Z" fill="#353A4A"/>
<path d="M80.4375 76.3206H78.3416V78.4111H80.4375V76.3206Z" fill="#353A4A"/>
<path d="M80.4375 72.1394H78.3416V74.23H80.4375V72.1394Z" fill="#353A4A"/>
<path d="M80.4375 68.0627H78.3416V70.1533H80.4375V68.0627Z" fill="#353A4A"/>
<path d="M80.4375 63.9861H78.3416V66.0767H80.4375V63.9861Z" fill="url(#paint7_linear)"/>
<path d="M80.4375 59.8049H78.3416V61.8955H80.4375V59.8049Z" fill="#27292D"/>
<path d="M84.7344 84.4739H82.6384V86.5645H84.7344V84.4739Z" fill="#353A4A"/>
<path d="M84.7344 80.3972H82.6384V82.4878H84.7344V80.3972Z" fill="#353A4A"/>
<path d="M84.7344 76.3206H82.6384V78.4111H84.7344V76.3206Z" fill="#353A4A"/>
<path d="M84.7344 72.1394H82.6384V74.23H84.7344V72.1394Z" fill="#353A4A"/>
<path d="M84.7344 68.0627H82.6384V70.1533H84.7344V68.0627Z" fill="#353A4A"/>
<path d="M84.7344 63.9861H82.6384V66.0767H84.7344V63.9861Z" fill="#353A4A"/>
<path d="M84.7344 59.8049H82.6384V61.8955H84.7344V59.8049Z" fill="#27292D"/>
<path d="M84.7344 55.7283H82.6384V57.8189H84.7344V55.7283Z" fill="#353A4A"/>
<path d="M84.7344 51.547H82.6384V53.6376H84.7344V51.547Z" fill="#353A4A"/>
<path d="M89.0313 84.4739H86.9353V86.5645H89.0313V84.4739Z" fill="#353A4A"/>
<path d="M89.0313 80.3972H86.9353V82.4878H89.0313V80.3972Z" fill="#353A4A"/>
<path d="M89.0313 76.3206H86.9353V78.4111H89.0313V76.3206Z" fill="#353A4A"/>
<path d="M89.0313 72.1394H86.9353V74.23H89.0313V72.1394Z" fill="#353A4A"/>
<path d="M89.0313 68.0627H86.9353V70.1533H89.0313V68.0627Z" fill="#353A4A"/>
<path d="M93.3279 84.4739H91.2319V86.5645H93.3279V84.4739Z" fill="url(#paint8_linear)"/>
<path d="M93.3279 80.3972H91.2319V82.4878H93.3279V80.3972Z" fill="#353A4A"/>
<path d="M93.3279 76.3206H91.2319V78.4111H93.3279V76.3206Z" fill="#353A4A"/>
<path d="M93.3279 72.1394H91.2319V74.23H93.3279V72.1394Z" fill="#27292D"/>
<path d="M93.3279 68.0627H91.2319V70.1533H93.3279V68.0627Z" fill="#353A4A"/>
<path d="M93.3279 63.9861H91.2319V66.0767H93.3279V63.9861Z" fill="url(#paint9_linear)"/>
<path d="M93.3279 59.8049H91.2319V61.8955H93.3279V59.8049Z" fill="#353A4A"/>
<path d="M93.3279 55.7283H91.2319V57.8189H93.3279V55.7283Z" fill="#27292D"/>
<path d="M97.6248 84.4739H95.5288V86.5645H97.6248V84.4739Z" fill="#353A4A"/>
<path d="M97.6248 80.3972H95.5288V82.4878H97.6248V80.3972Z" fill="#353A4A"/>
<path d="M97.6248 76.3206H95.5288V78.4111H97.6248V76.3206Z" fill="url(#paint10_linear)"/>
<path d="M97.6248 72.1394H95.5288V74.23H97.6248V72.1394Z" fill="#353A4A"/>
<path d="M97.6248 68.0627H95.5288V70.1533H97.6248V68.0627Z" fill="#353A4A"/>
<path d="M97.6248 63.9861H95.5288V66.0767H97.6248V63.9861Z" fill="#353A4A"/>
<path d="M97.6248 59.8049H95.5288V61.8955H97.6248V59.8049Z" fill="#27292D"/>
<path d="M97.6248 51.547H95.5288V53.6376H97.6248V51.547Z" fill="#353A4A"/>
<path d="M97.6248 47.4703H95.5288V49.5609H97.6248V47.4703Z" fill="#27292D"/>
<path d="M50.3601 84.4739H48.2642V86.5645H50.3601V84.4739Z" fill="#353A4A"/>
<path d="M50.3601 80.3972H48.2642V82.4878H50.3601V80.3972Z" fill="#353A4A"/>
<path d="M50.3601 76.3206H48.2642V78.4111H50.3601V76.3206Z" fill="#353A4A"/>
<path d="M50.3601 68.0627H48.2642V70.1533H50.3601V68.0627Z" fill="#27292D"/>
<path d="M50.3601 59.8049H48.2642V61.8955H50.3601V59.8049Z" fill="#353A4A"/>
<path d="M50.3601 55.7283H48.2642V57.8189H50.3601V55.7283Z" fill="#27292D"/>
<path d="M50.3601 51.547H48.2642V53.6376H50.3601V51.547Z" fill="#353A4A"/>
<path d="M50.3601 47.4703H48.2642V49.5609H50.3601V47.4703Z" fill="#27292D"/>
<path d="M54.657 80.3972H52.561V82.4878H54.657V80.3972Z" fill="#353A4A"/>
<path d="M54.657 76.3206H52.561V78.4111H54.657V76.3206Z" fill="#27292D"/>
<path d="M54.657 72.1394H52.561V74.23H54.657V72.1394Z" fill="#353A4A"/>
<path d="M54.657 68.0627H52.561V70.1533H54.657V68.0627Z" fill="#353A4A"/>
<path d="M54.657 63.9861H52.561V66.0767H54.657V63.9861Z" fill="url(#paint11_linear)"/>
<path d="M54.657 59.8049H52.561V61.8955H54.657V59.8049Z" fill="#353A4A"/>
<path d="M54.657 55.7283H52.561V57.8189H54.657V55.7283Z" fill="#353A4A"/>
<path d="M58.9539 84.4739H56.8579V86.5645H58.9539V84.4739Z" fill="#353A4A"/>
<path d="M58.9539 76.3206H56.8579V78.4111H58.9539V76.3206Z" fill="#353A4A"/>
<path d="M58.9539 72.1394H56.8579V74.23H58.9539V72.1394Z" fill="url(#paint12_linear)"/>
<path d="M58.9539 68.0627H56.8579V70.1533H58.9539V68.0627Z" fill="#353A4A"/>
<path d="M58.9539 63.9861H56.8579V66.0767H58.9539V63.9861Z" fill="#27292D"/>
<path d="M58.9539 59.8049H56.8579V61.8955H58.9539V59.8049Z" fill="url(#paint13_linear)"/>
<path d="M63.2505 84.4739H61.1545V86.5645H63.2505V84.4739Z" fill="#353A4A"/>
<path d="M63.2505 72.1394H61.1545V74.23H63.2505V72.1394Z" fill="#27292D"/>
<path d="M63.2505 68.0627H61.1545V70.1533H63.2505V68.0627Z" fill="#353A4A"/>
<path d="M63.2505 63.9861H61.1545V66.0767H63.2505V63.9861Z" fill="#353A4A"/>
<path d="M67.5474 84.4739H65.4514V86.5645H67.5474V84.4739Z" fill="#353A4A"/>
<path d="M67.5474 80.3972H65.4514V82.4878H67.5474V80.3972Z" fill="#353A4A"/>
<path d="M67.5474 76.3206H65.4514V78.4111H67.5474V76.3206Z" fill="#353A4A"/>
<path d="M67.5474 72.1394H65.4514V74.23H67.5474V72.1394Z" fill="#353A4A"/>
<path d="M67.5474 68.0627H65.4514V70.1533H67.5474V68.0627Z" fill="#27292D"/>
<path d="M67.5474 63.9861H65.4514V66.0767H67.5474V63.9861Z" fill="#353A4A"/>
<path d="M67.5474 59.8049H65.4514V61.8955H67.5474V59.8049Z" fill="url(#paint14_linear)"/>
<path d="M67.5474 55.7283H65.4514V57.8189H67.5474V55.7283Z" fill="#353A4A"/>
<path d="M71.844 84.4739H69.748V86.5645H71.844V84.4739Z" fill="#353A4A"/>
<path d="M71.844 76.3206H69.748V78.4111H71.844V76.3206Z" fill="#353A4A"/>
<path d="M71.844 72.1394H69.748V74.23H71.844V72.1394Z" fill="#27292D"/>
<g filter="url(#filter0_d)">
<path d="M90.1842 34.8222C90.1842 41.9302 84.4202 47.6794 77.2939 47.6794C77.1891 47.6794 76.1411 47.6794 68.3859 47.6794C63.0412 47.6794 54.4477 47.6794 40.719 47.6794H34.2214C25.6279 47.8884 18.8159 40.9895 18.8159 32.7316C18.8159 24.3693 25.7327 17.4703 34.431 17.8884C41.8717 -5.42167 76.0363 -2.18126 78.9707 21.9651C85.3634 22.8013 90.1842 28.2369 90.1842 34.8222Z" fill="#5E6882"/>
</g>
<g opacity="0.15">
<path opacity="0.15" d="M69.1196 47.6795C63.4604 47.6795 54.3429 47.6795 39.8806 47.6795C42.3958 42.1394 48.055 38.3763 54.5525 38.3763C61.0501 38.3763 66.6044 42.1394 69.1196 47.6795Z" fill="url(#paint15_linear)"/>
</g>
<path d="M56.2294 47.784C68.9049 47.784 79.1804 37.5349 79.1804 24.892C79.1804 12.2491 68.9049 2 56.2294 2C43.5538 2 33.2783 12.2491 33.2783 24.892C33.2783 37.5349 43.5538 47.784 56.2294 47.784Z" fill="url(#paint16_linear)"/>
<path d="M77.2939 47.6794C84.413 47.6794 90.1842 41.923 90.1842 34.8222C90.1842 27.7214 84.413 21.9651 77.2939 21.9651C70.1748 21.9651 64.4036 27.7214 64.4036 34.8222C64.4036 41.923 70.1748 47.6794 77.2939 47.6794Z" fill="url(#paint17_linear)" fill-opacity="0.37"/>
<path d="M62.7269 68.1673C60.3165 69.7353 57.4869 70.5715 54.4477 70.5715C46.1686 70.5715 39.4614 63.8816 39.4614 55.6238C39.4614 47.3659 46.1686 40.676 54.4477 40.676C62.7269 40.676 69.434 47.3659 69.434 55.6238C69.5388 60.8502 66.814 65.4495 62.7269 68.1673Z" fill="url(#paint18_linear)"/>
<path d="M65.9756 62.4182C64.9276 64.1952 63.5653 65.6586 61.7837 66.7039C60.8405 67.3311 59.8973 67.7492 58.8493 68.1673L49.2078 57.1917L50.151 56.2509L53.5045 57.8189L54.5525 52.906L55.6005 49.561L65.6612 61.8955L65.9756 62.4182Z" fill="url(#paint19_linear)"/>
<path d="M53.5046 61.3728L49.3127 57.1916C48.7887 56.669 48.7887 55.8328 49.3127 55.3101C49.8367 54.7875 50.6751 54.7875 51.1991 55.3101L53.0854 57.1916V50.3972C53.0854 49.6655 53.7142 49.0383 54.4478 49.0383C55.1814 49.0383 55.8102 49.6655 55.8102 50.3972V57.1916L57.6966 55.3101C58.2206 54.7875 59.059 54.7875 59.583 55.3101C59.8974 55.6237 60.0022 55.9373 60.0022 56.2509C60.0022 56.5645 59.8974 56.9826 59.583 57.1916L55.391 61.3728C55.1814 61.5819 54.7622 61.7909 54.4478 61.7909C54.1334 61.7909 53.7142 61.6864 53.5046 61.3728Z" fill="url(#paint20_linear)"/>
<defs>
<filter id="filter0_d" x="5.81592" y="0.0251465" width="97.3683" height="71.6589" filterUnits="userSpaceOnUse" color-interpolation-filters="sRGB">
<feFlood flood-opacity="0" result="BackgroundImageFix"/>
<feColorMatrix in="SourceAlpha" type="matrix" values="0 0 0 0 0 0 0 0 0 0 0 0 0 0 0 0 0 0 127 0"/>
<feOffset dy="11"/>
<feGaussianBlur stdDeviation="6.5"/>
<feColorMatrix type="matrix" values="0 0 0 0 0 0 0 0 0 0 0 0 0 0 0 0 0 0 0.22 0"/>
<feBlend mode="normal" in2="BackgroundImageFix" result="effect1_dropShadow"/>
<feBlend mode="normal" in="SourceGraphic" in2="effect1_dropShadow" result="shape"/>
</filter>
<linearGradient id="paint0_linear" x1="53.5059" y1="120.284" x2="53.5059" y2="103.927" gradientUnits="userSpaceOnUse">
<stop stop-color="#474755"/>
<stop offset="0.9913" stop-color="#2F3338"/>
</linearGradient>
<linearGradient id="paint1_linear" x1="9.72329" y1="69.1071" x2="11.8266" y2="69.1071" gradientUnits="userSpaceOnUse">
<stop stop-color="#FF66A9"/>
<stop offset="1" stop-color="#F53689"/>
</linearGradient>
<linearGradient id="paint2_linear" x1="14.0107" y1="52.6466" x2="16.114" y2="52.6466" gradientUnits="userSpaceOnUse">
<stop stop-color="#FF66A9"/>
<stop offset="1" stop-color="#F53689"/>
</linearGradient>
<linearGradient id="paint3_linear" x1="18.2984" y1="69.1071" x2="20.4016" y2="69.1071" gradientUnits="userSpaceOnUse">
<stop stop-color="#83A6FF"/>
<stop offset="1" stop-color="#5A78FF"/>
</linearGradient>
<linearGradient id="paint4_linear" x1="26.8733" y1="64.992" x2="28.9766" y2="64.992" gradientUnits="userSpaceOnUse">
<stop stop-color="#FF66A9"/>
<stop offset="1" stop-color="#F53689"/>
</linearGradient>
<linearGradient id="paint5_linear" x1="39.7359" y1="85.5675" x2="41.8392" y2="85.5675" gradientUnits="userSpaceOnUse">
<stop stop-color="#83A6FF"/>
<stop offset="1" stop-color="#5A78FF"/>
</linearGradient>
<linearGradient id="paint6_linear" x1="44.0232" y1="77.3372" x2="46.1265" y2="77.3372" gradientUnits="userSpaceOnUse">
<stop stop-color="#FF66A9"/>
<stop offset="1" stop-color="#F53689"/>
</linearGradient>
<linearGradient id="paint7_linear" x1="78.357" y1="64.992" x2="80.4603" y2="64.992" gradientUnits="userSpaceOnUse">
<stop stop-color="#FF66A9"/>
<stop offset="1" stop-color="#F53689"/>
</linearGradient>
<linearGradient id="paint8_linear" x1="91.2196" y1="85.5675" x2="93.3229" y2="85.5675" gradientUnits="userSpaceOnUse">
<stop stop-color="#83A6FF"/>
<stop offset="1" stop-color="#5A78FF"/>
</linearGradient>
<linearGradient id="paint9_linear" x1="91.2196" y1="64.992" x2="93.3229" y2="64.992" gradientUnits="userSpaceOnUse">
<stop stop-color="#83A6FF"/>
<stop offset="1" stop-color="#5A78FF"/>
</linearGradient>
<linearGradient id="paint10_linear" x1="95.5072" y1="77.3372" x2="97.6104" y2="77.3372" gradientUnits="userSpaceOnUse">
<stop stop-color="#FF66A9"/>
<stop offset="1" stop-color="#F53689"/>
</linearGradient>
<linearGradient id="paint11_linear" x1="52.5983" y1="64.992" x2="54.7016" y2="64.992" gradientUnits="userSpaceOnUse">
<stop stop-color="#83A6FF"/>
<stop offset="1" stop-color="#5A78FF"/>
</linearGradient>
<linearGradient id="paint12_linear" x1="56.8859" y1="73.2222" x2="58.9892" y2="73.2222" gradientUnits="userSpaceOnUse">
<stop stop-color="#FF66A9"/>
<stop offset="1" stop-color="#F53689"/>
</linearGradient>
<linearGradient id="paint13_linear" x1="56.8859" y1="60.8769" x2="58.9892" y2="60.8769" gradientUnits="userSpaceOnUse">
<stop stop-color="#83A6FF"/>
<stop offset="1" stop-color="#5A78FF"/>
</linearGradient>
<linearGradient id="paint14_linear" x1="65.461" y1="60.8769" x2="67.5642" y2="60.8769" gradientUnits="userSpaceOnUse">
<stop stop-color="#FF66A9"/>
<stop offset="1" stop-color="#F53689"/>
</linearGradient>
<linearGradient id="paint15_linear" x1="54.5215" y1="48.2972" x2="54.5215" y2="38.3176" gradientUnits="userSpaceOnUse">
<stop offset="0.00289017" stop-color="#83A6FF"/>
<stop offset="1" stop-color="#5A78FF"/>
</linearGradient>
<linearGradient id="paint16_linear" x1="38.8719" y1="11.5096" x2="46.5581" y2="17.4497" gradientUnits="userSpaceOnUse">
<stop stop-color="#80889D"/>
<stop offset="0.9942" stop-color="#5E6882"/>
</linearGradient>
<linearGradient id="paint17_linear" x1="63.0028" y1="19.2374" x2="74.4385" y2="31.7447" gradientUnits="userSpaceOnUse">
<stop stop-color="white"/>
<stop offset="0.9942" stop-color="white" stop-opacity="0"/>
</linearGradient>
<linearGradient id="paint18_linear" x1="44.3733" y1="45.1745" x2="64.6159" y2="66.0918" gradientUnits="userSpaceOnUse">
<stop stop-color="#83A6FF"/>
<stop offset="1" stop-color="#5A78FF"/>
</linearGradient>
<linearGradient id="paint19_linear" x1="53.6243" y1="55.2672" x2="61.9274" y2="63.5917" gradientUnits="userSpaceOnUse">
<stop stop-color="#4F6AFF"/>
<stop offset="1" stop-color="#657EFF" stop-opacity="0"/>
</linearGradient>
<linearGradient id="paint20_linear" x1="56.3734" y1="59.3701" x2="51.4042" y2="51.2286" gradientUnits="userSpaceOnUse">
<stop offset="0.0113208" stop-color="#C2D1FF"/>
<stop offset="1" stop-color="white"/>
</linearGradient>
</defs>
</svg>
