<svg width="109" height="121" viewBox="0 0 109 121" fill="none" xmlns="http://www.w3.org/2000/svg">
<path d="M109 38.0591V81.9922C109 82.6914 109 83.2741 108.883 83.9733C108.297 88.9842 105.367 93.4125 100.913 95.9762L62.7043 117.885C59.071 119.982 54.7344 120.565 50.7495 119.516C49.2258 119.166 47.8194 118.584 46.5301 117.885L8.2043 95.8597C5.27419 94.2282 3.04731 91.781 1.64086 88.8677C0.586022 86.7701 0 84.3229 0 81.8757V38.0591C0 35.7284 0.468817 33.5142 1.40645 31.4166C2.8129 28.3868 5.03978 25.823 8.0871 24.075L46.4129 2.16672C50.1634 0.0691111 54.3828 -0.513557 58.4849 0.535245C59.8914 0.884846 61.2978 1.46751 62.7043 2.16672L100.913 24.075C104.312 26.0561 106.773 29.086 108.062 32.6985C108.648 34.33 109 36.1945 109 38.0591Z" fill="#2A2E38"/>
<path d="M26.0154 93.3305V74.1448H35.4963V93.3305H39.0374C40.7509 93.3305 41.5505 95.3861 40.4082 96.5281L32.6406 104.294C31.6126 105.322 30.0134 105.322 28.9853 104.294L21.1036 96.5281C19.9613 95.3861 20.7609 93.3305 22.4743 93.3305H26.0154Z" fill="url(#paint0_linear)"/>
<path d="M71.1358 17.1587V4.02563H79.3602V17.1587H82.4444C83.9293 17.1587 84.6147 18.8717 83.5866 19.8995L76.8472 26.6374C75.9333 27.551 74.5626 27.551 73.6488 26.6374L66.9093 19.8995C65.8812 18.8717 66.5666 17.1587 68.0516 17.1587H71.1358Z" fill="url(#paint1_linear)"/>
<path d="M95.1237 45.3662V54.0455C95.1237 55.4159 94.6668 56.7863 93.8672 57.8141L62.3401 91.5033V91.6175L60.7409 109.09C58.2279 111.717 48.747 111.26 47.6047 109.09L46.0055 91.7317V91.3891L14.4784 57.8141C13.6788 56.7863 13.2219 55.4159 13.2219 54.0455V45.3662L54.2299 46.0514L95.1237 45.3662Z" fill="url(#paint2_linear)"/>
<path opacity="0.4" d="M83.8151 43.3106L49.3181 41.9402L13.2219 45.3662V53.7028C13.2219 58.2709 31.6127 61.9253 54.2299 61.9253C76.8472 61.9253 95.2379 58.2709 95.2379 53.7028V45.3662L83.8151 43.3106Z" fill="#637BFF"/>
<path d="M75.5906 105.55V72.7744H84.9573V105.664H88.3842C90.0976 105.664 90.8972 107.72 89.7549 108.862L82.1016 116.513C81.0736 117.541 79.4744 117.541 78.5606 116.513L70.793 108.748C69.6507 107.606 70.4503 105.55 72.1638 105.55H75.5906Z" fill="url(#paint3_linear)"/>
<path d="M95.1236 45.3663C95.1236 48.3355 89.6407 50.9621 80.9593 52.7893H80.8451C79.3601 53.1319 77.7609 53.3603 76.1617 53.5888C75.819 53.703 75.3621 53.7029 75.0194 53.8171C70.2218 54.5024 64.7389 54.9592 58.9132 55.0734C57.314 55.0734 55.8291 55.1876 54.1156 55.1876C52.5164 55.1876 50.803 55.1876 49.2038 55.0734C41.0936 54.845 33.783 54.0456 27.8431 52.9035C18.8191 51.0763 12.9934 48.3355 12.9934 45.2521C12.9934 42.1687 18.8191 39.4279 27.8431 37.6007C29.2138 37.3723 30.5846 37.0297 32.1838 36.8013C32.4122 36.8013 32.7549 36.6871 32.9834 36.6871C35.1537 36.3445 37.5525 36.1161 39.9513 35.8877C40.1798 35.8877 40.5225 35.7735 40.7509 35.7735C42.807 35.5451 44.9774 35.4309 47.2619 35.4309C47.4904 35.4309 47.8331 35.4309 48.0615 35.4309C48.4042 35.4309 48.7469 35.4309 49.0896 35.4309C50.6888 35.3167 52.288 35.3167 54.0014 35.3167C54.4583 35.3167 54.9152 35.3167 55.3721 35.3167C55.6006 35.3167 55.9433 35.3167 56.1717 35.3167C57.314 35.3167 58.3421 35.3167 59.3701 35.4309C62.2258 35.5451 65.0816 35.6593 67.7088 35.8877C67.823 35.8877 67.823 35.8877 67.9373 35.8877C69.0796 36.0019 70.2218 36.1161 71.3641 36.2303C73.306 36.4587 75.1337 36.6871 76.9613 37.0297C78.2178 37.2581 79.4743 37.4865 80.6166 37.7149C89.5264 39.6563 95.1236 42.3971 95.1236 45.3663Z" fill="#425FFF"/>
<path d="M54.1157 37.1439C64.9674 37.1439 75.1337 38.1717 82.6728 39.9989C91.1257 42.0545 93.4102 44.3385 93.4102 45.4805C93.4102 46.5083 91.1257 48.9065 82.6728 50.9621C75.0195 52.7893 64.8531 53.8171 54.1157 53.8171C43.264 53.8171 33.0976 52.7893 25.5586 50.9621C17.1057 48.9065 14.8211 46.6225 14.8211 45.4805C14.8211 44.4527 17.1057 42.0545 25.5586 39.9989C33.2119 38.1717 43.264 37.1439 54.1157 37.1439ZM54.1157 35.545C31.4984 35.545 13.1077 39.9989 13.1077 45.4805C13.1077 50.9621 31.4984 55.416 54.1157 55.416C76.7329 55.416 95.1237 50.9621 95.1237 45.4805C95.1237 39.8847 76.7329 35.545 54.1157 35.545Z" fill="#7E9AFF"/>
<path d="M62.34 91.6174L60.7408 109.09C58.2278 111.717 48.7469 111.26 47.6046 109.09L46.0054 91.7316C48.4042 92.4168 51.0314 92.7594 53.8871 92.7594C56.8571 92.8736 59.827 92.4168 62.34 91.6174Z" fill="#637BFF"/>
<path d="M58.1136 48.3355H29.5565C28.7569 48.3355 28.0715 47.6503 28.0715 46.8509V8.70788C28.0715 7.68008 28.8711 6.99487 29.8992 6.99487H50.2318L58.5705 16.1309L59.4843 17.0445V21.0415V22.1836V24.3534V25.4954V28.0078L59.5986 31.7764V32.5758V36.3444V37.1438L59.7128 40.9125V41.7119V46.9651C59.7128 47.6503 59.0274 48.3355 58.1136 48.3355Z" fill="#474E61"/>
<path d="M41.6654 41.9409H40.6368C40.4083 41.9409 40.1797 41.7123 40.1797 41.4838C40.1797 41.2552 40.4083 41.0266 40.6368 41.0266H41.6654C41.894 41.0266 42.1225 41.2552 42.1225 41.4838C42.1225 41.7123 41.894 41.9409 41.6654 41.9409Z" fill="#242B37"/>
<path d="M38.8089 41.9409H32.7548C32.5263 41.9409 32.2979 41.7123 32.2979 41.4838C32.2979 41.2552 32.5263 41.0266 32.7548 41.0266H38.8089C39.0373 41.0266 39.2658 41.2552 39.2658 41.4838C39.2658 41.7123 39.0373 41.9409 38.8089 41.9409Z" fill="#242B37"/>
<path d="M46.6907 13.0484H33.0975C32.7548 13.0484 32.5264 12.8198 32.5264 12.4769C32.5264 12.1341 32.7548 11.9055 33.0975 11.9055H46.5765C46.9191 11.9055 47.1476 12.1341 47.1476 12.4769C47.2618 12.7055 46.9191 13.0484 46.6907 13.0484Z" fill="#242B37"/>
<path d="M38.352 16.2459H33.0975C32.7548 16.2459 32.5264 16.0173 32.5264 15.6745C32.5264 15.3316 32.7548 15.103 33.0975 15.103H38.2378C38.5805 15.103 38.8089 15.3316 38.8089 15.6745C38.8089 16.0173 38.5805 16.2459 38.352 16.2459Z" fill="#242B37"/>
<path d="M50.2319 6.99487V14.9889C50.2319 16.1309 51.26 17.0445 52.288 17.0445H59.3702L50.2319 6.99487Z" fill="#354157"/>
<path d="M54.9151 22.2977H47.8329H40.5223H33.6686C32.869 22.2977 32.2979 22.9829 32.2979 23.6681V36.0018C32.2979 36.8012 32.869 37.3722 33.6686 37.3722H54.9151C55.2578 37.3722 55.6004 37.258 55.8289 37.0296C56.0574 36.8012 56.1716 36.4586 56.1716 36.2302C56.1716 36.2302 56.1716 36.116 56.1716 36.0018V23.6681C56.2858 22.9829 55.7147 22.2977 54.9151 22.2977ZM40.865 23.0971H47.376V25.9522H40.865V23.0971ZM33.0975 23.6681C33.0975 23.3255 33.3259 23.0971 33.6686 23.0971H40.0654V25.9522H33.0975V23.6681ZM40.0654 36.5728H33.6686C33.3259 36.5728 33.0975 36.3444 33.0975 36.0018V34.0604H40.0654V36.5728ZM40.0654 33.1468H33.0975V30.406H40.0654V33.1468ZM40.0654 29.6066H33.0975V26.8658H40.0654V29.6066ZM47.376 36.5728H40.865V34.0604H47.376V36.5728ZM47.376 33.1468H40.865V30.406H47.376V33.1468ZM47.376 29.6066H40.865V26.8658H47.376V29.6066ZM54.9151 36.5728H48.2898V34.0604H55.4862V36.0018C55.4862 36.0018 55.4862 36.116 55.4862 36.2302C55.372 36.3444 55.1435 36.5728 54.9151 36.5728ZM55.4862 33.1468H48.2898V30.406H55.4862V33.1468ZM55.4862 29.6066H48.2898V26.8658H55.4862V29.6066ZM55.4862 25.9522H48.2898V23.0971H54.9151C55.2578 23.0971 55.4862 23.3255 55.4862 23.6681V25.9522Z" fill="#242B37"/>
<g filter="url(#filter0_d)">
<path d="M80.8449 51.4189C79.3599 51.7615 77.7607 51.9899 76.1615 52.2183C75.8188 52.3325 75.3619 52.3325 75.0192 52.4467C70.2216 53.1319 64.7387 53.5887 58.913 53.7029C57.3138 53.7029 55.8289 53.8171 54.1154 53.8171C52.5162 53.8171 50.8028 53.8171 49.2036 53.7029V31.4338C49.2036 30.6344 49.7748 29.9492 50.4601 29.7208C50.5744 29.7208 50.8028 29.6066 50.917 29.6066H71.3639L76.9611 35.6592L80.6164 39.6562V43.6532L80.8449 51.4189Z" fill="#474E61"/>
</g>
<path d="M75.9332 50.6201H72.9633C72.7348 50.6201 72.5063 50.3915 72.5063 50.163C72.5063 49.9344 72.7348 49.7058 72.9633 49.7058H75.9332C76.1617 49.7058 76.3901 49.9344 76.3901 50.163C76.3901 50.3915 76.1617 50.6201 75.9332 50.6201Z" fill="#242B37"/>
<path d="M70.3358 50.6201H54.1154C53.8869 50.6201 53.6584 50.3915 53.6584 50.163C53.6584 49.9344 53.8869 49.7058 54.1154 49.7058H70.2216C70.45 49.7058 70.6785 49.9344 70.6785 50.163C70.6785 50.3915 70.5643 50.6201 70.3358 50.6201Z" fill="#242B37"/>
<path d="M76.0473 46.0521H65.6525C65.424 46.0521 65.1956 45.8235 65.1956 45.595C65.1956 45.3664 65.424 45.1378 65.6525 45.1378H76.0473C76.2757 45.1378 76.5042 45.3664 76.5042 45.595C76.5042 45.8235 76.2757 46.0521 76.0473 46.0521Z" fill="#242B37"/>
<path d="M62.3399 46.0521H54.3439C54.1154 46.0521 53.887 45.8235 53.887 45.595C53.887 45.3664 54.1154 45.1378 54.3439 45.1378H62.3399C62.5683 45.1378 62.7968 45.3664 62.7968 45.595C62.7968 45.8235 62.5683 46.0521 62.3399 46.0521Z" fill="#242B37"/>
<path d="M67.9371 35.6601H54.4581C54.1154 35.6601 53.887 35.4315 53.887 35.0886C53.887 34.7458 54.1154 34.5172 54.4581 34.5172H68.0513C68.394 34.5172 68.6224 34.7458 68.6224 35.0886C68.6224 35.4315 68.2797 35.6601 67.9371 35.6601Z" fill="#242B37"/>
<path d="M59.5984 38.9718H54.4581C54.1154 38.9718 53.887 38.7433 53.887 38.4004C53.887 38.0576 54.1154 37.829 54.4581 37.829H59.5984C59.9411 37.829 60.1695 38.0576 60.1695 38.4004C60.1695 38.7433 59.9411 38.9718 59.5984 38.9718Z" fill="#242B37"/>
<path d="M71.478 29.6066V37.6006C71.478 38.7426 72.5061 39.6562 73.5341 39.6562H80.6163L71.478 29.6066Z" fill="#354157"/>
<defs>
<filter id="filter0_d" x="27.2036" y="18.6066" width="75.6413" height="68.2105" filterUnits="userSpaceOnUse" color-interpolation-filters="sRGB">
<feFlood flood-opacity="0" result="BackgroundImageFix"/>
<feColorMatrix in="SourceAlpha" type="matrix" values="0 0 0 0 0 0 0 0 0 0 0 0 0 0 0 0 0 0 127 0"/>
<feOffset dy="11"/>
<feGaussianBlur stdDeviation="11"/>
<feColorMatrix type="matrix" values="0 0 0 0 0 0 0 0 0 0 0 0 0 0 0 0 0 0 0.18 0"/>
<feBlend mode="normal" in2="BackgroundImageFix" result="effect1_dropShadow"/>
<feBlend mode="normal" in="SourceGraphic" in2="effect1_dropShadow" result="shape"/>
</filter>
<linearGradient id="paint0_linear" x1="30.7432" y1="104.996" x2="30.7432" y2="75.0194" gradientUnits="userSpaceOnUse">
<stop offset="0.00289017" stop-color="#F04B98"/>
<stop offset="1" stop-color="#F04B98" stop-opacity="0"/>
</linearGradient>
<linearGradient id="paint1_linear" x1="75.2304" y1="27.307" x2="75.2304" y2="4.6671" gradientUnits="userSpaceOnUse">
<stop offset="0.00289017" stop-color="#738EFF"/>
<stop offset="1" stop-color="#738DFF" stop-opacity="0"/>
</linearGradient>
<linearGradient id="paint2_linear" x1="13.1742" y1="78.1626" x2="95.0911" y2="78.1626" gradientUnits="userSpaceOnUse">
<stop stop-color="#83A6FF"/>
<stop offset="1" stop-color="#5A78FF"/>
</linearGradient>
<linearGradient id="paint3_linear" x1="80.3173" y1="116.364" x2="80.3173" y2="76.5656" gradientUnits="userSpaceOnUse">
<stop offset="0.00289017" stop-color="#F04B98"/>
<stop offset="1" stop-color="#F04B98" stop-opacity="0"/>
</linearGradient>
</defs>
</svg>
