<svg width="121" height="110" viewBox="0 0 121 110" fill="none" xmlns="http://www.w3.org/2000/svg">
<path d="M4.37715 40.1115C5.65818 39.6938 6.35912 38.3135 5.94275 37.0285C5.52637 35.7435 4.15035 35.0403 2.86932 35.458C1.58829 35.8757 0.887343 37.2559 1.30372 38.541C1.72009 39.826 3.09611 40.5291 4.37715 40.1115Z" fill="#2A2E39"/>
<path d="M10.4712 33.677C11.3423 33.393 11.819 32.4544 11.5358 31.5806C11.2527 30.7068 10.317 30.2287 9.44592 30.5127C8.57482 30.7967 8.09818 31.7353 8.38131 32.6091C8.66444 33.4829 9.60013 33.961 10.4712 33.677Z" fill="#2A2E39"/>
<path d="M1.65854 59.306C2.57452 59.306 3.31707 58.5612 3.31707 57.6423C3.31707 56.7235 2.57452 55.9786 1.65854 55.9786C0.742552 55.9786 0 56.7235 0 57.6423C0 58.5612 0.742552 59.306 1.65854 59.306Z" fill="url(#paint0_linear)"/>
<path d="M117.228 42.7638C118.739 41.3783 118.845 39.026 117.464 37.5098C116.082 35.9936 113.737 35.8878 112.226 37.2733C110.715 38.6588 110.609 41.0111 111.99 42.5273C113.371 44.0435 115.716 44.1494 117.228 42.7638Z" fill="#2A2E39"/>
<path d="M111.61 58.5231C111.61 70.169 107.707 81.032 101.171 89.6441C97.561 94.3416 93.2683 98.452 88.2927 101.681C80.2927 106.966 70.6341 110 60.2927 110C32 110 8.97559 87.0018 8.97559 58.5231C8.97559 30.1423 31.9024 7.04626 60.2927 7.04626C70.6341 7.04626 80.1951 10.0801 88.2927 15.3648C93.2683 18.5943 97.561 22.7046 101.171 27.4021C107.707 36.0142 111.61 46.7794 111.61 58.5231Z" fill="#2A2E39"/>
<path d="M88.9754 10.6673V50.4982C88.9754 51.379 88.2925 52.0641 87.4145 52.0641H32.8779C31.9998 52.0641 31.3169 51.379 31.3169 50.4982V10.6673C31.3169 9.78649 31.9998 9.10144 32.8779 9.10144H87.4145C88.2925 9.10144 88.9754 9.78649 88.9754 10.6673Z" fill="#2A323C"/>
<path d="M35.8048 12.0374V52.064H32.9755C32.0975 52.064 31.4146 51.379 31.4146 50.4982V12.0374H35.8048Z" fill="#1B2228"/>
<path d="M88.9754 10.6673V12.6246H31.3169V10.6673C31.3169 9.78649 31.9998 9.10144 32.8779 9.10144H87.4145C88.2925 9.10144 88.9754 9.78649 88.9754 10.6673Z" fill="url(#paint1_linear)"/>
<path d="M33.0733 11.4502C33.3427 11.4502 33.5611 11.2311 33.5611 10.9609C33.5611 10.6906 33.3427 10.4716 33.0733 10.4716C32.8038 10.4716 32.5854 10.6906 32.5854 10.9609C32.5854 11.2311 32.8038 11.4502 33.0733 11.4502Z" fill="#474E61"/>
<path d="M34.5366 11.4502C34.806 11.4502 35.0244 11.2311 35.0244 10.9609C35.0244 10.6906 34.806 10.4716 34.5366 10.4716C34.2672 10.4716 34.0488 10.6906 34.0488 10.9609C34.0488 11.2311 34.2672 11.4502 34.5366 11.4502Z" fill="#474E61"/>
<path d="M35.9024 11.4502C36.1718 11.4502 36.3902 11.2311 36.3902 10.9609C36.3902 10.6906 36.1718 10.4716 35.9024 10.4716C35.6329 10.4716 35.4146 10.6906 35.4146 10.9609C35.4146 11.2311 35.6329 11.4502 35.9024 11.4502Z" fill="#474E61"/>
<path d="M48.2925 16.1477H37.5608C37.2681 16.1477 37.073 15.952 37.073 15.6584C37.073 15.3648 37.2681 15.1691 37.5608 15.1691H48.2925C48.5852 15.1691 48.7803 15.3648 48.7803 15.6584C48.7803 15.952 48.5852 16.1477 48.2925 16.1477Z" fill="#405872"/>
<path d="M33.5609 16.1477H33.1707C32.878 16.1477 32.6829 15.952 32.6829 15.6584C32.6829 15.3648 32.878 15.1691 33.1707 15.1691H33.5609C33.8536 15.1691 34.0487 15.3648 34.0487 15.6584C34.0487 15.952 33.8536 16.1477 33.5609 16.1477Z" fill="#405872"/>
<path d="M33.5609 18.3986H33.1707C32.878 18.3986 32.6829 18.2028 32.6829 17.9092C32.6829 17.6157 32.878 17.4199 33.1707 17.4199H33.5609C33.8536 17.4199 34.0487 17.6157 34.0487 17.9092C34.0487 18.2028 33.8536 18.3986 33.5609 18.3986Z" fill="#405872"/>
<path d="M33.5609 20.5516H33.1707C32.878 20.5516 32.6829 20.3559 32.6829 20.0623C32.6829 19.7687 32.878 19.573 33.1707 19.573H33.5609C33.8536 19.573 34.0487 19.7687 34.0487 20.0623C34.0487 20.3559 33.8536 20.5516 33.5609 20.5516Z" fill="#405872"/>
<path d="M33.5609 22.8025H33.1707C32.878 22.8025 32.6829 22.6068 32.6829 22.3132C32.6829 22.0196 32.878 21.8239 33.1707 21.8239H33.5609C33.8536 21.8239 34.0487 22.0196 34.0487 22.3132C34.0487 22.6068 33.8536 22.8025 33.5609 22.8025Z" fill="#405872"/>
<path d="M33.5609 25.0534H33.1707C32.878 25.0534 32.6829 24.8576 32.6829 24.564C32.6829 24.2704 32.878 24.0747 33.1707 24.0747H33.5609C33.8536 24.0747 34.0487 24.2704 34.0487 24.564C34.0487 24.8576 33.8536 25.0534 33.5609 25.0534Z" fill="#405872"/>
<path d="M33.5609 27.3042H33.1707C32.878 27.3042 32.6829 27.1085 32.6829 26.8149C32.6829 26.5213 32.878 26.3256 33.1707 26.3256H33.5609C33.8536 26.3256 34.0487 26.5213 34.0487 26.8149C34.0487 27.1085 33.8536 27.3042 33.5609 27.3042Z" fill="#405872"/>
<path d="M33.5609 29.4573H33.1707C32.878 29.4573 32.6829 29.2616 32.6829 28.968C32.6829 28.6744 32.878 28.4786 33.1707 28.4786H33.5609C33.8536 28.4786 34.0487 28.6744 34.0487 28.968C34.0487 29.2616 33.8536 29.4573 33.5609 29.4573Z" fill="#405872"/>
<path d="M33.5609 31.7081H33.1707C32.878 31.7081 32.6829 31.5124 32.6829 31.2188C32.6829 30.9252 32.878 30.7295 33.1707 30.7295H33.5609C33.8536 30.7295 34.0487 30.9252 34.0487 31.2188C34.0487 31.5124 33.8536 31.7081 33.5609 31.7081Z" fill="#405872"/>
<path d="M33.5609 33.9591H33.1707C32.878 33.9591 32.6829 33.7634 32.6829 33.4698C32.6829 33.1762 32.878 32.9805 33.1707 32.9805H33.5609C33.8536 32.9805 34.0487 33.1762 34.0487 33.4698C34.0487 33.7634 33.8536 33.9591 33.5609 33.9591Z" fill="#405872"/>
<path d="M33.5609 36.21H33.1707C32.878 36.21 32.6829 36.0142 32.6829 35.7206C32.6829 35.4271 32.878 35.2313 33.1707 35.2313H33.5609C33.8536 35.2313 34.0487 35.4271 34.0487 35.7206C34.0487 36.0142 33.8536 36.21 33.5609 36.21Z" fill="#405872"/>
<path d="M33.5609 38.3629H33.1707C32.878 38.3629 32.6829 38.1672 32.6829 37.8736C32.6829 37.58 32.878 37.3843 33.1707 37.3843H33.5609C33.8536 37.3843 34.0487 37.58 34.0487 37.8736C34.0487 38.1672 33.8536 38.3629 33.5609 38.3629Z" fill="#405872"/>
<path d="M33.5609 40.6139H33.1707C32.878 40.6139 32.6829 40.4182 32.6829 40.1246C32.6829 39.831 32.878 39.6353 33.1707 39.6353H33.5609C33.8536 39.6353 34.0487 39.831 34.0487 40.1246C34.0487 40.4182 33.8536 40.6139 33.5609 40.6139Z" fill="#405872"/>
<path d="M33.5609 42.8648H33.1707C32.878 42.8648 32.6829 42.669 32.6829 42.3754C32.6829 42.0818 32.878 41.8861 33.1707 41.8861H33.5609C33.8536 41.8861 34.0487 42.0818 34.0487 42.3754C34.0487 42.669 33.8536 42.8648 33.5609 42.8648Z" fill="#405872"/>
<path d="M33.5609 45.1156H33.1707C32.878 45.1156 32.6829 44.9199 32.6829 44.6263C32.6829 44.3327 32.878 44.137 33.1707 44.137H33.5609C33.8536 44.137 34.0487 44.3327 34.0487 44.6263C34.0487 44.9199 33.8536 45.1156 33.5609 45.1156Z" fill="#405872"/>
<path d="M33.5609 47.2687H33.1707C32.878 47.2687 32.6829 47.073 32.6829 46.7794C32.6829 46.4858 32.878 46.29 33.1707 46.29H33.5609C33.8536 46.29 34.0487 46.4858 34.0487 46.7794C34.0487 47.073 33.8536 47.2687 33.5609 47.2687Z" fill="#405872"/>
<path d="M33.5609 49.5195H33.1707C32.878 49.5195 32.6829 49.3238 32.6829 49.0302C32.6829 48.7366 32.878 48.5409 33.1707 48.5409H33.5609C33.8536 48.5409 34.0487 48.7366 34.0487 49.0302C34.0487 49.3238 33.8536 49.5195 33.5609 49.5195Z" fill="#405872"/>
<path d="M46.0486 18.3986H37.5608C37.2681 18.3986 37.073 18.2028 37.073 17.9092C37.073 17.6157 37.2681 17.4199 37.5608 17.4199H46.0486C46.3413 17.4199 46.5364 17.6157 46.5364 17.9092C46.5364 18.105 46.3413 18.3986 46.0486 18.3986Z" fill="#405872"/>
<path d="M68.8779 18.3986H47.8047C47.512 18.3986 47.3169 18.2028 47.3169 17.9092C47.3169 17.6157 47.512 17.4199 47.8047 17.4199H68.8779C69.1706 17.4199 69.3657 17.6157 69.3657 17.9092C69.3657 18.105 69.1706 18.3986 68.8779 18.3986Z" fill="#405872"/>
<path d="M78.0487 18.3986H71.9024C71.6097 18.3986 71.4146 18.2028 71.4146 17.9092C71.4146 17.6157 71.6097 17.4199 71.9024 17.4199H78.0487C78.3414 17.4199 78.5365 17.6157 78.5365 17.9092C78.4389 18.105 78.2438 18.3986 78.0487 18.3986Z" fill="#474E61"/>
<path d="M83.1218 18.3986H81.073C80.7803 18.3986 80.5852 18.2028 80.5852 17.9092C80.5852 17.6157 80.7803 17.4199 81.073 17.4199H83.1218C83.4145 17.4199 83.6096 17.6157 83.6096 17.9092C83.512 18.105 83.3169 18.3986 83.1218 18.3986Z" fill="url(#paint2_linear)"/>
<path d="M51.512 20.5516H40.7803C40.4876 20.5516 40.2925 20.3559 40.2925 20.0623C40.2925 19.7687 40.4876 19.573 40.7803 19.573H51.512C51.8047 19.573 51.9998 19.7687 51.9998 20.0623C51.9998 20.3559 51.8047 20.5516 51.512 20.5516Z" fill="url(#paint3_linear)"/>
<path d="M51.512 29.4573H40.7803C40.4876 29.4573 40.2925 29.2616 40.2925 28.968C40.2925 28.6744 40.4876 28.4786 40.7803 28.4786H51.512C51.8047 28.4786 51.9998 28.6744 51.9998 28.968C51.9998 29.2616 51.8047 29.4573 51.512 29.4573Z" fill="url(#paint4_linear)"/>
<path d="M48.6827 31.6104H40.7803C40.4876 31.6104 40.2925 31.4146 40.2925 31.121C40.2925 30.8274 40.4876 30.6317 40.7803 30.6317H48.6827C48.9754 30.6317 49.1705 30.8274 49.1705 31.121C49.1705 31.4146 48.9754 31.6104 48.6827 31.6104Z" fill="#405872"/>
<path d="M69.4633 31.6104H50.8291C50.5364 31.6104 50.3413 31.4146 50.3413 31.121C50.3413 30.8274 50.5364 30.6317 50.8291 30.6317H69.4633C69.7559 30.6317 69.9511 30.8274 69.9511 31.121C69.9511 31.4146 69.7559 31.6104 69.4633 31.6104Z" fill="#405872"/>
<path d="M54.5364 22.8025H44.5852C44.2925 22.8025 44.0974 22.6068 44.0974 22.3132C44.0974 22.0196 44.2925 21.8239 44.5852 21.8239H54.5364C54.8291 21.8239 55.0242 22.0196 55.0242 22.3132C55.0242 22.6068 54.8291 22.8025 54.5364 22.8025Z" fill="#405872"/>
<path d="M60.195 22.8025H56.0974C55.8047 22.8025 55.6096 22.6068 55.6096 22.3132C55.6096 22.0196 55.8047 21.8239 56.0974 21.8239H60.195C60.4877 21.8239 60.6828 22.0196 60.6828 22.3132C60.6828 22.6068 60.3901 22.8025 60.195 22.8025Z" fill="url(#paint5_linear)"/>
<path d="M72.195 24.9555H44.5852C44.2925 24.9555 44.0974 24.7597 44.0974 24.4661C44.0974 24.1725 44.2925 23.9768 44.5852 23.9768H72.195C72.4877 23.9768 72.6828 24.1725 72.6828 24.4661C72.5852 24.7597 72.3901 24.9555 72.195 24.9555Z" fill="#405872"/>
<path d="M77.0731 24.9555H74.439C74.1463 24.9555 73.9512 24.7597 73.9512 24.4661C73.9512 24.1725 74.1463 23.9768 74.439 23.9768H77.0731C77.3658 23.9768 77.5609 24.1725 77.5609 24.4661C77.5609 24.7597 77.3658 24.9555 77.0731 24.9555Z" fill="url(#paint6_linear)"/>
<path d="M87.0244 24.9555H79.0244C78.7317 24.9555 78.5366 24.7597 78.5366 24.4661C78.5366 24.1725 78.7317 23.9768 79.0244 23.9768H87.0244C87.3171 23.9768 87.5122 24.1725 87.5122 24.4661C87.4147 24.7597 87.2195 24.9555 87.0244 24.9555Z" fill="#405872"/>
<path d="M63.512 27.2064H44.5852C44.2925 27.2064 44.0974 27.0107 44.0974 26.7171C44.0974 26.4235 44.2925 26.2278 44.5852 26.2278H63.6096C63.9023 26.2278 64.0974 26.4235 64.0974 26.7171C63.9998 27.0107 63.8047 27.2064 63.512 27.2064Z" fill="#405872"/>
<path d="M55.2193 36.1121H47.8047C47.512 36.1121 47.3169 35.9164 47.3169 35.6228C47.3169 35.3292 47.6096 35.2313 47.8047 35.2313H55.2193C55.512 35.2313 55.7071 35.4271 55.7071 35.7206C55.7071 36.0142 55.512 36.1121 55.2193 36.1121Z" fill="#405872"/>
<path d="M64.7804 36.1121H56.8779C56.5853 36.1121 56.3901 35.9163 56.3901 35.6227C56.3901 35.3292 56.5853 35.1334 56.8779 35.1334H64.7804C65.0731 35.1334 65.2682 35.3292 65.2682 35.6227C65.2682 35.9163 64.9755 36.1121 64.7804 36.1121Z" fill="#405872"/>
<path d="M71.9023 36.1121H66.3413C66.0486 36.1121 65.8535 35.9164 65.8535 35.6228C65.8535 35.3292 66.0486 35.2313 66.3413 35.2313H71.9023C72.195 35.2313 72.3901 35.4271 72.3901 35.7206C72.3901 36.0142 72.195 36.1121 71.9023 36.1121Z" fill="#474E61"/>
<path d="M76.878 36.1121H73.9512C73.6585 36.1121 73.4634 35.9163 73.4634 35.6227C73.4634 35.3292 73.6585 35.1334 73.9512 35.1334H76.878C77.1707 35.1334 77.3658 35.3292 77.3658 35.6227C77.3658 35.9163 77.0731 36.1121 76.878 36.1121Z" fill="#474E61"/>
<path d="M55.2193 42.7669H47.8047C47.512 42.7669 47.3169 42.5711 47.3169 42.2775C47.3169 41.9839 47.512 41.7882 47.8047 41.7882H55.2193C55.512 41.7882 55.7071 41.9839 55.7071 42.2775C55.7071 42.5711 55.512 42.7669 55.2193 42.7669Z" fill="#474E61"/>
<path d="M71.8047 49.4216H47.8047C47.512 49.4216 47.3169 49.2259 47.3169 48.9323C47.3169 48.6387 47.512 48.443 47.8047 48.443H71.8047C72.0974 48.443 72.2925 48.6387 72.2925 48.9323C72.2925 49.2259 72.0974 49.4216 71.8047 49.4216Z" fill="url(#paint7_linear)"/>
<path d="M58.5365 38.2651H51.1218C50.8292 38.2651 50.634 38.0694 50.634 37.7758C50.634 37.4822 50.8292 37.2865 51.1218 37.2865H58.5365C58.8292 37.2865 59.0243 37.4822 59.0243 37.7758C59.0243 38.0694 58.7316 38.2651 58.5365 38.2651Z" fill="url(#paint8_linear)"/>
<path d="M70.5365 38.2651H60.0974C59.8047 38.2651 59.6096 38.0694 59.6096 37.7758C59.6096 37.4822 59.8047 37.2865 60.0974 37.2865H70.634C70.9267 37.2865 71.1218 37.4822 71.1218 37.7758C71.0243 38.0694 70.8291 38.2651 70.5365 38.2651Z" fill="#405872"/>
<path d="M77.4633 38.2651H72.0974C71.8047 38.2651 71.6096 38.0694 71.6096 37.7758C71.6096 37.4822 71.8047 37.2865 72.0974 37.2865H77.4633C77.756 37.2865 77.9511 37.4822 77.9511 37.7758C77.9511 38.0694 77.756 38.2651 77.4633 38.2651Z" fill="#405872"/>
<path d="M80.8781 38.2651H79.0244C78.7317 38.2651 78.5366 38.0694 78.5366 37.7758C78.5366 37.4822 78.7317 37.2865 79.0244 37.2865H80.7805C81.0732 37.2865 81.2683 37.4822 81.2683 37.7758C81.2683 38.0694 81.0732 38.2651 80.8781 38.2651Z" fill="url(#paint9_linear)"/>
<path d="M60.195 40.516H51.1218C50.8292 40.516 50.634 40.3203 50.634 40.0267C50.634 39.7331 50.8292 39.5374 51.1218 39.5374H60.195C60.4877 39.5374 60.6828 39.7331 60.6828 40.0267C60.6828 40.3203 60.4877 40.516 60.195 40.516Z" fill="#405872"/>
<path d="M64.4878 40.516H61.9512C61.6585 40.516 61.4634 40.3203 61.4634 40.0267C61.4634 39.7331 61.6585 39.5374 61.9512 39.5374H64.4878C64.7805 39.5374 64.9756 39.7331 64.9756 40.0267C64.9756 40.3203 64.6829 40.516 64.4878 40.516Z" fill="url(#paint10_linear)"/>
<path d="M84.878 40.516H66.1463C65.8536 40.516 65.6584 40.3203 65.6584 40.0267C65.6584 39.7331 65.8536 39.5374 66.1463 39.5374H84.878C85.1706 39.5374 85.3658 39.7331 85.3658 40.0267C85.3658 40.3203 85.1706 40.516 84.878 40.516Z" fill="#405872"/>
<path d="M55.2195 33.8612H44.4878C44.1951 33.8612 44 33.6655 44 33.3719C44 33.0783 44.1951 32.8826 44.4878 32.8826H55.2195C55.5122 32.8826 55.7073 33.0783 55.7073 33.3719C55.7073 33.6655 55.5122 33.8612 55.2195 33.8612Z" fill="#405872"/>
<path d="M59.7072 33.8612H56.8779C56.5853 33.8612 56.3901 33.6655 56.3901 33.3719C56.3901 33.0783 56.5853 32.8826 56.8779 32.8826H59.7072C59.9999 32.8826 60.195 33.0783 60.195 33.3719C60.195 33.6655 59.9999 33.8612 59.7072 33.8612Z" fill="url(#paint11_linear)"/>
<path d="M55.2195 44.9199H44.4878C44.1951 44.9199 44 44.7242 44 44.4306C44 44.137 44.1951 43.9413 44.4878 43.9413H55.2195C55.5122 43.9413 55.7073 44.137 55.7073 44.4306C55.7073 44.7242 55.5122 44.9199 55.2195 44.9199Z" fill="#405872"/>
<path d="M63.7072 47.1708H44.5852C44.2925 47.1708 44.0974 46.9751 44.0974 46.6815C44.0974 46.3879 44.2925 46.1921 44.5852 46.1921H63.7072C63.9999 46.1921 64.195 46.3879 64.195 46.6815C64.0974 46.9751 63.9023 47.1708 63.7072 47.1708Z" fill="#405872"/>
<path d="M71.9024 47.1708H65.1707C64.878 47.1708 64.6829 46.9751 64.6829 46.6815C64.6829 46.3879 64.878 46.1921 65.1707 46.1921H71.9024C72.1951 46.1921 72.3902 46.3879 72.3902 46.6815C72.3902 46.9751 72.1951 47.1708 71.9024 47.1708Z" fill="#474E61"/>
<path d="M76.2927 47.1708H73.561C73.2684 47.1708 73.0732 46.9751 73.0732 46.6815C73.0732 46.3879 73.2684 46.1921 73.561 46.1921H76.2927C76.5854 46.1921 76.7806 46.3879 76.7806 46.6815C76.7806 46.9751 76.5854 47.1708 76.2927 47.1708Z" fill="url(#paint12_linear)"/>
<path opacity="0.4" d="M88.9754 37.5801H31.3169V45.8986H88.9754V37.5801Z" fill="black"/>
<path d="M2.73193 97.8647H120" stroke="#2B323C" stroke-width="2" stroke-miterlimit="10" stroke-linecap="round" stroke-linejoin="round"/>
<path d="M80.9756 41.6901V97.2773H30.2439C28.2927 97.2773 26.7317 95.7114 26.7317 93.7541V41.6901H80.9756Z" fill="#474E61"/>
<path d="M100.195 41.6901V93.7541C100.195 95.7114 98.634 97.2773 96.6828 97.2773H80.8779V41.6901H100.195Z" fill="#2E3746"/>
<path d="M100.195 41.6904V60.9698H86.2439C84.9756 60.9698 84 60.089 83.8049 58.8167L80.9756 41.5925H100.195V41.6904Z" fill="#232424"/>
<path d="M100.195 41.6901H80.8779L90.634 56.7612C91.317 57.7399 92.3901 58.3271 93.5609 58.3271H108.585C109.561 58.3271 110.244 57.1527 109.658 56.3698L100.195 41.6901Z" fill="#2E3746"/>
<path d="M80.878 41.6901L78.5366 59.6972C78.439 60.578 77.6585 61.263 76.6829 61.263H26.7317V42.3751L26.8293 42.2773L80.878 41.6901Z" fill="#2E3746"/>
<path d="M26.7317 41.6901H80.8781L71.2196 56.7612C70.5366 57.7399 69.4635 58.3271 68.2927 58.3271H18.3415C17.3659 58.3271 16.683 57.1527 17.2683 56.3698L26.7317 41.6901Z" fill="#474E61"/>
<path d="M53.7559 76.8238H33.073C32.3901 76.8238 31.8047 76.2367 31.8047 75.5516V68.016C31.8047 67.331 32.3901 66.7438 33.073 66.7438H53.7559C54.4388 66.7438 55.0242 67.331 55.0242 68.016V75.5516C55.0242 76.2367 54.4388 76.8238 53.7559 76.8238Z" fill="#2E3746"/>
<path d="M54.0486 82.1085H32.6827C32.1949 82.1085 31.8047 81.717 31.8047 81.2277C31.8047 80.7384 32.1949 80.3469 32.6827 80.3469H54.0486C54.5364 80.3469 54.9266 80.7384 54.9266 81.2277C54.9266 81.717 54.5364 82.1085 54.0486 82.1085Z" fill="#2E3746"/>
<path d="M54.0486 86.5124H32.6827C32.1949 86.5124 31.8047 86.121 31.8047 85.6316C31.8047 85.1423 32.1949 84.7509 32.6827 84.7509H54.0486C54.5364 84.7509 54.9266 85.1423 54.9266 85.6316C54.9266 86.121 54.5364 86.5124 54.0486 86.5124Z" fill="#2E3746"/>
<path d="M42.5364 90.8185H32.6827C32.1949 90.8185 31.8047 90.427 31.8047 89.9377C31.8047 89.4483 32.1949 89.0569 32.6827 89.0569H42.5364C43.0242 89.0569 43.4144 89.4483 43.4144 89.9377C43.4144 90.427 43.0242 90.8185 42.5364 90.8185Z" fill="#2E3746"/>
<path d="M29.7561 7.82923C29.4634 8.12283 28.9756 8.22069 28.5854 7.9271L24.878 4.69756C24.5854 4.40397 24.4878 3.91464 24.7805 3.52318C25.0732 3.22959 25.561 3.13172 25.9512 3.42532L29.6585 6.65486C29.9512 6.94845 30.0488 7.53564 29.7561 7.82923Z" fill="url(#paint13_linear)"/>
<path d="M28.5852 13.9947C28.4876 14.1904 28.195 14.3861 27.9023 14.3861H23.1218C22.634 14.3861 22.3413 13.9947 22.3413 13.6032C22.3413 13.1139 22.7316 12.8203 23.1218 12.8203H27.9023C28.3901 12.8203 28.6828 13.2118 28.6828 13.6032C28.6828 13.7011 28.6828 13.799 28.5852 13.9947Z" fill="url(#paint14_linear)"/>
<path d="M35.2194 6.26335C35.1218 6.36121 34.9267 6.36121 34.8291 6.36121C34.3413 6.36121 34.0486 6.06762 33.9511 5.57829L33.8535 0.782918C33.8535 0.391459 34.1462 0 34.634 0C35.1218 0 35.4145 0.293594 35.5121 0.782918L35.6096 5.57829C35.6096 5.87189 35.4145 6.06762 35.2194 6.26335Z" fill="url(#paint15_linear)"/>
<path d="M116.892 83.3904C116.697 84.4669 116.404 85.4456 116.014 86.4243C113.672 92.2962 108.404 96.4067 102.355 97.3853C100.306 97.7768 98.0625 97.6788 95.9161 97.2874C86.2576 95.2322 80.1111 85.8372 82.1599 76.2464C84.1111 66.5578 93.5746 60.3923 103.136 62.4474C106.55 63.1325 109.672 64.7961 112.111 67.2427C116.306 71.353 118.16 77.5185 116.892 83.3904Z" fill="url(#paint16_linear)"/>
<path d="M116 86.4146C113.659 92.2865 108.39 96.3968 102.342 97.3754L100.781 95.8096L92.0977 86.6103L92.5855 85.9253L102.146 86.121L95.805 77.9003L101.171 75.4537L97.8538 72.5178L101.366 71.7349L116 86.4146Z" fill="url(#paint17_linear)"/>
<path d="M98.9784 82.5675C99.2711 82.9589 99.8565 83.0568 100.247 82.7632C100.344 82.7632 100.344 82.6653 100.442 82.5675L103.954 78.1636C104.247 77.7721 104.149 77.1849 103.759 76.8913C103.564 76.7934 103.369 76.6956 103.174 76.6956H101.515V74.0532C101.515 73.8575 101.417 73.7596 101.222 73.7596H100.637H98.1979C98.0028 73.7596 97.9052 73.8575 97.9052 74.0532V76.6956H96.2467C95.7589 76.6956 95.3687 77.087 95.3687 77.5764C95.3687 77.7721 95.4662 77.9678 95.5638 78.1636L98.9784 82.5675Z" fill="url(#paint18_linear)"/>
<path d="M101.222 72.5853H98.1003C98.0027 72.5853 97.8076 72.4875 97.8076 72.2917V71.9003C97.8076 71.8024 97.9052 71.6067 98.1003 71.6067H101.222C101.32 71.6067 101.515 71.7046 101.515 71.9003V72.2917C101.515 72.4875 101.417 72.5853 101.222 72.5853Z" fill="url(#paint19_linear)"/>
<path d="M93.7102 87.265C92.4419 87.265 91.4663 86.2863 91.4663 85.112V81.5888C91.4663 81.0017 91.9541 80.5123 92.5395 80.5123C93.1248 80.5123 93.5151 81.0017 93.5151 81.5888V85.2098H105.808V81.5888C105.808 81.0017 106.296 80.6102 106.783 80.6102C107.369 80.6102 107.857 81.0995 107.857 81.5888V85.112C107.857 86.2863 106.881 87.265 105.613 87.265H93.7102Z" fill="url(#paint20_linear)"/>
<defs>
<linearGradient id="paint0_linear" x1="0" y1="57.6022" x2="3.22478" y2="57.6022" gradientUnits="userSpaceOnUse">
<stop stop-color="#83A6FF"/>
<stop offset="1" stop-color="#5A78FF"/>
</linearGradient>
<linearGradient id="paint1_linear" x1="31.3392" y1="10.8453" x2="89.0232" y2="10.8453" gradientUnits="userSpaceOnUse">
<stop stop-color="#EF4896"/>
<stop offset="1" stop-color="#F14D9A" stop-opacity="0"/>
</linearGradient>
<linearGradient id="paint2_linear" x1="80.5676" y1="17.8994" x2="83.5379" y2="17.8994" gradientUnits="userSpaceOnUse">
<stop stop-color="#83A6FF"/>
<stop offset="1" stop-color="#5A78FF"/>
</linearGradient>
<linearGradient id="paint3_linear" x1="40.3848" y1="20.0919" x2="51.9842" y2="20.0919" gradientUnits="userSpaceOnUse">
<stop stop-color="#FF66A9"/>
<stop offset="1" stop-color="#F53689"/>
</linearGradient>
<linearGradient id="paint4_linear" x1="40.3848" y1="28.9612" x2="51.9842" y2="28.9612" gradientUnits="userSpaceOnUse">
<stop stop-color="#FF66A9"/>
<stop offset="1" stop-color="#F53689"/>
</linearGradient>
<linearGradient id="paint5_linear" x1="55.6324" y1="22.3175" x2="60.6418" y2="22.3175" gradientUnits="userSpaceOnUse">
<stop stop-color="#83A6FF"/>
<stop offset="1" stop-color="#5A78FF"/>
</linearGradient>
<linearGradient id="paint6_linear" x1="74.0227" y1="24.5431" x2="77.5383" y2="24.5431" gradientUnits="userSpaceOnUse">
<stop stop-color="#83A6FF"/>
<stop offset="1" stop-color="#5A78FF"/>
</linearGradient>
<linearGradient id="paint7_linear" x1="47.3931" y1="48.9409" x2="72.3098" y2="48.9409" gradientUnits="userSpaceOnUse">
<stop stop-color="#FF66A9"/>
<stop offset="1" stop-color="#F53689"/>
</linearGradient>
<linearGradient id="paint8_linear" x1="50.6843" y1="37.8342" x2="58.9843" y2="37.8342" gradientUnits="userSpaceOnUse">
<stop stop-color="#FF66A9"/>
<stop offset="1" stop-color="#F53689"/>
</linearGradient>
<linearGradient id="paint9_linear" x1="78.5957" y1="37.8342" x2="81.3019" y2="37.8342" gradientUnits="userSpaceOnUse">
<stop stop-color="#83A6FF"/>
<stop offset="1" stop-color="#5A78FF"/>
</linearGradient>
<linearGradient id="paint10_linear" x1="61.4634" y1="40.0349" x2="64.9003" y2="40.0349" gradientUnits="userSpaceOnUse">
<stop stop-color="#FF66A9"/>
<stop offset="1" stop-color="#F53689"/>
</linearGradient>
<linearGradient id="paint11_linear" x1="56.4997" y1="33.4058" x2="60.2031" y2="33.4058" gradientUnits="userSpaceOnUse">
<stop stop-color="#83A6FF"/>
<stop offset="1" stop-color="#5A78FF"/>
</linearGradient>
<linearGradient id="paint12_linear" x1="73.1056" y1="46.694" x2="76.7802" y2="46.694" gradientUnits="userSpaceOnUse">
<stop stop-color="#83A6FF"/>
<stop offset="1" stop-color="#5A78FF"/>
</linearGradient>
<linearGradient id="paint13_linear" x1="26.713" y1="6.25531" x2="27.7828" y2="5.04722" gradientUnits="userSpaceOnUse">
<stop stop-color="#FF66A9"/>
<stop offset="1" stop-color="#F53689"/>
</linearGradient>
<linearGradient id="paint14_linear" x1="25.5374" y1="14.3387" x2="25.5273" y2="12.7222" gradientUnits="userSpaceOnUse">
<stop stop-color="#FF66A9"/>
<stop offset="1" stop-color="#F53689"/>
</linearGradient>
<linearGradient id="paint15_linear" x1="35.5793" y1="3.14006" x2="33.9685" y2="3.18897" gradientUnits="userSpaceOnUse">
<stop stop-color="#FF66A9"/>
<stop offset="1" stop-color="#F53689"/>
</linearGradient>
<linearGradient id="paint16_linear" x1="81.7466" y1="79.7577" x2="117.291" y2="79.7577" gradientUnits="userSpaceOnUse">
<stop stop-color="#83A6FF"/>
<stop offset="1" stop-color="#5A78FF"/>
</linearGradient>
<linearGradient id="paint17_linear" x1="96.6485" y1="79.2729" x2="111.156" y2="93.7353" gradientUnits="userSpaceOnUse">
<stop stop-color="#4F6AFF"/>
<stop offset="1" stop-color="#657EFF" stop-opacity="0"/>
</linearGradient>
<linearGradient id="paint18_linear" x1="108.336" y1="86.4058" x2="96.3308" y2="74.4382" gradientUnits="userSpaceOnUse">
<stop offset="0.0113208" stop-color="#C2D1FF"/>
<stop offset="1" stop-color="white"/>
</linearGradient>
<linearGradient id="paint19_linear" x1="102.997" y1="75.4735" x2="98.3694" y2="70.8601" gradientUnits="userSpaceOnUse">
<stop offset="0.0113208" stop-color="#C2D1FF"/>
<stop offset="1" stop-color="white"/>
</linearGradient>
<linearGradient id="paint20_linear" x1="105.242" y1="89.2" x2="92.8054" y2="76.8016" gradientUnits="userSpaceOnUse">
<stop offset="0.0113208" stop-color="#C2D1FF"/>
<stop offset="1" stop-color="white"/>
</linearGradient>
</defs>
</svg>
