<svg width="123" height="145" viewBox="0 0 123 145" fill="none" xmlns="http://www.w3.org/2000/svg">
<path d="M5.63226 19.8773C7.12306 19.3899 7.93879 17.7792 7.45424 16.2798C6.96969 14.7803 5.36835 13.9598 3.87755 14.4472C2.38675 14.9346 1.57103 16.5452 2.05558 18.0447C2.54013 19.5442 4.14146 20.3646 5.63226 19.8773Z" fill="#2A2E37"/>
<path d="M11.8283 10.5624C12.8421 10.2309 13.3967 9.13569 13.0673 8.11605C12.7378 7.09641 11.6488 6.53849 10.6351 6.8699C9.62136 7.20131 9.06667 8.29655 9.39616 9.3162C9.72565 10.3358 10.8146 10.8938 11.8283 10.5624Z" fill="#2A2E37"/>
<path d="M104.878 20.3618C106.637 18.745 106.76 16.0002 105.153 14.231C103.545 12.4618 100.816 12.3382 99.0572 13.955C97.2982 15.5717 97.1754 18.3166 98.7828 20.0858C100.39 21.855 103.119 21.9786 104.878 20.3618Z" fill="#2A2E37"/>
<path d="M118.659 12.4499C119.399 11.7692 119.451 10.6135 118.774 9.86854C118.098 9.12361 116.949 9.07158 116.208 9.75233C115.467 10.4331 115.416 11.5888 116.092 12.3337C116.769 13.0787 117.918 13.1307 118.659 12.4499Z" fill="#2A2E37"/>
<path d="M10.6196 113.889C11.3602 113.209 11.4119 112.053 10.7351 111.308C10.0583 110.563 8.90926 110.511 8.16864 111.192C7.42802 111.872 7.3763 113.028 8.0531 113.773C8.72991 114.518 9.87896 114.57 10.6196 113.889Z" fill="#EAEEF9"/>
<path d="M56.4277 119.927C87.5918 119.927 112.855 94.5168 112.855 63.1713C112.855 31.8258 87.5918 6.41528 56.4277 6.41528C25.2635 6.41528 0 31.8258 0 63.1713C0 94.5168 25.2635 119.927 56.4277 119.927Z" fill="#2A2E37"/>
<path d="M21.6856 55.9769L14.3057 24.4584C13.738 22.0603 15.214 19.7763 17.4847 19.2054L66.1919 7.55725L93.7813 26.3998L111.039 95.7175C111.607 98.1156 110.131 100.4 107.86 100.971L40.6462 116.958C38.2619 117.529 35.9912 116.045 35.4235 113.761L21.1179 53.5787" fill="#3A3F4C"/>
<path d="M106.724 53.8071L80.7243 120.27C79.816 122.554 77.3182 123.582 75.0475 122.668L11.1264 96.4027C8.8557 95.4891 7.83387 92.9768 8.74216 90.6928L43.1437 5.73011C44.052 3.44617 46.5498 2.41839 48.8206 3.33197L95.257 22.4029L106.724 53.8071Z" fill="#3A3F4C"/>
<path d="M95.1437 22.4029L87.7638 40.6744C86.7419 43.1868 88.1044 46.2701 90.6022 47.2979L106.724 53.8071" fill="#2E3746"/>
<g filter="url(#filter0_d)">
<path d="M100.026 107.48C100.026 109.878 98.0956 111.819 95.7113 111.819H26.6811C24.2968 111.819 22.3667 109.878 22.3667 107.48V15.6653C22.3667 13.2672 24.2968 11.3258 26.6811 11.3258H76.7507L99.2309 36.1066L99.6851 77.6744L100.026 107.48Z" fill="#474E61"/>
</g>
<path d="M87.3096 85.554H45.8688C45.1876 85.554 44.6199 84.983 44.6199 84.2978C44.6199 83.6126 45.1876 83.0416 45.8688 83.0416H87.3096C87.9908 83.0416 88.5585 83.6126 88.5585 84.2978C88.445 84.983 87.9908 85.554 87.3096 85.554Z" fill="#2E3746"/>
<path d="M40.7596 85.554H33.4933C32.8121 85.554 32.2444 84.983 32.2444 84.2978C32.2444 83.6126 32.8121 83.0416 33.4933 83.0416H40.7596C41.4408 83.0416 42.0085 83.6126 42.0085 84.2978C42.0085 84.983 41.4408 85.554 40.7596 85.554Z" fill="url(#paint0_linear)"/>
<path d="M87.196 74.2484H68.6896C68.0084 74.2484 67.4407 73.6774 67.4407 72.9923C67.4407 72.3071 68.0084 71.7361 68.6896 71.7361H87.196C87.8773 71.7361 88.4449 72.3071 88.4449 72.9923C88.3314 73.7916 87.8773 74.2484 87.196 74.2484Z" fill="#2E3746"/>
<path d="M60.8556 74.2484H33.8339C33.1526 74.2484 32.585 73.6774 32.585 72.9923C32.585 72.3071 33.1526 71.7361 33.8339 71.7361H60.8556C61.5368 71.7361 62.1045 72.3071 62.1045 72.9923C62.1045 73.7916 61.5368 74.2484 60.8556 74.2484Z" fill="#2E3746"/>
<path d="M87.5367 63.0571H80.3839C79.7027 63.0571 79.135 62.4862 79.135 61.801C79.135 61.1158 79.7027 60.5448 80.3839 60.5448H87.5367C88.2179 60.5448 88.7856 61.1158 88.7856 61.801C88.7856 62.4862 88.2179 63.0571 87.5367 63.0571Z" fill="url(#paint1_linear)"/>
<path d="M73.6852 63.0571H34.1744C33.4932 63.0571 32.9255 62.4862 32.9255 61.801C32.9255 61.1158 33.4932 60.5448 34.1744 60.5448H73.6852C74.3664 60.5448 74.9341 61.1158 74.9341 61.801C74.9341 62.4862 74.3664 63.0571 73.6852 63.0571Z" fill="#2E3746"/>
<path d="M55.9735 97.8872H53.4757C52.7945 97.8872 52.2268 97.3162 52.2268 96.631C52.2268 95.9459 52.7945 95.3749 53.4757 95.3749H55.9735C56.6547 95.3749 57.2224 95.9459 57.2224 96.631C57.1089 97.3162 56.5412 97.8872 55.9735 97.8872Z" fill="#2E3746"/>
<path d="M48.9342 97.8872H34.1744C33.4932 97.8872 32.9255 97.3162 32.9255 96.631C32.9255 95.9459 33.4932 95.3749 34.1744 95.3749H48.8207C49.5019 95.3749 50.0696 95.9459 50.0696 96.631C50.1831 97.3162 49.6154 97.8872 48.9342 97.8872Z" fill="#2E3746"/>
<path d="M87.8771 51.8657H62.4449C61.7637 51.8657 61.196 51.2947 61.196 50.6096C61.196 49.9244 61.7637 49.3534 62.4449 49.3534H87.8771C88.5584 49.3534 89.126 49.9244 89.126 50.6096C89.126 51.2947 88.5584 51.8657 87.8771 51.8657Z" fill="#2E3746"/>
<path d="M54.2706 51.8657H34.5153C33.834 51.8657 33.2664 51.2947 33.2664 50.6096C33.2664 49.9244 33.834 49.3534 34.5153 49.3534H54.1571C54.8383 49.3534 55.406 49.9244 55.406 50.6096C55.406 51.2947 54.9518 51.8657 54.2706 51.8657Z" fill="#2E3746"/>
<path d="M68.1218 26.5141H34.9691C34.0609 26.5141 33.3796 25.8289 33.3796 24.9153C33.3796 24.0017 34.0609 23.3165 34.9691 23.3165H68.1218C69.0301 23.3165 69.7113 24.0017 69.7113 24.9153C69.7113 25.7147 68.9166 26.5141 68.1218 26.5141Z" fill="#2E3746"/>
<path d="M47.5717 34.5078H34.9691C34.0609 34.5078 33.3796 33.8226 33.3796 32.9091C33.3796 31.9955 34.0609 31.3103 34.9691 31.3103H47.6852C48.5935 31.3103 49.2748 31.9955 49.2748 32.9091C49.1612 33.7084 48.48 34.5078 47.5717 34.5078Z" fill="#2E3746"/>
<path d="M76.7505 11.3258V30.9677C76.7505 33.7085 79.1348 35.9924 81.8596 35.9924H99.2307" fill="#354157"/>
<path d="M113.764 98.1156C113.764 100.856 113.31 103.369 112.288 105.767C110.017 111.705 105.135 116.273 99.1175 118.329C97.0738 119.014 94.9166 119.356 92.6459 119.356C80.9516 119.356 71.5281 109.878 71.5281 98.1156C71.5281 86.3533 80.9516 76.8749 92.6459 76.8749C104.34 76.8749 113.764 86.4675 113.764 98.1156Z" fill="url(#paint2_linear)"/>
<path d="M112.288 105.767C110.017 111.705 105.135 116.273 99.1174 118.329L87.3096 106.452L88.5585 98.915L89.5803 90.4644L92.4187 88.6373L93.8947 88.8657L95.1436 88.5231L112.288 105.767Z" fill="url(#paint3_linear)"/>
<path d="M96.5062 95.2607V91.4922C96.5062 89.4367 94.8032 87.7237 92.7595 87.7237C91.7377 87.7237 90.8294 88.1805 90.0346 88.8657C89.3534 89.5508 88.8993 90.4644 88.8993 91.6064V95.3749C87.8774 96.0601 87.0827 96.8595 86.4015 98.0014C85.8338 99.0292 85.4932 100.285 85.4932 101.542C85.4932 105.538 88.6722 108.736 92.646 108.736C96.6197 108.736 99.7988 105.538 99.7988 101.542C99.9123 98.8008 98.5499 96.5169 96.5062 95.2607ZM93.5543 102.227V104.168C93.5543 104.396 93.3272 104.625 93.1001 104.625H92.3054C92.0783 104.625 91.8512 104.396 91.8512 104.168V102.912V102.227C91.17 101.884 90.8294 101.085 90.9429 100.285C91.0565 99.6002 91.6241 99.0292 92.3054 98.915C93.4407 98.6866 94.4625 99.6002 94.4625 100.628C94.4625 101.313 94.1219 101.884 93.5543 102.227ZM94.8032 94.4613C94.1219 94.2329 93.4407 94.1187 92.646 94.1187C91.9647 94.1187 91.2835 94.2329 90.6023 94.4613V91.6064C90.6023 91.0354 90.8294 90.4644 91.17 90.1218C91.5106 89.7793 92.0783 89.5509 92.646 89.5509C93.7813 89.5509 94.6896 90.4644 94.6896 91.6064V94.4613H94.8032Z" fill="url(#paint4_linear)"/>
<defs>
<filter id="filter0_d" x="0.366699" y="0.325806" width="121.659" height="144.494" filterUnits="userSpaceOnUse" color-interpolation-filters="sRGB">
<feFlood flood-opacity="0" result="BackgroundImageFix"/>
<feColorMatrix in="SourceAlpha" type="matrix" values="0 0 0 0 0 0 0 0 0 0 0 0 0 0 0 0 0 0 127 0"/>
<feOffset dy="11"/>
<feGaussianBlur stdDeviation="11"/>
<feColorMatrix type="matrix" values="0 0 0 0 0 0 0 0 0 0 0 0 0 0 0 0 0 0 0.18 0"/>
<feBlend mode="normal" in2="BackgroundImageFix" result="effect1_dropShadow"/>
<feBlend mode="normal" in="SourceGraphic" in2="effect1_dropShadow" result="shape"/>
</filter>
<linearGradient id="paint0_linear" x1="32.2689" y1="84.3004" x2="41.9831" y2="84.3004" gradientUnits="userSpaceOnUse">
<stop stop-color="#FF66A9"/>
<stop offset="1" stop-color="#F53689"/>
</linearGradient>
<linearGradient id="paint1_linear" x1="79.1385" y1="61.8328" x2="88.7472" y2="61.8328" gradientUnits="userSpaceOnUse">
<stop stop-color="#FF66A9"/>
<stop offset="1" stop-color="#F53689"/>
</linearGradient>
<linearGradient id="paint2_linear" x1="81.3323" y1="80.7525" x2="104.756" y2="116.22" gradientUnits="userSpaceOnUse">
<stop stop-color="#83A6FF"/>
<stop offset="1" stop-color="#5A78FF"/>
</linearGradient>
<linearGradient id="paint3_linear" x1="88.7173" y1="94.9207" x2="103.777" y2="109.893" gradientUnits="userSpaceOnUse">
<stop stop-color="#4F6AFF"/>
<stop offset="1" stop-color="#657EFF" stop-opacity="0"/>
</linearGradient>
<linearGradient id="paint4_linear" x1="98.4895" y1="104.687" x2="89.0545" y2="95.3064" gradientUnits="userSpaceOnUse">
<stop offset="0.0113208" stop-color="#C2D1FF"/>
<stop offset="1" stop-color="white"/>
</linearGradient>
</defs>
</svg>
