<svg width="120" height="135" viewBox="0 0 120 135" fill="none" xmlns="http://www.w3.org/2000/svg">
<path d="M110.735 56.4973C110.735 67.9555 106.884 78.5011 100.5 87.0187C97.0539 91.5817 92.6961 95.5364 87.8316 98.6798C79.9268 103.851 70.5019 106.893 60.3676 106.893C32.4982 106.893 10 84.2809 10 56.4973C10 28.6122 32.4982 5.99994 60.3676 5.99994C70.5019 5.99994 79.9268 9.04195 87.8316 14.112C92.6961 17.2554 96.9525 21.3114 100.5 25.8744C106.985 34.392 110.735 45.039 110.735 56.4973Z" fill="#2A2E38"/>
<path d="M15.744 14.7025C17.1811 14.2352 17.9675 12.6906 17.5004 11.2526C17.0333 9.81469 15.4895 9.02787 14.0524 9.49524C12.6152 9.96261 11.8289 11.5072 12.296 12.9451C12.7631 14.3831 14.3068 15.1699 15.744 14.7025Z" fill="#2A2E38"/>
<path d="M21.6267 5.81094C22.5316 5.51682 23.0267 4.54446 22.7324 3.63913C22.4382 2.73379 21.466 2.23831 20.5611 2.53244C19.6562 2.82657 19.1611 3.79892 19.4554 4.70425C19.7497 5.60959 20.7218 6.10507 21.6267 5.81094Z" fill="#2A2E38"/>
<path d="M1.72284 63.195C2.67433 63.195 3.44567 62.4233 3.44567 61.4712C3.44567 60.5192 2.67433 59.7474 1.72284 59.7474C0.77134 59.7474 0 60.5192 0 61.4712C0 62.4233 0.77134 63.195 1.72284 63.195Z" fill="url(#paint0_linear)"/>
<path d="M112.552 32.9497C114.122 31.5141 114.232 29.0769 112.797 27.5059C111.362 25.935 108.926 25.8252 107.356 27.2608C105.786 28.6964 105.676 31.1337 107.111 32.7047C108.546 34.2756 110.982 34.3853 112.552 32.9497Z" fill="#2A2E38"/>
<path d="M111.68 16.1453C112.576 16.1453 113.302 15.4189 113.302 14.5229C113.302 13.6269 112.576 12.9005 111.68 12.9005C110.785 12.9005 110.059 13.6269 110.059 14.5229C110.059 15.4189 110.785 16.1453 111.68 16.1453Z" fill="url(#paint1_linear)"/>
<g filter="url(#filter0_d)">
<path d="M92.4252 11.6837H27.1602V101.22H92.4252V11.6837Z" fill="#474E61"/>
</g>
<path d="M35.7741 37.3371C35.3688 37.3371 34.9634 36.9317 34.9634 36.5263C34.9634 36.1209 35.3688 35.7156 35.7741 35.7156H83.7095C84.1149 35.7156 84.5202 36.1209 84.5202 36.5263C84.5202 36.9317 84.1149 37.3371 83.7095 37.3371H35.7741Z" fill="#2E3746"/>
<path d="M35.7741 43.4211C35.3688 43.4211 34.9634 43.0157 34.9634 42.6104C34.9634 42.205 35.3688 41.7996 35.7741 41.7996H83.7095C84.1149 41.7996 84.5202 42.205 84.5202 42.6104C84.5202 43.0157 84.1149 43.4211 83.7095 43.4211H35.7741Z" fill="#2E3746"/>
<path d="M35.7741 49.5051C35.3688 49.5051 34.9634 49.0997 34.9634 48.6944C34.9634 48.289 35.3688 47.8836 35.7741 47.8836H83.7095C84.1149 47.8836 84.5202 48.289 84.5202 48.6944C84.5202 49.0997 84.1149 49.5051 83.7095 49.5051H35.7741Z" fill="#2E3746"/>
<path d="M35.7741 55.6905C35.3688 55.6905 34.9634 55.2851 34.9634 54.8798C34.9634 54.4744 35.3688 54.069 35.7741 54.069H83.7095C84.1149 54.069 84.5202 54.4744 84.5202 54.8798C84.5202 55.2851 84.1149 55.6905 83.7095 55.6905H35.7741Z" fill="#2E3746"/>
<path d="M35.7741 61.7745C35.3688 61.7745 34.9634 61.3691 34.9634 60.9638C34.9634 60.5584 35.3688 60.153 35.7741 60.153H83.7095C84.1149 60.153 84.5202 60.5584 84.5202 60.9638C84.5202 61.3691 84.1149 61.7745 83.7095 61.7745H35.7741Z" fill="#2E3746"/>
<path d="M35.7741 67.8586C35.3688 67.8586 34.9634 67.4532 34.9634 67.0478C34.9634 66.6424 35.3688 66.2371 35.7741 66.2371H56.8535C57.2589 66.2371 57.6643 66.6424 57.6643 67.0478C57.6643 67.4532 57.2589 67.8586 56.8535 67.8586H35.7741Z" fill="#2E3746"/>
<path d="M70.9403 22.0266H48.5434C48.0367 22.0266 47.6313 21.621 47.6313 21.114C47.6313 20.607 48.0367 20.2014 48.5434 20.2014H70.9403C71.447 20.2014 71.8524 20.607 71.8524 21.114C71.8524 21.621 71.447 22.0266 70.9403 22.0266Z" fill="#1C3754"/>
<path d="M65.2651 26.7924H54.2187C53.712 26.7924 53.3066 26.3868 53.3066 25.8798C53.3066 25.3728 53.712 24.9672 54.2187 24.9672H65.2651C65.7719 24.9672 66.1772 25.3728 66.1772 25.8798C66.1772 26.3868 65.7719 26.7924 65.2651 26.7924Z" fill="#1C3754"/>
<path d="M79.8584 86.4157C79.6557 84.9961 79.5544 83.9821 78.541 83.6779C76.9195 83.2723 76.4127 85.4017 74.8926 87.0241C74.3859 87.5311 73.6765 87.9367 73.0684 88.3423C72.8657 88.4437 72.4604 88.6465 72.359 88.2409C71.9536 87.0241 72.359 87.6325 74.0818 85.7059C74.8926 84.7933 75.3993 83.6779 75.1966 82.3597C75.0953 81.5485 74.5886 80.8386 73.7778 80.5344C72.9671 80.2302 72.1563 80.3316 71.5483 81.0414C70.1295 82.7653 70.5348 83.7793 70.4335 86.3143C70.4335 86.5171 70.3321 86.7199 70.1295 86.8213C68.7107 87.6325 67.1905 88.1395 65.4677 88.3423C65.4677 88.2409 65.4677 88.2409 65.4677 88.2409C66.3798 87.0241 68.2039 84.8947 68.6093 81.2443C68.812 79.8246 68.812 78.5064 68.1026 77.1882C66.7851 74.7546 63.2381 75.0588 61.6166 77.9994C59.9951 81.1428 60.2992 86.0101 62.5287 88.7479C62.022 89.1535 61.6166 89.5591 61.1099 89.8633C60.8059 90.0661 60.7045 90.5731 60.9072 90.8773C61.1099 91.2829 61.718 91.3843 62.1233 91.0801C63.7448 89.7619 63.6435 89.8633 63.8462 89.7619C64.1502 89.6605 64.4542 89.7619 64.7583 89.7619C65.873 89.7619 66.5824 89.6605 67.3932 89.5591C67.7986 89.4577 70.5348 88.4437 70.6362 88.4437C70.6362 88.4437 70.6362 88.5451 70.7375 88.6465C71.0416 89.7619 71.6496 90.1675 72.8657 90.0661C73.7778 89.9647 74.5886 89.5591 75.298 88.9507C76.1087 88.1395 77.4262 86.5171 78.1356 85.6045C78.3383 86.3143 78.3383 86.9227 78.541 87.5311C78.9463 88.6465 80.0611 88.8493 80.7705 87.9367C81.5812 87.0241 81.8853 85.8073 82.7974 85.3003C83.1014 85.1989 83.3041 84.8947 83.3041 84.5905C83.3041 83.9821 82.696 83.6779 82.1893 83.8807C81.0745 84.3877 80.4665 85.4017 79.8584 86.4157ZM63.8462 87.8353C63.0354 86.8213 62.7314 85.7059 62.5287 84.4891C62.1233 82.6639 62.326 80.8386 63.0354 79.1148C63.4408 78.2022 63.9475 77.4924 64.961 77.2896C65.9744 77.0868 66.6838 77.2896 66.8865 78.3036C67.6972 81.7513 66.2784 85.0975 63.8462 87.8353ZM72.359 82.5625C72.9671 81.3456 73.6765 82.4611 73.5751 82.9681C73.3724 83.5765 73.0684 84.0835 72.7644 84.5905C72.5617 84.8947 72.359 85.0975 72.055 85.4017C71.9536 84.3877 71.9536 83.4751 72.359 82.5625Z" fill="url(#paint2_linear)"/>
<path d="M119.585 50.3172C118.166 52.3452 116.748 54.2718 115.531 56.4012C113.809 59.2404 112.896 58.4292 108.539 59.7474L112.39 60.66C112.491 60.66 112.491 60.66 112.592 60.7614C112.795 60.9642 112.896 61.2684 112.694 61.4712C112.086 62.3838 111.478 63.2964 110.87 64.209C106.309 70.2931 99.6205 74.4505 92.1211 75.8701C91.1077 76.0729 90.1956 76.7827 89.7902 77.6953C88.8781 79.5205 88.0674 81.3457 87.1553 83.1709C86.8513 83.7793 86.2432 83.9821 85.6352 83.6779C85.0271 83.3737 84.8244 82.7653 85.1285 82.1569C85.6352 81.0415 86.1419 79.9261 86.6486 78.9121C87.054 77.9995 86.9526 77.0869 86.6486 76.1743C86.1419 74.5519 85.7365 72.9295 85.6352 71.2057C85.6352 69.5833 85.9392 67.8594 86.3446 66.237C87.054 63.6006 88.0674 61.0656 89.5876 58.8348L89.6889 58.7334C89.7902 58.7334 89.9929 58.7334 89.9929 58.9362C90.0943 59.3418 90.1956 59.646 90.3983 60.153C90.601 59.139 90.905 58.125 91.209 57.111C91.3104 56.7054 91.6144 56.2998 91.9184 55.8942C93.5399 54.2718 95.3641 52.8522 97.391 51.7368H97.4923C97.5937 51.7368 97.695 51.8382 97.695 51.9396C97.695 52.548 97.695 53.2578 97.695 53.8662C98.5058 52.6494 99.4178 51.6354 100.431 50.52C100.735 50.2158 101.141 49.9116 101.546 49.8102C107.221 47.7822 113.403 47.478 119.18 49.1004C120.193 49.3032 120.193 49.506 119.585 50.3172Z" fill="url(#paint3_linear)"/>
<path opacity="0.3" d="M109.045 54.8802C97.5936 59.139 91.513 68.5693 86.6486 78.8107C87.0539 77.8981 86.9526 76.9855 86.6486 76.0729C86.4459 75.4645 86.3445 74.9575 86.1418 74.3491C86.2432 74.3491 86.2432 74.2477 86.3445 74.2477C91.3103 64.8175 97.4923 56.7054 108.235 52.6494C108.843 52.4466 109.451 52.7508 109.653 53.3592C109.856 54.069 109.552 54.6774 109.045 54.8802Z" fill="white"/>
<path d="M44.1257 90.5224C43.4163 91.2322 42.4029 91.6378 41.5922 91.0294C40.376 90.1168 39.9707 89.914 39.1599 89.8126C38.1465 89.7112 37.2344 89.6098 36.9304 88.4944C36.829 88.1902 36.829 87.9874 36.829 87.6832C36.7277 86.9734 36.4237 86.2636 35.9169 85.6552C35.2075 84.844 34.7008 84.1342 35.2075 83.2216C35.8156 82.2076 36.4237 81.802 36.4237 80.5852C36.4237 80.1796 36.4236 79.8754 36.525 79.5712C36.7277 78.76 37.4371 78.1516 38.2478 78.1516C38.5519 78.1516 38.8559 78.0502 39.1599 78.0502C40.1733 77.9488 40.4774 77.239 41.7948 76.732C42.2002 76.5292 42.6056 76.6306 43.011 76.8334C43.315 77.0362 43.619 77.239 44.0244 77.5432C44.9365 78.253 45.5445 77.9488 46.862 78.3544C47.4701 78.5572 47.7741 79.0642 47.8754 79.5712C47.8754 80.1796 48.0781 80.8894 48.2808 81.3964C48.7875 82.4104 49.801 82.9174 49.6996 84.0328C49.6996 84.2356 49.5983 84.5398 49.4969 84.6412C48.9902 85.2496 48.5848 86.0608 48.2808 86.872C48.1795 87.1762 48.1795 87.379 48.1795 87.6832C48.1795 88.2916 47.9768 88.7986 47.5714 89.1028C46.3553 90.3196 45.2405 89.407 44.1257 90.5224ZM37.8425 86.872C39.4639 89.2042 42.5042 89.8126 44.9365 88.2916C47.2674 86.872 47.8754 83.7286 46.4566 81.4978C46.4566 81.4978 46.4566 81.3964 46.3553 81.3964C44.8351 79.0642 41.5922 78.4558 39.2613 79.9768C36.9304 81.3964 36.3223 84.5398 37.7411 86.7706C37.8425 86.7706 37.8425 86.872 37.8425 86.872Z" fill="#2E3746"/>
<path d="M39.7678 80.6866C41.6934 79.3684 44.3283 79.8754 45.7471 81.9034C47.0645 83.7286 46.5578 86.2636 44.7337 87.5818L44.6323 87.6832C42.7068 89.0014 40.0719 88.393 38.6531 86.4664C37.3356 84.6412 37.8423 82.1062 39.6665 80.788C39.6665 80.6866 39.6665 80.6866 39.7678 80.6866Z" fill="#2E3746"/>
<path d="M38 24.3701C38 28.8835 36.0472 32.909 32.9961 35.7147C30.189 38.2763 26.5276 39.8621 22.5 39.8621C19.2047 39.8621 16.1535 38.8863 13.7126 37.1785C9.68504 34.3728 7 29.7374 7 24.4921C7 15.9531 13.9567 9 22.5 9C31.0433 9 38 15.8311 38 24.3701Z" fill="#474E61"/>
<path d="M32.4282 36.3548C32.3062 35.9889 33.2401 35.9588 33.118 35.5928C33.118 35.4708 32.996 35.3488 32.8739 35.1049C32.2637 33.885 31.2873 32.6652 29.9448 31.9333C29.3345 31.5673 28.6023 31.4453 27.7479 31.4453C27.5038 31.4453 27.2597 31.4453 27.1377 31.4453C25.7952 31.4453 25.6731 31.2014 25.6731 31.2014V29.0056C26.4054 28.3957 27.0157 27.7858 27.5038 27.0539C27.992 26.322 28.3582 25.5901 28.6023 24.7362C29.4566 24.4922 30.0668 23.7603 29.9448 22.9064C29.9448 22.5404 29.7007 22.1745 29.7007 21.8085C29.7007 21.5646 29.7007 21.4426 29.7007 21.1986C29.7007 21.0766 29.7007 20.9546 29.7007 20.8327C29.7007 20.7107 29.7007 20.5887 29.7007 20.4667C29.5786 19.8568 29.4566 19.1249 28.9684 18.271C27.87 16.1972 25.6731 14.8554 23.2322 14.8554C22.744 14.8554 22.2558 14.8554 21.7676 14.9774C20.9133 15.2214 20.059 15.5873 19.3267 16.0753C19.2046 16.1972 19.0826 16.3192 18.9605 16.4412C18.9605 16.4412 18.8385 16.4412 18.8385 16.5632C18.1062 17.2951 17.496 18.149 17.1298 19.2469C16.7637 20.2227 16.7637 21.3206 16.8857 22.4185C16.8857 22.4185 16.8857 22.4185 16.8857 22.5405C16.8857 22.5405 16.8857 22.5404 16.8857 22.6624C16.8857 22.9064 17.0078 22.7844 16.8857 23.0284L16.7637 23.1504C16.6416 23.3943 16.5196 23.8823 16.6416 24.3702C17.0078 25.3461 17.618 25.2241 18.2283 25.7121C18.2283 25.7121 18.1062 25.7121 18.1062 25.834L17.3739 26.078C14.3227 27.0539 13.3464 29.6156 14.5668 31.2014C15.055 31.8113 15.7873 32.2992 17.0078 32.5432C16.6416 32.5432 16.3975 32.7872 16.2755 32.9092C14.933 34.007 14.0786 35.5928 13.8345 37.1786C13.7125 37.6666 14.2007 38.0325 14.5668 38.0325L31.3206 36.9086C31.9309 36.5427 32.5503 36.8428 32.4282 36.3548ZM19.3267 27.7858C19.4487 28.0298 19.6928 28.2737 19.9369 28.5177C20.059 28.6397 20.303 28.8837 20.5471 29.0056C20.6692 29.1276 20.7912 29.2496 20.9133 29.2496C20.9133 29.2496 20.9133 29.2496 21.0353 29.3716C21.0353 29.3716 21.1574 29.3716 21.1574 29.4936V30.7134C21.1574 30.7134 21.1574 30.7134 21.0353 30.5914C20.9133 30.4695 20.7912 30.3475 20.6692 30.3475C20.4251 30.2255 20.3031 30.1035 20.059 29.9815C19.9369 29.9815 19.9369 29.8595 19.8149 29.8595C19.2046 29.4936 18.5944 29.1276 18.5944 28.6397C18.7164 28.3957 18.9605 28.1517 19.3267 27.7858Z" fill="#7A83A0"/>
<path d="M32.9959 35.5927C30.1888 38.1544 26.5274 39.7402 22.4998 39.7402C19.2045 39.7402 16.1533 38.7643 13.7124 37.0565C13.7124 36.9346 13.7124 36.9346 13.7124 36.8126C13.9565 35.2268 14.8108 33.641 16.1533 32.5431C16.3974 32.4211 16.6415 32.1772 16.8856 32.1772C15.7872 31.9332 14.9329 31.4453 14.4447 30.8353H18.1061C19.0825 32.2991 20.7911 33.153 22.7439 33.153C24.3305 33.153 25.7951 32.5431 26.7715 31.4453C26.8935 31.4453 27.0156 31.4453 27.1376 31.4453C27.2596 31.4453 27.5037 31.4453 27.7478 31.4453C28.6022 31.4453 29.3345 31.6892 29.9447 31.9332C31.2872 32.5431 32.2636 33.763 32.8738 35.1048C32.8738 35.3488 32.9959 35.4707 32.9959 35.5927Z" fill="url(#paint4_linear)"/>
<path d="M25.6729 29.0056V31.0793L19.6926 31.3233L20.0588 29.9814C20.1808 29.9814 20.1808 30.1034 20.3029 30.1034C20.547 30.2254 20.669 30.3474 20.9131 30.4694C21.0351 30.5914 21.1572 30.5914 21.2792 30.7133C21.2792 30.7133 21.2792 30.7133 21.4013 30.8353V29.4935C21.4013 29.4935 21.2792 29.4935 21.2792 29.3715C22.2556 29.8595 23.7202 30.2254 25.6729 29.0056Z" fill="url(#paint5_linear)"/>
<path d="M29.5787 20.8326C28.3582 21.1985 27.1377 21.4425 25.9172 21.3205C23.9645 21.1985 22.0117 20.3446 20.5472 19.0028C20.059 20.4666 18.8385 21.5645 17.3739 22.1744C17.1298 22.2964 17.0078 22.2964 16.7637 22.4184C16.7637 22.4184 16.7637 22.4184 16.7637 22.2964C16.6417 21.1985 16.7637 20.2226 17.0078 19.1248C17.3739 18.1489 17.9842 17.173 18.7165 16.4411C18.7165 16.4411 18.8385 16.4411 18.8385 16.3191C18.9606 16.1971 19.0826 16.0752 19.2046 15.9532C19.9369 15.4652 20.7913 15.0993 21.6456 14.8553C22.1338 14.7333 22.622 14.7333 23.1102 14.7333C25.5511 14.7333 27.748 16.0752 28.8464 18.1489C29.2125 19.0028 29.4566 19.6127 29.5787 20.2227C29.5787 20.4666 29.5787 20.5886 29.5787 20.8326Z" fill="#1C3754"/>
<path d="M22.0118 34.8608C21.5237 35.4707 20.5473 35.5927 19.6929 35.4707C20.5473 34.6168 20.0591 31.8112 17.0079 32.1771C12.7363 31.3232 13.2244 27.0538 17.3741 25.7119L18.1063 25.468L18.2284 25.5899C18.5945 26.4438 18.9607 27.1757 19.4489 27.7857C17.7402 29.2495 20.0591 29.6154 21.2796 30.7133C22.1339 31.3232 22.9882 33.6409 22.0118 34.8608Z" fill="#1C3754"/>
<path d="M38 24.3701C38 28.8835 36.0472 32.909 32.9961 35.7147C30.189 38.2763 26.5276 39.8621 22.5 39.8621C19.2047 39.8621 16.1535 38.8863 13.7126 37.1785C9.68504 34.3728 7 29.7374 7 24.4921C7 15.9531 13.9567 9 22.5 9C31.0433 9 38 15.8311 38 24.3701Z" stroke="#687086" stroke-width="1.492" stroke-miterlimit="10" stroke-linecap="round" stroke-linejoin="round"/>
<defs>
<filter id="filter0_d" x="5.16016" y="0.683716" width="109.265" height="133.536" filterUnits="userSpaceOnUse" color-interpolation-filters="sRGB">
<feFlood flood-opacity="0" result="BackgroundImageFix"/>
<feColorMatrix in="SourceAlpha" type="matrix" values="0 0 0 0 0 0 0 0 0 0 0 0 0 0 0 0 0 0 127 0"/>
<feOffset dy="11"/>
<feGaussianBlur stdDeviation="11"/>
<feColorMatrix type="matrix" values="0 0 0 0 0 0 0 0 0 0 0 0 0 0 0 0 0 0 0.18 0"/>
<feBlend mode="normal" in2="BackgroundImageFix" result="effect1_dropShadow"/>
<feBlend mode="normal" in="SourceGraphic" in2="effect1_dropShadow" result="shape"/>
</filter>
<linearGradient id="paint0_linear" x1="0" y1="61.5216" x2="3.3498" y2="61.5216" gradientUnits="userSpaceOnUse">
<stop stop-color="#83A6FF"/>
<stop offset="1" stop-color="#5A78FF"/>
</linearGradient>
<linearGradient id="paint1_linear" x1="110.133" y1="14.5445" x2="113.279" y2="14.5445" gradientUnits="userSpaceOnUse">
<stop stop-color="#FF66A9"/>
<stop offset="1" stop-color="#F53689"/>
</linearGradient>
<linearGradient id="paint2_linear" x1="60.6771" y1="83.4957" x2="83.2757" y2="83.4957" gradientUnits="userSpaceOnUse">
<stop stop-color="#83A6FF"/>
<stop offset="1" stop-color="#5A78FF"/>
</linearGradient>
<linearGradient id="paint3_linear" x1="105.291" y1="70.0511" x2="93.687" y2="54.1937" gradientUnits="userSpaceOnUse">
<stop stop-color="#83A6FF"/>
<stop offset="1" stop-color="#5A78FF"/>
</linearGradient>
<linearGradient id="paint4_linear" x1="13.7502" y1="35.3412" x2="33.0486" y2="35.3412" gradientUnits="userSpaceOnUse">
<stop stop-color="#FF66A9"/>
<stop offset="1" stop-color="#F53689"/>
</linearGradient>
<linearGradient id="paint5_linear" x1="22.6919" y1="31.4098" x2="22.6919" y2="30.078" gradientUnits="userSpaceOnUse">
<stop stop-color="#7A83A0"/>
<stop offset="0.9913" stop-color="#58617D"/>
</linearGradient>
</defs>
</svg>
