<svg width="120" height="95" viewBox="0 0 120 95" fill="none" xmlns="http://www.w3.org/2000/svg">
<path d="M72.4093 59.8333V76.7556C72.294 78.8419 63.3005 80.6964 50.6173 81.5078C46.2359 81.7396 41.3932 81.9714 36.2047 81.9714C30.4396 81.9714 25.0204 81.7396 20.2931 81.3919C8.30171 80.4646 0.115301 78.726 0 76.7556V59.8333H72.4093Z" fill="#15181C"/>
<path d="M72.4093 58.5583V75.4807C72.294 77.567 63.3005 79.4215 50.6173 80.2328C46.2359 80.4646 41.3932 80.6964 36.2047 80.6964C30.4396 80.6964 25.0204 80.4646 20.2931 80.1169C8.30171 79.1897 0.115301 77.4511 0 75.4807V58.5583H72.4093Z" fill="url(#paint0_linear)"/>
<path d="M72.4093 58.6743C72.4093 61.5719 56.1518 63.8901 36.2047 63.8901C30.4396 63.8901 25.0204 63.6582 20.2931 63.3105C8.30171 62.4992 0 60.7606 0 58.6743V58.5584C0.115301 57.6311 2.07543 56.7039 5.30387 56.0084C5.88037 55.8925 6.45688 55.7766 7.14869 55.6607C10.6077 54.9653 15.1045 54.5017 20.2931 54.038C25.1357 53.6903 30.5549 53.4585 36.2047 53.4585C48.196 53.4585 58.6884 54.2698 65.3759 55.5448C66.2983 55.6607 66.9902 55.8925 67.7973 56.1243C70.6798 56.8198 72.294 57.6311 72.4093 58.5584V58.6743Z" fill="#EAEEF9"/>
<path d="M72.4093 58.6743C72.4093 61.5719 56.1518 63.8901 36.2047 63.8901C30.4396 63.8901 25.0204 63.6582 20.2931 63.3105C8.30171 62.4992 0 60.7606 0 58.6743V58.5584C0.115301 57.6311 2.07543 56.7039 5.30387 56.0084C5.88037 55.8925 6.45688 55.7766 7.14869 55.6607C10.6077 54.9653 15.1045 54.5017 20.2931 54.038C25.1357 53.6903 30.5549 53.4585 36.2047 53.4585C48.196 53.4585 58.6884 54.2698 65.3759 55.5448C66.2983 55.6607 66.9902 55.8925 67.7973 56.1243C70.6798 56.8198 72.294 57.6311 72.4093 58.5584V58.6743Z" fill="#545D71"/>
<path d="M67.7971 45.1132V58.6743C63.0697 59.9492 52.5773 61.3401 36.2045 61.3401C30.0935 61.3401 24.7897 61.1083 20.2929 60.7606C13.2595 60.2969 8.30155 59.4856 5.30371 58.7902V45.1132H67.7971Z" fill="#3A4252"/>
<path d="M72.4093 35.7248V52.6471C72.4093 53.5744 70.6798 54.3857 67.682 55.1971C66.9902 55.4289 66.183 55.5448 65.2606 55.7766C58.8037 56.8197 48.196 57.747 36.2047 57.747C30.4396 57.747 25.0204 57.5152 20.2931 57.1675C14.9892 56.8197 10.4924 56.2402 7.03339 55.5448C6.34158 55.4289 5.76507 55.313 5.18857 55.1971C1.96012 54.5016 0 53.5744 0 52.5312V35.7248H72.4093Z" fill="url(#paint1_linear)"/>
<path d="M72.4093 35.8407C72.4093 38.7384 56.1518 41.0565 36.2047 41.0565C30.4396 41.0565 25.0204 40.8247 20.2931 40.477C8.30171 39.5497 0 37.8111 0 35.8407V35.7248C0.115301 34.7976 2.07543 33.8703 5.30387 33.1749C5.88037 33.059 6.45688 32.9431 7.03339 32.8272C10.4924 32.1317 14.9892 31.6681 20.2931 31.2045C25.1357 30.8568 30.5549 30.6249 36.2047 30.6249C48.196 30.6249 58.8037 31.4363 65.3759 32.7113C66.183 32.8272 66.9902 33.059 67.682 33.2908C70.5645 33.9862 72.1787 34.7976 72.294 35.7248C72.4093 35.7248 72.4093 35.7248 72.4093 35.8407Z" fill="#545D71"/>
<path d="M67.7971 21.9319V35.493C67.5665 35.6089 67.3359 35.6089 66.99 35.7248C61.9167 36.8839 51.6549 38.2747 36.2045 38.2747C30.0935 38.2747 24.7897 38.0429 20.2929 37.6952C13.3748 37.1157 8.53215 36.4202 5.53431 35.7248C5.41901 35.7248 5.41901 35.7248 5.30371 35.7248V21.9319H67.7971Z" fill="#3A4252"/>
<path d="M72.4093 12.7753V29.6976C72.4093 30.6249 70.6798 31.4362 67.682 32.2476C66.9902 32.3635 66.183 32.5953 65.3759 32.7112C58.8037 33.9862 48.196 34.7975 36.2047 34.7975C30.4396 34.7975 25.0204 34.5657 20.2931 34.218C14.9892 33.8703 10.4924 33.2907 7.03339 32.5953C6.45688 32.4794 5.76507 32.3635 5.30387 32.2476C1.96012 31.5521 0 30.7408 0 29.6976V12.7753H72.4093Z" fill="url(#paint2_linear)"/>
<path d="M72.4093 12.8913C72.4093 15.7889 56.1518 18.107 36.2047 18.107C30.4396 18.107 25.0204 17.8752 20.2931 17.5275C8.30171 16.7162 0 14.9776 0 12.8913V12.7754C0.461206 9.9936 16.4881 7.67548 36.2047 7.67548C36.5506 7.67548 36.8965 7.67548 37.2424 7.67548C56.4977 7.90729 71.9481 10.1095 72.4093 12.7754C72.4093 12.8913 72.4093 12.8913 72.4093 12.8913Z" fill="#545D71"/>
<path d="M13.4904 26.8C14.3182 26.8 14.9893 26.0735 14.9893 25.1773C14.9893 24.2811 14.3182 23.5546 13.4904 23.5546C12.6625 23.5546 11.9915 24.2811 11.9915 25.1773C11.9915 26.0735 12.6625 26.8 13.4904 26.8Z" fill="url(#paint3_linear)"/>
<path d="M7.37929 25.8728C8.20712 25.8728 8.87821 25.1463 8.87821 24.2501C8.87821 23.3539 8.20712 22.6274 7.37929 22.6274C6.55146 22.6274 5.88037 23.3539 5.88037 24.2501C5.88037 25.1463 6.55146 25.8728 7.37929 25.8728Z" fill="#3A4252"/>
<path d="M13.4904 49.7495C14.3182 49.7495 14.9893 49.023 14.9893 48.1268C14.9893 47.2306 14.3182 46.5041 13.4904 46.5041C12.6625 46.5041 11.9915 47.2306 11.9915 48.1268C11.9915 49.023 12.6625 49.7495 13.4904 49.7495Z" fill="#3A4252"/>
<path d="M7.37929 48.8222C8.20712 48.8222 8.87821 48.0957 8.87821 47.1995C8.87821 46.3033 8.20712 45.5768 7.37929 45.5768C6.55146 45.5768 5.88037 46.3033 5.88037 47.1995C5.88037 48.0957 6.55146 48.8222 7.37929 48.8222Z" fill="url(#paint4_linear)"/>
<path d="M13.4904 72.1194C14.3182 72.1194 14.9893 71.3929 14.9893 70.4967C14.9893 69.6005 14.3182 68.874 13.4904 68.874C12.6625 68.874 11.9915 69.6005 11.9915 70.4967C11.9915 71.3929 12.6625 72.1194 13.4904 72.1194Z" fill="url(#paint5_linear)"/>
<path d="M7.37929 71.1921C8.20712 71.1921 8.87821 70.4656 8.87821 69.5694C8.87821 68.6732 8.20712 67.9467 7.37929 67.9467C6.55146 67.9467 5.88037 68.6732 5.88037 69.5694C5.88037 70.4656 6.55146 71.1921 7.37929 71.1921Z" fill="#3A4252"/>
<path opacity="0.2" d="M72.4094 12.7754V29.6977C72.4094 30.6249 70.6798 31.4363 67.682 32.2476V33.2908C70.5645 33.9862 72.1788 34.7975 72.2941 35.7248V52.6471C72.2941 53.5744 70.5645 54.3857 67.5667 55.1971V56.2402C70.4492 56.9356 72.0635 57.747 72.1788 58.6742V75.5966C72.0635 77.6829 63.0699 79.5374 50.3868 80.3487C46.0053 80.5805 41.1627 80.8123 35.9741 80.8123C30.209 80.8123 24.7899 80.5805 20.0625 80.2328V17.6434L23.8674 15.0935L27.0959 12.8913L30.7855 10.4572L33.6681 8.60273L37.1271 7.90729C56.4978 7.90729 71.9482 10.1095 72.4094 12.7754Z" fill="#656C7D"/>
<path d="M116.8 65.9763V87.5349C116.57 91.128 96.0462 94.0256 70.6799 94.0256C45.3136 94.0256 24.7899 91.128 24.5593 87.5349V65.9763H116.8Z" fill="#15181C"/>
<path d="M116.8 64.7014V86.2599C116.57 89.853 96.0462 92.7507 70.6799 92.7507C45.3136 92.7507 24.7899 89.853 24.5593 86.2599V64.7014H116.8Z" fill="url(#paint6_linear)"/>
<path d="M24.5593 64.8173C24.5593 68.4104 45.1983 71.4239 70.6799 71.4239C96.1615 71.4239 116.8 68.5263 116.8 64.8173C116.8 61.2242 96.1615 58.2106 70.6799 58.2106C45.1983 58.2106 24.5593 61.2242 24.5593 64.8173Z" fill="#EAEEF9"/>
<path d="M24.5593 64.8173C24.5593 68.4104 45.1983 71.4239 70.6799 71.4239C96.1615 71.4239 116.8 68.5263 116.8 64.8173C116.8 61.2242 96.1615 58.2106 70.6799 58.2106C45.1983 58.2106 24.5593 61.2242 24.5593 64.8173Z" fill="#545D71"/>
<path d="M31.2466 47.5472V64.9332C37.5882 66.44 50.7325 68.1786 70.6797 68.1786C91.4339 68.1786 104.924 66.3241 110.805 64.7014V47.5472H31.2466Z" fill="#3A4252"/>
<path d="M116.8 35.6089V57.1675C116.57 60.7605 96.0462 63.6582 70.6799 63.6582C45.3136 63.6582 24.7899 60.7605 24.5593 57.1675V35.6089H116.8Z" fill="url(#paint7_linear)"/>
<path d="M24.5593 35.7248C24.5593 39.3179 45.1983 42.3314 70.6799 42.3314C96.1615 42.3314 116.8 39.4338 116.8 35.7248C116.8 32.0158 96.1615 29.1181 70.6799 29.1181C45.1983 29.1181 24.5593 32.1317 24.5593 35.7248Z" fill="#545D71"/>
<path d="M31.2466 18.107V35.4929C37.5882 36.9997 50.7325 38.7383 70.6797 38.7383C91.4339 38.7383 104.924 36.8838 110.805 35.2611V18.107H31.2466Z" fill="#3A4252"/>
<path d="M116.8 6.40051V27.9591C116.57 31.5522 96.0462 34.4498 70.6799 34.4498C45.3136 34.4498 24.7899 31.5522 24.5593 27.9591V6.40051H116.8Z" fill="url(#paint8_linear)"/>
<path d="M24.5593 6.63229C24.5593 10.2254 45.1983 13.239 70.6799 13.239C96.1615 13.239 116.8 10.3413 116.8 6.63229C116.8 2.92329 96.0462 0.0256348 70.5646 0.0256348C45.1983 0.0256348 24.5593 2.92329 24.5593 6.63229Z" fill="#545D71"/>
<path d="M41.6237 24.25C42.7062 24.25 43.5838 23.3159 43.5838 22.1637C43.5838 21.0115 42.7062 20.0774 41.6237 20.0774C40.5411 20.0774 39.6636 21.0115 39.6636 22.1637C39.6636 23.3159 40.5411 24.25 41.6237 24.25Z" fill="url(#paint9_linear)"/>
<path d="M33.8986 23.091C34.9811 23.091 35.8587 22.1569 35.8587 21.0046C35.8587 19.8524 34.9811 18.9183 33.8986 18.9183C32.8161 18.9183 31.9385 19.8524 31.9385 21.0046C31.9385 22.1569 32.8161 23.091 33.8986 23.091Z" fill="#3A4252"/>
<path d="M41.6237 53.5744C42.7062 53.5744 43.5838 52.6403 43.5838 51.488C43.5838 50.3358 42.7062 49.4017 41.6237 49.4017C40.5411 49.4017 39.6636 50.3358 39.6636 51.488C39.6636 52.6403 40.5411 53.5744 41.6237 53.5744Z" fill="#3A4252"/>
<path d="M33.8986 52.2993C34.9811 52.2993 35.8587 51.3653 35.8587 50.213C35.8587 49.0608 34.9811 48.1267 33.8986 48.1267C32.8161 48.1267 31.9385 49.0608 31.9385 50.213C31.9385 51.3653 32.8161 52.2993 33.8986 52.2993Z" fill="url(#paint10_linear)"/>
<path d="M41.6237 82.0873C42.7062 82.0873 43.5838 81.1532 43.5838 80.001C43.5838 78.8488 42.7062 77.9147 41.6237 77.9147C40.5411 77.9147 39.6636 78.8488 39.6636 80.001C39.6636 81.1532 40.5411 82.0873 41.6237 82.0873Z" fill="url(#paint11_linear)"/>
<path d="M33.8986 80.8123C34.9811 80.8123 35.8587 79.8783 35.8587 78.726C35.8587 77.5738 34.9811 76.6397 33.8986 76.6397C32.8161 76.6397 31.9385 77.5738 31.9385 78.726C31.9385 79.8783 32.8161 80.8123 33.8986 80.8123Z" fill="#3A4252"/>
<path d="M120 69.9143C120 73.3914 118.501 76.5209 116.195 78.7231C114.12 80.6935 111.237 81.8526 108.124 81.8526C108.124 81.8526 107.432 81.8526 91.8665 81.8526C91.29 81.8526 90.7135 81.8526 90.137 81.8526C89.2146 81.8526 88.1769 81.8526 87.2545 81.8526H68.5756C60.6198 82.0844 54.3936 75.7096 54.3936 68.0598C54.3936 60.4099 60.6198 54.0351 68.5756 54.2669H68.6909C69.498 51.8329 70.5358 49.6307 71.9194 47.8921C71.9194 47.8921 71.9194 47.8921 71.9194 47.7762C74.3407 44.5308 77.5692 42.2126 81.1435 40.9377C81.2588 40.8218 81.4894 40.8218 81.6047 40.7059C86.3321 39.0832 91.6359 39.1991 96.3633 40.9377C103.051 43.4876 108.47 49.2829 109.623 57.9759C115.503 58.9032 120 63.8871 120 69.9143Z" fill="url(#paint12_linear)"/>
<path d="M108.124 81.8542C114.683 81.8542 120 76.5092 120 69.9158C120 63.3225 114.683 57.9775 108.124 57.9775C101.565 57.9775 96.248 63.3225 96.248 69.9158C96.248 76.5092 101.565 81.8542 108.124 81.8542Z" fill="url(#paint13_linear)"/>
<path d="M88.7535 81.97C100.407 81.97 109.854 72.4736 109.854 60.7592C109.854 49.0448 100.407 39.5483 88.7535 39.5483C77.1002 39.5483 67.6533 49.0448 67.6533 60.7592C67.6533 72.4736 77.1002 81.97 88.7535 81.97Z" fill="url(#paint14_linear)"/>
<path d="M116.141 78.8047C114.065 80.7751 111.183 81.9341 108.07 81.9341C108.07 81.9341 107.378 81.9341 91.8123 81.9341L91.697 81.8182L81.8963 71.9662L82.1269 68.3731L76.2466 61.9983L82.7035 57.7097L89.3909 53.5371L97.0008 56.4348L108.07 69.3004L116.141 78.8047Z" fill="url(#paint15_linear)"/>
<path d="M83.5107 62.1142C83.9719 61.6505 83.9719 60.9551 83.5107 60.4915C83.0495 60.0278 82.473 60.1438 81.7812 60.1438C83.8566 54.8121 90.7747 53.653 94.3491 57.9415C95.7327 59.4483 97.9234 57.4779 96.6551 55.9711C92.8501 51.5667 86.1626 50.9872 81.7812 54.8121C80.167 56.2029 79.014 58.0574 78.4374 60.1438C76.9385 60.1438 76.7079 60.1438 76.362 60.4915C75.9008 60.9551 75.9008 61.6505 76.362 62.1142C80.6282 66.2868 79.4752 66.2868 83.5107 62.1142Z" fill="url(#paint16_linear)"/>
<path d="M101.613 64.78L98.9611 62.1141C98.4999 61.6505 97.8081 61.6505 97.3469 62.1141L94.695 64.78C94.2338 65.2436 94.2338 65.939 94.695 66.4027C95.1562 66.8663 95.7327 66.7504 96.4245 66.7504C94.3491 72.198 87.2004 73.2411 83.626 68.7208C83.0495 68.0254 82.1271 67.9095 81.4353 68.489C79.1293 70.4594 84.5484 74.632 89.3911 74.632C94.1185 74.632 98.3846 71.3866 99.5376 66.7504C101.037 66.7504 101.267 66.7504 101.613 66.4027C102.074 66.055 102.074 65.3595 101.613 64.78Z" fill="url(#paint17_linear)"/>
<defs>
<linearGradient id="paint0_linear" x1="72.3767" y1="69.6684" x2="-0.0422673" y2="69.6684" gradientUnits="userSpaceOnUse">
<stop stop-color="#364151"/>
<stop offset="1" stop-color="#747E95"/>
</linearGradient>
<linearGradient id="paint1_linear" x1="72.3767" y1="46.7767" x2="-0.0422673" y2="46.7767" gradientUnits="userSpaceOnUse">
<stop stop-color="#364151"/>
<stop offset="1" stop-color="#747E95"/>
</linearGradient>
<linearGradient id="paint2_linear" x1="72.3767" y1="23.8272" x2="-0.0422673" y2="23.8272" gradientUnits="userSpaceOnUse">
<stop stop-color="#364151"/>
<stop offset="1" stop-color="#747E95"/>
</linearGradient>
<linearGradient id="paint3_linear" x1="15.0009" y1="25.1691" x2="11.9687" y2="25.1691" gradientUnits="userSpaceOnUse">
<stop stop-color="#FF66A9"/>
<stop offset="1" stop-color="#F53689"/>
</linearGradient>
<linearGradient id="paint4_linear" x1="8.86068" y1="47.213" x2="5.8286" y2="47.213" gradientUnits="userSpaceOnUse">
<stop stop-color="#83A6FF"/>
<stop offset="1" stop-color="#5A78FF"/>
</linearGradient>
<linearGradient id="paint5_linear" x1="15.0009" y1="70.5394" x2="11.9687" y2="70.5394" gradientUnits="userSpaceOnUse">
<stop stop-color="#FF66A9"/>
<stop offset="1" stop-color="#F53689"/>
</linearGradient>
<linearGradient id="paint6_linear" x1="116.759" y1="78.7779" x2="24.5055" y2="78.7779" gradientUnits="userSpaceOnUse">
<stop stop-color="#364151"/>
<stop offset="1" stop-color="#747E95"/>
</linearGradient>
<linearGradient id="paint7_linear" x1="116.759" y1="49.6855" x2="24.5055" y2="49.6855" gradientUnits="userSpaceOnUse">
<stop stop-color="#364151"/>
<stop offset="1" stop-color="#747E95"/>
</linearGradient>
<linearGradient id="paint8_linear" x1="116.759" y1="20.4771" x2="24.5055" y2="20.4771" gradientUnits="userSpaceOnUse">
<stop stop-color="#364151"/>
<stop offset="1" stop-color="#747E95"/>
</linearGradient>
<linearGradient id="paint9_linear" x1="43.6072" y1="22.173" x2="39.7454" y2="22.173" gradientUnits="userSpaceOnUse">
<stop stop-color="#FF66A9"/>
<stop offset="1" stop-color="#F53689"/>
</linearGradient>
<linearGradient id="paint10_linear" x1="35.7872" y1="50.2485" x2="31.9254" y2="50.2485" gradientUnits="userSpaceOnUse">
<stop stop-color="#83A6FF"/>
<stop offset="1" stop-color="#5A78FF"/>
</linearGradient>
<linearGradient id="paint11_linear" x1="43.6072" y1="79.9576" x2="39.7454" y2="79.9576" gradientUnits="userSpaceOnUse">
<stop stop-color="#FF66A9"/>
<stop offset="1" stop-color="#F53689"/>
</linearGradient>
<linearGradient id="paint12_linear" x1="87.2181" y1="39.4136" x2="87.2181" y2="81.8932" gradientUnits="userSpaceOnUse">
<stop stop-color="#83A6FF"/>
<stop offset="1" stop-color="#5A78FF"/>
</linearGradient>
<linearGradient id="paint13_linear" x1="95.0118" y1="55.5581" x2="105.612" y2="67.0614" gradientUnits="userSpaceOnUse">
<stop stop-color="#83A6FF"/>
<stop offset="1" stop-color="#87A5FF" stop-opacity="0"/>
</linearGradient>
<linearGradient id="paint14_linear" x1="72.725" y1="48.3543" x2="79.8307" y2="53.8031" gradientUnits="userSpaceOnUse">
<stop stop-color="#83A6FF"/>
<stop offset="1" stop-color="#87A5FF" stop-opacity="0"/>
</linearGradient>
<linearGradient id="paint15_linear" x1="83.2558" y1="57.8471" x2="108.676" y2="83.1349" gradientUnits="userSpaceOnUse">
<stop stop-color="#4F6AFF"/>
<stop offset="1" stop-color="#657EFF" stop-opacity="0"/>
</linearGradient>
<linearGradient id="paint16_linear" x1="97.9533" y1="70.4044" x2="87.0654" y2="59.5733" gradientUnits="userSpaceOnUse">
<stop offset="0.0113208" stop-color="#C2D1FF"/>
<stop offset="1" stop-color="white"/>
</linearGradient>
<linearGradient id="paint17_linear" x1="95.8874" y1="72.4811" x2="84.9995" y2="61.65" gradientUnits="userSpaceOnUse">
<stop offset="0.0113208" stop-color="#C2D1FF"/>
<stop offset="1" stop-color="white"/>
</linearGradient>
</defs>
</svg>
