<svg width="121" height="107" viewBox="0 0 121 107" fill="none" xmlns="http://www.w3.org/2000/svg">
<path d="M18.6186 11.6509C19.8996 11.2337 20.6006 9.85459 20.1842 8.57072C19.7678 7.28684 18.3918 6.58434 17.1108 7.00163C15.8297 7.41892 15.1288 8.79799 15.5452 10.0819C15.9615 11.3657 17.3376 12.0682 18.6186 11.6509Z" fill="#2A2E39"/>
<path d="M23.9429 3.67533C24.814 3.39157 25.2906 2.4538 25.0075 1.58077C24.7244 0.707732 23.7887 0.230032 22.9176 0.513793C22.0465 0.797554 21.5699 1.73532 21.853 2.60836C22.1361 3.48139 23.0718 3.95909 23.9429 3.67533Z" fill="#2A2E39"/>
<path d="M1.65854 56.3513C2.57452 56.3513 3.31707 55.6071 3.31707 54.6891C3.31707 53.7711 2.57452 53.0269 1.65854 53.0269C0.742552 53.0269 0 53.7711 0 54.6891C0 55.6071 0.742552 56.3513 1.65854 56.3513Z" fill="url(#paint0_linear)"/>
<path d="M117.263 39.9079C118.775 38.5236 118.88 36.1734 117.499 34.6586C116.118 33.1437 113.773 33.038 112.261 34.4223C110.75 35.8066 110.644 38.1568 112.025 39.6716C113.407 41.1864 115.752 41.2922 117.263 39.9079Z" fill="#2A2E39"/>
<path d="M111.61 55.5691C111.61 67.2046 107.707 78.0579 101.171 86.6623C97.561 91.3556 93.2683 95.4623 88.2927 98.6889C80.2927 103.969 70.6341 107 60.2927 107C32 107 8.97559 84.0223 8.97559 55.5691C8.97559 27.2136 31.9024 4.13812 60.2927 4.13812C70.6341 4.13812 80.1951 7.16922 88.2927 12.4492C93.2683 15.6759 97.561 19.7825 101.171 24.4758C107.707 33.178 111.61 43.9336 111.61 55.5691Z" fill="#2A2E39"/>
<path d="M106.634 41.0002H52.9756V48.1379H106.634V41.0002Z" fill="#1D242E"/>
<path d="M106.537 44.7158H52.9756V42.858L106.537 36.9913V44.7158Z" fill="#1D242E"/>
<path d="M44.8779 43.3468V41.0002H98.4389V48.1379H44.8779V45.6935" fill="#262B31"/>
<path d="M98.5365 42.2714H44.8779V44.7158H98.5365V42.2714Z" fill="#364151"/>
<path d="M105.854 42.6624H45.1707C43.7073 42.6624 42.439 41.4891 42.439 39.9247V27.2136C42.439 25.7469 43.6097 24.4758 45.1707 24.4758H105.854C107.317 24.4758 108.585 25.6492 108.585 27.2136V39.9247C108.585 41.4891 107.317 42.6624 105.854 42.6624Z" fill="#2E3746"/>
<path d="M50.2438 24.5734H97.2682C98.3414 24.5734 99.2194 25.4534 99.2194 26.5289V40.8044C99.2194 41.88 98.3414 42.76 97.2682 42.76H44.3902C43.317 42.76 42.439 41.88 42.439 40.8044V26.5289C42.439 25.4534 43.317 24.5734 44.3902 24.5734H45.6585" fill="#545D71"/>
<path d="M65.3134 31.2012C65.6182 30.8958 65.6182 30.4005 65.3134 30.095C65.0086 29.7896 64.5144 29.7896 64.2096 30.095C63.9048 30.4005 63.9048 30.8958 64.2096 31.2012C64.5144 31.5067 65.0086 31.5067 65.3134 31.2012Z" fill="#2A2E33"/>
<path d="M65.3034 34.6275C65.6082 34.322 65.6082 33.8268 65.3034 33.5213C64.9986 33.2158 64.5044 33.2158 64.1996 33.5213C63.8948 33.8268 63.8948 34.322 64.1996 34.6275C64.5044 34.933 64.9986 34.933 65.3034 34.6275Z" fill="#2A2E33"/>
<path d="M65.3625 38.123C65.6673 37.8176 65.6673 37.3223 65.3625 37.0169C65.0577 36.7114 64.5635 36.7114 64.2587 37.0169C63.9539 37.3223 63.9539 37.8176 64.2587 38.123C64.5635 38.4285 65.0577 38.4285 65.3625 38.123Z" fill="#2A2E33"/>
<path d="M68.7204 33.0738C69.0252 32.7684 69.0252 32.2731 68.7204 31.9677C68.4156 31.6622 67.9214 31.6622 67.6166 31.9677C67.3118 32.2731 67.3118 32.7684 67.6166 33.0738C67.9214 33.3793 68.4156 33.3793 68.7204 33.0738Z" fill="#394651"/>
<path d="M68.7795 36.5693C69.0843 36.2639 69.0843 35.7686 68.7795 35.4631C68.4747 35.1577 67.9805 35.1577 67.6757 35.4631C67.3709 35.7686 67.3709 36.2639 67.6757 36.5693C67.9805 36.8748 68.4747 36.8748 68.7795 36.5693Z" fill="#2A2E33"/>
<path d="M72.1508 31.2213C72.4556 30.9158 72.4556 30.4206 72.1508 30.1151C71.846 29.8097 71.3518 29.8097 71.047 30.1151C70.7422 30.4206 70.7422 30.9158 71.047 31.2213C71.3518 31.5268 71.846 31.5268 72.1508 31.2213Z" fill="#2A2E33"/>
<path d="M72.141 34.6476C72.4459 34.3421 72.4458 33.8469 72.141 33.5414C71.8362 33.2359 71.3421 33.2359 71.0373 33.5414C70.7324 33.8469 70.7324 34.3421 71.0373 34.6476C71.3421 34.953 71.8362 34.953 72.141 34.6476Z" fill="#2A2E33"/>
<path d="M71.6101 38.3602C72.0411 38.3602 72.3906 38.01 72.3906 37.578C72.3906 37.146 72.0411 36.7958 71.6101 36.7958C71.179 36.7958 70.8296 37.146 70.8296 37.578C70.8296 38.01 71.179 38.3602 71.6101 38.3602Z" fill="url(#paint1_linear)"/>
<path d="M75.558 33.0939C75.8628 32.7884 75.8628 32.2931 75.558 31.9877C75.2532 31.6822 74.759 31.6822 74.4542 31.9877C74.1494 32.2931 74.1494 32.7884 74.4542 33.0939C74.759 33.3993 75.2532 33.3993 75.558 33.0939Z" fill="#394651"/>
<path d="M75.6169 36.5893C75.9217 36.2839 75.9217 35.7886 75.6169 35.4832C75.3121 35.1777 74.8179 35.1777 74.5131 35.4832C74.2083 35.7886 74.2083 36.2839 74.5131 36.5894C74.8179 36.8948 75.3121 36.8948 75.6169 36.5893Z" fill="#2A2E33"/>
<path d="M79.0575 31.1721C79.3623 30.8666 79.3623 30.3714 79.0575 30.0659C78.7527 29.7605 78.2586 29.7605 77.9538 30.0659C77.6489 30.3714 77.6489 30.8666 77.9538 31.1721C78.2586 31.4776 78.7527 31.4776 79.0575 31.1721Z" fill="#394651"/>
<path d="M79.0475 34.5985C79.3523 34.293 79.3523 33.7978 79.0475 33.4923C78.7427 33.1868 78.2485 33.1868 77.9437 33.4923C77.6389 33.7978 77.6389 34.293 77.9437 34.5985C78.2485 34.904 78.7427 34.904 79.0475 34.5985Z" fill="#2A2E33"/>
<path d="M79.1064 38.0939C79.4112 37.7884 79.4112 37.2931 79.1064 36.9877C78.8016 36.6822 78.3074 36.6822 78.0026 36.9877C77.6978 37.2931 77.6978 37.7884 78.0026 38.0939C78.3074 38.3993 78.8016 38.3993 79.1064 38.0939Z" fill="#2A2E33"/>
<path d="M82.4645 33.0448C82.7693 32.7393 82.7693 32.2441 82.4645 31.9386C82.1597 31.6331 81.6655 31.6331 81.3607 31.9386C81.0559 32.2441 81.0559 32.7393 81.3607 33.0448C81.6655 33.3503 82.1597 33.3503 82.4645 33.0448Z" fill="#2A2E33"/>
<path d="M82.5234 36.5402C82.8282 36.2348 82.8282 35.7395 82.5234 35.434C82.2186 35.1286 81.7244 35.1286 81.4196 35.434C81.1148 35.7395 81.1148 36.2348 81.4196 36.5402C81.7244 36.8457 82.2186 36.8457 82.5234 36.5402Z" fill="#2A2E33"/>
<path d="M85.8947 31.1921C86.1995 30.8867 86.1995 30.3914 85.8947 30.0859C85.5899 29.7805 85.0957 29.7805 84.7909 30.0859C84.4861 30.3914 84.4861 30.8867 84.7909 31.1921C85.0957 31.4976 85.5899 31.4976 85.8947 31.1921Z" fill="#2A2E33"/>
<path d="M85.8847 34.6185C86.1895 34.3131 86.1895 33.8178 85.8847 33.5123C85.5799 33.2069 85.0857 33.2069 84.7809 33.5123C84.4761 33.8178 84.4761 34.3131 84.7809 34.6185C85.0857 34.924 85.5799 34.924 85.8847 34.6185Z" fill="#394651"/>
<path d="M85.9438 38.1139C86.2486 37.8085 86.2486 37.3132 85.9438 37.0078C85.639 36.7023 85.1448 36.7023 84.84 37.0078C84.5352 37.3132 84.5352 37.8085 84.84 38.1139C85.1448 38.4194 85.639 38.4194 85.9438 38.1139Z" fill="#2A2E33"/>
<path d="M89.3019 33.0648C89.6067 32.7593 89.6067 32.2641 89.3019 31.9586C88.9971 31.6532 88.5029 31.6532 88.1981 31.9586C87.8933 32.2641 87.8933 32.7593 88.1981 33.0648C88.5029 33.3703 88.9971 33.3703 89.3019 33.0648Z" fill="#2A2E33"/>
<path d="M89.361 36.5602C89.6658 36.2548 89.6658 35.7595 89.361 35.454C89.0562 35.1486 88.562 35.1486 88.2572 35.454C87.9524 35.7595 87.9524 36.2548 88.2572 36.5602C88.562 36.8657 89.0562 36.8657 89.361 36.5602Z" fill="#2A2E33"/>
<path d="M92.7324 31.2122C93.0372 30.9067 93.0372 30.4115 92.7324 30.106C92.4275 29.8006 91.9334 29.8006 91.6286 30.106C91.3238 30.4115 91.3238 30.9067 91.6286 31.2122C91.9334 31.5177 92.4275 31.5177 92.7324 31.2122Z" fill="#2A2E33"/>
<path d="M92.7223 34.6385C93.0271 34.333 93.0271 33.8378 92.7223 33.5323C92.4175 33.2268 91.9234 33.2268 91.6185 33.5323C91.3137 33.8378 91.3137 34.333 91.6185 34.6385C91.9234 34.944 92.4175 34.9439 92.7223 34.6385Z" fill="#394651"/>
<path d="M92.7812 38.134C93.086 37.8285 93.086 37.3332 92.7812 37.0278C92.4764 36.7223 91.9822 36.7223 91.6774 37.0278C91.3726 37.3332 91.3726 37.8285 91.6774 38.134C91.9822 38.4394 92.4764 38.4394 92.7812 38.134Z" fill="#2A2E33"/>
<path d="M56.0975 34.4491C56.0975 36.3069 54.7316 37.8713 52.9755 38.1647C52.7804 38.1647 52.5853 38.2624 52.3902 38.2624C50.3414 38.2624 48.6829 36.6002 48.6829 34.5469C48.6829 32.4936 50.3414 30.8314 52.3902 30.8314C52.5853 30.8314 52.7804 30.8314 52.9755 30.9291C54.7316 31.0269 56.0975 32.5914 56.0975 34.4491Z" fill="#273850"/>
<path d="M106.634 64.0757H52.9756V71.2134H106.634V64.0757Z" fill="#1D242E"/>
<path d="M106.537 67.7912H52.9756V65.9335L106.537 65.3468V67.7912Z" fill="#1D242E"/>
<path d="M44.8779 66.4223V64.0757H98.4389V71.3112H44.8779V68.769" fill="#262B31"/>
<path d="M98.5365 65.0535H44.8779V67.7912H98.5365V65.0535Z" fill="#364151"/>
<path d="M105.854 65.8357H45.1707C43.7073 65.8357 42.439 64.6623 42.439 63.0979V50.3868C42.439 48.9202 43.6097 47.649 45.1707 47.649H105.854C107.317 47.649 108.585 48.8224 108.585 50.3868V63.0979C108.585 64.5645 107.317 65.8357 105.854 65.8357Z" fill="#2E3746"/>
<path d="M50.2438 47.649H97.2682C98.3414 47.649 99.2194 48.529 99.2194 49.6046V63.8801C99.2194 64.9557 98.3414 65.8357 97.2682 65.8357H44.3902C43.317 65.8357 42.439 64.9557 42.439 63.8801V49.6046C42.439 48.529 43.317 47.649 44.3902 47.649H45.6585" fill="#545D71"/>
<path d="M65.353 54.3579C65.6578 54.0524 65.6578 53.5572 65.353 53.2517C65.0481 52.9463 64.554 52.9462 64.2492 53.2517C63.9444 53.5572 63.9444 54.0524 64.2492 54.3579C64.554 54.6634 65.0482 54.6634 65.353 54.3579Z" fill="#2A2E33"/>
<path d="M65.3429 57.7842C65.6478 57.4788 65.6477 56.9835 65.3429 56.678C65.0381 56.3726 64.544 56.3726 64.2392 56.678C63.9344 56.9835 63.9343 57.4788 64.2392 57.7842C64.544 58.0897 65.0381 58.0897 65.3429 57.7842Z" fill="#2A2E33"/>
<path d="M64.7807 61.4357C65.2118 61.4357 65.5612 61.0855 65.5612 60.6535C65.5612 60.2215 65.2118 59.8713 64.7807 59.8713C64.3497 59.8713 64.0002 60.2215 64.0002 60.6535C64.0002 61.0855 64.3497 61.4357 64.7807 61.4357Z" fill="url(#paint2_linear)"/>
<path d="M68.7599 56.2306C69.0647 55.9251 69.0647 55.4299 68.7599 55.1244C68.4551 54.8189 67.961 54.8189 67.6561 55.1244C67.3513 55.4299 67.3513 55.9251 67.6561 56.2306C67.9609 56.536 68.4551 56.536 68.7599 56.2306Z" fill="#2A2E33"/>
<path d="M68.7499 59.6569C69.0547 59.3514 69.0547 58.8562 68.7499 58.5507C68.4451 58.2453 67.9509 58.2453 67.6461 58.5507C67.3413 58.8562 67.3413 59.3514 67.6461 59.6569C67.9509 59.9624 68.4451 59.9624 68.7499 59.6569Z" fill="#2D5887"/>
<path d="M72.1904 54.3779C72.4952 54.0725 72.4952 53.5772 72.1904 53.2717C71.8856 52.9663 71.3914 52.9663 71.0866 53.2717C70.7818 53.5772 70.7818 54.0725 71.0866 54.3779C71.3914 54.6834 71.8856 54.6834 72.1904 54.3779Z" fill="#2A2E33"/>
<path d="M72.1804 57.8043C72.4852 57.4988 72.4851 57.0036 72.1803 56.6981C71.8755 56.3927 71.3814 56.3927 71.0766 56.6981C70.7718 57.0036 70.7718 57.4988 71.0766 57.8043C71.3814 58.1098 71.8755 58.1098 72.1804 57.8043Z" fill="#394651"/>
<path d="M72.1703 61.2306C72.4751 60.9251 72.4751 60.4299 72.1703 60.1244C71.8655 59.8189 71.3714 59.8189 71.0665 60.1244C70.7617 60.4299 70.7617 60.9251 71.0665 61.2306C71.3713 61.536 71.8655 61.536 72.1703 61.2306Z" fill="#2A2E33"/>
<path d="M75.5973 56.2506C75.9021 55.9451 75.9021 55.4499 75.5973 55.1444C75.2925 54.839 74.7984 54.8389 74.4935 55.1444C74.1887 55.4499 74.1887 55.9451 74.4935 56.2506C74.7984 56.5561 75.2925 56.5561 75.5973 56.2506Z" fill="#2A2E33"/>
<path d="M75.5876 59.6769C75.8924 59.3714 75.8924 58.8762 75.5876 58.5707C75.2828 58.2652 74.7886 58.2652 74.4838 58.5707C74.179 58.8761 74.179 59.3714 74.4838 59.6769C74.7886 59.9823 75.2828 59.9823 75.5876 59.6769Z" fill="#2A2E33"/>
<path d="M79.0969 54.3289C79.4017 54.0234 79.4017 53.5281 79.0969 53.2227C78.7921 52.9172 78.2979 52.9172 77.9931 53.2227C77.6883 53.5281 77.6883 54.0234 77.9931 54.3289C78.2979 54.6343 78.7921 54.6343 79.0969 54.3289Z" fill="#2A2E33"/>
<path d="M79.0868 57.7551C79.3916 57.4497 79.3916 56.9544 79.0868 56.6489C78.782 56.3435 78.2879 56.3435 77.983 56.6489C77.6782 56.9544 77.6782 57.4497 77.983 57.7551C78.2879 58.0606 78.782 58.0606 79.0868 57.7551Z" fill="#2A2E33"/>
<path d="M79.0768 61.1815C79.3816 60.876 79.3816 60.3807 79.0768 60.0753C78.772 59.7698 78.2778 59.7698 77.973 60.0753C77.6682 60.3807 77.6682 60.876 77.973 61.1815C78.2778 61.4869 78.772 61.4869 79.0768 61.1815Z" fill="#2A2E33"/>
<path d="M82.5041 56.2014C82.8089 55.8959 82.8089 55.4007 82.5041 55.0952C82.1993 54.7898 81.7051 54.7898 81.4003 55.0952C81.0955 55.4007 81.0955 55.8959 81.4003 56.2014C81.7051 56.5069 82.1993 56.5069 82.5041 56.2014Z" fill="#2A2E33"/>
<path d="M82.4941 59.6278C82.7989 59.3223 82.7989 58.8271 82.4941 58.5216C82.1893 58.2161 81.6951 58.2161 81.3903 58.5216C81.0855 58.8271 81.0855 59.3223 81.3903 59.6278C81.6951 59.9333 82.1893 59.9333 82.4941 59.6278Z" fill="#2A2E33"/>
<path d="M85.3662 54.5905C85.7972 54.5905 86.1467 54.2403 86.1467 53.8083C86.1467 53.3763 85.7972 53.0261 85.3662 53.0261C84.9351 53.0261 84.5857 53.3763 84.5857 53.8083C84.5857 54.2403 84.9351 54.5905 85.3662 54.5905Z" fill="url(#paint3_linear)"/>
<path d="M85.9242 57.7751C86.2291 57.4697 86.2291 56.9744 85.9242 56.6689C85.6194 56.3635 85.1253 56.3635 84.8205 56.6689C84.5156 56.9744 84.5156 57.4697 84.8205 57.7751C85.1253 58.0806 85.6194 58.0806 85.9242 57.7751Z" fill="#394651"/>
<path d="M85.9142 61.2015C86.219 60.8961 86.219 60.4008 85.9142 60.0953C85.6094 59.7899 85.1152 59.7899 84.8104 60.0953C84.5056 60.4008 84.5056 60.8961 84.8104 61.2015C85.1152 61.507 85.6094 61.507 85.9142 61.2015Z" fill="#2A2E33"/>
<path d="M89.3415 56.2214C89.6463 55.916 89.6463 55.4207 89.3415 55.1152C89.0367 54.8098 88.5425 54.8098 88.2377 55.1152C87.9329 55.4207 87.9329 55.916 88.2377 56.2214C88.5425 56.5269 89.0367 56.5269 89.3415 56.2214Z" fill="#2A2E33"/>
<path d="M89.3315 59.6478C89.6363 59.3424 89.6363 58.8471 89.3315 58.5416C89.0267 58.2362 88.5325 58.2362 88.2277 58.5416C87.9229 58.8471 87.9229 59.3424 88.2277 59.6478C88.5325 59.9533 89.0267 59.9533 89.3315 59.6478Z" fill="#2A2E33"/>
<path d="M92.7717 54.3688C93.0765 54.0634 93.0765 53.5681 92.7717 53.2626C92.4669 52.9572 91.9727 52.9572 91.6679 53.2626C91.3631 53.5681 91.3631 54.0634 91.6679 54.3688C91.9727 54.6743 92.4669 54.6743 92.7717 54.3688Z" fill="#2A2E33"/>
<path d="M92.7616 57.7952C93.0665 57.4898 93.0665 56.9945 92.7616 56.689C92.4568 56.3836 91.9627 56.3836 91.6579 56.689C91.3531 56.9945 91.353 57.4898 91.6579 57.7952C91.9627 58.1007 92.4568 58.1007 92.7616 57.7952Z" fill="#2A2E33"/>
<path d="M92.7519 61.2216C93.0567 60.9161 93.0567 60.4208 92.7519 60.1154C92.4471 59.8099 91.9529 59.8099 91.6481 60.1154C91.3433 60.4208 91.3433 60.9161 91.6481 61.2216C91.9529 61.527 92.4471 61.527 92.7519 61.2216Z" fill="#2A2E33"/>
<path d="M56.0975 57.5246C56.0975 59.3824 54.7316 60.9468 52.9755 61.2402C52.7804 61.2402 52.5853 61.3379 52.3902 61.3379C50.3414 61.3379 48.6829 59.6757 48.6829 57.6224C48.6829 55.5691 50.3414 53.9069 52.3902 53.9069C52.5853 53.9069 52.7804 53.9069 52.9755 54.0046C54.7316 54.1024 56.0975 55.6669 56.0975 57.5246Z" fill="#273850"/>
<path d="M106.634 87.249H52.9756V94.3867H106.634V87.249Z" fill="#1D242E"/>
<path d="M106.537 90.9645H52.9756V89.1068L106.537 83.2401V90.9645Z" fill="#1D242E"/>
<path d="M44.8779 89.5956V87.249H98.4389V94.3867H44.8779V91.9423" fill="#262B31"/>
<path d="M98.5365 87.249H44.8779V90.9645H98.5365V87.249Z" fill="#364151"/>
<path d="M105.854 88.9112H45.1707C43.7073 88.9112 42.439 87.7378 42.439 86.1734V73.4623C42.439 71.9957 43.6097 70.7245 45.1707 70.7245H105.854C107.317 70.7245 108.585 71.8979 108.585 73.4623V86.1734C108.585 87.7378 107.317 88.9112 105.854 88.9112Z" fill="#2E3746"/>
<path d="M50.2438 70.8223H97.2682C98.3414 70.8223 99.2194 71.7023 99.2194 72.7779V87.0534C99.2194 88.1289 98.3414 89.0089 97.2682 89.0089H44.3902C43.317 89.0089 42.439 88.1289 42.439 87.0534V72.7779C42.439 71.7023 43.317 70.8223 44.3902 70.8223H45.6585" fill="#545D71"/>
<path d="M65.3229 77.4454C65.6277 77.14 65.6277 76.6447 65.3229 76.3392C65.0181 76.0338 64.5239 76.0338 64.2191 76.3392C63.9143 76.6447 63.9143 77.14 64.2191 77.4454C64.5239 77.7509 65.0181 77.7509 65.3229 77.4454Z" fill="#2A2E33"/>
<path d="M65.3129 80.8718C65.6177 80.5663 65.6177 80.071 65.3129 79.7656C65.0081 79.4601 64.5139 79.4601 64.2091 79.7656C63.9043 80.071 63.9043 80.5663 64.2091 80.8718C64.5139 81.1772 65.0081 81.1772 65.3129 80.8718Z" fill="#2A2E33"/>
<path d="M65.3029 84.298C65.6077 83.9926 65.6077 83.4973 65.3029 83.1918C64.9981 82.8864 64.5039 82.8864 64.1991 83.1918C63.8943 83.4973 63.8943 83.9926 64.1991 84.298C64.5039 84.6035 64.9981 84.6035 65.3029 84.298Z" fill="#394651"/>
<path d="M68.1948 79.5245C68.6258 79.5245 68.9753 79.1743 68.9753 78.7423C68.9753 78.3103 68.6258 77.9601 68.1948 77.9601C67.7637 77.9601 67.4143 78.3103 67.4143 78.7423C67.4143 79.1743 67.7637 79.5245 68.1948 79.5245Z" fill="url(#paint4_linear)"/>
<path d="M68.7199 82.7444C69.0247 82.4389 69.0247 81.9437 68.7199 81.6382C68.4151 81.3327 67.9209 81.3327 67.6161 81.6382C67.3113 81.9437 67.3113 82.4389 67.6161 82.7444C67.9209 83.0498 68.4151 83.0498 68.7199 82.7444Z" fill="#2A2E33"/>
<path d="M72.1603 77.4654C72.4651 77.16 72.4651 76.6647 72.1603 76.3593C71.8555 76.0538 71.3613 76.0538 71.0565 76.3593C70.7517 76.6647 70.7517 77.16 71.0565 77.4654C71.3613 77.7709 71.8555 77.7709 72.1603 77.4654Z" fill="#2A2E33"/>
<path d="M72.1503 80.8917C72.4551 80.5862 72.4551 80.091 72.1503 79.7855C71.8455 79.4801 71.3513 79.4801 71.0465 79.7855C70.7417 80.091 70.7417 80.5862 71.0465 80.8917C71.3513 81.1972 71.8455 81.1972 72.1503 80.8917Z" fill="#394651"/>
<path d="M72.1406 84.3181C72.4454 84.0126 72.4454 83.5174 72.1406 83.2119C71.8357 82.9065 71.3416 82.9065 71.0368 83.2119C70.732 83.5174 70.732 84.0126 71.0368 84.3181C71.3416 84.6236 71.8358 84.6236 72.1406 84.3181Z" fill="#394651"/>
<path d="M75.5676 79.3381C75.8724 79.0326 75.8724 78.5373 75.5675 78.2319C75.2627 77.9264 74.7686 77.9264 74.4638 78.2319C74.159 78.5373 74.159 79.0326 74.4638 79.3381C74.7686 79.6435 75.2628 79.6435 75.5676 79.3381Z" fill="#394651"/>
<path d="M75.5575 82.7644C75.8624 82.4589 75.8623 81.9637 75.5575 81.6582C75.2527 81.3527 74.7586 81.3527 74.4538 81.6582C74.149 81.9637 74.1489 82.4589 74.4537 82.7644C74.7586 83.0699 75.2527 83.0699 75.5575 82.7644Z" fill="#2A2E33"/>
<path d="M79.0668 77.4164C79.3716 77.1109 79.3716 76.6156 79.0668 76.3102C78.762 76.0047 78.2678 76.0047 77.963 76.3102C77.6582 76.6157 77.6582 77.1109 77.963 77.4164C78.2678 77.7218 78.762 77.7218 79.0668 77.4164Z" fill="#394651"/>
<path d="M79.0571 80.8426C79.3619 80.5372 79.3619 80.0419 79.0571 79.7364C78.7523 79.431 78.2581 79.431 77.9533 79.7365C77.6485 80.0419 77.6485 80.5372 77.9533 80.8426C78.2581 81.1481 78.7523 81.1481 79.0571 80.8426Z" fill="#2A2E33"/>
<path d="M79.047 84.269C79.3519 83.9635 79.3519 83.4682 79.047 83.1628C78.7422 82.8573 78.2481 82.8573 77.9433 83.1628C77.6385 83.4683 77.6384 83.9635 77.9433 84.269C78.2481 84.5744 78.7422 84.5744 79.047 84.269Z" fill="#2A2E33"/>
<path d="M82.474 79.2889C82.7789 78.9835 82.7789 78.4882 82.474 78.1827C82.1692 77.8773 81.6751 77.8773 81.3703 78.1827C81.0655 78.4882 81.0654 78.9835 81.3703 79.2889C81.6751 79.5944 82.1692 79.5944 82.474 79.2889Z" fill="#2A2E33"/>
<path d="M82.464 82.7153C82.7688 82.4099 82.7688 81.9146 82.464 81.6091C82.1592 81.3037 81.6651 81.3037 81.3602 81.6091C81.0554 81.9146 81.0554 82.4099 81.3602 82.7153C81.665 83.0208 82.1592 83.0208 82.464 82.7153Z" fill="#394651"/>
<path d="M85.9042 77.4363C86.209 77.1309 86.209 76.6356 85.9042 76.3301C85.5994 76.0247 85.1052 76.0247 84.8004 76.3301C84.4956 76.6356 84.4956 77.1309 84.8004 77.4363C85.1052 77.7418 85.5994 77.7418 85.9042 77.4363Z" fill="#2A2E33"/>
<path d="M85.8942 80.8627C86.199 80.5572 86.199 80.0619 85.8942 79.7565C85.5894 79.451 85.0952 79.451 84.7904 79.7565C84.4856 80.0619 84.4856 80.5572 84.7904 80.8627C85.0952 81.1681 85.5894 81.1681 85.8942 80.8627Z" fill="#2A2E33"/>
<path d="M85.3657 84.5112C85.7967 84.5112 86.1462 84.1609 86.1462 83.7289C86.1462 83.2969 85.7967 82.9467 85.3657 82.9467C84.9346 82.9467 84.5852 83.2969 84.5852 83.7289C84.5852 84.1609 84.9346 84.5112 85.3657 84.5112Z" fill="url(#paint5_linear)"/>
<path d="M89.3115 79.309C89.6163 79.0035 89.6163 78.5082 89.3115 78.2028C89.0066 77.8973 88.5125 77.8973 88.2077 78.2028C87.9029 78.5082 87.9029 79.0035 88.2077 79.309C88.5125 79.6144 89.0066 79.6144 89.3115 79.309Z" fill="#394651"/>
<path d="M89.3014 82.7353C89.6062 82.4298 89.6062 81.9346 89.3014 81.6291C88.9966 81.3236 88.5025 81.3236 88.1977 81.6291C87.8928 81.9346 87.8928 82.4298 88.1976 82.7353C88.5024 83.0407 88.9966 83.0407 89.3014 82.7353Z" fill="#2A2E33"/>
<path d="M92.7419 77.4564C93.0467 77.1509 93.0467 76.6556 92.7419 76.3502C92.4371 76.0447 91.9429 76.0447 91.6381 76.3502C91.3333 76.6556 91.3333 77.1509 91.6381 77.4564C91.9429 77.7618 92.4371 77.7618 92.7419 77.4564Z" fill="#2A2E33"/>
<path d="M92.7319 80.8827C93.0367 80.5773 93.0367 80.082 92.7319 79.7765C92.4271 79.4711 91.9329 79.4711 91.6281 79.7766C91.3233 80.082 91.3233 80.5773 91.6281 80.8827C91.9329 81.1882 92.4271 81.1882 92.7319 80.8827Z" fill="#394651"/>
<path d="M92.7218 84.309C93.0267 84.0035 93.0267 83.5082 92.7218 83.2028C92.417 82.8973 91.9229 82.8973 91.6181 83.2028C91.3133 83.5082 91.3133 84.0035 91.6181 84.309C91.9229 84.6144 92.417 84.6144 92.7218 84.309Z" fill="#2A2E33"/>
<path d="M56.0975 80.6978C56.0975 82.5556 54.7316 84.1201 52.9755 84.4134C52.7804 84.4134 52.5853 84.5112 52.3902 84.5112C50.3414 84.5112 48.6829 82.8489 48.6829 80.7956C48.6829 78.7423 50.3414 77.0801 52.3902 77.0801C52.5853 77.0801 52.7804 77.0801 52.9755 77.1779C54.7316 77.2756 56.0975 78.7423 56.0975 80.6978Z" fill="#273850"/>
<path d="M56.0977 34.4491C56.0977 36.3069 54.7318 37.8713 52.9757 38.1647C51.2196 37.8713 49.8538 36.3069 49.8538 34.4491C49.8538 32.5914 51.2196 31.0269 52.9757 30.7336C54.7318 31.0269 56.0977 32.5914 56.0977 34.4491Z" fill="#364151"/>
<path d="M56.0977 57.5246C56.0977 59.3824 54.7318 60.9468 52.9757 61.2402C51.2196 60.9468 49.8538 59.3824 49.8538 57.5246C49.8538 55.6669 51.2196 54.1024 52.9757 53.8091C54.7318 54.1024 56.0977 55.6669 56.0977 57.5246Z" fill="#364151"/>
<path d="M56.0977 80.6979C56.0977 82.5557 54.7318 84.1201 52.9757 84.4134C51.2196 84.1201 49.8538 82.5557 49.8538 80.6979C49.8538 78.8401 51.2196 77.2757 52.9757 76.9824C54.7318 77.2757 56.0977 78.7424 56.0977 80.6979Z" fill="#364151"/>
<path opacity="0.1" d="M90.5366 24.5734H64.4878V94.3865H90.5366V24.5734Z" fill="black"/>
<path d="M2.73169 94.9734H120" stroke="#2B323C" stroke-width="2" stroke-miterlimit="10" stroke-linecap="round" stroke-linejoin="round"/>
<path d="M81.9513 33.7646H21.0732V41.8802H81.9513V33.7646Z" fill="#1D242E"/>
<path d="M81.9513 38.0669H21.0732V35.9158L81.9513 29.2669V38.0669Z" fill="#1D242E"/>
<path d="M11.9023 36.5024V33.7646H72.7804V41.8802H11.9023V39.1424" fill="#262B31"/>
<path d="M72.7804 35.2313H11.9023V38.0669H72.7804V35.2313Z" fill="#364151"/>
<path d="M81.1707 35.7202H12.3903C10.7317 35.7202 9.26831 34.3513 9.26831 32.5913V18.2181C9.26831 16.5558 10.6342 15.0892 12.3903 15.0892H81.1707C82.8293 15.0892 84.2927 16.4581 84.2927 18.2181V32.5913C84.2927 34.3513 82.8293 35.7202 81.1707 35.7202Z" fill="#2E3746"/>
<path d="M18.0488 15.1868H71.4146C72.5854 15.1868 73.561 16.1645 73.561 17.3379V33.4712C73.561 34.6445 72.5854 35.6223 71.4146 35.6223H11.4147C10.2439 35.6223 9.26831 34.6445 9.26831 33.4712V17.3379C9.26831 16.1645 10.2439 15.1868 11.4147 15.1868H12.8781" fill="#545D71"/>
<path d="M35.1339 22.6723C35.4768 22.3287 35.4768 21.7715 35.1339 21.4279C34.791 21.0842 34.235 21.0842 33.8921 21.4279C33.5492 21.7715 33.5492 22.3287 33.8921 22.6723C34.235 23.016 34.791 23.016 35.1339 22.6723Z" fill="#2A2E33"/>
<path d="M35.1417 26.5801C35.4846 26.2365 35.4846 25.6793 35.1417 25.3356C34.7988 24.992 34.2428 24.992 33.8999 25.3356C33.557 25.6793 33.557 26.2365 33.8999 26.5801C34.2428 26.9238 34.7988 26.9238 35.1417 26.5801Z" fill="#2A2E33"/>
<path d="M35.1497 30.4879C35.4926 30.1442 35.4926 29.5871 35.1497 29.2434C34.8068 28.8998 34.2509 28.8998 33.908 29.2434C33.5651 29.5871 33.5651 30.1442 33.908 30.4879C34.2509 30.8316 34.8068 30.8316 35.1497 30.4879Z" fill="#2A2E33"/>
<path d="M39.0499 24.8085C39.3928 24.4649 39.3928 23.9077 39.0499 23.564C38.707 23.2204 38.151 23.2204 37.8081 23.564C37.4652 23.9077 37.4652 24.4649 37.8081 24.8085C38.151 25.1522 38.707 25.1522 39.0499 24.8085Z" fill="#394651"/>
<path d="M39.0577 28.7163C39.4006 28.3726 39.4006 27.8155 39.0577 27.4718C38.7148 27.1282 38.1588 27.1282 37.8159 27.4718C37.473 27.8155 37.473 28.3726 37.8159 28.7163C38.1588 29.0599 38.7148 29.0599 39.0577 28.7163Z" fill="#2A2E33"/>
<path d="M42.932 22.6565C43.2749 22.3129 43.2749 21.7557 42.932 21.4121C42.5891 21.0684 42.0331 21.0684 41.6902 21.4121C41.3473 21.7557 41.3473 22.3129 41.6902 22.6565C42.0331 23.0002 42.5891 23.0002 42.932 22.6565Z" fill="#2A2E33"/>
<path d="M42.94 26.5643C43.2829 26.2206 43.2829 25.6634 42.94 25.3198C42.5971 24.9761 42.0412 24.9761 41.6983 25.3198C41.3554 25.6634 41.3554 26.2206 41.6983 26.5643C42.0412 26.9079 42.5971 26.9079 42.94 26.5643Z" fill="#2A2E33"/>
<path d="M42.3414 30.7336C42.8264 30.7336 43.2195 30.3396 43.2195 29.8536C43.2195 29.3676 42.8264 28.9736 42.3414 28.9736C41.8565 28.9736 41.4634 29.3676 41.4634 29.8536C41.4634 30.3396 41.8565 30.7336 42.3414 30.7336Z" fill="url(#paint6_linear)"/>
<path d="M46.848 24.7926C47.1909 24.4489 47.1909 23.8918 46.848 23.5481C46.5051 23.2045 45.9491 23.2045 45.6062 23.5481C45.2633 23.8918 45.2633 24.4489 45.6062 24.7926C45.9491 25.1362 46.5051 25.1362 46.848 24.7926Z" fill="#394651"/>
<path d="M46.856 28.7004C47.1989 28.3567 47.1989 27.7995 46.856 27.4559C46.5131 27.1122 45.9572 27.1122 45.6143 27.4559C45.2714 27.7995 45.2714 28.3567 45.6143 28.7004C45.9572 29.044 46.5131 29.044 46.856 28.7004Z" fill="#2A2E33"/>
<path d="M50.7303 22.6406C51.0732 22.297 51.0732 21.7398 50.7303 21.3961C50.3874 21.0525 49.8315 21.0525 49.4886 21.3961C49.1457 21.7398 49.1457 22.297 49.4885 22.6406C49.8314 22.9843 50.3874 22.9843 50.7303 22.6406Z" fill="#394651"/>
<path d="M50.7381 26.5483C51.081 26.2047 51.081 25.6475 50.7381 25.3038C50.3952 24.9602 49.8393 24.9602 49.4964 25.3038C49.1535 25.6475 49.1535 26.2047 49.4964 26.5483C49.8393 26.892 50.3952 26.892 50.7381 26.5483Z" fill="#2A2E33"/>
<path d="M50.7462 30.4562C51.0891 30.1125 51.0891 29.5553 50.7462 29.2117C50.4033 28.868 49.8473 28.868 49.5044 29.2117C49.1615 29.5553 49.1615 30.1125 49.5044 30.4562C49.8473 30.7998 50.4033 30.7998 50.7462 30.4562Z" fill="#2D5887"/>
<path d="M54.6463 24.7767C54.9892 24.433 54.9892 23.8758 54.6463 23.5322C54.3034 23.1885 53.7475 23.1885 53.4046 23.5322C53.0617 23.8758 53.0617 24.433 53.4046 24.7767C53.7475 25.1203 54.3034 25.1203 54.6463 24.7767Z" fill="#2A2E33"/>
<path d="M54.6541 28.6844C54.997 28.3408 54.997 27.7836 54.6541 27.44C54.3112 27.0963 53.7553 27.0963 53.4124 27.44C53.0695 27.7836 53.0695 28.3408 53.4124 28.6844C53.7553 29.0281 54.3112 29.0281 54.6541 28.6844Z" fill="#2A2E33"/>
<path d="M58.4595 22.6938C58.8024 22.3501 58.8024 21.7929 58.4595 21.4493C58.1166 21.1056 57.5607 21.1056 57.2178 21.4493C56.8749 21.7929 56.8749 22.3501 57.2178 22.6938C57.5607 23.0374 58.1166 23.0374 58.4595 22.6938Z" fill="#2A2E33"/>
<path d="M58.4676 26.6016C58.8105 26.2579 58.8105 25.7007 58.4676 25.3571C58.1247 25.0134 57.5688 25.0134 57.2259 25.3571C56.883 25.7007 56.883 26.2579 57.2259 26.6015C57.5688 26.9452 58.1247 26.9452 58.4676 26.6016Z" fill="#394651"/>
<path d="M58.4754 30.5093C58.8183 30.1657 58.8183 29.6085 58.4754 29.2648C58.1325 28.9212 57.5766 28.9212 57.2337 29.2648C56.8908 29.6085 56.8908 30.1657 57.2337 30.5093C57.5766 30.853 58.1325 30.853 58.4754 30.5093Z" fill="#2A2E33"/>
<path d="M62.3753 24.8299C62.7182 24.4863 62.7182 23.9291 62.3753 23.5855C62.0324 23.2418 61.4765 23.2418 61.1336 23.5855C60.7907 23.9291 60.7907 24.4863 61.1336 24.8299C61.4765 25.1736 62.0324 25.1736 62.3753 24.8299Z" fill="#2A2E33"/>
<path d="M62.3836 28.7377C62.7265 28.3941 62.7265 27.8369 62.3836 27.4932C62.0407 27.1496 61.4848 27.1496 61.1419 27.4932C60.799 27.8369 60.799 28.3941 61.1419 28.7377C61.4848 29.0814 62.0407 29.0814 62.3836 28.7377Z" fill="#2A2E33"/>
<path d="M66.2579 22.6778C66.6008 22.3342 66.6008 21.777 66.2579 21.4334C65.915 21.0897 65.359 21.0897 65.0161 21.4334C64.6732 21.777 64.6732 22.3342 65.0161 22.6778C65.359 23.0215 65.915 23.0215 66.2579 22.6778Z" fill="#2D5887"/>
<path d="M66.2657 26.5856C66.6086 26.242 66.6086 25.6848 66.2657 25.3411C65.9228 24.9975 65.3669 24.9975 65.024 25.3411C64.6811 25.6848 64.6811 26.242 65.024 26.5856C65.3669 26.9293 65.9228 26.9293 66.2657 26.5856Z" fill="#394651"/>
<path d="M66.2735 30.4934C66.6164 30.1497 66.6164 29.5926 66.2735 29.2489C65.9306 28.9053 65.3747 28.9053 65.0318 29.2489C64.6889 29.5926 64.6889 30.1497 65.0318 30.4934C65.3747 30.837 65.9306 30.837 66.2735 30.4934Z" fill="#2D5887"/>
<path d="M24.6831 26.3336C24.6831 28.4847 23.1221 30.1469 21.1709 30.538C20.9758 30.6358 20.6831 30.6358 20.488 30.6358C18.1465 30.6358 16.1953 28.6802 16.1953 26.3336C16.1953 23.9869 18.049 22.0314 20.488 22.0314C20.6831 22.0314 20.9758 22.0314 21.1709 22.1291C23.1221 22.4225 24.6831 24.1825 24.6831 26.3336Z" fill="#273850"/>
<path d="M81.9513 59.969H21.0732V68.0845H81.9513V59.969Z" fill="#1D242E"/>
<path d="M81.9513 64.2712H21.0732V62.1201L81.9513 61.4357V64.2712Z" fill="#1D242E"/>
<path d="M11.9023 62.7068V59.969H72.7804V68.1823H11.9023V65.3468" fill="#262B31"/>
<path d="M72.7804 61.1423H11.9023V64.2712H72.7804V61.1423Z" fill="#364151"/>
<path d="M81.1707 61.9246H12.3903C10.7317 61.9246 9.26831 60.5557 9.26831 58.7957V44.5202C9.26831 42.858 10.6342 41.3913 12.3903 41.3913H81.1707C82.8293 41.3913 84.2927 42.7602 84.2927 44.5202V58.8935C84.2927 60.5557 82.8293 61.9246 81.1707 61.9246Z" fill="#2E3746"/>
<path d="M18.0488 41.3913H71.4146C72.5854 41.3913 73.561 42.3691 73.561 43.5424V59.6757C73.561 60.849 72.5854 61.8268 71.4146 61.8268H11.4147C10.2439 61.8268 9.26831 60.849 9.26831 59.6757V43.5424C9.26831 42.3691 10.2439 41.3913 11.4147 41.3913H12.8781" fill="#545D71"/>
<path d="M35.181 48.9548C35.5239 48.6111 35.5239 48.0539 35.181 47.7103C34.8381 47.3666 34.2821 47.3666 33.9392 47.7103C33.5963 48.0539 33.5963 48.6111 33.9392 48.9548C34.2821 49.2984 34.8381 49.2984 35.181 48.9548Z" fill="#2A2E33"/>
<path d="M35.189 52.8625C35.5319 52.5189 35.5319 51.9617 35.189 51.6181C34.8461 51.2744 34.2902 51.2744 33.9473 51.6181C33.6044 51.9617 33.6044 52.5189 33.9473 52.8625C34.2902 53.2062 34.8461 53.2062 35.189 52.8625Z" fill="#2A2E33"/>
<path d="M34.5365 56.938C35.0214 56.938 35.4145 56.544 35.4145 56.058C35.4145 55.572 35.0214 55.178 34.5365 55.178C34.0516 55.178 33.6584 55.572 33.6584 56.058C33.6584 56.544 34.0516 56.938 34.5365 56.938Z" fill="url(#paint7_linear)"/>
<path d="M39.0279 51.0217C39.3708 50.678 39.3708 50.1208 39.0279 49.7772C38.685 49.4335 38.1291 49.4335 37.7862 49.7772C37.4433 50.1208 37.4433 50.678 37.7862 51.0217C38.1291 51.3653 38.685 51.3653 39.0279 51.0217Z" fill="#2A2E33"/>
<path d="M39.036 54.9294C39.3789 54.5858 39.3789 54.0286 39.036 53.6849C38.6931 53.3413 38.1371 53.3413 37.7942 53.6849C37.4513 54.0286 37.4513 54.5858 37.7942 54.9294C38.1371 55.2731 38.6931 55.2731 39.036 54.9294Z" fill="#2D5887"/>
<path d="M42.9793 48.9388C43.3222 48.5952 43.3222 48.038 42.9793 47.6944C42.6364 47.3507 42.0805 47.3507 41.7376 47.6943C41.3947 48.038 41.3947 48.5952 41.7376 48.9388C42.0805 49.2825 42.6364 49.2825 42.9793 48.9388Z" fill="#2A2E33"/>
<path d="M42.9871 52.8466C43.33 52.503 43.33 51.9458 42.9871 51.6021C42.6442 51.2585 42.0883 51.2585 41.7454 51.6021C41.4025 51.9458 41.4025 52.503 41.7454 52.8466C42.0883 53.1903 42.6442 53.1903 42.9871 52.8466Z" fill="#394651"/>
<path d="M42.9261 56.6852C43.269 56.3416 43.269 55.7844 42.9261 55.4407C42.5832 55.0971 42.0273 55.0971 41.6844 55.4407C41.3415 55.7844 41.3415 56.3416 41.6844 56.6852C42.0273 57.0289 42.5832 57.0289 42.9261 56.6852Z" fill="#2A2E33"/>
<path d="M46.8265 51.0058C47.1694 50.6622 47.1694 50.105 46.8265 49.7614C46.4836 49.4177 45.9276 49.4177 45.5847 49.7614C45.2418 50.105 45.2418 50.6622 45.5847 51.0058C45.9276 51.3495 46.4836 51.3495 46.8265 51.0058Z" fill="#2A2E33"/>
<path d="M46.8343 54.9136C47.1772 54.57 47.1772 54.0128 46.8343 53.6691C46.4914 53.3255 45.9355 53.3255 45.5926 53.6691C45.2497 54.0128 45.2497 54.57 45.5926 54.9136C45.9355 55.2573 46.4914 55.2573 46.8343 54.9136Z" fill="#2A2E33"/>
<path d="M50.7774 48.9229C51.1203 48.5792 51.1203 48.0221 50.7774 47.6784C50.4345 47.3348 49.8786 47.3348 49.5357 47.6784C49.1928 48.0221 49.1928 48.5792 49.5357 48.9229C49.8786 49.2666 50.4345 49.2666 50.7774 48.9229Z" fill="#2A2E33"/>
<path d="M50.7852 52.8307C51.1281 52.487 51.1281 51.9298 50.7852 51.5862C50.4423 51.2425 49.8864 51.2425 49.5435 51.5862C49.2006 51.9298 49.2006 52.487 49.5435 52.8307C49.8864 53.1743 50.4423 53.1743 50.7852 52.8307Z" fill="#2A2E33"/>
<path d="M50.7244 56.6693C51.0673 56.3256 51.0673 55.7685 50.7244 55.4248C50.3815 55.0812 49.8256 55.0812 49.4827 55.4248C49.1398 55.7685 49.1398 56.3256 49.4827 56.6693C49.8256 57.013 50.3815 57.013 50.7244 56.6693Z" fill="#2D5887"/>
<path d="M54.6246 50.9899C54.9675 50.6463 54.9675 50.0891 54.6246 49.7454C54.2817 49.4018 53.7257 49.4018 53.3828 49.7454C53.0399 50.0891 53.0399 50.6463 53.3828 50.9899C53.7257 51.3336 54.2817 51.3336 54.6246 50.9899Z" fill="#2A2E33"/>
<path d="M54.6324 54.8977C54.9753 54.554 54.9753 53.9969 54.6324 53.6532C54.2895 53.3096 53.7336 53.3096 53.3907 53.6532C53.0478 53.9969 53.0477 54.554 53.3906 54.8977C53.7335 55.2413 54.2895 55.2413 54.6324 54.8977Z" fill="#2A2E33"/>
<path d="M57.8536 49.2127C58.3386 49.2127 58.7317 48.8187 58.7317 48.3327C58.7317 47.8467 58.3386 47.4527 57.8536 47.4527C57.3687 47.4527 56.9756 47.8467 56.9756 48.3327C56.9756 48.8187 57.3687 49.2127 57.8536 49.2127Z" fill="url(#paint8_linear)"/>
<path d="M58.5147 52.8838C58.8576 52.5402 58.8576 51.983 58.5147 51.6394C58.1718 51.2957 57.6159 51.2957 57.273 51.6394C56.9301 51.983 56.9301 52.5402 57.273 52.8838C57.6159 53.2275 58.1718 53.2275 58.5147 52.8838Z" fill="#394651"/>
<path d="M58.4537 56.7225C58.7966 56.3789 58.7966 55.8217 58.4537 55.478C58.1108 55.1344 57.5548 55.1344 57.2119 55.478C56.869 55.8217 56.869 56.3789 57.2119 56.7225C57.5548 57.0662 58.1108 57.0662 58.4537 56.7225Z" fill="#2D5887"/>
<path d="M62.3538 51.0431C62.6967 50.6994 62.6967 50.1423 62.3538 49.7986C62.0109 49.4549 61.455 49.4549 61.1121 49.7986C60.7692 50.1423 60.7692 50.6994 61.1121 51.0431C61.455 51.3867 62.0109 51.3867 62.3538 51.0431Z" fill="#2A2E33"/>
<path d="M62.3616 54.9509C62.7045 54.6073 62.7045 54.0501 62.3616 53.7064C62.0187 53.3628 61.4628 53.3628 61.1199 53.7064C60.777 54.0501 60.777 54.6073 61.1199 54.9509C61.4628 55.2946 62.0187 55.2946 62.3616 54.9509Z" fill="#2A2E33"/>
<path d="M66.305 48.9602C66.6479 48.6165 66.6479 48.0594 66.305 47.7157C65.9621 47.3721 65.4062 47.3721 65.0633 47.7157C64.7204 48.0594 64.7204 48.6165 65.0633 48.9602C65.4062 49.3038 65.9621 49.3038 66.305 48.9602Z" fill="#2A2E33"/>
<path d="M66.3128 52.868C66.6557 52.5244 66.6557 51.9672 66.3128 51.6236C65.9699 51.2799 65.414 51.2799 65.0711 51.6235C64.7282 51.9672 64.7282 52.5244 65.0711 52.868C65.414 53.2117 65.9699 53.2117 66.3128 52.868Z" fill="#2A2E33"/>
<path d="M66.252 56.7066C66.5949 56.363 66.5949 55.8058 66.252 55.4622C65.9091 55.1185 65.3532 55.1185 65.0103 55.4622C64.6674 55.8058 64.6674 56.363 65.0103 56.7067C65.3532 57.0503 65.9091 57.0503 66.252 56.7066Z" fill="#2A2E33"/>
<path d="M24.6831 52.5379C24.6831 54.689 23.1221 56.3512 21.1709 56.7424C20.9758 56.8401 20.6831 56.8401 20.488 56.8401C18.1465 56.8401 16.1953 54.9824 16.1953 52.5379C16.1953 50.1913 18.049 48.2357 20.488 48.2357C20.6831 48.2357 20.9758 48.2357 21.1709 48.3335C23.1221 48.7246 24.6831 50.4846 24.6831 52.5379Z" fill="#273850"/>
<path d="M81.9513 86.2712H21.0732V94.3867H81.9513V86.2712Z" fill="#1D242E"/>
<path d="M81.9513 90.4756H21.0732V88.3245L81.9513 81.7734V90.4756Z" fill="#1D242E"/>
<path d="M11.9023 88.9112V86.2712H72.7804V94.3867H11.9023V91.6489" fill="#262B31"/>
<path d="M72.7804 86.2712H11.9023V90.4756H72.7804V86.2712Z" fill="#364151"/>
<path d="M81.1707 88.2267H12.3903C10.7317 88.2267 9.26831 86.8578 9.26831 85.0978V70.7245C9.26831 69.0623 10.6342 67.5956 12.3903 67.5956H81.1707C82.8293 67.5956 84.2927 68.9645 84.2927 70.7245V85.0978C84.2927 86.76 82.8293 88.2267 81.1707 88.2267Z" fill="#2E3746"/>
<path d="M18.0488 67.5956H71.4146C72.5854 67.5956 73.561 68.5734 73.561 69.7468V85.88C73.561 87.0534 72.5854 88.0311 71.4146 88.0311H11.4147C10.2439 88.0311 9.26831 87.0534 9.26831 85.88V69.8445C9.26831 68.6712 10.2439 67.6934 11.4147 67.6934H12.8781" fill="#545D71"/>
<path d="M35.1593 75.1678C35.5022 74.8242 35.5022 74.267 35.1593 73.9234C34.8164 73.5797 34.2604 73.5797 33.9175 73.9234C33.5746 74.267 33.5746 74.8242 33.9175 75.1678C34.2604 75.5115 34.8164 75.5115 35.1593 75.1678Z" fill="#2A2E33"/>
<path d="M35.1673 79.0757C35.5102 78.732 35.5102 78.1748 35.1673 77.8312C34.8244 77.4875 34.2685 77.4875 33.9256 77.8312C33.5827 78.1748 33.5827 78.732 33.9256 79.0757C34.2685 79.4193 34.8244 79.4193 35.1673 79.0757Z" fill="#2A2E33"/>
<path d="M35.1751 82.9834C35.518 82.6397 35.518 82.0826 35.1751 81.7389C34.8322 81.3953 34.2763 81.3953 33.9334 81.7389C33.5905 82.0826 33.5905 82.6397 33.9334 82.9834C34.2763 83.327 34.8322 83.327 35.1751 82.9834Z" fill="#394651"/>
<path d="M38.4391 77.569C38.924 77.569 39.3171 77.175 39.3171 76.689C39.3171 76.2029 38.924 75.809 38.4391 75.809C37.9542 75.809 37.561 76.2029 37.561 76.689C37.561 77.175 37.9542 77.569 38.4391 77.569Z" fill="url(#paint9_linear)"/>
<path d="M39.0831 81.2118C39.426 80.8682 39.426 80.311 39.0831 79.9674C38.7402 79.6237 38.1842 79.6237 37.8413 79.9674C37.4984 80.311 37.4984 80.8682 37.8413 81.2118C38.1842 81.5555 38.7402 81.5555 39.0831 81.2118Z" fill="#2A2E33"/>
<path d="M42.9573 75.1519C43.3002 74.8082 43.3002 74.2511 42.9573 73.9074C42.6145 73.5638 42.0585 73.5638 41.7156 73.9074C41.3727 74.2511 41.3727 74.8083 41.7156 75.1519C42.0585 75.4956 42.6144 75.4956 42.9573 75.1519Z" fill="#2A2E33"/>
<path d="M42.9656 79.0597C43.3085 78.716 43.3086 78.1589 42.9657 77.8152C42.6228 77.4715 42.0668 77.4715 41.7239 77.8152C41.381 78.1589 41.381 78.716 41.7239 79.0597C42.0668 79.4033 42.6227 79.4033 42.9656 79.0597Z" fill="#394651"/>
<path d="M42.9735 82.9675C43.3164 82.6238 43.3164 82.0666 42.9735 81.723C42.6306 81.3793 42.0746 81.3793 41.7317 81.723C41.3888 82.0666 41.3888 82.6238 41.7317 82.9675C42.0746 83.3111 42.6306 83.3111 42.9735 82.9675Z" fill="#394651"/>
<path d="M46.8734 77.2881C47.2163 76.9444 47.2163 76.3872 46.8734 76.0436C46.5305 75.6999 45.9745 75.6999 45.6316 76.0436C45.2887 76.3872 45.2887 76.9444 45.6316 77.2881C45.9745 77.6317 46.5305 77.6317 46.8734 77.2881Z" fill="#394651"/>
<path d="M46.8814 81.1958C47.2243 80.8522 47.2243 80.295 46.8814 79.9514C46.5385 79.6077 45.9826 79.6077 45.6397 79.9514C45.2968 80.295 45.2968 80.8522 45.6397 81.1958C45.9826 81.5395 46.5385 81.5395 46.8814 81.1958Z" fill="#2A2E33"/>
<path d="M50.7557 75.1361C51.0986 74.7924 51.0986 74.2353 50.7557 73.8916C50.4128 73.548 49.8568 73.548 49.5139 73.8916C49.171 74.2353 49.171 74.7924 49.5139 75.1361C49.8568 75.4797 50.4128 75.4797 50.7557 75.1361Z" fill="#394651"/>
<path d="M50.7635 79.0439C51.1064 78.7002 51.1064 78.143 50.7635 77.7994C50.4206 77.4557 49.8647 77.4557 49.5218 77.7994C49.1789 78.143 49.1789 78.7002 49.5218 79.0439C49.8647 79.3875 50.4206 79.3875 50.7635 79.0439Z" fill="#2D5887"/>
<path d="M50.7716 82.9516C51.1145 82.608 51.1145 82.0508 50.7716 81.7072C50.4287 81.3635 49.8727 81.3635 49.5298 81.7072C49.1869 82.0508 49.1869 82.608 49.5298 82.9516C49.8727 83.2953 50.4287 83.2953 50.7716 82.9516Z" fill="#2A2E33"/>
<path d="M54.6717 77.2721C55.0146 76.9285 55.0146 76.3713 54.6717 76.0277C54.3288 75.684 53.7729 75.684 53.43 76.0277C53.0871 76.3713 53.0871 76.9285 53.43 77.2721C53.7729 77.6158 54.3288 77.6158 54.6717 77.2721Z" fill="#2A2E33"/>
<path d="M54.6795 81.1799C55.0224 80.8363 55.0224 80.2791 54.6795 79.9354C54.3366 79.5918 53.7807 79.5918 53.4378 79.9354C53.0949 80.2791 53.0949 80.8363 53.4378 81.1799C53.7807 81.5236 54.3366 81.5236 54.6795 81.1799Z" fill="#394651"/>
<path d="M58.4849 75.1893C58.8278 74.8457 58.8278 74.2885 58.4849 73.9448C58.142 73.6012 57.5861 73.6012 57.2432 73.9448C56.9003 74.2885 56.9003 74.8457 57.2432 75.1893C57.5861 75.533 58.142 75.533 58.4849 75.1893Z" fill="#2D5887"/>
<path d="M58.493 79.0971C58.8359 78.7534 58.8359 78.1963 58.493 77.8526C58.1501 77.509 57.5941 77.509 57.2512 77.8526C56.9083 78.1963 56.9083 78.7534 57.2512 79.0971C57.5941 79.4407 58.1501 79.4407 58.493 79.0971Z" fill="#2A2E33"/>
<path d="M57.8539 83.24C58.3388 83.24 58.7319 82.846 58.7319 82.36C58.7319 81.874 58.3388 81.48 57.8539 81.48C57.3689 81.48 56.9758 81.874 56.9758 82.36C56.9758 82.846 57.3689 83.24 57.8539 83.24Z" fill="url(#paint10_linear)"/>
<path d="M62.401 77.3255C62.7439 76.9818 62.7439 76.4247 62.401 76.081C62.0581 75.7374 61.5021 75.7374 61.1592 76.081C60.8163 76.4247 60.8163 76.9818 61.1592 77.3255C61.5021 77.6691 62.0581 77.6691 62.401 77.3255Z" fill="#394651"/>
<path d="M62.409 81.2332C62.7519 80.8896 62.7519 80.3324 62.409 79.9887C62.0661 79.6451 61.5102 79.6451 61.1673 79.9887C60.8244 80.3324 60.8244 80.8895 61.1673 81.2332C61.5102 81.5769 62.0661 81.5769 62.409 81.2332Z" fill="#2A2E33"/>
<path d="M66.2833 75.1734C66.6262 74.8297 66.6262 74.2726 66.2833 73.9289C65.9404 73.5853 65.3844 73.5853 65.0415 73.9289C64.6986 74.2726 64.6986 74.8297 65.0415 75.1734C65.3844 75.517 65.9404 75.517 66.2833 75.1734Z" fill="#2A2E33"/>
<path d="M66.2911 79.0812C66.634 78.7375 66.634 78.1803 66.2911 77.8367C65.9482 77.493 65.3922 77.493 65.0493 77.8367C64.7064 78.1803 64.7064 78.7375 65.0493 79.0812C65.3922 79.4248 65.9482 79.4248 66.2911 79.0812Z" fill="#394651"/>
<path d="M66.2989 82.9889C66.6418 82.6452 66.6418 82.0881 66.2989 81.7444C65.956 81.4008 65.4001 81.4007 65.0572 81.7444C64.7143 82.0881 64.7143 82.6452 65.0572 82.9889C65.4001 83.3325 65.956 83.3325 66.2989 82.9889Z" fill="#2A2E33"/>
<path d="M24.6831 78.84C24.6831 80.9912 23.1221 82.6534 21.1709 83.0445C20.9758 83.1423 20.6831 83.1423 20.488 83.1423C18.1465 83.1423 16.1953 81.2845 16.1953 78.9378C16.1953 76.5912 18.049 74.6356 20.488 74.6356C20.6831 74.6356 20.9758 74.6356 21.1709 74.7334C23.1221 74.929 24.6831 76.6889 24.6831 78.84Z" fill="#273850"/>
<path d="M24.6831 26.3336C24.6831 28.4847 23.1221 30.1469 21.1709 30.538C19.1221 30.2447 17.6587 28.4847 17.6587 26.3336C17.6587 24.1825 19.2197 22.4225 21.1709 22.1292C23.1221 22.4225 24.6831 24.1825 24.6831 26.3336Z" fill="#364151"/>
<path d="M24.6831 52.5379C24.6831 54.689 23.1221 56.3512 21.1709 56.7424C19.1221 56.449 17.6587 54.689 17.6587 52.5379C17.6587 50.3868 19.2197 48.6268 21.1709 48.3335C23.1221 48.7246 24.6831 50.4846 24.6831 52.5379Z" fill="#364151"/>
<path d="M24.6831 78.84C24.6831 80.9912 23.1221 82.6534 21.1709 83.0445C19.1221 82.7511 17.6587 80.9912 17.6587 78.84C17.6587 76.6889 19.2197 74.929 21.1709 74.6356C23.1221 74.929 24.6831 76.6889 24.6831 78.84Z" fill="#364151"/>
<path d="M65.6586 22.0314C62.5366 21.6403 62.3415 30.1469 65.6586 29.8536" stroke="#84A1FF" stroke-miterlimit="10" stroke-linecap="round" stroke-linejoin="round"/>
<path d="M50.1462 29.8536C46.3413 29.8536 31.3169 53.7113 38.4389 54.2979" stroke="#84A1FF" stroke-miterlimit="10" stroke-linecap="round" stroke-linejoin="round"/>
<path d="M50.1462 56.7424C48.6828 57.329 58.5365 67.4001 57.9511 74.5379" stroke="#84A1FF" stroke-miterlimit="10" stroke-linecap="round" stroke-linejoin="round"/>
<path d="M57.8536 56.0579C53.8536 55.9602 43.2194 78.449 50.0487 78.3512" stroke="#84A1FF" stroke-miterlimit="10" stroke-linecap="round" stroke-linejoin="round"/>
<path d="M99.4147 13.7203C98.6342 13.7203 96.7805 13.0359 96.1951 12.7426C92.9756 11.2759 87.6098 6.97369 84.5854 6.97369C81.561 6.97369 76.2927 11.2759 72.9756 12.7426C72.3903 13.0359 70.5366 13.6226 69.7561 13.7203C68.4878 13.8181 67.6098 14.8937 67.7073 16.067C68 18.9025 68.7805 24.0848 70.8293 30.6358C73.3659 38.8491 80.683 43.738 83.4147 45.3025C84.0976 45.6936 84.8781 45.6936 85.561 45.3025C88.2927 43.738 95.6098 38.7514 98.1464 30.6358C100.195 24.0848 100.976 18.9025 101.268 16.067C101.561 14.8937 100.683 13.8181 99.4147 13.7203Z" fill="url(#paint11_linear)"/>
<path d="M98.439 16.5559C98.1463 18.8047 97.5609 22.4225 96.2926 27.018C96.195 27.3114 96.0975 27.5069 96.0975 27.8003C95.9024 28.4847 95.7072 29.0714 95.5121 29.7558C94.2438 33.7647 91.7072 36.8936 89.2682 39.0447C87.5121 40.6091 85.8536 41.7824 84.6829 42.4669C84.3902 42.2713 84.0975 42.0758 83.7073 41.8802C80.6829 39.8269 75.7072 35.818 73.8536 29.658C71.9999 23.7914 71.2194 19.0981 70.9268 16.4581C72.3902 16.1647 74.0487 15.4803 74.3414 15.3825C75.6097 14.7959 77.0731 13.9159 78.6341 12.9381C80.3902 11.8625 83.5121 9.90698 84.6829 9.90698C85.8536 9.90698 88.9755 11.8625 90.7316 12.9381C92.2926 13.9159 93.756 14.7959 95.0243 15.3825C95.317 15.5781 96.9755 16.2625 98.439 16.5559Z" fill="url(#paint12_linear)"/>
<path opacity="0.4" d="M96.2925 27.018C96.195 27.3114 96.0974 27.5069 96.0974 27.8003C95.9023 28.4847 95.7072 29.0714 95.512 29.7558C94.2437 33.7647 91.7072 36.8936 89.2681 39.0447L80.5852 30.3425L81.1706 25.8447L86.2437 23.3025L83.1218 23.5958L82.2437 18.3158L86.7315 17.3381L96.2925 27.018Z" fill="url(#paint13_linear)"/>
<path d="M87.5121 22.227V19.4892C87.5121 18.2181 86.4389 16.7514 85.1706 16.5559C84.195 16.3603 83.2194 16.7514 82.634 17.3381C82.1462 17.827 81.756 18.6092 81.756 19.3914V22.227C80.9755 22.7159 80.2926 23.4003 79.9023 24.1825C79.5121 24.9647 79.2194 25.747 79.2194 26.7247C79.1218 29.6581 81.5608 32.298 84.4877 32.3958C87.6096 32.4936 90.1462 30.0492 90.1462 26.9203C90.1462 24.867 89.073 23.2047 87.5121 22.227ZM85.3657 27.507V28.9736C85.3657 29.1692 85.1706 29.3647 84.9755 29.3647H84.3901C84.195 29.3647 83.9999 29.1692 83.9999 28.9736V28.0936V27.507C83.5121 27.2136 83.2194 26.7247 83.3169 26.0403C83.4145 25.5514 83.8048 25.0625 84.3901 24.9647C85.2682 24.7692 86.0486 25.4536 86.0486 26.3336C86.0486 26.8225 85.756 27.3114 85.3657 27.507ZM86.3413 21.6403C85.8535 21.4447 85.2682 21.347 84.6828 21.347C84.195 21.347 83.6096 21.4447 83.1218 21.5425V19.3914C83.1218 19.0003 83.3169 18.5114 83.6096 18.2181C83.9999 17.827 84.6828 17.6314 85.3657 17.827C85.9511 18.0225 86.3413 18.707 86.3413 19.3914V21.6403Z" fill="url(#paint14_linear)"/>
<defs>
<linearGradient id="paint0_linear" x1="0" y1="54.6945" x2="3.22478" y2="54.6945" gradientUnits="userSpaceOnUse">
<stop stop-color="#83A6FF"/>
<stop offset="1" stop-color="#5A78FF"/>
</linearGradient>
<linearGradient id="paint1_linear" x1="70.8643" y1="37.5369" x2="72.4229" y2="37.5369" gradientUnits="userSpaceOnUse">
<stop stop-color="#FF66A9"/>
<stop offset="1" stop-color="#F53689"/>
</linearGradient>
<linearGradient id="paint2_linear" x1="64.0068" y1="60.6541" x2="65.5653" y2="60.6541" gradientUnits="userSpaceOnUse">
<stop stop-color="#FF66A9"/>
<stop offset="1" stop-color="#F53689"/>
</linearGradient>
<linearGradient id="paint3_linear" x1="84.5793" y1="53.7806" x2="86.1378" y2="53.7806" gradientUnits="userSpaceOnUse">
<stop stop-color="#FF66A9"/>
<stop offset="1" stop-color="#F53689"/>
</linearGradient>
<linearGradient id="paint4_linear" x1="67.435" y1="78.7729" x2="68.9935" y2="78.7729" gradientUnits="userSpaceOnUse">
<stop stop-color="#FF66A9"/>
<stop offset="1" stop-color="#F53689"/>
</linearGradient>
<linearGradient id="paint5_linear" x1="84.5788" y1="83.7712" x2="86.1373" y2="83.7712" gradientUnits="userSpaceOnUse">
<stop stop-color="#FF66A9"/>
<stop offset="1" stop-color="#F53689"/>
</linearGradient>
<linearGradient id="paint6_linear" x1="41.4454" y1="29.8685" x2="43.2141" y2="29.8685" gradientUnits="userSpaceOnUse">
<stop stop-color="#FF66A9"/>
<stop offset="1" stop-color="#F53689"/>
</linearGradient>
<linearGradient id="paint7_linear" x1="33.663" y1="56.1036" x2="35.4317" y2="56.1036" gradientUnits="userSpaceOnUse">
<stop stop-color="#FF66A9"/>
<stop offset="1" stop-color="#F53689"/>
</linearGradient>
<linearGradient id="paint8_linear" x1="57.0101" y1="48.3032" x2="58.7788" y2="48.3032" gradientUnits="userSpaceOnUse">
<stop stop-color="#FF66A9"/>
<stop offset="1" stop-color="#F53689"/>
</linearGradient>
<linearGradient id="paint9_linear" x1="37.5543" y1="76.6662" x2="39.3231" y2="76.6662" gradientUnits="userSpaceOnUse">
<stop stop-color="#FF66A9"/>
<stop offset="1" stop-color="#F53689"/>
</linearGradient>
<linearGradient id="paint10_linear" x1="57.0104" y1="82.3386" x2="58.779" y2="82.3386" gradientUnits="userSpaceOnUse">
<stop stop-color="#FF66A9"/>
<stop offset="1" stop-color="#F53689"/>
</linearGradient>
<linearGradient id="paint11_linear" x1="82.7385" y1="18.9486" x2="93.7043" y2="34.2995" gradientUnits="userSpaceOnUse">
<stop stop-color="#83A6FF"/>
<stop offset="1" stop-color="#5A78FF"/>
</linearGradient>
<linearGradient id="paint12_linear" x1="94.6324" y1="35.0613" x2="78.1177" y2="14.0774" gradientUnits="userSpaceOnUse">
<stop stop-color="#83A6FF"/>
<stop offset="1" stop-color="#5A78FF"/>
</linearGradient>
<linearGradient id="paint13_linear" x1="87.175" y1="27.4653" x2="93.2325" y2="33.5095" gradientUnits="userSpaceOnUse">
<stop stop-color="#4F6AFF"/>
<stop offset="1" stop-color="#657EFF" stop-opacity="0"/>
</linearGradient>
<linearGradient id="paint14_linear" x1="90.0743" y1="30.359" x2="79.8667" y2="20.174" gradientUnits="userSpaceOnUse">
<stop offset="0.0113208" stop-color="#C2D1FF"/>
<stop offset="1" stop-color="white"/>
</linearGradient>
</defs>
</svg>
