<svg width="171" height="115" viewBox="0 0 171 115" fill="none" xmlns="http://www.w3.org/2000/svg">
<path d="M156.973 76.5677H120.987V81.3532H156.973V76.5677Z" fill="#1D242E"/>
<path d="M156.973 79.1545H120.987V77.8611L156.973 73.981V79.1545Z" fill="#252C36"/>
<path d="M115.44 78.2491V76.5677H151.427V81.4826H115.44V79.8012" fill="#262B31"/>
<path d="M151.427 77.4732H115.44V79.1546H151.427V77.4732Z" fill="#364151"/>
<path d="M156.457 77.7318H115.698C114.666 77.7318 113.893 76.9558 113.893 75.9211V67.3848C113.893 66.3501 114.666 65.5741 115.698 65.5741H156.457C157.489 65.5741 158.263 66.3501 158.263 67.3848V75.9211C158.263 76.9558 157.489 77.7318 156.457 77.7318Z" fill="#2E3746"/>
<path d="M119.181 65.5741H150.782C151.556 65.5741 152.072 66.2208 152.072 66.8675V76.4384C152.072 77.2145 151.427 77.7318 150.782 77.7318H115.182C114.409 77.7318 113.893 77.0851 113.893 76.4384V66.8675C113.893 66.0914 114.537 65.5741 115.182 65.5741H116.085" fill="#545D71"/>
<path d="M129.234 70.0936C129.436 69.8916 129.436 69.564 129.234 69.362C129.033 69.1599 128.706 69.1599 128.505 69.362C128.303 69.564 128.303 69.8916 128.505 70.0936C128.706 70.2956 129.033 70.2956 129.234 70.0936Z" fill="#2A2E33"/>
<path d="M129.249 72.4156C129.45 72.2136 129.45 71.886 129.249 71.684C129.048 71.4819 128.721 71.4819 128.519 71.684C128.318 71.886 128.318 72.2136 128.519 72.4156C128.721 72.6177 129.047 72.6177 129.249 72.4156Z" fill="#2A2E33"/>
<path d="M129.264 74.7376C129.465 74.5356 129.465 74.208 129.264 74.0059C129.062 73.8039 128.735 73.8039 128.534 74.0059C128.333 74.208 128.333 74.5356 128.534 74.7376C128.735 74.9396 129.062 74.9396 129.264 74.7376Z" fill="#2A2E33"/>
<path d="M131.574 71.362C131.776 71.16 131.776 70.8324 131.574 70.6304C131.373 70.4284 131.046 70.4284 130.845 70.6304C130.643 70.8324 130.643 71.16 130.845 71.362C131.046 71.5641 131.373 71.5641 131.574 71.362Z" fill="#394651"/>
<path d="M131.498 73.5926C131.699 73.3906 131.699 73.063 131.498 72.861C131.297 72.659 130.97 72.659 130.768 72.861C130.567 73.063 130.567 73.3906 130.768 73.5926C130.97 73.7947 131.297 73.7947 131.498 73.5926Z" fill="#2A2E33"/>
<path d="M133.866 70.0644C134.067 69.8623 134.067 69.5348 133.866 69.3327C133.664 69.1307 133.338 69.1307 133.136 69.3327C132.935 69.5348 132.935 69.8623 133.136 70.0644C133.338 70.2664 133.664 70.2664 133.866 70.0644Z" fill="#2A2E33"/>
<path d="M133.88 72.3863C134.081 72.1843 134.081 71.8567 133.88 71.6547C133.678 71.4526 133.352 71.4526 133.15 71.6547C132.949 71.8567 132.949 72.1843 133.15 72.3863C133.352 72.5884 133.678 72.5884 133.88 72.3863Z" fill="#2A2E33"/>
<path d="M133.498 74.8865C133.783 74.8865 134.014 74.6548 134.014 74.3691C134.014 74.0834 133.783 73.8517 133.498 73.8517C133.213 73.8517 132.982 74.0834 132.982 74.3691C132.982 74.6548 133.213 74.8865 133.498 74.8865Z" fill="url(#paint0_linear)"/>
<path d="M136.206 71.3327C136.407 71.1307 136.407 70.8031 136.206 70.6011C136.004 70.3991 135.678 70.3991 135.476 70.6011C135.275 70.8031 135.275 71.1307 135.476 71.3327C135.678 71.5348 136.004 71.5348 136.206 71.3327Z" fill="#394651"/>
<path d="M136.129 73.5633C136.331 73.3612 136.331 73.0337 136.129 72.8316C135.928 72.6296 135.601 72.6296 135.399 72.8316C135.198 73.0337 135.198 73.3612 135.399 73.5633C135.601 73.7653 135.928 73.7653 136.129 73.5633Z" fill="#2A2E33"/>
<path d="M138.497 70.0349C138.698 69.8328 138.698 69.5053 138.497 69.3032C138.295 69.1012 137.969 69.1012 137.767 69.3032C137.566 69.5053 137.566 69.8329 137.767 70.0349C137.969 70.2369 138.295 70.2369 138.497 70.0349Z" fill="#394651"/>
<path d="M138.511 72.3569C138.713 72.1548 138.713 71.8272 138.511 71.6252C138.31 71.4232 137.983 71.4232 137.782 71.6252C137.58 71.8272 137.58 72.1548 137.782 72.3569C137.983 72.5589 138.31 72.5589 138.511 72.3569Z" fill="#2A2E33"/>
<path d="M138.526 74.679C138.728 74.477 138.728 74.1494 138.526 73.9473C138.325 73.7453 137.998 73.7453 137.796 73.9473C137.595 74.1494 137.595 74.477 137.796 74.679C137.998 74.881 138.325 74.881 138.526 74.679Z" fill="#2A2E33"/>
<path d="M140.746 71.3949C140.947 71.1929 140.947 70.8653 140.746 70.6633C140.544 70.4613 140.218 70.4613 140.016 70.6633C139.815 70.8653 139.815 71.1929 140.016 71.3949C140.218 71.597 140.544 71.597 140.746 71.3949Z" fill="#2A2E33"/>
<path d="M140.669 73.6254C140.871 73.4234 140.871 73.0958 140.669 72.8938C140.468 72.6917 140.141 72.6917 139.94 72.8938C139.738 73.0958 139.738 73.4234 139.94 73.6254C140.141 73.8274 140.468 73.8274 140.669 73.6254Z" fill="#2A2E33"/>
<path d="M143.037 70.097C143.238 69.895 143.238 69.5674 143.037 69.3654C142.835 69.1633 142.509 69.1633 142.307 69.3654C142.106 69.5674 142.106 69.895 142.307 70.097C142.509 70.2991 142.835 70.2991 143.037 70.097Z" fill="#2A2E33"/>
<path d="M143.051 72.419C143.253 72.2169 143.253 71.8894 143.051 71.6873C142.85 71.4853 142.523 71.4853 142.322 71.6873C142.12 71.8894 142.12 72.2169 142.322 72.419C142.523 72.621 142.85 72.621 143.051 72.419Z" fill="#394651"/>
<path d="M143.066 74.741C143.268 74.539 143.268 74.2114 143.066 74.0094C142.865 73.8073 142.538 73.8073 142.336 74.0094C142.135 74.2114 142.135 74.539 142.336 74.741C142.538 74.943 142.865 74.943 143.066 74.741Z" fill="#2A2E33"/>
<path d="M145.377 71.3656C145.579 71.1635 145.579 70.836 145.377 70.6339C145.176 70.4319 144.849 70.4319 144.648 70.6339C144.446 70.836 144.446 71.1635 144.648 71.3656C144.849 71.5676 145.176 71.5676 145.377 71.3656Z" fill="#2A2E33"/>
<path d="M145.3 73.5962C145.502 73.3941 145.502 73.0666 145.3 72.8645C145.099 72.6625 144.772 72.6625 144.571 72.8645C144.369 73.0666 144.369 73.3941 144.571 73.5962C144.772 73.7982 145.099 73.7982 145.3 73.5962Z" fill="#2A2E33"/>
<path d="M147.668 70.0677C147.87 69.8657 147.87 69.5381 147.668 69.3361C147.467 69.134 147.14 69.134 146.939 69.3361C146.737 69.5381 146.737 69.8657 146.939 70.0677C147.14 70.2698 147.467 70.2698 147.668 70.0677Z" fill="#2A2E33"/>
<path d="M147.683 72.3898C147.884 72.1877 147.884 71.8601 147.683 71.6581C147.481 71.4561 147.155 71.4561 146.953 71.6581C146.752 71.8601 146.752 72.1877 146.953 72.3897C147.155 72.5918 147.481 72.5918 147.683 72.3898Z" fill="#394651"/>
<path d="M147.697 74.7117C147.899 74.5096 147.899 74.182 147.697 73.98C147.496 73.778 147.169 73.778 146.968 73.98C146.766 74.182 146.766 74.5096 146.968 74.7116C147.169 74.9137 147.496 74.9137 147.697 74.7117Z" fill="#2A2E33"/>
<path d="M123.051 72.1704C123.051 73.4637 122.148 74.4984 120.987 74.6278C120.858 74.6278 120.729 74.6278 120.6 74.6278C119.181 74.6278 118.149 73.4637 118.149 72.1704C118.149 70.7476 119.31 69.713 120.6 69.713C120.729 69.713 120.858 69.713 120.987 69.713C122.148 69.9716 123.051 71.0063 123.051 72.1704Z" fill="#273850"/>
<path d="M156.973 92.0883H120.987V96.8738H156.973V92.0883Z" fill="#1D242E"/>
<path d="M156.973 94.675H120.987V93.3817L156.973 92.9937V94.675Z" fill="#252C36"/>
<path d="M115.44 93.7697V92.0883H151.427V97.0031H115.44V95.3218" fill="#262B31"/>
<path d="M151.427 92.8643H115.44V94.675H151.427V92.8643Z" fill="#364151"/>
<path d="M156.457 93.2523H115.698C114.666 93.2523 113.893 92.4763 113.893 91.4416V82.9053C113.893 81.8706 114.666 81.0946 115.698 81.0946H156.457C157.489 81.0946 158.263 81.8706 158.263 82.9053V91.4416C158.263 92.4763 157.489 93.2523 156.457 93.2523Z" fill="#2E3746"/>
<path d="M119.181 81.0946H150.782C151.556 81.0946 152.072 81.7413 152.072 82.388V91.959C152.072 92.735 151.427 93.2523 150.782 93.2523H115.182C114.409 93.2523 113.893 92.6056 113.893 91.959V82.388C113.893 81.612 114.537 81.0946 115.182 81.0946H116.085" fill="#545D71"/>
<path d="M129.233 85.6144C129.435 85.4124 129.435 85.0848 129.233 84.8828C129.032 84.6807 128.705 84.6807 128.503 84.8828C128.302 85.0848 128.302 85.4124 128.503 85.6144C128.705 85.8165 129.032 85.8165 129.233 85.6144Z" fill="#2A2E33"/>
<path d="M129.248 87.9364C129.449 87.7344 129.449 87.4068 129.248 87.2048C129.046 87.0028 128.719 87.0028 128.518 87.2048C128.316 87.4068 128.316 87.7344 128.518 87.9364C128.719 88.1385 129.046 88.1385 129.248 87.9364Z" fill="#2A2E33"/>
<path d="M128.855 90.407C129.14 90.407 129.37 90.1753 129.37 89.8896C129.37 89.6039 129.14 89.3723 128.855 89.3723C128.57 89.3723 128.339 89.6039 128.339 89.8896C128.339 90.1753 128.57 90.407 128.855 90.407Z" fill="url(#paint1_linear)"/>
<path d="M131.573 86.8829C131.775 86.6809 131.775 86.3533 131.573 86.1513C131.372 85.9492 131.045 85.9492 130.844 86.1513C130.642 86.3533 130.642 86.6809 130.844 86.8829C131.045 87.0849 131.372 87.085 131.573 86.8829Z" fill="#2A2E33"/>
<path d="M131.497 89.1135C131.698 88.9115 131.698 88.5839 131.497 88.3819C131.295 88.1798 130.968 88.1798 130.767 88.3819C130.565 88.5839 130.565 88.9115 130.767 89.1135C130.968 89.3155 131.295 89.3155 131.497 89.1135Z" fill="#405872"/>
<path d="M133.864 85.5851C134.066 85.3831 134.066 85.0555 133.864 84.8535C133.663 84.6514 133.336 84.6514 133.135 84.8535C132.933 85.0555 132.933 85.3831 133.135 85.5851C133.336 85.7872 133.663 85.7872 133.864 85.5851Z" fill="#2A2E33"/>
<path d="M133.879 87.907C134.08 87.705 134.08 87.3774 133.879 87.1754C133.677 86.9733 133.351 86.9733 133.149 87.1754C132.948 87.3774 132.948 87.705 133.149 87.907C133.351 88.1091 133.677 88.1091 133.879 87.907Z" fill="#394651"/>
<path d="M133.894 90.229C134.095 90.0269 134.095 89.6994 133.894 89.4973C133.692 89.2953 133.365 89.2953 133.164 89.4973C132.962 89.6994 132.962 90.0269 133.164 90.229C133.365 90.431 133.692 90.431 133.894 90.229Z" fill="#2A2E33"/>
<path d="M136.205 86.8536C136.406 86.6516 136.406 86.324 136.205 86.122C136.003 85.9199 135.676 85.9199 135.475 86.122C135.273 86.324 135.273 86.6516 135.475 86.8536C135.676 87.0557 136.003 87.0557 136.205 86.8536Z" fill="#2A2E33"/>
<path d="M136.128 89.0841C136.329 88.882 136.329 88.5545 136.128 88.3524C135.926 88.1504 135.6 88.1504 135.398 88.3524C135.197 88.5545 135.197 88.882 135.398 89.0841C135.6 89.2861 135.926 89.2861 136.128 89.0841Z" fill="#2A2E33"/>
<path d="M138.496 85.5557C138.697 85.3537 138.697 85.0261 138.496 84.8241C138.294 84.622 137.967 84.622 137.766 84.8241C137.564 85.0261 137.564 85.3537 137.766 85.5557C137.967 85.7577 138.294 85.7577 138.496 85.5557Z" fill="#2A2E33"/>
<path d="M138.51 87.8778C138.712 87.6757 138.712 87.3482 138.51 87.1461C138.309 86.9441 137.982 86.9441 137.781 87.1461C137.579 87.3482 137.579 87.6757 137.781 87.8778C137.982 88.0798 138.309 88.0798 138.51 87.8778Z" fill="#2A2E33"/>
<path d="M138.525 90.1997C138.726 89.9977 138.726 89.6701 138.525 89.4681C138.323 89.2661 137.997 89.2661 137.795 89.4681C137.594 89.6701 137.594 89.9977 137.795 90.1997C137.997 90.4018 138.323 90.4018 138.525 90.1997Z" fill="#2A2E33"/>
<path d="M140.744 86.9156C140.946 86.7136 140.946 86.386 140.744 86.184C140.543 85.9819 140.216 85.9819 140.015 86.184C139.813 86.386 139.813 86.7136 140.015 86.9156C140.216 87.1177 140.543 87.1177 140.744 86.9156Z" fill="#2A2E33"/>
<path d="M140.668 89.1462C140.87 88.9442 140.87 88.6166 140.668 88.4146C140.467 88.2125 140.14 88.2125 139.939 88.4146C139.737 88.6166 139.737 88.9442 139.939 89.1462C140.14 89.3483 140.467 89.3483 140.668 89.1462Z" fill="#2A2E33"/>
<path d="M142.656 85.7501C142.941 85.7501 143.172 85.5185 143.172 85.2327C143.172 84.947 142.941 84.7154 142.656 84.7154C142.371 84.7154 142.14 84.947 142.14 85.2327C142.14 85.5185 142.371 85.7501 142.656 85.7501Z" fill="url(#paint2_linear)"/>
<path d="M143.05 87.9399C143.252 87.7378 143.252 87.4102 143.05 87.2082C142.849 87.0062 142.522 87.0062 142.321 87.2082C142.119 87.4102 142.119 87.7378 142.321 87.9399C142.522 88.1419 142.849 88.1419 143.05 87.9399Z" fill="#394651"/>
<path d="M143.065 90.2619C143.266 90.0599 143.266 89.7323 143.065 89.5303C142.863 89.3283 142.537 89.3283 142.335 89.5303C142.134 89.7323 142.134 90.0599 142.335 90.2619C142.537 90.464 142.863 90.464 143.065 90.2619Z" fill="#2A2E33"/>
<path d="M145.376 86.8864C145.577 86.6844 145.577 86.3568 145.376 86.1547C145.174 85.9527 144.848 85.9527 144.646 86.1547C144.445 86.3568 144.445 86.6844 144.646 86.8864C144.848 87.0884 145.174 87.0884 145.376 86.8864Z" fill="#2A2E33"/>
<path d="M145.299 89.1169C145.501 88.9149 145.501 88.5873 145.299 88.3853C145.098 88.1832 144.771 88.1832 144.57 88.3853C144.368 88.5873 144.368 88.9149 144.57 89.1169C144.771 89.319 145.098 89.319 145.299 89.1169Z" fill="#2A2E33"/>
<path d="M147.667 85.5886C147.868 85.3865 147.868 85.0589 147.667 84.8569C147.465 84.6549 147.139 84.6549 146.937 84.8569C146.736 85.0589 146.736 85.3865 146.937 85.5885C147.139 85.7906 147.465 85.7906 147.667 85.5886Z" fill="#2A2E33"/>
<path d="M147.681 87.9104C147.883 87.7084 147.883 87.3808 147.681 87.1788C147.48 86.9768 147.153 86.9768 146.952 87.1788C146.75 87.3808 146.75 87.7084 146.952 87.9104C147.153 88.1125 147.48 88.1125 147.681 87.9104Z" fill="#2A2E33"/>
<path d="M147.696 90.2325C147.897 90.0305 147.897 89.7029 147.696 89.5009C147.495 89.2988 147.168 89.2988 146.966 89.5009C146.765 89.7029 146.765 90.0305 146.966 90.2325C147.168 90.4346 147.495 90.4346 147.696 90.2325Z" fill="#2A2E33"/>
<path d="M123.051 87.6909C123.051 88.9843 122.148 90.019 120.987 90.1483C120.858 90.1483 120.729 90.1483 120.6 90.1483C119.181 90.1483 118.149 88.9843 118.149 87.6909C118.149 86.2682 119.31 85.2335 120.6 85.2335C120.729 85.2335 120.858 85.2335 120.987 85.2335C122.148 85.4922 123.051 86.5269 123.051 87.6909Z" fill="#273850"/>
<path d="M156.973 107.609H120.987V112.394H156.973V107.609Z" fill="#1D242E"/>
<path d="M156.973 110.196H120.987V108.902L156.973 105.022V110.196Z" fill="#252C36"/>
<path d="M115.44 109.29V107.609H151.427V112.524H115.44V110.842" fill="#262B31"/>
<path d="M151.427 107.738H115.44V110.196H151.427V107.738Z" fill="#364151"/>
<path d="M156.457 108.773H115.698C114.666 108.773 113.893 107.997 113.893 106.962V98.4258C113.893 97.3911 114.666 96.6151 115.698 96.6151H156.457C157.489 96.6151 158.263 97.3911 158.263 98.4258V106.962C158.263 107.997 157.489 108.773 156.457 108.773Z" fill="#2E3746"/>
<path d="M119.181 96.6151H150.782C151.556 96.6151 152.072 97.2618 152.072 97.9085V107.479C152.072 108.255 151.427 108.773 150.782 108.773H115.182C114.409 108.773 113.893 108.126 113.893 107.479V97.9085C113.893 97.1325 114.537 96.6151 115.182 96.6151H116.085" fill="#545D71"/>
<path d="M129.232 101.135C129.433 100.933 129.433 100.606 129.232 100.404C129.03 100.202 128.704 100.202 128.502 100.404C128.301 100.606 128.301 100.933 128.502 101.135C128.704 101.337 129.03 101.337 129.232 101.135Z" fill="#2A2E33"/>
<path d="M129.247 103.457C129.448 103.255 129.448 102.928 129.247 102.726C129.045 102.524 128.718 102.524 128.517 102.726C128.315 102.928 128.315 103.255 128.517 103.457C128.718 103.659 129.045 103.659 129.247 103.457Z" fill="#2A2E33"/>
<path d="M129.261 105.779C129.463 105.577 129.463 105.25 129.261 105.048C129.06 104.846 128.733 104.846 128.532 105.048C128.33 105.25 128.33 105.577 128.532 105.779C128.733 105.981 129.06 105.981 129.261 105.779Z" fill="#394651"/>
<path d="M131.176 102.565C131.461 102.565 131.692 102.333 131.692 102.047C131.692 101.762 131.461 101.53 131.176 101.53C130.891 101.53 130.66 101.762 130.66 102.047C130.66 102.333 130.891 102.565 131.176 102.565Z" fill="url(#paint3_linear)"/>
<path d="M131.495 104.634C131.697 104.432 131.697 104.105 131.495 103.903C131.294 103.701 130.967 103.701 130.766 103.903C130.564 104.105 130.564 104.432 130.766 104.634C130.967 104.836 131.294 104.836 131.495 104.634Z" fill="#2A2E33"/>
<path d="M133.863 101.106C134.065 100.904 134.065 100.576 133.863 100.374C133.662 100.172 133.335 100.172 133.134 100.374C132.932 100.576 132.932 100.904 133.134 101.106C133.335 101.308 133.662 101.308 133.863 101.106Z" fill="#2A2E33"/>
<path d="M133.877 103.428C134.079 103.226 134.079 102.898 133.877 102.696C133.676 102.494 133.349 102.494 133.148 102.696C132.946 102.898 132.946 103.226 133.148 103.428C133.349 103.63 133.676 103.63 133.877 103.428Z" fill="#394651"/>
<path d="M133.892 105.75C134.094 105.548 134.094 105.22 133.892 105.018C133.691 104.816 133.364 104.816 133.163 105.018C132.961 105.22 132.961 105.548 133.163 105.75C133.364 105.952 133.691 105.952 133.892 105.75Z" fill="#394651"/>
<path d="M136.203 102.374C136.405 102.172 136.405 101.845 136.203 101.643C136.002 101.441 135.675 101.441 135.474 101.643C135.272 101.845 135.272 102.172 135.474 102.374C135.675 102.576 136.002 102.576 136.203 102.374Z" fill="#394651"/>
<path d="M136.127 104.605C136.328 104.403 136.328 104.075 136.127 103.873C135.925 103.671 135.599 103.671 135.397 103.873C135.196 104.075 135.196 104.403 135.397 104.605C135.599 104.807 135.925 104.807 136.127 104.605Z" fill="#2A2E33"/>
<path d="M138.494 101.077C138.696 100.874 138.696 100.547 138.494 100.345C138.293 100.143 137.966 100.143 137.765 100.345C137.563 100.547 137.563 100.874 137.765 101.077C137.966 101.279 138.293 101.279 138.494 101.077Z" fill="#394651"/>
<path d="M138.509 103.399C138.71 103.196 138.71 102.869 138.509 102.667C138.307 102.465 137.981 102.465 137.779 102.667C137.578 102.869 137.578 103.196 137.779 103.399C137.981 103.601 138.307 103.601 138.509 103.399Z" fill="#2A2E33"/>
<path d="M138.524 105.721C138.725 105.519 138.725 105.191 138.524 104.989C138.322 104.787 137.995 104.787 137.794 104.989C137.593 105.191 137.593 105.519 137.794 105.721C137.995 105.923 138.322 105.923 138.524 105.721Z" fill="#2A2E33"/>
<path d="M140.743 102.437C140.945 102.234 140.945 101.907 140.743 101.705C140.542 101.503 140.215 101.503 140.014 101.705C139.812 101.907 139.812 102.234 140.014 102.437C140.215 102.639 140.542 102.639 140.743 102.437Z" fill="#2A2E33"/>
<path d="M140.667 104.667C140.868 104.465 140.868 104.138 140.667 103.936C140.465 103.733 140.139 103.733 139.937 103.936C139.736 104.138 139.736 104.465 139.937 104.667C140.139 104.869 140.465 104.869 140.667 104.667Z" fill="#394651"/>
<path d="M143.034 101.139C143.236 100.937 143.236 100.609 143.034 100.407C142.833 100.205 142.506 100.205 142.305 100.407C142.103 100.609 142.103 100.937 142.305 101.139C142.506 101.341 142.833 101.341 143.034 101.139Z" fill="#2A2E33"/>
<path d="M143.049 103.461C143.25 103.259 143.25 102.931 143.049 102.729C142.848 102.527 142.521 102.527 142.319 102.729C142.118 102.931 142.118 103.259 142.319 103.461C142.521 103.663 142.848 103.663 143.049 103.461Z" fill="#2A2E33"/>
<path d="M142.656 105.927C142.941 105.927 143.172 105.696 143.172 105.41C143.172 105.124 142.941 104.893 142.656 104.893C142.371 104.893 142.14 105.124 142.14 105.41C142.14 105.696 142.371 105.927 142.656 105.927Z" fill="url(#paint4_linear)"/>
<path d="M145.375 102.407C145.576 102.205 145.576 101.877 145.375 101.675C145.173 101.473 144.847 101.473 144.645 101.675C144.444 101.877 144.444 102.205 144.645 102.407C144.847 102.609 145.173 102.609 145.375 102.407Z" fill="#394651"/>
<path d="M145.298 104.638C145.5 104.436 145.5 104.108 145.298 103.906C145.097 103.704 144.77 103.704 144.568 103.906C144.367 104.108 144.367 104.436 144.568 104.638C144.77 104.84 145.097 104.84 145.298 104.638Z" fill="#2A2E33"/>
<path d="M147.665 101.109C147.867 100.907 147.867 100.58 147.665 100.378C147.464 100.176 147.137 100.176 146.936 100.378C146.734 100.58 146.734 100.907 146.936 101.109C147.137 101.311 147.464 101.311 147.665 101.109Z" fill="#2A2E33"/>
<path d="M147.68 103.431C147.882 103.229 147.882 102.902 147.68 102.7C147.479 102.498 147.152 102.498 146.951 102.7C146.749 102.902 146.749 103.229 146.951 103.431C147.152 103.633 147.479 103.633 147.68 103.431Z" fill="#394651"/>
<path d="M147.695 105.753C147.896 105.551 147.896 105.224 147.695 105.022C147.493 104.82 147.167 104.82 146.965 105.022C146.764 105.224 146.764 105.551 146.965 105.753C147.167 105.955 147.493 105.955 147.695 105.753Z" fill="#2A2E33"/>
<path d="M123.051 103.211C123.051 104.505 122.148 105.539 120.987 105.669C120.858 105.669 120.729 105.669 120.6 105.669C119.181 105.669 118.149 104.505 118.149 103.211C118.149 101.789 119.31 100.754 120.6 100.754C120.729 100.754 120.858 100.754 120.987 100.754C122.148 101.013 123.051 102.047 123.051 103.211Z" fill="#273850"/>
<path d="M123.05 72.1704C123.05 73.4637 122.147 74.4984 120.987 74.6278C119.826 74.4984 118.923 73.3344 118.923 72.1704C118.923 70.877 119.826 69.8423 120.987 69.713C122.147 69.9716 123.05 71.0063 123.05 72.1704Z" fill="#364151"/>
<path d="M123.05 87.6909C123.05 88.9843 122.147 90.019 120.987 90.1483C119.826 90.019 118.923 88.855 118.923 87.6909C118.923 86.3976 119.826 85.3629 120.987 85.2335C122.147 85.4922 123.05 86.5269 123.05 87.6909Z" fill="#364151"/>
<path d="M123.05 103.211C123.05 104.505 122.147 105.539 120.987 105.669C119.826 105.539 118.923 104.505 118.923 103.211C118.923 101.918 119.826 100.883 120.987 100.754C122.147 101.013 123.05 102.047 123.05 103.211Z" fill="#364151"/>
<path opacity="0.1" d="M146.139 65.5741H128.726V112.394H146.139V65.5741Z" fill="black"/>
<path d="M128.338 76.5677H92.3518V81.3532H128.338V76.5677Z" fill="#25303F"/>
<path d="M128.338 79.1545H92.3518V77.8611L128.338 73.981V79.1545Z" fill="#273850"/>
<path d="M86.9346 78.2491V76.5677H122.921V81.4826H86.9346V79.8012" fill="#262B31"/>
<path d="M122.921 77.4732H86.9346V79.1546H122.921V77.4732Z" fill="#364151"/>
<path d="M127.951 77.7318H87.1927C86.1609 77.7318 85.387 76.9558 85.387 75.9211V67.3848C85.387 66.3501 86.1609 65.5741 87.1927 65.5741H127.951C128.983 65.5741 129.757 66.3501 129.757 67.3848V75.9211C129.757 76.9558 128.983 77.7318 127.951 77.7318Z" fill="#2E3746"/>
<path d="M90.5463 65.5741H122.147C122.921 65.5741 123.437 66.2208 123.437 66.8675V76.4384C123.437 77.2145 122.792 77.7318 122.147 77.7318H86.6768C85.9029 77.7318 85.387 77.0851 85.387 76.4384V66.8675C85.387 66.0914 86.0319 65.5741 86.6768 65.5741H87.5797" fill="#545D71"/>
<path d="M100.723 70.0795C100.925 69.8775 100.925 69.5499 100.723 69.3479C100.522 69.1459 100.195 69.1458 99.9935 69.3479C99.792 69.5499 99.792 69.8775 99.9935 70.0795C100.195 70.2815 100.522 70.2815 100.723 70.0795Z" fill="#2A2E33"/>
<path d="M100.738 72.4014C100.939 72.1994 100.939 71.8718 100.738 71.6698C100.536 71.4678 100.21 71.4677 100.008 71.6698C99.8067 71.8718 99.8067 72.1994 100.008 72.4014C100.21 72.6034 100.536 72.6034 100.738 72.4014Z" fill="#2A2E33"/>
<path d="M100.752 74.7234C100.954 74.5214 100.954 74.1938 100.752 73.9918C100.551 73.7898 100.224 73.7898 100.023 73.9918C99.8213 74.1938 99.8213 74.5214 100.023 74.7234C100.224 74.9254 100.551 74.9254 100.752 74.7234Z" fill="#2A2E33"/>
<path d="M103.063 71.3481C103.265 71.1461 103.265 70.8185 103.063 70.6165C102.862 70.4145 102.535 70.4145 102.334 70.6165C102.132 70.8185 102.132 71.1461 102.334 71.3481C102.535 71.5501 102.862 71.5501 103.063 71.3481Z" fill="#394651"/>
<path d="M102.987 73.5786C103.188 73.3765 103.188 73.049 102.987 72.847C102.785 72.6449 102.459 72.6449 102.257 72.847C102.056 73.049 102.056 73.3765 102.257 73.5786C102.459 73.7806 102.785 73.7806 102.987 73.5786Z" fill="#2A2E33"/>
<path d="M105.354 70.0502C105.556 69.8482 105.556 69.5206 105.354 69.3186C105.153 69.1165 104.826 69.1165 104.625 69.3186C104.423 69.5206 104.423 69.8482 104.625 70.0502C104.826 70.2522 105.153 70.2522 105.354 70.0502Z" fill="#2A2E33"/>
<path d="M105.369 72.3722C105.571 72.1701 105.571 71.8426 105.369 71.6405C105.168 71.4385 104.841 71.4385 104.639 71.6405C104.438 71.8426 104.438 72.1701 104.639 72.3722C104.841 72.5742 105.168 72.5742 105.369 72.3722Z" fill="#2A2E33"/>
<path d="M104.992 74.8864C105.277 74.8864 105.508 74.6548 105.508 74.369C105.508 74.0833 105.277 73.8517 104.992 73.8517C104.708 73.8517 104.477 74.0833 104.477 74.369C104.477 74.6548 104.708 74.8864 104.992 74.8864Z" fill="url(#paint5_linear)"/>
<path d="M107.694 71.3188C107.896 71.1167 107.896 70.7892 107.694 70.5871C107.493 70.3851 107.166 70.3851 106.965 70.5871C106.763 70.7892 106.763 71.1167 106.965 71.3188C107.166 71.5208 107.493 71.5208 107.694 71.3188Z" fill="#394651"/>
<path d="M107.618 73.5493C107.819 73.3473 107.819 73.0197 107.618 72.8177C107.416 72.6156 107.09 72.6156 106.888 72.8177C106.687 73.0197 106.687 73.3472 106.888 73.5493C107.09 73.7513 107.416 73.7513 107.618 73.5493Z" fill="#2A2E33"/>
<path d="M109.894 70.1123C110.096 69.9103 110.096 69.5827 109.894 69.3807C109.693 69.1787 109.366 69.1787 109.165 69.3807C108.963 69.5827 108.963 69.9103 109.165 70.1123C109.366 70.3144 109.693 70.3144 109.894 70.1123Z" fill="#394651"/>
<path d="M109.909 72.4343C110.11 72.2323 110.11 71.9048 109.909 71.7027C109.707 71.5007 109.381 71.5007 109.179 71.7027C108.978 71.9048 108.978 72.2323 109.179 72.4344C109.381 72.6364 109.707 72.6364 109.909 72.4343Z" fill="#2A2E33"/>
<path d="M109.923 74.7563C110.125 74.5542 110.125 74.2267 109.923 74.0246C109.722 73.8226 109.395 73.8226 109.194 74.0246C108.992 74.2267 108.992 74.5542 109.194 74.7563C109.395 74.9583 109.722 74.9583 109.923 74.7563Z" fill="#2A2E33"/>
<path d="M112.235 71.3808C112.436 71.1788 112.436 70.8512 112.235 70.6492C112.033 70.4472 111.706 70.4472 111.505 70.6492C111.303 70.8512 111.303 71.1788 111.505 71.3808C111.706 71.5829 112.033 71.5829 112.235 71.3808Z" fill="#2A2E33"/>
<path d="M112.158 73.6114C112.359 73.4093 112.359 73.0818 112.158 72.8797C111.956 72.6777 111.63 72.6777 111.428 72.8797C111.227 73.0818 111.227 73.4093 111.428 73.6113C111.63 73.8134 111.956 73.8134 112.158 73.6114Z" fill="#2A2E33"/>
<path d="M114.525 70.083C114.727 69.881 114.727 69.5534 114.525 69.3514C114.324 69.1494 113.997 69.1494 113.796 69.3514C113.594 69.5534 113.594 69.881 113.796 70.083C113.997 70.2851 114.324 70.2851 114.525 70.083Z" fill="#2A2E33"/>
<path d="M114.54 72.4051C114.742 72.203 114.742 71.8755 114.54 71.6734C114.339 71.4714 114.012 71.4714 113.811 71.6734C113.609 71.8755 113.609 72.203 113.811 72.4051C114.012 72.6071 114.339 72.6071 114.54 72.4051Z" fill="#394651"/>
<path d="M114.555 74.727C114.756 74.525 114.756 74.1974 114.555 73.9954C114.353 73.7934 114.027 73.7934 113.825 73.9954C113.624 74.1974 113.624 74.525 113.825 74.727C114.027 74.929 114.353 74.929 114.555 74.727Z" fill="#2A2E33"/>
<path d="M116.866 71.3515C117.067 71.1494 117.067 70.8219 116.866 70.6199C116.664 70.4178 116.338 70.4178 116.136 70.6198C115.935 70.8219 115.935 71.1494 116.136 71.3515C116.338 71.5535 116.664 71.5535 116.866 71.3515Z" fill="#2A2E33"/>
<path d="M116.789 73.582C116.991 73.38 116.991 73.0524 116.789 72.8504C116.588 72.6484 116.261 72.6483 116.06 72.8504C115.858 73.0524 115.858 73.38 116.06 73.582C116.261 73.784 116.588 73.784 116.789 73.582Z" fill="#2A2E33"/>
<path d="M119.157 70.0535C119.358 69.8515 119.358 69.524 119.157 69.3219C118.955 69.1199 118.629 69.1199 118.427 69.3219C118.226 69.524 118.226 69.8515 118.427 70.0536C118.629 70.2556 118.955 70.2556 119.157 70.0535Z" fill="#2A2E33"/>
<path d="M119.172 72.3757C119.373 72.1737 119.373 71.8461 119.172 71.6441C118.97 71.442 118.643 71.442 118.442 71.6441C118.24 71.8461 118.24 72.1737 118.442 72.3757C118.643 72.5777 118.97 72.5777 119.172 72.3757Z" fill="#394651"/>
<path d="M119.186 74.6977C119.388 74.4956 119.388 74.1681 119.186 73.966C118.985 73.764 118.658 73.764 118.457 73.966C118.255 74.1681 118.255 74.4956 118.457 74.6977C118.658 74.8997 118.985 74.8997 119.186 74.6977Z" fill="#2A2E33"/>
<path d="M94.5449 72.1704C94.5449 73.4637 93.642 74.4984 92.4812 74.6278C92.3522 74.6278 92.2232 74.6278 92.0942 74.6278C90.6754 74.6278 89.6436 73.4637 89.6436 72.1704C89.6436 70.7476 90.8044 69.713 92.0942 69.713C92.2232 69.713 92.3522 69.713 92.4812 69.713C93.642 69.9716 94.5449 71.0063 94.5449 72.1704Z" fill="#273850"/>
<path d="M128.338 92.0883H92.3518V96.8738H128.338V92.0883Z" fill="#25303F"/>
<path d="M128.338 94.675H92.3518V93.3817L128.338 92.9937V94.675Z" fill="#273850"/>
<path d="M86.9346 93.7697V92.0883H122.921V97.0031H86.9346V95.3218" fill="#262B31"/>
<path d="M122.921 92.8643H86.9346V94.675H122.921V92.8643Z" fill="#364151"/>
<path d="M127.951 93.2523H87.1927C86.1609 93.2523 85.387 92.4763 85.387 91.4416V82.9053C85.387 81.8706 86.1609 81.0946 87.1927 81.0946H127.951C128.983 81.0946 129.757 81.8706 129.757 82.9053V91.4416C129.757 92.4763 128.983 93.2523 127.951 93.2523Z" fill="#2E3746"/>
<path d="M90.5463 81.0946H122.147C122.921 81.0946 123.437 81.7413 123.437 82.388V91.959C123.437 92.735 122.792 93.2523 122.147 93.2523H86.6768C85.9029 93.2523 85.387 92.6056 85.387 91.959V82.388C85.387 81.612 86.0319 81.0946 86.6768 81.0946H87.5797" fill="#545D71"/>
<path d="M100.722 85.6004C100.923 85.3984 100.923 85.0708 100.722 84.8688C100.52 84.6668 100.194 84.6668 99.9923 84.8688C99.7908 85.0708 99.7908 85.3984 99.9923 85.6004C100.194 85.8025 100.52 85.8025 100.722 85.6004Z" fill="#2A2E33"/>
<path d="M100.737 87.9224C100.938 87.7204 100.938 87.3928 100.737 87.1908C100.535 86.9887 100.208 86.9887 100.007 87.1908C99.8054 87.3928 99.8054 87.7204 100.007 87.9224C100.208 88.1244 100.535 88.1244 100.737 87.9224Z" fill="#2A2E33"/>
<path d="M100.349 90.407C100.634 90.407 100.865 90.1753 100.865 89.8896C100.865 89.6039 100.634 89.3723 100.349 89.3723C100.064 89.3723 99.833 89.6039 99.833 89.8896C99.833 90.1753 100.064 90.407 100.349 90.407Z" fill="url(#paint6_linear)"/>
<path d="M103.062 86.8688C103.264 86.6668 103.264 86.3392 103.062 86.1372C102.861 85.9351 102.534 85.9351 102.333 86.1372C102.131 86.3392 102.131 86.6668 102.333 86.8688C102.534 87.0708 102.861 87.0708 103.062 86.8688Z" fill="#2A2E33"/>
<path d="M102.986 89.0994C103.187 88.8974 103.187 88.5698 102.986 88.3678C102.784 88.1657 102.457 88.1657 102.256 88.3678C102.054 88.5698 102.054 88.8974 102.256 89.0994C102.457 89.3014 102.784 89.3014 102.986 89.0994Z" fill="#405872"/>
<path d="M105.353 85.571C105.555 85.369 105.555 85.0414 105.353 84.8394C105.152 84.6374 104.825 84.6374 104.624 84.8394C104.422 85.0414 104.422 85.369 104.624 85.571C104.825 85.773 105.152 85.773 105.353 85.571Z" fill="#2A2E33"/>
<path d="M105.368 87.893C105.569 87.6909 105.569 87.3634 105.368 87.1613C105.166 86.9593 104.84 86.9593 104.638 87.1613C104.437 87.3634 104.437 87.6909 104.638 87.893C104.84 88.095 105.166 88.095 105.368 87.893Z" fill="#394651"/>
<path d="M105.383 90.2151C105.584 90.0131 105.584 89.6855 105.383 89.4835C105.181 89.2815 104.854 89.2815 104.653 89.4835C104.451 89.6855 104.451 90.0131 104.653 90.2151C104.854 90.4171 105.181 90.4171 105.383 90.2151Z" fill="#2A2E33"/>
<path d="M107.693 86.8396C107.895 86.6375 107.895 86.31 107.693 86.108C107.492 85.9059 107.165 85.9059 106.964 86.108C106.762 86.31 106.762 86.6375 106.964 86.8396C107.165 87.0416 107.492 87.0416 107.693 86.8396Z" fill="#2A2E33"/>
<path d="M107.617 89.0701C107.818 88.8681 107.818 88.5405 107.617 88.3385C107.415 88.1364 107.089 88.1364 106.887 88.3385C106.686 88.5405 106.686 88.8681 106.887 89.0701C107.089 89.2721 107.415 89.2721 107.617 89.0701Z" fill="#2A2E33"/>
<path d="M109.893 85.6331C110.095 85.4311 110.095 85.1035 109.893 84.9015C109.692 84.6994 109.365 84.6994 109.164 84.9015C108.962 85.1035 108.962 85.4311 109.164 85.6331C109.365 85.8351 109.692 85.8351 109.893 85.6331Z" fill="#2A2E33"/>
<path d="M109.908 87.9551C110.109 87.7531 110.109 87.4255 109.908 87.2235C109.706 87.0215 109.38 87.0215 109.178 87.2235C108.977 87.4255 108.977 87.7531 109.178 87.9551C109.38 88.1571 109.706 88.1571 109.908 87.9551Z" fill="#2A2E33"/>
<path d="M109.922 90.2771C110.124 90.075 110.124 89.7475 109.922 89.5454C109.721 89.3434 109.394 89.3434 109.193 89.5454C108.991 89.7475 108.991 90.075 109.193 90.2771C109.394 90.4791 109.721 90.4791 109.922 90.2771Z" fill="#2A2E33"/>
<path d="M112.233 86.9018C112.435 86.6997 112.435 86.3722 112.233 86.1701C112.032 85.9681 111.705 85.9681 111.504 86.1701C111.302 86.3722 111.302 86.6997 111.504 86.9018C111.705 87.1038 112.032 87.1038 112.233 86.9018Z" fill="#2A2E33"/>
<path d="M112.157 89.1322C112.358 88.9302 112.358 88.6026 112.157 88.4006C111.955 88.1986 111.629 88.1986 111.427 88.4006C111.226 88.6026 111.226 88.9302 111.427 89.1322C111.629 89.3343 111.955 89.3343 112.157 89.1322Z" fill="#2A2E33"/>
<path d="M114.15 85.7502C114.435 85.7502 114.666 85.5186 114.666 85.2329C114.666 84.9471 114.435 84.7155 114.15 84.7155C113.865 84.7155 113.634 84.9471 113.634 85.2329C113.634 85.5186 113.865 85.7502 114.15 85.7502Z" fill="url(#paint7_linear)"/>
<path d="M114.539 87.9257C114.741 87.7237 114.741 87.3961 114.539 87.1941C114.338 86.9921 114.011 86.9921 113.81 87.1941C113.608 87.3962 113.608 87.7237 113.81 87.9257C114.011 88.1278 114.338 88.1278 114.539 87.9257Z" fill="#394651"/>
<path d="M114.554 90.2478C114.755 90.0458 114.755 89.7182 114.554 89.5162C114.352 89.3142 114.026 89.3142 113.824 89.5162C113.623 89.7182 113.623 90.0458 113.824 90.2478C114.026 90.4499 114.352 90.4499 114.554 90.2478Z" fill="#2A2E33"/>
<path d="M116.865 86.8724C117.066 86.6704 117.066 86.3428 116.865 86.1408C116.663 85.9388 116.337 85.9388 116.135 86.1408C115.934 86.3428 115.934 86.6704 116.135 86.8724C116.337 87.0744 116.663 87.0744 116.865 86.8724Z" fill="#2A2E33"/>
<path d="M116.788 89.1029C116.99 88.9008 116.99 88.5733 116.788 88.3713C116.587 88.1692 116.26 88.1692 116.058 88.3712C115.857 88.5733 115.857 88.9008 116.058 89.1029C116.26 89.3049 116.587 89.3049 116.788 89.1029Z" fill="#2A2E33"/>
<path d="M119.156 85.5745C119.357 85.3725 119.357 85.0449 119.156 84.8429C118.954 84.6408 118.628 84.6408 118.426 84.8429C118.225 85.0449 118.225 85.3725 118.426 85.5745C118.628 85.7765 118.954 85.7765 119.156 85.5745Z" fill="#2A2E33"/>
<path d="M119.17 87.8965C119.372 87.6945 119.372 87.3669 119.17 87.1649C118.969 86.9629 118.642 86.9629 118.441 87.1649C118.239 87.3669 118.239 87.6945 118.441 87.8965C118.642 88.0985 118.969 88.0985 119.17 87.8965Z" fill="#2A2E33"/>
<path d="M119.185 90.2185C119.387 90.0164 119.387 89.6889 119.185 89.4869C118.984 89.2848 118.657 89.2848 118.455 89.4869C118.254 89.6889 118.254 90.0164 118.455 90.2185C118.657 90.4205 118.984 90.4205 119.185 90.2185Z" fill="#2A2E33"/>
<path d="M94.5449 87.6909C94.5449 88.9843 93.642 90.019 92.4812 90.1483C92.3522 90.1483 92.2232 90.1483 92.0942 90.1483C90.6754 90.1483 89.6436 88.9843 89.6436 87.6909C89.6436 86.2682 90.8044 85.2335 92.0942 85.2335C92.2232 85.2335 92.3522 85.2335 92.4812 85.2335C93.642 85.4922 94.5449 86.5269 94.5449 87.6909Z" fill="#273850"/>
<path d="M128.338 107.609H92.3518V112.394H128.338V107.609Z" fill="#25303F"/>
<path d="M128.338 110.196H92.3518V108.902L128.338 105.022V110.196Z" fill="#273850"/>
<path d="M86.9346 109.29V107.609H122.921V112.524H86.9346V110.842" fill="#262B31"/>
<path d="M122.921 107.738H86.9346V110.196H122.921V107.738Z" fill="#364151"/>
<path d="M127.951 108.773H87.1927C86.1609 108.773 85.387 107.997 85.387 106.962V98.4258C85.387 97.3911 86.1609 96.6151 87.1927 96.6151H127.951C128.983 96.6151 129.757 97.3911 129.757 98.4258V106.962C129.757 107.997 128.983 108.773 127.951 108.773Z" fill="#2E3746"/>
<path d="M90.5463 96.6151H122.147C122.921 96.6151 123.437 97.2618 123.437 97.9085V107.479C123.437 108.255 122.792 108.773 122.147 108.773H86.6768C85.9029 108.773 85.387 108.126 85.387 107.479V97.9085C85.387 97.1325 86.0319 96.6151 86.6768 96.6151H87.5797" fill="#545D71"/>
<path d="M100.721 101.121C100.922 100.919 100.922 100.592 100.721 100.39C100.519 100.188 100.193 100.188 99.9913 100.39C99.7898 100.592 99.7898 100.919 99.9913 101.121C100.193 101.323 100.519 101.323 100.721 101.121Z" fill="#2A2E33"/>
<path d="M100.736 103.443C100.937 103.241 100.937 102.914 100.736 102.712C100.534 102.509 100.208 102.509 100.006 102.712C99.8047 102.914 99.8047 103.241 100.006 103.443C100.208 103.645 100.534 103.645 100.736 103.443Z" fill="#2A2E33"/>
<path d="M100.75 105.765C100.952 105.563 100.952 105.236 100.75 105.034C100.549 104.832 100.222 104.832 100.021 105.034C99.8191 105.236 99.8191 105.563 100.021 105.765C100.222 105.967 100.549 105.967 100.75 105.765Z" fill="#394651"/>
<path d="M102.671 102.565C102.956 102.565 103.187 102.333 103.187 102.047C103.187 101.762 102.956 101.53 102.671 101.53C102.386 101.53 102.155 101.762 102.155 102.047C102.155 102.333 102.386 102.565 102.671 102.565Z" fill="url(#paint8_linear)"/>
<path d="M102.985 104.62C103.186 104.418 103.186 104.091 102.985 103.889C102.783 103.687 102.457 103.687 102.255 103.889C102.054 104.091 102.054 104.418 102.255 104.62C102.457 104.822 102.783 104.822 102.985 104.62Z" fill="#2A2E33"/>
<path d="M105.352 101.092C105.554 100.89 105.554 100.562 105.352 100.36C105.151 100.158 104.824 100.158 104.623 100.36C104.421 100.562 104.421 100.89 104.623 101.092C104.824 101.294 105.151 101.294 105.352 101.092Z" fill="#2A2E33"/>
<path d="M105.367 103.414C105.569 103.212 105.569 102.884 105.367 102.682C105.166 102.48 104.839 102.48 104.638 102.682C104.436 102.884 104.436 103.212 104.638 103.414C104.839 103.616 105.166 103.616 105.367 103.414Z" fill="#394651"/>
<path d="M105.381 105.736C105.583 105.534 105.583 105.206 105.381 105.004C105.18 104.802 104.853 104.802 104.652 105.004C104.45 105.206 104.45 105.534 104.652 105.736C104.853 105.938 105.18 105.938 105.381 105.736Z" fill="#394651"/>
<path d="M107.692 102.36C107.894 102.158 107.894 101.831 107.692 101.629C107.491 101.427 107.164 101.427 106.963 101.629C106.761 101.831 106.761 102.158 106.963 102.36C107.164 102.562 107.491 102.562 107.692 102.36Z" fill="#394651"/>
<path d="M107.616 104.591C107.817 104.389 107.817 104.061 107.616 103.859C107.414 103.657 107.088 103.657 106.886 103.859C106.685 104.061 106.685 104.389 106.886 104.591C107.088 104.793 107.414 104.793 107.616 104.591Z" fill="#2A2E33"/>
<path d="M109.892 101.154C110.094 100.952 110.094 100.624 109.892 100.422C109.691 100.22 109.364 100.22 109.163 100.422C108.961 100.624 108.961 100.952 109.163 101.154C109.364 101.356 109.691 101.356 109.892 101.154Z" fill="#394651"/>
<path d="M109.907 103.476C110.108 103.274 110.108 102.946 109.907 102.744C109.705 102.542 109.379 102.542 109.177 102.744C108.976 102.946 108.976 103.274 109.177 103.476C109.379 103.678 109.705 103.678 109.907 103.476Z" fill="#2A2E33"/>
<path d="M109.921 105.798C110.123 105.596 110.123 105.268 109.921 105.066C109.72 104.864 109.393 104.864 109.192 105.066C108.99 105.268 108.99 105.596 109.192 105.798C109.393 106 109.72 106 109.921 105.798Z" fill="#2A2E33"/>
<path d="M112.233 102.423C112.434 102.221 112.434 101.893 112.233 101.691C112.031 101.489 111.704 101.489 111.503 101.691C111.302 101.893 111.302 102.221 111.503 102.423C111.704 102.625 112.031 102.625 112.233 102.423Z" fill="#2A2E33"/>
<path d="M112.156 104.653C112.357 104.451 112.357 104.123 112.156 103.921C111.954 103.719 111.628 103.719 111.426 103.921C111.225 104.123 111.225 104.451 111.426 104.653C111.628 104.855 111.954 104.855 112.156 104.653Z" fill="#394651"/>
<path d="M114.523 101.125C114.725 100.923 114.725 100.595 114.523 100.393C114.322 100.191 113.995 100.191 113.794 100.393C113.592 100.595 113.592 100.923 113.794 101.125C113.995 101.327 114.322 101.327 114.523 101.125Z" fill="#2A2E33"/>
<path d="M114.538 103.447C114.74 103.245 114.74 102.917 114.538 102.715C114.337 102.513 114.01 102.513 113.808 102.715C113.607 102.917 113.607 103.245 113.808 103.447C114.01 103.649 114.337 103.649 114.538 103.447Z" fill="#2A2E33"/>
<path d="M114.15 105.928C114.435 105.928 114.666 105.696 114.666 105.41C114.666 105.124 114.435 104.893 114.15 104.893C113.865 104.893 113.634 105.124 113.634 105.41C113.634 105.696 113.865 105.928 114.15 105.928Z" fill="url(#paint9_linear)"/>
<path d="M116.864 102.393C117.066 102.191 117.066 101.864 116.864 101.662C116.663 101.46 116.336 101.46 116.134 101.662C115.933 101.864 115.933 102.191 116.134 102.393C116.336 102.595 116.663 102.595 116.864 102.393Z" fill="#394651"/>
<path d="M116.787 104.624C116.989 104.422 116.989 104.094 116.787 103.892C116.586 103.69 116.259 103.69 116.057 103.892C115.856 104.094 115.856 104.422 116.057 104.624C116.259 104.826 116.586 104.826 116.787 104.624Z" fill="#2A2E33"/>
<path d="M119.155 101.095C119.356 100.893 119.356 100.566 119.155 100.364C118.953 100.162 118.627 100.162 118.425 100.364C118.224 100.566 118.224 100.893 118.425 101.095C118.627 101.297 118.953 101.297 119.155 101.095Z" fill="#2A2E33"/>
<path d="M119.169 103.417C119.371 103.215 119.371 102.888 119.169 102.686C118.968 102.484 118.641 102.484 118.44 102.686C118.238 102.888 118.238 103.215 118.44 103.417C118.641 103.619 118.968 103.619 119.169 103.417Z" fill="#394651"/>
<path d="M119.184 105.739C119.386 105.537 119.386 105.21 119.184 105.008C118.983 104.806 118.656 104.806 118.455 105.008C118.253 105.21 118.253 105.537 118.455 105.739C118.656 105.941 118.983 105.941 119.184 105.739Z" fill="#2A2E33"/>
<path d="M94.5449 103.211C94.5449 104.505 93.642 105.539 92.4812 105.669C92.3522 105.669 92.2232 105.669 92.0942 105.669C90.6754 105.669 89.6436 104.505 89.6436 103.211C89.6436 101.789 90.8044 100.754 92.0942 100.754C92.2232 100.754 92.3522 100.754 92.4812 100.754C93.642 101.013 94.5449 102.047 94.5449 103.211Z" fill="#273850"/>
<path d="M94.5447 72.1704C94.5447 73.4637 93.6418 74.4984 92.481 74.6278C91.3201 74.4984 90.4172 73.3344 90.4172 72.1704C90.4172 70.877 91.3201 69.8423 92.481 69.713C93.6418 69.9716 94.5447 71.0063 94.5447 72.1704Z" fill="#364151"/>
<path d="M94.5447 87.6909C94.5447 88.9843 93.6418 90.019 92.481 90.1483C91.3201 90.019 90.4172 88.855 90.4172 87.6909C90.4172 86.3976 91.3201 85.3629 92.481 85.2335C93.6418 85.4922 94.5447 86.5269 94.5447 87.6909Z" fill="#364151"/>
<path d="M94.5447 103.211C94.5447 104.505 93.6418 105.539 92.481 105.669C91.3201 105.539 90.4172 104.505 90.4172 103.211C90.4172 101.918 91.3201 100.883 92.481 100.754C93.6418 101.013 94.5447 102.047 94.5447 103.211Z" fill="#364151"/>
<path opacity="0.05" d="M117.504 65.5741H100.091V112.394H117.504V65.5741Z" fill="black"/>
<path d="M142.269 58.8486H104.606V63.8928H142.269V58.8486Z" fill="#1D242E"/>
<path d="M142.14 61.4354H104.606V60.142L142.14 56.0032V61.4354Z" fill="#252C36"/>
<path d="M98.9302 60.53V58.8486H136.464V63.8928H98.9302V62.2114" fill="#262B31"/>
<path d="M136.593 59.754H98.9302V61.4354H136.593V59.754Z" fill="#364151"/>
<path d="M141.624 60.0127H99.0593C98.0274 60.0127 97.1245 59.1073 97.1245 58.0726V49.1483C97.1245 48.1136 98.0274 47.2083 99.0593 47.2083H141.624C142.656 47.2083 143.559 48.1136 143.559 49.1483V58.0726C143.559 59.2366 142.785 60.0127 141.624 60.0127Z" fill="#2E3746"/>
<path d="M102.671 47.3372H135.691C136.464 47.3372 137.109 47.9839 137.109 48.7599V58.7189C137.109 59.495 136.464 60.1416 135.691 60.1416H98.5433C97.7694 60.1416 97.1245 59.495 97.1245 58.7189V48.7599C97.1245 47.9839 97.7694 47.3372 98.5433 47.3372H99.4462" fill="#545D71"/>
<path d="M113.227 51.9869C113.429 51.7849 113.429 51.4573 113.227 51.2553C113.026 51.0532 112.699 51.0532 112.498 51.2553C112.296 51.4573 112.296 51.7849 112.498 51.9869C112.699 52.189 113.026 52.189 113.227 51.9869Z" fill="#2A2E33"/>
<path d="M113.26 54.4308C113.461 54.2288 113.461 53.9012 113.26 53.6992C113.058 53.4971 112.732 53.4971 112.53 53.6992C112.329 53.9012 112.329 54.2288 112.53 54.4308C112.732 54.6329 113.058 54.6329 113.26 54.4308Z" fill="#2A2E33"/>
<path d="M113.201 56.7832C113.403 56.5812 113.403 56.2536 113.201 56.0516C113 55.8496 112.673 55.8496 112.472 56.0516C112.27 56.2536 112.27 56.5812 112.471 56.7832C112.673 56.9853 113 56.9853 113.201 56.7832Z" fill="#2A2E33"/>
<path d="M115.649 53.2542C115.851 53.0522 115.851 52.7246 115.649 52.5226C115.448 52.3206 115.121 52.3206 114.92 52.5226C114.718 52.7246 114.718 53.0522 114.92 53.2543C115.121 53.4563 115.448 53.4563 115.649 53.2542Z" fill="#394651"/>
<path d="M115.682 55.6981C115.883 55.4961 115.883 55.1685 115.682 54.9664C115.48 54.7644 115.154 54.7644 114.952 54.9664C114.751 55.1685 114.751 55.4961 114.952 55.6981C115.154 55.9001 115.48 55.9001 115.682 55.6981Z" fill="#2A2E33"/>
<path d="M118.011 52.0132C118.212 51.8112 118.212 51.4836 118.011 51.2816C117.809 51.0795 117.483 51.0795 117.281 51.2816C117.08 51.4836 117.08 51.8112 117.281 52.0132C117.483 52.2153 117.809 52.2153 118.011 52.0132Z" fill="#2A2E33"/>
<path d="M118.043 54.4572C118.245 54.2552 118.245 53.9276 118.043 53.7255C117.842 53.5235 117.515 53.5235 117.314 53.7256C117.112 53.9276 117.112 54.2552 117.314 54.4572C117.515 54.6592 117.842 54.6592 118.043 54.4572Z" fill="#2A2E33"/>
<path d="M117.633 56.9085C117.918 56.9085 118.149 56.6769 118.149 56.3912C118.149 56.1055 117.918 55.8738 117.633 55.8738C117.348 55.8738 117.117 56.1055 117.117 56.3912C117.117 56.6769 117.348 56.9085 117.633 56.9085Z" fill="url(#paint10_linear)"/>
<path d="M120.432 53.2806C120.634 53.0786 120.634 52.751 120.432 52.549C120.231 52.3469 119.904 52.3469 119.703 52.549C119.501 52.751 119.501 53.0786 119.703 53.2806C119.904 53.4827 120.231 53.4827 120.432 53.2806Z" fill="#394651"/>
<path d="M120.465 55.7245C120.666 55.5225 120.666 55.1949 120.465 54.9929C120.263 54.7908 119.937 54.7908 119.735 54.9929C119.534 55.1949 119.534 55.5225 119.735 55.7245C119.937 55.9266 120.263 55.9266 120.465 55.7245Z" fill="#2A2E33"/>
<path d="M122.885 51.9484C123.087 51.7464 123.087 51.4188 122.885 51.2168C122.684 51.0147 122.357 51.0147 122.156 51.2168C121.954 51.4188 121.954 51.7464 122.156 51.9484C122.357 52.1504 122.684 52.1504 122.885 51.9484Z" fill="#394651"/>
<path d="M122.918 54.3922C123.119 54.1902 123.119 53.8626 122.918 53.6606C122.716 53.4586 122.39 53.4586 122.188 53.6606C121.987 53.8626 121.987 54.1902 122.188 54.3922C122.39 54.5943 122.716 54.5943 122.918 54.3922Z" fill="#2A2E33"/>
<path d="M122.859 56.7447C123.061 56.5427 123.061 56.2151 122.859 56.0131C122.658 55.811 122.331 55.811 122.129 56.0131C121.928 56.2151 121.928 56.5427 122.129 56.7447C122.331 56.9468 122.658 56.9468 122.859 56.7447Z" fill="#2A2E33"/>
<path d="M125.216 53.3071C125.417 53.1051 125.417 52.7775 125.216 52.5755C125.014 52.3734 124.688 52.3734 124.486 52.5755C124.285 52.7775 124.285 53.1051 124.486 53.3071C124.688 53.5091 125.014 53.5091 125.216 53.3071Z" fill="#2A2E33"/>
<path d="M125.248 55.7511C125.45 55.549 125.45 55.2215 125.248 55.0194C125.047 54.8174 124.72 54.8174 124.519 55.0194C124.317 55.2215 124.317 55.549 124.519 55.7511C124.72 55.9531 125.047 55.9531 125.248 55.7511Z" fill="#2A2E33"/>
<path d="M127.668 51.9748C127.87 51.7728 127.87 51.4452 127.668 51.2432C127.467 51.0412 127.14 51.0412 126.939 51.2432C126.737 51.4452 126.737 51.7728 126.939 51.9748C127.14 52.1769 127.467 52.1769 127.668 51.9748Z" fill="#2A2E33"/>
<path d="M127.701 54.4186C127.903 54.2166 127.903 53.889 127.701 53.687C127.5 53.4849 127.173 53.4849 126.971 53.687C126.77 53.889 126.77 54.2166 126.971 54.4186C127.173 54.6207 127.5 54.6207 127.701 54.4186Z" fill="#394651"/>
<path d="M127.642 56.7712C127.844 56.5691 127.844 56.2416 127.642 56.0395C127.441 55.8375 127.114 55.8375 126.913 56.0395C126.711 56.2416 126.711 56.5691 126.913 56.7712C127.114 56.9732 127.441 56.9732 127.642 56.7712Z" fill="#2A2E33"/>
<path d="M130.09 53.2421C130.292 53.0401 130.292 52.7125 130.09 52.5105C129.889 52.3084 129.562 52.3084 129.36 52.5105C129.159 52.7125 129.159 53.0401 129.36 53.2421C129.562 53.4441 129.889 53.4441 130.09 53.2421Z" fill="#2A2E33"/>
<path d="M130.123 55.686C130.324 55.484 130.324 55.1564 130.123 54.9544C129.921 54.7523 129.595 54.7523 129.393 54.9544C129.192 55.1564 129.192 55.484 129.393 55.686C129.595 55.888 129.921 55.888 130.123 55.686Z" fill="#2A2E33"/>
<path d="M132.452 52.0013C132.653 51.7992 132.653 51.4717 132.452 51.2696C132.25 51.0676 131.923 51.0676 131.722 51.2696C131.521 51.4717 131.521 51.7992 131.722 52.0013C131.923 52.2033 132.25 52.2033 132.452 52.0013Z" fill="#2A2E33"/>
<path d="M132.484 54.4452C132.686 54.2432 132.686 53.9156 132.484 53.7136C132.283 53.5115 131.956 53.5115 131.754 53.7136C131.553 53.9156 131.553 54.2432 131.754 54.4452C131.956 54.6473 132.283 54.6473 132.484 54.4452Z" fill="#394651"/>
<path d="M132.425 56.7976C132.627 56.5955 132.627 56.268 132.425 56.0659C132.224 55.8639 131.897 55.8639 131.696 56.0659C131.494 56.268 131.494 56.5955 131.696 56.7976C131.897 56.9996 132.224 56.9996 132.425 56.7976Z" fill="#2A2E33"/>
<path d="M106.798 54.1925C106.798 55.4858 105.895 56.5205 104.606 56.7792C104.477 56.7792 104.348 56.7792 104.219 56.7792C102.8 56.7792 101.639 55.6152 101.639 54.1925C101.639 52.7698 102.8 51.6057 104.219 51.6057C104.348 51.6057 104.477 51.6057 104.606 51.6057C105.766 51.8644 106.798 52.8991 106.798 54.1925Z" fill="#273850"/>
<path d="M106.798 54.1925C106.798 55.4858 105.895 56.5205 104.605 56.7792C103.315 56.5205 102.413 55.4858 102.413 54.1925C102.413 52.8991 103.315 51.8644 104.605 51.6057C105.766 51.8644 106.798 52.8991 106.798 54.1925Z" fill="#364151"/>
<path d="M142.269 74.8865H104.606V79.9307H142.269V74.8865Z" fill="#1D242E"/>
<path d="M142.14 77.6025H104.606V76.1798L142.14 72.1703V77.6025Z" fill="#252C36"/>
<path d="M98.9302 76.5679V74.8865H136.464V79.9307H98.9302V78.2493" fill="#262B31"/>
<path d="M136.593 75.7919H98.9302V77.4733H136.593V75.7919Z" fill="#364151"/>
<path d="M141.624 76.1798H99.0593C98.0274 76.1798 97.1245 75.2744 97.1245 74.2397V65.3154C97.1245 64.2807 98.0274 63.3754 99.0593 63.3754H141.624C142.656 63.3754 143.559 64.2807 143.559 65.3154V74.2397C143.559 75.2744 142.785 76.1798 141.624 76.1798Z" fill="#2E3746"/>
<path d="M102.671 63.3754H135.691C136.464 63.3754 137.109 64.0221 137.109 64.7981V74.7571C137.109 75.5331 136.464 76.1798 135.691 76.1798H98.5433C97.7694 76.1798 97.1245 75.5331 97.1245 74.7571V64.7981C97.1245 64.0221 97.7694 63.3754 98.5433 63.3754H99.4462" fill="#545D71"/>
<path d="M113.202 68.0353C113.403 67.8333 113.403 67.5057 113.202 67.3037C113 67.1016 112.674 67.1016 112.472 67.3037C112.271 67.5057 112.271 67.8333 112.472 68.0353C112.674 68.2374 113 68.2374 113.202 68.0353Z" fill="#2A2E33"/>
<path d="M113.234 70.4792C113.436 70.2772 113.436 69.9496 113.234 69.7476C113.033 69.5455 112.706 69.5455 112.505 69.7476C112.303 69.9496 112.303 70.2772 112.505 70.4792C112.706 70.6813 113.033 70.6813 113.234 70.4792Z" fill="#2A2E33"/>
<path d="M113.267 72.9231C113.468 72.7211 113.468 72.3935 113.267 72.1915C113.065 71.9894 112.739 71.9894 112.537 72.1915C112.336 72.3935 112.336 72.7211 112.537 72.9231C112.739 73.1252 113.065 73.1252 113.267 72.9231Z" fill="#2A2E33"/>
<path d="M115.624 69.3025C115.825 69.1004 115.825 68.7729 115.624 68.5708C115.422 68.3688 115.096 68.3688 114.894 68.5708C114.693 68.7729 114.693 69.1004 114.894 69.3025C115.096 69.5045 115.422 69.5045 115.624 69.3025Z" fill="#394651"/>
<path d="M115.656 71.7464C115.858 71.5444 115.858 71.2168 115.656 71.0148C115.455 70.8128 115.128 70.8128 114.927 71.0148C114.725 71.2168 114.725 71.5444 114.927 71.7464C115.128 71.9485 115.455 71.9485 115.656 71.7464Z" fill="#2A2E33"/>
<path d="M117.985 68.0617C118.187 67.8597 118.187 67.5321 117.985 67.33C117.784 67.128 117.457 67.128 117.255 67.33C117.054 67.5321 117.054 67.8596 117.255 68.0617C117.457 68.2637 117.784 68.2637 117.985 68.0617Z" fill="#2A2E33"/>
<path d="M118.018 70.5057C118.219 70.3036 118.219 69.9761 118.018 69.774C117.816 69.572 117.49 69.572 117.288 69.774C117.087 69.9761 117.087 70.3036 117.288 70.5057C117.49 70.7077 117.816 70.7077 118.018 70.5057Z" fill="#2A2E33"/>
<path d="M117.633 73.0758C117.918 73.0758 118.149 72.8441 118.149 72.5584C118.149 72.2727 117.918 72.0411 117.633 72.0411C117.348 72.0411 117.117 72.2727 117.117 72.5584C117.117 72.8441 117.348 73.0758 117.633 73.0758Z" fill="url(#paint11_linear)"/>
<path d="M120.407 69.3291C120.608 69.1271 120.608 68.7995 120.407 68.5975C120.205 68.3955 119.879 68.3955 119.677 68.5975C119.476 68.7995 119.476 69.1271 119.677 69.3291C119.879 69.5312 120.205 69.5312 120.407 69.3291Z" fill="#394651"/>
<path d="M120.439 71.7729C120.641 71.5709 120.641 71.2433 120.439 71.0413C120.238 70.8392 119.911 70.8392 119.71 71.0413C119.508 71.2433 119.508 71.5709 119.71 71.7729C119.911 71.975 120.238 71.975 120.439 71.7729Z" fill="#2A2E33"/>
<path d="M122.86 67.9966C123.061 67.7946 123.061 67.467 122.86 67.265C122.658 67.0629 122.331 67.0629 122.13 67.265C121.928 67.467 121.928 67.7946 122.13 67.9966C122.331 68.1987 122.658 68.1987 122.86 67.9966Z" fill="#394651"/>
<path d="M122.892 70.4406C123.094 70.2386 123.094 69.911 122.892 69.7089C122.691 69.5069 122.364 69.5069 122.162 69.7089C121.961 69.911 121.961 70.2386 122.162 70.4406C122.364 70.6426 122.691 70.6426 122.892 70.4406Z" fill="#2A2E33"/>
<path d="M122.925 72.8846C123.126 72.6825 123.126 72.3549 122.925 72.1529C122.723 71.9509 122.396 71.9509 122.195 72.1529C121.993 72.355 121.993 72.6825 122.195 72.8846C122.396 73.0866 122.723 73.0866 122.925 72.8846Z" fill="#2A2E33"/>
<path d="M125.19 69.3555C125.392 69.1535 125.392 68.8259 125.19 68.6239C124.989 68.4218 124.662 68.4218 124.461 68.6239C124.259 68.8259 124.259 69.1535 124.461 69.3555C124.662 69.5575 124.989 69.5575 125.19 69.3555Z" fill="#2A2E33"/>
<path d="M125.223 71.7994C125.424 71.5973 125.424 71.2698 125.223 71.0677C125.021 70.8657 124.695 70.8657 124.493 71.0677C124.292 71.2697 124.292 71.5973 124.493 71.7994C124.695 72.0014 125.021 72.0014 125.223 71.7994Z" fill="#2A2E33"/>
<path d="M127.643 68.0232C127.844 67.8211 127.844 67.4936 127.643 67.2915C127.442 67.0895 127.115 67.0895 126.913 67.2915C126.712 67.4936 126.712 67.8211 126.913 68.0232C127.115 68.2252 127.442 68.2252 127.643 68.0232Z" fill="#2A2E33"/>
<path d="M127.675 70.467C127.877 70.265 127.877 69.9374 127.675 69.7354C127.474 69.5333 127.147 69.5333 126.946 69.7354C126.744 69.9374 126.744 70.265 126.946 70.467C127.147 70.6691 127.474 70.6691 127.675 70.467Z" fill="#394651"/>
<path d="M127.708 72.9111C127.909 72.709 127.909 72.3814 127.708 72.1794C127.506 71.9774 127.18 71.9774 126.978 72.1794C126.777 72.3814 126.777 72.709 126.978 72.911C127.18 73.1131 127.506 73.1131 127.708 72.9111Z" fill="#2A2E33"/>
<path d="M130.064 69.2904C130.266 69.0884 130.266 68.7608 130.064 68.5588C129.863 68.3568 129.536 68.3568 129.335 68.5588C129.133 68.7608 129.133 69.0884 129.335 69.2904C129.536 69.4925 129.863 69.4925 130.064 69.2904Z" fill="#2A2E33"/>
<path d="M130.097 71.7344C130.299 71.5324 130.299 71.2048 130.097 71.0028C129.896 70.8007 129.569 70.8007 129.367 71.0028C129.166 71.2048 129.166 71.5324 129.367 71.7344C129.569 71.9365 129.896 71.9365 130.097 71.7344Z" fill="#2A2E33"/>
<path d="M132.426 68.0497C132.627 67.8476 132.627 67.52 132.426 67.318C132.224 67.116 131.898 67.116 131.696 67.318C131.495 67.5201 131.495 67.8476 131.696 68.0497C131.898 68.2517 132.224 68.2517 132.426 68.0497Z" fill="#2A2E33"/>
<path d="M132.459 70.4935C132.66 70.2915 132.66 69.9639 132.459 69.7619C132.257 69.5598 131.931 69.5598 131.729 69.7619C131.528 69.9639 131.528 70.2915 131.729 70.4935C131.931 70.6955 132.257 70.6955 132.459 70.4935Z" fill="#394651"/>
<path d="M132.491 72.9375C132.692 72.7354 132.692 72.4079 132.491 72.2058C132.289 72.0038 131.963 72.0038 131.761 72.2058C131.56 72.4079 131.56 72.7354 131.761 72.9375C131.963 73.1395 132.289 73.1395 132.491 72.9375Z" fill="#2A2E33"/>
<path d="M106.798 70.3598C106.798 71.6531 105.895 72.6878 104.606 72.9465C104.477 72.9465 104.348 72.9465 104.219 72.9465C102.8 72.9465 101.639 71.7825 101.639 70.3598C101.639 68.937 102.8 67.773 104.219 67.773C104.348 67.773 104.477 67.773 104.606 67.773C105.766 67.9023 106.798 69.0664 106.798 70.3598Z" fill="#273850"/>
<path d="M142.269 91.183H104.606V96.2272H142.269V91.183Z" fill="#1D242E"/>
<path d="M142.14 93.7698H104.606V92.4765L142.14 92.0884V93.7698Z" fill="#252C36"/>
<path d="M98.9302 92.8644V91.183H136.464V96.2272H98.9302V94.4164" fill="#262B31"/>
<path d="M136.593 91.8297H98.9302V93.7698H136.593V91.8297Z" fill="#364151"/>
<path d="M141.624 92.3471H99.0593C98.0274 92.3471 97.1245 91.4417 97.1245 90.407V81.4827C97.1245 80.448 98.0274 79.5427 99.0593 79.5427H141.624C142.656 79.5427 143.559 80.448 143.559 81.4827V90.407C143.559 91.4417 142.785 92.3471 141.624 92.3471Z" fill="#2E3746"/>
<path d="M102.671 79.6719H135.691C136.464 79.6719 137.109 80.3186 137.109 81.0946V91.0536C137.109 91.8296 136.464 92.4763 135.691 92.4763H98.5433C97.7694 92.4763 97.1245 91.8296 97.1245 91.0536V81.0946C97.1245 80.3186 97.7694 79.6719 98.5433 79.6719H99.4462" fill="#545D71"/>
<path d="M113.254 84.3099C113.456 84.1079 113.456 83.7803 113.254 83.5783C113.053 83.3762 112.726 83.3762 112.525 83.5783C112.323 83.7803 112.323 84.1079 112.525 84.3099C112.726 84.512 113.053 84.512 113.254 84.3099Z" fill="#2A2E33"/>
<path d="M113.196 86.6623C113.397 86.4602 113.397 86.1327 113.196 85.9306C112.994 85.7286 112.667 85.7286 112.466 85.9306C112.264 86.1327 112.264 86.4602 112.466 86.6623C112.667 86.8643 112.994 86.8643 113.196 86.6623Z" fill="#2A2E33"/>
<path d="M112.86 89.2429C113.145 89.2429 113.376 89.0113 113.376 88.7255C113.376 88.4398 113.145 88.2082 112.86 88.2082C112.575 88.2082 112.344 88.4398 112.344 88.7255C112.344 89.0113 112.575 89.2429 112.86 89.2429Z" fill="url(#paint12_linear)"/>
<path d="M115.676 85.5772C115.877 85.3751 115.877 85.0476 115.676 84.8455C115.474 84.6435 115.148 84.6435 114.946 84.8455C114.745 85.0476 114.745 85.3751 114.946 85.5772C115.148 85.7792 115.474 85.7792 115.676 85.5772Z" fill="#2A2E33"/>
<path d="M115.708 88.0212C115.91 87.8192 115.91 87.4916 115.708 87.2896C115.507 87.0875 115.18 87.0875 114.979 87.2896C114.777 87.4916 114.777 87.8192 114.979 88.0212C115.18 88.2233 115.507 88.2233 115.708 88.0212Z" fill="#405872"/>
<path d="M118.037 84.3364C118.239 84.1344 118.239 83.8068 118.037 83.6048C117.836 83.4027 117.509 83.4027 117.308 83.6048C117.106 83.8068 117.106 84.1344 117.308 84.3364C117.509 84.5384 117.836 84.5384 118.037 84.3364Z" fill="#2A2E33"/>
<path d="M117.979 86.6887C118.18 86.4867 118.18 86.1591 117.979 85.9571C117.777 85.755 117.451 85.755 117.249 85.9571C117.048 86.1591 117.048 86.4867 117.249 86.6887C117.451 86.8907 117.777 86.8907 117.979 86.6887Z" fill="#394651"/>
<path d="M118.011 89.1327C118.212 88.9307 118.212 88.6031 118.011 88.4011C117.809 88.199 117.483 88.199 117.281 88.4011C117.08 88.6031 117.08 88.9307 117.281 89.1327C117.483 89.3348 117.809 89.3348 118.011 89.1327Z" fill="#2A2E33"/>
<path d="M120.459 85.6036C120.661 85.4015 120.661 85.0739 120.459 84.8719C120.258 84.6699 119.931 84.6699 119.73 84.8719C119.528 85.0739 119.528 85.4015 119.73 85.6036C119.931 85.8056 120.258 85.8056 120.459 85.6036Z" fill="#2A2E33"/>
<path d="M120.492 88.0475C120.693 87.8455 120.693 87.5179 120.492 87.3159C120.29 87.1138 119.964 87.1138 119.762 87.3159C119.561 87.5179 119.561 87.8455 119.762 88.0475C119.964 88.2496 120.29 88.2496 120.492 88.0475Z" fill="#2A2E33"/>
<path d="M122.912 84.2713C123.114 84.0692 123.114 83.7417 122.912 83.5396C122.711 83.3376 122.384 83.3376 122.182 83.5396C121.981 83.7417 121.981 84.0692 122.182 84.2713C122.384 84.4733 122.711 84.4733 122.912 84.2713Z" fill="#2A2E33"/>
<path d="M122.853 86.6239C123.055 86.4218 123.055 86.0943 122.853 85.8922C122.652 85.6902 122.325 85.6902 122.124 85.8922C121.922 86.0943 121.922 86.4218 122.124 86.6239C122.325 86.8259 122.652 86.8259 122.853 86.6239Z" fill="#2A2E33"/>
<path d="M122.885 89.0677C123.087 88.8656 123.087 88.5381 122.885 88.336C122.684 88.134 122.357 88.134 122.156 88.336C121.954 88.5381 121.954 88.8656 122.156 89.0677C122.357 89.2697 122.684 89.2697 122.885 89.0677Z" fill="#2A2E33"/>
<path d="M125.242 85.6301C125.444 85.4281 125.444 85.1005 125.242 84.8985C125.041 84.6964 124.714 84.6964 124.513 84.8985C124.311 85.1005 124.311 85.4281 124.513 85.6301C124.714 85.8321 125.041 85.8321 125.242 85.6301Z" fill="#2A2E33"/>
<path d="M125.275 88.074C125.476 87.872 125.476 87.5444 125.275 87.3424C125.073 87.1403 124.747 87.1403 124.545 87.3424C124.344 87.5444 124.344 87.872 124.545 88.074C124.747 88.2761 125.073 88.276 125.275 88.074Z" fill="#2A2E33"/>
<path d="M127.307 84.4567C127.592 84.4567 127.823 84.2251 127.823 83.9393C127.823 83.6536 127.592 83.422 127.307 83.422C127.022 83.422 126.791 83.6536 126.791 83.9393C126.791 84.2251 127.022 84.4567 127.307 84.4567Z" fill="url(#paint13_linear)"/>
<path d="M127.636 86.6502C127.838 86.4481 127.838 86.1206 127.636 85.9185C127.435 85.7165 127.108 85.7165 126.907 85.9185C126.705 86.1206 126.705 86.4481 126.907 86.6502C127.108 86.8522 127.435 86.8522 127.636 86.6502Z" fill="#394651"/>
<path d="M127.669 89.0941C127.87 88.8921 127.87 88.5645 127.669 88.3625C127.467 88.1604 127.141 88.1604 126.939 88.3625C126.738 88.5645 126.738 88.8921 126.939 89.0941C127.141 89.2961 127.467 89.2961 127.669 89.0941Z" fill="#2A2E33"/>
<path d="M130.117 85.565C130.318 85.363 130.318 85.0354 130.117 84.8334C129.915 84.6314 129.589 84.6314 129.387 84.8334C129.186 85.0354 129.186 85.363 129.387 85.565C129.589 85.7671 129.915 85.7671 130.117 85.565Z" fill="#2A2E33"/>
<path d="M130.15 88.0089C130.351 87.8069 130.351 87.4793 130.15 87.2773C129.948 87.0753 129.621 87.0753 129.42 87.2773C129.219 87.4793 129.219 87.8069 129.42 88.0089C129.621 88.211 129.948 88.211 130.15 88.0089Z" fill="#2A2E33"/>
<path d="M132.478 84.3242C132.68 84.1222 132.68 83.7946 132.478 83.5925C132.277 83.3905 131.95 83.3905 131.749 83.5925C131.547 83.7946 131.547 84.1222 131.749 84.3242C131.95 84.5262 132.277 84.5262 132.478 84.3242Z" fill="#2A2E33"/>
<path d="M132.42 86.6766C132.621 86.4746 132.621 86.147 132.42 85.945C132.218 85.7429 131.892 85.7429 131.69 85.945C131.489 86.147 131.489 86.4746 131.69 86.6766C131.892 86.8786 132.218 86.8786 132.42 86.6766Z" fill="#2A2E33"/>
<path d="M132.452 89.1206C132.653 88.9185 132.653 88.591 132.452 88.3889C132.25 88.1869 131.924 88.1869 131.722 88.3889C131.521 88.591 131.521 88.9185 131.722 89.1206C131.924 89.3226 132.25 89.3226 132.452 89.1206Z" fill="#2A2E33"/>
<path d="M106.798 86.5269C106.798 87.8203 105.895 88.855 104.606 89.1136C104.477 89.1136 104.348 89.1136 104.219 89.1136C102.8 89.1136 101.639 87.9496 101.639 86.5269C101.639 85.1042 102.8 83.9401 104.219 83.9401C104.348 83.9401 104.477 83.9401 104.606 83.9401C105.766 84.1988 106.798 85.2335 106.798 86.5269Z" fill="#273850"/>
<path d="M142.269 107.35H104.606V112.394H142.269V107.35Z" fill="#1D242E"/>
<path d="M142.14 109.937H104.606V108.644L142.14 104.634V109.937Z" fill="#252C36"/>
<path d="M98.9302 109.032V107.35H136.464V112.394H98.9302V110.713" fill="#262B31"/>
<path d="M136.593 107.35H98.9302V109.937H136.593V107.35Z" fill="#364151"/>
<path d="M141.624 108.514H99.0593C98.0274 108.514 97.1245 107.609 97.1245 106.574V97.6499C97.1245 96.6152 98.0274 95.7098 99.0593 95.7098H141.624C142.656 95.7098 143.559 96.6152 143.559 97.6499V106.574C143.559 107.738 142.785 108.514 141.624 108.514Z" fill="#2E3746"/>
<path d="M102.671 95.8392H135.691C136.464 95.8392 137.109 96.4859 137.109 97.2619V107.221C137.109 107.997 136.464 108.644 135.691 108.644H98.5433C97.7694 108.644 97.1245 107.997 97.1245 107.221V97.2619C97.1245 96.4859 97.7694 95.8392 98.5433 95.8392H99.4462" fill="#545D71"/>
<path d="M113.215 100.493C113.417 100.291 113.417 99.9635 113.215 99.7615C113.014 99.5595 112.687 99.5595 112.485 99.7615C112.284 99.9635 112.284 100.291 112.485 100.493C112.687 100.695 113.014 100.695 113.215 100.493Z" fill="#2A2E33"/>
<path d="M113.248 102.937C113.449 102.735 113.449 102.408 113.248 102.205C113.046 102.003 112.72 102.003 112.518 102.205C112.317 102.408 112.317 102.735 112.518 102.937C112.72 103.139 113.046 103.139 113.248 102.937Z" fill="#2A2E33"/>
<path d="M113.189 105.29C113.39 105.088 113.39 104.76 113.189 104.558C112.987 104.356 112.661 104.356 112.459 104.558C112.258 104.76 112.258 105.088 112.459 105.29C112.661 105.492 112.987 105.492 113.189 105.29Z" fill="#394651"/>
<path d="M115.311 101.918C115.596 101.918 115.827 101.686 115.827 101.401C115.827 101.115 115.596 100.883 115.311 100.883C115.026 100.883 114.795 101.115 114.795 101.401C114.795 101.686 115.026 101.918 115.311 101.918Z" fill="url(#paint14_linear)"/>
<path d="M115.669 104.204C115.871 104.002 115.871 103.675 115.669 103.473C115.468 103.271 115.141 103.271 114.94 103.473C114.738 103.675 114.738 104.002 114.94 104.204C115.141 104.406 115.468 104.406 115.669 104.204Z" fill="#2A2E33"/>
<path d="M117.998 100.52C118.2 100.318 118.2 99.99 117.998 99.7879C117.797 99.5859 117.47 99.5859 117.269 99.7879C117.067 99.99 117.067 100.318 117.269 100.52C117.47 100.722 117.797 100.722 117.998 100.52Z" fill="#2A2E33"/>
<path d="M118.031 102.963C118.232 102.761 118.232 102.434 118.031 102.232C117.829 102.03 117.503 102.03 117.301 102.232C117.1 102.434 117.1 102.761 117.301 102.963C117.503 103.166 117.829 103.166 118.031 102.963Z" fill="#394651"/>
<path d="M117.972 105.316C118.174 105.114 118.174 104.786 117.972 104.584C117.771 104.382 117.444 104.382 117.243 104.584C117.041 104.786 117.041 105.114 117.243 105.316C117.444 105.518 117.771 105.518 117.972 105.316Z" fill="#394651"/>
<path d="M120.42 101.787C120.622 101.585 120.622 101.257 120.42 101.055C120.219 100.853 119.892 100.853 119.69 101.055C119.489 101.257 119.489 101.585 119.69 101.787C119.892 101.989 120.219 101.989 120.42 101.787Z" fill="#394651"/>
<path d="M120.453 104.231C120.654 104.029 120.654 103.701 120.453 103.499C120.251 103.297 119.924 103.297 119.723 103.499C119.521 103.701 119.521 104.029 119.723 104.231C119.924 104.433 120.251 104.433 120.453 104.231Z" fill="#2A2E33"/>
<path d="M122.873 100.454C123.074 100.252 123.074 99.9248 122.873 99.7228C122.671 99.5208 122.345 99.5208 122.143 99.7228C121.942 99.9248 121.942 100.252 122.143 100.454C122.345 100.656 122.671 100.656 122.873 100.454Z" fill="#394651"/>
<path d="M122.905 102.898C123.107 102.696 123.107 102.369 122.905 102.167C122.704 101.965 122.377 101.965 122.176 102.167C121.974 102.369 121.974 102.696 122.176 102.898C122.377 103.1 122.704 103.1 122.905 102.898Z" fill="#2A2E33"/>
<path d="M122.847 105.251C123.048 105.049 123.048 104.721 122.847 104.519C122.645 104.317 122.318 104.317 122.117 104.519C121.916 104.721 121.916 105.049 122.117 105.251C122.318 105.453 122.645 105.453 122.847 105.251Z" fill="#2A2E33"/>
<path d="M125.204 101.813C125.405 101.611 125.405 101.284 125.204 101.082C125.002 100.88 124.675 100.88 124.474 101.082C124.272 101.284 124.272 101.611 124.474 101.813C124.675 102.015 125.002 102.015 125.204 101.813Z" fill="#2A2E33"/>
<path d="M125.236 104.257C125.438 104.055 125.438 103.728 125.236 103.526C125.035 103.324 124.708 103.323 124.507 103.526C124.305 103.728 124.305 104.055 124.507 104.257C124.708 104.459 125.035 104.459 125.236 104.257Z" fill="#394651"/>
<path d="M127.656 100.481C127.858 100.279 127.858 99.9513 127.656 99.7493C127.455 99.5473 127.128 99.5473 126.927 99.7493C126.725 99.9513 126.725 100.279 126.927 100.481C127.128 100.683 127.455 100.683 127.656 100.481Z" fill="#2A2E33"/>
<path d="M127.689 102.925C127.89 102.723 127.89 102.395 127.689 102.193C127.487 101.991 127.161 101.991 126.959 102.193C126.758 102.395 126.758 102.723 126.959 102.925C127.161 103.127 127.487 103.127 127.689 102.925Z" fill="#2A2E33"/>
<path d="M127.307 105.41C127.592 105.41 127.823 105.179 127.823 104.893C127.823 104.607 127.592 104.375 127.307 104.375C127.022 104.375 126.791 104.607 126.791 104.893C126.791 105.179 127.022 105.41 127.307 105.41Z" fill="url(#paint15_linear)"/>
<path d="M130.078 101.748C130.279 101.546 130.279 101.219 130.078 101.016C129.876 100.814 129.55 100.814 129.348 101.016C129.147 101.219 129.147 101.546 129.348 101.748C129.55 101.95 129.876 101.95 130.078 101.748Z" fill="#394651"/>
<path d="M130.11 104.192C130.312 103.99 130.312 103.663 130.11 103.46C129.909 103.258 129.582 103.258 129.381 103.46C129.179 103.663 129.179 103.99 129.381 104.192C129.582 104.394 129.909 104.394 130.11 104.192Z" fill="#2A2E33"/>
<path d="M132.439 100.507C132.641 100.305 132.641 99.9778 132.439 99.7758C132.238 99.5737 131.911 99.5737 131.71 99.7758C131.508 99.9778 131.508 100.305 131.71 100.507C131.911 100.709 132.238 100.709 132.439 100.507Z" fill="#2A2E33"/>
<path d="M132.472 102.951C132.674 102.749 132.674 102.422 132.472 102.22C132.271 102.018 131.944 102.018 131.742 102.22C131.541 102.422 131.541 102.749 131.742 102.951C131.944 103.153 132.271 103.153 132.472 102.951Z" fill="#394651"/>
<path d="M132.413 105.304C132.615 105.102 132.615 104.774 132.413 104.572C132.212 104.37 131.885 104.37 131.684 104.572C131.482 104.774 131.482 105.102 131.684 105.304C131.885 105.506 132.212 105.506 132.413 105.304Z" fill="#2A2E33"/>
<path d="M106.798 102.823C106.798 104.117 105.895 105.152 104.606 105.41C104.477 105.41 104.348 105.41 104.219 105.41C102.8 105.41 101.639 104.246 101.639 102.823C101.639 101.401 102.8 100.237 104.219 100.237C104.348 100.237 104.477 100.237 104.606 100.237C105.766 100.366 106.798 101.401 106.798 102.823Z" fill="#273850"/>
<path d="M106.798 70.3598C106.798 71.6531 105.895 72.6878 104.605 72.9465C103.315 72.6878 102.413 71.6531 102.413 70.3598C102.413 69.0664 103.315 68.0317 104.605 67.773C105.766 67.9023 106.798 69.0664 106.798 70.3598Z" fill="#364151"/>
<path d="M106.798 86.5269C106.798 87.8203 105.895 88.855 104.605 89.1136C103.315 88.855 102.413 87.8203 102.413 86.5269C102.413 85.2335 103.315 84.1988 104.605 83.9401C105.766 84.1988 106.798 85.2335 106.798 86.5269Z" fill="#364151"/>
<path d="M106.798 102.823C106.798 104.117 105.895 105.152 104.605 105.41C103.315 105.152 102.413 104.117 102.413 102.823C102.413 101.53 103.315 100.495 104.605 100.237C105.766 100.366 106.798 101.401 106.798 102.823Z" fill="#364151"/>
<path d="M54.1731 113.946C48.3689 114.076 41.2748 113.946 36.3734 113.817C31.4721 113.946 24.378 114.076 18.5737 113.946C24.378 110.713 26.3127 104.505 26.6997 100.495H46.0472C46.3051 104.505 48.3689 110.713 54.1731 113.946Z" fill="url(#paint16_linear)"/>
<path d="M72.8756 49.2777V99.8487C72.8756 101.013 71.9727 102.047 70.6829 102.047H2.19272C1.03187 102.047 0 101.142 0 99.8487V49.2777C0 48.1137 0.902883 47.079 2.19272 47.079H70.8119C71.9727 47.079 72.8756 48.1137 72.8756 49.2777Z" fill="#353B4A"/>
<path d="M72.8756 49.2777V92.8645H0V49.2777C0 48.1137 0.902883 47.079 2.19272 47.079H70.8119C71.9727 47.079 72.8756 48.1137 72.8756 49.2777Z" fill="#262A31"/>
<path d="M70.1669 49.795H2.45068V90.407H70.1669V49.795Z" fill="#474E61"/>
<path d="M36.2442 99.4607C37.2415 99.4607 38.05 98.65 38.05 97.65C38.05 96.6499 37.2415 95.8392 36.2442 95.8392C35.2469 95.8392 34.4385 96.6499 34.4385 97.65C34.4385 98.65 35.2469 99.4607 36.2442 99.4607Z" fill="#262A31"/>
<path d="M5.54634 84.1989H3.99854V85.7509H5.54634V84.1989Z" fill="#2A2E39"/>
<path d="M5.54634 81.2241H3.99854V82.7762H5.54634V81.2241Z" fill="#2A2E39"/>
<path d="M5.54634 78.12H3.99854V79.672H5.54634V78.12Z" fill="#2A2E39"/>
<path d="M5.54634 75.0159H3.99854V76.568H5.54634V75.0159Z" fill="url(#paint17_linear)"/>
<path d="M5.54634 72.0412H3.99854V73.5933H5.54634V72.0412Z" fill="#2A2E39"/>
<path d="M5.54634 68.937H3.99854V70.4891H5.54634V68.937Z" fill="#3E475F"/>
<path d="M8.64204 87.303H7.09424V88.8551H8.64204V87.303Z" fill="#2A2E39"/>
<path d="M8.64204 84.1989H7.09424V85.7509H8.64204V84.1989Z" fill="#2A2E39"/>
<path d="M8.64204 78.12H7.09424V79.672H8.64204V78.12Z" fill="#2A2E39"/>
<path d="M8.64204 75.0159H7.09424V76.568H8.64204V75.0159Z" fill="#2A2E39"/>
<path d="M8.64204 72.0412H7.09424V73.5933H8.64204V72.0412Z" fill="#2A2E39"/>
<path d="M8.64204 68.937H7.09424V70.4891H8.64204V68.937Z" fill="#2A2E39"/>
<path d="M8.64204 65.9623H7.09424V67.5143H8.64204V65.9623Z" fill="#2A2E39"/>
<path d="M8.64204 62.8582H7.09424V64.4103H8.64204V62.8582Z" fill="url(#paint18_linear)"/>
<path d="M11.8664 87.303H10.3186V88.8551H11.8664V87.303Z" fill="#2A2E39"/>
<path d="M11.8664 84.1989H10.3186V85.7509H11.8664V84.1989Z" fill="#2A2E39"/>
<path d="M11.8664 81.2241H10.3186V82.7762H11.8664V81.2241Z" fill="#2A2E39"/>
<path d="M11.8664 78.12H10.3186V79.672H11.8664V78.12Z" fill="#2A2E39"/>
<path d="M11.8664 75.0159H10.3186V76.568H11.8664V75.0159Z" fill="url(#paint19_linear)"/>
<path d="M11.8664 72.0412H10.3186V73.5933H11.8664V72.0412Z" fill="#3E475F"/>
<path d="M11.8664 68.937H10.3186V70.4891H11.8664V68.937Z" fill="#2A2E39"/>
<path d="M11.8664 65.9623H10.3186V67.5143H11.8664V65.9623Z" fill="#3E475F"/>
<path d="M11.8664 62.8582H10.3186V64.4103H11.8664V62.8582Z" fill="#2A2E39"/>
<path d="M11.8664 59.8834H10.3186V61.4355H11.8664V59.8834Z" fill="#3E475F"/>
<path d="M14.9621 87.303H13.4143V88.8551H14.9621V87.303Z" fill="#2A2E39"/>
<path d="M14.9621 84.1989H13.4143V85.7509H14.9621V84.1989Z" fill="#2A2E39"/>
<path d="M14.9621 81.2241H13.4143V82.7762H14.9621V81.2241Z" fill="#2A2E39"/>
<path d="M14.9621 78.12H13.4143V79.672H14.9621V78.12Z" fill="#2A2E39"/>
<path d="M14.9621 75.0159H13.4143V76.568H14.9621V75.0159Z" fill="#2A2E39"/>
<path d="M14.9621 72.0412H13.4143V73.5933H14.9621V72.0412Z" fill="#3E475F"/>
<path d="M14.9621 68.937H13.4143V70.4891H14.9621V68.937Z" fill="#2A2E39"/>
<path d="M14.9621 65.9623H13.4143V67.5143H14.9621V65.9623Z" fill="#2A2E39"/>
<path d="M18.1867 87.303H16.6389V88.8551H18.1867V87.303Z" fill="#2A2E39"/>
<path d="M18.1867 84.1989H16.6389V85.7509H18.1867V84.1989Z" fill="#2A2E39"/>
<path d="M18.1867 81.2241H16.6389V82.7762H18.1867V81.2241Z" fill="#2A2E39"/>
<path d="M18.1867 75.0159H16.6389V76.568H18.1867V75.0159Z" fill="#2A2E39"/>
<path d="M18.1867 72.0412H16.6389V73.5933H18.1867V72.0412Z" fill="url(#paint20_linear)"/>
<path d="M18.1867 68.937H16.6389V70.4891H18.1867V68.937Z" fill="#3E475F"/>
<path d="M21.2822 87.303H19.7344V88.8551H21.2822V87.303Z" fill="#2A2E39"/>
<path d="M21.2822 84.1989H19.7344V85.7509H21.2822V84.1989Z" fill="#2A2E39"/>
<path d="M21.2822 81.2241H19.7344V82.7762H21.2822V81.2241Z" fill="#2A2E39"/>
<path d="M21.2822 78.12H19.7344V79.672H21.2822V78.12Z" fill="#2A2E39"/>
<path d="M21.2822 75.0159H19.7344V76.568H21.2822V75.0159Z" fill="#2A2E39"/>
<path d="M21.2822 72.0412H19.7344V73.5933H21.2822V72.0412Z" fill="#2A2E39"/>
<path d="M21.2822 68.937H19.7344V70.4891H21.2822V68.937Z" fill="#3E475F"/>
<path d="M21.2822 65.9623H19.7344V67.5143H21.2822V65.9623Z" fill="#2A2E39"/>
<path d="M21.2822 62.8582H19.7344V64.4103H21.2822V62.8582Z" fill="#2A2E39"/>
<path d="M24.3779 87.303H22.8301V88.8551H24.3779V87.303Z" fill="#2A2E39"/>
<path d="M24.3779 84.1989H22.8301V85.7509H24.3779V84.1989Z" fill="#2A2E39"/>
<path d="M24.3779 81.2241H22.8301V82.7762H24.3779V81.2241Z" fill="#2A2E39"/>
<path d="M24.3779 75.0159H22.8301V76.568H24.3779V75.0159Z" fill="#2A2E39"/>
<path d="M24.3779 72.0412H22.8301V73.5933H24.3779V72.0412Z" fill="#3E475F"/>
<path d="M27.6025 87.303H26.0547V88.8551H27.6025V87.303Z" fill="url(#paint21_linear)"/>
<path d="M27.6025 84.1989H26.0547V85.7509H27.6025V84.1989Z" fill="#2A2E39"/>
<path d="M27.6025 81.2241H26.0547V82.7762H27.6025V81.2241Z" fill="#2A2E39"/>
<path d="M27.6025 78.12H26.0547V79.672H27.6025V78.12Z" fill="#3E475F"/>
<path d="M27.6025 75.0159H26.0547V76.568H27.6025V75.0159Z" fill="#2A2E39"/>
<path d="M27.6025 68.937H26.0547V70.4891H27.6025V68.937Z" fill="#2A2E39"/>
<path d="M27.6025 65.9623H26.0547V67.5143H27.6025V65.9623Z" fill="#3E475F"/>
<path d="M30.6982 87.303H29.1504V88.8551H30.6982V87.303Z" fill="#2A2E39"/>
<path d="M30.6982 84.1989H29.1504V85.7509H30.6982V84.1989Z" fill="#2A2E39"/>
<path d="M30.6982 81.2241H29.1504V82.7762H30.6982V81.2241Z" fill="url(#paint22_linear)"/>
<path d="M30.6982 78.12H29.1504V79.672H30.6982V78.12Z" fill="#2A2E39"/>
<path d="M30.6982 75.0159H29.1504V76.568H30.6982V75.0159Z" fill="#2A2E39"/>
<path d="M30.6982 72.0412H29.1504V73.5933H30.6982V72.0412Z" fill="#2A2E39"/>
<path d="M30.6982 68.937H29.1504V70.4891H30.6982V68.937Z" fill="#3E475F"/>
<path d="M30.6982 62.8582H29.1504V64.4103H30.6982V62.8582Z" fill="#2A2E39"/>
<path d="M30.6982 59.8834H29.1504V61.4355H30.6982V59.8834Z" fill="#3E475F"/>
<path d="M52.8833 84.1989H51.3354V85.7509H52.8833V84.1989Z" fill="#2A2E39"/>
<path d="M52.8833 78.12H51.3354V79.672H52.8833V78.12Z" fill="#2A2E39"/>
<path d="M52.8833 75.0159H51.3354V76.568H52.8833V75.0159Z" fill="#2A2E39"/>
<path d="M52.8833 72.0412H51.3354V73.5933H52.8833V72.0412Z" fill="#3E475F"/>
<path d="M52.8833 68.937H51.3354V70.4891H52.8833V68.937Z" fill="#2A2E39"/>
<path d="M52.8833 65.9623H51.3354V67.5143H52.8833V65.9623Z" fill="#2A2E39"/>
<path d="M55.9785 87.303H54.4307V88.8551H55.9785V87.303Z" fill="#2A2E39"/>
<path d="M55.9785 84.1989H54.4307V85.7509H55.9785V84.1989Z" fill="#2A2E39"/>
<path d="M55.9785 81.2241H54.4307V82.7762H55.9785V81.2241Z" fill="#2A2E39"/>
<path d="M55.9785 78.12H54.4307V79.672H55.9785V78.12Z" fill="#2A2E39"/>
<path d="M55.9785 75.0159H54.4307V76.568H55.9785V75.0159Z" fill="#2A2E39"/>
<path d="M55.9785 72.0412H54.4307V73.5933H55.9785V72.0412Z" fill="url(#paint23_linear)"/>
<path d="M55.9785 68.937H54.4307V70.4891H55.9785V68.937Z" fill="#3E475F"/>
<path d="M59.2033 87.303H57.6555V88.8551H59.2033V87.303Z" fill="#2A2E39"/>
<path d="M59.2033 84.1989H57.6555V85.7509H59.2033V84.1989Z" fill="#2A2E39"/>
<path d="M59.2033 81.2241H57.6555V82.7762H59.2033V81.2241Z" fill="#2A2E39"/>
<path d="M59.2033 78.12H57.6555V79.672H59.2033V78.12Z" fill="#2A2E39"/>
<path d="M59.2033 75.0159H57.6555V76.568H59.2033V75.0159Z" fill="#2A2E39"/>
<path d="M59.2033 72.0412H57.6555V73.5933H59.2033V72.0412Z" fill="#2A2E39"/>
<path d="M59.2033 68.937H57.6555V70.4891H59.2033V68.937Z" fill="#3E475F"/>
<path d="M59.2033 65.9623H57.6555V67.5143H59.2033V65.9623Z" fill="#2A2E39"/>
<path d="M59.2033 62.8582H57.6555V64.4103H59.2033V62.8582Z" fill="#2A2E39"/>
<path d="M62.2988 87.303H60.751V88.8551H62.2988V87.303Z" fill="#2A2E39"/>
<path d="M62.2988 84.1989H60.751V85.7509H62.2988V84.1989Z" fill="#2A2E39"/>
<path d="M62.2988 81.2241H60.751V82.7762H62.2988V81.2241Z" fill="#2A2E39"/>
<path d="M62.2988 78.12H60.751V79.672H62.2988V78.12Z" fill="#2A2E39"/>
<path d="M62.2988 75.0159H60.751V76.568H62.2988V75.0159Z" fill="#2A2E39"/>
<path d="M65.5234 87.303H63.9756V88.8551H65.5234V87.303Z" fill="url(#paint24_linear)"/>
<path d="M65.5234 84.1989H63.9756V85.7509H65.5234V84.1989Z" fill="#2A2E39"/>
<path d="M65.5234 81.2241H63.9756V82.7762H65.5234V81.2241Z" fill="#2A2E39"/>
<path d="M65.5234 78.12H63.9756V79.672H65.5234V78.12Z" fill="#3E475F"/>
<path d="M65.5234 75.0159H63.9756V76.568H65.5234V75.0159Z" fill="#2A2E39"/>
<path d="M65.5234 72.0412H63.9756V73.5933H65.5234V72.0412Z" fill="url(#paint25_linear)"/>
<path d="M65.5234 68.937H63.9756V70.4891H65.5234V68.937Z" fill="#2A2E39"/>
<path d="M65.5234 65.9623H63.9756V67.5143H65.5234V65.9623Z" fill="#3E475F"/>
<path d="M68.6191 87.303H67.0713V88.8551H68.6191V87.303Z" fill="#2A2E39"/>
<path d="M68.6191 84.1989H67.0713V85.7509H68.6191V84.1989Z" fill="#2A2E39"/>
<path d="M68.6191 81.2241H67.0713V82.7762H68.6191V81.2241Z" fill="url(#paint26_linear)"/>
<path d="M68.6191 78.12H67.0713V79.672H68.6191V78.12Z" fill="#2A2E39"/>
<path d="M68.6191 75.0159H67.0713V76.568H68.6191V75.0159Z" fill="#2A2E39"/>
<path d="M68.6191 72.0412H67.0713V73.5933H68.6191V72.0412Z" fill="#2A2E39"/>
<path d="M68.6191 68.937H67.0713V70.4891H68.6191V68.937Z" fill="#3E475F"/>
<path d="M68.6191 62.8582H67.0713V64.4103H68.6191V62.8582Z" fill="#2A2E39"/>
<path d="M68.6191 59.8834H67.0713V61.4355H68.6191V59.8834Z" fill="#3E475F"/>
<path d="M33.9228 87.303H32.375V88.8551H33.9228V87.303Z" fill="#2A2E39"/>
<path d="M33.9228 84.1989H32.375V85.7509H33.9228V84.1989Z" fill="#2A2E39"/>
<path d="M33.9228 81.2241H32.375V82.7762H33.9228V81.2241Z" fill="#2A2E39"/>
<path d="M33.9228 75.0159H32.375V76.568H33.9228V75.0159Z" fill="#3E475F"/>
<path d="M33.9228 68.937H32.375V70.4891H33.9228V68.937Z" fill="#2A2E39"/>
<path d="M33.9228 65.9623H32.375V67.5143H33.9228V65.9623Z" fill="#3E475F"/>
<path d="M33.9228 62.8582H32.375V64.4103H33.9228V62.8582Z" fill="#2A2E39"/>
<path d="M33.9228 59.8834H32.375V61.4355H33.9228V59.8834Z" fill="#3E475F"/>
<path d="M37.0185 84.1989H35.4707V85.7509H37.0185V84.1989Z" fill="#2A2E39"/>
<path d="M37.0185 81.2241H35.4707V82.7762H37.0185V81.2241Z" fill="#3E475F"/>
<path d="M37.0185 78.12H35.4707V79.672H37.0185V78.12Z" fill="#2A2E39"/>
<path d="M37.0185 75.0159H35.4707V76.568H37.0185V75.0159Z" fill="#2A2E39"/>
<path d="M37.0185 72.0412H35.4707V73.5933H37.0185V72.0412Z" fill="url(#paint27_linear)"/>
<path d="M37.0185 68.937H35.4707V70.4891H37.0185V68.937Z" fill="#2A2E39"/>
<path d="M37.0185 65.9623H35.4707V67.5143H37.0185V65.9623Z" fill="#2A2E39"/>
<path d="M40.2426 87.303H38.6948V88.8551H40.2426V87.303Z" fill="#2A2E39"/>
<path d="M40.2426 81.2241H38.6948V82.7762H40.2426V81.2241Z" fill="#2A2E39"/>
<path d="M40.2426 78.12H38.6948V79.672H40.2426V78.12Z" fill="url(#paint28_linear)"/>
<path d="M40.2426 75.0159H38.6948V76.568H40.2426V75.0159Z" fill="#2A2E39"/>
<path d="M40.2426 72.0412H38.6948V73.5933H40.2426V72.0412Z" fill="#3E475F"/>
<path d="M40.2426 68.937H38.6948V70.4891H40.2426V68.937Z" fill="url(#paint29_linear)"/>
<path d="M43.3383 87.303H41.7905V88.8551H43.3383V87.303Z" fill="#2A2E39"/>
<path d="M43.3383 78.12H41.7905V79.672H43.3383V78.12Z" fill="#3E475F"/>
<path d="M43.3383 75.0159H41.7905V76.568H43.3383V75.0159Z" fill="#2A2E39"/>
<path d="M43.3383 72.0412H41.7905V73.5933H43.3383V72.0412Z" fill="#2A2E39"/>
<path d="M46.5629 87.303H45.0151V88.8551H46.5629V87.303Z" fill="#2A2E39"/>
<path d="M46.5629 84.1989H45.0151V85.7509H46.5629V84.1989Z" fill="#2A2E39"/>
<path d="M46.5629 81.2241H45.0151V82.7762H46.5629V81.2241Z" fill="#2A2E39"/>
<path d="M46.5629 78.12H45.0151V79.672H46.5629V78.12Z" fill="#2A2E39"/>
<path d="M46.5629 75.0159H45.0151V76.568H46.5629V75.0159Z" fill="#3E475F"/>
<path d="M46.5629 72.0412H45.0151V73.5933H46.5629V72.0412Z" fill="#2A2E39"/>
<path d="M46.5629 68.937H45.0151V70.4891H46.5629V68.937Z" fill="url(#paint30_linear)"/>
<path d="M46.5629 65.9623H45.0151V67.5143H46.5629V65.9623Z" fill="#2A2E39"/>
<path d="M49.6586 87.303H48.1108V88.8551H49.6586V87.303Z" fill="#2A2E39"/>
<path d="M49.6586 81.2241H48.1108V82.7762H49.6586V81.2241Z" fill="#2A2E39"/>
<path d="M49.6586 78.12H48.1108V79.672H49.6586V78.12Z" fill="#3E475F"/>
<path d="M36.5023 57.9432C36.1154 57.9432 35.8574 57.6845 35.8574 57.2965V56.0031C35.8574 55.6151 36.1154 55.3564 36.5023 55.3564C36.8893 55.3564 37.1473 55.6151 37.1473 56.0031V57.2965C37.1473 57.6845 36.7603 57.9432 36.5023 57.9432Z" fill="#718CFF"/>
<path d="M36.5023 52.8991C36.1154 52.8991 35.8574 52.6404 35.8574 52.2524V49.6656C35.8574 49.2776 36.1154 49.0189 36.5023 49.0189C36.8893 49.0189 37.1473 49.2776 37.1473 49.6656V52.2524C37.1473 52.6404 36.7603 52.8991 36.5023 52.8991ZM122.663 51.4764C122.276 51.4764 122.018 51.2177 122.018 50.8297V48.2429C122.018 47.8549 122.276 47.5962 122.663 47.5962C123.05 47.5962 123.308 47.8549 123.308 48.2429V50.8297C123.308 51.0883 123.05 51.4764 122.663 51.4764ZM36.5023 46.5615C36.1154 46.5615 35.8574 46.3029 35.8574 45.9148V43.3281C35.8574 42.9401 36.1154 42.6814 36.5023 42.6814C36.8893 42.6814 37.1473 42.9401 37.1473 43.3281V45.9148C37.1473 46.3029 36.7603 46.5615 36.5023 46.5615ZM122.663 45.1388C122.276 45.1388 122.018 44.8801 122.018 44.4921V41.9054C122.018 41.5174 122.276 41.2587 122.663 41.2587C123.05 41.2587 123.308 41.5174 123.308 41.9054V44.4921C123.308 44.7508 123.05 45.1388 122.663 45.1388ZM36.5023 40.224C36.1154 40.224 35.8574 39.9653 35.8574 39.5773V36.9905C35.8574 36.6025 36.1154 36.3439 36.5023 36.3439C36.8893 36.3439 37.1473 36.6025 37.1473 36.9905V39.5773C37.1473 39.9653 36.7603 40.224 36.5023 40.224ZM122.663 38.8013C122.276 38.8013 122.018 38.5426 122.018 38.1546V35.5678C122.018 35.1798 122.276 34.9211 122.663 34.9211C123.05 34.9211 123.308 35.1798 123.308 35.5678V38.1546C123.308 38.4133 123.05 38.8013 122.663 38.8013ZM36.5023 33.7571C36.1154 33.7571 35.8574 33.4984 35.8574 33.1104V32.9811C35.8574 32.0757 36.1154 31.1704 36.5023 30.3943C36.6313 30.1357 37.0183 30.0063 37.4052 30.1357C37.6632 30.265 37.7922 30.653 37.6632 31.041C37.4052 31.6877 37.1473 32.3344 37.1473 33.1104C37.1473 33.4984 36.7603 33.7571 36.5023 33.7571ZM122.534 32.4637C122.276 32.4637 122.018 32.3344 121.889 31.9464C121.76 31.1704 121.373 30.5237 120.857 30.0063C120.599 29.7476 120.599 29.3596 120.857 29.101C121.115 28.8423 121.502 28.8423 121.76 29.101C122.405 29.7476 122.792 30.653 123.05 31.5584C123.179 31.9464 122.921 32.2051 122.534 32.3344C122.663 32.4637 122.534 32.4637 122.534 32.4637ZM39.7269 28.8423C39.469 28.8423 39.211 28.7129 39.082 28.4543C38.953 28.0663 39.082 27.8076 39.469 27.5489C40.2429 27.2902 41.0168 27.0316 41.7907 27.0316H42.1776C42.5646 27.0316 42.8225 27.2902 42.8225 27.6782C42.8225 28.0663 42.5646 28.4543 42.1776 28.4543H41.7907C41.1457 28.4543 40.5008 28.5836 39.9849 28.8423C39.8559 28.8423 39.7269 28.8423 39.7269 28.8423ZM118.02 28.4543C117.762 28.4543 117.504 28.4543 117.375 28.4543H115.44C115.053 28.4543 114.795 28.1956 114.795 27.8076C114.795 27.4196 115.053 27.1609 115.44 27.1609H117.375C117.633 27.1609 117.891 27.1609 118.149 27.1609C118.536 27.1609 118.794 27.5489 118.665 27.9369C118.665 28.1956 118.407 28.4543 118.02 28.4543ZM111.7 28.4543H109.12C108.733 28.4543 108.475 28.1956 108.475 27.8076C108.475 27.4196 108.733 27.1609 109.12 27.1609H111.7C112.087 27.1609 112.345 27.4196 112.345 27.8076C112.345 28.1956 112.087 28.4543 111.7 28.4543ZM105.379 28.4543H102.8C102.413 28.4543 102.155 28.1956 102.155 27.8076C102.155 27.4196 102.413 27.1609 102.8 27.1609H105.379C105.766 27.1609 106.024 27.4196 106.024 27.8076C106.024 28.1956 105.766 28.4543 105.379 28.4543ZM99.0593 28.4543H96.4796C96.0926 28.4543 95.8347 28.1956 95.8347 27.8076C95.8347 27.4196 96.0926 27.1609 96.4796 27.1609H99.0593C99.4462 27.1609 99.7042 27.4196 99.7042 27.8076C99.7042 28.1956 99.4462 28.4543 99.0593 28.4543ZM92.7391 28.4543H90.1594C89.7725 28.4543 89.5145 28.1956 89.5145 27.8076C89.5145 27.4196 89.7725 27.1609 90.1594 27.1609H92.7391C93.126 27.1609 93.384 27.4196 93.384 27.8076C93.384 28.1956 93.126 28.4543 92.7391 28.4543ZM86.4189 28.4543H83.8392C83.4523 28.4543 83.1943 28.1956 83.1943 27.8076C83.1943 27.4196 83.5813 27.1609 83.8392 27.1609H86.4189C86.8058 27.1609 87.0638 27.4196 87.0638 27.8076C87.0638 28.1956 86.8058 28.4543 86.4189 28.4543ZM80.0987 28.4543H77.519C77.1321 28.4543 76.8741 28.1956 76.8741 27.8076C76.8741 27.4196 77.1321 27.1609 77.519 27.1609H80.0987C80.4857 27.1609 80.7436 27.4196 80.7436 27.8076C80.7436 28.1956 80.4857 28.4543 80.0987 28.4543ZM73.7785 28.4543H71.1989C70.8119 28.4543 70.5539 28.1956 70.5539 27.8076C70.5539 27.4196 70.9409 27.1609 71.1989 27.1609H73.7785C74.1655 27.1609 74.4234 27.4196 74.4234 27.8076C74.4234 28.1956 74.1655 28.4543 73.7785 28.4543ZM67.4583 28.4543H64.8787C64.4917 28.4543 64.2338 28.1956 64.2338 27.8076C64.2338 27.4196 64.4917 27.1609 64.8787 27.1609H67.4583C67.8453 27.1609 68.1033 27.4196 68.1033 27.8076C68.1033 28.1956 67.8453 28.4543 67.4583 28.4543ZM61.1382 28.4543H58.5585C58.1715 28.4543 57.9136 28.1956 57.9136 27.8076C57.9136 27.4196 58.1715 27.1609 58.5585 27.1609H61.1382C61.5251 27.1609 61.7831 27.4196 61.7831 27.8076C61.7831 28.1956 61.5251 28.4543 61.1382 28.4543ZM54.818 28.4543H52.2383C51.8514 28.4543 51.5934 28.1956 51.5934 27.8076C51.5934 27.4196 51.8514 27.1609 52.2383 27.1609H54.818C55.2049 27.1609 55.4629 27.4196 55.4629 27.8076C55.4629 28.1956 55.2049 28.4543 54.818 28.4543ZM48.4978 28.4543H45.9181C45.5312 28.4543 45.2732 28.1956 45.2732 27.8076C45.2732 27.4196 45.5312 27.1609 45.9181 27.1609H48.4978C48.8847 27.1609 49.1427 27.4196 49.1427 27.8076C49.1427 28.1956 48.8847 28.4543 48.4978 28.4543Z" fill="#718CFF"/>
<path d="M122.663 56.5205C122.276 56.5205 122.018 56.2619 122.018 55.8738V54.5805C122.018 54.1925 122.276 53.9338 122.663 53.9338C123.05 53.9338 123.308 54.1925 123.308 54.5805V55.8738C123.308 56.2619 123.05 56.5205 122.663 56.5205Z" fill="#718CFF"/>
<path d="M111.055 28.5833C111.055 31.8167 109.636 34.7915 107.443 36.8609C105.379 38.6716 102.8 39.8357 99.833 39.8357C99.833 39.8357 99.1881 39.8357 84.484 39.8357C83.9681 39.8357 83.4521 39.8357 82.8072 39.8357C81.9043 39.8357 81.0015 39.8357 80.0986 39.8357H62.5568C55.0758 40.0943 49.1426 34.0155 49.1426 26.9019C49.1426 19.659 55.0758 13.7095 62.5568 13.9682H62.6858C63.4597 11.6401 64.4916 9.57068 65.7814 7.88929C65.7814 7.88929 65.7814 7.88929 65.7814 7.75995C68.1031 4.65585 71.0697 2.45711 74.4233 1.29307C74.5523 1.29307 74.8103 1.16374 74.9392 1.16374C79.4537 -0.388315 84.484 -0.258978 88.8695 1.42241C95.1896 3.75049 100.349 9.18266 101.381 17.4603C106.798 18.2363 111.055 22.8924 111.055 28.5833Z" fill="url(#paint31_linear)"/>
<path d="M99.8331 39.836C106.031 39.836 111.055 34.7981 111.055 28.5836C111.055 22.3691 106.031 17.3312 99.8331 17.3312C93.6356 17.3312 88.6116 22.3691 88.6116 28.5836C88.6116 34.7981 93.6356 39.836 99.8331 39.836Z" fill="url(#paint32_linear)"/>
<path d="M81.5172 39.836C92.4875 39.836 101.381 30.9184 101.381 19.918C101.381 8.91759 92.4875 0 81.5172 0C70.547 0 61.6538 8.91759 61.6538 19.918C61.6538 30.9184 70.547 39.836 81.5172 39.836Z" fill="url(#paint33_linear)"/>
<path d="M107.511 36.9505C105.448 38.7612 102.868 39.9253 99.9013 39.9253C99.9013 39.9253 99.2564 39.9253 84.5523 39.9253L84.4233 39.7959L75.1365 30.4836L75.2655 27.1209L69.7192 21.1713L75.7815 17.1619L82.1016 13.2817L89.3247 15.9978L99.7723 28.1556L107.511 36.9505Z" fill="url(#paint34_linear)"/>
<path d="M76.6841 21.3006C77.0711 20.9126 77.0711 20.1366 76.6841 19.7486C76.2972 19.3605 75.6522 19.3605 75.0073 19.3605C76.9421 14.3164 83.5202 13.2817 86.8738 17.2911C88.1636 18.7139 90.2274 16.9031 89.0665 15.3511C85.455 11.2123 79.1348 10.6949 75.0073 14.3164C73.4595 15.6097 72.4277 17.4205 71.9117 19.3605C70.4929 19.3605 70.2349 19.3605 69.977 19.7486C69.59 20.1366 69.59 20.9126 69.977 21.3006C73.8465 25.1807 72.8146 25.1807 76.6841 21.3006Z" fill="url(#paint35_linear)"/>
<path d="M93.7103 23.7581L91.1306 21.1713C90.7436 20.7833 89.9697 20.7833 89.5828 21.1713L87.0031 23.7581C86.6162 24.1461 86.6162 24.9221 87.0031 25.3101C87.3901 25.6981 88.035 25.6981 88.6799 25.6981C86.7452 30.7423 80.038 31.9063 76.5555 27.6382C76.0395 26.9915 75.1367 26.8622 74.4917 27.3795C72.299 29.1902 77.4584 33.1997 82.1018 33.1997C86.6162 33.1997 90.4857 30.0956 91.7755 25.8275C93.1943 25.8275 93.4523 25.8275 93.7103 25.4395C94.0972 24.9221 94.0972 24.2754 93.7103 23.7581Z" fill="url(#paint36_linear)"/>
<path d="M122.663 60.2714C123.66 60.2714 124.469 59.4607 124.469 58.4606C124.469 57.4606 123.66 56.6499 122.663 56.6499C121.666 56.6499 120.857 57.4606 120.857 58.4606C120.857 59.4607 121.666 60.2714 122.663 60.2714Z" stroke="#718CFF" stroke-miterlimit="10" stroke-linecap="round" stroke-linejoin="round"/>
<path d="M36.5025 61.1767C37.4998 61.1767 38.3083 60.366 38.3083 59.366C38.3083 58.3659 37.4998 57.5552 36.5025 57.5552C35.5052 57.5552 34.6968 58.3659 34.6968 59.366C34.6968 60.366 35.5052 61.1767 36.5025 61.1767Z" stroke="#718CFF" stroke-miterlimit="10" stroke-linecap="round" stroke-linejoin="round"/>
<path d="M1.41895 113.041H170" stroke="#2B323C" stroke-width="2" stroke-miterlimit="10" stroke-linecap="round" stroke-linejoin="round"/>
<defs>
<linearGradient id="paint0_linear" x1="132.959" y1="74.3153" x2="134.005" y2="74.3153" gradientUnits="userSpaceOnUse">
<stop stop-color="#FF66A9"/>
<stop offset="1" stop-color="#F53689"/>
</linearGradient>
<linearGradient id="paint1_linear" x1="128.357" y1="89.8372" x2="129.403" y2="89.8372" gradientUnits="userSpaceOnUse">
<stop stop-color="#FF66A9"/>
<stop offset="1" stop-color="#F53689"/>
</linearGradient>
<linearGradient id="paint2_linear" x1="142.163" y1="85.2219" x2="143.209" y2="85.2219" gradientUnits="userSpaceOnUse">
<stop stop-color="#FF66A9"/>
<stop offset="1" stop-color="#F53689"/>
</linearGradient>
<linearGradient id="paint3_linear" x1="130.658" y1="102.003" x2="131.704" y2="102.003" gradientUnits="userSpaceOnUse">
<stop stop-color="#FF66A9"/>
<stop offset="1" stop-color="#F53689"/>
</linearGradient>
<linearGradient id="paint4_linear" x1="142.163" y1="105.359" x2="143.209" y2="105.359" gradientUnits="userSpaceOnUse">
<stop stop-color="#FF66A9"/>
<stop offset="1" stop-color="#F53689"/>
</linearGradient>
<linearGradient id="paint5_linear" x1="104.434" y1="74.3152" x2="105.48" y2="74.3152" gradientUnits="userSpaceOnUse">
<stop stop-color="#FF66A9"/>
<stop offset="1" stop-color="#F53689"/>
</linearGradient>
<linearGradient id="paint6_linear" x1="99.832" y1="89.8372" x2="100.878" y2="89.8372" gradientUnits="userSpaceOnUse">
<stop stop-color="#FF66A9"/>
<stop offset="1" stop-color="#F53689"/>
</linearGradient>
<linearGradient id="paint7_linear" x1="113.638" y1="85.222" x2="114.684" y2="85.222" gradientUnits="userSpaceOnUse">
<stop stop-color="#FF66A9"/>
<stop offset="1" stop-color="#F53689"/>
</linearGradient>
<linearGradient id="paint8_linear" x1="102.133" y1="102.003" x2="103.179" y2="102.003" gradientUnits="userSpaceOnUse">
<stop stop-color="#FF66A9"/>
<stop offset="1" stop-color="#F53689"/>
</linearGradient>
<linearGradient id="paint9_linear" x1="113.638" y1="105.359" x2="114.684" y2="105.359" gradientUnits="userSpaceOnUse">
<stop stop-color="#FF66A9"/>
<stop offset="1" stop-color="#F53689"/>
</linearGradient>
<linearGradient id="paint10_linear" x1="117.143" y1="56.4319" x2="118.236" y2="56.4319" gradientUnits="userSpaceOnUse">
<stop stop-color="#FF66A9"/>
<stop offset="1" stop-color="#F53689"/>
</linearGradient>
<linearGradient id="paint11_linear" x1="117.143" y1="72.506" x2="118.236" y2="72.506" gradientUnits="userSpaceOnUse">
<stop stop-color="#FF66A9"/>
<stop offset="1" stop-color="#F53689"/>
</linearGradient>
<linearGradient id="paint12_linear" x1="112.334" y1="88.7283" x2="113.427" y2="88.7283" gradientUnits="userSpaceOnUse">
<stop stop-color="#FF66A9"/>
<stop offset="1" stop-color="#F53689"/>
</linearGradient>
<linearGradient id="paint13_linear" x1="126.763" y1="83.9047" x2="127.856" y2="83.9047" gradientUnits="userSpaceOnUse">
<stop stop-color="#FF66A9"/>
<stop offset="1" stop-color="#F53689"/>
</linearGradient>
<linearGradient id="paint14_linear" x1="114.738" y1="101.443" x2="115.831" y2="101.443" gradientUnits="userSpaceOnUse">
<stop stop-color="#FF66A9"/>
<stop offset="1" stop-color="#F53689"/>
</linearGradient>
<linearGradient id="paint15_linear" x1="126.763" y1="104.951" x2="127.856" y2="104.951" gradientUnits="userSpaceOnUse">
<stop stop-color="#FF66A9"/>
<stop offset="1" stop-color="#F53689"/>
</linearGradient>
<linearGradient id="paint16_linear" x1="36.2975" y1="113.652" x2="36.2975" y2="101.583" gradientUnits="userSpaceOnUse">
<stop stop-color="#474755"/>
<stop offset="0.9913" stop-color="#2F3338"/>
</linearGradient>
<linearGradient id="paint17_linear" x1="3.94875" y1="75.8465" x2="5.49745" y2="75.8465" gradientUnits="userSpaceOnUse">
<stop stop-color="#FF66A9"/>
<stop offset="1" stop-color="#F53689"/>
</linearGradient>
<linearGradient id="paint18_linear" x1="7.10572" y1="63.6623" x2="8.65442" y2="63.6623" gradientUnits="userSpaceOnUse">
<stop stop-color="#FF66A9"/>
<stop offset="1" stop-color="#F53689"/>
</linearGradient>
<linearGradient id="paint19_linear" x1="10.2624" y1="75.8465" x2="11.8109" y2="75.8465" gradientUnits="userSpaceOnUse">
<stop stop-color="#83A6FF"/>
<stop offset="1" stop-color="#5A78FF"/>
</linearGradient>
<linearGradient id="paint20_linear" x1="16.5762" y1="72.8005" x2="18.1248" y2="72.8005" gradientUnits="userSpaceOnUse">
<stop stop-color="#FF66A9"/>
<stop offset="1" stop-color="#F53689"/>
</linearGradient>
<linearGradient id="paint21_linear" x1="26.0467" y1="88.0308" x2="27.5954" y2="88.0308" gradientUnits="userSpaceOnUse">
<stop stop-color="#83A6FF"/>
<stop offset="1" stop-color="#5A78FF"/>
</linearGradient>
<linearGradient id="paint22_linear" x1="29.2037" y1="81.9387" x2="30.7522" y2="81.9387" gradientUnits="userSpaceOnUse">
<stop stop-color="#FF66A9"/>
<stop offset="1" stop-color="#F53689"/>
</linearGradient>
<linearGradient id="paint23_linear" x1="54.4828" y1="72.8005" x2="56.0313" y2="72.8005" gradientUnits="userSpaceOnUse">
<stop stop-color="#FF66A9"/>
<stop offset="1" stop-color="#F53689"/>
</linearGradient>
<linearGradient id="paint24_linear" x1="63.9534" y1="88.0308" x2="65.5021" y2="88.0308" gradientUnits="userSpaceOnUse">
<stop stop-color="#83A6FF"/>
<stop offset="1" stop-color="#5A78FF"/>
</linearGradient>
<linearGradient id="paint25_linear" x1="63.9534" y1="72.8005" x2="65.5021" y2="72.8005" gradientUnits="userSpaceOnUse">
<stop stop-color="#83A6FF"/>
<stop offset="1" stop-color="#5A78FF"/>
</linearGradient>
<linearGradient id="paint26_linear" x1="67.1104" y1="81.9387" x2="68.6591" y2="81.9387" gradientUnits="userSpaceOnUse">
<stop stop-color="#FF66A9"/>
<stop offset="1" stop-color="#F53689"/>
</linearGradient>
<linearGradient id="paint27_linear" x1="35.5175" y1="72.8005" x2="37.0661" y2="72.8005" gradientUnits="userSpaceOnUse">
<stop stop-color="#83A6FF"/>
<stop offset="1" stop-color="#5A78FF"/>
</linearGradient>
<linearGradient id="paint28_linear" x1="38.6738" y1="78.8925" x2="40.2225" y2="78.8925" gradientUnits="userSpaceOnUse">
<stop stop-color="#FF66A9"/>
<stop offset="1" stop-color="#F53689"/>
</linearGradient>
<linearGradient id="paint29_linear" x1="38.6738" y1="69.7544" x2="40.2225" y2="69.7544" gradientUnits="userSpaceOnUse">
<stop stop-color="#83A6FF"/>
<stop offset="1" stop-color="#5A78FF"/>
</linearGradient>
<linearGradient id="paint30_linear" x1="44.9877" y1="69.7544" x2="46.5364" y2="69.7544" gradientUnits="userSpaceOnUse">
<stop stop-color="#FF66A9"/>
<stop offset="1" stop-color="#F53689"/>
</linearGradient>
<linearGradient id="paint31_linear" x1="80.1325" y1="-0.122954" x2="80.1325" y2="39.8648" gradientUnits="userSpaceOnUse">
<stop stop-color="#83A6FF"/>
<stop offset="1" stop-color="#5A78FF"/>
</linearGradient>
<linearGradient id="paint32_linear" x1="87.4874" y1="15.0733" x2="97.4636" y2="25.9267" gradientUnits="userSpaceOnUse">
<stop stop-color="#83A6FF"/>
<stop offset="1" stop-color="#87A5FF" stop-opacity="0"/>
</linearGradient>
<linearGradient id="paint33_linear" x1="66.4552" y1="8.29222" x2="73.1484" y2="13.4374" gradientUnits="userSpaceOnUse">
<stop stop-color="#83A6FF"/>
<stop offset="1" stop-color="#87A5FF" stop-opacity="0"/>
</linearGradient>
<linearGradient id="paint34_linear" x1="76.3932" y1="17.2281" x2="100.323" y2="41.0921" gradientUnits="userSpaceOnUse">
<stop stop-color="#4F6AFF"/>
<stop offset="1" stop-color="#657EFF" stop-opacity="0"/>
</linearGradient>
<linearGradient id="paint35_linear" x1="90.2628" y1="29.0487" x2="80.0135" y2="18.8275" gradientUnits="userSpaceOnUse">
<stop offset="0.0113208" stop-color="#C2D1FF"/>
<stop offset="1" stop-color="white"/>
</linearGradient>
<linearGradient id="paint36_linear" x1="88.3136" y1="31.0037" x2="78.0641" y2="20.7825" gradientUnits="userSpaceOnUse">
<stop offset="0.0113208" stop-color="#C2D1FF"/>
<stop offset="1" stop-color="white"/>
</linearGradient>
</defs>
</svg>
